<?xml version="1.0" encoding="UTF-8"?>
<svg id="Layer_2" data-name="Layer 2" xmlns="http://www.w3.org/2000/svg" viewBox="0 0 283.5 444.11">
  <defs>
    <style>
      .cls-1 {
        fill: #877ab9;
      }

      .cls-2 {
        fill: #c3b8db;
      }

      .cls-3 {
        fill: #7d74b6;
      }

      .cls-4 {
        fill: #aca1ce;
      }

      .cls-5 {
        fill: #975877;
      }

      .cls-6 {
        fill: #a09acb;
      }

      .cls-7 {
        fill: #c1bedf;
      }

      .cls-8 {
        fill: #cac2e1;
      }

      .cls-9 {
        fill: #c08ca6;
      }

      .cls-10 {
        fill: #e0ddef;
      }

      .cls-11 {
        fill: #9f97c9;
      }

      .cls-12 {
        fill: #8b4870;
      }

      .cls-13 {
        fill: #9a5f82;
      }

      .cls-14 {
        fill: #b5b0d7;
      }

      .cls-15 {
        fill: #8e89c2;
      }

      .cls-16 {
        fill: #e4e5f3;
      }

      .cls-17 {
        fill: #746eb3;
      }

      .cls-18 {
        fill: #a66e92;
      }

      .cls-19 {
        fill: #aca7d3;
      }

      .cls-20 {
        fill: #aaa1cf;
      }

      .cls-21 {
        fill: #b3a7d2;
      }

      .cls-22 {
        fill: #bbb3d9;
      }

      .cls-23 {
        fill: #d2cde7;
      }

      .cls-24 {
        fill: #6860aa;
      }

      .cls-25 {
        fill: #837cbb;
      }

      .cls-26 {
        fill: #887dbb;
      }

      .cls-27 {
        fill: #b06878;
      }

      .cls-28 {
        fill: #746ab0;
      }

      .cls-29 {
        fill: #8478b8;
      }

      .cls-30 {
        fill: #6d63ac;
      }

      .cls-31 {
        fill: #885175;
      }

      .cls-32 {
        fill: #b5abd4;
      }

      .cls-33 {
        fill: #958ac2;
      }

      .cls-34 {
        fill: #9892c7;
      }

      .cls-35 {
        fill: #57499e;
      }

      .cls-36 {
        fill: #81536d;
      }

      .cls-37 {
        fill: #bcb5da;
      }

      .cls-38 {
        fill: #5b54a4;
      }

      .cls-39 {
        fill: #d7d4ea;
      }

      .cls-40 {
        fill: #837fbc;
      }

      .cls-41 {
        fill: #8b84bf;
      }

      .cls-42 {
        fill: #f1f2f8;
      }

      .cls-43 {
        fill: #794b64;
      }

      .cls-44 {
        fill: #b9add5;
      }

      .cls-45 {
        fill: #afaed7;
      }

      .cls-46 {
        fill: #9183be;
      }

      .cls-47 {
        fill: #4f3d98;
      }

      .cls-48 {
        fill: #9a8fc5;
      }

      .cls-49 {
        fill: #bcb9dd;
      }

      .cls-50 {
        fill: #eceef8;
      }

      .cls-51 {
        fill: #ada3d0;
      }

      .cls-52 {
        fill: #a66788;
      }

      .cls-53 {
        fill: #9d96c9;
      }

      .cls-54 {
        fill: #a15b86;
      }

      .cls-55 {
        fill: #4d3494;
      }

      .cls-56 {
        fill: #aea5d1;
      }

      .cls-57 {
        fill: #a59acb;
      }

      .cls-58 {
        fill: #aea7d2;
      }
    </style>
  </defs>
  <g id="flower">
    <g>
      <g>
        <path class="cls-13" d="M124.68,122.73c-.05.74-.06,1.46-.05,2.18.26-2.84.54-5.61.86-8.31-.38,1.9-.67,3.96-.81,6.13Z"/>
        <path class="cls-13" d="M128.67,95.39c-.04.23-.07.45-.11.67.31-1.67.63-3.31.96-4.92-.3,1.38-.59,2.79-.86,4.24Z"/>
        <path class="cls-13" d="M178.75,370.53c-.03,4.59.59,11.25,1.84,18.6.28,1.66.62,3.26.98,4.81-.31-3.82-.69-7.62-1.15-11.42-.5-4.16-1.06-8.15-1.68-12Z"/>
        <path class="cls-18" d="M123.6,139.85c-1.87,12.97-3.21,27.36-3.16,42.87.08,11.86,1.04,24.32,3.25,37.07,2.2,12.75,5.67,25.78,10.69,38.6,2.49,6.42,5.34,12.54,8.16,18.49,1.4,2.97,2.8,5.91,4.18,8.83,1.38,2.92,2.76,5.81,4.07,8.69,5.35,11.5,10.34,22.64,14.68,33.41,4.16,10.32,7.87,20.23,10.89,29.7-13.44-64.44-42.4-82.74-49.71-143.4-3.4-28.18-4.07-52.84-3.05-74.24Z"/>
        <path class="cls-13" d="M185.68,381.36c-1.69-7.2-5.14-20.21-5.22-20.87-5.05-41.91-45.54-94.32-52.35-150.77-7.17-59.51,11.19-130.44,11.7-139.26.05-.78.08-1.56.12-2.35-.22.65-.46,1.38-.72,2.21-.15-1.13-.43-1.79-.86-1.88-.99-.23-2.61,2.64-4.4,7.48-1.45,3.93-3.09,9.18-4.42,15.22-.33,1.61-.65,3.24-.96,4.92-.62,3.68-.92,7.27-.92,10.55,0,.92.02,1.83.06,2.69-.09.19-.18.39-.26.6-.76,1.81-1.45,4.1-1.96,6.7-.31,2.7-.6,5.47-.86,8.31.02,1.87.2,3.65.49,5.29-.53,3.12-1.04,6.35-1.52,9.66-1.02,21.4-.35,46.07,3.05,74.24,7.31,60.66,36.27,78.96,49.71,143.4.13.42.27.84.4,1.25.42,1.22.78,2.44,1.12,3.66.36,1.22.71,2.43,1.06,3.61.03.12.07.23.1.34-.19,1.05-.28,2.47-.29,4.17.61,3.84,1.18,7.83,1.68,12,.46,3.8.84,7.6,1.15,11.42.43,1.81.89,3.54,1.38,5.16-.15-.14-.24-.23-.28-.27.03.06.18.32.43.77h0c.79,2.57,1.62,4.86,2.38,6.79.15,1.43.32,2.9.5,4.4.38,3.21.82,6.61,1.28,10.06.04.3.07.61.12.92-.09.72-.21,1.46-.34,2.22-.43,2.56-1.05,5.34-1.47,8.46-.21,1.55-.35,3.2-.36,4.92v.16s0,.26,0,.26c.01.18.03.36.05.53.04.35.11.67.18,1,.16.66.39,1.28.76,1.95.38.64.84,1.38,1.93,2.08.05.03.08.06.13.09.58.35,1.39.64,2.26.67.44.02.84-.04,1.25-.12.37-.1.71-.22,1.04-.37l1.62-.73.29-1.75c.03-2.41.04-4.32-.02-4.82l-9.04-54.94Z"/>
        <path class="cls-31" d="M192.77,409.78c-1.14-6.37-2.27-12.1-3.32-16.89-.61-2.78-1.2-5.24-1.75-7.33-.35-2.11-.65-4.3-1.07-6.49-.46-2.29-.94-4.62-1.43-7.01-.45-2.39-1.06-4.79-1.67-7.25-.3-1.23-.6-2.46-.92-3.72-.3-1.25-.61-2.52-.98-3.77-2.72-10.12-6.25-20.75-10.32-31.8-4.08-11.03-8.85-22.42-14.05-34.07-1.28-2.93-2.63-5.85-3.97-8.8-1.36-2.94-2.73-5.9-4.1-8.89-2.75-5.94-5.5-11.93-7.9-18.09-4.82-12.31-8.21-24.85-10.43-37.15-2.23-12.31-3.31-24.38-3.57-35.89-.29-15.28.73-29.57,2.22-42.52.45.75.73,1.14.73,1.14,0,0,.16-.5.38-1.38.21-.87.51-2.13.8-3.64.58-3.04,1.21-7.08,1.22-11.49.01-2.33-.02-4.54-.08-6.54,1.19-7.45,2.39-14.23,3.51-20.28,1.27-6.89,2.37-12.84,3.27-17.7,1.77-9.73,2.55-15.17,2.05-15.28-.23-.06-.73,1.04-1.45,3.18-.04.78-.08,1.56-.12,2.35-.51,8.82-18.87,79.75-11.7,139.26,6.8,56.45,47.3,108.86,52.35,150.77.08.66,3.53,13.68,5.22,20.87l9.04,54.94c.06.5.05,2.41.02,4.82l.04-.22c.52-3.1.8-6.39.77-9.75-.02-3.98-.51-7.83-1.07-11.34-.56-3.52-1.14-6.84-1.71-10.04Z"/>
      </g>
      <path class="cls-9" d="M110.21,171.22c-1.36.97-2.61,2.13-3.71,3.42-5.53,6.47-4.64,27.51-16.72,46.72.56-.55,1.09-1.12,1.59-1.71,9.31-10.9,9.3-32.62,18.84-48.43Z"/>
      <path class="cls-5" d="M115.86,170.13c-.87-.25-1.74-.47-2.61-.66-1.06.48-2.07,1.07-3.03,1.75-9.54,15.81-9.53,37.53-18.84,48.43-.5.59-1.04,1.16-1.59,1.71-1.5,2.38-3.19,4.73-5.13,7.02,4.01-2.79,7.69-6.12,10.87-9.85,15.18-17.77,10.11-32.6,20.33-48.41Z"/>
      <path class="cls-43" d="M76.83,235.74c-.76.54-1.54,1.06-2.33,1.55,19.92-3.49,52.53-36.1,52.75-36.36,5.52-6.47,4.52-14.43,1.95-22.62-1.58,8.32-5.6,17.58-13.36,26.68-8.15,9.55-25.39,27.58-39,30.76Z"/>
      <path class="cls-12" d="M115.86,170.13c-10.21,15.81-5.15,30.64-20.33,48.41-3.18,3.73-6.86,7.05-10.87,9.85-.08.1-.17.2-.25.3-2.28,2.67-4.8,5.05-7.58,7.05,13.62-3.17,30.85-21.21,39-30.76,7.77-9.1,11.78-18.36,13.36-26.68-.27-.87-.56-1.74-.86-2.61-3.88-2.42-8.11-4.33-12.47-5.57Z"/>
      <path class="cls-5" d="M138.25,191.91c-.88-.2-1.77-.47-2.67-.82-.55.41-1.02.86-1.44,1.35-5.59,6.55.5,19.14-.85,28.21-.95,6.35,23.85,27.6,12.45,57.43.11-.13.23-.25.34-.38,17.16-20.1-23.14-59.52-7.83-85.78Z"/>
      <path class="cls-12" d="M148.9,277.07c13.4-17.06-1.9-39.23-1.88-64.52,0-6.88,1.15-13.99,4.31-21.3.25-.57.51-1.14.78-1.72-1.79.97-3.63,1.74-5.54,2.22-13.57,29.52,18.46,59.99,2.32,85.31Z"/>
      <path class="cls-54" d="M146,279.79c-.43.51-.91.99-1.43,1.45,1.35-.95,2.55-2.05,3.61-3.28.25-.29.49-.59.72-.89,16.14-25.32-15.9-55.8-2.32-85.31-.85.22-1.71.37-2.58.47-8.59,27.75,18.62,68.09,2,87.56Z"/>
      <path class="cls-52" d="M144,192.23c-1.87.21-3.79.12-5.75-.32-15.31,26.26,24.99,65.69,7.83,85.78-.11.13-.23.25-.34.38-.42,1.1-.88,2.21-1.41,3.34.08-.05.16-.11.24-.17.52-.46.99-.94,1.43-1.45,16.62-19.46-10.59-59.8-2-87.56Z"/>
      <path class="cls-12" d="M160.88,215.29c-9.83-8.4-9.63-17.4-4.74-28.32-.68.5-1.37.97-2.07,1.42-.64.41-1.3.8-1.96,1.16-.2.42-.39.84-.58,1.26-2.81,8.71-3.56,18.98,3.03,24.62,2.76,2.35,8.91,4.35,18.18,12.27,1.43,1.22,2.81,2.49,4.13,3.8.85.66,1.71,1.37,2.6,2.13,8.93,7.62,15.55,17.32,16.12,28.24.88-2.2,1.42-4.36,1.7-6.49-3.77-10.93-11.46-20.99-20.26-28.5-4.95-4.23-11.21-7.35-16.17-11.58Z"/>
      <path class="cls-43" d="M154.57,215.42c-6.6-5.63-5.84-15.91-3.03-24.62-.07.15-.14.3-.2.46-3.16,7.3-4.31,14.42-4.31,21.3,1.12,1.54,2.4,2.95,3.81,4.16,5.45,4.66,13.67,5.06,26.05,14.78-1.32-1.32-2.7-2.59-4.13-3.8-9.28-7.92-15.43-9.92-18.18-12.27Z"/>
      <path class="cls-5" d="M169.5,184.08c-3.08.55-6.28.46-9.35-.39-1.3,1.16-2.64,2.27-4.02,3.28-4.89,10.92-5.1,19.92,4.74,28.32,4.96,4.23,11.21,7.35,16.17,11.58,8.8,7.52,16.49,17.58,20.26,28.5.26-1.98.27-3.94.09-5.88-.89-1.81-1.94-3.55-3.14-5.22-11.33-15.66-27.19-40.81-24.75-60.19Z"/>
      <path class="cls-52" d="M194.25,244.27c1.2,1.66,2.25,3.41,3.14,5.22-1.67-18.12-20.5-34.84-24.19-55.67-.48-2.73-.71-5.53-.6-8.41.03-.71.07-1.43.14-2.16-1.06.36-2.15.64-3.25.84-2.44,19.38,13.42,44.53,24.75,60.19Z"/>
      <path class="cls-27" d="M186.36,169.05c.32,10.28,6.53,17.78,14.17,26.45-.76-1.13-1.53-2.29-2.28-3.47-5.14-8.13-9.66-17.74-8.04-31.25-1.58,2.55-2.64,5.36-3.85,8.27Z"/>
      <path class="cls-12" d="M182,177.36c-.47.66-.97,1.31-1.53,1.96-1.75,2.05-3.76,3.78-6.03,5.11.49.85,1.15,1.63,1.89,2.27,3.09,2.64,15.96,4.69,24.42,11.92,3.82,3.26,6.82,8.62,9.05,14.2-1.03-5-4.09-9.66-7.51-14.7-8.02-8.39-16.16-14-20.28-20.79,0,.01-.02.02-.02.03Z"/>
      <path class="cls-43" d="M176.34,186.7c-.75-.64-1.4-1.42-1.89-2.27-.6.35-1.21.67-1.84.97-.11,2.88.11,5.68.6,8.41,7.46-.75,19.67-1.6,28.08,5.59,5.82,4.97,7.9,13.6,8.29,21.46.76-2.83.76-5.48.23-8.04-2.23-5.59-5.23-10.94-9.05-14.2-8.46-7.23-21.33-9.28-24.42-11.92Z"/>
      <path class="cls-5" d="M186.36,169.05c-.59,1.42-1.21,2.86-1.95,4.3-.68,1.33-1.46,2.66-2.39,3.98,4.12,6.79,12.26,12.4,20.28,20.79-.58-.86-1.18-1.73-1.77-2.62-7.63-8.67-13.84-16.17-14.17-26.45Z"/>
      <path class="cls-9" d="M204.81,174.63c14.67,12.52,21.1,10.54,30.35,18.44,3.61,3.08,6.62,6.78,9.22,10.76-1.57-5.67-4.29-10.88-8.85-14.77-5.45-4.65-13.79-7.27-21.44-11-3.44-1.68-6.73-3.58-9.57-6-3.65-3.12-5.92-6.53-7.21-10.3,1.1,4.73,3.37,9.35,7.49,12.87Z"/>
      <path class="cls-12" d="M199.21,185.46c-3.8-3.24-8.45-18.44-6.8-27.6-.14.15-.27.3-.41.45-.67.79-1.26,1.61-1.79,2.46-1.62,13.5,2.9,23.12,8.04,31.25,8.94-1.31,23.42-3.64,37.25,8.17,7.01,5.98,9.7,12.28,10.78,19.53-.01-3.21-.19-6.52-.65-9.77-2.26-3.83-5.15-7.27-8.53-10.16-15.29-13.06-29.31-7-37.89-14.33Z"/>
      <path class="cls-52" d="M204.81,174.63c-4.12-3.52-6.39-8.14-7.49-12.87-.2-.6-.39-1.2-.54-1.81-.35-1.38-.58-2.8-.72-4.26-3.87,8.93-3.55,20.59,4.03,27.06,4.99,4.26,21.61,2.14,36.15,14.56,4.11,3.51,6.92,7.2,9.16,11.14-.27-1.56-.6-3.1-1.02-4.61-2.61-3.98-5.62-7.68-9.22-10.76-9.25-7.9-15.68-5.92-30.35-18.44Z"/>
      <path class="cls-54" d="M200.08,182.74c-7.57-6.46-7.9-18.13-4.03-27.06-.03-.32-.06-.65-.08-.98-.31.26-.62.51-.91.75-.99.81-1.85,1.53-2.67,2.41-1.64,9.16,3.01,24.35,6.8,27.6,8.58,7.33,22.6,1.27,37.89,14.33,3.39,2.89,6.27,6.33,8.53,10.16-.07-.51-.15-1.01-.24-1.51-2.24-3.95-5.05-7.63-9.16-11.14-14.54-12.41-31.17-10.3-36.15-14.56Z"/>
      <path class="cls-12" d="M230.81,169.54c.36-.02.71-.09,1.06-.19-3.11-.02-5.45-.59-6.24-.52-8.46.8-19.02.47-25.53-5.09-1.46-1.25-2.53-2.51-3.31-3.79.32,1.24.73,2.45,1.25,3.62.54.51,1.09,1,1.65,1.48,10.61,9.06,14.7,5.55,31.13,4.49Z"/>
      <path class="cls-36" d="M245.61,164.57c-4.8,3.99-9.87,4.81-13.75,4.78-.35.1-.7.17-1.06.19-16.43,1.06-20.52,4.57-31.13-4.49-.56-.48-1.11-.98-1.65-1.48.72,1.63,1.65,3.19,2.83,4.69.62.61,1.26,1.21,1.92,1.77,10.86,9.28,16.52.92,21.36.57,5.94-.42,12.69-.35,18.3-2.52.71-.58,1.45-1.31,2.24-2.23.35-.41.66-.84.94-1.3Z"/>
      <path class="cls-43" d="M224.14,170.61c-4.84.34-10.49,8.7-21.36-.57-.66-.57-1.3-1.16-1.92-1.77,1.03,1.32,2.25,2.58,3.68,3.81,2.83,2.42,6.13,4.32,9.57,6,17.24-12.49,21.57-4.48,28.34-9.97-5.6,2.17-12.36,2.1-18.3,2.52Z"/>
      <path class="cls-15" d="M237.29,117.04c4.49-5.25,5.7-11.29.59-15.65-2.18-1.86-6.54-3.83-8.78-5.09-.2.07-.4.14-.6.21,2.45,5.85,14.16,10.55,3.2,23.39-4.94,5.79-11.91,10.62-18.13,15.13-5.61,4.07-9.49,8-15.3,11.81-11.38,7.47-15.55,10.14-26.55,15.47-1.44.7-2.16,1.02-7.14,2.85.26.15.52.29.78.43.19-.06.39-.11.58-.16,20.09-5.27,67.16-43.45,71.36-48.38Z"/>
      <path class="cls-25" d="M227.6,96.83c1.59,7.07,8.75,10.95-5.61,27.77-13.31,15.59-34.17,28.75-48.2,35.67-2.16,1.2-4.2,2.25-6.05,3.11,0-.11,0-.23,0-.33,0-1.22-.41-2.11-.52-3.69-1.76,1.58-3.61,2.91-5.53,4.02.65.44,1.31.85,1.96,1.24.16.09.31.19.47.28.15.09.31.17.46.26,4.97-1.83,5.69-2.15,7.14-2.85,11-5.33,15.17-8,26.55-15.47,5.81-3.81,9.69-7.74,15.3-11.81,6.23-4.52,13.19-9.35,18.13-15.13,10.96-12.84-.74-17.54-3.2-23.39-.3.11-.6.22-.9.33Z"/>
      <path class="cls-21" d="M254.49,89.06c-5.94,2.28-12.12,3.54-18.15,5.1.22.53.58.98.94,1.28,1.07.92,6.17,2.21,9.24,4.83,4.89,4.17,2.32,11.74-1.77,16.53-6.75,7.91-30.94,21.41-32.6,23.35-1,1.17-1.71,2.75-1.87,4.28,17.37-13.62,42.78-4.97,68.86-35.51,1.61-1.88,2.93-3.49,4-4.9,1.16-5.65-.44-11.59-5.28-15.73-12.27-10.47-18.61-1.06-23.37.77ZM275.01,112.56c-13.37,15.66-52.07,26.19-56.47,24.54,4.69-3.97,10.18-6.69,15.48-9.98,5.18-3.22,11.39-8.95,13.99-12,4.25-4.98,7.04-10.19,2.1-14.41-3.6-3.07-7.11-2.75-8.48-3.92-1.17-1-.57-1.55-.35-1.81,2.56-3,7.14-1.96,10.89-2.54,10.04-1.56,10.59-14.37,23.2-3.6,6.3,5.38,10.64,10.84-.36,23.72Z"/>
      <path class="cls-11" d="M209.91,141.09c9.98-7.08,22.39-12.89,30.06-21.88,5.09-5.96,8.98-13.04,3.02-18.14-2.83-2.42-7.44-4.47-10.48-5.87-1,.29-1.98.6-2.96.93-.15.05-.3.11-.45.16,2.25,1.27,6.6,3.23,8.78,5.09,5.11,4.36,3.9,10.4-.59,15.65-4.2,4.92-51.27,43.11-71.36,48.38-.2.05-.39.11-.58.16.5.27,1.01.52,1.51.76,6.26-1.27,15.08-7.84,29.22-14.15,5.32-2.37,8.81-7.53,13.82-11.09Z"/>
      <path class="cls-51" d="M244.75,116.8c4.08-4.78,6.66-12.35,1.77-16.53-3.07-2.62-8.17-3.91-9.24-4.83-.35-.3-.71-.75-.94-1.28-1.28.33-2.56.67-3.82,1.05,3.04,1.4,7.64,3.45,10.48,5.87,5.96,5.09,2.07,12.18-3.02,18.14-7.67,8.98-20.08,14.8-30.06,21.88-5.02,3.56-8.51,8.72-13.82,11.09-14.15,6.31-22.96,12.88-29.22,14.15.8.38,1.6.73,2.4,1.04,17.31-12.78,29.72-10.41,33.85-15.24.02-.03,1.29-1.82,2.4-3.11,1.51-1.77,3.11-3.28,4.78-4.59.15-1.53.87-3.12,1.87-4.28,1.65-1.94,25.85-15.44,32.6-23.35Z"/>
      <path class="cls-44" d="M252.17,92.44c-3.75.58-8.32-.46-10.89,2.54-.22.26-.82.82.35,1.81,1.37,1.17,4.88.85,8.48,3.92,4.94,4.22,2.15,9.42-2.1,14.41-2.6,3.04-8.8,8.78-13.99,12-5.3,3.29-10.79,6.01-15.48,9.98,4.41,1.65,43.1-8.88,56.47-24.54,11-12.88,6.66-18.35.36-23.72-12.62-10.77-13.16,2.04-23.2,3.6ZM273.66,111.04c-8.93,10.46-36.62,22.86-41.22,18.94.11-.45.34-.84.63-1.17.32-.37.71-.69,1.07-1,.17-.14,7.34-4.39,14.12-12.33,2.26-2.65,9.12-11.28,5.83-14.08-1.76-1.5-4.88-2.35-6.08-3.38s-1.6-2.42-.59-3.61c.6-.7,1.58-1.16,2.54-1.1,14.44.79,11.2-14.64,23.68-3.99,7.28,6.21,5.76,14.98.01,21.71Z"/>
      <path class="cls-2" d="M249.97,93.31c-.96-.05-1.94.4-2.54,1.1-1.01,1.19-.6,2.59.59,3.61s4.33,1.88,6.08,3.38c3.29,2.81-3.57,11.43-5.83,14.08-6.78,7.94-13.95,12.18-14.12,12.33-.37.3-.76.62-1.07,1-.29.34-.52.72-.63,1.17,4.59,3.92,32.28-8.47,41.22-18.94,5.75-6.73,7.26-15.5-.01-21.71-12.48-10.65-9.24,4.78-23.68,3.99ZM269.9,111.92c-1.66,1.95-14.44,12.63-21.61,9.68-.67-1.59.25-2.96,1-4.22,3.74-6.36,11.84-13.19,4.59-20.15-.7-.67-.58-1.78.08-2.54.24-.28.55-.52.92-.67,13.47-5.44,9.53-10.47,15.56-5.32,9.23,7.88,7.52,13.8-.53,23.23Z"/>
      <path class="cls-8" d="M254.88,94.02c-.37.15-.68.38-.92.67-.65.76-.78,1.87-.08,2.54,7.25,6.96-.85,13.79-4.59,20.15-.75,1.27-1.67,2.63-1,4.22,7.17,2.95,19.95-7.73,21.61-9.68,8.05-9.43,9.77-15.34.53-23.23-6.03-5.14-2.09-.12-15.56,5.32ZM271.61,106.75c-3.08,3.61-6.15,5.3-9.8,2.19-.07-.06-.15-.13-.22-.2,3.51-5.37-2.49-10.89,1.3-15.33,2.63-3.08,6.3-2.4,9.36.22,3.73,3.18,4.59,6.99-.65,13.12Z"/>
      <path class="cls-23" d="M262.9,93.41c-3.79,4.44,2.21,9.96-1.3,15.33.07.07.14.13.22.2,3.65,3.12,6.72,1.42,9.8-2.19,5.24-6.13,4.38-9.94.65-13.12-3.06-2.61-6.73-3.3-9.36-.22Z"/>
      <path class="cls-23" d="M210.39,27.21c-5.68-4.85-11.13-5.73-14.83-8.89-1.44-1.23-2.65-2.75-3.25-4.51-.94.63-1.93,1.4-2.97,2.31,2.61,1.73,9.99,4.8,16,9.93,10.11,8.63,8.54,17.38,14.75,22.68.63.54,1.36.97,1.92,1.57,17.57,19.08,8.69,25.79,9.26,40.58,1.26-3.39,2.8-6.93,4.27-10.55-1.86-7.28.52-19.32-19.46-40.69.36-5.4-2.08-9.35-5.69-12.43Z"/>
      <path class="cls-8" d="M222.01,50.31c-.56-.61-1.29-1.04-1.92-1.57-6.21-5.3-4.64-14.05-14.75-22.68-6.01-5.13-13.39-8.2-16-9.93-.75.66-1.53,1.4-2.34,2.23,6.73,1.2,10.68,2.56,15.77,6.92,1.75,1.49,3.27,3.16,4.6,4.97,6.79,7.57,5.39,13.91,11.18,18.86.28.24.57.48.85.72.7.59,1.37,1.33,1.99,2.1.78.52,1.53,1.08,2.23,1.68,7.48,6.39,10.24,16.93,7.38,26.56-2.03,6.83-3.36,12.38-4.33,17.03.95-.37,1.91-.72,2.87-1.04.46-1.7,1.05-3.45,1.72-5.25-.57-14.78,8.31-21.5-9.26-40.58Z"/>
      <path class="cls-39" d="M236.52,71.53c-1.94-2.14-2.09-3.33-2.97-5.92-4.93-14.47-13.16-20.67-15.57-27.51-3.06-8.65-3.71-9.45-8.41-13.46-4.92-4.2-8.44-4.97-10.47-6.7-2.42-2.07-2.77-4.21-1.65-6.5-1.54.35-3.24,1.09-5.14,2.37.6,1.76,1.81,3.28,3.25,4.51,3.7,3.16,9.15,4.04,14.83,8.89,3.61,3.08,6.05,7.03,5.69,12.43,19.98,21.37,17.59,33.41,19.46,40.69.98-2.42,1.93-4.87,2.74-7.34-.62-.38-1.21-.86-1.76-1.46Z"/>
      <path class="cls-10" d="M212.08,17.61c-3.67-.91-7.43-7.8-14.64-6.16-1.12,2.29-.77,4.43,1.65,6.5,2.02,1.73,5.54,2.5,10.47,6.7,4.7,4.01,5.35,4.81,8.41,13.46,2.41,6.84,10.64,13.03,15.57,27.51.88,2.59,1.03,3.78,2.97,5.92.55.6,1.14,1.08,1.76,1.46,3.53-10.73,4.46-21.75-5.84-31.34-2.49-2.32,4.39-17.84-4.66-25.57-6.94-5.93-10.52,2.8-15.7,1.51ZM231.08,41.22c13.42,15.5,7.44,29.24,7.04,29.72-.63.74-1.75-.46-2.4-1.61-1.75-3.09-2.81-11.94-7.52-16.98-7.93-8.49-8.41-20.91-15.46-26.93-4.58-3.91-10.58-6.02-12.64-7.78-1.37-1.17-3.33-3.25-2.16-5.2.58-.96,3.24-.96,5.67.49,2.08,1.24,4.54,2.67,5.3,3.36,7.08,6.43,8.99-4.13,16.81-.49,10.52,4.9,4.1,23.95,5.37,25.42Z"/>
      <path class="cls-16" d="M225.71,15.8c-7.82-3.64-9.73,6.92-16.81.49-.76-.69-3.22-2.12-5.3-3.36-2.43-1.45-5.09-1.45-5.67-.49-1.17,1.94.8,4.03,2.16,5.2,2.06,1.76,8.06,3.87,12.64,7.78,7.05,6.02,7.53,18.44,15.46,26.93,4.71,5.04,5.77,13.89,7.52,16.98.65,1.15,1.77,2.35,2.4,1.61.4-.47,6.38-14.22-7.04-29.72-1.27-1.47,5.15-20.52-5.37-25.42ZM230.7,41.43c.52,2.08,11.02,14.71,8.22,25.53-.87,3.38-2.5,1.97-3.45.25-2.4-7.14-4.38-14.21-11.57-22.69-2.72-3.2-1.58-11.96-9.15-18.42-.59-.5-6.65-4.3-4.04-6.28.59-.44,2.97-.25,4.49-.78,6.27-2.21,8.7-4.1,11.94-1.33,6,5.12,2.22,18.35,3.55,23.72Z"/>
      <path class="cls-50" d="M215.21,19.04c-1.52.54-3.9.34-4.49.78-2.61,1.98,3.45,5.77,4.04,6.28,7.56,6.46,6.43,15.22,9.15,18.42,7.19,8.47,9.17,15.54,11.57,22.69.94,1.72,2.57,3.14,3.45-.25,2.8-10.82-7.7-23.45-8.22-25.53-1.33-5.37,2.45-18.6-3.55-23.72-3.24-2.76-5.68-.88-11.94,1.33ZM229.77,43.08c.76,1.99-1.18,5.67-5.3.77-3.4-4.04.69-9.71-9.68-18.56-.7-.6-2.1-1.5-2.1-1.5-.66-.56-.87-1.66.18-2.7,1.5-1.49,9.14-4.96,13.35-1.36,5.19,4.43,1.47,16.29,3.54,23.36Z"/>
      <path class="cls-42" d="M212.88,21.09c-1.04,1.04-.83,2.14-.18,2.7,0,0,1.4.91,2.1,1.5,10.37,8.85,6.28,14.52,9.68,18.56,4.12,4.9,6.06,1.22,5.3-.77-2.07-7.06,1.64-18.93-3.54-23.36-4.22-3.6-11.85-.13-13.35,1.36Z"/>
      <path class="cls-58" d="M219.76,50.92c-.1.12-.19.23-.29.35.05.04.1.08.15.12,18.21,15.55,11.96,23.65,3.53,51.93-2.71,9.07-.3,15.16-13.48,30.6-.93,1.09-2.83,3.18-4.71,5.25,4.45-3.55,8.04-6.76,10.03-9.09,9.48-11.1,8.19-16.09,11.69-32.9.97-4.65,2.3-10.19,4.33-17.03,2.86-9.63.1-20.17-7.38-26.56-1.17-1-2.46-1.9-3.86-2.68Z"/>
      <path class="cls-49" d="M218.76,52.1c-.19.21-.39.42-.58.61.11.09.22.18.33.26,16.62,12.93,12.69,30.31.82,45.36-6.97,8.84-6.57,13.29-7.03,16.04-2.7,16.42-6.2,13.57-16.61,31.79.92-.66,1.82-1.32,2.71-1.97,6.54-12.23,16.76-21.97,19.65-31.58,9.14-30.45,23.1-41.25.71-60.51Z"/>
      <path class="cls-8" d="M219.34,98.34c11.86-15.05,15.8-32.43-.82-45.36-.11-.09-.22-.18-.33-.26-.57.56-1.13,1.04-1.68,1.44,1.24.57,2.6,1.52,4.28,2.95,19.99,17.07-.95,37.91-8.97,50.96-7.13,11.6.17,15.27-16.15,34.38-7.51,8.8-16.69,16.54-28.28,18.19.18.99.4,1.74.35,2.76,7.63-3.54,18.44-10.37,27.96-17.21,10.41-18.22,13.92-15.37,16.61-31.79.45-2.75.06-7.2,7.03-16.04Z"/>
      <path class="cls-23" d="M211.81,108.06c8.02-13.05,28.96-33.89,8.97-50.96-1.68-1.43-3.04-2.38-4.28-2.95-.4.29-.81.56-1.21.78-2.17,1.23-4.3,1.57-6.41,2.08-2.51.6-5.01,1.46-7.56,4.35-.06.06-.11.13-.17.2-1.5,1.75-2.41,3.95-2.44,6.7-.16,13.04-4.25,24.68-10.4,35.32-2.49,4.31-5.32,8.46-8.36,12.47-4.12,5.43-2.83,13.87-5.87,20.8-6.25,14.24-7.06,19.56-6.86,22.5.03.48.09.89.16,1.27,11.59-1.65,20.77-9.39,28.28-18.19,16.32-19.11,9.02-22.78,16.15-34.38ZM191.8,145.31c-6.1,6.5-16.88,14.08-22.45,13.9-5.46-.18,7.76-18.14,8.53-35.21.49-10.85,22.52-23.44,21.17-51.89-.17-3.57,1.2-8.02,3.53-10.76,5.52-6.47,14.96-5.88,20.31-1.15,12.67,11.2,1.49,28.83-14.18,51.6-3.5,5.09.12,15.38-16.91,33.51Z"/>
      <path class="cls-14" d="M223.15,103.33c8.43-28.28,14.69-36.38-3.53-51.93-.05-.04-.1-.08-.15-.12-.11.13-.22.27-.34.4-.12.15-.25.28-.37.42,22.39,19.26,8.42,30.06-.71,60.51-2.88,9.62-13.11,19.35-19.65,31.58,2.32-1.71,4.52-3.4,6.55-5.02,1.89-2.06,3.78-4.15,4.71-5.25,13.18-15.44,10.77-21.53,13.48-30.6Z"/>
      <path class="cls-39" d="M222.9,60.19c-5.35-4.73-14.79-5.32-20.31,1.15-2.34,2.74-3.7,7.19-3.53,10.76,1.35,28.45-20.69,41.05-21.17,51.89-.77,17.07-13.98,35.03-8.53,35.21,5.57.19,16.35-7.4,22.45-13.9,17.03-18.14,13.41-28.43,16.91-33.51,15.67-22.77,26.85-40.4,14.18-51.6ZM191.84,143.76c-5.39,6.39-12.39,11.15-21.12,10.95-.07-.04-.13-.09-.19-.14-1.2-1.03-.2-3.02.4-4.02,5.31-8.8,8.31-17.71,9.36-28.12.7-6.96,9.8-16.28,17.5-29.5,6.57-11.28-.05-24.57,5.67-31.27,3.4-3.98,13.2-6.4,19.61.14,11.47,11.69-5.01,34.91-14.12,47.79-6.32,8.93,2.67,10.69-17.12,34.18Z"/>
      <path class="cls-10" d="M223.08,61.8c-6.41-6.53-16.21-4.12-19.61-.14-5.72,6.7.9,19.99-5.67,31.27-7.7,13.23-16.8,22.54-17.5,29.5-1.05,10.41-4.05,19.32-9.36,28.12-.61,1.01-1.61,3-.4,4.02.06.05.12.09.19.14,8.72.2,15.73-4.56,21.12-10.95,19.79-23.49,10.81-25.25,17.12-34.18,9.11-12.87,25.59-36.1,14.12-47.79ZM188.84,108.36c24.1-29.29,7.51-35.32,16.13-45.41,4.63-5.42,8.48-6.23,14.11-1.43,12.15,10.37,1.07,29.1-9.28,41.23-5.53,6.47-12.23,11.59-20.92,12.02-1.92-1.83-1.72-4.37-.04-6.41ZM199.58,128.74c-.04.05-.9.98-1.53,1.71-2.72,3.18-5.23,7-8.07,10.33-7.23,8.47-13.41,8.03-13.58,7.88-.35-.3,6.59-21.51,7.99-24.57.44-.97,1.06-1.91,1.82-2.79,5.32-6.23,14.17-7.02,16.87-4.72,2.44,2.08-2.05,10.46-3.5,12.16Z"/>
      <path class="cls-16" d="M209.79,102.75c10.35-12.12,21.43-30.85,9.28-41.23-5.63-4.81-9.49-3.99-14.11,1.43-8.62,10.09,7.98,16.11-16.13,45.41-1.68,2.04-1.88,4.58.04,6.41,8.69-.43,15.4-5.55,20.92-12.02ZM201.19,91.06c7.43-10.26-.57-20.53,5.41-27.53,3.45-4.04,8.05-3.8,12.14-.31,5.63,4.81,7.13,14.69-.92,24.13-7.2,8.44-10.58,9.59-14.46,6.27-.86-.74-1.6-1.63-2.16-2.56Z"/>
      <path class="cls-16" d="M186.21,121.3c-.75.88-1.37,1.82-1.82,2.79-1.41,3.06-8.34,24.27-7.99,24.57.17.14,6.35.59,13.58-7.88,2.84-3.32,5.35-7.14,8.07-10.33.63-.74,1.49-1.66,1.53-1.71,1.45-1.69,5.93-10.08,3.5-12.16-2.69-2.3-11.55-1.51-16.87,4.72Z"/>
      <path class="cls-50" d="M217.81,87.35c8.05-9.43,6.55-19.32.92-24.13-4.09-3.49-8.69-3.74-12.14.31-5.98,7,2.02,17.27-5.41,27.53.56.92,1.3,1.82,2.16,2.56,3.89,3.32,7.26,2.17,14.46-6.27Z"/>
      <path class="cls-48" d="M72.94,184.89c-12.2-16.44-4-33.78-7.67-38.12-19.02-22.46-6.81-30.14-19.68-41.13-2.43-2.07-5.3-3.75-8.32-5.01-1.6.1-3.18.34-4.71.75,4.94,1.54,10.13,3.37,13.67,6.39,8.72,7.44.64,21.87,14.77,37.43,3.29,3.62,4.37,9.15,3.26,13.61-3.12,12.57,7.72,25.62,2.59,32.33,2.17,1.25,4.28,1.97,6.35,2.23,1.64-2.49,2-5.43-.27-8.48Z"/>
      <path class="cls-57" d="M64.26,158.81c1.11-4.47.02-10-3.26-13.61-14.14-15.56-6.06-29.99-14.77-37.43-3.54-3.02-8.73-4.85-13.67-6.39-3.32.89-6.46,2.55-9.24,5.22-6.4,6.15-13.99,10.16-19.47,16.57-4.95,5.8-5.55,13.63.71,18.97,1.78,1.52,3.83,2.83,5.48,4.24,5.05,4.31,2.61,12.69,13.69,22.14,13.73,11.72,24.35,7.05,34.87,16.03,1.42,1.22,2.82,2.51,4.24,3.72,1.36,1.16,2.7,2.11,4.01,2.87,5.13-6.71-5.71-19.76-2.59-32.33ZM65.67,186.55c-1.66,1.36-4.06-.35-5.92-1.93-.85-.73-1.73-1.69-2.69-2.51-2.57-2.19-26.2-8.77-32.55-13.94-9.45-7.7-9.5-18.19-11.3-19.77-10.93-9.62-16.17-14.81-7.35-25.13,2.68-3.14,18.55-18.25,24.46-19.93,1.86-.53,5.45-1.76,11.24,3.19,15,12.8,2.84,18.68,19.04,42.22,2.51,3.64,1.6,10.1,1.52,14.27-.15,7.09,6.44,21.16,3.54,23.54Z"/>
      <path class="cls-24" d="M71.91,159.25c-7.94,11.71,5.94,23.55,8.07,33.34,2.35-.83,4.67-2.21,6.96-4.05-.2-.14-.39-.28-.58-.43-2.14-.72-4.32-1.93-6.53-3.82-4.44-3.79-12.15-14.96-7.91-19.93.41-.48.88-.97,1.37-1.47,2.1-3.45,5.6-7.04,5.54-9.05-.24-7.74-12.64-12.1-17.11-21.39-2.8-3.56-4.93-7.1-6.55-10.65,4.38,19.11,27.11,22.12,16.73,37.44Z"/>
      <path class="cls-26" d="M45.58,105.64c12.88,10.99.66,18.67,19.68,41.13,3.67,4.34-4.53,21.68,7.67,38.12,2.27,3.06,1.91,5.99.27,8.48,1.44.18,2.85.14,4.26-.11,3.39-7.36-7.63-12.72-9.33-20.52-1.41-6.47,0-12.67,3.2-21.53,1.64-4.51-8.87-12.61-12.05-16.57-6.71-8.35-5.35-22.73-12.31-33.04-3.23-.79-6.51-1.17-9.7-.98,3.02,1.27,5.89,2.94,8.32,5.01Z"/>
      <path class="cls-28" d="M71.33,151.21c-3.21,8.86-4.61,15.07-3.2,21.53,1.7,7.79,12.72,13.16,9.33,20.52.85-.15,1.69-.38,2.52-.67-2.13-9.79-16.01-21.64-8.07-33.34,10.38-15.31-12.35-18.32-16.73-37.44-2.87-6.29-4.12-12.62-4.56-19.15-1.21-.41-2.43-.76-3.65-1.06,6.97,10.31,5.61,24.69,12.31,33.04,3.18,3.96,13.69,12.06,12.05,16.57Z"/>
      <path class="cls-56" d="M62.13,163.01c.09-4.18.99-10.63-1.52-14.27-16.2-23.54-4.05-29.42-19.04-42.22-5.79-4.94-9.38-3.72-11.24-3.19-5.91,1.68-21.79,16.8-24.46,19.93-8.81,10.32-3.57,15.51,7.35,25.13,1.8,1.59,1.85,12.07,11.3,19.77,6.34,5.17,29.98,11.75,32.55,13.94.96.82,1.83,1.78,2.69,2.51,1.86,1.59,4.25,3.3,5.92,1.93,2.9-2.38-3.69-16.45-3.54-23.54ZM23.96,165.59c-5.29-4.52-5-10.21-8.56-16.3-2.33-3.98-17.94-14.66-5.51-29.21,4.02-4.71,21.86-20.49,31.08-12.62,7.91,6.76,3.31,14.27,17.95,41.57,3.43,6.4,2.77,18.37,0,25.23-.49,1.22-2.49,2.15-4.18,2.6-4.97.9-20.68-2.65-30.77-11.26Z"/>
      <path class="cls-32" d="M58.91,174.25c2.78-6.86,3.43-18.83,0-25.23-14.63-27.3-10.03-34.81-17.95-41.57-9.22-7.87-27.06,7.91-31.08,12.62-12.43,14.55,3.18,25.23,5.51,29.21,3.56,6.09,3.27,11.78,8.56,16.3,10.09,8.61,25.8,12.16,30.77,11.26,1.69-.45,3.68-1.38,4.18-2.6ZM43.98,170.42c-4.36.41-8.93,2.31-19.79-7.4-5.4-4.83-5.68-12.4-8.21-15.95-3.73-5.24-15.27-14.05-3.07-28.34,7.07-8.28,19.7-15.56,27.79-8.66,7.85,6.7,5.66,20.08,10.79,29.71,4.24,7.95,5.05,12.91,2.03,21.61-1.67,4.8-5.3,8.62-9.55,9.02Z"/>
      <path class="cls-7" d="M46.62,137.51c-1.86-4.34,3.02-16.52-7.77-25.72-7.85-6.7-15.92-1.48-22.62,6.37-5.6,6.56-8.81,15.38-2.2,22.71,7.16,7.95,7.21,11.64,9.06,15.64.5.51,1.01.98,1.51,1.41,6.87,5.86,11.56,7.74,18.54-.43,4.58-5.36,6.42-13.12,3.49-19.97Z"/>
      <path class="cls-37" d="M12.91,118.74c-12.2,14.29-.66,23.1,3.07,28.34,2.53,3.55,2.81,11.12,8.21,15.95,10.86,9.7,15.43,7.81,19.79,7.4,4.25-.4,7.88-4.22,9.55-9.02,3.03-8.71,2.21-13.67-2.03-21.61-5.13-9.63-2.95-23.01-10.79-29.71-8.09-6.91-20.72.37-27.79,8.66ZM46.62,137.51c2.93,6.85,1.08,14.61-3.49,19.97-6.97,8.17-11.67,6.29-18.54.43-.5-.42-1.01-.9-1.51-1.41-1.85-3.99-1.89-7.69-9.06-15.64-6.61-7.33-3.4-16.15,2.2-22.71,6.7-7.85,14.77-13.07,22.62-6.37,10.78,9.2,5.91,21.38,7.77,25.72Z"/>
      <path class="cls-39" d="M76.16,106.83c4.2,19.49,17.98,32.14,31.09,45.34,3.8,3.82,5.68,9.3,9.75,12.96.56.14,1.11.27,1.67.4-1.88-2.83-3.79-5.64-5.83-8.34-2.52-3.34-5.23-6.49-8.29-9.23-33.54-30.18-19-35.91-30.48-48.22-.85-.91-1.85-1.87-3.02-2.87-1.02-.87-2.09-1.72-3.09-2.58-3.19-2.72-5.76-5.56-4.22-9.62,1.15-3.04,1.76-6.07,1.83-8.99-.37,2.21-.97,5.55-3.02,11.52-1.53,4.46,11.82,11.3,13.61,19.61Z"/>
      <path class="cls-48" d="M75.32,141.04c-22.52-19.22-17.42-36.94-24.61-55.69-.13,2.79-.24,5.52-.28,8.2,2.06,12.4,1.04,29.13,22.29,47.26,9.34,7.97,17.36,11.59,20.13,13.95,1.15.98,2.19,2.08,3.24,3.16,3.84,1.72,7.76,3.23,11.71,4.53-.25-.25-.51-.49-.78-.72-3.79-3.23-19.5-10.3-31.68-20.7Z"/>
      <path class="cls-46" d="M72.71,140.82c-21.24-18.14-20.23-34.86-22.29-47.26-.02,1.11-.03,2.21-.02,3.31.01,1.95.08,3.88.21,5.8.95,13.85,5.5,26.78,21.44,40.4,4.84,4.13,10.24,7.76,15.96,10.89,2.62,1.43,5.32,2.76,8.05,3.98-1.05-1.08-2.09-2.18-3.24-3.16-2.77-2.36-10.79-5.98-20.13-13.95Z"/>
      <path class="cls-57" d="M50.71,85.35c7.18,18.75,2.09,36.47,24.61,55.69,12.18,10.4,27.9,17.46,31.68,20.7.27.23.53.47.78.72.92.3,1.83.6,2.75.88-9.52-7.93-20.68-11.21-32.03-20.9-22.74-19.42-21.26-41.16-21.75-43.11-2.67-10.67-5.19-23.1-4.29-34.05-.76,1.85-1.19,3.83-1.22,5.85-.07,4.92-.32,9.65-.53,14.22Z"/>
      <path class="cls-32" d="M56.75,99.32c.49,1.96-.99,23.7,21.75,43.11,11.35,9.69,22.51,12.97,32.03,20.9,2.16.66,4.32,1.26,6.47,1.79-4.07-3.66-5.95-9.14-9.75-12.96-13.11-13.19-26.9-25.84-31.09-45.34-1.79-8.31-15.15-15.15-13.61-19.61,2.06-5.97,2.65-9.32,3.02-11.52.14-5.79-1.82-11.15-5.85-15.28-.46-.47-.95-.93-1.46-1.37-.28-.24-.57-.47-.87-.7-.65.58-1.26,1.21-1.83,1.87-1.29,1.51-2.35,3.23-3.1,5.06-.9,10.95,1.63,23.37,4.29,34.05ZM54.44,63.76c2.3-3.57,4.29-2.63,5.37-1.43,9.52,10.7-3.11,22.03,3.51,29.31,14.73,16.21,15.81,39,34.18,54.68,5.12,4.37,5.66,5.08,8.53,7.52,17.67,15.08-11.48.77-24.81-10.61-12.36-10.55-20.41-24.51-22.41-41.88-1.48-12.87-8.27-31.52-4.36-37.59Z"/>
      <path class="cls-44" d="M81.2,143.24c13.33,11.38,42.47,25.69,24.81,10.61-2.86-2.44-3.41-3.15-8.53-7.52-18.36-15.68-19.45-38.46-34.18-54.68-6.61-7.28,6.02-18.61-3.51-29.31-1.07-1.21-3.06-2.14-5.37,1.43-3.91,6.07,2.87,24.72,4.36,37.59,2,17.37,10.05,31.33,22.41,41.88ZM55.54,65.57c1.45-1.7,2.8-2.39,4.47-.96,4.28,3.66,1.71,13.52,1.11,18.58-.31,2.63-1.02,5.27-1.66,6.02-1.2,1.69-8.23-18.58-3.91-23.63ZM61.41,94.89c1.82-.57,4.79,1.86,6.46,4.55,5.89,9.46,8.93,18.41,13.86,28.27.27.55,9.6,17.13,8.05,18.95-.29.34-10.09-6.37-12.21-8.18-12.26-10.47-22.58-41.6-16.16-43.59Z"/>
      <path class="cls-2" d="M89.78,146.65c1.55-1.82-7.78-18.4-8.05-18.95-4.93-9.86-7.97-18.81-13.86-28.27-1.67-2.68-4.64-5.11-6.46-4.55-6.41,1.99,3.9,33.12,16.16,43.59,2.11,1.81,11.92,8.51,12.21,8.18Z"/>
      <path class="cls-2" d="M59.45,89.2c.64-.75,1.35-3.39,1.66-6.02.6-5.05,3.18-14.92-1.11-18.58-1.67-1.43-3.02-.73-4.47.96-4.31,5.05,2.72,25.32,3.91,23.63Z"/>
      <path class="cls-32" d="M128.52,148.7c7.05,2.41,14.28,8.07,22.38,6.15,6.46-1.53,12.63-2.86,18.23-5.45.22-.67.47-1.39.74-2.14-26.86,6.04-29.02,1.46-40.02-4.63-8.39-4.64-13.84,11.27-33.2-5.26,0,0-3.53-3.55-11.11-10.52,1.17,1.85,2.6,3.86,4.37,6.05,2.23,2,4.46,4,6.74,5.95,21.17,18.08,20.12,5.83,31.87,9.85Z"/>
      <path class="cls-44" d="M129.85,142.63c11,6.09,13.16,10.67,40.02,4.63.25-.69.52-1.42.81-2.18-20.79,10.49-34.22-7.11-43.7-8.42-5.19-.72-14.85,11.89-32.28-2.99-4.65-3.97-8.69-9-12.67-13.63.8,2.04,1.9,4.29,3.5,6.82,7.58,6.97,11.11,10.52,11.11,10.52,19.36,16.53,24.81.61,33.2,5.26Z"/>
      <path class="cls-2" d="M126.97,136.65c9.48,1.31,22.91,18.91,43.7,8.42.9-2.35,2.02-5.07,3.4-8.23,3.04-6.93,1.74-15.37,5.87-20.8,3.04-4.01,5.87-8.16,8.36-12.47-.93-.74-1.84-1.45-2.75-2.13-19.44-14.63-32.46-15.16-51.6-14.46-.8.03-1.6-.03-2.41-.16-9.06-1.45-18.91-11.95-30.55-11.49-5.68.23-11.78,3.06-18.42,10.84-2.86,3.35-5.33,7.23-7.38,11.24-.39.77-.77,1.55-1.13,2.32,6.52,6.99,4.65,11.85,7.96,20.28,3.97,4.63,8.02,9.67,12.67,13.63,17.43,14.88,27.09,2.27,32.28,2.99ZM80.7,89.96c2.13-4.18,8.06-8.53,9.99-9.64,10.78-6.2,26.83-.38,39.41,8.67.36.26.97.44,1.48.3,15.73-4.38,30.82-.73,44.85,7.88,12.11,7.44,1.01,19.22-1,24.38-1.82,4.66.37,11.13-2.68,14.7-8.76,10.26-16.98,11.72-40.08-.06-10.04-5.13-19.53,10.68-39.11-6.03-9.65-8.24-19.61-26.99-12.87-40.21Z"/>
      <path class="cls-57" d="M133.11,154.94c11.67,1.55,26.16,5.01,35.23-2.99.22-.78.48-1.63.79-2.55-5.6,2.6-11.77,3.92-18.23,5.45-8.1,1.92-15.32-3.74-22.38-6.15-11.76-4.02-10.7,8.23-31.87-9.85-2.28-1.95-4.51-3.95-6.74-5.95,1.68,2.08,3.67,4.33,6.02,6.77.23.2.47.4.7.6,22.98,19.62,25.2,13.16,36.48,14.66Z"/>
      <path class="cls-48" d="M133.11,154.94c-11.28-1.5-13.5,4.96-36.48-14.66-.24-.2-.47-.4-.7-.6,1.08,1.12,2.23,2.27,3.47,3.48,32.08,26.77,40.48,18.25,45.74,18.77,7.72.76,15.38-.96,22.09-4.25.09-1.38.39-3.19,1.11-5.72-9.07,8-23.56,4.54-35.23,2.99Z"/>
      <path class="cls-46" d="M145.13,161.92c-5.26-.52-13.65,8-45.74-18.77,1.58,1.53,3.29,3.13,5.16,4.81,3.05,2.75,5.76,5.9,8.29,9.23,14.67,9.97,33.93,14.8,48.84,6.18,1.92-1.11,3.78-2.45,5.53-4.02-.03-.48-.04-1.03,0-1.68-6.71,3.29-14.37,5.01-22.09,4.25Z"/>
      <path class="cls-8" d="M132.67,136.2c23.09,11.79,31.31,10.33,40.08.06,3.05-3.57.86-10.04,2.68-14.7,2.01-5.16,13.11-16.94,1-24.38-14.03-8.62-29.12-12.26-44.85-7.88-.51.14-1.13-.04-1.48-.3-12.58-9.05-28.63-14.87-39.41-8.67-1.93,1.11-7.86,5.46-9.99,9.64-6.74,13.22,3.23,31.97,12.87,40.21,19.57,16.71,29.06.9,39.11,6.03ZM86.55,85.71c15.65-18.33,35.83,8.96,43.76,6.04,11.1-4.09,32.79-3.56,41.11,4.84,16.54,16.69,1.99,14.65-.08,30.67-2.05,15.85-19.07,18.04-44.23,5.16-.04-.1-.1-.17-.17-.24,0,0-15.51,9.66-33.63-5.81-12.14-10.36-18.16-27.31-6.75-40.67Z"/>
      <path class="cls-23" d="M126.94,132.18c.07.06.13.14.17.24,25.16,12.88,42.18,10.69,44.23-5.16,2.07-16.02,16.63-13.98.08-30.67-8.33-8.4-30.01-8.93-41.11-4.84-7.93,2.92-28.12-24.37-43.76-6.04-11.41,13.36-5.38,30.3,6.75,40.67,18.12,15.47,33.63,5.81,33.63,5.81ZM168.79,97.53c4.74,4.05,8.49,9.47,6.21,15.94-1.77,5.03-6.17,11.07-7.73,18.34-2.35,10.89-23.66,5.23-30.84-.9-6.29-5.37-10.15-12.99-8.81-21.84.23-1.55.24-3.12.69-4.44.63-1.83,1.6-3.41,2.83-4.85,8.53-9.99,24.52-13.46,37.66-2.25ZM88.62,85.44c6.63-7.76,23.37-1.13,30.65,5.09,6.26,5.35,8.39,10.95,3.91,19.2-.21.39.07.83-.2,1.37,1.56,4.87,2.11,12.47-1.21,16.37-7.83,9.17-18.71,4.71-27.55-2.83-17.59-15.01-14.19-29.13-5.59-39.19Z"/>
      <path class="cls-39" d="M121.76,127.47c3.33-3.9,2.77-11.5,1.21-16.37.27-.54,0-.98.2-1.37,4.48-8.25,2.35-13.85-3.91-19.2-7.28-6.22-24.02-12.85-30.65-5.09-8.59,10.06-11.99,24.18,5.59,39.19,8.84,7.55,19.72,12,27.55,2.83ZM83.31,98.79c.92-3.26,1.83-6.89,4.06-9.51,3.64-4.26,13.15-7.49,22.74.7,6.48,5.53,11.61,14.31,5.96,20.93-6.02,7.05-20.75,7.88-29.13.72-3.43-2.93-5.23-7.17-3.63-12.84Z"/>
      <path class="cls-39" d="M127.61,109.07c-1.34,8.85,2.52,16.46,8.81,21.84,7.18,6.13,28.5,11.8,30.84.9,1.56-7.27,5.96-13.32,7.73-18.34,2.28-6.47-1.47-11.89-6.21-15.94-13.13-11.21-29.13-7.74-37.66,2.25-1.23,1.44-2.2,3.03-2.83,4.85-.46,1.32-.46,2.89-.69,4.44ZM132.29,102.91c.73-1.46,1.58-2.74,2.53-3.85,7.94-9.3,22.74-6.75,31.94,1.11,8.02,6.85,6.63,15.7.99,22.3-2.49,2.92-11.95,8.31-13.76,7.67-4.41-1.56-8.79-4-12.51-7.17-5.28-4.51-9.21-10.49-9.94-17.5-.08-.79.33-1.75.74-2.56Z"/>
      <path class="cls-10" d="M116.07,110.92c5.65-6.62.51-15.4-5.96-20.93-9.59-8.19-19.1-4.96-22.74-.7-2.24,2.62-3.14,6.25-4.06,9.51-1.6,5.67.19,9.91,3.63,12.84,8.39,7.16,23.12,6.33,29.13-.72Z"/>
      <path class="cls-10" d="M154,130.14c1.81.64,11.27-4.75,13.76-7.67,5.63-6.6,7.02-15.46-.99-22.3-9.2-7.85-24-10.41-31.94-1.11-.95,1.11-1.8,2.39-2.53,3.85-.41.81-.82,1.77-.74,2.56.73,7.01,4.66,12.99,9.94,17.5,3.72,3.17,8.1,5.62,12.51,7.17ZM138.52,106.48c-.76-1.11-1.69-2.66-1.11-4.14.7-1.76,1.56-3.21,2.55-4.37,6.06-7.1,16.93-3.58,24.22,2.65,5.93,5.06,9.4,10.69,4.3,16.66-7.81,9.15-16.71,1.83-24.2-4.56-2.12-1.81-4.1-3.79-5.77-6.24Z"/>
      <path class="cls-16" d="M168.48,117.28c5.1-5.97,1.63-11.6-4.3-16.66-7.29-6.23-18.16-9.75-24.22-2.65-.99,1.16-1.85,2.61-2.55,4.37-.58,1.48.35,3.03,1.11,4.14,1.67,2.45,3.65,4.43,5.77,6.24,7.49,6.39,16.39,13.71,24.2,4.56Z"/>
      <path class="cls-56" d="M50.05,60.91c2.24-2.62,5.23-4.03,7.12-6.25,2.51-2.95,1.93-9.26,6.09-14.13,2.09-2.45,7.04-4.8,11.27-9.77,1.46-1.71,2.66-3.64,3.36-5.6-1.93-.41-3.91-.64-5.85-.6.44.3.84.61,1.2.92,2.12,1.81.65,5.09-.96,6.97-2.92,3.42-8.13,5.38-10.92,8.65-3.89,4.56.06,6.58-5.78,13.41-2.16,2.53-4.92,4.74-5.87,5.85-5.11,5.98-1.22,14.43-6.42,20.52-1.27,1.49-2.89,2.54-4.7,2.61.53.9,1.11,1.79,1.74,2.68.9-.68,1.71-1.46,2.43-2.31,7.87-9.21,3.09-18.04,7.27-22.95Z"/>
      <path class="cls-32" d="M43.3,80.88c5.2-6.09,1.32-14.54,6.42-20.52.95-1.11,3.71-3.32,5.87-5.85,5.83-6.83,1.89-8.85,5.78-13.41,2.79-3.27,8-5.23,10.92-8.65,1.6-1.88,3.08-5.16.96-6.97-.35-.3-.76-.62-1.2-.92-4.37.09-8.59,1.54-11.82,5.32-3.68,4.31-6.97,12.06-9.12,14.58-1.82,2.13-5.25,1.93-8.02,5.18-10.12,11.86-10.79,23.18-4.48,33.84,1.81-.08,3.43-1.13,4.7-2.61ZM42.34,51.62c3.69-4.67,7.48-4.53,10.55-8.24,4.82-5.85,4.18-9.26,8-13.74,3.86-4.52,9.79-5.21,12.02-3.3.54.46.34,3.28-1.69,5.66-2.97,3.48-7.74,5.6-10.86,9.25-3.12,3.65,1.21,5.72-7.09,14.25-1.98,2.03-2.87,2.57-4.16,4.08-2.8,3.28-2.69,4.62-3.31,10.27-.19,1.71-.76,5.19-1.41,6.92-1.04,2.74-1.37,3.13-2.3,4.22s-2.26.86-3.37-.09c-4.69-4.01-4.91-18.49,3.62-29.29Z"/>
      <path class="cls-57" d="M51.52,61.17c2.26-2.65,5.26-4.62,6.66-6.26,2.45-2.86,2-9.34,6.08-14.13,1.9-2.22,6.45-4.59,11.76-10.8,1.22-1.43,2.34-2.92,3.33-4.48-.48-.12-.96-.24-1.44-.34-.7,1.96-1.9,3.88-3.36,5.6-4.24,4.96-9.18,7.32-11.27,9.77-4.16,4.87-3.58,11.19-6.09,14.13-1.89,2.21-4.88,3.62-7.12,6.25-4.19,4.91.59,13.74-7.27,22.95-.73.85-1.54,1.63-2.43,2.31.52.74,1.08,1.47,1.66,2.2.09-.11.19-.21.28-.32,10.21-11.96,3.77-20.48,9.23-26.88Z"/>
      <path class="cls-48" d="M76.02,29.98c-5.31,6.22-9.86,8.58-11.76,10.8-4.09,4.79-3.64,11.27-6.08,14.13-1.4,1.64-4.41,3.61-6.66,6.26-5.46,6.4.98,14.92-9.23,26.88-.09.11-.18.21-.28.32.72.9,1.5,1.8,2.32,2.69,8.4-11.29,4.44-24.63,7.95-28.74,1.83-2.15,4.37-3.47,5.98-5.36,2.23-2.61,1.12-9.29,7.06-16.25,3.52-4.13,8.94-6.59,14.37-12.95.48-.57.95-1.15,1.39-1.74-.57-.18-1.16-.35-1.74-.51-.99,1.56-2.11,3.05-3.33,4.48Z"/>
      <path class="cls-37" d="M42.09,81c.93-1.09,1.27-1.48,2.3-4.22.65-1.73,1.22-5.21,1.41-6.92.62-5.66.51-7,3.31-10.27,1.29-1.51,2.19-2.05,4.16-4.08,8.3-8.53,3.97-10.6,7.09-14.25,3.12-3.65,7.89-5.78,10.86-9.25,2.04-2.38,2.23-5.2,1.69-5.66-2.24-1.91-8.16-1.22-12.02,3.3-3.82,4.48-3.18,7.89-8,13.74-3.07,3.72-6.86,3.57-10.55,8.24-8.52,10.8-8.31,25.29-3.62,29.29,1.11.95,2.42,1.19,3.37.09ZM42.69,52.56c2.33-2.73,5.53-6.08,9.06-6.14.6-.01,6.82,2.09,2.43,7.06-2.06,2.34-4.61,4.61-6.55,6.88-4.39,5.14-2.36,15.1-5.1,18.32-1.22,1.43-2.54,1.46-3.47.66-3.88-3.31-4.83-16.88,3.62-26.78Z"/>
      <path class="cls-7" d="M42.53,78.67c2.74-3.21.71-13.18,5.1-18.32,1.94-2.27,4.49-4.54,6.55-6.88,4.38-4.96-1.83-7.07-2.43-7.06-3.53.06-6.73,3.41-9.06,6.14-8.45,9.9-7.5,23.47-3.62,26.78.93.79,2.25.77,3.47-.66ZM38.11,77.17c-1.91-3.87-1.33-11.48.19-15.5.34-.91.96-2.14,1.74-3.01,1.87-2.08,3.95-.98,4.73.46,1.74,3.23-.64,5.24-1.19,8.36-.46,2.57-.94,8.37-1.59,10.29-.51,1.5-3.14.9-3.88-.61Z"/>
      <path class="cls-8" d="M41.99,77.78c.65-1.93,1.13-7.73,1.59-10.29.55-3.12,2.93-5.13,1.19-8.36-.78-1.45-2.86-2.54-4.73-.46-.78.87-1.4,2.09-1.74,3.01-1.51,4.02-2.1,11.63-.19,15.5.74,1.51,3.37,2.11,3.88.61Z"/>
      <path class="cls-19" d="M77.5,59.61c1.52-1.77,2.96-3.61,4.36-5.24,6.3-7.38,9.4-5.32,14.61-9.02,6.05-4.29,9.16-11.9,16.87-13.24,6.92-1.2,14.75-1.32,19.19-6.52,1.26-1.48,1.96-2.91,2.22-4.32-.66-1.04-1.35-2.03-2.08-2.96.46,1.77.25,3.49-1.02,4.98-4.75,5.57-12.77,7.11-19.92,8.41-6.71,1.22-9.65,8.17-15,12.14-4.86,3.6-8.95,1.78-14.49,8.27-2,2.34-3.77,4.96-5.77,7.3-6.86,8.03-10.98,6.79-14.2,4.2.86,1.32,1.55,2.73,2.08,4.2,5,.47,9.3-3.67,13.16-8.19Z"/>
      <path class="cls-45" d="M76.47,59.4c2-2.34,3.77-4.95,5.77-7.3,5.54-6.49,9.63-4.67,14.49-8.27,5.35-3.97,8.29-10.91,15-12.14,7.15-1.3,15.17-2.85,19.92-8.41,1.27-1.49,1.48-3.21,1.02-4.98-1.07-1.37-2.22-2.62-3.47-3.7-.03-.02-.05-.05-.08-.07-6.03-5.15-10.15-4.61-29.34-2.32-5.49.66-9.3,4.11-12.76,8.16-1.66,1.94-3.23,4.01-4.87,5.98-.19.23-.38.45-.57.68-5.73,6.71-11.43,8.97-16.2,14.56-6.53,7.64-2.47,10.4-3.94,14.17-.59,1.52-1.19,3.08-1.73,4.64.97.99,1.82,2.06,2.55,3.19,3.22,2.59,7.35,3.84,14.2-4.2ZM61.59,58.5c-.06-.02-.17-.04-.16-.1.56-2.36,1.2-4.64.85-9.94-.07-1.11,1.38-4.22,2.1-5.07,1.31-1.53,13.38-10.91,17.35-15.74,2.35-2.85,4.65-5.72,7.04-8.52,3.29-3.85,7.07-5.71,12.44-6.16,9.25-.77,19.13-5.04,28.32,2.8,2.59,2.21,1.85,5.8.2,7.72-6.68,7.83-16.16-.99-29.41,14.53-.78.91-1.86,2.3-1.93,2.38-.43.5-.91.96-1.53,1.23-23.24,9.94-24.51,28.65-33.99,20.56-1.15-.98-1.93-2.24-1.29-3.7Z"/>
      <path class="cls-6" d="M73.9,70.07c3.13-5.86,1.46-7.26,7.77-14.54,2.99-3.45,7.3-5.95,11.43-7.16,6.09-1.79,9.62-8.27,14.05-12.75,5.67-5.73,21.2-.63,26.85-7.24,1.1-1.29,1.42-3.47,1.47-5.95-.23-.39-.47-.78-.71-1.15-.26,1.41-.95,2.84-2.22,4.32-4.44,5.2-12.27,5.32-19.19,6.52-7.72,1.34-10.82,8.96-16.87,13.24-5.21,3.69-8.31,1.64-14.61,9.02-1.39,1.63-2.84,3.47-4.36,5.24-3.86,4.52-8.16,8.66-13.16,8.19.42,1.18.73,2.39.94,3.64,3.8,3.04,6.6,2.41,8.62-1.37Z"/>
      <path class="cls-34" d="M134,28.38c-5.65,6.61-21.18,1.51-26.85,7.24-4.43,4.48-7.96,10.96-14.05,12.75-4.13,1.21-8.44,3.71-11.43,7.16-6.31,7.28-4.64,8.67-7.77,14.54-2.02,3.78-4.82,4.41-8.62,1.37.57,3.44.32,7.11-.75,10.84.26.57.6,1.08,1.05,1.46,1.19,1.02,3.15,1.03,4.28-.3,0,0,5.87-18.71,13.2-27.29,2.29-2.68,16.58-10.7,16.78-10.82,5.3-3.12,10.04-12.09,15.34-11.85,6.65.3,17.91,2.56,23.89-4.1-1.11-2.39-2.3-4.76-3.61-6.96-.04,2.48-.36,4.66-1.47,5.95Z"/>
      <path class="cls-41" d="M115.19,33.49c-5.3-.24-10.04,8.72-15.34,11.85-.2.12-14.49,8.14-16.78,10.82-7.33,8.58-13.2,27.29-13.2,27.29-1.14,1.33-3.09,1.32-4.28.3-.45-.38-.79-.89-1.05-1.46-.23.8-.49,1.6-.8,2.41-.8,2.11-.48,3.9.45,5.5,1.8,1.19,4.19-.49,5.34-1.84,2.67-3.13,2.93-8.43,4.01-12.31,1.11-4,5.17-12.3,8.36-16.03,1.43-1.68,3.07-3.18,4.84-4.45.02-.03.04-.05.07-.08,3.43-4.01,7.58-7.05,13.28-5.88,1.06-2.12,2.36-4.06,3.84-5.8,7.21-8.44,19.02-12.28,29.68-6.78,1.89-2.02,4.15-4.52,6.47-5.42-.33-.74-.66-1.47-1-2.21-5.98,6.66-17.24,4.4-23.89,4.1Z"/>
      <path class="cls-22" d="M96.87,41.63c.62-.27,1.11-.73,1.53-1.23.07-.08,1.15-1.47,1.93-2.38,13.25-15.51,22.72-6.7,29.41-14.53,1.64-1.92,2.38-5.51-.2-7.72-9.18-7.84-19.07-3.57-28.32-2.8-5.37.45-9.15,2.31-12.44,6.16-2.39,2.8-4.69,5.67-7.04,8.52-3.97,4.82-16.04,14.21-17.35,15.74-.73.85-2.18,3.96-2.1,5.07.35,5.3-.29,7.58-.85,9.94-.01.06.1.07.16.1-.63,1.46.14,2.72,1.29,3.7,9.48,8.09,10.75-10.62,33.99-20.56ZM64.67,45.69c.73-3.12,4.32-5.45,6.27-7.19,16.76-15.08,15.68-14.41,19.13-18.9,7.92-10.32,34.36-7.35,38.64-3.7,2.16,1.84,1.72,4.73-.45,7.15-1.47,1.64-5,2.55-5.96,2.74-20.53,3.95-23.17,15.83-39.52,22-6.58,2.48-12.29,17.31-17.3,13.02-2.4-2.05-2.85-6.38-.8-15.11Z"/>
      <path class="cls-2" d="M82.78,47.78c16.35-6.17,18.98-18.04,39.52-22,.97-.19,4.49-1.1,5.96-2.74,2.18-2.42,2.61-5.31.45-7.15-4.28-3.65-30.72-6.62-38.64,3.7-3.45,4.5-2.37,3.82-19.13,18.9-1.94,1.75-5.53,4.07-6.27,7.19-2.05,8.73-1.6,13.06.8,15.11,5.02,4.29,10.72-10.54,17.3-13.02ZM75.41,42.31c-.3-.84-.05-1.9.5-2.62,3.43-4.51,6.83-9.68,10.73-14.25,9.89-11.58,17.38-12.82,27.07-11.34,4.26.65,10.57.19,13.55,2.73,1.47,1.25,2.33,3.81,1.03,5.33-3.43,4.02-9.89,1.85-12.77,3.06-21.29,8.93-31.92,24.99-38.68,19.22-.61-.52-1.1-1.22-1.43-2.14Z"/>
      <path class="cls-8" d="M115.52,25.22c2.88-1.21,9.34.96,12.77-3.06,1.3-1.52.43-4.08-1.03-5.33-2.98-2.54-9.29-2.08-13.55-2.73-9.69-1.48-17.18-.25-27.07,11.34-3.9,4.57-7.3,9.74-10.73,14.25-.55.72-.8,1.78-.5,2.62.33.91.82,1.62,1.43,2.14,6.76,5.77,17.39-10.3,38.68-19.22ZM91.63,24.84c0-.16-.09-.37-.04-.47.95-1.78,2.04-3.51,3.32-5.01,8.47-9.92,31.06-1.67,31.45-1.33,1.04.89.48,2.43-.29,3.32-.92,1.08-2.43,1.68-3.93,1.55-14.54-1.21-23.72,9.92-28.97,5.44-.97-.83-1.59-2.05-1.55-3.5Z"/>
      <path class="cls-23" d="M122.15,22.9c1.5.13,3.02-.48,3.93-1.55.76-.9,1.33-2.43.29-3.32-.39-.33-22.98-8.59-31.45,1.33-1.28,1.5-2.37,3.24-3.32,5.01-.05.1.04.31.04.47-.05,1.44.57,2.67,1.55,3.5,5.25,4.48,14.42-6.65,28.97-5.44Z"/>
      <path class="cls-22" d="M208.88,56.6c-3.41-.97-6.67-2.97-9.64-5.5-9.84-8.4-10.61-15.41-16.78-20.67-13.86-11.84-23.11,10.33-47.71-9.15.33.52.65,1.05.97,1.59,30.57,21.37,34.66-1.41,46.52,8.73,5.54,4.73,7.64,13.32,15.94,20.4,3.47,2.97,6.65,4.19,9.99,5.2.24-.06.48-.12.71-.18,0-.14,0-.27,0-.41Z"/>
      <path class="cls-53" d="M183.17,35.05c-10.3-8.79-24.21,9.35-45.63-8.94-.03-.02-.06-.05-.09-.07.43.84.85,1.7,1.25,2.56,21.06,12.17,18.75,10.15,34.15,5.74,3.64-1.04,7.31-1.04,10.2,1.43s6.72,9.98,8.22,13.1c.03.03.06.06.09.08,2.12,1.81,5.61,2.88,7.88,4.82s2.36,4.55,2.08,7.6c1.65-1.87,3.27-2.89,4.9-3.54-3.16-1.35-6.64-4.02-12.14-8.72-4.19-3.58-3.17-7.45-10.91-14.06Z"/>
      <path class="cls-19" d="M182.25,31.59c-11.87-10.13-15.96,12.65-46.52-8.73.6,1.03,1.18,2.09,1.73,3.17.03.02.06.05.09.07,21.43,18.29,35.33.15,45.63,8.94,7.74,6.6,6.72,10.48,10.91,14.06,5.5,4.7,8.98,7.37,12.14,8.72.65-.26,1.3-.46,1.95-.63-3.34-1-6.51-2.23-9.99-5.2-8.3-7.08-10.39-15.67-15.94-20.4Z"/>
      <path class="cls-2" d="M182.46,30.42c6.17,5.27,6.94,12.27,16.78,20.67,2.97,2.53,6.23,4.53,9.64,5.5-.1-11.73-5.74-23.49-14.74-31.17-2.86-2.44-5.99-4.25-8.6-5.52-3.26-1.58-5.69-2.31-5.69-2.31,0,0-.07-.15-.24-.43-.62-1.06-2.56-3.97-7.05-7.8-12.55-10.71-28.61-13.67-39.27-1.18-1.66,1.94-3.04,4.13-4.08,6.44,2.1,1.81,3.92,4.1,5.55,6.66,24.59,19.48,33.84-2.69,47.71,9.15ZM138.93,23.11c-2.83-2.42-5.64-3.36-6.45-9.66,7.04-15.16,21.56-13.59,29.3-10.08,5.92,2.69,6.29,4.89,17.68,14.62,2.96,2.53,8.7,3.17,16.87,11.4,9.07,9.14,12.05,22.27,11.41,23.14-1.93,2.6-6.53-1.85-11.09-5.75-5.94-5.08-10.54-15.93-14.47-19.28-14.3-12.21-26.9,9.58-43.25-4.38Z"/>
      <path class="cls-8" d="M182.18,27.5c3.92,3.35,8.52,14.2,14.47,19.28,4.57,3.9,9.16,8.35,11.09,5.75.64-.86-2.34-14-11.41-23.14-8.17-8.23-13.9-8.87-16.87-11.4-11.39-9.73-11.76-11.93-17.68-14.62-7.73-3.51-22.25-5.08-29.3,10.08.81,6.3,3.61,7.24,6.45,9.66,16.35,13.96,28.96-7.82,43.25,4.38ZM193.38,27.75c5.66,4.84,12.59,19.43,11.32,20.92-1.11,1.3-2.54.56-3.84-.55-1.18-1.01-2.36-2.4-3.36-3.26-.25-.21-.54-.42-.6-.47-.17-.14-7.29-7.74-11.17-15.64-1.22-2.49-4.83-3.69-5.29-6.55,2.32-.52,11.16,4.02,12.93,5.54ZM138.2,20.56c-2.14-1.82-3.74-4.09-4.33-6.8-.19-.87.09-1.78.68-2.46,10.85-12.71,20.8-12.34,32.61-2.26,2.48,2.11,6.84,7.87,4.75,10.32-1.36,1.6-6.81,2.73-9.52,3.81-11.84,4.7-19.19,1.65-24.18-2.61Z"/>
      <path class="cls-23" d="M167.15,9.04c-11.81-10.08-21.76-10.45-32.61,2.26-.58.68-.86,1.6-.68,2.46.59,2.71,2.2,4.97,4.33,6.8,4.99,4.26,12.34,7.31,24.18,2.61,2.71-1.08,8.15-2.21,9.52-3.81,2.1-2.46-2.27-8.21-4.75-10.32ZM138.87,18.43c-1.67-1.42-3.73-3.88-3.47-6.06-.09-.12-.03-.26,0-.39.02-.13.12-.26.21-.36,0,0,.22-.25.42-.47.25-.29.49-.59.74-.88,4.82-5.64,16.49-10.98,25.66-3.15,1.95,1.66.7,4.46-.94,6.38-5.22,6.11-16.52,10.13-22.6,4.94Z"/>
      <path class="cls-23" d="M180.45,22.21c.46,2.86,4.06,4.05,5.29,6.55,3.88,7.9,11,15.49,11.17,15.64.06.05.34.25.6.47,1,.85,2.18,2.25,3.36,3.26,1.3,1.11,2.73,1.86,3.84.55,1.27-1.49-5.66-16.08-11.32-20.92-1.77-1.52-10.61-6.06-12.93-5.54Z"/>
      <path class="cls-39" d="M162.41,7.11c-9.17-7.82-20.84-2.49-25.66,3.15-.25.29-.49.59-.74.88-.19.23-.42.47-.42.47-.09.1-.18.23-.21.36-.02.13-.08.27,0,.39-.26,2.18,1.8,4.64,3.47,6.06,6.07,5.19,17.38,1.17,22.6-4.94,1.64-1.92,2.89-4.72.94-6.38Z"/>
      <path class="cls-48" d="M174.44,60.6c-4.98-4.25-17.33-3.67-26.81-7.86.2.64.34,1.26.45,1.86,4.32-.2,8.94.64,13.63,2.95,3.7-.02,7.21.82,10.23,3.4,5.36,4.58,8.51,14.73,14.47,21.37,2.75,3.07,2.64,11.64,4.09,17.25,1.77-3.43,3.3-6.96,4.56-10.62-.66-.48-1.3-.99-1.92-1.52-10.93-9.34-15.49-24.09-18.7-26.83Z"/>
      <path class="cls-4" d="M145.32,47.83c.59.92,1.07,1.81,1.46,2.67,11.22,6.65,26.3,2.79,32.51,8.09,8.05,6.87,5.54,20.01,14.4,27.57.58.5,1.2.96,1.83,1.41.02-.07.04-.14.07-.21-7.53-9.24-7.38-22.45-15.54-29.42-7.14-6.09-20.84-2.22-34.73-10.11Z"/>
      <path class="cls-46" d="M171.94,60.95c-3.02-2.57-6.53-3.42-10.23-3.4,2.48,1.23,4.99,2.87,7.47,4.99,4.29,3.66,7.82,8.27,10.1,13.23,0,0,0,.01,0,.02,7.11,6.25,9.08,16.41,6.27,25.66.9.68,1.82,1.39,2.75,2.13.76-1.32,1.5-2.66,2.19-4.01-1.45-5.61-1.34-14.18-4.09-17.25-5.96-6.64-9.11-16.79-14.47-21.37Z"/>
      <path class="cls-21" d="M183.41,37.73c-9.94-8.49-18.58,12.32-35.71-2.3-1.84-1.57-2.51-2.5-3.18-3.07-1.46-1.25-2.96-1.32-4.43-.75-2.32.9-4.58,3.39-6.47,5.42,1.73.89,3.42,2.03,5.07,3.43,3.04,2.6,5.17,5.07,6.64,7.38,13.89,7.88,27.6,4.02,34.73,10.11,8.16,6.97,8,20.18,15.54,29.42,1.91-6.03,3.04-12.38,3.12-19.1.03-2.74.95-4.95,2.44-6.7.06-.07.11-.13.17-.2.28-3.06.14-5.71-2.08-7.6s-5.77-3.01-7.88-4.82c-2.14-1.82-2.91-6.91-7.96-11.22ZM198.43,54.77c2.56,2.19.78,5.89-.92,8.26-1.15,1.6.61,11.15-1.64,13.79-.99,1.16-2.74.53-3.67-.27-3.17-2.71-3.31-14.58-10.65-20.85-9.68-8.26-24.59-.1-35.64-9.53-3.16-2.7-5.61-6.31-7.38-9.87-.46-.93-.21-1.84.41-2.56.99-1.15,3.3-2.16,4.98-.73,1.1.94,1.69,2.54,2.88,3.56,17.98,15.35,25.42-5.71,34.37,1.93,3.91,3.34,6.73,9.94,8.98,11.85,2.38,2.03,6.36,2.75,8.28,4.39Z"/>
      <path class="cls-57" d="M193.69,86.15c-8.86-7.56-6.35-20.7-14.4-27.57-6.21-5.3-21.29-1.44-32.51-8.09.35.77.64,1.53.86,2.25,9.47,4.19,21.83,3.61,26.81,7.86,3.21,2.74,7.77,17.49,18.7,26.83.62.53,1.26,1.04,1.92,1.52.16-.46.31-.92.46-1.39-.64-.44-1.25-.91-1.83-1.41Z"/>
      <path class="cls-44" d="M181.17,38.52c-8.95-7.64-16.39,13.42-34.37-1.93-1.19-1.01-1.78-2.62-2.88-3.56-1.68-1.43-3.99-.43-4.98.73-.61.72-.87,1.63-.41,2.56,1.77,3.56,4.22,7.17,7.38,9.87,11.04,9.43,25.96,1.26,35.64,9.53,7.34,6.27,7.48,18.14,10.65,20.85.93.8,2.68,1.43,3.67.27,2.25-2.64.49-12.19,1.64-13.79,1.7-2.38,3.48-6.08.92-8.26-1.92-1.64-5.91-2.37-8.28-4.39-2.25-1.92-5.07-8.52-8.98-11.85ZM195.2,64.39c-.52,1.69.29,3.69-.93,5.12-.54.63-1.38,1.04-1.98.53-4.45-3.8-5.32-12.53-10.93-17.33-8.59-7.34-17.47-2.4-20.52-5-.36-.31-.69-.66-.98-1.02-.12-.15-.16-.33-.08-.43.58-.68,14.76-11.3,20.72-6.21,3.9,3.33,4.25,7.51,8.02,10.72,2.61,2.23,6.89,4.17,8.03,5.15,2.57,2.2-.54,5.89-1.34,8.49Z"/>
      <path class="cls-2" d="M180.49,40.03c-5.96-5.09-20.14,5.54-20.72,6.21-.08.1-.05.28.08.43.3.37.63.72.98,1.02,3.05,2.61,11.93-2.33,20.52,5,5.61,4.79,6.48,13.53,10.93,17.33.6.51,1.44.1,1.98-.53,1.22-1.43.41-3.43.93-5.12.8-2.6,3.91-6.29,1.34-8.49-1.14-.97-5.42-2.92-8.03-5.15-3.77-3.22-4.11-7.39-8.02-10.72ZM183.72,50.07c-.53.62-1.95.24-2.73-.13-6.12-2.97-12.9-4.38-12.9-4.38-.21-.18-.38-.4-.47-.66-.02-.02-.03-.03-.04-.05-.02-.08-.03-.16-.03-.25.02-.37.31-.86,1.29-2.01,2.47-2.89,6.66-4.88,9.5-2.46,2.54,2.17,7.49,7.46,5.38,9.94Z"/>
      <path class="cls-8" d="M168.85,42.6c-.98,1.15-1.28,1.64-1.29,2.01,0,.09,0,.17.03.25.01.02.03.03.04.05.09.26.26.48.47.66,0,0,6.77,1.41,12.9,4.38.78.38,2.2.75,2.73.13,2.11-2.48-2.84-7.77-5.38-9.94-2.84-2.42-7.03-.43-9.5,2.46Z"/>
      <path class="cls-34" d="M90.18,71.58c.91-1.07,1.95-1.85,3.27-1.99,19.11-2.04,14.37-24.9,45.82-18.56,2.85.57,5.32.23,7.41-.75-.8-1.69-1.94-3.5-3.54-5.39-.13.8-.46,1.55-.97,2.15-5.48,6.42-20.85-4.17-32.63,9.62-1.2,1.41-2.36,2.87-3.54,4.26-9.39,10.99-14.77,5.84-19.33,11.18-1.14,1.34-3.01,5.59-5.67,8.7-2.41,2.82-5.19,4-7.59,4.11-.03.68-.05,1.36-.04,2.04,4.43-.62,8.28-4.09,11.28-7.6,3.53-4.14,3.68-5.59,5.53-7.76Z"/>
      <path class="cls-6" d="M81,80.79c2.66-3.12,4.53-7.37,5.67-8.7,4.56-5.35,9.95-.19,19.33-11.18,1.19-1.39,2.34-2.84,3.54-4.26,11.78-13.79,27.15-3.2,32.63-9.62.51-.6.84-1.35.97-2.15-1.21-1.43-2.68-2.91-4.46-4.44-1.64-1.4-3.34-2.54-5.07-3.43-10.66-5.5-22.48-1.66-29.68,6.78-1.48,1.74-2.78,3.68-3.84,5.8-5.69-1.17-9.85,1.87-13.28,5.88-7.46,8.74-12.86,18.89-13.39,29.42,2.4-.11,5.19-1.29,7.59-4.11ZM85.33,58.34c3.32-3.89,7.48-6.79,12.75-7.65,1.04.44,1.9-.08,2.55-.83.19-.22.36-.47.51-.72.48-.79,1.8-2.41,2.4-3.12,11.63-13.62,25.79-11.79,32.73-5.87.3.26.58.52.58.52.35.3.69.29,1.25.76,1.26,1.08,1.74,3.09.66,4.36-1.33,1.56-4.5,2.3-6.55,2.51-9.31.97-10.81-5.6-27.69,12.61-7.89,8.51-12.48,2.27-19.51,10.5-3.24,3.79-4.81,8.27-5.65,9.26-1.04,1.22-2.33.55-2.96,0-2.98-2.54,4.82-17.54,8.94-22.35Z"/>
      <path class="cls-17" d="M106.07,68.4c-1.25,1.3-2.26,2.83-3.44,4.21-2.38,2.79-7.59.26-14.91,8.43,4.69-3.93,9.1-5.51,13.28-5.68.87-1.21,1.79-2.39,2.76-3.53,8.28-9.69,20.24-16.54,33.09-14.25.99-.5,2.03-.95,3.11-1.34-7.61.11-21.48-.74-33.9,12.16Z"/>
      <path class="cls-41" d="M139.27,51.02c-31.45-6.33-26.7,16.52-45.82,18.56-1.32.14-2.36.92-3.27,1.99-1.85,2.17-2,3.62-5.53,7.76-3,3.51-6.85,6.98-11.28,7.6,0,.48.02.97.05,1.45,2.85.79,7.21-.92,15.59-12.57,4.93-6.85,6.54-2.39,17.59-11.09,3.62-2.85,9.5-14.92,21.81-13.14,8.83,1.27,14.61,1.26,18.92.22-.18-.5-.4-1.01-.64-1.54-2.08.98-4.56,1.32-7.41.75Z"/>
      <path class="cls-1" d="M128.4,51.59c-12.31-1.78-18.18,10.29-21.81,13.14-11.05,8.69-12.66,4.24-17.59,11.09-8.38,11.66-12.74,13.37-15.59,12.57.07,1.27.21,2.55.44,3.83,3.33-.91,5.71-5.02,9.62-8.21.97-.79,1.81-1.68,2.6-2.6,1.12-1.32,2.14-2.71,3.27-4.04,1.68-1.97,2.38-2.47,3.09-2.66,22.92-6.23,14.92-20.66,39.57-18.99,5.06.34,10.59-.75,15.79-2.37-.13-.5-.29-1.01-.48-1.53-4.32,1.04-10.09,1.05-18.92-.22Z"/>
      <path class="cls-3" d="M132.01,55.72c-24.65-1.67-16.65,12.76-39.57,18.99-.71.19-1.41.69-3.09,2.66-1.13,1.32-2.15,2.72-3.27,4.04-.79.93-1.63,1.81-2.6,2.6-3.92,3.19-6.3,7.3-9.62,8.21.3,1.73.75,3.47,1.35,5.21,2.04-4.01,4.51-7.89,7.38-11.24,1.75-2.05,3.46-3.75,5.14-5.16,7.32-8.16,12.53-5.64,14.91-8.43,1.18-1.38,2.18-2.91,3.44-4.21,12.42-12.91,26.28-12.05,33.9-12.16,2.53-.92,5.26-1.51,8.12-1.64-.07-.41-.17-.82-.28-1.25-5.21,1.63-10.73,2.72-15.79,2.37Z"/>
      <path class="cls-19" d="M79.36,80.69c.84-.99,2.41-5.47,5.65-9.26,7.03-8.24,11.62-1.99,19.51-10.5,16.88-18.22,18.38-11.65,27.69-12.61,2.05-.21,5.22-.95,6.55-2.51,1.09-1.27.6-3.29-.66-4.36-.56-.47-.9-.46-1.25-.76,0,0-.28-.26-.58-.52-6.93-5.92-21.1-7.75-32.73,5.87-.61.71-1.92,2.33-2.4,3.12-.15.25-.32.49-.51.72-.64.75-1.51,1.27-2.55.83-5.27.86-9.43,3.76-12.75,7.65-4.11,4.82-11.92,19.81-8.94,22.35.63.54,1.92,1.21,2.96,0ZM103.12,57.84c-2.28-2.08-1.26-6.12.03-8.61.28-.55.49-1.11.77-1.66.18-.36.39-.67.63-.96.36-.42,5.8-5.5,8.91-7.07,9.06-4.6,19.85-.13,21.51,1.29,2.07,1.77,1.85,3.7.97,4.73s-2.57,1.36-3.96,1.24c-9.9-.84-19.01,2.39-25.24,9.68-.1.11-.21.25-.21.25-1.11,1.3-2.96,1.49-3.4,1.12,0,0,0,0-.01-.01ZM86.89,58.87c2.38-2.79,5.26-5,9.03-6.09.98.32,2.09.75,2.89,1.43,1.95,1.67,1.16,5.83-.45,7.71-1.91,2.24-5.58,2.33-8.45,3.5-5.59,2.29-8.92,8.63-10.47,7.3-.9-.77,4.18-10.02,7.45-13.85Z"/>
      <path class="cls-22" d="M106.52,56.74s.12-.14.21-.25c6.22-7.29,15.33-10.52,25.24-9.68,1.39.12,3.07-.2,3.96-1.24s1.1-2.96-.97-4.73c-1.66-1.42-12.45-5.89-21.51-1.29-3.1,1.58-8.55,6.65-8.91,7.07-.24.28-.45.59-.63.96-.27.55-.49,1.12-.77,1.66-1.29,2.49-2.31,6.52-.03,8.61,0,0,0,0,.01.01.44.38,2.28.19,3.39-1.12ZM112.46,41.79s.09-.1.13-.14c5-4.64,15.88-3.74,19.33-.8.84.71,2.28,2.35,1.41,3.36-1.35,1.58-4.11-.19-9.98.97-3.35.66-7.45,2.8-10.14.5-1.79-1.53-1.33-3.22-.75-3.9Z"/>
      <path class="cls-22" d="M89.91,65.42c2.87-1.17,6.53-1.26,8.45-3.5,1.61-1.88,2.4-6.04.45-7.71-.8-.68-1.91-1.11-2.89-1.43-3.77,1.09-6.65,3.31-9.03,6.09-3.27,3.83-8.35,13.08-7.45,13.85,1.56,1.33,4.88-5.02,10.47-7.3Z"/>
      <path class="cls-2" d="M123.36,45.18c5.87-1.16,8.63.62,9.98-.97.86-1.01-.58-2.65-1.41-3.36-3.45-2.94-14.33-3.84-19.33.8-.05.04-.09.09-.13.14-.58.68-1.04,2.37.75,3.9,2.69,2.3,6.79.16,10.14-.5Z"/>
      <path class="cls-28" d="M111.56,167.42c.93.79,1.92,1.73,1.92,1.74,25.27,21.58,36.41-4.85,58.13-.96-.78-.24-1.57-.51-2.35-.81-.6-.23-1.2-.5-1.8-.77-1.28,0-2.3-.01-2.79,0-10.53.08-20.51,5-30.8,6.81-11.52,2.03-36.84-19.93-52.78-18.05-1.03.56-1.96,1.3-2.77,2.24-.34.4-.41.53-.89,1.1-.05.06-.1.11-.15.17,11.25-3.8,24.8.44,34.28,8.53Z"/>
      <path class="cls-46" d="M171.61,168.2c-21.72-3.89-32.85,22.54-58.13.96,0,0-.99-.94-1.92-1.74-9.48-8.09-23.03-12.33-34.28-8.53-1.65,1.89-3.85,3.73-5.35,5.48-4.24,4.97,3.46,16.13,7.91,19.93,2.21,1.89,4.39,3.11,6.53,3.82.27.09.54.17.8.25,14.19,3.94,26.89-13.62,38.77-5.32,9.45,6.6,18.63,16.37,30.74,12.91,8.93-2.55,17.05-6.32,23.64-12.19,1.48-1.32,2.88-2.74,4.2-4.29,4.12-4.82,5.95-8.4,6.6-11.16-6.79,1.72-13.21,1.81-19.51-.12ZM186.97,174.87c-1.49,1.75-6.41,7.98-12.12,11.8-17.02,11.38-30.85,10.87-48.98-4.45-14.79-12.5-28.84,15.79-45.68,1.41-4.55-3.88-10.78-14.78-5.18-21.34,3.64-4.26,22.05-6.1,38.23,7.31,5.9,4.89,12.22,11.52,20.3,12.01,11.42.69,17.41-8.26,27.65-12.06,6.17-2.29,15.43,1.62,22.01,1,3.47-.33,4.44-.08,5.49.82.69.59-1.02,2.68-1.72,3.5Z"/>
      <path class="cls-24" d="M133.86,173.42c10.29-1.82,20.27-6.74,30.8-6.81.49,0,1.51,0,2.79,0-.92-.42-1.83-.88-2.74-1.39-12.59,1.16-29.65,9.44-50.68-.85-.04-.02-.09-.04-.13-.06-8.79-2.43-17.66-5.88-25.88-10.37-2.5-.11-4.9.3-6.94,1.42,15.94-1.88,41.26,20.09,52.78,18.05Z"/>
      <path class="cls-48" d="M183.21,170.55c-6.58.62-15.84-3.29-22.01-1-10.24,3.8-16.23,12.75-27.65,12.06-8.07-.49-14.4-7.12-20.3-12.01-16.18-13.41-34.59-11.57-38.23-7.31-5.6,6.56.63,17.46,5.18,21.34,16.84,14.38,30.88-13.91,45.68-1.41,18.14,15.33,31.97,15.84,48.98,4.45,5.71-3.82,10.63-10.05,12.12-11.8.7-.82,2.42-2.91,1.72-3.5-1.05-.89-2.02-1.14-5.49-.82ZM115.13,175.55c.07.35-.02.6-.17.77-.25.29-.68.4-.88.46-20.42,5.9-23.16,14.04-32.57,6-4.49-3.84-8.25-11.81-2.43-18.63,7.39-8.66,21.58-1.59,30.91,6.38,1.96,1.68,3.71,3.39,5.14,5.01ZM185.23,175.07c-10.88,12.74-30.41,17.71-46.49,12.91-1.37-.41-3.01-.92-4.17-1.9-.54-.46-.98-1.03-1.23-1.74,9.93-.99,18.77-5.61,27.38-11.23,5.38-3.51,11.72-1.14,17.91-.37,1.77.22,6.36-1.42,7.94-.07.4.34.18.63-1.34,2.41Z"/>
      <path class="cls-57" d="M79.07,164.16c-5.82,6.81-2.06,14.79,2.43,18.63,9.41,8.03,12.15-.1,32.57-6,.2-.06.63-.16.88-.46.15-.18.24-.43.17-.77-1.43-1.62-3.18-3.34-5.14-5.01-9.34-7.97-23.52-15.04-30.91-6.38ZM106.52,172.05c1.18,1.01,2.59,2.41,2.08,3.01-3.7,4.34-20.21,11.53-24.65,7.74-2.68-2.29-8.01-10.05-5.31-13.2,6.42-7.52,19.73-4.15,27.31,1.98.18.14.37.3.57.47Z"/>
      <path class="cls-57" d="M178.63,172.73c-6.19-.77-12.53-3.14-17.91.37-8.61,5.62-17.45,10.24-27.38,11.23.26.71.69,1.28,1.23,1.74,1.16.99,2.79,1.49,4.17,1.9,16.08,4.8,35.61-.17,46.49-12.91,1.52-1.78,1.75-2.07,1.34-2.41-1.58-1.35-6.17.3-7.94.07Z"/>
      <path class="cls-20" d="M78.64,169.6c-2.69,3.16,2.63,10.91,5.31,13.2,4.44,3.79,20.95-3.4,24.65-7.74.51-.6-.9-2-2.08-3.01-.2-.17-.39-.33-.57-.47-7.58-6.12-20.89-9.5-27.31-1.98Z"/>
      <path class="cls-39" d="M123.41,182.56c.32.27.58.6.91.88,1.25,1.06,7.48,3.97,11.18,6.75.77.58,1.57,1.11,2.39,1.6-4.09-2.67-8-5.99-11.95-8.75-9.87-6.9-20.31,4.05-31.7,5.7,12.03-.74,25.05-9.7,29.17-6.18Z"/>
      <path class="cls-2" d="M124.62,194.1c9.81,3.19,18.72,3.3,24.82,2.44-4.11-.5-7.91-2.37-11.56-4.75-.82-.49-1.62-1.02-2.39-1.6-3.7-2.78-9.93-5.68-11.18-6.75-.33-.28-.58-.6-.91-.88-4.12-3.52-17.14,5.44-29.17,6.18-.23.03-.46.06-.7.09,22.33,13.18,23.65,2.85,31.08,5.27ZM100.93,190.61c-.36-.31.05-1.09.34-1.43.62-.72,1.67-1.05,2.61-1.19,9.56-1.4,12.62-11.67,27.76,1.25,1.18,1.01,2.34,2.04,3.49,3.02,7.47,6.38-10.18-.8-14.38.27-6.4,1.63-13.8,3.2-18.97-1.21-.22-.19-.44-.39-.65-.6-.08-.02-.14-.05-.19-.1Z"/>
      <path class="cls-44" d="M156.68,195.95c-2.53.72-4.93.87-7.24.59-6.11.87-15.01.76-24.82-2.44-7.43-2.42-8.74,7.91-31.08-5.27-2.09.23-4.22.13-6.38-.47-.27-.07-.54-.16-.8-.25.19.14.39.28.58.43.69.49,1.4.97,2.15,1.43,23.2,12.78,70.25,10.43,78.84,1.83-3.55,1.67-7.33,3.03-11.25,4.15Z"/>
      <path class="cls-57" d="M167.94,191.8c-8.59,8.59-55.64,10.94-78.84-1.83,22.85,14.12,73.46,14.61,91.03-5.97.07-.08.13-.16.2-.24-3.69,3.29-7.86,5.92-12.39,8.04Z"/>
      <path class="cls-8" d="M120.74,192.53c4.2-1.07,21.85,6.11,14.38-.27-1.15-.98-2.31-2.01-3.49-3.02-15.13-12.92-18.2-2.65-27.76-1.25-.93.14-1.99.47-2.61,1.19-.29.35-.71,1.12-.34,1.43.05.05.12.08.19.1.21.21.43.41.65.6,5.16,4.41,12.57,2.84,18.97,1.21ZM103.86,189.32c.14-.17,11.69-6.03,14.26-3.84,1.78,1.52,1.75,3.55.49,5.02-1.51,1.77-9.45,4.59-13.74,1.08-.23-.18-.48-.34-.7-.53-.58-.5-.8-1.16-.3-1.74Z"/>
      <path class="cls-23" d="M118.61,190.51c1.26-1.47,1.29-3.5-.49-5.02-2.57-2.19-14.11,3.67-14.26,3.84-.49.58-.28,1.24.3,1.74.22.19.48.35.7.53,4.3,3.51,12.23.69,13.74-1.08Z"/>
      <path class="cls-16" d="M196.31,157.51c10.81-2.95,10.35-14.31,24.98-17.92,17.03-4.2,23.72-5.18,29.26-9.63-17.73,7.1-33.67,5.74-45.05,19.07-1.11,1.3-2.37,3.09-2.4,3.11-3.93,4.6-15.37,2.68-31.4,13.51,4.63-1.52,10.69-5.32,10.84-5.4,4.17-2.29,8.96-1.44,13.76-2.75Z"/>
      <path class="cls-23" d="M252.95,128.95c-.8.35-1.6.69-2.39,1.01-5.55,4.45-12.24,5.43-29.26,9.63-14.63,3.61-14.17,14.97-24.98,17.92-4.8,1.31-9.6.46-13.76,2.75-.15.08-6.21,3.88-10.84,5.4-.4.27-.8.55-1.21.84,22.29,5.26,63.42-19.21,82.45-37.54ZM206.33,151.38s.08-.09.12-.14c.6-.65,1.13-1.27,1.84-1.81,2.14-1.66,4.18-3.1,5.96-5.06,3.83-4.22,23.07-7.6,23.91-6.88.63.54.48,1.15-.06,1.78-1.87,2.19-26.85,20.91-32.29,16.26-.7-.6-.9-2.49.52-4.15ZM179.24,163.87c.14-.2.29-.39.45-.58,3.38-3.95,9.89-4.23,14.79-3.23,0,0,.01,0,.02.01.21.18-.04.67-.23.89-.98,1.15-11.37,4.97-14.57,4.18-.24-.4-.73-.9-.47-1.27Z"/>
      <path class="cls-32" d="M169.7,167.06c-.15.11-.29.21-.44.32,7.05,2.75,14.22,2.86,21.86.93,11.14-2.82,23.28-9.99,37.52-19.71-2.78,1.44-5.54,2.89-8.27,4.38-13.29,7.23-33.42,19.85-50.66,14.08Z"/>
      <path class="cls-8" d="M279.14,108.92c-3.44,4.03-6.88,7.38-10.28,10.19-5.4,4.45-10.72,7.54-15.91,9.84-19.02,18.33-60.16,42.8-82.45,37.54-.26.19-.53.38-.8.57,17.24,5.76,37.37-6.85,50.66-14.08,2.73-1.49,5.5-2.93,8.27-4.38,11.26-7.69,23.83-16.96,38.26-26.94,2.55-1.76,5.15-3.54,7.81-5.34,1.6-1.08,3-2.34,4.19-3.73,2.18-2.55,3.61-5.52,4.24-8.58-1.07,1.41-2.39,3.02-4,4.9Z"/>
      <path class="cls-10" d="M238.1,139.27c.54-.63.69-1.25.06-1.78-.84-.72-20.08,2.66-23.91,6.88-1.78,1.96-3.82,3.4-5.96,5.06-.71.55-1.24,1.16-1.84,1.81-.04.05-.08.09-.12.14-1.42,1.66-1.23,3.55-.52,4.15,5.45,4.65,30.43-14.07,32.29-16.26ZM207.93,151.44c-.02-.24.07-.45.22-.62,1.76-2.06,13.82-13.16,19.02-8.72.88.75-.3,2.5-1,3.32-2.78,3.26-12.94,11.8-17.92,7.55-.46-.39-.73-.97-.31-1.53Z"/>
      <path class="cls-10" d="M194.27,160.96c.18-.22.44-.7.23-.89,0,0-.01,0-.02-.01-4.9-.99-11.42-.72-14.79,3.23-.16.18-.31.38-.45.58-.26.36.23.87.47,1.27,3.2.79,13.59-3.03,14.57-4.18Z"/>
      <path class="cls-16" d="M226.16,145.42c.7-.82,1.88-2.57,1-3.32-5.2-4.44-17.26,6.66-19.02,8.72-.14.17-.23.38-.22.62-.42.56-.15,1.14.31,1.53,4.98,4.25,15.14-4.29,17.92-7.55Z"/>
      <path class="cls-50" d="M196.38,26.39c-3.57-3.05-7.54-5.34-11.67-6.87.27.13.55.26.83.4,2.61,1.27,5.74,3.08,8.6,5.52,9,7.68,14.64,19.44,14.74,31.17,0,.05,0,.1,0,.16.94-5.02.94-18.89-12.51-30.37Z"/>
      <path class="cls-39" d="M200.73,27.6c-8.33-7.12-15.08-9.41-21.04-10.29.11.19.15.29.15.29,0,0,2.02.6,4.86,1.91,4.13,1.54,8.1,3.82,11.67,6.87,13.45,11.48,13.45,25.36,12.51,30.37,0,.08,0,.17,0,.25.28-.07.55-.13.83-.19.07-.02.14-.03.21-.05,1.42-6.69,4.97-17.08-9.19-29.17Z"/>
      <path class="cls-49" d="M202.77,25.27c-3.88-3.31-7.09-4.89-11.36-5.98,2.79,1.15,6.07,3.11,10.24,6.68,8.94,7.63,14.73,18.75,9.94,30.4,1.22-.32,2.45-.73,3.69-1.44-.81-11.09-4.04-22.42-12.52-29.66Z"/>
      <path class="cls-23" d="M201.66,25.96c-4.18-3.57-7.45-5.53-10.24-6.68-1.35-.35-2.8-.64-4.41-.93-2.14-.38-4.56-.75-7.39-1.19.03.05.06.1.08.14,5.96.88,12.7,3.18,21.04,10.29,14.16,12.09,10.61,22.47,9.19,29.17.56-.13,1.12-.25,1.68-.4,4.78-11.65-1-22.77-9.94-30.4Z"/>
      <path class="cls-35" d="M109.18,67.34c2.61-3.05,6.78-4.87,8.5-6.7-1.43.72-2.83,1.53-4.17,2.43-2.37,2.34-4.42,3.77-5.53,5.07-3.03,3.55-4.28,5.54-2.62,7.52,2.59.46,5.1,1.38,7.52,2.49-1.2-.66-2.28-1.34-3.12-2.06-2.75-2.35-3.49-5.35-.58-8.76Z"/>
      <path class="cls-38" d="M111.59,66.26c2.78-3.26,7.05-5.56,11.72-7.86-1.93.58-3.81,1.33-5.63,2.24-1.72,1.82-5.9,3.64-8.5,6.7-2.91,3.41-2.16,6.41.58,8.76.84.72,1.92,1.4,3.12,2.06,1.49.68,2.95,1.45,4.38,2.23,1.59.87,3.15,1.75,4.68,2.59,3.05,1.66,5.99,3.11,8.85,3.72-1.2-.66-2.58-.92-3.72-1.68-5.53-3.67-9.55-4.84-13.07-7.84-3.4-2.9-5.22-7.63-2.41-10.92Z"/>
      <path class="cls-47" d="M107.99,68.14c1.1-1.29,3.16-2.73,5.53-5.07-3.61,2.41-6.9,5.4-9.75,8.74-.97,1.14-1.89,2.32-2.76,3.53,1.48-.06,2.93.06,4.36.31-1.66-1.98-.41-3.97,2.62-7.52Z"/>
      <path class="cls-24" d="M123.31,58.4c-4.67,2.3-8.94,4.6-11.72,7.86-2.81,3.29-.98,8.02,2.41,10.92,3.52,3.01,7.54,4.17,13.07,7.84,1.14.76,2.53,1.01,3.72,1.68.25.05.51.1.76.14,1.12-2.03,2.43-3.92,3.88-5.61.38-.45.78-.89,1.19-1.34-2.26.4-4.4.45-6.25-.18-1.2-.29-2.36-.85-3.39-1.73-1.46-1.25-2.49-3.03-2.73-5.22-.95-8.51-4.67-6.86-1.29-10.82,2.24-2.62,5.94-5.02,8.97-3.39.74.1,1.47.29,2.16.6.88-.57,1.81-1.1,2.78-1.59-4.68-.83-9.24-.45-13.55.83ZM124.35,59.73c-.79.92-1.96,1.75-2.79,2.72-3.15,3.68,2.3,6.14,1.83,10.45-.27,2.45.68,4.35,2.25,5.69,2.05,1.75,5.14,2.55,7.97,2.39.23-.01.5.05.71.22.04.03.07.07.1.1-.05.06-.11.12-.16.18-.45.52-.81,1.14-1.26,1.66-3.76,4.41-13.36-2.54-17.57-6.14-4.95-4.23-4.88-8.49-2.52-11.25.15-.18,9.61-7.56,11.45-6.38,0,0,.01.01.02.02.11.09.04.26-.03.34Z"/>
      <path class="cls-41" d="M122.95,61.94c-3.38,3.96.34,2.31,1.29,10.82.25,2.19,1.27,3.97,2.73,5.22,1.03.88,2.19,1.44,3.39,1.73-.85-.29-1.65-.72-2.37-1.34-4.18-3.57-2.57-8.95-5.87-13.15-.57-.73.76-2.64,1.36-3.35,2.06-2.41,5.37-3.72,8.44-3.32-3.03-1.63-6.74.77-8.97,3.39Z"/>
      <path class="cls-28" d="M112.91,65.75c-2.36,2.77-2.43,7.03,2.52,11.25,4.22,3.6,13.81,10.54,17.57,6.14.45-.52.81-1.13,1.26-1.66.05-.06.11-.12.16-.18-.03-.04-.07-.07-.1-.1-.21-.18-.47-.24-.71-.22-2.82.16-5.92-.64-7.97-2.39-1.57-1.34-2.52-3.24-2.25-5.69.47-4.32-4.98-6.77-1.83-10.45.83-.97,2-1.8,2.79-2.72.07-.08.14-.24.03-.34,0,0-.01-.01-.02-.02-1.84-1.19-11.29,6.2-11.45,6.38ZM122.5,72.51c.61,1.51-1.16,3.71,1.73,6.18,1.21,1.04,2.86,1.72,4.22,2.39.27.13.69.23.89.4.19.16.12.37-.03.55-1.55,1.81-7.75-.66-11.78-4.1-6.43-5.49-5.89-8.86-3.41-11.78,1.48-1.74,3.64-3.65,5.76-3.33-.43,3.48,1.33,6.53,2.6,9.69Z"/>
      <path class="cls-29" d="M114.14,66.14c-2.49,2.91-3.02,6.29,3.41,11.78,4.03,3.44,10.23,5.91,11.78,4.1.15-.18.22-.39.03-.55-.2-.17-.62-.26-.89-.4-1.37-.67-3.01-1.35-4.22-2.39-2.89-2.47-1.12-4.67-1.73-6.18-1.27-3.16-3.03-6.21-2.6-9.69-2.12-.32-4.28,1.59-5.76,3.33ZM119.71,71.36c.78,1.48,2.67,3.46,1.36,4.99-1.18,1.38-3.17.54-3.81-.02-.16-.14-.3-.3-.44-.48-.3-.41-.34-.87-.46-1.33-.27-.14-.52-.31-.75-.51-2.21-1.89-2.06-5.62-.03-8,.59-.69,1.88-1.48,2.57-.88.85.73.52,4.28,1.55,6.23Z"/>
      <path class="cls-41" d="M115.59,66.01c-2.03,2.38-2.19,6.11.03,8,.22.19.47.36.75.51.11.46.16.92.46,1.33.14.19.28.35.44.48.65.55,2.64,1.4,3.81.02,1.3-1.53-.58-3.51-1.36-4.99-1.02-1.95-.69-5.5-1.55-6.23-.69-.59-1.99.2-2.57.88Z"/>
      <path class="cls-29" d="M169.17,72.49c-1.25.78-2.4.86-3.95,2.67l-.03.04c-.1.11-.19.23-.29.34-15.79-10.56-22.37.73-30.13,6.49-1.18,1.48-2.26,3.09-3.21,4.8.59.09,1.17.15,1.75.16,11.81-9.07,39.9,4.04,46.19-3.34,1.86-2.18,1.4-4.93.09-7.6-.1-.09-.19-.18-.29-.27,0,0-.02-.02-.03-.02-3.52-.65-6.87-1.79-10.1-3.27ZM179.44,81.98c-5.07,5.94-25.04-1.18-38.05.37-.65.08-1.56-.04-2.1-.5-.32-.28-.51-.67-.42-1.23.06-.4.27-.75.54-1.06,7.74-9.07,13.7-8.73,24.13-2.95,3.57,1.98,6.03-6.85,14.25.17,1.19,1.02,3.21,3.37,1.65,5.2Z"/>
      <path class="cls-28" d="M153.5,86.22c19.56-.83,23.01,7.51,28.27,1.34,2.33-2.73,1.56-5.88-.31-9.55-.58-.68-1.2-1.33-1.88-1.95,1.31,2.67,1.77,5.42-.09,7.6-6.3,7.38-34.39-5.73-46.19,3.34.22,0,.44,0,.66,0,1.43-.05,2.82-.1,4.18-.13,11.21-3.42,10.49-.44,15.35-.65Z"/>
      <path class="cls-8" d="M164.9,75.54c.1-.11.2-.22.29-.34l.03-.04c1.54-1.81,2.7-1.88,3.95-2.67-.14-.06-.28-.12-.42-.19-2.06.98-3.85,2.72-4.61,2.12-10.23-8.23-20.62-2.03-27.53,5.47-.41.44-.8.89-1.19,1.34-.22.26-.44.53-.66.8,7.76-5.77,14.34-17.06,30.13-6.49Z"/>
      <path class="cls-24" d="M182.65,91.94c1.9-2.23,2.16-5.9,1.64-9.65-.76-1.53-1.7-2.97-2.82-4.29,1.88,3.68,2.65,6.82.31,9.55-5.27,6.17-8.71-2.17-28.27-1.34-4.87.21-4.15-2.77-15.35.65,6.76-.16,12.81-.03,18.79,1.05,13.14-1.26,21.25,9.25,25.71,4.03Z"/>
      <path class="cls-35" d="M163.39,89.48c6.87,2.12,13.95,5.78,22.17,11.97.52-1.72.88-3.46,1.07-5.21-3.79,4-13.22-6.78-23.24-6.76Z"/>
      <path class="cls-38" d="M184.29,82.29c.52,3.76.27,7.42-1.64,9.65-4.46,5.23-12.57-5.29-25.71-4.03,2.15.39,4.29.9,6.46,1.57,10.02-.03,19.45,10.76,23.24,6.76.53-4.87-.24-9.74-2.35-13.95Z"/>
      <path class="cls-41" d="M179.44,81.98c1.56-1.83-.46-4.18-1.65-5.2-8.22-7.02-10.67,1.81-14.25-.17-10.43-5.78-16.39-6.12-24.13,2.95-.27.32-.48.66-.54,1.06-.09.55.1.95.42,1.23.54.46,1.45.58,2.1.5,13.01-1.55,32.98,5.57,38.05-.37ZM166.53,77.43c3.1-3.63,5.91-4.05,10.34-.27,2.08,1.78,1.94,3.84,1.44,4.43-2.41,2.82-11.25.93-12.75-.36-.31-.27-.58-.58-.81-.96.1-.51.25-.97.58-1.38.4-.49.79-.99,1.2-1.47ZM143.23,77.8c-.2-.34-.25-.86.04-1.19.91-1.06,10.68-6.02,16.58-.98,1.69,1.45,2.53,3.76,2.09,4.27-1.75,2.05-13.92,2.37-17.57-.74-.44-.37-.82-.82-1.14-1.35Z"/>
      <path class="cls-33" d="M161.94,79.89c.43-.51-.4-2.82-2.09-4.27-5.9-5.04-15.67-.08-16.58.98-.28.33-.24.85-.04,1.19.32.53.7.98,1.14,1.35,3.65,3.12,15.82,2.79,17.57.74ZM144.71,77.36c.05-.08.11-.16.17-.23,2.53-2.96,8.39-4.73,11.41-2.14,1,.85,1.39,1.53.51,2.56-2.17,2.54-8.25,3.1-12.1-.18Z"/>
      <path class="cls-33" d="M165.55,81.23c1.5,1.28,10.34,3.18,12.75.36.5-.59.64-2.65-1.44-4.43-4.43-3.78-7.24-3.37-10.34.27-.41.48-.8.98-1.2,1.47-.33.4-.48.86-.58,1.38.22.38.49.69.81.96Z"/>
      <path class="cls-48" d="M156.29,74.98c-3.02-2.58-8.88-.82-11.41,2.14-.06.07-.12.15-.17.23,3.85,3.29,9.93,2.73,12.1.18.87-1.02.49-1.7-.51-2.56Z"/>
      <path class="cls-38" d="M165.96,61.04c3.6,3.08,8.21,8.29,12.97,13.96-2.28-4.67-5.67-9-9.74-12.47-7.17-6.13-14.5-8.25-21.1-7.94-4.09.19-7.9,1.3-11.23,2.97-.97.49-1.9,1.02-2.78,1.59-.42.27-.82.55-1.21.83,10.11-5.83,23.97-6.73,33.09,1.06Z"/>
      <path class="cls-28" d="M173.34,70.44c1.95,1.66,4.67,4.22,5.45,4.88.15.12.3.24.45.36,0,0,.01,0,.02,0-.1-.23-.21-.45-.32-.67-4.76-5.68-9.37-10.89-12.97-13.96-9.12-7.79-22.98-6.89-33.09-1.06-1.43,1.03-2.72,2.15-3.85,3.33,0,0,0,0,.01,0,3.8-1.17,7.3-3.26,10.66-5.43,11.02-7.13,28.49,8.15,33.64,12.55Z"/>
      <path class="cls-21" d="M147.69,57.18c-3.99-2.95-10.98,4.81-15.59,6.92,4.98-.74,10.6-9.26,16.14-5.27.04.03.09.06.13.1,6.43,4.87,13.07,9.96,20.38,13.38,3.35,1.57,6.84,2.78,10.51,3.46,0,0,.01,0,.02,0-.01-.02-.02-.05-.03-.07,0,0-.01-.01-.02-.02-11.91-1.98-21.98-11.42-31.54-18.5Z"/>
      <path class="cls-29" d="M147.69,57.18c9.56,7.08,19.63,16.52,31.54,18.5-.15-.12-.3-.23-.45-.36-.77-.66-3.5-3.22-5.45-4.88-5.15-4.4-22.63-19.68-33.64-12.55-3.36,2.17-6.86,4.26-10.66,5.43.99.74,2.02.93,3.08.77,4.6-2.11,11.6-9.87,15.59-6.92Z"/>
      <path class="cls-30" d="M150.04,60.83c1.91,1.26,3.8,2.53,5.75,3.61-2.52-1.8-4.98-3.68-7.41-5.52-.04-.03-.09-.06-.13-.1-6.58-4.74-13.28,8.19-18.88,4.72.04.39.13.77.26,1.15,6.24,1.4,10.86-10.16,20.42-3.86Z"/>
      <path class="cls-28" d="M155.79,64.45c-1.94-1.09-3.83-2.36-5.75-3.61-9.56-6.3-14.18,5.26-20.42,3.86.28.8.75,1.54,1.45,2.13,5.3,4.52,12.95-1.92,18.48-1.11,3.4.49,7.72,2.45,11.15,2.08-1.66-1.07-3.3-2.2-4.91-3.35ZM148.89,64.79c-2.81-.53-13.31,4.82-16.79,1.84-.06-.06-.13-.12-.19-.18.08-.24.22-.45.39-.66,2.97-3.48,11.93-8.84,20.37-1.63,4.35,3.72-3.53.67-3.78.63Z"/>
      <path class="cls-29" d="M132.3,65.8c-.17.2-.31.42-.39.66.06.06.12.12.19.18,3.48,2.97,13.98-2.38,16.79-1.84.25.05,8.13,3.09,3.78-.63-8.44-7.21-17.4-1.85-20.37,1.63Z"/>
      <path class="cls-28" d="M129.33,62.99c1.37-1.38,2.96-2.69,4.75-3.84-.9-.4-1.85-.61-2.82-.66-.15.14-.29.29-.42.44-.99,1.16-1.51,2.63-1.5,4.06Z"/>
      <path class="cls-35" d="M163.23,71.22c-15.79-10.74-23.69,9.99-36.68-1.1-2.3-1.97-3.62-4.49-4.26-6.43-.29.61-.43,1.2-.17,1.54,1.06,1.35,1.61,2.82,2.02,4.31.94,1.38,1.98,2.65,3.16,3.67,7.83,6.69,13.02-2.71,26.31-4.78,3.86-.6,6.93,2.53,10.4,3.56,1.45.43,2.85.37,4.23.07-.3-.14-.6-.29-.89-.43-1.41.46-2.96.39-4.12-.4Z"/>
      <path class="cls-47" d="M164.01,71.98c-3.47-1.03-6.54-4.16-10.4-3.56-13.29,2.07-18.48,11.47-26.31,4.78-1.19-1.01-2.23-2.29-3.16-3.67.27,1.02.48,2.04.72,3.05,1.09,1.45,2.28,2.85,3.57,3.95,9.41,8.03,13.08-8.02,25.78-7.22,6.72.42,4.86,3.39,13.75,3.41.26-.15.53-.29.8-.42-.17-.08-.35-.17-.52-.25-1.38.3-2.78.36-4.23-.07Z"/>
      <path class="cls-55" d="M128.43,76.53c-1.29-1.1-2.48-2.5-3.57-3.95.51,2.12,1.21,4.15,3.14,5.79,2.27,1.94,5.31,2.1,8.62,1.52,6.91-7.5,17.31-13.7,27.53-5.47.65.52,2.08-.71,3.8-1.69-8.89-.02-7.03-2.99-13.75-3.41-12.7-.8-16.37,15.25-25.78,7.22Z"/>
      <path class="cls-38" d="M163.23,71.22c1.16.79,2.7.86,4.12.4-1.13-.56-2.23-1.17-3.33-1.8-.91.05-1.81-.1-2.61-.44-16.68-7.15-23.85,6.87-33.05-.99-3-2.56-3-5.03-.95-7.44.8-.94,1.85-1.78,2.94-2.46-2.58.13-5.15,1.38-6.86,3.38-.33.38-.86,1.11-1.19,1.81.64,1.95,1.96,4.47,4.26,6.43,12.99,11.09,20.89-9.65,36.68,1.1Z"/>
      <path class="cls-24" d="M160.7,67.8c-3.43.37-7.74-1.58-11.15-2.08-5.53-.8-13.18,5.64-18.48,1.11-.7-.6-1.18-1.33-1.45-2.13-.13-.37-.21-.75-.26-1.15-.12-.07-.23-.15-.35-.24.1-.11.21-.21.32-.32-.01-1.43.52-2.9,1.5-4.06.13-.15.27-.3.42-.44-.3-.02-.6-.01-.91,0-1.08.68-2.14,1.52-2.94,2.46-2.05,2.4-2.06,4.87.95,7.44,9.21,7.86,16.37-6.16,33.05.99.79.34,1.7.49,2.61.44-1.12-.65-2.22-1.32-3.31-2.02Z"/>
      <path class="cls-38" d="M162.39,163.83c-16.75,7.24-31.71,4.96-47.2-3.41,1.19,1.68,2.34,3.4,3.48,5.11-1.58-.37-3.17-.78-4.77-1.22.04.02.09.04.13.06,21.02,10.28,38.08,2.01,50.68.85-.2-.11-.4-.22-.6-.33-.58-.33-1.15-.69-1.73-1.06Z"/>
      <path class="cls-47" d="M162.39,163.83c-.23-.15-.47-.3-.7-.46-14.92,8.62-34.17,3.79-48.84-6.18.8,1.06,1.58,2.13,2.35,3.22,15.49,8.37,30.45,10.65,47.2,3.41Z"/>
      <path class="cls-24" d="M218.58,127.36c-2.92,3.42-17.9,16.83-26.32,21.23-6.24,4.34-12.79,8.52-18.48,11.67,14.03-6.91,34.9-20.08,48.2-35.67,14.36-16.82,7.2-20.7,5.61-27.77-.06.02-.11.04-.17.06-1.45,10.46,4.51,14.82-8.84,30.46Z"/>
      <path class="cls-38" d="M217.6,127.68c-4.61,5.4-6.79,6.92-8.18,7.79-4.51,3.91-10.67,8.61-17.17,13.13,8.42-4.41,23.4-17.81,26.32-21.23,12.89-15.1,7.79-19.68,8.72-29.4-2.89,12.56.18,18.14-9.7,29.71Z"/>
      <path class="cls-47" d="M227.3,97.96c.03-.35.07-.7.12-1.07-.25.09-.5.19-.75.28-3.5,16.82-2.22,21.8-11.69,32.9-1.27,1.48-3.18,3.32-5.56,5.38,1.39-.87,3.57-2.4,8.18-7.79,9.88-11.57,6.8-17.15,9.7-29.71Z"/>
      <path class="cls-57" d="M207.92,31c4.72,6.82,6.76,15.44,7.38,23.93.99-.56,1.99-1.31,3-2.34-.26-.11-.51-.25-.73-.43-2.35-2.01-3.36-13.32-9.65-21.16Z"/>
      <path class="cls-2" d="M207.92,31c6.29,7.84,7.3,19.15,9.65,21.16.22.18.46.33.73.43.28-.28.56-.59.84-.92.21-.25.42-.5.63-.75.56.31,1.1.64,1.63.99-.62-.77-1.29-1.5-1.99-2.1-.28-.24-.57-.48-.85-.72-5.79-4.94-4.38-11.29-11.18-18.86.18.25.36.51.54.76Z"/>
      <path class="cls-38" d="M80.85,150.61c-.17-.14-1.74-1.26-2.32-1.75-4.1-3.5-7.07-6.13-9.27-8.29-2.93-2.72-5.42-5.42-7.53-8.11,4.47,9.29,16.87,13.65,17.11,21.39.06,2.01-3.44,5.6-5.54,9.05,1.35-1.36,2.91-2.76,4.12-4.18.49-.57.55-.7.89-1.1.62-.72,1.31-1.32,2.06-1.82,1.13-1.68,2.25-3.67.48-5.18Z"/>
      <path class="cls-47" d="M69.26,140.57c2.2,2.17,5.17,4.8,9.27,8.29.58.49,2.15,1.61,2.32,1.75,1.77,1.51.65,3.5-.48,5.18,2.18-1.44,4.86-1.97,7.65-1.85-5.72-3.13-11.13-6.76-15.96-10.89-.98-.83-1.91-1.66-2.8-2.49Z"/>
      <path class="cls-28" d="M65.28,41.27c-2.68,2.81-3.52,5.18-4.22,9.11-.34,1.9.63,4.5-2.4,7.74-1.26,1.34.73-2.07-4,2.49-6.14,5.93-2.55,25.7-8.43,32.42,1.26,1.25,2.61,2.49,4.05,3.73.04.04.09.07.13.11-.06-8.1.71-16.58.84-25.74.06-4.02,1.72-7.87,4.32-10.91.57-.67,1.18-1.29,1.83-1.87.3.23.59.46.87.7.52.44,1,.9,1.46,1.37.54-1.57,1.14-3.12,1.73-4.64,1.47-3.77-2.59-6.52,3.94-14.17,4.41-5.16,9.6-7.48,14.88-13.09-.19.13-.36.26-.48.41-1.17,1.37-8.46,6.02-14.52,12.35Z"/>
      <path class="cls-46" d="M82.16,26.37c-.35-.12-.71-.24-1.07-.36-.44.6-.91,1.18-1.39,1.74-5.43,6.37-10.85,8.83-14.37,12.95-5.94,6.96-4.84,13.64-7.06,16.25-1.62,1.89-4.15,3.22-5.98,5.36-3.51,4.11.44,17.45-7.95,28.74.61.66,1.24,1.32,1.9,1.97,5.89-6.71,2.3-26.49,8.43-32.42,4.72-4.56,2.74-1.15,4-2.49,3.03-3.23,2.06-5.84,2.4-7.74.7-3.93,1.54-6.3,4.22-9.11,6.06-6.33,13.35-10.98,14.52-12.35.12-.14.29-.28.48-.41.44-.47.88-.95,1.32-1.46.19-.22.38-.45.57-.68Z"/>
      <path class="cls-33" d="M183.06,35.76c-2.89-2.47-6.56-2.48-10.2-1.43-15.4,4.41-13.09,6.43-34.15-5.74.47,1,.93,2,1.37,3.01,1.47-.57,2.98-.5,4.43.75.67.57,1.34,1.5,3.18,3.07.42.36.83.68,1.23,1,5.4,2.24,11.04,4.19,16.28,2.12,6.6-2.61,13.7-5.46,18.71-1.19.82.7,2.99,3.36,4.66,7.09,1.01,1.9,1.71,3.52,2.7,4.42-1.5-3.12-5.35-10.65-8.22-13.1Z"/>
      <path class="cls-29" d="M165.21,38.54c-5.24,2.07-10.87.12-16.28-2.12,16.32,12.63,24.78-6.98,34.48,1.31,2.6,2.22,4.06,4.64,5.16,6.71-1.67-3.73-3.84-6.39-4.66-7.09-5-4.27-12.1-1.42-18.71,1.19Z"/>
      <path class="cls-40" d="M81.9,60.01c-3.19,3.74-7.25,12.03-8.36,16.03-1.08,3.89-1.34,9.19-4.01,12.31-1.15,1.35-3.54,3.03-5.34,1.84.86,1.48,2.25,2.81,3.77,4.11.87.75,1.79,1.48,2.69,2.23.63.1,1.17,0,1.54-.43.75-.88.37-2.3.41-6.17.16-13.74,5.04-23.82,10.13-29.78.64-.75,1.24-1.38,1.83-1.92.7-.91,1.43-1.8,2.18-2.68-1.77,1.27-3.41,2.78-4.84,4.45Z"/>
      <path class="cls-28" d="M72.6,89.94c-.05,3.88.34,5.29-.41,6.17-.37.43-.91.53-1.54.43.14.11.27.23.41.34,1.17,1,2.17,1.95,3.02,2.87.36-.78.74-1.55,1.13-2.32-4.8-13.77.32-27.56,9.35-39.19-.59.54-1.19,1.17-1.83,1.92-5.09,5.96-9.96,16.04-10.13,29.78Z"/>
    </g>
  </g>
</svg>