<?xml version="1.0" encoding="UTF-8"?>
<svg id="Layer_2" data-name="Layer 2" xmlns="http://www.w3.org/2000/svg" viewBox="0 0 432.64 444.53">
  <defs>
    <style>
      .cls-1 {
        fill: #d5d7ec;
      }

      .cls-2 {
        fill: #ced4ea;
      }

      .cls-3 {
        fill: #c2bedf;
      }

      .cls-4 {
        fill: #fbf7fb;
      }

      .cls-5 {
        fill: #e6d3e7;
      }

      .cls-6 {
        fill: #f1f3f7;
      }

      .cls-7 {
        fill: #9fa6d4;
      }

      .cls-8 {
        fill: #e9e4f1;
      }

      .cls-9 {
        fill: #e7eaf2;
      }

      .cls-10 {
        fill: #f6eff6;
      }

      .cls-11 {
        fill: #c7acd2;
      }

      .cls-12 {
        fill: #a4a3d1;
      }

      .cls-13 {
        fill: #cbb9da;
      }

      .cls-14 {
        fill: #b8a0cd;
      }

      .cls-15 {
        fill: #eadbeb;
      }

      .cls-16 {
        fill: #c7d3df;
      }

      .cls-17 {
        fill: #c6b1d6;
      }

      .cls-18 {
        fill: #ceb4d7;
      }

      .cls-19 {
        fill: #b9c6db;
      }

      .cls-20 {
        fill: #b3b2d9;
      }

      .cls-21 {
        fill: #d3bada;
      }

      .cls-22 {
        fill: #a6acd7;
      }

      .cls-23 {
        fill: #a0a7d4;
      }

      .cls-24 {
        fill: #aebbdc;
      }

      .cls-25 {
        fill: #d4b9d9;
      }

      .cls-26 {
        fill: #999dcf;
      }

      .cls-27 {
        fill: #8c97cb;
      }

      .cls-28 {
        fill: #e5daec;
      }

      .cls-29 {
        fill: #c4a7d0;
      }

      .cls-30 {
        fill: #d3d7ea;
      }

      .cls-31 {
        fill: #cebcdc;
      }

      .cls-32 {
        fill: #dfe2ef;
      }

      .cls-33 {
        fill: #c8b5d8;
      }

      .cls-34 {
        fill: #f8f2f8;
      }

      .cls-35 {
        fill: #cdb9da;
      }

      .cls-36 {
        fill: #99a0d0;
      }

      .cls-37 {
        fill: #b0b6dc;
      }

      .cls-38 {
        fill: #cfb5d7;
      }

      .cls-39 {
        fill: #727fbe;
      }

      .cls-40 {
        fill: #a4b0da;
      }

      .cls-41 {
        fill: #e3dbed;
      }

      .cls-42 {
        fill: #b6b5db;
      }

      .cls-43 {
        fill: #a9abd6;
      }

      .cls-44 {
        fill: #8a95ca;
      }

      .cls-45 {
        fill: #d7d1e8;
      }

      .cls-46 {
        fill: #f0f1f9;
      }

      .cls-47 {
        fill: #7d81be;
      }

      .cls-48 {
        fill: #f0e9f4;
      }

      .cls-49 {
        fill: #b7b7dc;
      }

      .cls-50 {
        fill: #aa94c6;
      }

      .cls-51 {
        fill: #a388bf;
      }

      .cls-52 {
        fill: #d6c9e3;
      }

      .cls-53 {
        fill: #c6b3d7;
      }

      .cls-54 {
        fill: #f2e6f1;
      }

      .cls-55 {
        fill: #cdcce6;
      }

      .cls-56 {
        fill: #7f8ac4;
      }

      .cls-57 {
        fill: #d0bbdb;
      }

      .cls-58 {
        fill: #b199c8;
      }

      .cls-59 {
        fill: #afacd6;
      }

      .cls-60 {
        fill: #b9add5;
      }

      .cls-61 {
        fill: #d7daec;
      }

      .cls-62 {
        fill: #b6b8dd;
      }

      .cls-63 {
        fill: #c3bcdd;
      }

      .cls-64 {
        fill: #848ac4;
      }

      .cls-65 {
        fill: #99a6d4;
      }

      .cls-66 {
        fill: #c0b0d6;
      }

      .cls-67 {
        fill: #d5bada;
      }

      .cls-68 {
        fill: #b49cca;
      }

      .cls-69 {
        fill: #7e88c3;
      }

      .cls-70 {
        fill: #b6b1d8;
      }

      .cls-71 {
        fill: #c8add3;
      }

      .cls-72 {
        fill: #aba9d4;
      }

      .cls-73 {
        fill: #ecebf5;
      }

      .cls-74 {
        fill: #6e7bbc;
      }

      .cls-75 {
        fill: #304185;
      }

      .cls-76 {
        fill: #8085c1;
      }

      .cls-77 {
        fill: #cdb1d5;
      }

      .cls-78 {
        fill: #5c6cb3;
      }

      .cls-79 {
        fill: #e9e6f3;
      }

      .cls-80 {
        fill: #425998;
      }

      .cls-81 {
        fill: #c2c7e5;
      }

      .cls-82 {
        fill: #f6ecf4;
      }

      .cls-83 {
        fill: #5d73b4;
      }

      .cls-84 {
        fill: #dfe3f2;
      }

      .cls-85 {
        fill: #d0c8e3;
      }

      .cls-86 {
        fill: #ddc4df;
      }
    </style>
  </defs>
  <g id="flower">
    <g>
      <path class="cls-34" d="M143.92,388.8c16.08,32.05,15.77,60.98,46.67,54.92-30.72,3.34-33.41-33.43-46.67-54.92Z"/>
      <path class="cls-5" d="M190.17,385.26c-40.39,4.13-36.05-57.67-60.44-48.96-5.74,2.05-11.49,7.83-13.73,14.48,2.22,5.25,5.62,9.65,10.88,12.56,2,2.24,3.85,4.51,5.57,6.79,4.66,6.18,8.37,12.48,11.47,18.66,13.26,21.49,15.95,58.26,46.67,54.92,3.13-.61,6.57-1.58,10.38-2.95,21.34-7.62,21.59-16.13,31.05-21.21,4.65-2.5,8.68-5.03,12.19-7.6-.27-2.32-.83-4.77-1.75-7.34-7.04-19.7-32.5-21.38-52.3-19.36ZM194.24,439.14c-5.04,1.8-31.97-4.13-48.71-51-2.26-6.32-5.28-15.95-5.29-15.95-2.46-6.89-9.08-11.01-14.64-16.08-1.3-1.18-2.13-2.85-2.99-4.49,1.29-3.52,4.41-6.85,7.99-8.13,18.69-6.68,25.42,50.92,58.88,48.4,15.61-1.18,38.48-6.55,44.21,9.48,6.69,18.73-20.44,30.97-39.45,37.76Z"/>
      <path class="cls-15" d="M189.48,391.89c-33.45,2.52-40.19-55.07-58.88-48.4-3.59,1.28-6.7,4.62-7.99,8.13.86,1.64,1.69,3.3,2.99,4.49,5.56,5.07,12.18,9.19,14.64,16.08,0,0,3.03,9.63,5.29,15.95,16.74,46.87,43.67,52.8,48.71,51,19.01-6.79,46.14-19.03,39.45-37.76-5.73-16.03-28.6-10.66-44.21-9.48ZM205.74,433.41c-11.56,4.13-30.15,3.97-35.2-10.15-1.26-3.53-1.88-7.27-1.64-11.24.18-3.06,1.48-6.19,3.71-8.27,3.17-2.95,6.96-5.08,11.1-6.56,15.19-5.43,40.57-4.09,45.3,9.14.96,2.68-4.31,20.31-23.27,27.08Z"/>
      <path class="cls-54" d="M183.71,397.19c-4.14,1.48-7.93,3.61-11.1,6.56-2.23,2.08-3.53,5.21-3.71,8.27-.23,3.97.38,7.71,1.64,11.24,5.04,14.12,23.64,14.28,35.2,10.15,18.96-6.77,24.23-24.4,23.27-27.08-4.73-13.23-30.11-14.57-45.3-9.14Z"/>
      <path class="cls-4" d="M46.79,331.78c-22.44-.31-33.91-19.23-41.3-39.91-1.74-4.87-3.25-9.84-4.63-14.68,1.08,7.36,3.13,15.04,5.9,22.82,7.29,20.42,21.82,36.7,47.94,36.44,4.88-.05,13.57,11.67,27.22,21.55-2.58-3.61-3.98-5.37-10.23-10.11-8.32-6.31-13.24-15.94-24.91-16.1Z"/>
      <path class="cls-10" d="M89.84,342.08c-8.42-23.57-34.36-36.64-51.94-45.18-8.75-14.82-17.48-35.5-29.35-31.26-7.01,2.5-2.17,20.69,1.57,31.16,13.09,36.66,35.57,25.99,47.63,30.64,12.92,4.98,23.23,32.39,34.27,28.45.87-.31-.18-8.2-2.18-13.81Z"/>
      <path class="cls-54" d="M98.48,345.37c-10.76-30.13-57.2-41.59-81.83-82.81-3.53-5.92-9.32-9.85-15.13-9.87-1.87,7.45-1.95,15.74-.67,24.49,1.38,4.85,2.89,9.81,4.63,14.68,7.39,20.68,18.86,39.6,41.3,39.91,11.66.16,16.58,9.79,24.91,16.1,6.26,4.74,7.65,6.5,10.23,10.11,4.75,3.44,10.1,6.65,16.1,9.06,3.19-6.3,3.03-14.47.45-21.69ZM57.75,327.44c-12.06-4.65-34.54,6.02-47.63-30.64-3.74-10.47-8.58-28.66-1.57-31.16,11.87-4.24,20.6,16.44,29.35,31.26,17.58,8.54,43.52,21.61,51.94,45.18,2.01,5.62,3.05,13.5,2.18,13.81-11.04,3.94-21.35-23.47-34.27-28.45Z"/>
      <path class="cls-5" d="M109.65,349.15c-21.45-60.05-68.09-43.54-86.51-95.12-3.17-8.89-4.18-18.34-2.09-27.85-1.1.99-2.17,2.03-3.18,3.12-1.49,1.01-2.88,2.08-4.17,3.21-.13,8.07,1.09,16.33,3.82,23.96,11.89,33.29,69.37,46.17,85.6,91.61,2.65,7.42,3.16,14.87,2.49,21.48,3.07.79,6.29,1.35,9.66,1.63-.92-4.45-1.91-11.67-5.61-22.03Z"/>
      <path class="cls-15" d="M17.51,256.47c-2.72-7.63-3.95-15.89-3.82-23.96-6.31,5.52-10.21,12.39-12.16,20.18,5.81.01,11.59,3.95,15.13,9.87,24.63,41.23,71.06,52.68,81.83,82.81,2.58,7.22,2.74,15.39-.45,21.69,2.42.97,4.94,1.82,7.57,2.5.66-6.61.15-14.06-2.49-21.48-16.23-45.44-73.71-58.31-85.6-91.61Z"/>
      <path class="cls-5" d="M363.33,349.45c15.89-8.74,29.12-17.11,29.32-17.25,5.84-4.07,7.6-10.04,6.78-16.15-8.32-11.8-32.49-6.69-47.34-1.39-9.98,3.56-19.75,8.12-29.73,11.69-24.19,8.64-45.89,5.66-66.92,13.17-55.85,19.95,5.86,50.51,73.02,26.52,10.37-3.7,23.32-10.25,34.88-16.6ZM312.01,357.38c-.61-1.71-.84-5.1,1-6.73.99-.87,1.82-1.9,2.93-2.3,3.66-12.88,14.84-21.03,27.91-25.7,8.13-2.91,37.69-10.09,41.26-.1,2.44,6.82-17.9,25.83-46.42,36.01-17.34,6.19-23.4,7.97-26.67-1.19Z"/>
      <path class="cls-82" d="M326.93,378.45c30.41-24.79,61.08-31.97,75.86-46.22.13-.12.25-.24.37-.36-.32.17-.67.35-1.03.54-15.57,8.3-69.45,41.2-88.64,48.06-22.77,8.13-53.26-2.32-79.58-3.69,2.41.59,4.94,1.2,7.58,1.8,7.48,1.72,15.75,3.46,24.06,4.9,19.55,3.38,39.37,5.14,49.99,1.35,4.05-1.45,7.88-3.52,11.39-6.38Z"/>
      <path class="cls-86" d="M402.14,332.41c.37-.19.71-.38,1.03-.54,4.07-4.03,6.88-8.64,8.07-14.36-11.79-11.04-32.33-16.95-53.97-9.22-9.39,3.35-18.48,8.26-28.02,11.66-18.1,6.46-48.47,5.16-74.91,14.6-20.35,7.27-33.64,20.64-40.67,36.79,3.67,1.11,11.02,3.17,20.25,5.43,26.32,1.37,56.81,11.82,79.58,3.69,19.19-6.85,73.07-39.75,88.64-48.06ZM255.43,339.53c21.03-7.51,42.74-4.53,66.92-13.17,9.98-3.56,19.75-8.12,29.73-11.69,14.85-5.3,39.02-10.41,47.34,1.39.82,6.11-.95,12.07-6.78,16.15-.19.13-13.43,8.51-29.32,17.25-11.55,6.35-24.51,12.9-34.88,16.6-67.16,23.99-128.87-6.58-73.02-26.52Z"/>
      <path class="cls-67" d="M254.34,334.56c26.44-9.44,56.81-8.14,74.91-14.6,9.54-3.41,18.63-8.31,28.02-11.66,21.64-7.73,42.18-1.82,53.97,9.22,1.05-5.04.84-10.94-.87-18.08-22.02-4.32-45.31-2.82-67.08,4.96-20.78,7.42-26.86,14.9-36.08,18.19-8.49,3.03-37.16-.43-66.64,10.1-22.21,7.93-35.3,22.14-41.31,31.5,3.68,2.69,7.75,4.89,12.2,6.46.41.14,1.16.38,2.2.7,7.04-16.15,20.32-29.52,40.67-36.79Z"/>
      <path class="cls-18" d="M307.22,322.58c9.22-3.29,15.3-10.77,36.08-18.19,21.78-7.78,45.06-9.28,67.08-4.96-.67-2.8-1.57-5.79-2.71-9-.69-1.94-1.47-3.84-2.31-5.71-4.96,2.78-10.14,5.16-15.48,7.07-31.05,11.09-42.49.71-56.07,5.56-11.82,4.22-20.37,15.88-32.85,20.33-14.58,5.21-36.52-2.64-60.15,5.8-10.49,3.75-33.17,21.76-45.15,37.8,1.16,1.02,2.36,1.99,3.61,2.9,6.01-9.36,19.1-23.57,41.31-31.5,29.48-10.53,58.15-7.07,66.64-10.1Z"/>
      <path class="cls-15" d="M385.1,322.55c-3.57-9.99-33.12-2.81-41.26.1-13.07,4.67-24.24,12.82-27.91,25.7-1.11.4-1.94,1.42-2.93,2.3-1.84,1.63-1.61,5.02-1,6.73,3.27,9.16,9.33,7.38,26.67,1.19,28.52-10.19,48.86-29.19,46.42-36.01Z"/>
      <path class="cls-18" d="M356.37,104.97c-5.12-14.34-10.44-16.27-13.11-23.74-.95-2.65-1.58-5.43-2.47-7.92-1.92-5.36-1.15-10.06,1.22-13.86-8.33-.44-16.67.77-24.86,3.23,10.47,6.2,18.52,12.78,20.05,17.06.82,2.29,1.43,4.74,2.22,6.95,3.48,9.75,10.86,5.89,15.43,18.69,4.26,11.94-.97,19.24-7.22,25.54,1.7,1.15,3.75,3.18,5.68,8.57,3.58,10.02.08,21.32-6.07,31.65-2.64,4.45-4.03,9.62-5.35,14.83,1.7,1.64,3.17,3.78,4.38,6.08.4-5.65,1.22-11.16,3.57-16.39,9.84-21.88,14.54-48.22,6.51-70.69Z"/>
      <path class="cls-10" d="M391.5,287.26c4.6-1.72,8.55-3.91,11.94-6.48,23.89-18.11,20.09-54.69,25.5-72.16,6.53-21.08,3.71-40.76-3.05-59.68-3.45-9.67-7.08-18.42-10.84-26.31,4.99,16.79,17.58,46.94,13.76,69.97-10.57,63.82-8.08,74.95-37.31,94.66Z"/>
      <path class="cls-67" d="M365.12,112.2c-2.86-8.01-8.41-12.8-11.87-22.49-4.2-11.77-1.22-20.71,9.74-25.43-4.95-2.09-9.94-3.48-14.95-4.23-2.01-.3-4.01-.5-6.02-.61-2.37,3.81-3.14,8.5-1.22,13.86.89,2.5,1.52,5.28,2.47,7.92,2.67,7.46,7.99,9.4,13.11,23.74,8.03,22.48,3.33,48.81-6.51,70.69-2.35,5.23-3.17,10.74-3.57,16.39.89,1.69,1.65,3.48,2.28,5.22,6.43,18-9.65,22.95-9.09,34.32,1.26,25.36-13.19,36.72-31.56,43.74,9.35,4,19.3,7.71,29.29,10.5-.5-27.49,25.23-56.2,18.39-102.85-2.03-13.82,18-47.04,9.52-70.78Z"/>
      <path class="cls-5" d="M370.63,146.38c-15.87,28.86-7.4,58.71-13.93,88.7-3.14,14.43-5.53,31.12-.86,44.22,1.64,4.58,3.94,8.3,6.74,11.29,5.92.46,11.69.38,17.18-.39-3.59-4.46-6.69-10.25-9.29-17.54-5.69-15.92-14.79-81.59-.24-101.14,14.71-19.77,13.42-42.9,6.09-63.41-4.38-12.26,1.97-22.08,11.8-26.04-3.92-4.03-7.9-7.45-11.95-10.33-26.37,12.16,8.06,49.9-5.56,74.65Z"/>
      <path class="cls-86" d="M355.85,279.29c-4.68-13.1-2.29-29.78.86-44.22,6.53-29.98-1.94-59.84,13.93-88.7,13.62-24.75-20.81-62.49,5.56-74.65-4.35-3.1-8.76-5.56-13.21-7.44-10.96,4.72-13.94,13.66-9.74,25.43,3.46,9.69,9.01,14.47,11.87,22.49,8.48,23.74-11.55,56.96-9.52,70.78,6.84,46.65-18.89,75.36-18.39,102.85,8.54,2.38,17.11,4.1,25.38,4.75-2.8-2.99-5.1-6.71-6.74-11.29Z"/>
      <path class="cls-15" d="M391.5,287.26c29.23-19.71,26.75-30.84,37.31-94.66,3.81-23.03-8.77-53.18-13.76-69.97-8.36-17.51-17.42-30.81-26.91-40.57-9.83,3.96-16.18,13.78-11.8,26.04,7.32,20.5,8.62,43.64-6.09,63.41-14.55,19.55-5.45,85.21.24,101.14,2.6,7.29,5.71,13.08,9.29,17.54,3.82-.54,7.51-1.41,11.02-2.66.24-.09.47-.18.71-.27ZM373.06,257.38c-15.66-43.86,4.61-70.91,15.41-109.19,4.16-14.72-7.23-27.53,9.19-33.4.83-.29,1.52-.53,2.1-.7,6.98,7.88,11.79,16.48,15.04,25.56,11.97,33.51,6.48,125.02-19,134.13-7.58,2.71-17.17-.83-22.73-16.4Z"/>
      <path class="cls-54" d="M388.48,148.19c-10.8,38.28-31.08,65.33-15.41,109.19,5.56,15.57,15.15,19.11,22.73,16.4,25.48-9.1,30.97-100.62,19-134.13-3.24-9.08-8.06-17.68-15.04-25.56-.58.17-1.27.4-2.1.7-16.42,5.87-5.03,18.68-9.19,33.4ZM412.71,185.87c8.85,24.77,2.16,69.04-15.42,75.32-8.51,3.04-13.44-1.76-20.01-20.15-7.48-20.93-7.19-45.55,8.95-61.5-.74-5.06-.74-13.01,4.46-14.87,9.46-3.38,19.23,13.38,22.03,21.19Z"/>
      <path class="cls-10" d="M386.23,179.55c-16.13,15.95-16.42,40.57-8.95,61.5,6.57,18.39,11.5,23.19,20.01,20.15,17.59-6.28,24.27-50.56,15.42-75.32-2.79-7.81-12.56-24.57-22.03-21.19-5.2,1.86-5.2,9.81-4.46,14.87Z"/>
      <path class="cls-86" d="M185.66,28.16c37.61-13.43,56.01,15.97,87.68,4.66,4.78-1.71,16.19-7.88,14.39-12.92-3.53-9.88-18.79-11.58-27.72-11.42-70.63,1.32-66.59-5.82-83.71.29-10.13,3.62-18.72,10.96-22.61,21.28,4,9.24,8.64,6.79,16.22,4.08,5.24-1.87,10.49-4.08,15.76-5.97ZM184.78,24.96c-5.02,1.79-9.71,4.79-14.69,6.57-3.3,1.18-10.16,2.93-11.45-.68-1.01-2.83,5.1-15.73,16.91-19.95,11.63-4.15,24.68-2.38,34.46,4.74-.29,2.92-2.71,4.69-5.33,5.63-4.71,1.68-12.89,1.19-19.9,3.69Z"/>
      <path class="cls-5" d="M204.68,21.27c2.62-.94,5.03-2.71,5.33-5.63-9.78-7.11-22.83-8.89-34.46-4.74-11.81,4.22-17.92,17.11-16.91,19.95,1.29,3.61,8.15,1.85,11.45.68,4.99-1.78,9.67-4.77,14.69-6.57,7.02-2.51,15.19-2.01,19.9-3.69Z"/>
      <path class="cls-54" d="M230.93,5.25c6.96.88,14.05-3.72,21.16-2.56,11.11,1.81,25.65,7.28,38.15,7.22-5.54-1.46-11.17-2.53-16.72-3.21-6.97-.84-13.94-8.67-22.22-6.23-24.23,7.17-50.17-3.03-68.22,3.41-4.34,1.55-8.44,3.45-12.26,5.65.59-.23,1.18-.45,1.77-.66,18.08-6.46,38.72-6.11,58.35-3.63Z"/>
      <path class="cls-18" d="M170.99,39.95c44.8-16,68.09,7.68,83.35,4.01,57.14-13.76,52.72,9.77,83.39-1.18.9-.32,1.76-.65,2.6-.99-4.2-6.26-9.7-11.69-16.07-16.31-2.26,3.62-5.55,6.49-9.82,8.01-6.84,2.44-13.2.35-19.72,1.05-15.99,1.71-30.93,8.9-46.31,4.46-25.93-7.48-49.2-13.82-73.27-5.23-9.69,3.46-13.98,7.11-16.78,8.11-5.26,1.88-10.49-.53-14.37-4.7-2.22,4.21-3.98,8.65-5.26,13.27,4.03.56,8.14.23,12.08-1.17,4.7-1.68,8.46-5.14,20.19-9.32Z"/>
      <path class="cls-67" d="M324.25,25.48c-9.84-7.14-21.72-12.33-34.01-15.57-12.5.07-27.04-5.41-38.15-7.22-7.11-1.16-14.2,3.44-21.16,2.56-19.63-2.48-40.27-2.83-58.35,3.63-.59.21-1.18.43-1.77.66-8.41,4.85-15.53,11.18-21.08,18.55-2.16,2.88-4.09,5.92-5.76,9.09,3.89,4.17,9.11,6.58,14.37,4.7,2.79-1,7.09-4.65,16.78-8.11,24.07-8.6,47.34-2.26,73.27,5.23,15.38,4.44,30.32-2.75,46.31-4.46,6.53-.7,12.88,1.39,19.72-1.05,4.27-1.53,7.56-4.39,9.82-8.01ZM185.66,28.16c-5.27,1.88-10.52,4.09-15.76,5.97-7.58,2.71-12.22,5.16-16.22-4.08,3.89-10.32,12.49-17.66,22.61-21.28,17.12-6.11,13.08,1.02,83.71-.29,8.94-.17,24.2,1.54,27.72,11.42,1.8,5.04-9.61,11.22-14.39,12.92-31.67,11.31-50.07-18.09-87.68-4.66Z"/>
      <path class="cls-66" d="M227.29,49.87c-2.15-2.95-45.19-9.6-57.3-5.28-14.85,5.3-19.51,24.68-32.96,34.04.27,1.84.61,3.68,1.03,5.53,3.21-2.05,6.05-3.03,6.74-4,8.76-12.27,13.59-29.31,25.95-33.72,12.97-4.63,31.92,7.57,52.58,4.01,1.7-.29,4.72,1.56,5.26,3.05,0,0,.31,1.01.7,2.11,1.67,4.69,3.8,8.68,6.2,12.21,2.79-3.06,5.81-6.04,9-8.77-6.47-.25-12.57-2.81-17.2-9.18Z"/>
      <path class="cls-54" d="M60.28,79.11c6.05-11.47.2-34.38,21.42-53.68-24.87,14.45-21.12,43.56-24.19,57.59-.41,1.85-51.52,37.44-36.12,80.58.13.38.27.74.4,1.09-.42-5.29-.85-10.62-1.23-16-2.15-30.1,26.77-45.03,39.71-69.58Z"/>
      <path class="cls-51" d="M121.23,109.82c-9.18,4.61-9.41,15.18-14.21,23.19-1.33,2.22-3.47,3.46-5.69,4.6,3.34.75,6.73,2.33,10.07,4.48-2.61-16.37,5.35-28.41,12.1-30.82,1.28-.46,2.62-.67,4-.66-.87-7.52.18-13.03,2.12-17.14-5.12,7.29-8.39,16.34-8.39,16.34Z"/>
      <path class="cls-15" d="M112.09,39.88c-1.99-5.56-5.24-8.28-11-6.22-10.6,3.79-31.51,32.16-24.93,56.05,4.7.9,9.6.3,14.27-1.36,20.73-7.4,28.8-28.48,21.66-48.47Z"/>
      <path class="cls-67" d="M81.87,208.16c-3.25-9.09-14.29-25.62-19.33-39.74-15.22-42.62,29.41-46.41,46.13-71.6,12.88-19.41,27.22-42.16,18.95-65.34-3.24-9.07-6.91-11.45-11.28-12.91-9.01-.78-17.91,0-26.01,2.9-3.21,1.15-6.07,2.48-8.63,3.97-21.22,19.3-15.37,42.21-21.42,53.68-12.95,24.56-41.86,39.49-39.71,69.58.38,5.37.81,10.7,1.23,16,4,10.53,7.96,11.36,11.47,21.18,1.38,3.85,2.26,7.9,3.11,12.01,1.01,4.86,1.98,9.79,3.68,14.56.32.9.67,1.76,1.04,2.6,6.61,15.02,20.72,20.54,34.61,19.65,6.54-7.34,9.75-16.5,6.17-26.53ZM47.01,217.67c-.14-.39-18.26-62.32-19.53-70.61-5.57-36.24,23.94-25.16,36.89-73.99,1.02-3.83,2.69-7.1,4.57-10.18,2.56-13.16,8.25-32.54,27.14-39.29,14.46-5.17,23.85.26,27.76,11.2,4,11.19-.28,44.9-26.62,66.11-21.36,17.2-52.92,26.1-34.97,76.35,4.43,12.41,9.37,14.7,13.46,26.15,5.18,14.5-1.02,25.03-10.25,28.32-3.85,1.38-14.81-3.84-18.45-14.05Z"/>
      <path class="cls-86" d="M75.71,203.4c-4.09-11.44-9.03-13.74-13.46-26.15-17.94-50.24,13.61-59.15,34.97-76.35,26.35-21.21,30.62-54.91,26.62-66.11-3.91-10.94-13.3-16.36-27.76-11.2-18.9,6.75-24.59,26.13-27.14,39.29-1.88,3.08-3.55,6.35-4.57,10.18-12.95,48.83-42.46,37.75-36.89,73.99,1.27,8.29,19.39,70.22,19.53,70.61,3.65,10.21,14.6,15.42,18.45,14.05,9.22-3.29,15.43-13.82,10.25-28.32ZM49.35,124.01c-3.49-9.77,24.71-56.65,30.67-73.61,5-14.24,12.35-20.59,18.2-22.68,9.35-3.34,15.19,3.06,18.51,12.37,12.87,36.04-38.79,76.17-54.39,81.74-4.1,1.46-8.35,2.48-12.59,3.05-.15-.28-.29-.57-.4-.88ZM43.88,196.07c-4.84-13.56-6.08-28.09,2.13-39.65,11.36,4.48,10.56,28.33,25.75,48.14.76.99,1.35,2.09,1.76,3.26,2.36,6.6-.87,14.6-6.68,16.67-10.94,3.91-21.43-24.15-22.96-28.43Z"/>
      <path class="cls-5" d="M73.52,207.82c-.42-1.17-1-2.27-1.76-3.26-15.19-19.81-14.39-43.66-25.75-48.14-8.21,11.56-6.97,26.09-2.13,39.65,1.53,4.28,12.02,32.33,22.96,28.43,5.81-2.08,9.04-10.08,6.68-16.67Z"/>
      <path class="cls-5" d="M116.73,40.09c-3.33-9.31-9.16-15.71-18.51-12.37-5.84,2.09-13.19,8.44-18.2,22.68-5.96,16.96-34.16,63.84-30.67,73.61.11.3.25.59.4.88,4.24-.58,8.5-1.59,12.59-3.05,15.6-5.57,67.26-45.69,54.39-81.74ZM101.09,33.66c5.76-2.06,9.02.66,11,6.22,7.14,19.99-.93,41.07-21.66,48.47-4.67,1.67-9.56,2.26-14.27,1.36-6.59-23.89,14.32-52.27,24.93-56.05Z"/>
      <path class="cls-52" d="M108.91,259.21c50.18-9.02,97.48,26.06,111.91,61.43,4.13-3.94,7.88-8.37,11.33-13.05-16.49-7.58-31.54-18.99-43.98-33.57-46.19-54.13-100.65-2.75-160.42-44.02.36,6.71,1.74,13.55,3.89,20.19,1.3-.72,2.67-1.34,4.1-1.86,27.27-9.74,49.17,15.18,73.17,10.86Z"/>
      <path class="cls-41" d="M220.82,320.64c-14.43-35.37-61.73-70.45-111.91-61.43-24,4.31-45.9-20.6-73.17-10.86-1.43.51-2.8,1.13-4.1,1.86.29.89.58,1.77.9,2.65,2.53,7.08,5.22,13,8.01,17.98,19.17,21.02,36.04,24.44,45.84,27.94,0,0,9.92,14.5,65.28,31.66,4.27,1.32,8.59,2.78,12.94,4.19,4.91.8,9.69,1.35,14.19,1.58,8.19.42,15.5-.21,21.12-2.22,7.93-2.83,14.81-7.55,20.88-13.34ZM200.86,325.81c-39.64,14.16-81.51-12.86-116.11-34.45-.42-.26-28.73-8.92-36.27-30.02-.97-2.71-1.47-5.53-1.4-8.45,1.12-.84,2.37-1.54,3.73-2.02,5.6-2,12.39-.67,17.79,2.29,51.19,28.04,49.88,4.5,83.96,13.99,18.29,5.1,47.99,22.36,54.6,40.87,5.31,14.87-1.53,16.1-6.3,17.8Z"/>
      <path class="cls-10" d="M86.4,298.77c-9.81-3.5-26.68-6.92-45.84-27.94,17.27,30.71,38.86,25.63,55.02,37.77,4.12,3.1,9.63,6.29,16.01,9.34,15.05,7.22,34.95,13.71,53.04,16.67-4.35-1.41-8.68-2.87-12.94-4.19-55.36-17.15-65.28-31.66-65.28-31.66Z"/>
      <path class="cls-8" d="M207.16,308.01c-6.61-18.5-36.3-35.77-54.6-40.87-34.08-9.49-32.77,14.05-83.96-13.99-5.4-2.96-12.19-4.29-17.79-2.29-1.36.49-2.62,1.18-3.73,2.02-.08,2.92.43,5.74,1.4,8.45,7.54,21.1,35.84,29.76,36.27,30.02,34.6,21.59,76.47,48.61,116.11,34.45,4.76-1.7,11.61-2.93,6.3-17.8ZM107.98,294.37c-3.48-9.73.35-17.14,8.94-20.21.93-.33,1.9-.6,2.88-.81,39.38-8.41,78.4,26.73,80.78,33.37,3.66,10.25-3.21,16.05-12.67,19.42-22.97,8.2-71.98-9.54-79.92-31.77Z"/>
      <path class="cls-46" d="M195.16,310.97c-6-16.79-27.82-23.9-46.69-25.58-.79.2-1.57.44-2.34.71-9.42,3.36-16.14,11.43-12.66,21.17,4.43,12.41,34.97,24.19,53.95,17.41,6.8-2.43,8.86-10.57,7.74-13.72Z"/>
      <path class="cls-73" d="M200.57,306.72c-2.37-6.64-41.4-41.78-80.78-33.37-.98.21-1.95.48-2.88.81-8.59,3.07-12.41,10.47-8.94,20.21,7.94,22.24,56.96,39.98,79.92,31.77,9.46-3.38,16.33-9.18,12.67-19.42ZM133.48,307.27c-3.48-9.74,3.24-17.81,12.66-21.17.77-.28,1.55-.51,2.34-.71,18.86,1.67,40.69,8.79,46.69,25.58,1.12,3.14-.94,11.29-7.74,13.72-18.98,6.78-49.51-5-53.95-17.41Z"/>
      <path class="cls-3" d="M281.09,68.14c21.85,14.79,27.45,54.5,62.16,42.11,3.44-1.23,7.58-3.58,10.88-6.71-4.59-10.57-11.4-7.6-14.7-16.84-.79-2.21-1.4-4.66-2.22-6.95-.8-2.24-3.39-5.12-7.18-8.24-.05-.04-.1-.08-.15-.12-16.11-11.61-47.08-27-71.19-21.94-3.55,1.74-7.01,3.96-10.33,6.48,5.63,8.3,17.73,2.06,32.73,12.22ZM337.23,88.29c2.76,5.27,7.48,10.51,8.15,12.4,1.39,3.88-2.78,6.52-6.66,7.91-30.24,10.8-30.68-34.41-66.13-46.18-5.58-1.85-14.04-.82-16.35-7.28,28.01-7.47,67.09,6.59,80.98,33.14Z"/>
      <path class="cls-48" d="M329.88,71.39c.05.04.1.08.15.12-3.45-2.84-7.88-5.88-12.87-8.83-17.45-10.33-41.64-19.57-53.62-15.3-1.63.58-3.25,1.28-4.85,2.06,24.11-5.06,55.08,10.33,71.19,21.94Z"/>
      <path class="cls-62" d="M299.86,96.01c9.26,19.22,31.93,20.8,49.77,14.43,2.09-.75,4.04-1.55,5.92-2.87-.19-.71-.42-1.44-.69-2.19-.24-.66-.48-1.27-.73-1.85-3.3,3.13-7.44,5.48-10.88,6.71-34.71,12.4-40.31-27.32-62.16-42.11-15-10.15-27.11-3.92-32.73-12.22-2.71,2.06-5.33,4.32-7.82,6.71,11.52,5.46,37.35-12.22,59.32,33.38Z"/>
      <path class="cls-43" d="M247.13,69.17s.28-.1.47-.17c38.83-13.87,48.01,30.23,65.21,45.79,13.45,3.83,20.42-5.78,33.61,5.84,2.02,1.78,4.31,2.94,6.75,3.64,2.84-4.47,4.27-9.76,2.38-16.68-1.88,1.32-3.83,2.12-5.92,2.87-17.84,6.37-40.51,4.78-49.77-14.43-21.98-45.6-47.8-27.91-59.32-33.38-.8.76-1.58,1.54-2.35,2.32,2.22,3.26,5.04,5.6,8.94,4.21Z"/>
      <path class="cls-26" d="M344.61,128.77c.68.92,1.76,1.3,3.03,2.16,2.05-2.07,4-4.25,5.53-6.67-2.44-.69-4.73-1.86-6.75-3.64-13.19-11.62-20.15-2.01-33.61-5.84-17.2-15.56-26.38-59.66-65.21-45.79-.19.07-.45.16-.47.17-3.9,1.39-6.72-.95-8.94-4.21-.92.94-1.82,1.89-2.7,2.86,2.54,3.73,5.39,6.93,8.34,9.84,3.53-3.19,7.66-5.99,12-7.54,18.39-6.57,21.62,11.73,28.56,16.01,10.83,6.69,18.37,15.61,21.86,25.38,1.83,5.13,2.5,10.66,1.98,16.15,3.87-2.94,7.67-6.04,11.73-8.46,1.97-1.18,3.99-2.19,6.11-2.95,13.12-4.69,12.4,4.17,18.54,12.52Z"/>
      <path class="cls-55" d="M272.59,62.43c35.45,11.76,35.89,56.98,66.13,46.18,3.89-1.39,8.05-4.03,6.66-7.91-.68-1.89-5.39-7.13-8.15-12.4-13.89-26.55-52.97-40.61-80.98-33.14,2.31,6.47,10.76,5.43,16.35,7.28ZM335.53,92.44c2.42,6.77,3.54,12.73-3.11,15.1-16.98,6.06-19.48-18.19-45.54-38.34-1.21-.94-2.13-2.21-2.62-3.57-.88-2.46-.33-5.18,2.52-6.6,19.9,3.52,41.76,13.85,48.74,33.41Z"/>
      <path class="cls-45" d="M335.53,92.44c-6.99-19.56-28.84-29.89-48.74-33.41-2.85,1.42-3.4,4.14-2.52,6.6.48,1.36,1.4,2.63,2.62,3.57,26.06,20.15,28.56,44.4,45.54,38.34,6.65-2.37,5.53-8.33,3.11-15.1ZM306.21,79.62c-1.54-4.31.9-6.8,3.28-7.65,1.56-.56,3.35-.5,5.16-.08,7.58,4.91,14.15,12.16,17.19,20.67,1.7,4.77,2.96,9.6-.91,10.98-11.11,3.97-20.52-12.15-24.72-23.91Z"/>
      <path class="cls-41" d="M306.21,79.62c4.2,11.76,13.61,27.88,24.72,23.91,3.86-1.38,2.61-6.21.91-10.98-3.04-8.5-9.61-15.76-17.19-20.67-1.8-.41-3.6-.47-5.16.08-2.38.85-4.82,3.34-3.28,7.65Z"/>
      <path class="cls-2" d="M202.22,96.31c19.11,1.98,39.46,19.19,57.63,12.71,2.52-.9,5.63-2.47,8.48-4.84-4.13-9.18-11.85-15.09-19.63-22-9.4-6.94-17.27-17.29-23.52-26.91-3.21-4.95-19.56-2.16-29.23-5.83-7.65-2.91-15.73-2.55-22.82-.02-9.46,3.38-14.72,9.44-19.57,15.93-2.77,5-5.49,10.25-8.76,14.83-.69.97-3.53,1.95-6.74,4-2.65,1.69-5.55,4.11-7.68,7.86,13.75,29.27,42.04,1.2,71.84,4.29ZM142.51,96.79c-1.67-4.68,1.72-8.99,5.02-13.03,5.36-12.27,15.34-21.48,27.37-25.78,38.38-13.71,46.15,11.93,71.81,29.94,3.39,2.38,8.42,7.12,9.94,11.39,1.43,3.99-.55,6.22-4.44,7.61-20.32,7.26-24.34-28.28-65.63-13.54-3.29,1.17-6.59,2.46-9.92,3.65-9.06,3.23-30.95,8.71-34.15-.25Z"/>
      <path class="cls-30" d="M256.65,99.31c-1.53-4.27-6.56-9.02-9.94-11.39-25.66-18.02-33.42-43.65-71.81-29.94-12.03,4.3-22.01,13.51-27.37,25.78-3.3,4.04-6.69,8.35-5.02,13.03,3.2,8.96,25.09,3.48,34.15.25,3.33-1.19,6.63-2.47,9.92-3.65,41.29-14.75,45.31,20.79,65.63,13.54,3.89-1.39,5.87-3.62,4.44-7.61ZM195.7,87.39c-7.43-.9-41.6,14.98-45.27,4.7-.78-2.19,10.44-23.29,30.17-30.34,5.82-2.08,11.96-2.75,18.07-1.47,1.22-.13,2.44-.2,3.65-.2,9.76,3.67,19.23,10.13,22.7,19.87,1.51,4.24,1.83,5.09-4.03,7.18-8.29,2.96-16.69,1.3-25.3.26Z"/>
      <path class="cls-6" d="M195.95,49.42c9.66,3.68,26.01.89,29.23,5.83,6.25,9.62,14.11,19.98,23.52,26.91-1.63-1.45-3.26-2.94-4.86-4.52-2.95-2.91-5.8-6.11-8.34-9.84-2.4-3.52-4.53-7.52-6.2-12.21-.39-1.1-.7-2.11-.7-2.11-.53-1.49-3.55-3.34-5.26-3.05-20.66,3.56-39.61-8.64-52.58-4.01-7.74,2.77-12.53,10.49-17.18,18.89,4.85-6.49,10.11-12.55,19.57-15.93,7.09-2.53,15.17-2.89,22.82.02Z"/>
      <path class="cls-84" d="M225.03,79.96c-3.48-9.74-12.95-16.21-22.7-19.87-1.21,0-2.43.08-3.65.2-6.11-1.28-12.25-.61-18.07,1.47-19.73,7.05-30.95,28.15-30.17,30.34,3.67,10.28,37.84-5.6,45.27-4.7,8.61,1.04,17.01,2.7,25.3-.26,5.86-2.09,5.54-2.94,4.03-7.18Z"/>
      <path class="cls-81" d="M158,111.28s1.39-.52,2.44-.89c57.35-20.48,82.97,9.28,101.19,2.77,3.03-1.08,5.84-2.8,8.19-5-.16-.52-.33-1.05-.51-1.56-.3-.83-.62-1.64-.98-2.42-2.85,2.37-5.96,3.94-8.48,4.84-18.16,6.49-38.52-10.72-57.63-12.71-29.8-3.09-58.1,24.98-71.84-4.29-1.53,2.69-2.67,6.07-3.05,10.35,8.11,7.46,19.33,12.95,30.67,8.91Z"/>
      <path class="cls-36" d="M204.72,115c27.25-8.65,46.11,7.52,64.36,17.72.81-2.24,1.41-4.55,1.81-6.9-20.8-6.5-48.61-27.11-115.71-10.66-10.07,2.47-19.3-2.6-27.97-8.55.04,1.27.13,2.6.29,4,5.74.01,12.17,3.79,18.38,9.27,14.72,3.09,28.45-4.49,43.91-7.06,5.47-.91,10.06,3.71,14.94,2.16Z"/>
      <path class="cls-37" d="M155.18,115.16c67.1-16.45,94.91,4.16,115.71,10.66,1-5.85.69-11.91-1.08-17.66-2.34,2.2-5.16,3.92-8.19,5-18.22,6.51-43.84-23.26-101.19-2.77-1.05.38-2.4.88-2.44.89-11.33,4.05-22.56-1.45-30.67-8.91-.12,1.33-.16,2.74-.12,4.25,8.67,5.94,17.91,11.01,27.97,8.55Z"/>
      <path class="cls-43" d="M183.39,233.91c2.23,6.24,3.69,12.84,4.51,19.61,2.68,1.95,5.13,3.92,7.38,5.88-.1-.26-.19-.52-.29-.79-2.57-7.2-4.6-14.72-7-21.45-19.54-54.72-63.33-44.04-76.56-81.1-1.76-4.94-2.7-10.2-2.79-15.6-1.34-.72-2.68-1.35-4.02-1.85.24,4.54,1.17,8.9,2.66,13.07,15.82,44.29,60.36,38.11,76.11,82.22Z"/>
      <path class="cls-26" d="M187.99,237.17c2.4,6.73,4.43,14.25,7,21.45.09.26.19.53.29.79,1.45,1.26,2.82,2.53,4.12,3.78-.95-3.77-2.1-7.51-3.43-11.23-.41-1.14-.82-2.26-1.24-3.35-7.55-19.79-16.25-31.13-23.03-42.56-1.34-1.64-2.63-3.29-3.93-4.86-8.63-10.49-16.55-9-33.65-21.83-2.24-1.68-3.97-3.63-5.48-5.71-6.29-6.26-11.81-14.05-15.14-23.38-1.01-2.83-1.69-5.56-2.11-8.19-.92-.59-1.83-1.13-2.75-1.63.09,5.4,1.02,10.66,2.79,15.6,13.24,37.06,57.02,26.38,76.56,81.1Z"/>
      <path class="cls-79" d="M81.13,174.3c-1.43-3.99-2.39-8.09-3.24-12.22.33,5.38,1.67,10.46,2.91,13.93,5.48,15.36,18.67,27.66,34.04,37.31,9.62,6.04,20.09,11.03,30.06,15.09-15.64-9.38-30.06-13.26-37.93-23.99-8.52-11.63-19.29-11.76-25.85-30.12Z"/>
      <path class="cls-47" d="M167.78,201.21c1.29,1.57,2.58,3.22,3.93,4.86-2.49-4.2-4.71-8.4-6.53-13.05-7.29-.04-23.56-6.45-36.53-19.35,1.51,2.08,3.25,4.03,5.48,5.71,17.11,12.83,25.02,11.34,33.65,21.83Z"/>
      <path class="cls-62" d="M183.39,233.91c-15.75-44.11-60.29-37.93-76.11-82.22-1.49-4.17-2.42-8.53-2.66-13.07-4.42-1.67-8.82-2.04-13.02-.54-2.43.87-4.46,2-6.15,3.33,22.72-.37,19.59,29.58,40.17,41.06,21.05,11.75,44.5,29.82,52.56,52.39,1.48,4.14,2.45,9,2.74,13.99,2.5,1.55,4.81,3.11,6.98,4.68-.82-6.77-2.28-13.38-4.51-19.61Z"/>
      <path class="cls-3" d="M125.63,182.46c-20.58-11.48-17.45-41.43-40.17-41.06-6.51,5.11-8.02,13.18-7.57,20.67.85,4.14,1.82,8.23,3.24,12.22,6.56,18.36,17.33,18.49,25.85,30.12,7.86,10.72,22.28,14.61,37.93,23.99,4.02,1.64,7.97,3.12,11.74,4.46,4.74,1.68,7.08,6.98,11.62,9.13,4.69,2.22,8.88,4.52,12.66,6.86-.29-4.99-1.26-9.85-2.74-13.99-8.06-22.57-31.51-40.64-52.56-52.39ZM129.34,215.83c-9.91-4.69-42.47-34.18-46.36-45.06-4.65-13.02,1.6-20.56,5.73-22.04,7.84-2.8,11.16,8.16,26.44,28.59,1.24,1.21,2.62,2.32,4.22,3.28.46.28,44.12,22.96,53.64,49.63,1.23,3.45.42,6.56-1.14,7.12,0,0-21.21-11.41-42.53-21.51Z"/>
      <path class="cls-1" d="M122,191.92c-1.33-3.72-4.21-7.73-5.98-10.39-.71-1.07-1.7-1.9-2.73-2.72-6.47-7.98-13.71-21.18-21.05-18.56-2.51.9-8.6,5.72-5.79,13.57,3.9,10.93,27.94,28.29,32.69,26.6,3.8-1.36,4.22-4.72,2.87-8.5Z"/>
      <path class="cls-55" d="M173.01,230.22c-9.53-26.67-53.18-49.35-53.64-49.63-1.6-.96-2.98-2.07-4.22-3.28-15.28-20.43-18.6-31.39-26.44-28.59-4.13,1.47-10.38,9.02-5.73,22.04,3.89,10.89,36.45,40.37,46.36,45.06,21.32,10.1,42.53,21.51,42.53,21.51,1.56-.56,2.37-3.67,1.14-7.12ZM86.44,173.82c-2.8-7.85,3.28-12.67,5.79-13.57,7.34-2.62,14.57,10.58,21.05,18.56,1.03.82,2.02,1.65,2.73,2.72,1.77,2.66,4.65,6.67,5.98,10.39,1.35,3.78.93,7.15-2.87,8.5-4.75,1.7-28.79-15.67-32.69-26.6Z"/>
      <path class="cls-74" d="M157.39,166.42c.71,1.97,1.59,3.69,2.59,5.15-1.29-9.19-1.71-19.48-.27-28.66-4.06,6.82-5.02,15.95-2.32,23.51Z"/>
      <path class="cls-27" d="M144.59,158.82c2.12,5.93,7.96,12.73,14.52,18.53.67.36,1.34.7,2,1.01,0,0,0-.01,0-.02-1.33-1.84-2.48-4.05-3.42-6.7-3.25-9.09-6.99-24.38,2.36-30.67.23-1.19.49-2.36.78-3.51-3.2-1.4-6.78-1.59-9.89-.48-8.49,3.03-9.4,13.31-6.35,21.84Z"/>
      <path class="cls-36" d="M144.59,158.82c-3.05-8.53-2.14-18.8,6.35-21.84,3.12-1.11,6.7-.92,9.89.48.06-.25.13-.5.19-.74-.44-.59-.89-1.17-1.34-1.76-9.36-4.7-17.95-13.6-23.63-11.57-2.86,1.02-6.83,9.81-2.94,20.7,4.23,11.84,11.38,21.08,20.76,30.1,1.74,1.17,3.49,2.23,5.22,3.15-6.56-5.81-12.4-12.6-14.52-18.53Z"/>
      <path class="cls-37" d="M136.06,123.4c5.68-2.03,14.27,6.87,23.63,11.57-1.34-1.74-2.75-3.48-4.2-5.18-9.35-8.62-18.15-19.18-27.28-15.92-3.36,1.2-4.88,4.8-5.45,8.7-.16,6.96,2.04,14.64,4.41,21.27,3.27,9.16,14.88,22.4,26.72,30.36-9.37-9.02-16.53-18.26-20.76-30.1-3.89-10.89.08-19.68,2.94-20.7Z"/>
      <path class="cls-69" d="M157.68,171.65c.94,2.64,2.09,4.85,3.42,6.7-.42-2.16-.81-4.43-1.13-6.77-1-1.47-1.88-3.18-2.59-5.15-2.7-7.56-1.74-16.69,2.32-23.51.1-.65.22-1.3.34-1.94-9.36,6.29-5.61,21.58-2.36,30.67Z"/>
      <path class="cls-81" d="M128.21,113.87c9.14-3.26,17.93,7.3,27.28,15.92-8.77-10.28-19.2-19.15-27.99-19.17-.34,0-.68.01-1.02.04-2.57,3.38-3.62,7.5-3.72,11.92.57-3.9,2.09-7.5,5.45-8.7Z"/>
      <path class="cls-2" d="M299.84,99.85c-3.91-3.34-8.16-7.89-16.99-13.21-5.55-6.94-12.66-20.04-25.92-15.3-3.35,1.2-7.44,4.53-11.91,7.47.47.45.94.89,1.41,1.33,3.23-2.29,6.84-4.53,10.42-5.81,5.3-1.89,10.51-1.67,14.28,3.67,8.96,12.69,22.55,14.34,33.7,30.08-1.32-2.84-2.99-5.6-5-8.22Z"/>
      <path class="cls-84" d="M282.84,86.64c8.83,5.33,13.09,9.88,16.99,13.21-3.93-5.15-9.13-9.82-15.45-13.72-6.95-4.29-10.17-22.58-28.56-16.01-4.33,1.55-8.47,4.35-12,7.54.39.39.79.77,1.19,1.15,4.47-2.93,8.56-6.27,11.91-7.47,13.26-4.74,20.36,8.37,25.92,15.3Z"/>
      <path class="cls-81" d="M272.67,89.47c9.38,11.83,26.16,9.13,32.87,27.89,1.93,5.4,2.25,11.3,1.39,17.17.64-2.26,1.08-4.57,1.3-6.87.52-5.49-.15-11.02-1.98-16.15-.41-1.16-.89-2.3-1.41-3.43-11.16-15.74-24.74-17.39-33.7-30.08-3.77-5.34-8.99-5.56-14.28-3.67-3.58,1.28-7.19,3.52-10.42,5.81,1.57,1.45,3.15,2.84,4.71,4.2,7.91-2.07,16.26-1.51,21.53,5.15Z"/>
      <path class="cls-37" d="M286.62,119.22c6.38,17.86.66,26.63,3.28,33.97.37,1.05.87,2.05,1.46,3,8.08-5.68,13.24-13.41,15.58-21.66.86-5.87.54-11.77-1.39-17.17-6.7-18.76-23.49-16.06-32.87-27.89-5.28-6.66-13.62-7.21-21.53-5.15.87.76,1.73,1.51,2.58,2.26,15.66,5.85,27.51,17.57,32.89,32.63Z"/>
      <path class="cls-27" d="M287.46,158.64c-6-2.23-11.16-5.45-12.98-10.54-2.2-6.16,3.55-22.26-2.02-37.85-1.32-3.69-3.24-6.96-5.96-9.54,1.09,1.82,2.03,3.77,2.79,5.89,1.41,3.94,2.1,8.05,2.15,12.15,2.37,14.49-4.17,29.63-2.19,35.16,1.26,3.53,4.46,6.57,8.58,8.85.7-.24,1.42-.48,2.18-.75,2.68-.96,5.16-2.09,7.45-3.37Z"/>
      <path class="cls-36" d="M274.48,148.1c1.82,5.1,6.98,8.31,12.98,10.54,1.37-.76,2.67-1.58,3.9-2.45-.59-.95-1.08-1.95-1.46-3-2.62-7.34,3.1-16.11-3.28-33.97-5.38-15.06-17.23-26.78-32.89-32.63,4.93,4.34,9.52,8.66,12.78,14.12,2.72,2.59,4.64,5.86,5.96,9.54,5.57,15.59-.19,31.68,2.02,37.85Z"/>
      <path class="cls-61" d="M337.43,176.32c3.75-10.13,17-21.55,13.07-32.55-1.33-3.73-4.69-4.43-8.36-3.69-3.63-.92-7.73-.38-11.7,1.04-32.02,11.44-16.17,44.39-21.05,63.96-.18.74-.08,1.66.16,2.3.57,1.59,5.59,2.54,9.8,1.03,11.73-4.19,14.55-22.52,18.1-32.1ZM319.11,183.47c-6.14-17.19-4.25-31.9,13.03-38.07,5.53-1.97,11.54-2.9,13.76,3.31.13.37.41.27.69.17s.55-.2.69.17c3.81,10.68-6.55,11.74-12.19,21.85-2.95,5.29-3.99,13.62-9.99,15.77-4.25,1.52-4.87-.09-5.98-3.2Z"/>
      <path class="cls-2" d="M309.63,226.83c2.4-5.55,5.18-10.86,9.67-14.64,1.75-.3,3.5-.6,5.18-1.21,13-4.64,12.3-27.38,20.07-39.31,4.82-7.4,8.21-18.6,10.09-26.05-.19-2.08-.61-4.13-1.33-6.12-1.93-5.39-3.98-7.42-5.68-8.57-.07-.05-.14-.09-.21-.13-4.58.28-9.13,1.22-13.46,2.77-41.14,14.69-26.14,51.86-28.97,63.92-3.09,13.14-9.47,28.56-8.51,41.75,4.96-3.3,9.44-7.61,13.14-12.4ZM309.53,207.39c-.23-.65-.34-1.56-.16-2.3,4.88-19.57-10.97-52.52,21.05-63.96,3.97-1.42,8.07-1.96,11.7-1.04,3.67-.74,7.03-.04,8.36,3.69,3.93,11-9.32,22.42-13.07,32.55-3.54,9.58-6.37,27.91-18.1,32.1-4.21,1.5-9.23.56-9.8-1.03Z"/>
      <path class="cls-6" d="M344.55,171.67c-7.77,11.93-7.07,34.66-20.07,39.31-1.68.6-3.43.9-5.18,1.21-4.49,3.78-7.28,9.09-9.67,14.64,2.05-2.66,3.86-5.47,5.37-8.34,2.59-4.91,8.89-5.19,13.72-8.23,8.7-5.48,10.82-14.92,13.18-24.28,1.31-5.21,2.7-10.38,5.35-14.83,4.92-8.27,8.14-17.17,7.39-25.53-1.88,7.45-5.27,18.65-10.09,26.05Z"/>
      <path class="cls-37" d="M289.47,243.04c-.55-11.74,2.6-24.33,7.66-33.61,5.87-10.76-10.54-35.63,5.23-53.09,22.11-24.48,20.38-29.42,29.41-32.65,2.91-1.04,6.07-1.32,9.21-1.04-2.92-5.64-4.94-9.69-14.1-6.68-10.95,29.18-43.16,45.24-38.57,58.1,0,0,.45,1.15.81,2.18,9.29,26.02,3.12,50.8-7.36,69.08,1.92-.33,3.81-.83,5.66-1.49.69-.25,1.37-.51,2.04-.8Z"/>
      <path class="cls-36" d="M289.12,176.25c-.37-1.03-.81-2.18-.81-2.18-4.59-12.86,27.62-28.91,38.57-58.1-.26.09-.53.18-.8.27-4.17,1.49-7.97,3.97-11.69,6.72-4.27,27.42-34.44,41.7-34.29,46.76.11,3.54,1.17,7.41,2.33,11.36,1.27,2.37,2.33,4.75,3.19,7.16.03.07.05.15.08.22,5.71,16.22,2.54,33.24-4.96,49.15-2.84,2.68-5.88,5.31-8.9,7.76,1.55.26,3.09.4,4.63.41,1.78,0,3.56-.15,5.31-.45,10.48-18.28,16.65-43.05,7.36-69.08Z"/>
      <path class="cls-64" d="M314.38,122.97c-2.06,1.53-4.1,3.13-6.15,4.69-1.34,14.15-10.59,28.06-28.22,34.35-3.45,1.23-6.37,2.11-8.84,2.73,1.25,2.1,2.67,4.18,4.35,6.2,2.78,3.32,5.06,6.71,6.9,10.14-1.17-3.94-2.23-7.82-2.33-11.36-.15-5.06,30.02-19.34,34.29-46.76Z"/>
      <path class="cls-81" d="M302.36,156.34c-15.77,17.45.65,42.33-5.23,53.09-5.06,9.28-8.22,21.87-7.66,33.61,2.42-1.03,4.77-2.31,7.02-3.81-.96-13.19,5.42-28.6,8.51-41.75,2.83-12.06-12.17-49.23,28.97-63.92,4.33-1.55,8.87-2.49,13.46-2.77-1.18-.77-2.18-1.15-2.82-2.02-1.53-2.08-2.63-4.19-3.63-6.12-3.15-.28-6.3,0-9.21,1.04-9.03,3.22-7.29,8.17-29.41,32.65Z"/>
      <path class="cls-32" d="M319.11,183.47c1.11,3.11,1.73,4.72,5.98,3.2,6-2.14,7.04-10.47,9.99-15.77,5.64-10.11,16.01-11.17,12.19-21.85-.13-.37-.41-.27-.69-.17s-.55.2-.69-.17c-2.22-6.21-8.23-5.29-13.76-3.31-17.28,6.17-19.17,20.87-13.03,38.07Z"/>
      <path class="cls-22" d="M247.67,266c12-4.29,18.27-10.43,29.87-14.57,2.48-.89,4.98-1.69,7.44-2.56,19.81-7.08,24.88-18.88,31.03-31.87-.38.45-.72.94-1.01,1.49-4.54,8.59-11.7,16.65-20.11,21.76-3.12,3.13-6.7,5.66-10.82,7.13-7.35,2.63-10.66.49-13.88,1.64-3.72,1.33-11.29,8-21.11,11.51-14.73,5.26-26.48-.41-34.22-10.14-1.23-.86-2.44-1.76-3.63-2.7.48,1.34.99,2.6,1.5,3.8,6.59,10.18,18.76,20.29,34.93,14.52Z"/>
      <path class="cls-76" d="M249.08,260.52c9.82-3.51,17.4-10.19,21.11-11.51,3.22-1.15,6.52.99,13.88-1.64,4.12-1.47,7.7-4,10.82-7.13-2.4,1.46-4.9,2.67-7.47,3.59-3.55,1.27-7.24,1.96-10.97,1.94-1.54,0-3.08-.14-4.63-.41-8.11,6.58-16.08,11.85-19.72,13.15-12.37,4.42-25.75-.09-37.24-8.14,7.74,9.73,19.48,15.4,34.22,10.14Z"/>
      <path class="cls-37" d="M325.22,212.01c-3.44,1.42-7,2.39-9.21,5-6.15,12.99-11.22,24.79-31.03,31.87-2.46.88-4.95,1.68-7.44,2.56-11.6,4.14-17.87,10.28-29.87,14.57-16.17,5.78-28.34-4.34-34.93-14.52,6.18,14.33,14.86,19.38,23.94,21.83,13.81-5.29,39.2-14.94,56.89-21.26,15.6-5.57,28.16-22.68,31.64-40.05Z"/>
      <path class="cls-81" d="M286.46,260.43c12.87-4.6,26.76-10.19,37.6-39.9,2.56-7.03,6.82-6.62,9.69-10.96,4.01-6.06,8.72-10.8,13.34-15.87-1.36-2.92-3.09-5.7-5.19-7.72-2.36,9.35-4.48,18.8-13.18,24.28-1.11.7-2.3,1.25-3.5,1.75-3.49,17.37-16.04,34.48-31.64,40.05-17.69,6.32-43.08,15.97-56.89,21.26,3.83,1.03,7.72,1.61,11.53,2.22,5.41-3.42,11.54-6,17.89-8.27,6.75-2.41,13.74-4.47,20.36-6.84Z"/>
      <path class="cls-6" d="M295.12,278.82c-2.5.89-10.09,3.3-19.15,4.77,4.01.02,8.87-.84,15.42-2.72,4.02-1.16,8.68-2.7,14.17-4.66.79-.28,1.57-.57,2.35-.87,16.52-6.31,29.87-16.13,31.47-36.48-6.87,17.95-10.72,27.98-44.26,39.96Z"/>
      <path class="cls-2" d="M264.24,280.25c3.65,2.13,7.14,3.31,11.74,3.34,9.06-1.47,16.65-3.88,19.15-4.77,33.54-11.98,37.39-22.01,44.26-39.96.18-2.28.22-4.7.09-7.26-.57-11.37,15.51-16.32,9.09-34.32-.42-1.19-.91-2.39-1.46-3.58-4.62,5.08-9.33,9.81-13.34,15.87-2.87,4.34-7.13,3.93-9.69,10.96-10.84,29.71-24.73,35.31-37.6,39.9-6.61,2.36-13.6,4.42-20.36,6.84-6.35,2.27-12.48,4.85-17.89,8.27,5.72.92,11.24,1.92,16.03,4.71ZM272.93,266.76c.11-.04,6.32-1.64,10.96-3.29,27.73-9.9,46.78-34.8,46.85-34.83,1.51-.54,3.3-.57,4.01.84.5.98.93,1.99,1.3,3.03,8.35,23.39-32.85,41.9-44.63,46.11-5.98,2.14-23.64,7.61-26.47-.3-1.91-5.35,3.15-9.84,7.97-11.56Z"/>
      <path class="cls-84" d="M291.43,278.62c11.78-4.21,52.99-22.72,44.63-46.11-.37-1.04-.81-2.05-1.3-3.03-.71-1.41-2.5-1.38-4.01-.84-.07.03-19.12,24.93-46.85,34.83-4.64,1.66-10.86,3.26-10.96,3.29-4.81,1.72-9.88,6.22-7.97,11.56,2.83,7.91,20.48,2.44,26.47.3ZM305.4,266.37c-.03-.09-.05-.18-.06-.28-.92-14.63,16.18-24.66,27.18-32.76,3.91,14.54-6.15,27.94-19.43,32.68-1.92.69-7.01,2.27-7.7.35Z"/>
      <path class="cls-9" d="M332.52,233.34c-10.99,8.09-28.09,18.13-27.18,32.76,0,.1.03.19.06.28.69,1.92,5.78.33,7.7-.35,13.27-4.74,23.33-18.14,19.43-32.68Z"/>
      <path class="cls-20" d="M269.68,282.68c-1.88-.56-3.64-1.38-5.44-2.43-1.85-1.08-3.81-1.89-5.84-2.53-9.54.43-19.05-.83-27.97-4.66-18.11-7.76-23.07-29.57-31.92-26.42-1.37.49-2.53,1.34-3.66,2.26.38,1,.76,2.02,1.13,3.06.19.54.37,1.08.56,1.62,17.75,5.84,42.85,34.36,73.15,29.1Z"/>
      <path class="cls-12" d="M230.42,273.06c8.93,3.83,18.44,5.09,27.97,4.66-15.77-4.98-36.29.14-47.16-30.04-6.15-4.86-11.61-10.64-15.9-16.41.62,5.69.55,11.44-.6,17.35.04.09.07.19.11.29,1.13-.92,2.29-1.77,3.66-2.26,8.84-3.16,13.81,18.66,31.92,26.42Z"/>
      <path class="cls-79" d="M294.94,302.02c-1.86.75-3.77,1.46-5.65,2.14-7.73,2.76-15.58,3.38-21.34-3.6-7.81-9.46-14.91,4.98-41.01-10.63-1.36-.82-2.85-1.2-4.35-1.57,4.52,4.05,9.59,7.24,16.38,9.14,6.06,1.7,13.49,2.36,23.11,1.69,9.9-.69,4.64,14.22,27.62,6.01,2.38-.85,4.08-1.91,5.23-3.19Z"/>
      <path class="cls-28" d="M226.94,289.93c26.1,15.6,33.2,1.17,41.01,10.63,5.76,6.98,13.61,6.36,21.34,3.6,1.88-.67,3.79-1.38,5.65-2.14,2.08-2.31,2.32-5.34,1.43-9.18-12.59-3.79-26.23-3.18-38.92,1.35-1.19.43-2.65,1-2.66,1.01-13.14,4.69-24.34-18.42-38.33-13.43-.07.03-.15.05-.24.09,2.08,2.34,4.16,4.53,6.37,6.51,1.49.36,2.98.75,4.35,1.57Z"/>
      <path class="cls-41" d="M216.45,281.77c13.99-5,25.19,18.12,38.33,13.43.01,0,1.46-.58,2.66-1.01,12.69-4.53,26.33-5.14,38.92-1.35-.29-1.27-.71-2.62-1.23-4.07-.69-1.94-1.56-3.83-2.53-5.69-1.39.57-2.99,1.46-6.61,2.75-36.63,13.08-62.52-14.31-70.7-11.39-1.29.46-2.43,1.42-3.02,2.85,1.34,1.57,2.64,3.1,3.95,4.56.09-.03.17-.06.24-.09Z"/>
      <path class="cls-45" d="M215.29,274.44c8.18-2.92,34.08,24.47,70.7,11.39,3.62-1.29,5.22-2.18,6.61-2.75-.39-.74-.79-1.48-1.21-2.21-3.8,1.09-7.02,1.84-9.85,2.27-2.42,1.79-4.91,3.1-7.46,4.02-24.12,8.62-55.31-19.8-75.84-28.13.41,1.39.79,2.78,1.15,4.18,5.06,4.89,9.1,9.68,12.87,14.1.59-1.43,1.73-2.39,3.02-2.85Z"/>
      <path class="cls-3" d="M274.09,287.15c2.55-.91,5.04-2.23,7.46-4.02-4.87.74-8.55.55-11.87-.45-30.31,5.26-55.4-23.26-73.15-29.1.62,1.8,1.19,3.61,1.72,5.43,20.53,8.33,51.71,36.75,75.84,28.13Z"/>
      <path class="cls-69" d="M256.99,206.82c7.37-6.3,13.64-10,18.79-12.78,3.42-3.2,7.8-5.69,5.83-11.22-1.9-5.31-9.82-10.67-12.22-17.4-3.85-10.79-10.05-20.87-19.84-25.7-1.24.07-2.58.26-4.05.59-.81,1.11-1.56,2.25-2.2,3.41,6.98,4.39,11.61,11.06,14.37,18.79,5.44,15.24,3.5,33.21-.68,44.3Z"/>
      <path class="cls-65" d="M281.61,182.82c1.97,5.53-2.41,8.02-5.83,11.22,3.97-2.14,7.28-3.74,9.9-5.57-.03-.07-.05-.15-.08-.22-2.11-5.9-5.4-11.7-10.09-17.31-1.69-2.01-3.11-4.1-4.35-6.2-4.19-7.05-6.37-14.21-9.69-19.06-2.68-3.9-6.1-6.3-11.93-5.97,9.79,4.83,15.99,14.91,19.84,25.7,2.4,6.73,10.32,12.08,12.22,17.4Z"/>
      <path class="cls-75" d="M242.17,185.15c-5.79-16.21,2.7-21.71-.47-30.6-.25-.69-.53-1.37-.85-2.05,0,.3.02.61.05.91,1.48,15.04-9.57,22-3.16,39.94,3.03,8.5,8.21,14.72,13.68,18.56.02-.02.04-.04.07-.06.9-3.5.91-7.14-.23-10.34-1.48-4.13-5.9-7.45-9.08-16.35Z"/>
      <path class="cls-80" d="M252.47,197.39c-2.98-8.33-7.27-14.32-8.52-17.82-2.57-7.19-.66-15.02-.05-22.53.3-3.65-1.01-6.96-1.98-10.36-.72,1.91-1.13,3.87-1.07,5.83.32.68.61,1.36.85,2.05,3.18,8.89-5.32,14.39.47,30.6,3.18,8.9,7.6,12.22,9.08,16.35,1.14,3.2,1.13,6.84.23,10.34,1.05-1.02,2.08-1.98,3.1-2.9.04-3.45-.59-7.32-2.11-11.56Z"/>
      <path class="cls-83" d="M243.94,179.57c1.25,3.5,5.55,9.49,8.52,17.82,1.51,4.24,2.15,8.11,2.11,11.56.82-.74,1.62-1.45,2.42-2.13,4.19-11.09,6.13-29.06.68-44.3-2.76-7.73-7.39-14.4-14.37-18.79-.54.97-1,1.95-1.38,2.95.97,3.4,2.28,6.71,1.98,10.36-.61,7.52-2.52,15.34.05,22.53Z"/>
      <path class="cls-80" d="M202.26,209.77c-5.11-14.32-.74-30.07,3.74-44.81-9.44,15.25-9.27,38.45-5.18,57.67,2.31-.35,4.75-1.08,7.22-1.96,2.34-.83,4.7-1.81,7.04-2.73-9.22-1.5-10.38-1.31-12.83-8.16Z"/>
      <path class="cls-83" d="M239.75,218.12c-12.81-5.85-26.67-15.87-31.14-28.37-3.79-10.62-2.5-22.49,3.79-32.49-2.5,2.23-4.62,4.81-6.39,7.68-4.48,14.75-8.85,30.49-3.74,44.81,2.45,6.85,3.61,6.66,12.83,8.16,1.3-.51,2.59-1.01,3.86-1.47,13.26-4.74,12.64,2.77,20.8,1.66Z"/>
      <path d="M251.34,213.22l-.68-.54-.98-.95,1.15-1.33c.36.28.72.55,1.09.8l.88.62-.77.74-.61-.64.55.7-.62.61Z"/>
      <path class="cls-37" d="M244.14,204.99c-2.56-3.22-4.79-7.1-6.41-11.64-6.41-17.94,4.64-24.9,3.16-39.94-.45-4.53,1.62-9.05,4.61-13.1-1.51.34-3.15.82-4.95,1.46-.35.13-.7.26-1.05.39,1.95,18.41-9.54,33.88-3.23,51.56,1.37,3.85,4.26,7.49,7.87,11.27Z"/>
      <path class="cls-69" d="M208.61,189.76c4.47,12.5,18.32,22.51,31.14,28.37,1.15-.16,2.47-.48,4.04-1.04.27-.1.53-.2.79-.3-21.53-15.7-26.02-13.1-30.48-25.59-6.91-19.34,13.05-28.5,19.67-46.28-2.37,1.37-4.57,2.98-6.51,4.81-1.42.33-2.79.73-4.09,1.19-4.19,1.5-7.75,3.66-10.77,6.35-6.28,10-7.58,21.87-3.79,32.49Z"/>
      <path class="cls-7" d="M218.07,191.33c2.83,7.94,12.04,15.36,16.02,13.94,3.27-1.17-2.02-17.4-2.89-20.8-2.55-10.05,4.04-20.35,2.91-23.51-.69-1.92-2.89-2.52-5.04-1.89-6.67,9.3-15.42,19.89-11,32.27Z"/>
      <path class="cls-36" d="M249.87,213.42c.47-.47.94-.93,1.4-1.38-.33-.32-.66-.64-.99-.95-2.15-1.66-4.24-3.69-6.15-6.09-3.61-3.78-6.5-7.43-7.87-11.27-6.31-17.67,5.18-33.15,3.23-51.56-1.99.77-3.92,1.69-5.74,2.75-6.61,17.78-26.57,26.94-19.67,46.28,4.46,12.48,8.95,9.88,30.48,25.59,2.08-.84,3.97-2.01,5.3-3.36ZM218.07,191.33c-4.42-12.38,4.33-22.97,11-32.27,2.15-.63,4.35-.03,5.04,1.89,1.13,3.16-5.46,13.47-2.91,23.51.86,3.4,6.15,19.63,2.89,20.8-3.98,1.42-13.18-6-16.02-13.94Z"/>
      <path class="cls-78" d="M215.29,219.43c16.64-5.94,19.27,3.02,27.75,0,6.53-2.33,18.32-14.38,28.7-23.12-5.68,3.32-12.46,7.96-20.32,15.6-.51.49-1.02.99-1.53,1.51-1.5,1.51-3.7,2.81-6.09,3.66-12.64,4.52-9.71-6.02-24.84-.62-3.54,1.26-7.26,2.9-10.9,4.19-2.47.88-4.91,1.61-7.22,1.96-2.53.39-4.91.32-7.04-.48.23,1.02.43,2.05.63,3.07,3.83.02,7.72-.82,11.43-2.15,3.13-1.12,6.27-2.5,9.45-3.63Z"/>
      <path class="cls-81" d="M271.82,245.37c3.02-2.45,6.06-5.08,8.9-7.76,1.11-2.36,2.12-4.74,3.03-7.13-29.13,25.27-28.84,25.89-34.04,27.75-14.67,5.24-35.25-15.51-51.08-22.79,3.66,4.34,7.93,8.56,12.6,12.25,12.23,9.68,27.16,15.73,40.86,10.84,3.64-1.3,11.61-6.57,19.72-13.15Z"/>
      <path class="cls-37" d="M249.71,258.23c5.2-1.86,4.91-2.47,34.04-27.75,2.66-7.03,4.37-14.22,4.77-21.41-7.6,12.6-15.35,25.86-29.85,31.03-22.86,8.17-29.73-10.22-63.38-9.12.01.1.03.19.04.29,1.04,1.39,2.14,2.78,3.31,4.16,15.83,7.28,36.4,28.03,51.08,22.79Z"/>
      <path class="cls-7" d="M288.52,209.07c.05-.85.08-1.71.09-2.56-7.07,10.7-11.77,23.28-24.06,27.67-21.63,7.72-29.22-19.66-69.85-7.45.24,1.41.44,2.83.6,4.25,33.64-1.1,40.51,17.28,63.38,9.12,14.5-5.18,22.24-18.43,29.85-31.03Z"/>
      <path class="cls-65" d="M195.26,174.82c-4.06,16.08-3.27,31.93,1.78,46.08.23.65.47,1.3.73,1.94.99.02,2.01-.06,3.06-.22-.88-4.13-1.58-8.44-2.04-12.81-.43-1.02-.84-2.06-1.22-3.1-5.17-14.47,3.2-25.01,1.24-45.87-1.02-10.82,5.31-17.01,13.79-20.04,9.43-3.37,20.54-2.78,31.11-.03.61-.17,1.22-.33,1.79-.46,8.39-1.88,12.73.65,15.97,5.37.99-1.13,1.91-2.32,2.76-3.54-.14-.46-.29-.92-.45-1.37-.08-.24-.17-.47-.26-.71-13.82.96-36.04-14.44-53.26-8.29-21.78,7.78-11.52,29.27-15,43.03Z"/>
      <path class="cls-69" d="M198.81,160.84c1.96,20.85-6.41,31.4-1.24,45.87.37,1.04.78,2.08,1.22,3.1-1.28-12.16-.73-24.83,2.86-35.46-.95-10.74-2.79-20.55,21.22-29.12,5.69-2.03,11.01-2.8,15.77-2.72.63-.26,1.27-.51,1.91-.74,1.11-.4,2.16-.72,3.16-1-10.57-2.75-21.68-3.34-31.11.03-8.48,3.03-14.8,9.23-13.79,20.04Z"/>
      <path class="cls-40" d="M197.05,220.9c-5.05-14.15-5.85-30-1.78-46.08,3.48-13.77-6.79-35.25,15-43.03,17.22-6.15,39.44,9.25,53.26,8.29-7.26-18.85-33.08-31.02-56.79-22.56-.85.3-1.65.62-2.43.96-24.61,14.65-12.83,42.15-11.47,53.05.31,2.5-5.85,22.96-4.71,26.47,2.58,7.92,5.01,16.11,6.37,24.39,1.04.31,2.14.45,3.27.47-.25-.64-.49-1.29-.73-1.94ZM212.11,120.76c19.5-6.97,38.42,3.22,40.52,9.12.56,1.56-1.31,3.49-2.56,3.94-5.84,2.09-24.82-10.8-38.59-5.88-5.66,2.02-8.02,5.62-12.14,7.09-1.61.57-3.84.63-5.13-.23,4.22-6.72,10.62-11.45,17.9-14.05Z"/>
      <path class="cls-24" d="M199.33,135.03c4.12-1.47,6.49-5.07,12.14-7.09,13.77-4.92,32.75,7.96,38.59,5.88,1.25-.45,3.12-2.38,2.56-3.94-2.11-5.9-21.02-16.09-40.52-9.12-7.28,2.6-13.68,7.33-17.9,14.05,1.28.85,3.52.8,5.13.23Z"/>
      <path class="cls-19" d="M192.84,171.52c-1.36-10.9-13.14-38.4,11.47-53.05-1,.43-1.96.88-2.85,1.35-22.14,11.64-11.61,36.24-10.72,50.03.58,8.93-7.34,18.53-4.41,27.48,2.74,8.39,5.62,16.58,7.46,24.81.23.09.47.16.71.23-1.36-8.28-3.79-16.47-6.37-24.39-1.14-3.51,5.02-23.96,4.71-26.47Z"/>
      <path class="cls-65" d="M177.28,180.6c3.45,9.66,8.53,18.81,11.99,28.48,5.35,14.97,3.73,17.91,6.44,28.23-.03-2.02-.16-4.03-.38-6.04-.33-3.06-.87-6.1-1.55-9.13-1.84-8.24-4.72-16.42-7.46-24.81-.59-1.82-.74-3.66-.6-5.52-1.36-9.47-.43-19.74,1.2-28.81,1.5-8.34-2.95-13.72.68-22.27.69-8.13,4.1-15.78,13.85-20.91-.29-.11-.59-.22-.88-.32-16.62,10.19-32.04,36.6-23.29,61.1Z"/>
      <path class="cls-40" d="M173.8,177.4c1.29,3.61,6.51,11.98,9.32,19.86,3.36,9.41,5.03,28.88,9.85,46.95.59,1.43,1.18,2.89,1.76,4.41.74-3.83,1.03-7.59.98-11.31-2.72-10.32-1.1-13.26-6.44-28.23-3.46-9.67-8.54-18.83-11.99-28.48-8.75-24.5,6.67-50.91,23.29-61.1-1.24-.44-2.48-.85-3.73-1.21-21.35,15.14-33.23,30.57-23.04,59.12Z"/>
      <path class="cls-19" d="M165.18,193.02c4.92,12.62,12.9,22.04,20.87,36.71-1.7-8.71-2.68-15.29-4.27-19.75-4.91-13.75-16.76-26.71-18.64-31.98-2.36-6.61-5.68-51.48,19.82-60.58,1.05-.37,2.12-.7,3.2-.99-3.38-.12-6.68.29-9.81,1.39-17.53,10.85-18.17,34.55-15.36,59.87,1.01,5.29,2.26,9.97,3.52,13.5.22.62.45,1.22.68,1.82Z"/>
      <path class="cls-16" d="M176.34,117.82s-.07.02-.11.04c-8.06,2.88-12.76,10-15.21,18.87-3.45,12.49-2.43,28.45-.04,40.96-2.81-25.31-2.17-49.02,15.36-59.87Z"/>
      <path class="cls-24" d="M163.13,178c1.88,5.27,13.73,18.22,18.64,31.98,1.59,4.46,2.57,11.04,4.27,19.75,2.34,4.3,4.67,9.06,6.92,14.49-4.82-18.07-6.49-37.54-9.85-46.95-2.82-7.88-8.03-16.25-9.32-19.86-10.2-28.55,1.69-43.98,23.04-59.12-3.58-1.04-7.18-1.73-10.69-1.85-1.08.29-2.15.61-3.2.99-25.49,9.11-22.18,53.97-19.82,60.58Z"/>
      <path class="cls-44" d="M283.95,189.59c-2.82,1.71-6.27,3.36-10.35,5.65-4.6,11.24-4.95,22.24-18.36,27.03-12.2,4.36-27.2-2.55-43.48-1.5-.93.37-1.86.74-2.78,1.1,17.84-.19,34.92,8.28,51.37,2.4,16.7-5.97,16.05-22.56,23.61-34.69Z"/>
      <path class="cls-36" d="M288.6,206.51c.07-6.06-.83-12.11-2.92-18.05-.55.38-1.13.75-1.74,1.12-7.55,12.13-6.9,28.72-23.61,34.69-16.45,5.88-33.53-2.6-51.37-2.4-1.05.41-2.09.82-3.14,1.19-3.71,1.32-7.59,2.17-11.43,2.15.1.51.19,1.02.28,1.53,40.63-12.21,48.22,15.17,69.85,7.45,12.29-4.39,16.99-16.97,24.06-27.67Z"/>
      <path class="cls-56" d="M273.6,195.24c-.61.34-1.23.69-1.86,1.07-10.38,8.74-22.17,20.79-28.7,23.12-8.48,3.03-11.11-5.94-27.75,0-1.18.42-2.36.88-3.53,1.34,16.28-1.05,31.28,5.85,43.48,1.5,13.41-4.79,13.77-15.79,18.36-27.03Z"/>
      <path class="cls-2" d="M162.72,185.4c-.54-2.03-1.05-4.24-1.52-6.58-15.49-7.53-30.75-20.97-36.85-38.04-3.42-9.59-3.96-19.91-.22-29.7-.21.06-.42.12-.62.2-4.56,1.63-9.65,7.63-11.69,16.38-.24,6.53.82,12.98,2.99,19.05,7.88,22.08,28.74,34.73,47.92,38.69Z"/>
      <path class="cls-84" d="M161.2,178.82c-.03-.15-.06-.3-.09-.46-13.96-6.53-30-23.48-33.94-34.52-3.87-10.84-7.31-24.49-.69-33.19-.8.06-1.58.2-2.35.43-3.73,9.78-3.2,20.11.22,29.7,6.1,17.07,21.36,30.51,36.85,38.04Z"/>
      <path class="cls-36" d="M164.18,190.28c-6.21-.28-13.75-2.53-23.62-8.84-11.1-7.1-20.03-16.82-25.73-28.48-.26-.36-.49-.7-.7-1,10.78,27.44,40.43,40.99,51.04,41.05-.23-.6-.46-1.21-.68-1.82-.11-.29-.21-.6-.32-.91Z"/>
      <path class="cls-37" d="M162.72,185.4c-19.18-3.96-40.03-16.62-47.92-38.69-2.17-6.06-3.23-12.51-2.99-19.05-.99,4.23-1.26,9.1-.42,14.44.42,2.63,1.1,5.36,2.11,8.19.2.56.41,1.12.63,1.67.2.31.43.64.7,1,5.7,11.66,14.63,21.37,25.73,28.48,9.87,6.32,17.41,8.56,23.62,8.84-.5-1.47-.99-3.11-1.46-4.88Z"/>
      <path class="cls-69" d="M271.99,164.53c1.73-.46,3.67-1.04,5.84-1.77-4.12-2.28-7.32-5.32-8.58-8.85-1.98-5.53,4.57-20.67,2.19-35.16.04,3.49-.39,6.98-1.26,10.36-.62,11.11-7.94,15.01-4.9,23.51,1.28,3.58,1.77,2.84,6.71,11.92Z"/>
      <path class="cls-83" d="M265.28,152.61c-3.04-8.5,4.29-12.39,4.9-23.51-1.19,4.63-3.19,9.06-5.95,13.04-.85,1.23-1.77,2.41-2.76,3.54,3.33,4.85,5.5,12,9.69,19.06.27-.07.54-.14.82-.21-4.93-9.08-5.43-8.34-6.71-11.92Z"/>
      <path class="cls-39" d="M225.64,149.11c-1.56.56-2.98.54-5.46,1.42-6.76,2.41-11.55,8.23-14.39,14.76,3.93-6.5,9.58-11.59,17.37-14.38,1.3-.46,2.66-.86,4.09-1.19,2.71-2.55,5.92-4.67,9.4-6.32-.85.21-1.69.46-2.52.76-5.57,1.99-6.23,4.14-8.49,4.95Z"/>
      <path class="cls-39" d="M205.8,165.29c2.84-6.54,7.63-12.35,14.39-14.76,2.48-.89,3.89-.86,5.46-1.42,2.27-.81,2.92-2.96,8.49-4.95.82-.29,1.66-.54,2.52-.76.66-.31,1.32-.61,1.99-.89-4.76-.09-10.08.68-15.77,2.72-24.01,8.58-22.17,18.38-21.22,29.12,1.09-3.23,2.46-6.27,4.15-9.05Z"/>
      <path class="cls-39" d="M190.7,116.89c3.58.57,7.2,1.61,10.75,2.93,1.59-.84,3.34-1.61,5.29-2.3,7.79-2.78,15.8-3.33,23.31-2.16-15.18-3.43-26.08.95-29.67,1.25-3.11.26-6.44.26-9.67.27Z"/>
      <path class="cls-27" d="M263.79,140.78c.16.45.31.91.45,1.37,2.03-2.93,3.65-6.11,4.85-9.43-18.25-10.2-37.11-26.37-64.36-17.72-4.88,1.55-9.46-3.07-14.94-2.16-15.46,2.57-29.19,10.15-43.91,7.06,5.42,4.78,10.67,10.84,15.14,16.84,2.45-8.87,7.14-15.99,15.21-18.87,4.56-1.63,9.48-1.77,14.47-.97,3.23-.02,6.56,0,9.67-.27,3.6-.31,14.5-4.69,29.67-1.25,15.64,2.45,29.09,12.41,33.74,25.42Z"/>
      <path class="cls-69" d="M189.57,161.51c-1.13-6.42-2.56-13.78-1.97-20.79-3.63,8.56.82,13.93-.68,22.27-1.63,9.06-2.55,19.34-1.2,28.81.15-2.05.65-4.12,1.28-6.2.57-3.84,1.86-7.71,2.56-11.56.77-4.23.51-8.55,0-12.53Z"/>
      <path class="cls-83" d="M189.57,161.51c.51,3.98.77,8.29,0,12.53-.7,3.86-1.99,7.72-2.56,11.56,1.61-5.31,4.06-10.64,3.73-15.75-.16-2.48-.63-5.3-1.17-8.34Z"/>
      <path class="cls-77" d="M193.66,370.28c4.17,3.81,9.24,6.89,15.66,8.74,5.67.45,11.43.97,17.31,2.03,12.95.6,25.51,2.79,37.31,7.01.11-.27.22-.55.33-.82-15.79-6.52-33.13-9.94-50.15-12.48-7.7-1.15-14.47-2.67-20.46-4.48Z"/>
      <path class="cls-67" d="M260.34,395.15c1.46-2.36,2.64-4.73,3.6-7.09-11.8-4.22-24.36-6.41-37.31-7.01,10.79,1.94,21.97,5.69,33.72,14.09Z"/>
      <path class="cls-67" d="M171.95,371.71c12.17,5.65,24.53,6.29,37.37,7.31-6.43-1.85-11.49-4.93-15.66-8.74-53.31-16.06-45.08-54.13-81.79-42.73.05,1.18.12,2.36.2,3.53,35.93-12.77,39.31,31.08,59.88,40.63Z"/>
      <path class="cls-71" d="M183.61,357.61c2.79,4.59,6,8.97,10.05,12.67,5.99,1.8,12.76,3.33,20.46,4.48,17.01,2.53,34.36,5.96,50.15,12.48.49-1.25.92-2.51,1.29-3.76-8.31-1.44-16.58-3.17-24.06-4.9-8.3-1.91-15.65-3.82-21.04-5.3-11.92-.33-23.38-5-36.85-15.68Z"/>
      <path class="cls-18" d="M193.66,370.28c-4.05-3.7-7.26-8.08-10.05-12.67-5.26-4.17-10.83-9.26-16.85-15.36-.19-.19-17.65-7.77-31.44-14.9-8.52-2.78-16.67-6.01-23.74-9.4.08,3.15.14,6.38.29,9.61,36.71-11.4,28.48,26.67,81.79,42.73Z"/>
      <path class="cls-50" d="M178.34,341.72c5.46,7.91,12.43,18.39,22.61,23.64-10.26-6.86-17.68-17.44-22.14-29.16-2.39-.12-4.85-.33-7.37-.63.48.75.94,1.51,1.4,2.29,2.14.68,4.06,1.78,5.5,3.86Z"/>
      <path class="cls-68" d="M172.84,337.86c-.46-.78-.93-1.54-1.4-2.29-4.53-.52-9.24-1.3-14.01-2.3,1.07.59,2.17,1.16,3.28,1.69,3.75,1.78,8.3,1.67,12.13,2.9Z"/>
      <path class="cls-25" d="M222.55,380.91c1.36.03,2.72.08,4.07.14-5.88-1.06-11.64-1.58-17.31-2.03,3.88,1.12,8.25,1.79,13.23,1.89Z"/>
      <path class="cls-86" d="M226.63,381.05c-1.35-.06-2.71-.11-4.07-.14-4.98-.1-9.35-.78-13.23-1.89-12.84-1.02-25.2-1.66-37.37-7.31-20.58-9.55-23.95-53.4-59.88-40.63.42,6.26,1.26,12.39,3.18,17.77.23.66.49,1.3.76,1.93,2.24-6.65,7.99-12.43,13.73-14.48,24.39-8.71,20.05,53.08,60.44,48.96,19.8-2.02,45.26-.34,52.3,19.36.92,2.57,1.48,5.02,1.75,7.34,7.53-5.51,12.63-11.15,16.13-16.82-11.74-8.4-22.93-12.15-33.72-14.09Z"/>
      <path class="cls-13" d="M172.84,337.86c3.58,6.08,6.74,13.14,10.76,19.75,13.48,10.68,24.94,15.34,36.85,15.68-4.74-1.3-7.96-2.27-9-2.64-3.78-1.34-7.29-3.13-10.52-5.29-10.18-5.24-17.15-15.73-22.61-23.64-1.43-2.08-3.35-3.17-5.5-3.86Z"/>
      <path class="cls-57" d="M166.75,342.25c6.02,6.11,11.59,11.19,16.85,15.36-4.02-6.61-7.18-13.66-10.76-19.75-3.83-1.22-8.38-1.12-12.13-2.9-1.12-.53-2.21-1.1-3.28-1.69-7.36-1.53-14.87-3.57-22.11-5.93,13.78,7.13,31.25,14.71,31.44,14.9Z"/>
      <path class="cls-21" d="M108.97,331.15c-1.3-2.62-2.48-5.24-3.54-7.82-3.08-7.5-62.5-28.82-76.78-68.81-3.45-9.67-4.15-20.22-.88-31.69.04-.62.08-1.25.14-1.86-2.43,1.54-4.72,3.29-6.86,5.22-2.08,9.51-1.08,18.96,2.09,27.85,18.42,51.58,65.06,35.07,86.51,95.12,3.7,10.36,4.68,17.59,5.61,22.03,4.26.35,8.77.24,13.53-.43-6.71-5.04-12.61-11.25-15.62-19.66-1.97-5.51-2.34-12.83-4.21-19.95Z"/>
      <path class="cls-38" d="M126.88,363.35c-5.89-3.27-9.45-8.4-11.63-14.49-1.19-3.33-1.96-6.96-2.48-10.72-1.36-2.3-2.63-4.64-3.79-6.98,1.87,7.12,2.24,14.43,4.21,19.95,3,8.41,8.9,14.62,15.62,19.66,1.2-.17,2.42-.37,3.65-.62-1.72-2.28-3.57-4.55-5.57-6.79Z"/>
      <path class="cls-29" d="M108.97,331.15c1.17,2.35,2.43,4.69,3.79,6.98-.9-6.56-1.03-13.55-1.19-20.19-6.38-3.06-11.89-6.24-16.01-9.34-3.67-2.76-7.61-4.62-11.73-6.23,18.94,15.12,21.28,17.46,23.99,25.03.44,1.23.81,2.48,1.14,3.74Z"/>
      <path class="cls-71" d="M105.43,323.33c1.06,2.58,2.24,5.2,3.54,7.82-.33-1.26-.7-2.51-1.14-3.74-2.71-7.57-5.05-9.91-23.99-25.03-16.95-6.6-36.71-8.65-51.31-49.52-3.36-9.4-5.21-19.26-4.84-28.69.02-.45.04-.89.07-1.33-3.27,11.47-2.57,22.02.88,31.69,14.28,39.99,73.7,61.31,76.78,68.81Z"/>
      <path class="cls-68" d="M229.78,316.26c4.57-7.06,9.7-13.66,17.83-17.16-3.18-.32-6.04-.86-8.64-1.59-9.72,15.54-21.95,30.38-39.03,36.48-4.63,1.65-10.41,2.37-16.87,2.34,4.33,1.67,10.56,2.49,17.72-.06,9.92-3.54,14.02-11.76,29-20Z"/>
      <path class="cls-14" d="M244.77,309.62c8.05-2.87,16.42-4.78,24.97-5.92-2.02-2.34-3.51-4.8-7.66-4.51-5.49.38-10.26.33-14.47-.1-8.13,3.51-13.26,10.11-17.83,17.16,4.08-2.24,8.96-4.49,14.99-6.64Z"/>
      <path class="cls-17" d="M223.77,325.76c2.04-3.1,3.97-6.35,6.01-9.5-14.97,8.24-19.08,16.45-29,20-7.16,2.56-13.39,1.73-17.72.06-1.39,0-2.81-.05-4.25-.12.28.73.57,1.46.87,2.18,5.9,2.09,12.64,5.18,20.18,4.64,7.36-6.7,15.37-12.57,23.9-17.26Z"/>
      <path class="cls-31" d="M199.87,343.02c-7.54.54-14.28-2.55-20.18-4.64,2.36,5.66,5.43,11,9.19,15.74,3.48-3.89,7.15-7.61,10.99-11.1Z"/>
      <path class="cls-13" d="M223.77,325.76c-8.53,4.69-16.53,10.57-23.9,17.26,2.04-.15,4.14-.55,6.3-1.32,8-2.86,13.06-9.04,17.59-15.94Z"/>
      <path class="cls-14" d="M325.63,285.71c-8.83-2.48-16.81-4.12-25.18-1.13-2.04.73-3.99,1.68-5.82,2.86.18.44.35.88.51,1.33.08.21.15.42.22.63,1.97-1.9,4.32-3.36,6.75-4.22,6.01-2.15,13.13,1.23,23.53.54Z"/>
      <path class="cls-68" d="M325.63,285.71c2.27-.15,4.69-.49,7.29-1.12-8.55-2.61-17-5.82-25.02-9.25-.78.3-1.56.59-2.35.87-5.49,1.96-10.15,3.5-14.17,4.66,1.23,2.14,2.34,4.33,3.23,6.57,1.83-1.17,3.78-2.13,5.82-2.86,8.37-2.99,16.36-1.35,25.18,1.13Z"/>
      <path class="cls-17" d="M339.95,289.67c3-.2,6.16-.48,9.45-.92-5.47-1.07-10.99-2.49-16.47-4.16-2.6.63-5.03.97-7.29,1.12,4.5,1.27,9.22,2.75,14.32,3.96Z"/>
      <path class="cls-31" d="M281.86,313.14c10.14-3.62,20.11-16.99,32.04-21.25,5.55-1.98,14.7-1.47,26.05-2.21-5.1-1.21-9.82-2.69-14.32-3.96-10.4.68-17.52-2.69-23.53-.54-2.43.87-4.78,2.32-6.75,4.22,2.71,7.89,2.26,12.99-5.65,15.81-13.35,4.77-17.17,1.74-19.97-1.5-8.55,1.14-16.92,3.04-24.97,5.92-6.03,2.15-10.91,4.4-14.99,6.64-2.04,3.16-3.98,6.4-6.01,9.5,4.83-2.66,9.82-4.94,14.96-6.78,24.21-8.65,35.71-3.19,43.13-5.85Z"/>
      <path class="cls-13" d="M370.27,290.87c-6.74.05-13.77-.73-20.88-2.12-3.29.44-6.44.73-9.45.92,8.73,2.06,18.56,3.3,30.32,1.19Z"/>
      <path class="cls-57" d="M240.81,323.48c23.63-8.44,45.57-.59,60.15-5.8,12.47-4.45,21.02-16.11,32.85-20.33,13.58-4.85,25.02,5.53,56.07-5.56,5.34-1.91,10.52-4.29,15.48-7.07-.6-1.34-1.24-2.65-1.91-3.94-3.56,2.7-7.73,4.99-12.64,6.75-6.35,2.27-13.27,3.28-20.52,3.33-11.76,2.1-21.6.87-30.32-1.19-11.35.74-20.5.23-26.05,2.21-11.93,4.26-21.9,17.63-32.04,21.25-7.43,2.65-18.92-2.8-43.13,5.85-5.14,1.84-10.14,4.12-14.96,6.78-4.54,6.9-9.6,13.08-17.59,15.94-2.16.77-4.26,1.18-6.3,1.32-3.84,3.49-7.51,7.21-10.99,11.1,2.05,2.59,4.31,4.99,6.78,7.16,11.98-16.05,34.66-34.06,45.15-37.8Z"/>
      <path class="cls-31" d="M140.51,24.17c-.8-.3-1.6-.59-2.41-.87-1.81,3.65-2.69,7.67-3.17,11.85,1.43-3.6,3.25-7.26,5.58-10.98Z"/>
      <path class="cls-17" d="M134.94,35.15c-.84,7.36-.42,15.2-1.52,22.39-.72,4.72-1.89,9.22-3.37,13.56.1,5.57.29,11.06.05,16.52,1.13-2.17,1.85-3.77,2.03-4.59,4.37-19.2,2.09-41.31,11.99-57.46-1.19-.49-2.4-.96-3.61-1.41-2.33,3.72-4.15,7.38-5.58,10.98Z"/>
      <path class="cls-58" d="M132.14,83.04c-.19.82-.9,2.42-2.03,4.59-.08,1.92-.22,3.83-.43,5.74,2.17-4.53,5.43-7.33,8.39-9.21-4.66-20.6.07-40.63,11.68-56.07-1.83-.89-3.71-1.72-5.61-2.51-9.9,16.15-7.62,38.27-11.99,57.46Z"/>
      <path class="cls-11" d="M130.06,61.05c2.09-7.43,3.37-15.06,3.74-22.78-2.64,7.82-3.51,15.39-3.74,22.78Z"/>
      <path class="cls-18" d="M91.62,230.79c1.05-4.94.75-10.41-1.39-16.39-5-13.99-16.19-25.6-21.46-40.36-5.6-15.67-5.45-34.3,8.98-43.71,25.28-16.48,44.48-41.47,52.31-69.29.22-7.39,1.1-14.95,3.74-22.78.26-5.47.07-10.99-.62-16.52-5.53-1.59-11.21-2.69-16.84-3.18,4.38,1.46,8.05,3.84,11.28,12.91,8.28,23.17-6.07,45.93-18.95,65.34-16.72,25.19-61.36,28.98-46.13,71.6,5.04,14.12,16.09,30.65,19.33,39.74,3.59,10.04.37,19.2-6.17,26.53,4.39-.28,8.76-1.2,12.86-2.67,1.02-.37,2.04-.78,3.05-1.23Z"/>
      <path class="cls-35" d="M133.42,57.55c1.1-7.19.68-15.04,1.52-22.39-.41,1.04-.79,2.08-1.14,3.11-.37,7.72-1.65,15.35-3.74,22.78-.1,3.39-.07,6.74,0,10.06,1.48-4.34,2.65-8.84,3.37-13.56Z"/>
      <path class="cls-57" d="M134.94,35.15c.48-4.18,1.36-8.2,3.17-11.85-1.63-.56-3.27-1.08-4.93-1.56.69,5.53.88,11.05.62,16.52.35-1.03.73-2.07,1.14-3.11Z"/>
      <path class="cls-57" d="M76.63,180.81c-14.45-40.47,22.77-49.47,26.81-58.01,8.45-17.83,20.37-33.38,26.61-51.69-.06-3.33-.1-6.68,0-10.06-7.83,27.81-27.03,52.8-52.31,69.29-14.43,9.41-14.57,28.04-8.98,43.71,5.27,14.76,16.46,26.37,21.46,40.36,2.13,5.98,2.44,11.45,1.39,16.39,1.83-.81,3.65-1.76,5.43-2.81-.78-3.77-1.89-7.54-3.21-11.24-6.41-17.94-12.97-24.05-17.21-35.93Z"/>
      <path class="cls-33" d="M77.46,152.37c-3.21,8.16-3.55,18.89-.28,28.05,2.47,6.91,9.3,14.05,17.37,21.27-6.09-7.46-11.94-14.98-15.33-24.49-3.79-10.62-3.92-18.5-1.76-24.84Z"/>
      <path class="cls-31" d="M94.55,201.7c-8.07-7.22-14.9-14.36-17.37-21.27-3.27-9.17-2.93-19.9.28-28.05,4.45-13.04,18.62-19.53,30.64-29.85,9.48-13.45,18.16-27.51,22.01-34.89.24-5.47.05-10.96-.05-16.52-6.25,18.32-18.17,33.86-26.61,51.69-4.04,8.54-41.26,17.54-26.81,58.01,4.24,11.88,10.81,17.99,17.21,35.93,1.32,3.7,2.42,7.47,3.21,11.24,3.84-2.27,7.54-5.05,11.05-8.13-3.97-6.62-8.83-12.37-13.54-18.16Z"/>
      <path class="cls-14" d="M108.1,219.86c1.24-1.09,2.45-2.22,3.64-3.38-5.65-4.93-11.7-9.88-17.19-14.78,4.72,5.79,9.58,11.54,13.54,18.16Z"/>
      <path class="cls-68" d="M77.46,152.37c-2.16,6.34-2.03,14.22,1.76,24.84,3.39,9.5,9.25,17.02,15.33,24.49,5.48,4.91,11.54,9.85,17.19,14.78,1.06-1.03,2.1-2.09,3.11-3.16-15.37-9.65-28.56-21.96-34.04-37.31-2.72-7.61-5.94-22.96,2.15-32.23-2.3,2.21-4.15,5.18-5.49,8.6Z"/>
      <path class="cls-14" d="M77.46,152.37c1.35-3.42,3.19-6.39,5.49-8.6,2.07-2.38,4.89-4.35,8.65-5.7,1.83-.65,3.71-.95,5.6-.94,1.36,0,2.74.18,4.13.49,2.23-1.14,4.36-2.38,5.69-4.6,4.8-8.01,5.03-18.59,14.21-23.19,0,0,3.27-9.05,8.39-16.34.02-.04.04-.07.05-.11.21-1.91.35-3.82.43-5.74-3.84,7.38-12.53,21.44-22.01,34.89-12.02,10.32-26.19,16.82-30.64,29.85Z"/>
      <path class="cls-49" d="M96.21,231.84c13.64-2.11,26.74-6.15,39.23-4.29-9.62-2.99-18.83-3.76-26.85-.9-4.23,1.51-8.3,3.4-12.38,5.18Z"/>
      <path class="cls-43" d="M85.71,232.95c-.91.26-1.84.5-2.77.71,1.41-.22,2.85-.49,4.22-.79-.48.03-.97.06-1.45.08Z"/>
      <path class="cls-23" d="M94.6,230.9c6.03-2.15,11.11-6.18,17.22-8.36,14.4-5.14,24.07,3.55,27.42,4.78,11.44,4.2,18.4,7.62,23.41,10.05-1.79-1.85-3.58-3.65-6-4.51-13.13-4.65-28.31-11.07-41.8-19.54-7.62,8.11-16.76,15.31-26.28,18.71-.94.34-1.9.64-2.86.92.49-.02.97-.05,1.45-.08,3.38-.73,6.34-1.58,7.44-1.97Z"/>
      <path class="cls-70" d="M88.87,234.82c2.48-.88,4.91-1.91,7.35-2.97-2.99.46-6.01.83-9.05,1.03-1.37.29-2.81.57-4.22.79-15.96,3.57-34.09-.97-41.85-18.62-.37-.84-.72-1.7-1.04-2.6-1.7-4.76-2.67-9.7-3.68-14.56-1.54,2.1-2.86,4.3-3.97,6.59.33,1.33.72,2.64,1.18,3.92,6.85,19.17,29.42,35.67,55.29,26.43Z"/>
      <path class="cls-59" d="M139.24,227.32c-3.35-1.23-13.02-9.92-27.42-4.78-6.11,2.18-11.19,6.2-17.22,8.36-1.1.39-4.07,1.24-7.44,1.97,3.04-.19,6.06-.56,9.05-1.03,4.08-1.78,8.15-3.67,12.38-5.18,8.02-2.86,17.23-2.1,26.85.9,3.96.59,7.86,1.78,11.7,3.81,9.45,5,19.18,11.07,29.37,14.88-2.57-1.44-5.31-2.87-8.25-4.26-2.22-1.05-3.91-2.85-5.62-4.62-5.01-2.44-11.97-5.86-23.41-10.05Z"/>
      <path class="cls-85" d="M222.75,298.97c-15.86-6.66-25.39-18.45-33.7-31.6-22.31-22.02-43.16-40.72-65.55-32.73-31.54,11.26-71.69,11.14-95.76-11.19-.01.24-.03.47-.04.71-.08,1.93-.05,3.89.05,5.85,59.77,41.27,114.23-10.11,160.42,44.02,12.44,14.58,27.48,25.99,43.98,33.57.25-.34.51-.69.76-1.04-3.45-2.34-6.83-4.89-10.16-7.58Z"/>
      <path class="cls-63" d="M222.75,298.97c-11.8-9.55-22.92-20.96-33.7-31.6,8.31,13.15,17.84,24.94,33.7,31.6Z"/>
      <path class="cls-42" d="M189.05,267.37c10.78,10.64,21.9,22.05,33.7,31.6,3.85,1.62,8.07,2.93,12.73,3.89,1.2-1.77,2.36-3.56,3.49-5.36-12.62-3.53-19.31-11.53-27.53-21.19-7.32-5.45-18.64-14.95-31.62-24.31,3.09,5.18,6.07,10.37,9.23,15.36Z"/>
      <path class="cls-3" d="M232.91,306.55c.88-1.22,1.73-2.45,2.57-3.69-4.67-.96-8.88-2.28-12.73-3.89,3.33,2.69,6.71,5.24,10.16,7.58Z"/>
      <path class="cls-3" d="M123.5,234.64c22.39-8,43.23,10.71,65.55,32.73-3.16-4.99-6.14-10.18-9.23-15.36-13.85-10-29.6-19.85-44.38-24.45-12.49-1.87-25.59,2.18-39.23,4.29-2.43,1.06-4.87,2.09-7.35,2.97-25.87,9.24-48.44-7.26-55.29-26.43-.46-1.28-.85-2.59-1.18-3.92-2.5,5.15-3.94,10.72-4.49,16.5-.08.83-.13,1.66-.17,2.49,24.08,22.33,64.22,22.45,95.76,11.19Z"/>
      <path class="cls-70" d="M179.82,252c-1.17-1.96-2.35-3.92-3.56-5.86-10.09-3.82-19.75-9.82-29.11-14.78-3.84-2.03-7.74-3.22-11.7-3.81,14.78,4.6,30.52,14.45,44.38,24.45Z"/>
      <path class="cls-72" d="M211.44,276.32c-3.53-4.14-7.35-8.59-12.04-13.12-5.87-5.67-13.11-11.46-22.88-16.95-.09-.03-.17-.07-.26-.1,1.21,1.94,2.39,3.9,3.56,5.86,12.98,9.37,24.3,18.87,31.62,24.31Z"/>
      <path class="cls-31" d="M339.38,55.05c2.06-.45,4.34-.96,6.84-1.52-.03-.08-.06-.17-.09-.25-.4-1.11-.83-2.2-1.3-3.27-17.85,3.83-41.29-3.22-58.27-5.37,15.98,2.62,34.26,9.29,52.82,10.41Z"/>
      <path class="cls-31" d="M231.18,48.06c-18.56-8.79-40.58-12.37-59.55-5.59-16.95,6.05-29.61,22.79-29.61,22.79-2.06.73-3.86-.75-5.44-3.15-.5,5.38-.37,10.92.45,16.52,13.45-9.37,18.11-28.74,32.96-34.04,12.1-4.32,55.15,2.33,57.3,5.28,4.64,6.37,10.73,8.93,17.2,9.18.48-.41.96-.81,1.44-1.2,2.77-3.68,6.23-6.75,10.16-9.11-8.23,2.15-16.32,3.39-24.91-.68Z"/>
      <path class="cls-53" d="M339.38,55.05c-18.56-1.12-36.84-7.79-52.82-10.41-4.62-.58-8.76-.81-12.18-.34-6.33.85-12.35,2.89-18.3,4.44-3.93,2.36-7.39,5.43-10.16,9.11,5.52-4.52,11.49-8.27,17.62-10.46,6.18-2.21,15.63-.81,25.72,2.48,13.91,3.03,29.01,10.03,36.71,8.08,0,0,4.69-.97,13.41-2.89Z"/>
      <path class="cls-35" d="M256.09,48.74c5.95-1.56,11.97-3.59,18.3-4.44,3.42-.46,7.56-.24,12.18.34-8.65-1.42-16.63-1.65-23.61.85-2.4.86-4.71,1.95-6.87,3.25Z"/>
      <path class="cls-57" d="M142.03,65.26s12.66-16.74,29.61-22.79c18.97-6.78,40.99-3.2,59.55,5.59,8.59,4.07,16.68,2.83,24.91.68,2.16-1.3,4.47-2.39,6.87-3.25,6.98-2.49,14.96-2.26,23.61-.85,16.98,2.15,40.43,9.2,58.27,5.37-1.26-2.88-2.78-5.62-4.53-8.22-.84.34-1.7.67-2.6.99-30.66,10.95-26.25-12.58-83.39,1.18-15.25,3.67-38.55-20.01-83.35-4.01-11.73,4.19-15.49,7.64-20.19,9.32-3.94,1.41-8.05,1.73-12.08,1.17-1.05,3.78-1.76,7.68-2.13,11.66,1.58,2.4,3.39,3.88,5.44,3.15Z"/>
      <path class="cls-66" d="M346.78,55.18c-.17-.56-.36-1.11-.55-1.65-2.5.56-4.78,1.07-6.84,1.52,2.46.15,4.93.2,7.39.13Z"/>
      <path class="cls-60" d="M346.78,55.18c-2.47.07-4.93.02-7.39-.13-8.72,1.92-13.41,2.89-13.41,2.89-7.71,1.95-22.8-5.05-36.71-8.08,9.45,3.08,19.46,7.82,27.9,12.81,10.16-3.06,20.55-4.18,30.88-2.62-.34-1.66-.76-3.29-1.26-4.87Z"/>
    </g>
  </g>
</svg>