<?xml version="1.0" encoding="UTF-8"?>
<svg id="Layer_2" data-name="Layer 2" xmlns="http://www.w3.org/2000/svg" viewBox="0 0 314.57 349.06">
  <defs>
    <style>
      .cls-1 {
        fill: #8c8ec6;
      }

      .cls-2 {
        fill: #9f9dcd;
      }

      .cls-3 {
        fill: #f4ddec;
      }

      .cls-4 {
        fill: #f4f3fa;
      }

      .cls-5 {
        fill: #d3d0e8;
      }

      .cls-6 {
        fill: #d29dc7;
      }

      .cls-7 {
        fill: #cbc8e4;
      }

      .cls-8 {
        fill: #dbaace;
      }

      .cls-9 {
        fill: #e6e3f2;
      }

      .cls-10 {
        fill: #5864ae;
      }

      .cls-11 {
        fill: #ebc9e0;
      }

      .cls-12 {
        fill: #e2b8d7;
      }

      .cls-13 {
        fill: #dfdcee;
      }

      .cls-14 {
        fill: #f1eff7;
      }

      .cls-15 {
        fill: #dedaed;
      }

      .cls-16 {
        fill: #f8fafd;
      }
    </style>
  </defs>
  <g id="flower">
    <g>
      <polygon class="cls-2" points="114.03 176.74 114.03 176.74 114.03 176.74 114.03 176.74"/>
      <path class="cls-5" d="M247.02,186.08c-20.42-20.05-51.94-25.01-79.62-21.15,24.58-5.21,42.16-24.48,61.05-40.16-15.64,11.16-34.1,20.54-53.31,24.57-5.11,1.07-10.27,1.76-15.44,2,7.96-15.65,23.88-29.43,36.52-47.09-16.6,18.97-37.54,35.18-61.65,41.27,11.63-9.52,20.95-22.39,26.32-36.52-8.88,13.34-20.14,26.19-34.39,33.53-.98,1.69-1.99,3.36-3.05,4.95-.47.71-.96,1.42-1.45,2.1-3,4.15-6.76,8.14-10.17,12.4,6.6-1.68,12.24-5.9,16.56-11.04-1.5,5.66-4.82,10.79-8.86,15.01,1.54-.41,4.83-1.27,7.81-1.9,5.57-1.17,11.23-1.87,16.89-1.61-.79.1-1.58.24-2.36.4-6.49,1.36-12.38,4.74-17.58,8.98,7.84-.44,15.98.77,22.84,4.53.85-.21,1.7-.4,2.54-.58,11.44-2.4,22.59-2.52,33.11-.68,21.5-4.36,44.24,1.7,64.27,11Z"/>
      <path class="cls-5" d="M190.47,280.75c1.86-9.71,1.47-19.51-.55-29.12-4.05-19.36-14.65-37.97-26.48-53.64-1.42-2.23-3.05-4.7-5.23-6.95,25.18,8.51,38.23,36.62,45.94,60.95-.49-4.45-1.19-8.96-2.14-13.45-4.32-20.64-13.55-41.02-28.71-55.15,15.64,5.67,31.14,13.09,44.14,23.52-8.96-12.63-21.08-25.09-35.11-31.88-10.39-1.76-21.41-1.62-32.7.75-.63.13-1.27.28-1.9.43,2.57,1.28,5.02,2.87,7.6,4.13-3.01-1.03-6.11-1.01-9.19-.37-3.84.8-7.62,2.57-11.13,4.46.13-.03.27-.07.4-.09,7.98-1.67,14.92,3.45,19.81,9.53-5.56-4.06-12.04-7.32-18.94-6.51,5.32,4.46,9.19,10.89,10.61,17.68.13.61.23,1.22.32,1.83-3.3-5.16-8.51-8.69-14.19-11.2,4.7,7.36,10.31,14.46,14.72,21.14,9.05,9.91,14.2,23.28,17.05,36.9.74,3.56,1.33,7.13,1.79,10.66,2.96-10.15,2.59-20.34.5-30.34-2.14-10.2-6.06-20.22-10.03-29.8,15.82,15.44,26.43,36.54,31.01,58.43,1.26,6.01,2.06,12.08,2.39,18.1Z"/>
      <path class="cls-5" d="M111.69,162.13c3.44-4.32,7.26-8.35,10.29-12.55,2.47-3.42,4.63-7.22,6.77-11.06,1.53-8.27,3.1-16.91,1.4-25-.31-1.47-.73-2.92-1.27-4.35-.16,11.17-2.5,22.97-8.26,32.65.04-.38.03-.74-.02-1.11.42-3.92.19-7.86-.61-11.68-2.06-9.82-7.78-18.94-15.32-25.4,1.8,3.44,3.15,7.21,3.96,11.07,2.14,10.23.52,21.15-6.4,28.6.69-4.11.59-8.46-.27-12.61-2.2-10.51-7.65-14.88-13.25-19.07,1.8,5.45,3.98,11.2,5.19,16.98,1.05,5,1.37,10.02.1,14.87-3.19-3.63-7.19-6.27-11.53-8.23,3.46,6.93,7.63,13.52,12.32,19.06,2.24-.95,2.95-3.8,2.87-6.28,1.25,2.58,3.76,3.32,6.09,2.84,2.61-.55,4.29-2.03,5.43-3.62-.44,2.01-.54,4.44-.05,6.79.06.27.17.53.33.77,2.31-.98,4.58-2.5,6.17-3.68-2.06,2.57-4.24,7.03-3.93,11Z"/>
      <path class="cls-14" d="M309.07,137.83c-8.37-39.95-43.45-73.47-85.47-64.67-22.95,4.81-72.24,40.29-52.25,36.1,2.92-.61,21.72-9.05,24.35-9.6,3.68-.77,7.75-.88,8.54,2.91,1.08,5.14-9.16,13.21-7.91,19.19.61,2.92,5.89,7.99,14.13,6.26,9.21-1.93,21.02-11.45,29.82-15.86-5.49,11.53-17.56,22.78-14.97,35.18,1.64,7.83,15.15,29.52,40.06,36.61-1.75.25-3.58.55-5.41.93-13.99,2.93-18.62,8.86-15.29,24.75,2.64,12.62,6.88,33.31,20.97,30.36,26.38-5.52,47.5-82.71,43.43-102.16ZM247.89,216.11c-4.74-22.63,15.32-30.96,21.12-32.18,1.89-.4,3.86-.51,5.9-.28-17.19-4.35-39.73-16.64-43.61-35.16-2.44-11.65,10.77-42.87,29.67-46.83,18.47-3.87,43.9,15.06,44.59,41.54.79,30.43-15.89,83.49-40.49,88.64-4.5.94-14.44-2.64-17.19-15.73Z"/>
      <path class="cls-4" d="M305.56,143.2c-.68-26.48-26.12-45.4-44.59-41.54-18.9,3.96-32.11,35.18-29.67,46.83,3.88,18.52,26.42,30.81,43.61,35.16-2.04-.24-4-.12-5.9.28-5.81,1.22-25.86,9.55-21.12,32.18,2.74,13.09,12.69,16.67,17.19,15.73,24.6-5.15,41.27-58.21,40.49-88.64ZM276.15,178.53c-11.51-35.59-19.07-32.45-21.84-45.7-3.15-15.02,7.47-24.5,15.5-26.18,7.52-1.57,14.48,1.96,19.76,7.82.56.63,1.11,1.28,1.63,1.96.1.12.19.23.29.35,4.24,5.09,7.82,9.72,9.3,16.81,3.55,16.94-4.8,49.73-15.72,52.02-4.48.94-7.52-2.73-8.93-7.08Z"/>
      <path class="cls-16" d="M300.8,133.59c-1.48-7.09-5.07-11.72-9.3-16.81-.01,0-.03-.02-.04-.02-.08-.11-.17-.22-.25-.33-.54-.64-1.08-1.29-1.63-1.96-5.28-5.86-12.25-9.4-19.76-7.82-8.03,1.68-18.65,11.16-15.5,26.18,2.77,13.25,10.34,10.11,21.84,45.7,1.4,4.34,4.45,8.01,8.93,7.08,10.92-2.29,19.27-35.08,15.72-52.02Z"/>
      <path class="cls-13" d="M202.32,173.78c-6.56-.37-13.12,0-19.57,1.3,34.78,6.07,62.52,33.54,70.37,70.98.91,4.37,1.39,8.25,1.51,11.77,2.07-.72,4.22-1.83,6.43-3.29-8.05-8.81-11.33-23.2-15.18-34.48-8.92-26.15-41.3-36.01-43.56-46.28Z"/>
      <path class="cls-4" d="M306.25,113.58c-10.21-18.44-28.55-33.43-48.19-40.76-12.29-4.58-25.09-6.18-36.72-3.74-20.39,4.27-31.45,20.57-57.94,32.51,22.22-9.31,38.51-26.28,60.76-30.94,26.43-5.53,60.64,9.71,82.09,42.93Z"/>
      <path class="cls-9" d="M313.37,132.41c-1.37-6.54-3.82-12.86-7.12-18.82-21.45-33.23-55.67-48.47-82.09-42.93-22.25,4.66-38.54,21.63-60.76,30.94-.04.02-.08.04-.12.05-3.12,1.4-6.46,2.75-10.05,4-12.61,4.4-17.46,14.41-20.55,25.87-2.11,3.62-4.1,7.39-6.2,11.01,14.25-7.34,25.52-20.19,34.39-33.53-5.37,14.13-14.68,27-26.32,36.52,24.1-6.09,45.04-22.3,61.65-41.27-12.63,17.66-28.56,31.44-36.52,47.09,5.17-.25,10.34-.93,15.44-2,19.21-4.02,37.67-13.41,53.31-24.57-18.88,15.69-36.47,34.95-61.05,40.16,27.68-3.86,59.2,1.1,79.62,21.15-14.03-6.51-29.38-11.43-44.7-12.3,2.26,10.27,34.63,20.13,43.56,46.28,3.85,11.28,7.13,25.68,15.18,34.48,26.32-17.34,60.37-83.65,52.31-122.14ZM244.67,209.64c-3.33-15.89,1.3-21.82,15.29-24.75,1.83-.38,3.66-.68,5.41-.93-24.91-7.09-38.42-28.79-40.06-36.61-2.6-12.4,9.48-23.65,14.97-35.18-8.8,4.41-20.61,13.93-29.82,15.86-8.24,1.73-13.52-3.34-14.13-6.26-1.25-5.99,8.99-14.05,7.91-19.19-.79-3.79-4.86-3.68-8.54-2.91-2.63.55-21.42,8.99-24.35,9.6-19.99,4.19,29.3-31.29,52.25-36.1,42.02-8.8,77.1,24.72,85.47,64.67,4.07,19.45-17.05,96.64-43.43,102.16-14.1,2.95-18.33-17.73-20.97-30.36Z"/>
      <path class="cls-15" d="M148.04,300.82c13.06-21.53,1.95-66.78,12.21-62.93-2.98-7.83-7.02-15.1-12.5-21.09,3.41,5.18,6.1,10.1,7.07,14.71.28,1.33.21,2.59-.51,3.69-14.43,22.09,12.27,69.57-29.93,85.32,2.18,2.23,4.44,4.34,6.74,6.36,2.27-10.44,10.75-15.88,16.92-26.05Z"/>
      <path class="cls-4" d="M252.78,248.25c3.11,14.87-1.98,24.29-6.16,36.11,4.92-7.62,8.36-15.17,7.99-26.53-.11-3.52-.59-7.4-1.51-11.77-6.53-31.19-26.88-55.46-53.6-66.2,16.87,10.2,44.06,24.43,53.27,68.39Z"/>
      <path class="cls-14" d="M226.35,307.72c16.82-17.48,26.63-41.61,22.12-63.17-4.51-21.55-20.62-32.2-30.14-30.21-10.93,2.29-10.6,19.54-8.63,28.98.4,1.92.91,3.82,1.5,5.71.38,4.24,1.06,8.35,1.78,11.8.71,3.38,1.57,6.73,2.5,10.05-3.78-7.17-7.91-14.22-15.41-17.85-.26-.13-.5-.16-.71-.11-3.92.82.47,22.6-2.78,50.2-12.06-15.68-14.99-34.89-30.77-31.59-14.06,2.95-4.95,17.34-14.37,28.96-5,6.17-15.11,12.35-13.63,19.39,3.52,16.79,34.83,25.8,59.52,20.63,20.45-4.28,19.44-22.83,29.02-32.79ZM151.02,321.58c-1.88-8.98,5.58-16.85,13.39-22.57,4.88-3.57,1.95-12.8,8.27-14.12,13.17-2.76,18.53,17.8,26.98,27.7-.11-.5-.22-1-.32-1.5-1.57-7.52,4.54-32.98,12.31-34.61,3.02-.63,4.46.7,5.25,1.87.86-.38,1.81-.64,2.65-.81,5.46-1.14,9.81,5.27,10.79,9.96,2.04,9.73-7.97,17.92-14.55,25.45-8.27,9.46-4.5,23.4-22.85,27.24-11.33,2.37-38.36-1.6-41.92-18.61Z"/>
      <path class="cls-9" d="M237.11,298.29c3.37-5.16,6.69-9.56,9.52-13.94,4.17-11.82,9.27-21.24,6.16-36.11-9.21-43.96-36.4-58.19-53.27-68.39-5.48-2.2-11.22-3.84-17.17-4.84,14.02,6.79,26.15,19.25,35.11,31.88-13-10.43-28.49-17.85-44.14-23.52,15.16,14.13,24.38,34.52,28.71,55.15.94,4.49,1.65,9,2.14,13.45-7.71-24.33-20.75-52.44-45.94-60.95,2.18,2.25,3.81,4.72,5.23,6.95,11.83,15.68,22.42,34.29,26.48,53.64,2.01,9.61,2.41,19.41.55,29.12-.33-6.03-1.14-12.09-2.39-18.1-4.58-21.89-15.19-42.98-31.01-58.43,3.97,9.58,7.89,19.59,10.03,29.8,2.09,10,2.47,20.19-.5,30.34-.46-3.53-1.05-7.1-1.79-10.66-1.13-5.37-2.61-10.71-4.55-15.81-10.26-3.85.84,41.4-12.21,62.93-6.17,10.17-14.64,15.6-16.92,26.05,18.76,16.42,41.06,25.41,61.49,21.14,41.1-8.61,39.51-42.08,44.5-49.71ZM137.81,319.89c-1.47-7.04,8.63-13.22,13.63-19.39,9.43-11.63.31-26.02,14.37-28.96,15.78-3.31,18.71,15.9,30.77,31.59,3.25-27.6-1.14-49.38,2.78-50.2.21-.04.45-.01.71.11,7.51,3.63,11.63,10.68,15.41,17.85-.94-3.32-1.8-6.67-2.5-10.05-.72-3.46-1.41-7.57-1.78-11.8-.59-1.89-1.1-3.79-1.5-5.71-1.98-9.44-2.3-26.69,8.63-28.98,9.52-1.99,25.63,8.66,30.14,30.21,4.51,21.56-5.3,45.69-22.12,63.17-9.59,9.96-8.57,28.51-29.02,32.79-24.69,5.17-56-3.84-59.52-20.63Z"/>
      <path class="cls-16" d="M149.73,105.15c-10.79,4.18-15.51,11.84-19.14,21.46-.39,3.99-1.12,8-1.85,11.92,1.3-2.34,2.59-4.7,3.94-7.01,3.09-11.46,7.94-21.47,20.55-25.87,34.15-11.93,45.28-31.78,68.1-36.56,11.64-2.44,24.44-.84,36.72,3.74-.65-.94-1.35-1.86-2.09-2.75-11.66-3.46-22.42-8.18-33.33-5.9-22.5,4.71-23.14,21.7-72.9,40.97Z"/>
      <path class="cls-16" d="M143.83,2.28c27.05-5.67,52.75,6.93,75.79,24.22-14.7-13.07-46.97-31.75-78.66-25.11-33.78,7.07-42.92,30.91-45.69,43.32,8.3-16.37,12.72-34.91,48.56-42.42Z"/>
      <path class="cls-9" d="M120.6,140.73c.06.36.06.73.02,1.11,5.76-9.68,8.1-21.48,8.26-32.65.54,1.43.97,2.88,1.27,4.35.89,4.25.87,8.66.44,13.08,3.62-9.63,8.34-17.28,19.14-21.46,49.76-19.27,50.41-36.26,72.9-40.97,10.91-2.28,21.67,2.44,33.33,5.9-4.56-5.53-10.78-10.24-17.68-13.73-6.96-3.52-7.37-13.28-10.86-20.88-.96-2.1-3.7-5.32-7.81-8.97C196.58,9.21,170.88-3.38,143.83,2.28c-35.84,7.51-40.26,26.04-48.56,42.42-.54,2.43-.85,4.43-1.04,5.77-.15,1.05-.24,1.71-.32,1.85-11.98,20.5-25.71,32.64-20.57,57.21,1.72,8.21,4.89,17.23,9.13,25.73,4.34,1.96,8.34,4.6,11.53,8.23,1.27-4.86.95-9.88-.1-14.87-1.21-5.78-3.39-11.53-5.19-16.98,5.6,4.19,11.05,8.56,13.25,19.07.87,4.14.96,8.5.27,12.61,6.91-7.45,8.54-18.38,6.4-28.6-.81-3.87-2.16-7.63-3.96-11.07,7.54,6.46,13.26,15.58,15.32,25.4.8,3.83,1.04,7.76.61,11.68ZM120.32,110.56c-2.78-13.29,2.31-20.21.51-28.81-.96-4.6-4.38-9.26-10.46-7.99-13.45,2.82-11.8,25.95-10.49,37.23-.25-.86-.46-1.56-.56-1.89-2.86-9.54-8.12-10.78-9.45-10.5-5.11,1.07-4.35,12.07-4.4,17.27-1.58-2.36-2.58-4.88-3.13-7.5-2.53-12.08,12.57-87.46,57.33-99.89,45.22-12.56,74.98,18.55,84.42,36.8,6.88,13.3-1.26,16.08-20.15,25.37-34.03,16.72-22.44,20.18-64.15,38.12,2.1-6.52,5.64-13.74,4.4-19.67-.98-4.67-5.67-8.96-10.46-7.96-4.72.99-14.34,12.43-11.15,35.71-1.11-1.99-1.95-4.86-2.25-6.29Z"/>
      <path class="cls-14" d="M120.83,81.75c1.8,8.59-3.29,15.52-.51,28.81.3,1.43,1.13,4.3,2.25,6.29-3.19-23.28,6.43-34.72,11.15-35.71,4.8-1,9.48,3.29,10.46,7.96,1.24,5.93-2.31,13.15-4.4,19.67,41.71-17.95,30.13-21.41,64.15-38.12,18.89-9.28,27.03-12.07,20.15-25.37-9.44-18.25-39.2-49.36-84.42-36.8-44.76,12.43-59.86,87.81-57.33,99.89.55,2.62,1.55,5.14,3.13,7.5.05-5.2-.71-16.2,4.4-17.27,1.33-.28,6.59.96,9.45,10.5.1.33.31,1.03.56,1.89-1.32-11.28-2.96-34.41,10.49-37.23,6.08-1.27,9.5,3.39,10.46,7.99ZM103.36,59.14c-2.88-8.14,13.58-40.35,47.04-43.65,34.72-3.42,61.3,13.74,65.16,32.17,3.92,18.69-40.16,33.7-42.88,34.27-22.45,4.7-22.89-14.11-31.81-12.24-5.83,1.22-13.5,8.07-16.77,13.36-.04-.25-.09-.49-.14-.73-2.83-13.5-16.44-11.38-20.61-23.16Z"/>
      <path class="cls-4" d="M124.11,83.04c3.27-5.28,10.93-12.13,16.77-13.36,8.92-1.87,9.35,16.94,31.81,12.24,2.71-.57,46.79-15.57,42.88-34.27-3.86-18.43-30.45-35.6-65.16-32.17-33.46,3.3-49.91,35.51-47.04,43.65,4.17,11.78,17.78,9.67,20.61,23.16.05.24.1.49.14.73Z"/>
      <path class="cls-16" d="M200.69,327.41c-2.71-12.92-12.9-30.46-26.39-27.64-7.2,1.51-20.64,11.31-17.96,24.1,2.52,12.03,17.43,13.29,29.63,13.22,2.83.93,5.8,1.6,8.47,1.04,3.23-.68,7.71-3.79,6.26-10.72Z"/>
      <path class="cls-4" d="M215.79,312.95c6.58-7.53,16.59-15.72,14.55-25.45-.98-4.69-5.34-11.1-10.79-9.96-.84.18-1.79.43-2.65.81-.79-1.17-2.23-2.5-5.25-1.87-7.77,1.63-13.88,27.09-12.31,34.61.1.5.21,1,.32,1.5-8.45-9.9-13.81-30.46-26.98-27.7-6.32,1.32-3.39,10.55-8.27,14.12-7.81,5.71-15.27,13.58-13.39,22.57,3.56,17.01,30.59,20.98,41.92,18.61,18.34-3.84,14.58-17.78,22.85-27.24ZM156.33,323.87c-2.68-12.79,10.76-22.59,17.96-24.1,13.49-2.83,23.69,14.72,26.39,27.64,1.45,6.93-3.03,10.04-6.26,10.72-2.67.56-5.65-.11-8.47-1.04-12.19.06-27.11-1.2-29.63-13.22Z"/>
      <path class="cls-1" d="M108.63,166.24c-.24.35-.46.7-.69,1.06,5,4.5,12.38,6.15,12.41,6.29.79,3.77,3.88,6.51,7.27,8.72.61-.01,1.22-.07,1.82-.2,0,0,.04-.02.11-.04.02,0,.05-.02.07-.03.05-.02.11-.04.19-.07.02,0,.03-.01.05-.02.03-.01.07-.03.1-.04.04-.02.08-.03.12-.05.06-.02.13-.05.2-.08.02,0,.04-.02.06-.02.07-.03.14-.06.22-.08.03-.01.06-.02.1-.04.07-.03.15-.06.23-.09.04-.02.08-.03.12-.05.08-.03.17-.07.26-.1.04-.02.09-.03.13-.05.09-.03.19-.07.28-.11.05-.02.09-.04.14-.05.1-.04.21-.08.32-.12.05-.02.09-.03.14-.05.11-.04.22-.08.34-.13.05-.02.11-.04.16-.06.12-.05.25-.09.37-.14.05-.02.09-.03.14-.05.13-.05.27-.1.41-.15.05-.02.1-.04.15-.05.14-.05.28-.1.42-.15.06-.02.11-.04.17-.06.14-.05.29-.1.44-.16.06-.02.12-.04.18-.06.15-.05.29-.1.44-.16.07-.02.13-.05.2-.07.15-.05.3-.11.46-.16.07-.02.14-.05.21-.07.16-.05.31-.11.47-.16.07-.02.14-.05.21-.07.16-.05.32-.11.49-.17.07-.02.15-.05.22-.07.16-.05.33-.11.49-.16.08-.03.16-.05.24-.08.17-.05.34-.11.51-.16.08-.03.16-.05.24-.08.17-.06.34-.11.52-.17.08-.03.16-.05.24-.08.17-.05.35-.11.52-.16.09-.03.18-.05.26-.08.17-.05.35-.11.52-.16.09-.03.18-.05.27-.08.18-.05.35-.11.53-.16.09-.03.18-.05.28-.08.18-.05.35-.1.53-.16.09-.03.19-.05.28-.08.18-.05.36-.1.54-.15.09-.03.18-.05.28-.08.18-.05.36-.1.54-.15.1-.03.19-.05.29-.08.18-.05.36-.1.54-.14.1-.03.2-.05.29-.08.18-.05.36-.09.54-.14.1-.03.2-.05.29-.07.18-.05.36-.09.54-.13.02,0,.05-.01.07-.02-6.86-3.76-15-4.97-22.84-4.53,5.2-4.24,11.09-7.62,17.58-8.98.78-.16,1.56-.3,2.36-.4-5.66-.25-11.31.45-16.89,1.61-2.98.62-6.27,1.48-7.81,1.9,4.04-4.22,7.36-9.34,8.86-15.01-4.32,5.15-9.96,9.36-16.56,11.04-.27.34-.53.68-.79,1.02-.29.37-.59.75-.87,1.13-.52.69-1.03,1.4-1.52,2.11Z"/>
      <path class="cls-1" d="M146.2,176.57c-.18.05-.36.09-.54.14-.1.03-.2.05-.29.08-.18.05-.36.1-.54.14-.1.03-.19.05-.29.08-.18.05-.36.1-.54.15-.09.03-.18.05-.28.08-.18.05-.36.1-.54.15-.09.03-.19.05-.28.08-.18.05-.35.1-.53.16-.09.03-.18.05-.28.08-.18.05-.35.11-.53.16-.09.03-.18.05-.27.08-.17.05-.35.11-.52.16-.09.03-.18.05-.26.08-.17.05-.35.11-.52.16-.08.03-.16.05-.24.08-.17.06-.35.11-.52.17-.08.03-.16.05-.24.08-.17.05-.34.11-.51.16-.08.03-.16.05-.24.08-.17.05-.33.11-.49.16-.07.02-.15.05-.22.07-.16.06-.33.11-.49.17-.07.02-.14.05-.21.07-.16.05-.32.11-.47.16-.07.02-.14.05-.21.07-.15.05-.31.11-.46.16-.07.02-.13.05-.2.07-.15.05-.3.1-.44.16-.06.02-.12.04-.18.06-.15.05-.29.1-.44.16-.06.02-.11.04-.17.06-.14.05-.28.1-.42.15-.05.02-.1.04-.15.05-.14.05-.28.1-.41.15-.05.02-.09.03-.14.05-.13.05-.25.09-.37.14-.05.02-.11.04-.16.06-.12.04-.23.09-.34.13-.05.02-.09.03-.14.05-.11.04-.21.08-.32.12-.05.02-.1.04-.14.05-.1.04-.19.07-.28.11-.05.02-.09.03-.13.05-.09.03-.18.07-.26.1-.04.02-.08.03-.12.05-.08.03-.15.06-.23.09-.03.01-.07.03-.1.04-.07.03-.15.06-.22.08-.02,0-.04.02-.06.02-.07.03-.14.05-.2.08-.04.02-.08.03-.12.05-.03.01-.07.03-.1.04-.02,0-.03.01-.05.02-.07.03-.13.05-.19.07-.02,0-.05.02-.07.03-.07.03-.11.04-.11.04-.6.13-1.21.19-1.82.2,1.96,1.28,4.03,2.39,5.81,3.42-2.33.64-2.73,3.19-2.74,5.36-.31-.34-.64-.68-.97-1.01.03.06.06.12.1.18.13.24.26.47.4.71.16.29.33.58.5.88.14.24.27.47.41.71.17.29.35.59.53.88.14.23.28.47.42.7.31.51.63,1.02.96,1.53,5.68,2.51,10.88,6.04,14.19,11.2-.09-.61-.19-1.23-.32-1.83-1.42-6.79-5.29-13.22-10.61-17.68,6.9-.81,13.38,2.45,18.94,6.51-4.89-6.07-11.83-11.2-19.81-9.53-.13.03-.27.06-.4.09,3.5-1.89,7.29-3.66,11.13-4.46,3.07-.64,6.18-.66,9.19.37-2.58-1.26-5.02-2.86-7.6-4.13-.24.06-.47.11-.71.17-.18.04-.36.09-.54.13-.1.02-.2.05-.29.07Z"/>
      <path class="cls-7" d="M134.43,180.23c.14-.05.29-.1.44-.16-.15.05-.29.1-.44.16Z"/>
      <path class="cls-7" d="M129.62,182.04c.05-.02.11-.04.19-.07-.07.03-.13.05-.19.07Z"/>
      <path class="cls-7" d="M139.23,178.59c.17-.06.34-.11.52-.17-.17.06-.35.11-.52.17Z"/>
      <path class="cls-7" d="M129.86,181.95s.07-.03.1-.04c-.03.01-.07.03-.1.04Z"/>
      <path class="cls-7" d="M129.44,182.12s.04-.02.11-.04c-.07.03-.11.04-.11.04Z"/>
      <path class="cls-7" d="M131.39,181.36c.09-.03.19-.07.28-.11-.1.04-.19.07-.28.11Z"/>
      <path class="cls-7" d="M130.65,181.64c.07-.03.15-.06.23-.09-.08.03-.15.06-.23.09Z"/>
      <path class="cls-7" d="M132.77,180.84c.12-.05.25-.09.37-.14-.13.05-.25.09-.37.14Z"/>
      <path class="cls-7" d="M132.27,181.02c.11-.04.22-.08.34-.13-.12.04-.23.09-.34.13Z"/>
      <path class="cls-7" d="M139.99,178.35c.17-.05.35-.11.52-.16-.17.05-.35.11-.52.16Z"/>
      <path class="cls-7" d="M140.78,178.11c.17-.05.35-.11.52-.16-.17.05-.35.11-.52.16Z"/>
      <path class="cls-7" d="M135.69,179.78c.15-.05.3-.11.46-.16-.16.05-.31.11-.46.16Z"/>
      <path class="cls-7" d="M131,181.5c.08-.03.17-.07.26-.1-.09.03-.18.07-.26.1Z"/>
      <path class="cls-7" d="M130.08,181.86c.06-.02.13-.05.2-.08-.07.03-.14.05-.2.08Z"/>
      <path class="cls-7" d="M136.36,179.55c.16-.05.31-.11.47-.16-.16.05-.32.11-.47.16Z"/>
      <path class="cls-7" d="M138.49,178.84c.17-.05.34-.11.51-.16-.17.06-.34.11-.51.16Z"/>
      <path class="cls-7" d="M131.82,181.19c.1-.04.21-.08.32-.12-.11.04-.21.08-.32.12Z"/>
      <path class="cls-7" d="M130.34,181.76c.07-.03.14-.06.22-.08-.08.03-.15.06-.22.08Z"/>
      <path class="cls-7" d="M133.29,180.65c.13-.05.27-.1.41-.15-.14.05-.28.1-.41.15Z"/>
      <path class="cls-7" d="M135.05,180.01c.15-.05.29-.1.44-.16-.15.05-.3.1-.44.16Z"/>
      <path class="cls-7" d="M133.85,180.44c.14-.05.28-.1.42-.15-.14.05-.28.1-.42.15Z"/>
      <path class="cls-7" d="M137.05,179.32c.16-.05.32-.11.49-.17-.16.06-.33.11-.49.17Z"/>
      <path class="cls-7" d="M137.76,179.08c.16-.05.33-.11.49-.16-.17.05-.33.11-.49.16Z"/>
      <path class="cls-7" d="M145.66,176.71c.18-.05.36-.09.54-.14-.18.05-.36.09-.54.14Z"/>
      <path class="cls-7" d="M147.03,176.36c-.18.04-.36.09-.54.13.18-.05.36-.09.54-.13Z"/>
      <path class="cls-7" d="M141.57,177.86c.18-.05.35-.11.53-.16-.18.05-.35.11-.53.16Z"/>
      <path class="cls-7" d="M144,177.16c.18-.05.36-.1.54-.15-.18.05-.36.1-.54.15Z"/>
      <path class="cls-7" d="M144.83,176.93c.18-.05.36-.1.54-.14-.18.05-.36.1-.54.14Z"/>
      <path class="cls-7" d="M142.37,177.62c.18-.05.35-.1.53-.16-.18.05-.35.1-.53.16Z"/>
      <path class="cls-7" d="M143.18,177.39c.18-.05.36-.1.54-.15-.18.05-.36.1-.54.15Z"/>
      <path class="cls-7" d="M132.08,194.12c-.14-.23-.28-.46-.42-.7.14.23.28.47.42.7Z"/>
      <path class="cls-7" d="M130.21,190.96c-.13-.24-.26-.47-.4-.71.13.24.26.47.4.71Z"/>
      <path class="cls-7" d="M131.13,192.55c-.14-.24-.28-.47-.41-.71.14.24.27.47.41.71Z"/>
      <path class="cls-1" d="M96.34,156.1c.09.1.17.2.26.29.2.22.4.43.6.65.1.11.2.22.31.33.19.2.39.4.58.6.11.11.22.23.33.34.19.19.38.38.58.57.12.11.23.23.35.34.2.19.4.38.6.57.11.1.22.21.33.31.17.15.34.3.5.45.98-.88,1.86-1.9,2.67-2.96-.04.95.04,1.87.22,2.75.6,2.85,2.24,5.14,4.26,6.96.23-.35.45-.71.69-1.06.49-.71,1-1.42,1.52-2.11.28-.38.58-.75.87-1.13.23-.29.45-.58.67-.87-.3-3.96,1.87-8.42,3.93-11-1.59,1.18-3.87,2.7-6.17,3.68-.15-.24-.27-.5-.33-.77-.49-2.35-.38-4.77.05-6.79-1.15,1.59-2.82,3.07-5.43,3.62-2.33.49-4.83-.26-6.09-2.84.08,2.48-.63,5.32-2.87,6.28.23.28.47.55.71.82.07.08.14.17.22.25.21.24.42.47.64.71Z"/>
      <path class="cls-7" d="M111.02,163c-.29.38-.59.75-.87,1.13.28-.38.58-.75.87-1.13Z"/>
      <path class="cls-7" d="M100.28,160.1c-.11-.1-.22-.21-.33-.31.11.1.22.21.33.31Z"/>
      <path class="cls-7" d="M96.61,156.4c-.09-.1-.18-.19-.26-.29.09.1.17.2.26.29Z"/>
      <path class="cls-7" d="M95.49,155.15c.07.08.14.17.22.25-.07-.08-.14-.17-.22-.25Z"/>
      <path class="cls-7" d="M97.51,157.37c-.1-.11-.2-.22-.31-.33.1.11.2.22.31.33Z"/>
      <path class="cls-7" d="M98.43,158.31c-.11-.11-.22-.23-.33-.34.11.11.22.23.33.34Z"/>
      <path class="cls-7" d="M99.35,159.22c-.12-.11-.23-.23-.35-.34.12.11.23.23.35.34Z"/>
      <path class="cls-2" d="M109.27,173.44c1.55,1.07,3.14,2.21,4.76,3.3h0s0,0,0,0c0,0,0,0,0,0-1.62-1.09-3.22-2.23-4.76-3.3Z"/>
      <path class="cls-10" d="M109.27,173.44c1.55,1.07,3.14,2.21,4.76,3.3,0,0,0,0,0,0,3.97,2.67,8.09,5.05,12.04,5.5.52.06,1.03.08,1.55.07-3.39-2.21-6.48-4.95-7.27-8.72-.03-.14-7.41-1.8-12.41-6.29-.6.92-1.17,1.86-1.7,2.82.94,1.21,1.96,2.33,3.02,3.32Z"/>
      <path class="cls-10" d="M126.71,183.86c.08.18.16.36.23.54.15.35.3.71.46,1.06.1.22.2.43.3.65.15.32.3.64.45.96.11.23.22.46.34.68.15.3.31.61.47.91.12.23.25.47.37.7.13.24.26.47.39.71.33.34.66.68.97,1.01.01-2.16.4-4.71,2.74-5.36-1.78-1.03-3.85-2.14-5.81-3.42-.51.01-1.03-.01-1.55-.07.2.54.41,1.08.64,1.61Z"/>
      <path class="cls-10" d="M101.23,160.94c.32.28.63.55.95.81.06.05.11.1.17.14-.04.07-.08.14-.12.22,0,.02,0,.05,0,.06.55,2.63,2.08,5.45,4.01,7.94.52-.96,1.1-1.9,1.7-2.82-2.03-1.82-3.67-4.11-4.26-6.96-.18-.88-.26-1.79-.22-2.75-.81,1.06-1.69,2.08-2.67,2.96.05.04.1.09.15.13.1.09.19.18.29.26Z"/>
      <path class="cls-6" d="M105.59,175.95c-1.61.07-3.15-.33-4.46-1.06,0,0,0,0,0,0,2.01,10.23,52.2-1.24,99.36,6.78-31.41-11.33-64.43-7.05-94.9-5.72Z"/>
      <path class="cls-12" d="M232.61,189.16c-25.21-17.7-71.7-22.37-101.1-21.72-6.28-.49-14.3-1.18-20.97.49-2.7.68-5.5,1.94-7.34,3.4-.42.33-.78.67-1.08,1.01,36.54-7.5,92.43-3.54,130.49,16.82Z"/>
      <path class="cls-8" d="M232.61,189.16c-38.07-20.36-93.95-24.32-130.49-16.82-.75.84-1.14,1.72-.98,2.55,1.31.73,2.85,1.13,4.46,1.06,30.46-1.33,63.48-5.61,94.9,5.72,13.39,2.28,26.54,6.12,38.28,12.48-1.87-1.77-3.93-3.43-6.16-5Z"/>
      <g>
        <path class="cls-12" d="M251.92,198.08c.73-.45,1.42-1.72.97-2.4-.31-.48-1.16-.73-1.94-.25-.21.13-.5.45-.76.81.15.46.39.91.61,1.26.2.31.42.57.65.78.14-.04.28-.09.4-.16.02-.01.04-.02.06-.04Z"/>
        <path class="cls-11" d="M253.82,198.3s.05-.03.07-.05c.83-.92.97-1.77.75-2.11-.12-.18-.21-.37-.33-.55-.66-1.01-2.19-1.63-3.41-1.78-.01,0-.02.01-.03.02-.94.58-.96,1.54-.67,2.41.26-.36.55-.68.76-.81.78-.48,1.63-.23,1.94.25.44.68-.24,1.95-.97,2.4-.02.01-.04.02-.06.04-.12.07-.25.12-.4.16.59.53,1.33.66,2.36.02Z"/>
        <path class="cls-3" d="M254.31,195.59c.12.18.21.37.33.55.22.34.08,1.19-.75,2.11,1.91-1.24,1.45-3.22.93-4.03-.12-.18-.28-.34-.46-.42-1.01-.47-2.44-.6-3.46,0,1.22.15,2.76.77,3.41,1.78Z"/>
      </g>
      <g>
        <path class="cls-12" d="M253.42,202.92c.25.39.68.63,1.17.76.05-.02.1-.04.15-.07.49-.3.94-1.06.62-1.55-.22-.33-.91-.84-1.53-1.04-.6.45-.78,1.33-.41,1.9Z"/>
        <path class="cls-3" d="M255.53,203.78s-.05.03-.07.04c.64.03,1.23-.08,1.5-.25.7-.43.86-1.91.31-2.75h0c-.27-.42-1.46-.37-2.37-.18.66.15,1.35.46,1.61.85.55.85-.34,1.9-.98,2.29Z"/>
        <path class="cls-11" d="M254.74,203.61s-.1.05-.15.07c.28.08.58.12.87.14.02-.01.05-.03.07-.04.64-.4,1.53-1.44.98-2.29-.26-.39-.95-.71-1.61-.85-.43.09-.8.2-.98.31-.03.02-.06.05-.09.07.61.2,1.31.71,1.53,1.04.32.49-.13,1.25-.62,1.55Z"/>
      </g>
      <g>
        <path class="cls-11" d="M248.46,205.84c.68-.42.96-1.91.47-3.08-.31-.14-.68-.25-1.09-.3.18.24.36.51.42.6,0,0,.01.02.02.03.19.29,0,1.01-.68,1.43-.9.56-1.8-.02-2.29-.78-.08-.12-.14-.25-.19-.38-.26.37-.3.89.2,1.65,0,0,0,0,0,0,1.4.73,2.81,1.01,3.13.82Z"/>
        <path class="cls-3" d="M249.73,205.5c.1-.7.13-1.37-.03-1.99-.02-.09-.06-.18-.11-.26-.11-.17-.35-.34-.66-.48.49,1.17.21,2.66-.47,3.08-.32.2-1.74-.08-3.13-.82.79,1.21,2.59,2.05,3.87,1.26.3-.18.49-.44.54-.79Z"/>
        <path class="cls-12" d="M247.6,204.52c.67-.42.87-1.14.68-1.43,0,0-.01-.02-.02-.03-.07-.09-.24-.36-.42-.6-.7-.09-1.48-.02-2.11.36-.24.15-.46.32-.61.54.05.13.12.26.19.38.49.76,1.39,1.33,2.29.78Z"/>
      </g>
      <g>
        <path class="cls-11" d="M242.04,200.6c.6-.37,1.27-1.68,1.61-3.03-.45-.09-1.14-.12-1.88-.04.19.16.37.33.51.55.02.02.03.05.05.07.31.48-.21,1.35-.82,1.72-.54.33-1.93.66-2.65-.45-.07-.11-.14-.29-.21-.51-.17.27-.26.57-.23.88,1.06.87,2.56,1.47,3.62.81Z"/>
        <path class="cls-3" d="M244.21,197.96c-.01-.07-.03-.14-.07-.19-.06-.09-.24-.16-.49-.21-.34,1.36-1.01,2.66-1.61,3.03-1.06.66-2.56.06-3.62-.81.02.23.09.47.25.71.49.75,2.36,1.91,3.75,1.05.92-.57,1.23-1.15,1.53-1.85.25-.59.35-1.18.26-1.73Z"/>
        <path class="cls-12" d="M241.51,199.87c.61-.38,1.13-1.24.82-1.72-.02-.03-.03-.05-.05-.07-.14-.22-.32-.4-.51-.55-.84.09-1.75.31-2.43.73-.29.18-.53.41-.69.66.06.22.14.4.21.51.72,1.11,2.11.78,2.65.45Z"/>
      </g>
      <g>
        <path class="cls-12" d="M240.68,190.87c.92.57,2.91.55,3.64-.41.51-.67.48-1.84-.5-2.44-.26-.16-.82-.3-1.41-.37-.56.48-1.05,1.04-1.42,1.54-.33.44-.59.86-.77,1.27.12.14.25.27.38.36.02.02.05.03.08.05Z"/>
        <path class="cls-11" d="M241.21,193.25s.06.03.1.05c1.59.38,2.78,0,3.14-.49.19-.25.41-.49.6-.74,1.07-1.42,1.24-3.64.92-5.17-.01,0-.02-.02-.04-.03-1.19-.73-2.47-.13-3.52.77.59.07,1.15.21,1.41.37.98.6,1.01,1.77.5,2.44-.72.96-2.72.98-3.64.41-.03-.02-.05-.03-.08-.05-.14-.1-.26-.22-.38-.36-.45,1.04-.32,1.99.99,2.79Z"/>
        <path class="cls-3" d="M245.04,192.07c-.19.25-.41.49-.6.74-.36.48-1.55.86-3.14.49,2.48,1.44,4.94-.38,5.79-1.51.19-.25.33-.55.37-.81.19-1.49-.24-3.26-1.5-4.07.32,1.53.15,3.74-.92,5.17Z"/>
      </g>
      <g>
        <path class="cls-12" d="M232.11,194.62c-.41.55-.55,1.21-.52,1.87.05.04.1.1.16.13.62.38,1.82.42,2.34-.27.35-.47.73-1.62.74-2.47-.86-.42-2.11-.06-2.72.74Z"/>
        <path class="cls-3" d="M231.87,197.66s-.06-.04-.08-.06c.23.77.63,1.4.97,1.61.88.54,2.93-.23,3.82-1.42h0c.44-.59-.14-1.96-.77-2.91.09.87-.03,1.89-.45,2.44-.91,1.21-2.69.83-3.49.33Z"/>
        <path class="cls-11" d="M231.75,196.62c-.06-.04-.1-.09-.16-.13.01.39.08.77.19,1.12.03.02.06.04.08.06.81.5,2.59.87,3.49-.33.42-.56.54-1.57.45-2.44-.3-.45-.62-.81-.84-.95-.04-.03-.09-.04-.14-.06,0,.85-.38,2-.74,2.47-.52.69-1.72.65-2.34.27Z"/>
      </g>
      <g>
        <path class="cls-11" d="M226.83,193.84c.86.53,2.97-.1,4.32-1.44.05-.45.04-.96-.06-1.47-.24.37-.53.75-.62.89,0,.01-.02.03-.03.04-.31.41-1.36.65-2.21.12-1.13-.7-.75-2.13.06-3.19.12-.16.27-.32.42-.47-.61-.06-1.32.22-2.13,1.3,0,0,0,0,0,.01-.38,2.12-.15,3.97.26,4.22Z"/>
        <path class="cls-3" d="M227.85,195.11c.98-.33,1.89-.74,2.65-1.33.11-.09.21-.19.29-.3.18-.24.31-.63.36-1.09-1.35,1.34-3.46,1.97-4.32,1.44-.4-.25-.64-2.1-.26-4.22-1.28,1.72-1.63,4.37-.02,5.36.37.23.8.29,1.29.12Z"/>
        <path class="cls-12" d="M228.24,191.98c.84.52,1.9.28,2.21-.12,0-.01.02-.03.03-.04.09-.14.38-.52.62-.89-.18-.89-.61-1.76-1.39-2.24-.3-.18-.62-.34-.98-.37-.15.15-.3.31-.42.47-.8,1.07-1.18,2.5-.06,3.19Z"/>
      </g>
      <g>
        <path class="cls-11" d="M234.02,185.41c.76.47,2.79.41,4.76-.07-.07-.59-.33-1.42-.75-2.24-.13.32-.29.65-.52.96-.03.03-.05.07-.08.11-.51.68-1.89.62-2.66.15-.68-.42-1.71-1.84-.54-3.4.12-.16.33-.36.59-.58-.43-.03-.87.07-1.27.3-.71,1.81-.86,3.96.47,4.78Z"/>
        <path class="cls-3" d="M238.48,186.25c.1-.06.17-.13.22-.2.09-.12.11-.38.08-.71-1.96.48-4,.54-4.76.07-1.34-.82-1.18-2.97-.47-4.78-.3.17-.59.41-.84.75-.8,1.06-1.54,4.01.2,5.09,1.16.72,2.07.7,3.14.59.9-.09,1.72-.35,2.43-.81Z"/>
        <path class="cls-12" d="M234.77,184.31c.76.47,2.15.52,2.66-.15.03-.04.05-.07.08-.11.23-.31.39-.64.52-.96-.48-.93-1.17-1.85-2.03-2.38-.37-.23-.77-.35-1.18-.38-.26.22-.47.42-.59.58-1.17,1.56-.14,2.98.54,3.4Z"/>
      </g>
      <g>
        <path class="cls-12" d="M220.21,188.95c.16,1.09-.71,2.92-1.95,3.17-.87.18-1.99-.35-2.15-1.51-.04-.31.06-.88.24-1.46.7-.31,1.46-.52,2.1-.65.56-.12,1.09-.17,1.56-.16.08.17.15.34.19.51,0,.03.01.06.02.09Z"/>
        <path class="cls-11" d="M222.29,190.45s0,.07,0,.11c-.31,1.62-1.2,2.56-1.81,2.69-.33.07-.65.17-.98.24-1.84.38-4.05-.41-5.4-1.36,0-.02,0-.03-.01-.05-.2-1.4.93-2.33,2.25-2.91-.19.57-.29,1.15-.24,1.46.17,1.16,1.28,1.68,2.15,1.51,1.24-.26,2.11-2.08,1.95-3.17,0-.03,0-.06-.02-.09-.03-.17-.1-.34-.19-.51,1.2.03,2.06.56,2.29,2.1Z"/>
        <path class="cls-3" d="M219.51,193.48c.33-.07.65-.17.98-.24.62-.13,1.5-1.06,1.81-2.69.34,2.9-2.47,4.39-3.94,4.69-.33.07-.67.07-.95,0-1.53-.46-3.06-1.62-3.3-3.12,1.35.95,3.56,1.74,5.4,1.36Z"/>
      </g>
      <g>
        <path class="cls-11" d="M228.02,179.98c.15,1.01-1.37,2.69-3.24,3.36-.46-.14-.95-.38-1.4-.69.46-.06.95-.17,1.12-.19.02,0,.03,0,.05,0,.53-.11,1.21-.98,1.06-1.98-.19-1.34-1.74-1.6-3.12-1.31-.21.04-.43.11-.64.19.2-.59.78-1.12,2.17-1.4,0,0,0,0,.01,0,2.22.56,3.91,1.56,3.98,2.04Z"/>
        <path class="cls-3" d="M228.82,181.46c-.74.76-1.52,1.43-2.42,1.88-.13.07-.27.11-.41.14-.31.06-.74.01-1.21-.13,1.87-.67,3.39-2.35,3.24-3.36-.07-.48-1.76-1.48-3.98-2.04,2.21-.45,4.93.36,5.21,2.27.06.44-.06.86-.43,1.24Z"/>
        <path class="cls-12" d="M225.62,180.48c.14,1-.54,1.87-1.06,1.98-.02,0-.03,0-.05,0-.17.03-.66.13-1.12.19-.78-.54-1.45-1.31-1.58-2.24-.05-.35-.06-.72.06-1.06.21-.08.43-.14.64-.19,1.38-.28,2.93-.02,3.12,1.31Z"/>
      </g>
      <g>
        <path class="cls-11" d="M216.46,176.69c.13.9-.8,2.75-2.1,4.35-.54-.31-1.23-.91-1.85-1.65.37.02.75.01,1.15-.07.04,0,.09-.02.14-.03.87-.18,1.41-1.48,1.28-2.38-.12-.8-1.05-2.36-3.07-1.95-.2.04-.49.15-.81.3.16-.41.43-.77.83-1.04,2.06.12,4.2.89,4.43,2.48Z"/>
        <path class="cls-3" d="M215.37,181.16c-.1.06-.2.1-.29.12-.16.03-.42-.06-.72-.23,1.3-1.6,2.23-3.45,2.1-4.35-.23-1.58-2.38-2.36-4.43-2.48.3-.21.65-.37,1.08-.45,1.37-.28,4.55.29,4.84,2.36.2,1.38-.2,2.2-.77,3.14-.47.79-1.08,1.44-1.82,1.89Z"/>
        <path class="cls-12" d="M215.08,176.91c.13.9-.41,2.2-1.28,2.38-.05,0-.09.02-.14.03-.4.08-.78.09-1.15.07-.7-.84-1.3-1.87-1.44-2.88-.06-.44-.01-.86.13-1.25.32-.15.61-.26.81-.3,2.01-.41,2.95,1.14,3.07,1.95Z"/>
      </g>
      <g>
        <path class="cls-12" d="M204.45,185.77c1.56.29,3.45,2.09,2.98,3.66-.32,1.1-1.75,2.19-3.41,1.89-.44-.08-1.15-.45-1.79-.91.04-.96.25-1.94.49-2.75.21-.71.47-1.35.79-1.91.28-.03.56-.03.81,0,.04,0,.09.01.13.02Z"/>
        <path class="cls-11" d="M207.81,183.96c.05,0,.1.03.15.04,1.97,1.07,2.65,2.51,2.42,3.29-.12.41-.19.84-.32,1.25-.69,2.32-3.18,4.59-5.32,5.77-.02,0-.05,0-.07,0-2.01-.37-2.52-2.09-2.44-3.89.65.46,1.35.83,1.79.91,1.66.3,3.09-.78,3.41-1.89.46-1.57-1.42-3.38-2.98-3.66-.04,0-.09-.01-.13-.02-.25-.03-.52-.02-.81,0,.82-1.4,2.08-2.19,4.3-1.79Z"/>
        <path class="cls-3" d="M210.07,188.54c.12-.41.19-.84.32-1.25.23-.78-.45-2.22-2.42-3.29,4.1.85,4.27,4.79,3.72,6.65-.12.41-.34.82-.63,1.11-1.6,1.6-4.15,2.9-6.32,2.54,2.15-1.18,4.64-3.44,5.32-5.77Z"/>
      </g>
      <g>
        <path class="cls-12" d="M199.79,173.49c.26-.89.93-1.65,1.74-2.25.1,0,.21,0,.31.02,1.04.19,2.25,1.23,1.91,2.36-.23.77-1.24,2.21-2.26,3.03-1.33-.37-2.09-1.84-1.7-3.15Z"/>
        <path class="cls-3" d="M203.21,170.35s-.1-.01-.15-.02c1.15-.53,2.28-.77,2.86-.66,1.5.27,2.53,2.85,1.95,4.79h0c-.29.97-2.48,1.75-4.23,2.09,1.13-.75,2.24-1.83,2.5-2.74.58-1.97-1.57-3.21-2.94-3.46Z"/>
        <path class="cls-11" d="M201.84,171.25c-.1-.02-.21,0-.31-.02.48-.36,1-.66,1.52-.9.05,0,.1,0,.15.02,1.37.25,3.52,1.49,2.94,3.46-.27.91-1.37,1.99-2.5,2.74-.83.16-1.57.22-1.94.16-.07-.01-.14-.04-.21-.06,1.02-.82,2.03-2.26,2.26-3.03.33-1.13-.87-2.17-1.91-2.36Z"/>
      </g>
      <g>
        <path class="cls-11" d="M194.95,168.76c1.67.31,3.13,3.19,2.77,6.07-.56.55-1.29,1.1-2.11,1.56.25-.66.45-1.37.54-1.62,0-.02.02-.05.02-.07.23-.77-.61-2.12-2.26-2.42-2.21-.4-3.77,1.57-4.36,3.58-.09.31-.15.63-.19.96-.76-.57-1.14-1.61-.54-3.65,0,0,0-.01,0-.02,2.52-2.73,5.33-4.53,6.12-4.39Z"/>
        <path class="cls-3" d="M197.83,168.41c.62,1.38,1.06,2.78,1.09,4.22,0,.21-.03.43-.09.63-.13.45-.54,1.01-1.11,1.57.36-2.88-1.1-5.77-2.77-6.07-.79-.14-3.6,1.65-6.12,4.39.96-3.23,4.25-6.52,7.4-5.94.73.13,1.28.5,1.6,1.2Z"/>
        <path class="cls-12" d="M193.92,172.27c1.65.3,2.49,1.65,2.26,2.42,0,.02-.02.05-.02.07-.09.25-.29.96-.54,1.62-1.42.8-3.11,1.31-4.64,1.03-.58-.11-1.15-.28-1.6-.61.04-.33.09-.65.19-.96.59-2.01,2.15-3.99,4.36-3.58Z"/>
      </g>
      <g>
        <path class="cls-11" d="M189.17,186.78c1.28.23,3.16,2.12,4.46,4.34-.77.5-2.01,1.06-3.41,1.47.26-.42.5-.88.65-1.39.02-.06.03-.11.05-.17.33-1.1-1.07-2.3-2.36-2.53-1.15-.21-3.84.22-4.6,2.77-.08.26-.12.64-.12,1.08-.45-.36-.75-.84-.86-1.42,1.49-2.37,3.92-4.56,6.19-4.15Z"/>
        <path class="cls-3" d="M194.44,189.98c.02.14,0,.27-.03.39-.06.2-.35.47-.78.75-1.3-2.22-3.18-4.11-4.46-4.34-2.27-.41-4.69,1.78-6.19,4.15-.08-.44-.07-.93.09-1.47.51-1.73,3.34-5.22,6.3-4.68,1.97.36,2.81,1.19,3.71,2.25.76.9,1.23,1.88,1.35,2.95Z"/>
        <path class="cls-12" d="M188.57,188.5c1.29.24,2.69,1.43,2.36,2.53-.02.06-.03.12-.05.17-.15.51-.39.96-.65,1.39-1.58.46-3.34.72-4.8.46-.63-.11-1.16-.36-1.59-.7,0-.44.05-.82.12-1.08.75-2.55,3.44-2.98,4.6-2.77Z"/>
      </g>
      <g>
        <path class="cls-12" d="M179.63,167.03c1.06.66,3.36.64,4.2-.48.58-.78.55-2.12-.58-2.82-.3-.19-.95-.35-1.63-.43-.64.55-1.21,1.2-1.64,1.78-.38.5-.68.99-.88,1.47.14.16.28.31.44.42.03.02.06.04.09.06Z"/>
        <path class="cls-11" d="M180.24,169.78s.07.04.11.06c1.83.43,3.21,0,3.62-.56.22-.29.47-.57.69-.86,1.23-1.64,1.43-4.2,1.06-5.96-.02-.01-.03-.02-.04-.03-1.37-.84-2.85-.15-4.06.89.68.08,1.32.24,1.63.43,1.13.7,1.16,2.04.58,2.82-.84,1.11-3.13,1.13-4.2.48-.03-.02-.06-.04-.09-.06-.16-.11-.31-.26-.44-.42-.52,1.2-.37,2.3,1.14,3.22Z"/>
        <path class="cls-3" d="M184.66,168.42c-.22.29-.47.57-.69.86-.41.55-1.79,1-3.62.56,2.86,1.67,5.7-.43,6.68-1.75.22-.29.38-.63.42-.94.22-1.72-.28-3.76-1.73-4.69.37,1.77.18,4.32-1.06,5.96Z"/>
      </g>
      <g>
        <path class="cls-12" d="M195.07,182.75c-.47.63-.63,1.4-.6,2.15.06.05.11.11.18.15.71.44,2.1.49,2.7-.31.41-.54.84-1.87.85-2.85-.99-.48-2.44-.07-3.13.86Z"/>
        <path class="cls-3" d="M194.79,186.26s-.06-.05-.1-.07c.27.89.73,1.62,1.12,1.86,1.02.63,3.38-.26,4.41-1.64h0c.51-.68-.16-2.26-.89-3.36.1,1-.03,2.18-.52,2.82-1.04,1.39-3.1.96-4.03.38Z"/>
        <path class="cls-11" d="M194.65,185.05c-.07-.04-.12-.1-.18-.15.02.44.1.88.22,1.29.03.02.06.05.1.07.93.57,2.98,1.01,4.03-.38.48-.64.62-1.81.52-2.82-.35-.52-.71-.94-.97-1.1-.05-.03-.11-.05-.16-.07,0,.98-.44,2.31-.85,2.85-.6.8-1.99.75-2.7.31Z"/>
      </g>
      <g>
        <path class="cls-11" d="M171.45,189.93c1.16.29,3.32-1.06,4.37-2.93-.1-.5-.31-1.04-.61-1.56-.14.47-.33.97-.38,1.15,0,.02-.01.04-.02.05-.2.54-1.31,1.13-2.45.84-1.53-.39-1.62-2.04-1.1-3.45.08-.22.19-.43.31-.64-.71.13-1.41.66-1.94,2.08,0,0,0,.01,0,.02.34,2.4,1.27,4.3,1.82,4.44Z"/>
        <path class="cls-3" d="M173.06,190.97c.99-.67,1.87-1.4,2.52-2.27.1-.13.17-.27.22-.41.12-.32.12-.77.01-1.28-1.04,1.87-3.21,3.22-4.37,2.93-.55-.14-1.48-2.05-1.82-4.44-.83,2.25-.26,5.21,1.92,5.76.5.13,1.01.06,1.51-.28Z"/>
        <path class="cls-12" d="M172.36,187.48c1.15.29,2.25-.3,2.45-.84,0-.02.01-.03.02-.05.05-.18.24-.67.38-1.15-.52-.9-1.33-1.7-2.39-1.96-.4-.1-.83-.16-1.25-.09-.12.21-.23.43-.31.64-.52,1.4-.43,3.06,1.1,3.45Z"/>
      </g>
      <g>
        <path class="cls-11" d="M179.62,181.98c.87.54,3.22.47,5.49-.08-.08-.68-.38-1.63-.87-2.59-.15.37-.33.74-.6,1.11-.03.04-.06.08-.09.12-.59.78-2.19.72-3.07.17-.78-.48-1.97-2.12-.62-3.93.14-.18.38-.42.68-.66-.5-.03-1,.08-1.47.34-.82,2.09-1,4.56.54,5.51Z"/>
        <path class="cls-3" d="M184.77,182.95c.11-.07.19-.15.25-.23.11-.14.13-.44.09-.82-2.26.56-4.61.62-5.49.08-1.54-.95-1.36-3.43-.54-5.51-.35.2-.68.48-.97.86-.92,1.22-1.78,4.63.24,5.87,1.34.83,2.38.81,3.62.68,1.04-.1,1.99-.4,2.8-.93Z"/>
        <path class="cls-12" d="M180.48,180.72c.88.54,2.48.61,3.07-.17.03-.04.06-.08.09-.12.27-.36.46-.73.6-1.11-.56-1.08-1.35-2.14-2.34-2.75-.43-.26-.89-.41-1.36-.44-.3.25-.55.48-.68.66-1.35,1.8-.16,3.44.62,3.93Z"/>
      </g>
      <g>
        <path class="cls-12" d="M167,183.13c.18,1.26-.82,3.37-2.26,3.66-1,.21-2.29-.4-2.49-1.74-.05-.36.07-1.02.28-1.68.81-.35,1.68-.6,2.42-.75.65-.13,1.25-.2,1.8-.19.1.2.18.39.22.59,0,.03.01.07.02.11Z"/>
        <path class="cls-11" d="M169.41,184.86s0,.08,0,.13c-.36,1.87-1.38,2.95-2.09,3.1-.38.08-.75.2-1.13.27-2.12.44-4.68-.48-6.23-1.57,0-.02-.01-.04-.01-.06-.23-1.62,1.07-2.69,2.59-3.36-.21.66-.33,1.32-.28,1.68.19,1.34,1.48,1.94,2.49,1.74,1.44-.29,2.44-2.4,2.26-3.66,0-.04-.01-.07-.02-.11-.04-.19-.12-.39-.22-.59,1.39.03,2.38.64,2.64,2.43Z"/>
        <path class="cls-3" d="M166.2,188.36c.38-.08.75-.2,1.13-.27.71-.15,1.73-1.23,2.09-3.1.39,3.35-2.85,5.06-4.55,5.41-.38.08-.78.08-1.09-.01-1.76-.53-3.53-1.87-3.81-3.6,1.55,1.1,4.11,2.01,6.23,1.57Z"/>
      </g>
      <g>
        <path class="cls-11" d="M178.47,164.3c.17,1.17-1.58,3.1-3.74,3.88-.53-.16-1.09-.43-1.62-.79.53-.07,1.1-.19,1.3-.22.02,0,.04,0,.06-.01.61-.12,1.39-1.13,1.23-2.28-.22-1.54-2.01-1.84-3.6-1.52-.25.05-.49.13-.74.22.23-.68.9-1.29,2.51-1.62,0,0,.01,0,.02,0,2.56.64,4.51,1.8,4.59,2.35Z"/>
        <path class="cls-3" d="M179.39,166c-.85.88-1.76,1.65-2.79,2.16-.15.08-.31.13-.48.17-.36.07-.85.01-1.39-.15,2.16-.78,3.91-2.71,3.74-3.88-.08-.55-2.03-1.71-4.59-2.35,2.56-.52,5.69.42,6.01,2.62.07.51-.07.99-.5,1.43Z"/>
        <path class="cls-12" d="M175.69,164.87c.17,1.15-.62,2.16-1.23,2.28-.02,0-.04,0-.06.01-.2.03-.76.15-1.3.22-.91-.62-1.67-1.51-1.82-2.59-.06-.41-.07-.83.07-1.23.24-.09.49-.17.74-.22,1.59-.33,3.38-.03,3.6,1.52Z"/>
      </g>
      <g>
        <path class="cls-11" d="M168.52,175.14c.15,1.03-.92,3.17-2.42,5.02-.62-.36-1.42-1.05-2.14-1.9.42.02.86.01,1.33-.08.05-.01.1-.02.16-.03,1.01-.21,1.63-1.71,1.48-2.75-.13-.93-1.22-2.72-3.54-2.25-.23.05-.57.17-.93.34.18-.47.5-.89.96-1.2,2.37.14,4.85,1.03,5.11,2.86Z"/>
        <path class="cls-3" d="M167.26,180.3c-.12.07-.23.11-.33.14-.18.04-.48-.07-.84-.27,1.51-1.85,2.57-3.99,2.42-5.02-.26-1.83-2.74-2.72-5.11-2.86.34-.24.75-.42,1.25-.52,1.58-.32,5.25.34,5.59,2.73.23,1.59-.24,2.54-.88,3.63-.55.92-1.24,1.66-2.1,2.18Z"/>
        <path class="cls-12" d="M166.92,175.39c.15,1.04-.47,2.54-1.48,2.75-.05.01-.1.02-.16.03-.47.1-.91.11-1.33.08-.81-.97-1.5-2.16-1.67-3.33-.07-.5-.02-1,.16-1.44.37-.17.7-.3.93-.34,2.32-.48,3.41,1.32,3.54,2.25Z"/>
      </g>
      <g>
        <path class="cls-12" d="M151.4,174.62c1.8.33,3.98,2.41,3.44,4.23-.37,1.27-2.02,2.53-3.94,2.18-.51-.09-1.32-.52-2.07-1.05.05-1.1.29-2.23.56-3.17.24-.82.54-1.56.92-2.2.33-.03.64-.04.93,0,.05,0,.1.01.15.02Z"/>
        <path class="cls-11" d="M155.28,172.53c.06.01.11.03.18.04,2.27,1.23,3.06,2.89,2.79,3.79-.14.48-.22.97-.37,1.44-.79,2.68-3.67,5.3-6.14,6.66-.03,0-.06,0-.08,0-2.32-.42-2.91-2.41-2.81-4.49.74.54,1.55.96,2.07,1.05,1.92.35,3.56-.91,3.94-2.18.54-1.82-1.64-3.9-3.44-4.23-.05,0-.1-.02-.15-.02-.29-.04-.6-.03-.93,0,.94-1.62,2.41-2.53,4.96-2.06Z"/>
        <path class="cls-3" d="M157.88,177.81c.14-.48.22-.97.37-1.44.27-.9-.52-2.56-2.79-3.79,4.74.98,4.93,5.53,4.29,7.68-.14.48-.39.95-.72,1.28-1.85,1.85-4.78,3.35-7.29,2.94,2.48-1.36,5.35-3.97,6.14-6.66Z"/>
      </g>
      <g>
        <path class="cls-12" d="M158.51,167.59c.3-1.03,1.08-1.9,2.01-2.6.12,0,.24,0,.36.02,1.2.22,2.59,1.42,2.21,2.73-.26.89-1.44,2.55-2.61,3.49-1.53-.43-2.41-2.12-1.97-3.64Z"/>
        <path class="cls-3" d="M162.45,163.97c-.05,0-.12-.01-.17-.02,1.32-.61,2.64-.89,3.31-.77,1.73.31,2.91,3.29,2.25,5.53h0c-.33,1.12-2.86,2.02-4.88,2.41,1.3-.87,2.58-2.11,2.89-3.16.67-2.27-1.82-3.7-3.39-3.99Z"/>
        <path class="cls-11" d="M160.88,165.01c-.11-.02-.24-.01-.36-.02.55-.41,1.15-.76,1.76-1.04.06,0,.12.01.17.02,1.58.29,4.06,1.72,3.39,3.99-.31,1.05-1.59,2.29-2.89,3.16-.96.19-1.81.26-2.24.18-.08-.02-.16-.05-.24-.07,1.17-.95,2.35-2.61,2.61-3.49.38-1.3-1-2.51-2.21-2.73Z"/>
      </g>
      <path class="cls-5" d="M120.48,206.2c.46,1.93.91,3.93,1.34,5.98,3.5,16.7,5.53,36.64-1.05,51.43,11.31-15.67,11.24-37.1,12.23-56.32,0-.06,0-.12.01-.18,5.15,8.96,9.4,18.9,11.55,29.16.96,4.59,1.5,9.25,1.51,13.91,2.57-10.4,2.75-21.32.56-31.78-.36-1.72-.79-3.42-1.28-5.1-4.25-6.09-9.17-12.49-13.25-19.09.58,4.04-1.42,8.82-3.52,10.79-.12-.65-.01-1.33-.04-2.01-.09-2.14-.49-4.17-.91-6.18-.07-.36-.15-.71-.23-1.07-.57-2.74-2.61-6.11-5.07-8.35-4.5,8.75-6.05,15.95-6.1,20.88-.23-.64-.41-1.38-.48-1.71-.38-1.83-.99-7.64-1.37-9.5-.59-2.83-2.09-6.42-4.08-9.41-.23.03-.43.07-.58.1-2.36.49-4.98,4.21-6.54,8.62.16-3.92.29-9.87-.24-12.4-.49-2.33-1.86-5.05-4.18-7.59-1.95,13.81-3.57,32.31-12.35,39.68-1.15.97-2.38,1.75-3.66,2.41-3.19,3.76-6.94,7.07-11.06,9.94,10.04-3.55,19.67-8.27,27.96-15.05-5.39,9.81-13.52,17.44-22.93,23.33,13.94-5.94,26.37-14.68,33.54-28.08-3.19,21.09-11.44,45.45-30.8,54.31,23.27-8.72,34.06-33.97,41.01-56.68Z"/>
      <path class="cls-15" d="M54.18,233.99c8-1.68,17.16-7.8,22.87-9.79,2.05-1.79,3.97-3.71,5.71-5.76-6.7,3.47-14.93,3.75-21.5,10.31-2.04,2.03-4.22,3.19-6.41,3.65-6.9,1.45-17-4.37-19.75-17.5-.39-1.88-.73-3.83-1.14-5.77-1.27-6.04-3.61-10.22-6.49-13.57-3.3,1.88-6.58,3.88-9.66,6.11,18.39,7.99,15.23,36.77,36.38,32.34Z"/>
      <path class="cls-16" d="M124.39,320.51c29.73-11.1,25.26-37.95,25.07-60.57-2.66,23.37,1.5,54.44-32.84,61.63-40.35,8.45-44.66-20.24-67.36-23.11,4.23,2.27,8.55,4.36,12.89,6.28.53.23,18.32,25.72,52.24,18.62,3.7-.78,7.02-1.73,10-2.84Z"/>
      <path class="cls-9" d="M149.46,259.94c-.08-9.48.59-18.22,4.86-24.75.72-1.1.79-2.36.51-3.69-1.18-5.63-4.95-11.76-9.47-18.23.49,1.69.92,3.39,1.28,5.1,2.19,10.46,2.01,21.38-.56,31.78-.01-4.66-.55-9.31-1.51-13.91-2.15-10.26-6.4-20.2-11.55-29.16,0,.06-.01.12-.01.18-.99,19.22-.92,40.65-12.23,56.32,6.59-14.79,4.55-34.73,1.05-51.43-.43-2.05-.88-4.04-1.34-5.98-6.95,22.71-17.74,47.96-41.01,56.68,19.36-8.86,27.61-33.22,30.8-54.31-7.17,13.4-19.6,22.14-33.54,28.08,9.4-5.89,17.54-13.52,22.93-23.33-8.29,6.78-17.92,11.5-27.96,15.05,1.87-1.3,3.65-2.69,5.35-4.17-5.71,1.99-14.87,8.12-22.87,9.79-21.15,4.43-17.98-24.34-36.38-32.34-12.07,8.72-21.14,20.88-16.62,42.49,5.14,24.55,25.24,42.07,48.07,54.32,22.7,2.86,27.01,31.56,67.36,23.11,34.34-7.19,30.18-38.26,32.84-61.63ZM79.61,309.39c-38.79-34.38-58.52-8.91-69.46-61.17-4.28-20.42,7.15-27.06,10.82-27.83,7.64-1.6,13.68,10.5,20.6,15.08,10.22,6.76,21.35-.59,28.93,6.85,4.44,1.13,7.84,3.7,8.69,7.72,1.64,7.81-5.63,15.39-12.86,20.27,5.62-1.13,12-2.81,13.27-3.39,20.09-9.07,21.34-20,28.92-21.58,3.73-.78,6.65,4.45,7.43,8.16,1.89,9.01-.75,19.06-6.14,26.88,7.69-3.91,15.62-10.18,22.02-27.31,4.39-11.75,12.57,2.61,13.36,6.35,5.16,24.65-3.94,51.77-33.17,57.89-11.34,2.38-23.33.12-32.4-7.92Z"/>
      <path class="cls-14" d="M145.17,259.42c-.78-3.74-8.97-18.1-13.36-6.35-6.39,17.13-14.33,23.4-22.02,27.31,5.39-7.82,8.02-17.87,6.14-26.88-.78-3.71-3.69-8.94-7.43-8.16-7.58,1.59-8.83,12.51-28.92,21.58-1.27.57-7.65,2.25-13.27,3.39,7.23-4.88,14.49-12.46,12.86-20.27-.84-4.02-4.24-6.59-8.69-7.72-7.58-7.43-18.71-.08-28.93-6.85-6.92-4.58-12.96-16.68-20.6-15.08-3.67.77-15.1,7.41-10.82,27.83,10.95,52.26,30.67,26.79,69.46,61.17,9.07,8.04,21.05,10.29,32.4,7.92,29.23-6.12,38.33-33.25,33.17-57.89ZM77.03,300.57c-16.77-10.01-39.62-9.93-44.12-31.44-2.72-13.01,7.84-20.05,13.08-21.15,11.89-2.49,18.3,7.23,19.38,12.41.98,4.67-.22,10.87-6.73,14.19,6.4.67,13.01.7,19.14-.58,5.29-1.11,10.21-3.2,14.34-6.7,5.4.7,10.33,4.14,11.55,9.97,1.1,5.27-3.84,10.55-9.25,14.07.64-.09,1.28-.2,1.91-.34,13.09-2.74,28.62-20.3,34.12-21.45,2.95-.62,12.72,1.43,12.54,16.05-.15,12.38-16.04,27.32-37.21,30.13-14.67,1.95-22.37-11.35-28.76-15.16Z"/>
      <path class="cls-16" d="M132.65,288.09c-.31-1.49-.94-2.94-1.94-4.31-2.06-.52-4.28-.47-6.47-.01-9.39,1.97-14.63,10.66-24.22,12.67-9.39,1.97-13.83-6.17-20.19-4.83-2.42.51-4.24,3.11-3.93,4.59.76,3.61,20.2,20.84,33.58,18.04,13.36-2.8,25.3-15.97,23.17-26.14Z"/>
      <path class="cls-4" d="M143,285.59c.18-14.62-9.59-16.67-12.54-16.05-5.5,1.15-21.03,18.71-34.12,21.45-.63.13-1.27.24-1.91.34,5.41-3.52,10.35-8.8,9.25-14.07-1.22-5.82-6.15-9.27-11.55-9.97-4.13,3.5-9.06,5.59-14.34,6.7-6.13,1.28-12.74,1.25-19.14.58,6.51-3.32,7.71-9.52,6.73-14.19-1.08-5.18-7.49-14.9-19.38-12.41-5.24,1.1-15.81,8.15-13.08,21.15,4.51,21.51,27.35,21.43,44.12,31.44,6.38,3.81,14.09,17.11,28.76,15.16,21.17-2.81,37.06-17.76,37.21-30.13ZM75.89,296.2c-.31-1.49,1.51-4.09,3.93-4.59,6.36-1.33,10.8,6.8,20.19,4.83,9.6-2.01,14.83-10.7,24.22-12.67,2.19-.46,4.41-.51,6.47.01,1,1.37,1.63,2.82,1.94,4.31,2.13,10.17-9.81,23.34-23.17,26.14-13.38,2.8-32.83-14.43-33.58-18.04Z"/>
      <path class="cls-1" d="M127.41,195.71c.07.36.15.71.23,1.07.42,2.01.82,4.04.91,6.18.03.67-.08,1.36.04,2.01,2.1-1.97,4.1-6.75,3.52-10.79-.01-.02-.02-.04-.03-.05-.14-.23-.28-.46-.42-.7-.18-.29-.35-.58-.53-.88-.14-.24-.28-.47-.41-.71-.17-.29-.34-.58-.5-.88-.13-.24-.26-.47-.4-.71-.03-.06-.07-.12-.1-.18-4.75-4.8-11.4-9.2-18.3-7.75-.27.06-.29.7-.65.77-.09.02-.29-1.75-.32-1.86-1.4-6.67-8.46-8.04-11.16-8.35-.01.07-.02.13-.03.2-.03.2-.06.41-.1.62-.02.16-.05.32-.07.48-.03.22-.07.45-.1.68-.02.14-.04.29-.06.43-.04.25-.07.51-.11.77-.01.1-.03.2-.04.29,2.32,2.54,3.69,5.26,4.18,7.59.53,2.53.41,8.48.24,12.4,1.55-4.41,4.18-8.12,6.54-8.62.14-.03.34-.07.58-.1,1.98,2.99,3.48,6.58,4.08,9.41.39,1.85.99,7.66,1.37,9.5.07.32.25,1.07.48,1.71.05-4.93,1.61-12.12,6.1-20.88,2.46,2.24,4.5,5.61,5.07,8.35Z"/>
      <path class="cls-10" d="M128.96,188.66c-.16-.3-.31-.61-.47-.91-.11-.23-.23-.46-.34-.68-.16-.32-.3-.64-.45-.96-.1-.22-.2-.43-.3-.65-.16-.35-.31-.71-.46-1.06-.08-.18-.16-.36-.23-.54-.22-.54-.43-1.07-.64-1.61-3.95-.45-8.08-2.84-12.04-5.5,0,0,0,0,0,0h0c-1.62-1.09-3.22-2.23-4.76-3.3-1.06-.99-2.08-2.11-3.02-3.32-1.93-2.49-3.46-5.32-4.01-7.94,0-.01,0-.04,0-.06-.1.18-.2.37-.3.57-.04.07-.07.15-.1.22-.06.13-.12.26-.18.4-.04.09-.07.18-.11.27-.05.13-.11.26-.16.4-.04.1-.08.21-.11.32-.05.13-.1.27-.14.41-.04.12-.08.24-.11.36-.04.14-.09.27-.13.41-.04.13-.08.26-.11.4-.04.14-.08.28-.12.42-.04.14-.07.28-.11.42-.04.15-.08.29-.11.44-.04.14-.07.29-.1.44-.04.15-.07.3-.11.46-.03.15-.07.31-.1.47-.03.15-.07.31-.1.46-.03.16-.07.33-.1.5-.03.16-.06.31-.09.47-.03.17-.07.35-.1.53-.03.16-.06.32-.09.48-.03.18-.06.37-.1.56-.03.16-.06.32-.08.48-.03.19-.06.39-.1.59-.02.09-.03.19-.05.29,2.7.32,9.76,1.69,11.16,8.35.02.11.23,1.88.32,1.86.36-.07.38-.72.65-.77,6.91-1.45,13.55,2.95,18.3,7.75-.13-.24-.26-.47-.38-.71-.12-.23-.25-.47-.37-.7Z"/>
      <path class="cls-5" d="M94.9,199.65c1.9-7.47,2.83-15.91,3.85-23.1-1.76.7-3.41,1.83-4.73,3.22,1.07-2.58,1.76-5.09,2.11-7.24-1.7-4.54-6.45-7.97-11.09-9.02-.06-.03-.11-.06-.16-.08,1.76.42,3.71.66,5.44.29.73-.15,1.42-.41,2.04-.81.11-.32.14-.7.05-1.14-.87-4.16-4.73-7.44-8.29-9.88,3.5,1.26,7.29,3.36,10.7,2.64.04,0,.07-.02.11-.03-4.51-5.29-8.54-11.54-11.93-18.16-5.78-4.82-12-9.08-18.7-12.59,7.39,6.65,13.55,14.81,15.51,24.18.04.19.07.38.11.57-6.6-6.85-16.75-10.67-26.25-10.65,11.12.83,21.77,7.58,24.95,18.6-3.81.08-7.55.51-11.18,1.27-9.99,2.09-19.15,6.73-26.53,13.77,6.49-3.85,12.99-7.46,20.27-8.98,6.79-1.42,18.36-1.57,21.79,4.37-4.92,13.67-14.59,23.85-26.91,30.11,13.33-5.39,24.4-15.94,30.73-28.89-.94,8.5-.32,18.01-1.43,26.55-3.53,10.51-9.73,20.9-19.19,23.93,1.88-.01,3.69-.21,5.42-.57,10.02-2.1,17.56-9.69,23.31-18.36Z"/>
      <path class="cls-14" d="M68.61,206.41c-1.89-12.09-16.97,1.43-23.25-10.01.59-.07,1.18-.16,1.75-.28,11.07-2.32,18.53-14.11,17.34-19.79-1.26-6.04-6.41-5.98-13.08-4.58s-12.53,4.34-18.88,5.84c1.57-3.96,3.82-7.5,6.59-10.52,4.09-8.46,22.21-11.18,20.71-18.31-1.39-6.64-14.23-8.43-22.68-8.57,3.75-4,8.42-5.92,13.43-6.97,4.81-1.01,9.94-1.22,14.9-1.72-3.28-3.97-4.81-9.58-5.73-13.98-5.21-24.87,24.39-48.63,21.1-64.3-2.14-10.23-19.57-11.64-32.04-1.93-14,10.9-14.07,39.47-25.47,69.23-5.69,14.84-21.33,30.07-18.23,44.87,3.07,14.66,24.2,19.19,31.02,42.74,1.26,4.35,3.96,13.88,7.38,16.82,7.52,6.45,26.8-7.91,25.13-18.54Z"/>
      <path class="cls-14" d="M36.1,208.12c1.26,4.35,3.96,13.88,7.38,16.82,7.52,6.45,26.8-7.91,25.13-18.54-1.89-12.09-16.97,1.43-23.25-10.01.59-.07,1.18-.16,1.75-.28,11.07-2.32,18.53-14.11,17.34-19.79-1.26-6.04-6.41-5.98-13.08-4.58s-12.53,4.34-18.88,5.84c1.57-3.96,3.82-7.5,6.59-10.52,4.09-8.46,22.21-11.18,20.71-18.31-1.39-6.64-14.23-8.43-22.68-8.57,3.75-4,8.42-5.92,13.43-6.97,4.81-1.01,9.94-1.22,14.9-1.72-3.28-3.97-4.81-9.58-5.73-13.98-5.21-24.87,24.39-48.63,21.1-64.3-2.14-10.23-19.57-11.64-32.04-1.93-14,10.9-14.07,39.47-25.47,69.23-5.69,14.84-21.33,30.07-18.23,44.87,3.07,14.66,24.2,19.19,31.02,42.74Z"/>
      <path class="cls-16" d="M58.31,231.03c-.38.12-.76.23-1.14.31-12.45,2.61-18.61-6.32-20.8-16.79-.3-1.42-1.12-3.86-1.41-5.26-5.24-25.03-24.58-18.62-31.52-45.87-5.13-20.14,15.56-30.39,18.73-56.57-2.92,10.18-6.7,20.03-13.11,28.32-6.74,8.72-8.5,18.75-6.46,28.52,4.11,19.61,16.65,22.32,24.87,31.86,2.88,3.34,5.23,7.52,6.49,13.57.41,1.94.74,3.89,1.14,5.77,2.75,13.13,12.85,18.95,19.75,17.5,1.17-.24,2.32-.69,3.46-1.36Z"/>
      <path class="cls-14" d="M68.61,206.41c-1.89-12.09-16.97,1.43-23.25-10.01.59-.07,1.18-.16,1.75-.28,11.07-2.32,18.53-14.11,17.34-19.79-1.26-6.04-6.41-5.98-13.08-4.58s-12.53,4.34-18.88,5.84c1.57-3.96,3.82-7.5,6.59-10.52,4.09-8.46,22.21-11.18,20.71-18.31-1.39-6.64-14.23-8.43-22.68-8.57,3.75-4,8.42-5.92,13.43-6.97,4.81-1.01,9.94-1.22,14.9-1.72-3.28-3.97-4.81-9.58-5.73-13.98-5.21-24.87,24.39-48.63,21.1-64.3-2.14-10.23-19.57-11.64-32.04-1.93-14,10.9-14.07,39.47-25.47,69.23-5.69,14.84-21.33,30.07-18.23,44.87,3.07,14.66,24.2,19.19,31.02,42.74,1.26,4.35,3.96,13.88,7.38,16.82,7.52,6.45,26.8-7.91,25.13-18.54Z"/>
      <path class="cls-13" d="M77.84,129.67c.18.86.25,1.84.22,2.78,1.68,1.25,3.33,2.55,4.95,3.9-4.51-8.82-7.87-18.25-9.67-26.82-5.15-24.57,8.59-36.72,20.57-57.21.09-.15.17-.8.32-1.85-2.63-2.77-5.63-5.25-8.97-7.16,5.03,26.56-22.66,36.28-16.51,65.62,2.54,12.14,7.9,15.1,9.09,20.74Z"/>
      <path class="cls-14" d="M68.61,206.41c-1.89-12.09-16.97,1.43-23.25-10.01.59-.07,1.18-.16,1.75-.28,11.07-2.32,18.53-14.11,17.34-19.79-1.26-6.04-6.41-5.98-13.08-4.58s-12.53,4.34-18.88,5.84c1.57-3.96,3.82-7.5,6.59-10.52,4.09-8.46,22.21-11.18,20.71-18.31-1.39-6.64-14.23-8.43-22.68-8.57,3.75-4,8.42-5.92,13.43-6.97,4.81-1.01,9.94-1.22,14.9-1.72-3.28-3.97-4.81-9.58-5.73-13.98-5.21-24.87,24.39-48.63,21.1-64.3-2.14-10.23-19.57-11.64-32.04-1.93-14,10.9-14.07,39.47-25.47,69.23-5.69,14.84-21.33,30.07-18.23,44.87,3.07,14.66,24.2,19.19,31.02,42.74,1.26,4.35,3.96,13.88,7.38,16.82,7.52,6.45,26.8-7.91,25.13-18.54ZM28.56,186.86c-5.35-9.03-16.33-11.88-18.85-23.9-.99-4.74-.34-9.89,2.55-14.13,23.53-34.49,18.23-57.17,33.7-60.41,4.03-.84,9.99,1.29,11.33,7.71,1.74,8.31-3.1,16.34-1.43,24.64-2.21,11.64-18.72,8.64-28.83,26.5,2.63-2.24,6.28-3.85,6.63-3.93,2.18-.46,11.72.02,12.88,5.59,2.47,11.77-20.63,14.25-17.3,30.37,4.39,3.4,14.89,1.55,16.13,7.48.67,3.2-1.86,6.54-1.17,9.83.19.9.53,1.83.97,2.76,7.91,7.89,18.79,7.22,19.48,10.5.36,1.73-7.62,12.78-12.78,13.86-9.37,1.96-16.89-25.99-23.33-36.87Z"/>
      <path class="cls-4" d="M64.67,209.88c-.69-3.28-11.57-2.61-19.48-10.5-.45-.93-.79-1.86-.97-2.76-.69-3.29,1.84-6.63,1.17-9.83-1.24-5.93-11.74-4.08-16.13-7.48-3.34-16.12,19.76-18.6,17.3-30.37-1.17-5.57-10.71-6.04-12.88-5.59-.35.07-4.01,1.69-6.63,3.93,10.11-17.86,26.62-14.86,28.83-26.5-1.67-8.3,3.17-16.33,1.43-24.64-1.35-6.42-7.3-8.56-11.33-7.71-15.48,3.24-10.17,25.92-33.7,60.41-2.89,4.24-3.54,9.38-2.55,14.13,2.52,12.02,13.5,14.87,18.85,23.9,6.44,10.88,13.96,38.83,23.33,36.87,5.16-1.08,13.14-12.12,12.78-13.86Z"/>
      <path class="cls-9" d="M58.31,231.03c1-.59,1.99-1.34,2.95-2.29,3.22-3.22,6.84-4.92,10.49-6.23,3.32-1.19,6.65-2.06,9.72-3.45,1.76-.79,3.43-1.75,4.96-3.03,4.18-3.51,6.73-9.53,8.48-16.37-5.74,8.66-13.28,16.26-23.31,18.36-1.73.36-3.54.56-5.42.57,9.46-3.03,15.66-13.42,19.19-23.93,1.11-8.54.49-18.05,1.43-26.55-6.33,12.95-17.4,23.5-30.73,28.89,12.31-6.26,21.98-16.44,26.91-30.11-3.43-5.94-15-5.79-21.79-4.37-7.27,1.52-13.78,5.14-20.27,8.98,7.38-7.04,16.54-11.68,26.53-13.77,3.63-.76,7.37-1.18,11.18-1.27-3.18-11.02-13.83-17.76-24.95-18.6,9.5-.02,19.64,3.8,26.25,10.65-.04-.19-.07-.38-.11-.57-1.96-9.37-8.12-17.53-15.51-24.18,4.83,2.53,9.41,5.45,13.76,8.69.03-.95-.04-1.92-.22-2.78-1.18-5.64-6.54-8.6-9.09-20.74-6.15-29.34,21.54-39.06,16.51-65.62-5.73-3.28-12.46-4.86-20.08-3.26-33.47,7.01-34.85,38.23-43.03,66.8-3.17,26.18-23.86,36.43-18.73,56.57,6.94,27.25,26.28,20.85,31.52,45.87.29,1.4,1.11,3.85,1.41,5.26,2.19,10.46,8.36,19.39,20.8,16.79.38-.08.76-.19,1.14-.31ZM43.48,224.94c-3.43-2.94-6.12-12.47-7.38-16.82-6.82-23.55-27.95-28.08-31.02-42.74-3.1-14.8,12.54-30.03,18.23-44.87,11.4-29.76,11.48-58.34,25.47-69.23,12.47-9.71,29.9-8.3,32.04,1.93,3.28,15.67-26.31,39.44-21.1,64.3.92,4.39,2.45,10,5.73,13.98-4.96.5-10.09.71-14.9,1.72-5.01,1.05-9.68,2.97-13.43,6.97,8.45.14,21.29,1.93,22.68,8.57,1.49,7.13-16.62,9.85-20.71,18.31-2.77,3.02-5.02,6.56-6.59,10.52,6.35-1.5,12.48-4.5,18.88-5.84s11.81-1.46,13.08,4.58c1.19,5.68-6.27,17.47-17.34,19.79-.58.12-1.16.21-1.75.28,6.27,11.43,21.35-2.08,23.25,10.01,1.67,10.63-17.61,24.99-25.13,18.54Z"/>
      <path class="cls-1" d="M98.82,176.05c.04-.26.07-.51.11-.77.02-.15.04-.29.06-.43.03-.23.07-.45.1-.68.02-.16.05-.32.07-.48.03-.21.06-.41.1-.62.01-.07.02-.13.03-.2-.65-.08-1.05-.09-1.05-.11,0,0,1.01-2.24.46-4.88-.36-1.74-1.23-3.36-2.13-4.84,1.61-.51,2.99-1.4,4.22-2.5-.17-.15-.34-.3-.5-.45-.11-.1-.22-.21-.33-.31-.2-.19-.4-.37-.6-.57-.12-.11-.23-.23-.35-.34-.19-.19-.38-.38-.58-.57-.11-.11-.22-.23-.33-.34-.19-.2-.39-.4-.58-.6-.1-.11-.2-.22-.31-.33-.2-.21-.4-.43-.6-.65-.09-.1-.18-.19-.26-.29-.21-.23-.42-.47-.64-.71-.07-.08-.14-.17-.22-.25-.19-.21-.37-.42-.55-.64-.04,0-.07.02-.11.03-3.41.72-7.2-1.38-10.7-2.64,3.56,2.44,7.42,5.72,8.29,9.88.09.44.05.82-.05,1.14-.62.39-1.31.65-2.04.81-1.73.36-3.68.13-5.44-.29.05.02.1.05.16.08,4.64,1.05,9.39,4.48,11.09,9.02-.35,2.15-1.04,4.66-2.11,7.24,1.31-1.4,2.97-2.52,4.73-3.22,0-.07.02-.14.03-.21h0c.01-.1.03-.2.04-.29Z"/>
      <path class="cls-7" d="M99.17,173.69c-.02.16-.05.32-.07.48.02-.16.05-.32.07-.48Z"/>
      <path class="cls-7" d="M99.26,173.08c.01-.07.02-.13.03-.2h0c-.01.07-.02.13-.03.2Z"/>
      <path class="cls-7" d="M98.99,174.85c-.02.14-.04.29-.06.43.02-.15.04-.29.06-.43Z"/>
      <path class="cls-7" d="M98.78,176.34h0c.01-.1.03-.2.04-.29-.01.1-.03.2-.04.29Z"/>
      <path class="cls-10" d="M99.44,172.01c.03-.16.06-.32.08-.48.03-.19.06-.37.1-.56.03-.16.06-.32.09-.48.03-.18.06-.35.1-.53.03-.16.06-.31.09-.47.03-.17.07-.34.1-.5.03-.16.07-.31.1-.46.03-.16.07-.32.1-.47.03-.16.07-.3.11-.46.03-.15.07-.3.1-.44.04-.15.07-.29.11-.44.04-.14.07-.28.11-.42.04-.14.08-.28.12-.42.04-.13.07-.27.11-.4.04-.14.09-.28.13-.41.04-.12.07-.24.11-.36.05-.14.1-.27.14-.41.04-.11.07-.22.11-.32.05-.14.11-.27.16-.4.04-.09.07-.18.11-.27.06-.14.12-.27.18-.4.03-.07.07-.15.1-.22.1-.2.2-.39.3-.57-.01-.07-.03-.19-.04-.36-.32-.27-.64-.54-.95-.81-.1-.09-.19-.17-.29-.26-.05-.04-.1-.09-.15-.13-1.22,1.1-2.61,1.99-4.22,2.5.9,1.48,1.76,3.1,2.13,4.84.55,2.64-.46,4.88-.46,4.88,0,.01.4.03,1.05.11.02-.1.03-.19.05-.29.03-.2.06-.39.1-.59Z"/>
    </g>
  </g>
</svg>