<?xml version="1.0" encoding="UTF-8"?>
<svg id="Layer_2" data-name="Layer 2" xmlns="http://www.w3.org/2000/svg" viewBox="0 0 278.8 379.86">
  <defs>
    <style>
      .cls-1 {
        fill: #8ea8d7;
      }

      .cls-2 {
        fill: #768ec8;
      }

      .cls-3 {
        fill: #b2c1e3;
      }

      .cls-4 {
        fill: #4f7bbe;
      }

      .cls-5 {
        fill: #282768;
      }

      .cls-6 {
        fill: #bc95c4;
      }

      .cls-7 {
        fill: #6d8ec9;
      }

      .cls-8 {
        fill: #6a7dbd;
      }

      .cls-9 {
        fill: #a58b89;
      }

      .cls-10 {
        fill: #7d98ce;
      }

      .cls-11 {
        fill: #a3b5de;
      }

      .cls-12 {
        fill: #d6dff2;
      }

      .cls-13 {
        fill: #9e727b;
      }

      .cls-14 {
        fill: #9bafda;
      }

      .cls-15 {
        fill: #88a1d3;
      }

      .cls-16 {
        fill: #9db2dc;
      }

      .cls-17 {
        fill: #6481c1;
      }

      .cls-18 {
        fill: #897f8a;
      }

      .cls-19 {
        fill: #8d6369;
      }

      .cls-20 {
        fill: #5d82c2;
      }

      .cls-21 {
        fill: #495ba9;
      }

      .cls-22 {
        fill: #5b6fb5;
      }

      .cls-23 {
        fill: #b7c7e6;
      }

      .cls-24 {
        fill: #ced6ed;
      }

      .cls-25 {
        fill: #6b88c4;
      }

      .cls-26 {
        fill: #c1cde9;
      }

      .cls-27 {
        fill: #d9dff1;
      }

      .cls-28 {
        fill: #becde9;
      }

      .cls-29 {
        fill: #4f6ab2;
      }

      .cls-30 {
        fill: #90a9d8;
      }

      .cls-31 {
        fill: #5a6ab2;
      }

      .cls-32 {
        fill: #8ba2d3;
      }

      .cls-33 {
        fill: #968e98;
      }

      .cls-34 {
        fill: #4a66b0;
      }

      .cls-35 {
        fill: #7894cc;
      }

      .cls-36 {
        fill: #5c7abc;
      }
    </style>
  </defs>
  <g id="flower">
    <g>
      <path class="cls-11" d="M205.52,185.52c8.37,8.76,15.03,8.38,29.1,23.12,2.98,3.12,5.74,6.42,8.31,9.87-.71-5.63-1.37-10.98-1.98-16.08-.58-.74-1.2-1.46-1.86-2.15-.68-.71-1.36-1.42-2.04-2.13-18.19-19.05-37.05-39.27-38.76-67.01-.66-10.64-.02-21.2,1.77-31.5-2.12,3.82-3.94,7.63-5.47,11.44-2.21,26.7-6.97,55.73,10.92,74.46Z"/>
      <path class="cls-3" d="M238.62,61.38c-3.84-.21-7.83,1.96-11.05,5.04l-21.39,23.56c-.13.14-.25.27-.38.4-2.11,3.09-4.02,6.17-5.73,9.25-1.79,10.31-2.43,20.87-1.77,31.5,1.71,27.74,20.57,47.96,38.76,67.01.68.71,1.36,1.42,2.04,2.13.66.69,1.28,1.41,1.86,2.15-.82-6.88-1.55-13.32-2.19-19.4-4.99-.21-12.13-7.19-14.93-10.12-21.53-22.54-28.18-61.48,6.65-94.74,2.3-2.2,5.06-4.47,7.91-6.57.12-1.47.24-2.94.38-4.42.15-1.61.08-3.82-.15-5.79Z"/>
      <path class="cls-27" d="M227.57,66.42c3.23-3.08,7.21-5.25,11.05-5.04-.25-2.08-.67-3.89-1.23-4.47-.68-.71-7.91,6.19-8.55,6.8-.76.72-1.5,1.45-2.23,2.17-4.35,4.27-8.3,8.52-11.86,12.75-2.67,3.17-5.14,6.33-7.38,9.48-.54.76-1.06,1.51-1.57,2.27.13-.13.25-.25.38-.4l21.39-23.56Z"/>
      <path class="cls-23" d="M223.84,172.9c2.8,2.93,9.94,9.9,14.93,10.12-3.24-31.1-3.98-53.12-1.77-79.83.11-10.42.54-20.93,1.4-31.6-2.85,2.1-5.61,4.37-7.91,6.57-34.83,33.26-28.18,72.2-6.65,94.74ZM231.61,163.14c-4.99,4.77-7.95,3.25-10.61.47-5.69-5.96-20.12-36.29-3.6-52.07.29-.28.59-.55.9-.81.75-.65,2-.27,2.88-.15,1.87.25,4.93,2.61,6.2,3.94,4.91,5.14,11.67,41.53,4.23,48.64Z"/>
      <path class="cls-26" d="M218.31,110.72c-.31.27-.61.54-.9.81-16.52,15.78-2.09,46.12,3.6,52.07,2.66,2.78,5.61,4.3,10.61-.47,7.45-7.11.68-43.49-4.23-48.64-1.27-1.33-4.33-3.68-6.2-3.94-.88-.12-2.13-.49-2.88.15Z"/>
      <path class="cls-2" d="M112.4,209.25s-.01-.01-.02-.02c-.07-.07-.06-.14.02-.21,4.73-4.52,34.6,8.29,56.89.71,2.92-.99,5.92-1.47,8.95-1.53-4.6-1.55-9.33-2.73-14.13-3.53-13.3-.3-31.18.37-37.14.16-19.12-.68-35.29-7.73-46.51-1.79,2.21.45,4.38,1.09,6.48,1.97,2.62,1.1,5.18,2.25,7.7,3.44,11.25,4.16,24.61,11.33,43.17,15.76-8.77-3.25-17.33-7.85-25.43-14.97Z"/>
      <path class="cls-17" d="M147.35,226.15c-3.32-.55-6.49-1.21-9.52-1.93-18.56-4.44-31.92-11.6-43.17-15.76,14.32,6.73,27.58,14.44,43.89,17.99,5.45,1.19,10.88,1.94,16.23,2.64,6.71.88,13.31,1.68,19.69,3.16-7.62-2.26-16.53-4.33-27.12-6.09Z"/>
      <path class="cls-26" d="M28.38,199.05c-4.41-4.62,1.55-11.74,6.05-16.19-8.57,4.77-16.33,11.95-25.09,20.3.11,1.58.84,3.01,1.96,4.19,8.51,8.91,21.27-.48,41.15-2.49,4.66-1.07,9.27-1.94,13.77-2.36,1-.58,2.17-1.06,3.5-1.46-.76-.08-1.5-.16-2.24-.24-17.32,2.95-31.74,5.96-39.1-1.75Z"/>
      <path class="cls-3" d="M28.38,199.05c7.37,7.71,21.79,4.7,39.1,1.75-9.9-1.07-17.66-2.29-20.88-5.67-2.76-2.89-3.3-8.53,1.82-13.42,2.18-2.08,5.03-3.77,7.85-5.04-8.29.3-15.3,2.54-21.83,6.18-4.5,4.45-10.47,11.57-6.05,16.19Z"/>
      <path class="cls-12" d="M11.31,207.34c-1.12-1.18-1.85-2.61-1.96-4.19-.79.75-1.59,1.52-2.4,2.29-2.97,2.84-5.23,5.2-6.95,7.18,16.01,3.45,34.61-3.66,52.46-7.77-19.89,2.01-32.65,11.39-41.15,2.49Z"/>
      <path class="cls-23" d="M143.96,153.25c-3.06-3.2-23.28-18.46-52.17-12.54-2.82,1.41-5.58,3.16-8.27,5.33.67.75,1.35,1.5,2.04,2.23,4.73,4.95,10.49,9.35,17.01,13.45,50.3,19.8,52.34,3,41.38-8.48ZM91.92,152.21c-1.49-1.56-2.73-3.4-3.62-5.56.42-.56.84-1.03,1.29-1.47,7.78-7.43,25.11-7.08,31.76-.12,4.98,5.22,4.47,10.45,1.94,12.87-4.24,4.04-23.36,2.67-31.38-5.72Z"/>
      <path class="cls-3" d="M154.06,149.9c-4.99-5.22-15.62-10.96-28.3-14.25-12.27-.66-23.57-.14-33.97,5.06,28.88-5.92,49.11,9.34,52.17,12.54,10.96,11.48,8.92,28.28-41.38,8.48,12.09,7.62,26.78,14.26,42.29,21.61,4.12-.73,7.94-2.45,11.03-5.4,8.76-8.36,6.43-19.38-1.84-28.04Z"/>
      <path class="cls-11" d="M154.83,144.67c-3.64-3.81-8.16-6.19-13.24-7.85-5.45-.43-10.72-.9-15.83-1.17,12.68,3.29,23.31,9.02,28.3,14.25,8.27,8.66,10.6,19.67,1.84,28.04-3.09,2.95-6.91,4.67-11.03,5.4,6.44,3.05,13.02,6.23,19.61,9.65,2.19-.49,4.22-1.49,5.99-3.18,10.76-10.28-13.22-42.61-15.63-45.14Z"/>
      <path class="cls-20" d="M196.9,181.55c-6.73-16.01-9.67-31.64-8.11-47.17-.45.12-.9.22-1.34.33-2.31,27.82,4.18,39.38,9.46,46.85Z"/>
      <path class="cls-25" d="M186.69,174.96c.99,1.39,11.26,13.35,21.13,27.77-4.33-7.15-7.99-14.2-10.92-21.19-5.27-7.47-11.76-19.02-9.46-46.85-1.53.37-3.04.7-4.55.99-2.58,13.9-4.27,27.91,3.79,39.28Z"/>
      <path class="cls-32" d="M209.28,217.9c1.19-1.14,3.61-9.5-6.51-20.1-4.24-4.44-9.55-8.6-13.94-13.2-18.29-19.15-7.82-31.14-17.09-47.37-.32.03-.64.06-.96.08-4.3.34-8.51.43-12.62.37,3.9,5.56,6.71,11.93,8.22,18.39,4.66,19.95,31.96,37.37,23.01,51.39,5,3.31,9.91,6.85,14.66,10.7,2.26.6,4.21.69,5.22-.27Z"/>
      <path class="cls-14" d="M166.38,156.08c-1.51-6.46-4.33-12.83-8.22-18.39-5.69-.08-11.21-.45-16.57-.87,5.08,1.66,9.6,4.04,13.24,7.85,2.41,2.53,26.39,34.86,15.63,45.14-1.77,1.69-3.8,2.68-5.99,3.18,8.38,4.35,16.77,9.09,24.92,14.48,8.94-14.02-18.35-31.44-23.01-51.39Z"/>
      <path class="cls-26" d="M121.35,145.06c-6.65-6.96-23.98-7.31-31.76.12-.46.44-.88.91-1.29,1.47.89,2.16,2.13,4,3.62,5.56,8.02,8.39,27.14,9.76,31.38,5.72,2.53-2.42,3.04-7.65-1.94-12.87Z"/>
      <path class="cls-22" d="M110.97,200.97c13.1,1.18,26.61,2.59,37.39,2.47,12.21-.13,24.28,2.27,35.46,6.84-26.93-12.66-60.18-6.97-75.89-11.35,1.01.69,2.03,1.37,3.04,2.04Z"/>
      <path class="cls-30" d="M146.75,187.15c.83.15,1.65.18,2.45.12-24.46-11.26-47.13-20.59-60.75-34.85-1.85-1.94-3.61-3.98-5.24-6.11-.55.45-1.1.92-1.64,1.41.84,10.52,5.06,22.4,12.5,30.2,14.33,15,25.86,4.42,52.68,9.24ZM87.6,159.03c3.39-3.24,11.74,5.98,13.51,7.49,6.51,5.52,11.93,5.32,15.36,8.91,2.19,2.3,2.13,5.14,1.15,6.08-1.45,1.38-11.41,4.84-21.43-5.66-4.22-4.42-7.58-10.12-10.2-14.99.6-.57,1.08-1.32,1.62-1.83Z"/>
      <path class="cls-15" d="M155.74,191.25c.22-.21.38-.44.51-.69-2.36-1.12-4.72-2.21-7.05-3.29-.8.06-1.62.03-2.45-.12-26.82-4.82-38.35,5.76-52.68-9.24-7.45-7.8-11.66-19.68-12.5-30.2-.43.38-.86.78-1.29,1.18-.99.95-2,3.19-2.37,6.35,3.36,10.16,8.12,20.31,15.43,27.96,20.96,21.95,61.5,8.91,62.41,8.04Z"/>
      <path class="cls-2" d="M191.15,209.51c-52.72-18.55-77.76-1.39-103.39-28.24-.98-1.03-1.91-2.1-2.79-3.2,1.25,1.75,2.69,3.53,4.34,5.34.27.3.53.59.82.89,5.16,5.4,11.43,10.29,17.82,14.65,15.71,4.39,48.96-1.31,75.89,11.35,6.46,2.65,12.63,6.02,18.36,10.06,11.92,5.91,14.25,13.12,22.85,18.45-1.75-2.14-3.57-4.24-5.43-6.23-8.74-9.03-18.4-16.54-28.45-23.06Z"/>
      <path class="cls-10" d="M191.15,209.51c-11.37-7.37-23.25-13.45-34.89-18.95-.13.25-.29.49-.51.69-.92.87-41.45,13.91-62.41-8.04-7.31-7.65-12.07-17.81-15.43-27.96-.61,5.17.45,12.8,6.01,21.29.33.5.68,1.01,1.04,1.52.88,1.11,1.81,2.18,2.79,3.2,25.64,26.85,50.68,9.69,103.39,28.24Z"/>
      <path class="cls-16" d="M117.62,181.51c.98-.94,1.05-3.78-1.15-6.08-3.43-3.59-8.85-3.39-15.36-8.91-1.78-1.51-10.12-10.73-13.51-7.49-.54.51-1.02,1.26-1.62,1.83,2.62,4.86,5.98,10.57,10.2,14.99,10.03,10.5,19.98,7.04,21.43,5.66Z"/>
      <path class="cls-21" d="M184.48,135.37c.41-.09.82-.18,1.23-.27-13.17-35.9-3.07-76.76-12.51-122.29-.29-.18-.53-.3-.69-.31,9.08,45.81-1.43,86.77,11.97,122.87Z"/>
      <path class="cls-29" d="M185.08,123.97c-1.7-1.78-3.19-4.96-4.45-8.67,1.11,6.76,2.72,13.36,5.09,19.81,1.02-.23,2.04-.47,3.07-.73.33-3.31.88-6.62,1.63-9.92-.29.33-.57.64-.85.91-1.17,1.12-1.63,1.61-4.49-1.38Z"/>
      <path class="cls-22" d="M183.55,113.09c-4.24-4.44-2.58-12.81-5.3-26.19.28,9.75.87,19.22,2.38,28.39,1.26,3.72,2.75,6.89,4.45,8.67,2.85,2.99,3.32,2.5,4.49,1.38.28-.26.56-.57.85-.91.89-3.94,2.08-7.87,3.58-11.81-.15.16-.3.32-.45.47-3.51,3.35-7.43,2.67-9.99-.02Z"/>
      <path d="M181.46,48.14l-1.22-.02c0-1.27.02-2.58.09-3.9l1.22.04c-.02,1.31-.05,2.61-.09,3.88Z"/>
      <path class="cls-10" d="M183.32,28.65c-1.3-2.39-2.5-4.53-3.57-6.38,1.05,7.88,1.28,15.22,1.19,21.99.24-4.89,1-10.11,2.38-15.61Z"/>
      <path class="cls-8" d="M189.14,102.39c-17.91-18.76-5.27-65.95-14.8-83.63,4.16,24.06,3.31,46.79,3.92,68.15,2.72,13.38,1.06,21.75,5.3,26.19,2.56,2.68,6.49,3.36,9.99.02.15-.15.3-.31.45-.47,1.25-3.28,2.7-6.56,4.38-9.84-2.79,2.5-5.84,3.14-9.23-.41Z"/>
      <path class="cls-15" d="M183.32,28.65c-1.38,5.5-2.14,10.72-2.38,15.61-.02,1.31-.05,2.6-.09,3.87.08,14.29,4.65,25.42,10.88,31.94,1.95,2.04,4.79,2.23,7.69-.54,2.04-1.95,3.02-4.51,3.25-7.24-.34-1-.68-1.99-1.03-2.98-5.75-16.2-12.86-30.63-18.32-40.65ZM196.31,72.59c-1.95,1.86-5.79-.27-7.74-2.3-7.56-7.92-6.39-24.11-5.03-25.4.18-.17.45-.27.67-.21,1.83.47,3.46,1.24,5.09,2.27.62.39,1.26.94,1.79,1.5,6.96,7.29,8.18,21.31,5.21,24.14Z"/>
      <path class="cls-2" d="M185.21,88.84c-7.46-7.82-4.94-21.79-4.36-40.72,0-1.26.02-2.55.09-3.87.09-6.76-.14-14.11-1.19-21.99-2.93-5.08-4.85-8.03-4.92-8.09-.55-.57-1.15-1.06-1.63-1.37.41,1.99.79,3.97,1.13,5.95,9.53,17.68-3.11,64.87,14.8,83.63,3.4,3.56,6.44,2.91,9.23.41,2.5-4.88,5.49-9.78,8.99-14.69-.24-.97-.5-1.94-.76-2.91-.68.71-1.39,1.43-2.11,2.12-6.41,6.12-12.92,8.18-19.28,1.52Z"/>
      <path class="cls-10" d="M191.73,80.06c-6.23-6.52-10.8-17.66-10.88-31.94-.58,18.93-3.1,32.9,4.36,40.72,6.36,6.66,12.87,4.6,19.28-1.52.73-.69,1.43-1.41,2.11-2.12-1.18-4.38-2.51-8.7-3.94-12.92-.23,2.73-1.21,5.29-3.25,7.24-2.9,2.77-5.74,2.58-7.69.54Z"/>
      <path class="cls-30" d="M189.31,46.95c-1.64-1.03-3.26-1.81-5.09-2.27-.22-.06-.49.04-.67.21-1.36,1.3-2.53,17.48,5.03,25.4,1.94,2.04,5.79,4.16,7.74,2.3,2.97-2.84,1.75-16.85-5.21-24.14-.53-.56-1.18-1.11-1.79-1.5Z"/>
      <path class="cls-14" d="M168.26,19.04c-1.69,2.75-3.32,5.51-4.84,8.32,2.3.48,4.43,1.55,6.04,3.24,8.56,8.96,5,51.72-5.44,61.69-3.11,2.97-6.52,1.54-8.44-.47-.47-.5-.88-1.06-1.25-1.67.2,6.71.45,13.71.75,20.09,2.14-.96,4.28-2.37,6.32-4.32,16-15.28,17.01-68.69,6.86-86.88Z"/>
      <path class="cls-11" d="M163.42,27.35c-5.44,10.02-9.47,20.5-9.74,32.21,0,.32.19,14.62.66,30.58.37.61.78,1.18,1.25,1.67,1.92,2.01,5.33,3.44,8.44.47,10.44-9.97,14-52.73,5.44-61.69-1.62-1.69-3.74-2.76-6.04-3.24ZM166.42,70.23c-1.8,1.72-4.33,2.69-5.92,1.03-7.12-7.46-4.25-21.08-.29-31.18.34-.35.68-.69,1.03-1.03,2.5-2.39,4.93-3.41,7.34-.89,6.59,6.9,3.15,27.01-2.16,32.08Z"/>
      <path class="cls-3" d="M166.42,70.23c5.31-5.07,8.76-25.18,2.16-32.08-2.41-2.52-4.84-1.5-7.34.89-.35.34-.69.68-1.03,1.03-3.96,10.1-6.83,23.73.29,31.18,1.59,1.67,4.12.69,5.92-1.03Z"/>
      <path class="cls-35" d="M168.17,116.5c-3.19,3.05-8.23,3.31-12.65,1.74.08,1.24.16,2.43.24,3.57,6.44,3.73,14.46,9.12,20.38,3.46.72-.69,1.18-10.72,1.52-24.3-1.52-20.84-.03-43.06-2.1-66.66-.54,34.26,3.17,72.11-7.4,82.19Z"/>
      <path class="cls-7" d="M155.76,121.81c.04.57.08,1.12.13,1.66,4.64,3.8,9.02,7.93,13.28,12.21,2.86.35,5.47-.19,7.5-2.13,2.91-2.77,2.04-10.21,2.38-19.9-.63-4.17-1.07-8.4-1.38-12.68-.34,13.58-.8,23.62-1.52,24.3-5.92,5.65-13.94.27-20.38-3.46Z"/>
      <path class="cls-36" d="M176.67,133.55c-2.03,1.94-4.64,2.48-7.5,2.13.54.54,1.08,1.09,1.62,1.64,4.47-.35,9.03-.97,13.7-1.95-2.62-7.05-4.32-14.3-5.44-21.72-.34,9.69.53,17.12-2.38,19.9Z"/>
      <path class="cls-32" d="M168.17,116.5c10.56-10.09,6.85-47.93,7.4-82.19-.63-7.14-1.58-14.41-3.05-21.81-.07,0-.12,0-.15.03,0,0-.01.01-.02.02-1.38,2.16-2.75,4.32-4.09,6.49,10.14,18.19,9.14,71.6-6.86,86.88-2.04,1.95-4.17,3.36-6.32,4.32.13,2.81.28,5.51.43,8,4.42,1.58,9.46,1.31,12.65-1.74Z"/>
      <path class="cls-21" d="M30.61,136.03c.04.13.09.26.14.39,19.9-3.06,40.88-1.75,60.34,4.65.48-.25.97-.49,1.45-.72-19.98-6.61-41.54-7.76-61.94-4.31Z"/>
      <path class="cls-14" d="M111.15,132.03c8.49-3.82,28.2,2.56,38.74-7.5,1.22-1.17,2.2-2.32,2.96-3.45-5.21-3.99-10.79-7.52-16.91-10.32,5.25,5.71,3.21,8.53.5,11.12-7.89,7.54-20.85,5.29-31.57,6.14-2.49.2-17.77,11.44-35.47-7.1-2.9-3.03-5.39-6.49-7.37-10.08-5.07,1.66-9.72,3.61-13.71,5.8,23.97,4.89,31.74,29.4,62.83,15.4Z"/>
      <path class="cls-3" d="M78.36,124.82c11.11,11.63,26.23-2.73,30.07-2.6,6.35.22,14.22.75,18.64-3.47,1.88-1.79,4.65-6.35,1.72-9.43-.65-.68-1.4-1.31-2.21-1.89-14-3.69-31.51-3.59-47.54-.79-.42.31-.82.63-1.19.99-5.88,5.62-3.12,13.39.51,17.19ZM113.62,110.64c1.9,1.99,3.41,5,1.34,6.99-.5.48-1.18.77-2.01.73-9.04-.46-22.35,14.38-31.97,4.3-2.67-2.79-3.82-7.01-1.84-10.5.48-.86.93-1.64,1.57-2.25,5.15-4.91,28.81-3.55,32.91.74Z"/>
      <path class="cls-11" d="M104.87,128.01c10.73-.85,23.68,1.39,31.57-6.14,2.71-2.59,4.75-5.41-.5-11.12-.12-.06-.25-.12-.37-.17-2.77-1.25-5.8-2.29-9-3.14.81.59,1.56,1.21,2.21,1.89,2.93,3.07.16,7.63-1.72,9.43-4.41,4.22-12.29,3.69-18.64,3.47-3.84-.13-18.97,14.23-30.07,2.6-3.63-3.8-6.4-11.57-.51-17.19.37-.35.77-.68,1.19-.99-5.96,1.04-11.71,2.45-17.01,4.18,1.98,3.58,4.47,7.04,7.37,10.08,17.7,18.54,32.99,7.3,35.47,7.1Z"/>
      <path class="cls-32" d="M99.46,136.96c23.37-8.3,41.64,5.48,55.77-8.01,1.09-1.04,2.08-2.25,2.94-3.58-.75-.64-1.51-1.28-2.27-1.91-1-.82-2.01-1.61-3.03-2.39-.77,1.14-1.74,2.29-2.96,3.45-10.54,10.06-30.25,3.68-38.74,7.5-31.09,14-38.86-10.51-62.83-15.4-3.47,1.9-6.46,3.99-8.8,6.22-1.54,1.47-2.86,2.79-3.98,3.99,35.01.03,50.27,14.98,63.92,10.13Z"/>
      <path class="cls-35" d="M155.22,128.96c-14.13,13.49-32.39-.3-55.77,8.01-13.64,4.85-28.91-10.1-63.92-10.13-3.8,4.04-5.31,6.66-5.05,8.67,7.77-2.32,26.3-4.21,48.42,1.21,4.61.94,9.16,2.15,13.64,3.63,12.93-6.16,27.26-5.26,43.08-3.99,11.31-1.7,21.41,1.27,25.53-2.66,1.34-1.28,1.68-2.72,1.52-4.28-1.48-1.37-2.99-2.72-4.52-4.03-.86,1.33-1.85,2.54-2.94,3.58Z"/>
      <path class="cls-25" d="M161.16,133.69c-4.12,3.93-14.22.96-25.53,2.66,10.98.88,22.69,1.95,35.15.97-2.65-2.7-5.34-5.35-8.11-7.91.16,1.56-.17,3-1.52,4.28Z"/>
      <path class="cls-28" d="M30.5,135.5c.02.18.06.36.11.53,15.83-2.67,32.36-2.58,48.3.68-22.11-5.42-40.65-3.53-48.42-1.21Z"/>
      <path class="cls-23" d="M80.98,122.65c9.62,10.08,22.93-4.76,31.97-4.3.82.04,1.5-.25,2.01-.73,2.08-1.98.57-4.99-1.34-6.99-4.1-4.29-27.76-5.65-32.91-.74-.64.61-1.08,1.4-1.57,2.25-1.98,3.5-.83,7.71,1.84,10.5Z"/>
      <path class="cls-10" d="M74.16,143.58c-10.59-11.09-27.66-8.53-40.46-4.34.58.35,1.24.71,1.96,1.07,7.39-3.74,26.82-5.47,35.47,3.6,3.66,3.83,5.2,7.78,1.4,11.41-2.15,2.05-5.03,2.35-7.99,1.77,2.14,1.78,4.32,3.76,6.52,5.97,1.32-6.47,11.22-10.96,3.09-19.47Z"/>
      <path class="cls-15" d="M72.53,155.32c3.8-3.63,2.26-7.58-1.4-11.41-8.66-9.07-28.08-7.34-35.47-3.6,6.07,3.06,16.84,6.77,28.89,16.78,2.95.58,5.84.28,7.99-1.77ZM44.95,141.33c10.82-4.46,19.99-2.44,26.05,3.91,2.97,3.12,2.72,6.2.28,8.52-3.34,3.18-8.02-.05-11.41-3.6-1.1-1.15-2.44-2.83-2.48-2.87-3.01-3.15-9.17-1.46-11.36-3.75-.57-.59-.87-1.4-1.08-2.21Z"/>
      <path class="cls-8" d="M84.92,142.52c.71-.68.42-1.51-.35-2.32-.57-.6-1.41-1.18-2.3-1.67-1.74-.43-3.49-.82-5.24-1.17,7.82,8.29-4.48,13.66,1.11,33.6,1.39,1.7,2.33,2.91,2.35,2.93.99,1.03,2.17,1.88,3.42,2.65-5.6-8.55-6.64-16.23-6-21.4.32-4.22,2.45-8.32,5.98-11.69.48-.46,1.03-.93,1.03-.93Z"/>
      <path class="cls-2" d="M77.03,137.36c-15.29-3.07-31.09-3.28-46.28-.95.46,1.04,1.48,1.94,2.95,2.83,12.79-4.18,29.87-6.75,40.46,4.34,8.13,8.52-1.77,13-3.09,19.47.5.5,1,1.01,1.5,1.53,2.01,2.1,4.06,4.53,5.58,6.38-5.6-19.94,6.71-25.31-1.11-33.6Z"/>
      <path class="cls-22" d="M91.1,141.06c-2.91-.96-5.85-1.8-8.82-2.53.89.49,1.72,1.07,2.3,1.67.77.81,1.06,1.64.35,2.32,0,0-.55.47-1.03.93-3.53,3.37-5.66,7.47-5.98,11.69.39-3.11,1.38-5.31,2.36-6.25,3.49-3.33,7.1-5.89,10.82-7.83Z"/>
      <path class="cls-30" d="M59.87,150.17c3.39,3.55,8.08,6.79,11.41,3.6,2.43-2.32,2.69-5.41-.28-8.52-6.06-6.35-15.23-8.38-26.05-3.91.2.82.51,1.62,1.08,2.21,2.19,2.29,8.35.6,11.36,3.75.04.04,1.38,1.72,2.48,2.87Z"/>
      <path class="cls-8" d="M207.44,68.03c-3.44-3.6-4.16-10.04-4.56-16.35-.29,4.59-.43,8.86-.7,12.53,1.11,4.9,2.22,10.55,5.45,13.94.88.92,3.52,3.29,5.08,1.8.74-.71,1.44-1.45,2.11-2.21.21-2.42.43-4.81.68-7.15-3.25.9-6.37-.78-8.06-2.56Z"/>
      <path class="cls-22" d="M207.63,78.16c-3.23-3.39-4.34-9.04-5.45-13.94-.14,1.86-.31,3.56-.54,5.09,2.15,6.07,4.12,12.38,5.73,18.8,2.25-3.15,4.71-6.31,7.38-9.48.02-.3.05-.59.08-.89-.67.76-1.37,1.5-2.11,2.21-1.56,1.49-4.21-.88-5.08-1.8Z"/>
      <path class="cls-30" d="M216.23,40.45c.89.93,2.15,1.54,3.34,1.19,2.11-12.17,4.4-22.91,6.21-32.15-1.54.89-3,1.87-4.25,3.07-9.44,9.02-8.18,24.87-5.3,27.89Z"/>
      <path class="cls-15" d="M216.23,40.45c-2.88-3.02-4.14-18.88,5.3-27.89,1.25-1.2,2.71-2.18,4.25-3.07.4-2.04.77-4.01,1.12-5.9-.07-1.43-.15-2.64-.25-3.6-1.15.7-2.24,1.45-3.29,2.24-8.74,12.86-22.37,37.3-12.45,47.69,1.76,1.85,2.9.69,4.33-.68,1.67-1.6,2.95-3.47,3.97-5.52.12-.7.24-1.4.36-2.09-1.2.35-2.45-.26-3.34-1.19Z"/>
      <path class="cls-10" d="M210.91,49.93c-9.93-10.4,3.7-34.83,12.45-47.69-1.25.94-2.42,1.94-3.53,2.99-7.28,6.95-11.37,15.52-13.73,24.29-2.82,12.46-1.4,25.79,7.18,34.77.89.93,1.8,1.56,2.7,1.94.92-7.96,2.04-15.46,3.23-22.49-1.02,2.05-2.3,3.92-3.97,5.52-1.44,1.37-2.57,2.52-4.33.68Z"/>
      <path class="cls-2" d="M206.1,29.53c-2.03,7.54-2.8,15.23-3.23,22.16.4,6.3,1.12,12.74,4.56,16.35,1.7,1.78,4.82,3.45,8.06,2.56.15-1.47.31-2.92.48-4.36-.91-.37-1.81-1-2.7-1.94-8.57-8.98-10-22.31-7.18-34.77Z"/>
      <path class="cls-32" d="M221.37,64.55c-2.56-2.69-3.5-7.34-3.44-12.8-.61,4.01-1.18,8.16-1.7,12.44-.04,2.16.22,4.57,1.58,5.99,1.17,1.23,2.57-.23,7.82-3.31.33-.33.66-.66.99-.99,0-.31.02-.63.03-.94-1.71.89-4.05.89-5.27-.38Z"/>
      <path class="cls-25" d="M217.8,70.17c-1.35-1.41-1.62-3.83-1.58-5.99-.56,4.65-1.06,9.47-1.47,14.44,3.29-3.9,6.91-7.82,10.87-11.76-5.24,3.08-6.64,4.54-7.82,3.31Z"/>
      <path class="cls-3" d="M224.13,62.63c.63.66,1.56.98,2.54.98.07-2.74.14-5.56.2-8.41-5.98-6.72-4.13-17.28.33-23.31.02-3.38.03-6.66.03-9.75-6.78,16.08-7.49,35.89-3.1,40.49Z"/>
      <path class="cls-23" d="M226.87,55.2c.16-7.77.28-15.8.33-23.31-4.46,6.03-6.31,16.59-.33,23.31Z"/>
      <polygon points="228.18 244.6 225.67 240.31 226 240.06 226.17 240.01 226 240.06 226.64 239.58 226.79 239.83 228.18 244.6"/>
      <polygon points="232.05 248.72 231.9 248.56 230.97 245.37 232.97 247.94 232.45 248.24 232.53 248.22 232.05 248.72"/>
      <polygon points="212.15 229.3 211.49 228.69 212.32 227.79 212.99 228.41 212.15 229.3"/>
      <path class="cls-21" d="M233.05,249.57c-.36-.53-.73-1.07-1.1-1.61.38.54.74,1.08,1.1,1.61Z"/>
      <polygon points="210.52 227.8 209.76 227.12 210.57 226.21 211.34 226.89 210.52 227.8"/>
      <polygon points="213.74 230.85 213.22 230.35 214.08 229.47 214.6 229.98 213.74 230.85"/>
      <path class="cls-21" d="M227.76,242.24c-.37-.48-.74-.96-1.12-1.43.38.48.75.95,1.12,1.43Z"/>
      <path class="cls-21" d="M234.12,250.69s-.01-.02-.02-.02c0,0,.01.02.02.02Z"/>
      <path class="cls-21" d="M229.28,244.25c-.42-.57-.85-1.13-1.28-1.7.43.57.86,1.13,1.28,1.7Z"/>
      <path class="cls-21" d="M231.77,247.7c-.32-.46-.66-.93-.99-1.4.34.47.67.93.99,1.4Z"/>
      <path class="cls-21" d="M231.04,246.28c-.05-.06-.09-.13-.14-.19.05.06.09.13.14.19Z"/>
      <path class="cls-21" d="M230.48,245.9c-.38-.53-.76-1.05-1.16-1.58.39.53.78,1.06,1.16,1.58Z"/>
      <path d="M205.47,223.55c-.4-.31-.81-.62-1.22-.93l.74-.98c.41.31.83.62,1.23.94l-.75.96Z"/>
      <polygon points="137.25 217.98 137 217.91 137.33 216.73 137.59 216.81 137.25 217.98"/>
      <polygon points="135.83 217.56 135.79 217.55 136.13 216.38 135.83 217.56"/>
      <path d="M207.18,224.92c-.26-.22-.53-.43-.8-.64l-.24-.19.76-.96.24.19c.27.22.54.43.81.65l-.77.95Z"/>
      <path d="M208.87,226.34c-.22-.19-.44-.37-.66-.56l-.22-.19.78-.94.22.19c.23.19.45.38.68.57l-.8.93Z"/>
      <polygon points="133.68 216.87 133.87 216.29 133.68 216.87 133.87 216.29 133.58 216.84 133.41 216.78 133.8 215.62 133.96 215.68 133.87 216.29 133.68 216.87"/>
      <path class="cls-22" d="M202.63,220.67c.49.35.98.7,1.46,1.06-.48-.36-.97-.71-1.46-1.06Z"/>
      <path class="cls-14" d="M194.6,111.06c-3.12,7.77-5.03,15.53-5.81,23.32-1.15,11.44.14,22.93,3.59,34.58,6.24,17.37,15.2,33.78,27.82,47,3.6,3.77,19.46,19.22,24.39,15.47,0-.05-.01-.1-.02-.15-.57-4.42-1.11-8.67-1.63-12.77-2.57-3.44-5.33-6.74-8.31-9.87-14.07-14.73-20.73-14.35-29.1-23.12-17.89-18.74-13.13-47.77-10.92-74.46Z"/>
      <path class="cls-32" d="M214.68,213.35c3.79,5.53,7.95,11.13,12.46,16.8,2.41,3.04,4.92,6.09,7.53,9.17.66.85,1.35,1.68,2.08,2.44,1.82,1.91,3.7,3.14,5.53,3.85.89-1.99,1.56-4.32,1.82-6.9.74-2.08.7-4.7.49-7.23,0-.02,0-.05,0-.07-4.93,3.75-20.79-11.7-24.39-15.47-12.62-13.21-21.57-29.63-27.82-47,3.27,11.07,8.5,22.29,15.43,33.75,0,0,.01.01.02.02,2.13,3.52,4.42,7.06,6.86,10.62Z"/>
      <path class="cls-17" d="M182.89,234.7c2.11.76,4.19,1.65,6.24,2.68,11.34,4.68,19.02,9.7,25.68,14.21.27.18.53.36.8.54,1.15.44,2.23.81,3.27,1.14,1.12.35,2.17.64,3.15.87-11.58-11.4-25.01-16.22-39.13-19.43Z"/>
      <path class="cls-15" d="M202.35,220.47s-.02-.01-.03-.02c-3.31-2.34-6.76-4.46-10.34-6.35-19.53-4.71-47.03,3.71-62.78.38.7.31,1.42.61,2.15.9s1.49.56,2.25.83c.09.03.18.06.26.09.68.23,1.38.46,2.09.67.01,0,.03,0,.04.01.38.12.77.23,1.16.35.08.02.17.05.25.07.36.1.73.21,1.1.31,23.18,6.32,57.5,6.63,84.3,34.66.08-.03.14-.06.19-.1.34-.32.86-10.9-10.22-22.5-3.2-3.35-6.83-6.39-10.43-9.3Z"/>
      <path class="cls-2" d="M214.17,230.41c-.17-.17-.35-.34-.52-.5-.36-.35-.72-.71-1.08-1.05-.22-.21-.44-.41-.66-.62-.32-.3-.64-.6-.97-.9-.25-.23-.51-.45-.77-.68-.3-.26-.6-.53-.9-.79-.29-.25-.59-.5-.89-.75-.27-.23-.54-.45-.81-.68-.34-.28-.69-.56-1.04-.84-.23-.18-.45-.37-.68-.54-.41-.32-.82-.63-1.23-.93-.18-.13-.35-.27-.53-.4-.48-.36-.97-.71-1.46-1.06-.1-.07-.19-.14-.29-.21,3.6,2.91,7.23,5.95,10.43,9.3,11.08,11.6,10.56,22.17,10.22,22.5-.04.04-.11.07-.19.1.01.01.02.02.03.03.71.75,1.41,1.52,2.1,2.29,3.58.51,5.73.09,6.23-.68.21-.32.13-.7-.25-1.1,0,0-6.29-11.6-15.18-20.9-.52-.54-1.04-1.07-1.56-1.6Z"/>
      <path class="cls-10" d="M137.42,217.39c-.08-.02-.17-.05-.25-.07-.39-.11-.78-.23-1.16-.35-.01,0-.03,0-.04-.01-.71-.22-1.4-.44-2.09-.67-.09-.03-.18-.06-.26-.09-1.53-.53-3.01-1.1-4.4-1.73,15.75,3.34,43.25-5.09,62.78-.38-4.41-2.33-9.01-4.3-13.74-5.89-3.03.06-6.03.54-8.95,1.53-22.29,7.58-52.16-5.22-56.89-.71-.07.07-.08.14-.02.21,0,0,.01.01.02.02,8.09,7.12,16.66,11.72,25.43,14.97,3.03.72,6.2,1.38,9.52,1.93,10.59,1.76,19.49,3.84,27.12,6.09,2.86.66,5.67,1.46,8.43,2.46,14.11,3.22,27.54,8.03,39.13,19.43,1.06.25,2.03.44,2.92.56-.69-.78-1.38-1.55-2.1-2.29-.01-.01-.02-.02-.03-.03-27.23-28.48-62.21-28.35-85.39-34.97Z"/>
      <path class="cls-4" d="M236.74,241.77c-.73-.76-1.42-1.59-2.08-2.44-2.61-3.08-5.11-6.13-7.53-9.17,0,.01.01.02.02.03,4.62,8.33,8.1,16,6.35,17.68-.19.18-.58.32-1.06.39,0,0,0,0,0,0,.57.81,1.12,1.62,1.66,2.41,0,0,.01.02.02.02.26.39.52.78.77,1.16.26.4.52.79.77,1.18,1.07-.51,2.08-1.2,3-2.07,1.3-1.24,2.6-3.07,3.62-5.35-1.83-.71-3.71-1.94-5.53-3.85Z"/>
      <path class="cls-21" d="M234.1,250.67c-.53-.8-1.09-1.6-1.66-2.41.57.81,1.12,1.62,1.66,2.41Z"/>
      <path class="cls-21" d="M232.44,248.25c-.46-.65-.93-1.31-1.4-1.96.48.66.95,1.31,1.4,1.96Z"/>
      <path class="cls-35" d="M221.63,234.72c.11.12.22.24.33.36.42.46.83.92,1.24,1.39.03.04.07.08.1.12.98,1.12,1.95,2.26,2.89,3.42,0,0,0,0,0,0-1.31-7.81-5.89-17.31-11.49-26.6-2.46-3.59-4.76-7.15-6.9-10.69-9.87-14.41-20.13-26.35-21.12-27.74-8.06-11.37-6.37-25.37-3.79-39.28-3.78.73-7.5,1.23-11.15,1.55,9.27,16.22-1.2,28.21,17.09,47.37,4.39,4.6,9.7,8.76,13.94,13.2,10.12,10.59,7.7,18.96,6.51,20.1-1.01.97-2.95.87-5.22.27,5.1,4.13,10.03,8.61,14.7,13.5.28.29.56.59.84.89.22.23.44.45.66.67.46.48.92.98,1.38,1.48Z"/>
      <path class="cls-20" d="M214.71,213.4c5.61,9.3,10.19,18.79,11.49,26.6,0,0,0,0,0,0,1.64,2.01,3.21,4.05,4.7,6.09.05.06.09.13.14.19.48.66.95,1.31,1.4,1.96h0c.48-.07.87-.2,1.06-.38,1.75-1.67-1.72-9.34-6.35-17.68,0-.01-.01-.02-.02-.03-4.51-5.67-8.67-11.27-12.46-16.8-2.44-3.56-4.73-7.1-6.86-10.62,0,0-.01-.01-.02-.02,2.14,3.54,4.44,7.1,6.9,10.69Z"/>
      <path class="cls-21" d="M223.3,236.58c.98,1.12,1.95,2.26,2.89,3.42-.94-1.16-1.91-2.3-2.89-3.42Z"/>
      <path class="cls-34" d="M202.34,220.46s-.01,0-.02-.01c0,0,.02.01.03.02h0Z"/>
      <path class="cls-34" d="M202.34,220.46h0c.1.07.19.15.29.21-.1-.07-.2-.14-.3-.21Z"/>
      <path class="cls-22" d="M202.18,220.35s.09.07.14.1c0,0,.01,0,.02.01.1.07.2.14.3.21.49.35.98.7,1.46,1.06.18.13.35.27.53.4.41.31.82.62,1.23.93.23.18.45.36.68.54.35.28.7.55,1.04.84.27.22.54.45.81.68.3.25.6.5.89.75.3.26.6.53.9.79.26.23.52.45.77.68.33.3.65.6.97.9.22.21.45.41.66.62.36.35.72.7,1.08,1.05.17.17.35.33.52.5.53.53,1.05,1.06,1.56,1.6,8.88,9.3,15.18,20.9,15.18,20.9.38.4.46.78.25,1.1,1.43.05,2.87-.26,4.24-.86-.32-.5-.65-1.02-.99-1.53-.09-.15-.19-.29-.29-.44-.27-.41-.55-.83-.83-1.24-.08-.12-.16-.25-.25-.37-.36-.53-.73-1.07-1.1-1.61-.06-.09-.12-.17-.18-.26-.32-.46-.66-.93-.99-1.4-.1-.13-.19-.27-.29-.41-.38-.53-.76-1.05-1.16-1.58-.02-.02-.03-.04-.05-.06-.42-.57-.85-1.13-1.28-1.7-.08-.1-.16-.21-.24-.31-.37-.48-.74-.96-1.12-1.43-.08-.1-.16-.2-.24-.3-.45-.57-.91-1.14-1.37-1.71-8.59-5.32-10.93-12.54-22.85-18.45Z"/>
      <path class="cls-21" d="M230.77,246.3c-.1-.14-.19-.27-.29-.41.1.14.19.27.29.41Z"/>
      <path class="cls-21" d="M227.99,242.55c-.08-.1-.16-.21-.24-.31.08.1.16.21.24.31Z"/>
      <path class="cls-21" d="M229.33,244.32s-.03-.04-.05-.06c.02.02.03.04.05.06Z"/>
      <path class="cls-21" d="M233.3,249.94c-.08-.12-.16-.25-.25-.37.08.12.17.25.25.37Z"/>
      <path class="cls-21" d="M226.4,240.5c.08.1.16.2.24.3-.08-.1-.16-.2-.24-.3Z"/>
      <g>
        <path class="cls-31" d="M85.57,148.27c-.7-.73-1.38-1.48-2.04-2.23-.11.09-.21.18-.32.26,1.63,2.13,3.38,4.17,5.24,6.11,27,28.27,89.51,37.13,131.15,80.15-.28-.3-.56-.6-.84-.89-42.43-44.43-105.54-54.45-133.19-83.41Z"/>
        <path class="cls-31" d="M226.4,240.5c.08.1.16.2.24.3.38.48.75.95,1.12,1.43.08.1.16.21.24.31.43.57.86,1.13,1.28,1.7.02.02.03.04.05.06.39.53.78,1.06,1.16,1.58.1.14.19.27.29.41.34.47.67.93.99,1.4.06.09.12.17.18.26.38.54.74,1.08,1.1,1.61.08.12.17.25.25.37.28.42.56.83.83,1.24.1.15.19.29.29.44.34.52.67,1.03.99,1.53.08-.04.17-.08.25-.12-.25-.39-.51-.79-.77-1.18-.25-.39-.51-.77-.77-1.16,0,0-.01-.02-.02-.02-.54-.8-1.09-1.6-1.66-2.41,0,0,0,0,0,0-.46-.65-.93-1.31-1.4-1.96-.05-.06-.09-.13-.14-.19-1.48-2.04-3.06-4.08-4.7-6.09,0,0,0,0-.01-.01-.94-1.16-1.91-2.3-2.89-3.42-.03-.04-.07-.08-.1-.12-.41-.47-.83-.93-1.24-1.39-.11-.12-.22-.24-.33-.36-.46-.5-.92-.99-1.38-1.48-.22-.23-.44-.45-.66-.67,2.35,2.52,4.64,5.21,6.81,7.94Z"/>
      </g>
      <path class="cls-21" d="M231.95,247.96c-.06-.09-.12-.17-.18-.26.06.09.12.17.18.26Z"/>
      <path class="cls-9" d="M255.3,279.79c11.74,20.31,16.25,45.45,16.93,69.87,1.75-25.47-2.37-51.17-16.93-69.87Z"/>
      <g>
        <path class="cls-18" d="M242.82,263.1c.1.1.19.2.29.3,4.74,4.96,8.77,10.47,12.2,16.39,14.57,18.69,18.68,44.39,16.93,69.87.28,10.19-.1,20.26-.9,29.79,9.26.59,11.68-54.13-6.61-95.12-3.47-6.04-7.21-11.38-11.23-15.58-2.98-3.12-6.48-5.49-10.69-5.64Z"/>
        <path class="cls-33" d="M242.82,263.1s.22.01.66.04c.43.04,1.08.12,1.9.33,1.65.4,4.01,1.44,6.46,3.58,2.42,2.15,5.01,5.17,7.7,8.88,2.63,3.73,5.65,8.11,7.58,13.59,4.3,10.73,7.97,24.1,10.04,39.25,1.03,7.57,1.67,15.59,1.64,23.92-.02,4.16-.22,8.4-.75,12.68-.26,2.14-.62,4.29-1.14,6.42-.55,2.12-1.19,4.28-2.49,6.2-.34.47-.74.91-1.23,1.27-.25.18-.53.32-.83.43-.16.05-.3.07-.48.11-.25.03-.53.02-.8.03-.05-.02-.18.05-.15-.04v-.2s.04-.4.04-.4l.04-.53.07-.81.12-1.63c.16-2.17.29-4.32.4-6.46.22-4.28.33-8.5.35-12.64,0-2.07-.01-4.13-.06-6.16,0-.52-.04-.98-.02-1.56l.08-1.51c.05-1.01.11-2.01.16-3,.12-3.98.18-7.89,0-11.69-.3-7.6-1.17-14.81-2.66-21.41-1.48-6.6-3.52-12.6-5.92-17.82-2.41-5.22-5.09-9.71-7.89-13.33-.17-.23-.33-.46-.5-.69-.15-.25-.29-.5-.44-.75-.28-.47-.56-.94-.83-1.4-.55-.91-1.1-1.77-1.63-2.59-1.07-1.64-2.1-3.11-3.06-4.4-1.92-2.59-3.55-4.5-4.66-5.77-.56-.63-.99-1.12-1.28-1.44-.29-.33-.44-.49-.43-.5,0,0,.18.14.49.45.31.31.76.77,1.34,1.39,1.16,1.24,2.83,3.12,4.79,5.69.98,1.28,2.04,2.74,3.13,4.38.55.82,1.1,1.68,1.67,2.59.28.46.56.92.85,1.4.14.23.28.46.41.69.17.23.34.46.51.69,2.84,3.62,5.58,8.13,8.04,13.37,2.45,5.25,4.53,11.27,6.05,17.91,1.53,6.64,2.43,13.89,2.75,21.53.19,3.82.13,7.74.02,11.75-.05,1-.11,2-.16,3.01l-.08,1.52c-.02.43.02,1,.02,1.49.05,2.04.07,4.1.07,6.18-.01,4.16-.12,8.39-.34,12.68-.11,2.14-.24,4.3-.4,6.48-.07.91-.14,1.82-.21,2.74l.33-.08c.22-.08.43-.19.63-.32.39-.29.74-.67,1.05-1.09,1.19-1.74,1.83-3.86,2.37-5.92.51-2.09.87-4.21,1.13-6.33.53-4.23.73-8.45.77-12.59.05-8.28-.55-16.28-1.54-23.83-1.99-15.11-5.56-28.46-9.75-39.2-1.88-5.48-4.82-9.81-7.42-13.59-2.65-3.73-5.2-6.77-7.58-8.94-2.4-2.16-4.75-3.22-6.38-3.64-.82-.22-1.46-.3-1.9-.35-.43-.03-.66-.05-.66-.05Z"/>
      </g>
      <path class="cls-19" d="M240.39,260.69c.83.79,1.64,1.59,2.43,2.41,4.21.16,7.71,2.53,10.69,5.64,4.01,4.2,7.75,9.54,11.23,15.58-4.39-9.84-9.97-18.9-16.94-26.2-.71-.74-1.44-1.46-2.18-2.18-.64,1.1-1.41,2.09-2.3,2.95s-1.88,1.44-2.92,1.8Z"/>
      <path class="cls-13" d="M244.14,254.52c1.52-1.46,2.72-3.13,3.65-4.95.49-3.08.38-6.48-.32-9.93-1.07,4.69-2.96,8.82-5.14,10.9-3.77,3.6-9.31,5.86-14.21,4.37-.89.02-1.95-.04-3.18-.22-.89-.13-1.86-.31-2.92-.56-.98-.23-2.03-.52-3.15-.87,2.13,1.03,4.33,2.27,6.53,3.46,6.53,2.25,13.74,2.58,18.74-2.2Z"/>
      <path class="cls-9" d="M244.58,231.42s0,.05,0,.07c.21,2.52.24,5.15-.49,7.23-.26,2.58-.93,4.91-1.82,6.9-1.02,2.28-2.32,4.11-3.62,5.35-.92.87-1.93,1.56-3,2.07-.08.04-.17.08-.25.12-1.37.61-2.81.92-4.24.86-.32.51-1.37.86-3.05.9,4.9,1.49,10.44-.77,14.21-4.37,2.18-2.09,4.07-6.21,5.14-10.9-.58-2.81-1.54-5.65-2.91-8.36,0,.05.01.1.02.15Z"/>
      <path class="cls-19" d="M244.14,254.52c-5,4.78-12.21,4.45-18.74,2.2,5.33,2.88,10.66,5.45,14.99,3.97,1.03-.35,2.01-.93,2.92-1.8s1.66-1.85,2.3-2.95c1.08-1.85,1.81-4.02,2.18-6.38-.94,1.82-2.13,3.5-3.65,4.95Z"/>
      <path class="cls-1" d="M97.49,192.75c-2.35-2.46-6.69-4.68-12.71-10.99-5.5-1.89-10.53-3.22-15.18-4.05,5.17,1.22,10.94,3.47,14.98,7.7,1.67,1.75,5.55,7.15,3.8,8.82-.07.07-6.44,2.77-11.64,5.53,2.6-.25,5.48-.36,8.56-.35,5.23-.78,9.8.55,12.95-2.46.77-.74,1.72-1.61-.76-4.21Z"/>
      <path class="cls-14" d="M84.58,185.41c-4.04-4.23-9.82-6.48-14.98-7.7-.05,0-.1-.02-.15-.03-4.76-.84-9.12-1.16-13.17-1.01-2.82,1.26-5.67,2.95-7.85,5.04-5.12,4.89-4.58,10.53-1.82,13.42,3.23,3.38,10.99,4.6,20.88,5.67.74.08,1.48.16,2.24.24,2.01-.61,4.37-1.02,7.02-1.27,5.2-2.76,11.56-5.46,11.64-5.53,1.75-1.67-2.13-7.07-3.8-8.82Z"/>
      <path class="cls-35" d="M107.24,198.46c-6.14-4.25-12.16-8.97-17.13-14.18-.28-.3-.55-.59-.82-.89-1.54-.59-3.05-1.13-4.52-1.64,6.02,6.31,10.36,8.52,12.71,10.99,2.48,2.59,1.53,3.47.76,4.21-3.15,3.01-7.72,1.68-12.95,2.46,5.91.02,12.56.45,19.48,1.02,2.05.17,4.12.35,6.2.54-1.24-.82-2.49-1.66-3.73-2.52Z"/>
      <path class="cls-26" d="M111.65,201.04c-.23-.02-.45-.04-.68-.06-18.95-1.71-37.02-2.96-44.75,1.52,1.31-.12,2.61-.2,3.91-.24,14.4-4.08,26.26-1.58,41.52-1.22Z"/>
      <path class="cls-15" d="M148.37,203.44c-10.6.12-23.83-1.24-36.72-2.41-15.26-.37-27.12-2.86-41.52,1.22,3.54-.11,6.99.11,10.33.79,11.22-5.94,27.39,1.11,46.51,1.79,5.96.21,23.83-.46,37.14-.16-5.18-.86-10.45-1.29-15.74-1.23Z"/>
      <path class="cls-24" d="M226.9,3.6c-1.21,6.7-2.82,14.31-4.49,22.82-1.1,5.59-2.23,11.57-3.29,17.92,4.88-20.16,4.58-28.35,7.9-37.7-.04-1.1-.08-2.12-.12-3.04Z"/>
      <path class="cls-11" d="M219.12,44.33c-.41,2.42-.8,4.89-1.19,7.42-.06,5.47.88,10.12,3.44,12.8,1.22,1.28,3.56,1.27,5.27.38.01-.44.02-.88.04-1.33-.98,0-1.91-.32-2.54-.98-4.4-4.6-3.68-24.41,3.1-40.49-.01-6-.08-11.34-.21-15.5-3.33,9.35-3.02,17.53-7.9,37.7Z"/>
      <path class="cls-5" d="M141.67,128.24c-1.89-1.71-3.8-3.22-5.63-4.47-1.82-1.26-3.59-2.2-5.1-2.92-.77-.34-1.45-.66-2.08-.87-.63-.23-1.16-.44-1.61-.55-.45-.12-.8-.22-1.04-.28-.24-.06-.36-.09-.37-.07,0,.01.12.06.35.15.23.08.57.2,1.01.35.45.13.97.36,1.58.61.62.23,1.29.56,2.04.91,1.48.74,3.22,1.69,5.01,2.96,1.8,1.25,3.69,2.76,5.57,4.46,3.59,3.25,6.58,6.49,8.84,8.88.09,0,.19,0,.28,0-2.21-2.47-5.18-5.84-8.87-9.17Z"/>
      <path class="cls-5" d="M170.41,136.86c-1.17-1.22-2.33-2.49-3.6-3.66-2.47-2.44-5.1-4.58-7.67-6.6-.66-.48-1.32-.96-1.97-1.43-.65-.47-1.29-.95-1.95-1.38-1.3-.88-2.6-1.71-3.87-2.51-5.11-3.16-9.82-5.8-13.61-8.29-3.81-2.46-6.69-4.74-8.57-6.43-.47-.43-.89-.8-1.25-1.13-.35-.34-.64-.63-.88-.87-.24-.23-.42-.41-.55-.53-.12-.12-.19-.18-.2-.17,0,0,.05.07.17.2.12.13.29.31.52.56.23.24.52.54.85.9.35.34.76.72,1.23,1.16,1.86,1.73,4.72,4.06,8.53,6.55,3.78,2.53,8.48,5.2,13.57,8.37,1.27.79,2.56,1.63,3.86,2.51.66.43,1.29.91,1.94,1.38.65.47,1.3.95,1.96,1.42,2.56,2.02,5.17,4.15,7.63,6.58,1.27,1.17,2.43,2.43,3.59,3.64.07.07.13.14.2.21.16-.01.33-.03.48-.04-.13-.14-.27-.29-.4-.42Z"/>
      <path class="cls-5" d="M165.81,122.58c-.63-.87-1.21-1.76-1.86-2.59-.64-.84-1.28-1.67-1.91-2.5-1.32-1.61-2.6-3.21-3.95-4.71-1.31-1.53-2.69-2.95-4.01-4.37-1.37-1.38-2.68-2.74-4.03-4.01-5.33-5.14-10.47-9.4-14.83-12.91-4.37-3.5-7.97-6.24-10.47-8.13-1.25-.94-2.22-1.67-2.88-2.16-.33-.24-.59-.43-.76-.55-.17-.12-.26-.18-.27-.18s.08.08.24.21c.17.13.41.33.73.58.65.51,1.61,1.26,2.84,2.22,2.47,1.92,6.04,4.7,10.39,8.23,4.33,3.53,9.45,7.81,14.75,12.95,1.34,1.27,2.65,2.64,4.01,4.01,1.32,1.42,2.69,2.84,4,4.36,1.35,1.49,2.62,3.09,3.94,4.7.63.82,1.26,1.66,1.9,2.49.65.83,1.23,1.72,1.85,2.58,3.27,4.68,6.01,9.48,8.49,14.12.14-.02.26-.03.38-.04-2.48-4.69-5.24-9.55-8.56-14.3Z"/>
      <path class="cls-5" d="M185.36,134.17c-.36-.91-.75-1.82-1.15-2.73-.4-.91-.8-1.84-1.2-2.77-.43-.92-.86-1.84-1.3-2.77-.22-.46-.44-.93-.66-1.4-.23-.46-.47-.92-.7-1.39-.47-.93-.94-1.85-1.41-2.76-.5-.9-.99-1.79-1.48-2.68-.25-.44-.49-.88-.73-1.32-.25-.44-.52-.86-.77-1.29-.52-.85-1.03-1.7-1.54-2.54-.51-.84-1.07-1.63-1.6-2.44-.54-.8-1.04-1.61-1.61-2.37-.56-.76-1.11-1.52-1.65-2.26-.27-.37-.54-.74-.81-1.11-.28-.36-.56-.72-.84-1.07-4.47-5.66-9.04-10.3-12.95-14.08-3.93-3.77-7.23-6.7-9.5-8.72-1.14-1-2.03-1.78-2.64-2.31-.3-.26-.54-.46-.69-.59-.16-.13-.24-.2-.24-.19,0,0,.07.08.22.22.15.14.37.35.67.62.59.54,1.46,1.34,2.59,2.37,2.24,2.06,5.51,5.01,9.41,8.81,3.89,3.8,8.43,8.44,12.86,14.1.28.35.55.71.83,1.07.27.37.54.74.81,1.11.54.74,1.09,1.5,1.64,2.26.56.75,1.06,1.57,1.6,2.36.52.8,1.08,1.6,1.59,2.43.51.84,1.02,1.68,1.53,2.53.25.43.52.85.77,1.29.24.44.49.88.73,1.32.49.88.98,1.77,1.48,2.67.46.91.93,1.83,1.4,2.76.23.46.47.92.7,1.38.22.47.44.93.66,1.39.44.93.87,1.85,1.3,2.76.4.93.8,1.85,1.2,2.76.4.91.79,1.82,1.15,2.73.11.27.22.54.33.81.12-.03.24-.05.36-.08-.12-.29-.23-.58-.35-.87Z"/>
      <path class="cls-5" d="M178.41,129.45c-3.13-4.67-6.21-9.07-9.22-12.91-3.01-3.84-5.95-7.12-8.6-9.69-2.65-2.57-4.96-4.48-6.62-5.7-.81-.64-1.49-1.06-1.93-1.38-.22-.15-.4-.27-.51-.34-.12-.08-.18-.11-.18-.11,0,0,.05.05.16.14.11.08.27.21.49.38.43.34,1.09.78,1.89,1.43,1.63,1.26,3.9,3.19,6.52,5.77,2.62,2.58,5.52,5.88,8.51,9.71,2.99,3.84,6.05,8.23,9.18,12.9,1.4,2.09,2.77,4.14,4.1,6.13.13-.03.26-.06.39-.08-1.35-2.03-2.74-4.13-4.17-6.26Z"/>
      <path class="cls-5" d="M170.32,74.45c.01.18.03.45.05.81.06.71.14,1.76.25,3.1.24,2.69.58,6.6,1.25,11.39.68,4.79,1.68,10.49,3.69,16.59,1,3.04,2.26,6.17,3.79,9.31,1.53,3.13,3.31,6.28,5.29,9.4,1.44,2.25,2.93,4.41,4.44,6.48.03-.17.06-.34.1-.51-1.43-1.98-2.84-4.04-4.21-6.18-1.97-3.11-3.75-6.24-5.28-9.36-1.53-3.12-2.79-6.23-3.8-9.25-2.01-6.06-3.04-11.74-3.75-16.52-.7-4.78-1.08-8.68-1.37-11.37-.14-1.34-.25-2.39-.32-3.1-.04-.35-.07-.62-.09-.8-.02-.18-.04-.27-.04-.27,0,0,0,.09,0,.28Z"/>
      <path class="cls-5" d="M181.8,123.06c-1.84-3.74-3.66-7.38-5.54-10.84-1.87-3.46-3.8-6.74-5.73-9.79-3.87-6.11-7.78-11.33-11.23-15.57-3.46-4.24-6.47-7.48-8.6-9.68-1.06-1.1-1.9-1.94-2.48-2.5-.29-.28-.51-.49-.66-.64-.15-.14-.23-.21-.23-.21,0,0,.07.08.21.24.14.15.35.37.63.66.56.58,1.39,1.43,2.43,2.54,2.09,2.23,5.07,5.5,8.49,9.75,3.42,4.25,7.3,9.48,11.14,15.59,1.92,3.05,3.84,6.32,5.7,9.78,1.86,3.46,3.68,7.09,5.52,10.83,1.94,3.95,3.82,7.81,5.7,11.49.13-.03.25-.05.37-.08-1.89-3.71-3.78-7.6-5.73-11.58Z"/>
      <path class="cls-6" d="M126.28,121.08c.76.46,1.57.84,2.41,1.11.59.19,1.51.21,1.94.68,1.54,1.66,4.08-.77,2.54-2.43-1.33-1.44-3.47-1.39-5.09-2.38-1.93-1.17-3.75,1.84-1.81,3.02h0Z"/>
      <path class="cls-6" d="M127.01,105.68c.86,1.5,1.81,2.92,2.85,4.3.57.76,1.86.66,2.49.06.76-.72.63-1.72.06-2.49-.84-1.13-1.59-2.32-2.29-3.54-1.12-1.97-4.22-.3-3.1,1.67h0Z"/>
      <path class="cls-6" d="M119.41,81.84c1.79,1.6,4.46,2.57,6.57,3.69,1.99,1.06,3.82-1.95,1.81-3.02-1.02-.54-2.03-1.08-3.05-1.61-.83-.44-2.09-.86-2.79-1.49-1.68-1.5-4.24.92-2.54,2.43h0Z"/>
      <path class="cls-6" d="M150.27,101.58c1.92.33,3.61.97,5.16,2.16.76.58,1.96.14,2.41-.61.53-.89.15-1.83-.61-2.41-1.75-1.34-3.83-2.15-6-2.52-.93-.16-1.89.22-2.18,1.21-.24.84.26,2.01,1.21,2.18h0Z"/>
      <path class="cls-6" d="M142.68,81.43c1.51.66,2.51,1.58,3.19,3.09.94,2.07,4.03.39,3.1-1.67s-2.47-3.56-4.48-4.44c-.87-.38-1.88-.28-2.41.61-.44.74-.27,2.03.61,2.41h0Z"/>
      <path class="cls-6" d="M150.49,74.5c-1.27-1.04-1.6-2.4-1.51-4,.13-2.27-3.39-2.34-3.52-.08-.13,2.41.56,4.93,2.49,6.51.73.6,1.74.77,2.49.06.62-.6.8-1.88.06-2.49h0Z"/>
      <path class="cls-6" d="M171.87,79.01c.53-2.07.51-4.25-.49-6.18s-4.14-.34-3.1,1.67c.53,1.02.52,2.33.21,3.54-.56,2.19,2.82,3.17,3.38.97h0Z"/>
    </g>
  </g>
</svg>