<?xml version="1.0" encoding="UTF-8"?>
<svg id="Layer_2" data-name="Layer 2" xmlns="http://www.w3.org/2000/svg" viewBox="0 0 432.2 423.26">
  <defs>
    <style>
      .cls-1 {
        fill: #cfd1ea;
      }

      .cls-2 {
        fill: #f0eff8;
      }

      .cls-3 {
        fill: #bfc0e1;
      }

      .cls-4 {
        fill: #8983bf;
      }

      .cls-5 {
        fill: #565aa7;
      }

      .cls-6 {
        fill: #686bb1;
      }

      .cls-7 {
        fill: #e3e4f3;
      }

      .cls-8 {
        fill: #4a3f99;
      }

      .cls-9 {
        fill: #b2b2d9;
      }

      .cls-10 {
        fill: #dfe3f1;
      }

      .cls-11 {
        fill: #bebedf;
      }

      .cls-12 {
        fill: #c2c2e2;
      }

      .cls-13 {
        fill: #b7b6db;
      }

      .cls-14 {
        fill: #7676b8;
      }

      .cls-15 {
        fill: #4f4b9f;
      }

      .cls-16 {
        fill: #b0afd8;
      }

      .cls-17 {
        fill: #4f57a6;
      }

      .cls-18 {
        fill: #e1e1f1;
      }

      .cls-19 {
        fill: #ebe9f1;
      }

      .cls-20 {
        fill: #7a7bba;
      }

      .cls-21 {
        fill: #a8abd6;
      }

      .cls-22 {
        fill: #7578b9;
      }

      .cls-23 {
        fill: #d8dbef;
      }

      .cls-24 {
        fill: #d6daee;
      }

      .cls-25 {
        fill: #4d57a6;
      }

      .cls-26 {
        fill: #f5f7fc;
      }

      .cls-27 {
        fill: #cacbe6;
      }

      .cls-28 {
        fill: #d7daee;
      }

      .cls-29 {
        fill: #e9e9f1;
      }

      .cls-30 {
        fill: #cccbe6;
      }

      .cls-31 {
        fill: #edeef7;
      }

      .cls-32 {
        fill: #5158a7;
      }

      .cls-33 {
        fill: #bdc0e1;
      }

      .cls-34 {
        fill: #fdfeff;
      }

      .cls-35 {
        fill: #cdd0e9;
      }

      .cls-36 {
        fill: #c7cce7;
      }

      .cls-37 {
        fill: #9390c6;
      }

      .cls-38 {
        fill: #dddff1;
      }

      .cls-39 {
        fill: #807cbb;
      }

      .cls-40 {
        fill: #5951a2;
      }

      .cls-41 {
        fill: #9290c6;
      }

      .cls-42 {
        fill: #413895;
      }

      .cls-43 {
        fill: #c5c4e3;
      }

      .cls-44 {
        fill: #8382be;
      }

      .cls-45 {
        fill: #f3f5fb;
      }

      .cls-46 {
        fill: #eeeff7;
      }

      .cls-47 {
        fill: #7e7fbc;
      }

      .cls-48 {
        fill: #b4b4da;
      }

      .cls-49 {
        fill: #d0d1e9;
      }

      .cls-50 {
        fill: #ced0e9;
      }

      .cls-51 {
        fill: #dbdeef;
      }

      .cls-52 {
        fill: #797aba;
      }

      .cls-53 {
        fill: #d1d7eb;
      }

      .cls-54 {
        fill: #dbdef0;
      }

      .cls-55 {
        fill: #afaed7;
      }

      .cls-56 {
        fill: #d9dbee;
      }

      .cls-57 {
        fill: #7e7ebc;
      }

      .cls-58 {
        fill: #e5e6f3;
      }

      .cls-59 {
        fill: #5058a6;
      }

      .cls-60 {
        fill: #8e90c7;
      }

      .cls-61 {
        fill: #eeecf6;
      }

      .cls-62 {
        fill: #f8fafd;
      }

      .cls-63 {
        fill: #7979b9;
      }

      .cls-64 {
        fill: #d9d7ec;
      }

      .cls-65 {
        fill: #d1d4eb;
      }

      .cls-66 {
        fill: #b9b7dc;
      }

      .cls-67 {
        fill: #7274b7;
      }

      .cls-68 {
        fill: #9694c8;
      }

      .cls-69 {
        fill: #d4d7ed;
      }

      .cls-70 {
        fill: #f0f3fa;
      }

      .cls-71 {
        fill: #7d7ab9;
      }
    </style>
  </defs>
  <g id="flower">
    <g>
      <path class="cls-2" d="M189.84,217.52c1.96,1.08,3.71,2.51,5.06,4.24,10.41,13.29,22.96,25.44,25.69,28.04.55-.34.95-.78,1.09-1.34.01-.04-.34-.73-1-1.87-3.53-6.13-15.87-25.35-28.14-28.56-.89-.23-1.79-.4-2.71-.5Z"/>
      <path d="M262.89,112.11l1.44-1.54.79,1.62-.79-.04c-.16,0-.32-.02-.48-.02l-.97-.02Z"/>
      <polygon points="346.12 81.04 345.98 78.74 346.02 77.41 346.77 78.5 346.97 78.69 346.83 78.89 346.12 81.04"/>
      <path class="cls-18" d="M142.15,22.41c-.7,2.67-.17,6.08,1.98,7.84,15.73,2.55,19.23-9.97,27.75-12.1.21-.05.59-.49.64-.7.06-.23-4.07-1.34-4.29-1.4-14.76-3.86-24.59.68-26.08,6.37Z"/>
      <path class="cls-2" d="M137.63,4.1c-1.23,2.72-2.76,4.85-4.5,6.55,4.98-4.05,9.11-7.53,15.51-7.17,1.35.07,19.35.55,35,2.02-4.22-.94-8.72-1.45-13.5-1.47-14.58-.06-28.36-9.08-32.51.08Z"/>
      <path class="cls-58" d="M305.46,91.22c28.42,7.43,19.16,42.53,45.44,49.4,4.97,1.3,10.28,1.36,15.04-.2-.18-.21-.37-.41-.56-.62.19-.11.38-.23.58-.35-17.23-6.53-7.48-39.56-47.52-51.14-5.65.18-11.3.91-16.82,2.19,1,.07,2.21.29,3.85.72Z"/>
      <path class="cls-18" d="M301.62,90.5c-.68.16-1.35.32-2.03.5,19.23,18.44,14.08,56.42,45.19,64.55,14.97,3.91,20.07-5.53,23.66-12.03-.7-.96-1.46-1.91-2.29-2.86-.07-.08-.14-.16-.21-.24-4.76,1.56-10.06,1.5-15.04.2-26.28-6.87-17.02-41.97-45.44-49.4-1.64-.43-2.85-.65-3.85-.72Z"/>
      <path class="cls-64" d="M344.78,155.55c-31.12-8.13-25.97-46.11-45.19-64.55-.52.14-1.05.28-1.57.42-.05.05-.1.1-.14.16.05-.05.1-.1.14-.16-1.99.56-3.95,1.18-5.89,1.89-4.4,18.33,19.02,20.35,21.67,34.08,3.38,17.51,15.67,38.22,33.36,42.84,13.85,3.62,22.18-1.39,27.38-12.66-.69-4.17-2.28-8.33-4.97-12.42-.36-.54-.73-1.08-1.13-1.62-3.59,6.5-8.69,15.94-23.66,12.03Z"/>
      <g>
        <path class="cls-44" d="M328.13,196.8c.04-.15.62-1.97,1-3.4,3.74-14.32-.93-23.91-10.46-28.2,9.9,5.26,12.26,13.11,10.62,19.39-.5,1.92-1.45,3.78-2.93,5.51-4.57,5.35-7.46,14.13-11.97,22.25,7.89-3.21,15.94-7.24,23.27-5.41-4.29-1.24-10.99-4.59-9.54-10.15Z"/>
        <path class="cls-44" d="M338.17,207.09c2.01.65,4.94,2.5,7.1,4.01,1.47-1.32,2.93-2.67,4.38-4.07-3.71,1.01-7.71,1.04-11.44.06-.01,0-.03,0-.04-.01Z"/>
      </g>
      <path class="cls-62" d="M340.03,90.42c-5.77-1.35-11.77-2.07-17.81-2.14,2.87.54,5.71,1.18,8.53,1.92,5.65,1.48,11.19,3.32,16.62,5.45,22.76,8.92,22.05,35.47,20.6,41.01-.17.64-.38,1.27-.64,1.87,2.4-1.7,4.86-4.01,5.41-6.13.14-.52.16-1.02.04-1.5-6.78-27.28-10.12-34.59-30.84-40.01-.64-.17-1.28-.32-1.92-.47Z"/>
      <path class="cls-45" d="M347.37,95.65c-5.43-2.13-10.98-3.98-16.62-5.45-2.82-.74-5.67-1.38-8.53-1.92-1.26-.02-2.52,0-3.78.03,40.04,11.58,30.29,44.61,47.52,51.14.45-.28.91-.59,1.38-.92.26-.61.47-1.23.64-1.87,1.45-5.54,2.16-32.09-20.6-41.01Z"/>
      <path class="cls-30" d="M347.17,170.23c-17.7-4.63-29.98-25.33-33.36-42.84-2.65-13.73-26.07-15.75-21.67-34.08-5.05,1.83-9.91,4.17-14.44,7,.4,3.77,1.97,7.14,5.8,9.5,13.33,8.21,20.99,21.53,23.57,36.42,2.4,13.81,18.45,13.12,27.8,28.67,1.28,2.13,6.2,13.79,16.27,16.42,8.81,2.3,14.84-4.79,19.87-12.25,1.15-2.5,2.08-5.04,2.75-7.59,1.2-4.6,1.55-9.26.78-13.91-5.2,11.27-13.53,16.28-27.38,12.66Z"/>
      <path class="cls-66" d="M351.14,191.32c-10.06-2.63-14.98-14.29-16.27-16.42-9.35-15.55-25.41-14.87-27.8-28.67-2.58-14.89-10.25-28.21-23.57-36.42-3.83-2.36-5.4-5.73-5.8-9.5-4.93,3.08-9.48,6.75-13.49,11.02.06.13.13.26.19.39,1.7.08,3.49.35,5.37.84,8.11,2.12,12.2,6.77,14.44,7.35,2.24.59,4.91-.11,6.9.41,3.84,1,20.19,20.82,15.6,38.38-.19.73-.42,1.46-.69,2.17,2.1.51,3.45.87,3.51.88,3.58.94,6.6,2.11,9.14,3.46,9.53,4.29,14.2,13.87,10.46,28.2-.37,1.43-.96,3.25-1,3.4-1.45,5.56,5.24,8.91,9.54,10.15.05.01.1.02.15.03.11.03.23.07.35.1.01,0,.03,0,.04.01,3.74.98,7.74.95,11.44-.06,8.62-8.28,16.74-17.87,21.36-27.96-5.03,7.46-11.06,14.55-19.87,12.25Z"/>
      <path class="cls-58" d="M384,147.13c7.4,5.41,13.5,13.04,13.15,22.56-.63,17.04-11.66,53.96,27.1,64.1.74.19,1.49.36,2.23.52.66-1.06,1.28-2.13,1.84-3.23,2.7-20.99-3.95-52.87-22.3-69.77-.14-.13-8.4-6.83-15.95-12.51-1.27-.42-2.58-.8-3.93-1.15-.71-.19-1.43-.36-2.15-.53ZM424.54,211.82c-1.89,7.23-7.12,9.82-12.1,8.52-2.41-.63-4.46-2.22-5.28-4.68-.03-.1-.06-.2-.09-.31-7.47-7.83-10.33-22.08-8.39-29.51.92-3.51,4.34-9.4,6.75-8.77,13.17,3.44,22,23.72,19.12,34.75Z"/>
      <path class="cls-45" d="M428.32,231.09c1.21-2.36,2.17-4.81,2.84-7.37,3.18-12.16,1.61-60.96-41.08-74.91,7.55,5.67,15.81,12.38,15.95,12.51,18.34,16.9,25,48.78,22.3,69.77Z"/>
      <path class="cls-45" d="M398.67,185.85c-1.94,7.43.92,21.68,8.39,29.51.03.1.06.21.09.31.82,2.46,2.88,4.05,5.28,4.68,4.99,1.3,10.21-1.29,12.1-8.52,2.88-11.03-5.95-31.31-19.12-34.75-2.41-.63-5.83,5.27-6.75,8.77Z"/>
      <path class="cls-69" d="M344.84,297.22c.69-2.63-1.74-4.46-4.26-5.12-7.18-1.88-16.93,8.27-18.61,14.72-1.17,4.47-.52,9.37-.67,14.2,12.44-3.19,21.62-16.45,23.54-23.8Z"/>
      <path class="cls-58" d="M28.98,232.99c-5.86,22.4,12.37,41.69,28.42,55.8.53-.73.92-1.56,1.14-2.39.29-1.1.29-2.22-.05-3.15-7.06-19.74-3.41-53.37-20.3-57.78-6.48-1.69-7.52,1.04-9.21,7.53Z"/>
      <path class="cls-7" d="M215.99,303.91c-16.26,20.44-42.66,36.2-67.48,29.71-38.54-10.07-23.82-46.58-28.65-53.24-7.05-9.71-9.92-22.37-7.1-33.17.43-1.65,1-3.27,1.69-4.82-5.87,2.56-10.61,7.31-12.46,14.38-3.16,12.08,2.28,25.55,8.4,37.92,12.68,16.62,1.25,32.78,41.75,43.36,28.95,7.57,44.3-4.77,52.61-13.23.77-1.37,1.43-2.84,1.99-4.39.85-2.38,2.6-2.95,4.37-3.96,1.68-.96,3.37-2.31,4.33-5.99,1.52-5.8,3.7-8.54,6.15-9.82-2.26.54-4.22,1.55-5.58,3.26Z"/>
      <path class="cls-26" d="M152.13,338.04c-40.5-10.59-29.07-26.75-41.75-43.36,1.29,2.61,2.62,5.18,3.9,7.67,1.51,2.94-.41,6.64-.04,9.97.42,3.78,4.23,8.34,9.57,12.73,7.36,6.04,17.65,11.74,26.04,14.56,1.07.36,2.12.68,3.12.94,17.8,4.65,42.37,1.11,51.77-15.74-8.31,8.46-23.65,20.8-52.61,13.23Z"/>
      <path class="cls-7" d="M128.59,300.9c-.58-.15-1.14-.25-1.65-.27-2.15,14.2,13.1,26.92,20.68,28.9,4.07,1.06,6.65-1.06,7.43-4.06,2.17-8.31-10.64-7.1-22.8-22.26-.87-1.09-2.16-1.91-3.65-2.3Z"/>
      <path class="cls-26" d="M208.96,394.76c-36.43-9.52-51.59-37.29-56.58-54.36-.82-.23-1.66-.49-2.53-.78,2.55,14.91,16.65,46.79,64.06,59.19.32.08.63.16.95.24,48.9,12.48,61.31-8,90.35-33.84,1.83-1.62,2.74-3.26,3.17-4.89.04-.17.08-.34.11-.51-15.33,16.67-48.78,48.22-99.54,34.95Z"/>
      <path class="cls-18" d="M244.69,353.41c-18.06-4.72-30.21,14.24-54.73,7.83-10.7-2.8-20.41-9.55-26.15-18.95-3.31-.22-6.54-.71-9.59-1.43,6.38,14.1,20.29,29.64,36.83,33.96,27.56,7.21,38.02-18.53,62.35-16.75,18.64,1.36,39.1,6.57,55.26-2.22-.18-2.33-.59-4.64,0-6.91.37-1.42,1.07-2.66,1.99-3.79-.74-.21-1.48-.42-2.23-.62-2.81-.74-5.26-1.07-7.42-1.12-14.74,12.12-37.68,14.87-56.3,10Z"/>
      <path class="cls-46" d="M224.09,380.45c.81,1.89,2.76,4.05,7.4,5.26,15.02,3.93,43.45-5.89,45.91-15.33.72-2.74-.21-4.82-9.41-7.23-26.25-6.86-33.15,11.03-43.9,17.29Z"/>
      <path class="cls-58" d="M253.39,358.07c-24.32-1.78-34.78,23.96-62.35,16.75-16.54-4.32-30.45-19.87-36.83-33.96-.42-.1-.83-.2-1.24-.31-.2-.05-.39-.11-.59-.16,4.99,17.07,20.15,44.84,56.58,54.36,50.76,13.27,84.21-18.27,99.54-34.95.27-1.32.24-2.64.14-3.96-16.15,8.8-36.61,3.58-55.26,2.22ZM277.4,370.38c-2.47,9.44-30.89,19.26-45.91,15.33-4.64-1.21-6.59-3.37-7.4-5.26,10.75-6.27,17.65-24.16,43.9-17.29,9.2,2.4,10.13,4.49,9.41,7.23Z"/>
      <path class="cls-2" d="M125.56,53.01c6.12-1.62,14.95-2.37,23.82-2.56-20.32-.95-37.5,6.96-51.33,8.46-1.54.17-2.51,3.32-3.91,3.99-5.24,2.52-9.67,5.61-13.36,9.13-6.62,6.31-10.86,14.01-13.04,22.34-3.89,14.88-1.22,31.77,6.07,46.31,1.9,3.79,3.53,7.28,4.95,10.52,7.04,16.02,9.19,26.08,15.2,37.06-11.05-32.57-28.75-63.37-21.01-92.99,6.28-24.03,28.7-35.94,52.61-42.26Z"/>
      <path class="cls-18" d="M119.07,78.99c3.46-3.61,12.13-9.1,13.01-12.47.45-1.74-1.24-2.41-3.94-3.11-15.74-4.12-40.06,10.52-43.52,23.75-2.43,9.29,1.63,15.22,8.2,16.94.3.08.61.14.93.2,11.34-3.86,17.01-16.64,25.32-25.3Z"/>
      <path class="cls-30" d="M134.18,190.93c2.1-8.05,4.51-10.08,28.78-3.73.38.1.77.2,1.15.31-.36-1.6-.65-3.21-.85-4.82-9.48-3.22-12.62-8.85-24.58-11.97-15.07-3.94-23.04,5.22-24.57,11.07-2.69,10.29,8.91,21.3,15.42,29.66,3.47,4.46,5.9,20.44,17.61,30.14,0-.46.05-.95.19-1.47.86-3.27,3.38-5.39,4.92-9.1-7.81-12.06-21.74-26.05-18.07-40.07Z"/>
      <path class="cls-18" d="M122.9,219.69c6.87,15.67,15.46,27.5,31.63,31.73,2.69.7,5.41,1.26,8.07,1.95.52.14,1.04.28,1.55.43-.31-.32-.64-.62-1-.89-4.62-3.5-14.74-5.23-15.91-10.4-14.03-9.25-20-26.24-41.74-62.83-4.07-6.85-9.04-14.62-7.03-22.29,2.35-9.01,12.51-11.01,21.71-8.61,18.31,4.79,24.18,15.39,43.01,33.54-.25-2.04-.37-4.08-.34-6.11-2.94-1.94-5.8-4.01-8.58-6.3-5.2-4.28-33.66-33.26-39.36-34.75-3.5-.92-8.79,0-13.82,2.58-4.06,3.16-7.14,7.49-8.61,13.13-6.61,25.27,26.52,59.94,30.41,68.81Z"/>
      <path class="cls-2" d="M87.86,153.32c-1.23,4.72-.76,9.88,2.15,14.93,12.25,21.22,21,37.19,27.88,49.31,5.79,10.2,10.25,17.68,14.36,23.26,7.13,9.69,13.2,13.67,23.3,16.31,3.86,1.01,7.87,1.59,11.88,1.88-.96-2-1.93-3.83-3.29-5.22-.51-.15-1.03-.29-1.55-.43-2.66-.7-5.38-1.25-8.07-1.95-16.17-4.23-24.76-16.06-31.63-31.73-3.89-8.87-37.01-43.55-30.41-68.81,1.48-5.65,4.56-9.97,8.61-13.13-5.85,3-11.34,8.27-13.25,15.57Z"/>
      <path class="cls-5" d="M168.57,217.78c-2.03,7.76-8.29,7.27-10.82,10.23,3.63-.04,8.19,1.12,10.88,1.82,1.45.38,2.89.78,4.33,1.16-2.52-3.07-3.96-6.18-3.22-9.02.72-2.76,3.17-4.7,6.24-5.74-4.31-8.03-8.84-17.03-11.28-26.31-.14.27-.25.56-.33.88-1.19,4.57,6.62,17.77,4.22,26.98Z"/>
      <path class="cls-66" d="M150.62,216.17c-3.45-5.56-9.32-10.36-7.41-17.64,1.81-6.91,8.65-12.18,21.27-9.4-.13-.54-.26-1.07-.38-1.61-.38-.1-.76-.21-1.15-.31-24.27-6.34-26.68-4.32-28.78,3.73-3.66,14.02,10.27,28.02,18.07,40.07.08-.19.16-.39.23-.59.43-1.16,1.47-1.82,2.85-2.15-1.17-4.16-2.38-8.34-4.71-12.1Z"/>
      <path class="cls-64" d="M98.48,157.39c-2,7.66,2.97,15.44,7.03,22.29,21.74,36.59,27.7,53.58,41.74,62.83-.07-.3-.1-.61-.11-.93-11.71-9.7-14.14-25.67-17.61-30.14-6.51-8.36-18.11-19.37-15.42-29.66,1.53-5.85,9.49-15.01,24.57-11.07,11.95,3.12,15.1,8.75,24.58,11.97-.02-.12-.03-.24-.04-.36-18.83-18.15-24.7-28.75-43.01-33.54-9.2-2.41-19.36-.4-21.71,8.61ZM140.23,164.02c-1.35,5.18-12.79-2.42-20.15,1.25-3.95,1.97-8.05,4.16-11.98,3.13-.92-.24-1.96-.73-2.85-1.38-.51-2.17-.5-4.48.06-6.63,2.46-9.4,11.76-8.25,20.34-6,11.71,3.06,14.99,8.04,14.57,9.63Z"/>
      <path class="cls-18" d="M105.31,160.39c-.56,2.15-.58,4.46-.06,6.63.89.65,1.92,1.14,2.85,1.38,3.93,1.03,8.04-1.16,11.98-3.13,7.36-3.67,18.8,3.93,20.15-1.25.42-1.59-2.87-6.57-14.57-9.63-8.59-2.24-17.89-3.39-20.34,6Z"/>
      <path class="cls-41" d="M143.21,198.52c-1.9,7.28,3.97,12.09,7.41,17.64,2.34,3.77,3.54,7.95,4.71,12.1.73-.17,1.54-.25,2.42-.26,2.53-2.95,8.79-2.46,10.82-10.23,2.41-9.21-5.41-22.41-4.22-26.98.08-.31.2-.61.33-.88-.07-.27-.14-.53-.21-.8-12.62-2.78-19.47,2.5-21.27,9.4Z"/>
      <path class="cls-30" d="M231.84,103.67c-7.28-1.9-13.68-7.99-22.5-10.3-19.2-5.02-30.6,16.01-34.41,30.58-2.14,8.2-3,16.98-3.46,25.57,2.56-4.77,5.56-9.64,8.79-14.28.53-2.7,1.12-5.42,1.82-8.09,4.58-17.5,13.52-30.49,31.19-25.87,8.01,2.09,14.72,8.3,22.68,10.39,10.69,2.79,13.99-4.07,20.33-2.41,1.99.52,3.65,1.38,5.03,2.51.83-.08,1.68-.11,2.55-.09.11-.12.23-.25.35-.37-.93-1.92-1.84-3.83-2.65-5.75-.49-1.15-.81-2.32-1.08-3.48-1.26-.62-2.56-1.12-3.92-1.47-12.26-3.2-15.4,5.48-24.72,3.05Z"/>
      <path class="cls-66" d="M235.96,111.68c-7.97-2.08-14.67-8.29-22.68-10.39-17.67-4.62-26.62,8.37-31.19,25.87-.7,2.66-1.29,5.38-1.82,8.09,3.22-4.61,6.67-8.98,10.14-12.77,4.45-10.28,15.1-19.93,26.29-17,10.8,2.82,10.1,14.36,18.19,16.47,4.7,1.23,9.28-1.78,14.05-4.84,3.49-2.84,7.55-4.88,12.37-5.33-1.38-1.13-3.04-1.99-5.03-2.51-6.34-1.66-9.64,5.2-20.33,2.41Z"/>
      <path class="cls-44" d="M234.89,121.95c-8.09-2.12-7.4-13.65-18.19-16.47-11.2-2.93-21.85,6.72-26.29,17,7.94-8.66,16.02-14.29,21.79-12.78,11.59,3.03,16.1,18.5,17.2,33.84,1.32-1.83,2.26-3.12,2.56-3.54,4.05-5.65,9.01-16.39,16.99-22.9-4.77,3.06-9.35,6.07-14.05,4.84Z"/>
      <path class="cls-64" d="M216.81,94.64c-6.33-1.65-10.89-6.01-18.55-8.01-20.85-5.45-34.11,1.76-39.65,22.95-4.57,17.5-1.42,36.66,7.19,52.26,1.44-3.85,3.38-8.04,5.67-12.31.46-8.6,1.31-17.37,3.46-25.57,3.81-14.58,15.21-35.6,34.41-30.58,8.81,2.3,15.21,8.39,22.5,10.3,9.32,2.44,12.47-6.25,24.72-3.05,1.36.36,2.66.85,3.92,1.47-.55-2.36-.9-4.71-1.98-6.98-.19-.4-.56-.96-1.06-1.65-.01,0-.02,0-.03,0-15.3-4-32.99,3.17-40.6,1.18Z"/>
      <path class="cls-70" d="M225.74,62.2c-1.32-.34-2.74-.46-4.28-.26-11.44,1.44-43.53-8.32-61.32,33.15-2.02,4.71-3.85,10.07-5.45,16.19-5.11,19.54-3.25,40.53,9.01,57.47.11-.49.22-.98.35-1.47.03-.1.05-.2.08-.3-9.9-16.07-13.4-36.92-8.76-54.68,10.94-41.85,34.47-52.28,72.84-42.26,6.35,1.66,9.87,3.25,12.55,5.19-2.07-2.06-4.11-4.05-6.01-5.82-4.25-3.98-7.74-6.88-9.02-7.22Z"/>
      <path class="cls-18" d="M155.38,112.3c-4.64,17.76-1.15,38.61,8.76,54.68.44-1.62,1-3.35,1.67-5.14-8.61-15.6-11.76-34.77-7.19-52.26,5.54-21.19,18.8-28.4,39.65-22.95,7.66,2,12.22,6.36,18.55,8.01,7.61,1.99,25.3-5.18,40.6-1.18.01,0,.02,0,.03,0-2.78-3.77-9.85-11.43-16.67-18.23-2.68-1.94-6.2-3.53-12.55-5.19-38.36-10.03-61.9.4-72.84,42.26ZM240.47,80.3c-1.24,4.75-14.45,8.67-25.36,5.82-5.83-1.52-11.25-4.7-15.61-9.21,2.23-3.26,4.47-6.5,12.34-4.44,1.54.4,2.99.9,4.51,1.29,4.22,1.1,11.01,1.31,17.04,2.89,1.56.41,7.5,2.07,7.09,3.66Z"/>
      <path class="cls-7" d="M216.35,73.75c-1.52-.4-2.97-.89-4.51-1.29-7.87-2.06-10.11,1.19-12.34,4.44,4.36,4.51,9.78,7.69,15.61,9.21,10.9,2.85,24.11-1.06,25.36-5.82.42-1.59-5.53-3.25-7.09-3.66-6.03-1.58-12.82-1.79-17.04-2.89Z"/>
      <path class="cls-26" d="M339.06,243.34s-.19.78-.34,1.35c-4.78,18.29-14.03,22.49-15.03,26.31-.08.31-.19.74-.23,1.15,11.95-3.43,21.36-13.3,24.21-24.19,1.2-4.59-1.84-9.33-3.69-9.81-2.38-.62-4.29,2.79-4.92,5.18Z"/>
      <path class="cls-34" d="M349.54,232.83c3.19,5.61,3.55,11.66,2.05,17.39-6.33,24.21-36.74,33.19-63.15,35.16,7.99.46,15.97.4,23.37-.53,11.95-3.87,21.44-9.65,28.43-15.52,8.47-7.11,13.27-14.36,14.35-18.48,1.77-6.76.24-14.39-3.36-21.33-2.33-4.5-1.17-10.54-3.14-16.25-.03-.09-1.07-.92-2.54-1.96,4.48,6.71-.42,13.77,3.98,21.53Z"/>
      <path class="cls-61" d="M331.44,206.63c-2.21,14.05,7.76,22.61,3.47,38.99-7.72,29.53-48.69,35.03-73.5,32.88-.88,1.13-1.83,2.23-2.9,3.25,9.19,1.57,19.58,3.03,29.94,3.63,26.41-1.97,56.82-10.95,63.15-35.16,1.5-5.73,1.14-11.78-2.05-17.39-4.41-7.76.49-14.82-3.98-21.53-.1-.07-.19-.14-.29-.2-2.28-1.6-5.44-3.59-7.45-4.12s-4.21-.61-6.38-.35ZM347.67,247.97c-2.85,10.89-12.26,20.76-24.21,24.19.04-.41.15-.85.23-1.15,1-3.82,10.25-8.02,15.03-26.31.15-.57.33-1.31.34-1.35.62-2.39,2.54-5.8,4.92-5.18,1.85.48,4.89,5.22,3.69,9.81Z"/>
      <path class="cls-58" d="M334.91,245.62c4.28-16.39-5.69-24.95-3.47-38.99-2.84.33-5.75,1.22-8.68,2.32-.6,1.56-1.27,3.49-1.76,5.35-4.75,18.19,2.78,23.47-.77,37.06-2.84,10.87-11.45,20.65-23.33,22.04,0,0-22.66,3.01-35.16,4.68-.11.14-.22.29-.33.43,24.81,2.15,65.78-3.35,73.5-32.88Z"/>
      <path class="cls-5" d="M234.77,69.42c-.1-.52-.2-1.03-.31-1.54-2.34-2.36-5.05-4.28-8.03-5.38,1.61.89,4.69,3.51,8.34,6.92Z"/>
      <path class="cls-5" d="M180.04,69.25c16-10.61,33.57-6.33,41.42-7.31,1.22-.15,2.36-.11,3.44.08-.03,0-.06-.02-.08-.02-15.26-3.99-31.93-2.24-44.77,7.26Z"/>
      <path class="cls-66" d="M223.64,58.96c-33.86-8.85-51.95,6.58-63.56,35.72.02.14.04.27.06.41,5.58-13.02,12.58-20.99,19.9-25.84,12.84-9.5,29.52-11.24,44.77-7.26.03,0,.06.02.08.02.28.05.57.11.84.18.18.05.41.15.68.3,2.98,1.1,5.69,3.01,8.03,5.38-.12-.56-.24-1.12-.36-1.68-2.91-3.53-6.42-6.18-10.46-7.24Z"/>
      <path class="cls-2" d="M166.51,53.49c-3.13,7.46-5.29,15.28-6.98,21.74-.99,3.78-.97,7.6-.58,11.46,9.29-25.74,14.16-64.46,47.16-55.84,9.73,2.54,16.43,8.86,21.69,16.9-.7-1.4-1.44-2.75-2.23-4.05-4.69-7.68-11.03-13.39-19.42-15.58-21.28-5.56-32.78,9.01-39.64,25.36Z"/>
      <path class="cls-64" d="M210.26,39.8c-6.74-1.76-14.05,2.66-19.77,7.89.07.71.29,1.39.66,1.49.01,0,.03,0,.04,0,3.75.53,7.44-1.14,11.22-.15,1.74.45,5.86,2.68,9.91,3.74,1.88.49,7.13,1.4,7.63-.52,1.05-4.03-3.37-10.81-9.69-12.45Z"/>
      <path class="cls-64" d="M158.95,86.69c.17,1.66.41,3.32.67,5,3.82-10.01,25.04-61.75,50.87-55,8.57,2.24,16.51,13.38,22.87,26.39-1.4-5.47-3.22-10.67-5.55-15.33-5.27-8.04-11.96-14.35-21.69-16.9-33.01-8.63-37.87,30.1-47.16,55.84Z"/>
      <path class="cls-30" d="M159.61,91.69c.15.99.31,1.99.47,2.99,11.61-29.14,29.7-44.57,63.56-35.72,4.03,1.05,7.55,3.7,10.46,7.24-.23-1.05-.48-2.08-.74-3.11-6.35-13.02-14.29-24.15-22.87-26.39-25.83-6.75-47.05,44.98-50.87,55ZM219.95,52.26c-.5,1.92-5.75,1.01-7.63.52-4.04-1.06-8.17-3.28-9.91-3.74-3.78-.99-7.47.68-11.22.15-.01,0-.03,0-.04,0-.37-.1-.59-.78-.66-1.49,5.72-5.23,13.03-9.65,19.77-7.89,6.31,1.65,10.74,8.43,9.69,12.45Z"/>
      <path class="cls-64" d="M172.7,171.57c11.25,2.94,24.03,3.28,26.98-8,1.55-5.94.5-14.16-6.52-15.99-7.15-1.87-19.64,8.5-21.81,16.78-.56,2.16-.64,4.44-.1,6.8.43.15.91.27,1.45.41Z"/>
      <path class="cls-7" d="M191.84,133.21c6.44-7.81,14.2-22.77,23.77-20.26,1.76.46,3.41,1.21,4.95,2.21-2.26-2.66-5.02-4.58-8.37-5.45-14.21-3.72-42.47,35.89-48.14,57.58-.13.49-.24.98-.35,1.47-.54,2.48-.8,4.97-.84,7.47-.22,13.98,6.7,28.06,13.11,40.02.38-.13.77-.24,1.16-.34-5.08-18.01-13.72-37.13-8.97-55.27,3.87-14.81,15.14-17.05,23.68-27.4Z"/>
      <path class="cls-30" d="M191.84,133.21c-8.55,10.36-19.81,12.6-23.68,27.4-4.74,18.14,3.89,37.26,8.97,55.27.81-.21,1.66-.35,2.52-.44-3.8-9.61-7.28-20.23-4.79-29.76,4.54-17.38,21.99,3.36,26.49-13.87,2.7-10.34-1.75-26.83,1.34-38.67,1.33-5.07,6.1-13.4,10.78-12.17,5.39,1.41,9.47,10.83,15.66,19.53-1.01-9.87-3.54-19.44-8.57-25.36-1.54-.99-3.19-1.75-4.95-2.21-9.58-2.5-17.33,12.46-23.77,20.26ZM199.68,163.56c-2.95,11.28-15.73,10.94-26.98,8-.54-.14-1.02-.26-1.45-.41-.54-2.36-.46-4.64.1-6.8,2.17-8.29,14.66-18.65,21.81-16.78,7.01,1.83,8.07,10.05,6.52,15.99Z"/>
      <path class="cls-66" d="M206.28,169.34c2.46-9.41,3.3-19.99,5.35-27.83,1.08-4.11,4.38-5.73,7.01-5.05,3.91,1.02,7.44,3,10.65,5.68-.05-.54-.1-1.08-.15-1.62-6.19-8.7-10.27-18.12-15.66-19.53-4.68-1.22-9.45,7.1-10.78,12.17-3.09,11.83,1.36,28.33-1.34,38.67-4.5,17.23-21.95-3.51-26.49,13.87-2.49,9.53.99,20.15,4.79,29.76,1.73-.17,3.5-.1,5.18.23-2.43-9.09-4.9-17.02-3.84-21.08,1.94-7.41,17.83,3.25,25.29-25.27Z"/>
      <path class="cls-41" d="M229.29,142.13c-3.2-2.68-6.74-4.66-10.65-5.68-2.63-.69-5.93.93-7.01,5.05-2.05,7.84-2.89,18.43-5.35,27.83-7.45,28.52-23.35,17.86-25.29,25.27-1.06,4.06,1.41,11.99,3.84,21.08.31.06.62.13.92.21.09.02.17.05.25.07,5.07-11.68,13.42-12.92,17.7-29.29,1.16-4.43,1.94-9.04,3.12-13.56,3.17-12.13,10.23-26.11,21.15-27.59.51-.71.99-1.38,1.42-1.99-.03-.47-.07-.94-.11-1.41Z"/>
      <path class="cls-66" d="M175.06,231.44c-.05-.47,0-1.05.2-1.8,1.27-4.87,4.69-5.35,9.44-4.11,17.32,4.53,13.78,24.7,28.58,28.57,1.14.3,2.32.49,3.51.58.42-.21.81-.42,1.18-.65,1.21-.77,2.11-1.65,2.66-2.56-1.92.38-3.75.29-5.49-.16-14.92-3.9-15.61-24.96-31.12-29.01-3.94-1.03-10.66-1.05-12.2,3.68.77,1.64,1.83,3.54,3.24,5.47Z"/>
      <path class="cls-8" d="M169.74,221.97c-.74,2.84.7,5.95,3.22,9.02,3.66,4.46,9.6,8.83,14.42,12.16,3.05,3.99,5.52,9.82,15.37,12.39,1.86.49,3.62.73,5.28.8-.87-.14-1.77-.33-2.72-.58-12.48-3.26-14.63-12.12-22.3-16.85-1.87-1.16-3.49-2.49-4.9-3.89-.39-.39-.77-.79-1.12-1.19-.71-.79-1.35-1.59-1.94-2.39-1.4-1.93-2.46-3.83-3.24-5.47-1.21-2.58-1.73-4.51-1.78-4.89-.12.29-.23.58-.31.89Z"/>
      <path class="cls-18" d="M175.97,216.23c-1.1.37-2.13.87-3.02,1.47,3.59-.44,7.41-.4,10.93.52,9.67,2.53,24.24,26.91,37.23,32.12,0-.01,0-.02.01-.03,0,0-.19-.18-.54-.51-2.72-2.6-15.27-14.74-25.69-28.04-1.35-1.73-3.1-3.16-5.06-4.24-1.14-.62-2.35-1.12-3.6-1.49-.16-.05-.32-.09-.48-.14-3.15-.82-6.77-.68-9.78.34Z"/>
      <path class="cls-44" d="M175.26,229.64c-.19.74-.25,1.33-.2,1.8.58.8,1.23,1.6,1.94,2.39.36.4.73.8,1.12,1.19,1.41,1.4,3.03,2.73,4.9,3.89,7.67,4.74,9.81,13.59,22.3,16.85.95.25,1.85.44,2.72.58,3.51.14,6.51-.56,8.76-1.66-1.19-.09-2.37-.28-3.51-.58-14.8-3.87-11.26-24.04-28.58-28.57-4.76-1.24-8.17-.76-9.44,4.11ZM197.26,244.66c-.11.42-1.6.47-2.34.27-4.09-1.07-4.61-8.47-13.52-10.8-.12-.03-.42-.22-.35-.52.01-.05.04-.1.07-.15-.59-1.13-.89-2.82-.58-4,.5-1.91,3.55-1.83,5.1-1.43,6.95,1.82,12.1,14.74,11.61,16.63Z"/>
      <path class="cls-30" d="M172.95,217.7c-1.31.89-2.33,2.02-2.91,3.38.05.37.56,2.31,1.78,4.89,1.54-4.73,8.27-4.71,12.2-3.68,15.51,4.05,16.2,25.11,31.12,29.01,1.74.45,3.57.54,5.49.16.22-.37.39-.75.49-1.12-12.99-5.21-27.56-29.59-37.23-32.12-3.52-.92-7.34-.97-10.93-.52Z"/>
      <path class="cls-37" d="M197.26,244.66c.49-1.88-4.66-14.81-11.61-16.63-1.55-.4-4.6-.48-5.1,1.43-.31,1.18,0,2.86.58,4-.04.05-.06.11-.07.15-.08.3.22.49.35.52,8.91,2.33,9.42,9.73,13.52,10.8.74.19,2.23.15,2.34-.27Z"/>
      <path class="cls-58" d="M164.19,251.6c-5.62-4.9-14.51-10.18-13.07-18.35-1.44,2.45-3.13,4.31-3.8,6.86-1.86,7.13,10.57,8.82,15.83,12.81,1.91,1.44,3.11,3.65,4.29,6.1,1.94,4.05,3.81,8.77,8.62,11.9.6.39,1.25.75,1.95,1.09-5.17-5.52-8.41-15.7-13.82-20.41Z"/>
      <path class="cls-66" d="M156.45,228.08c-.99.11-1.86.34-2.55.73-.66.38-1.16.9-1.42,1.61-.09.24-.18.46-.27.69,1.69-.56,3.49-.71,5.09-.29,9.17,2.4,6.58,22.08,28.71,27.86,1.79.47,4.74,1.13,4.79,1.14,3.4.89,8.05,4.12,6.46,10.22-.25.96-.63,1.86-1.11,2.68,4.28-1.44,8.46-3.26,9.58-7.57.85-3.26-.88-5.59-3.02-6.15-.05-.01-7.42.15-12.01-1.05-18.77-4.91-9.17-22.96-33.52-29.68-.21-.06-.42-.12-.63-.17-.03,0-.06-.01-.09-.02Z"/>
      <path class="cls-18" d="M172.61,255.43c-.79-.21-1.01.3-1.22,1.09-.9,3.45,4.01,11.85,9.24,13.22.94.25,1.55.37,2.24.11,3.64.51,7.69-2.12,8.1-3.7.38-1.44-3.95-2.82-5.39-3.2-1.02-.27-2.06-.49-3.09-.76-5.67-1.48-7.23-6.07-9.89-6.77Z"/>
      <path class="cls-44" d="M168.63,229.83c-2.49-.65-6.6-1.7-10.08-1.81-.73-.02-1.44,0-2.09.06.03,0,.06.01.09.02.22.06.42.12.63.17,24.36,6.72,14.76,24.77,33.52,29.68,4.59,1.2,11.97,1.04,12.01,1.05,2.14.56,3.87,2.89,3.02,6.15-1.13,4.31-5.31,6.13-9.58,7.57-.05.08-.09.16-.14.23,7.21-1.81,14.88-6.09,19.68-14.2-.29-.65-.91-1.11-1.74-1.33-1.84-.48-7.5,1.51-14.72-.38-13.73-3.59-15.96-20.29-29.37-26.9-.41-.11-.82-.22-1.23-.33Z"/>
      <path d="M194.3,273.79l-.22-.84.13-.04c.6-.19,1.2-.39,1.8-.59l1.1-.37-.83,1.4-.17.04c-.61.15-1.22.29-1.82.41Z"/>
      <path class="cls-15" d="M213.95,257.43c.83.22,1.45.68,1.74,1.33.86-1.45,1.63-3.03,2.28-4.73-3.25,2.06-8.69,3.23-15.22,1.52-9.86-2.58-12.33-8.41-15.37-12.39-4.82-3.33-10.76-7.7-14.42-12.16-1.03-.27-2.07-.55-3.1-.83,13.41,6.61,15.64,23.31,29.37,26.9,7.22,1.89,12.88-.1,14.72.38Z"/>
      <path class="cls-30" d="M197.26,270.04c1.59-6.1-3.05-9.33-6.46-10.22-.05-.01-3-.68-4.79-1.14-22.13-5.79-19.54-25.47-28.71-27.86-1.6-.42-3.41-.28-5.09.29-.33.77-.7,1.48-1.09,2.14-1.44,8.17,7.44,13.45,13.07,18.35,5.41,4.71,8.65,14.89,13.82,20.41,1.11.54,2.36,1,3.76,1.36,3.1.81,7.6.95,12.44,0,.64-.21,1.29-.42,1.94-.64.48-.82.86-1.72,1.11-2.68ZM171.39,256.53c.21-.79.43-1.3,1.22-1.09,2.65.69,4.22,5.29,9.89,6.77,1.03.27,2.07.49,3.09.76,1.45.38,5.77,1.76,5.39,3.2-.41,1.58-4.46,4.2-8.1,3.7-.69.26-1.31.14-2.24-.11-5.23-1.37-10.15-9.77-9.24-13.22Z"/>
      <path class="cls-5" d="M229.75,246.01c1.21-1.72,3.55-3.32,6.2-4.99-6.58,3.37-13.41,6.06-14.91,5.66-.12-.03-.23-.07-.34-.11.66,1.14,1.01,1.83,1,1.87-.15.56-.54,1-1.09,1.34.35.33.54.51.54.51-.34,1.29-1.45,2.63-3.16,3.72-7.11,18.5-27.34,21.66-36.2,19.34-2.28-.6-4.15-1.44-5.71-2.45-.04.14-.08.28-.12.42-.28,1.08-.44,2.16-.49,3.21.47.15.93.28,1.4.41,20.58,5.38,40.75-11.64,52.9-28.94Z"/>
      <path class="cls-44" d="M249.02,226.4c-.2.12-.4.24-.6.36.25.33.45.66.62,1,.55,1.15.6,2.38.29,3.55-.62,2.37-6.88,6.38-13.38,9.71-2.65,1.67-4.99,3.27-6.2,4.99-12.15,17.29-32.31,34.32-52.9,28.94-.47-.12-.93-.26-1.4-.41-.21,4.23,1.34,8.19,4.01,11.48,3.58-1.15,7.81-.69,11.61-1.39,12.68-2.31,19.34-14.2,26.58-23.44,16.49-21.03,37.91-18.99,42.6-36.93.41-1.58.64-3.32.64-5.04-4.25,2.54-8.36,5.09-11.87,7.17Z"/>
      <path class="cls-66" d="M260.89,219.23c0,1.72-.22,3.46-.64,5.04-4.69,17.93-26.11,15.89-42.6,36.93-7.24,9.23-13.9,21.13-26.58,23.44-3.81.69-8.03.23-11.61,1.39,2.87,3.55,7.02,6.31,11.62,7.8.05-.31.11-.62.19-.93,3.38-12.93,22.46-11.94,33.5-35.86,5.9-12.79,38.68-2.83,45.41-28.6,1.14-4.36,1.64-9.01,2.82-13.52.27-1.03.58-2.03.94-2.97-4.17,2.08-8.68,4.67-13.04,7.28Z"/>
      <path class="cls-30" d="M270.17,228.44c-6.74,25.77-39.51,15.81-45.41,28.6-11.04,23.92-30.12,22.93-33.5,35.86-.08.31-.14.62-.19.93.47.15.94.29,1.42.42,10.06,2.63,19.42,2.49,28.05,1.11-.94-.14-1.87-.31-2.76-.54-7.56-1.98-10.32-8.23-8.96-13.41,2.18-8.32,22.53-20.94,28.55-24.37,6.8-3.86,14.9-2.61,22.01-5.98,19.77-9.37,9.31-44.02,33.34-37.74.54.14,1.07.32,1.59.52-1.12-3.01-2.95-5.31-5.85-6.07-3.04-.8-8.41,1.14-14.53,4.19-.35.95-.67,1.94-.94,2.97-1.18,4.5-1.68,9.15-2.82,13.52Z"/>
      <path class="cls-2" d="M265.83,261.16c-2.09,6.08-3.93,12-9.36,16.21-.17.13-15.21,9.87-23.6,15.2,2.06-.58,4.07-1.19,6.02-1.81,3.42-1.08,6.68-2.18,9.78-3.14,17.87-5.56,19.38-27.51,24.42-29.09,10.48-3.28,18.92-10.72,21.46-20.41.09-.35.77-3.83,1.11-8.33.05-.63.09-1.28.12-1.95-7.21,24.3-25.45,20.23-29.95,33.32Z"/>
      <path class="cls-64" d="M259.38,251.05c-7.11,3.37-15.21,2.11-22.01,5.98-6.03,3.42-26.38,16.04-28.55,24.37-1.36,5.19,1.41,11.44,8.96,13.41.89.23,1.81.41,2.76.54,4.3-.69,8.41-1.68,12.34-2.78,8.39-5.33,23.43-15.07,23.6-15.2,5.43-4.2,7.27-10.12,9.36-16.21,4.5-13.1,22.74-9.03,29.95-33.32.23-4.64.02-9.96-1.47-14-.52-.2-1.04-.38-1.59-.52-24.04-6.28-13.57,28.37-33.34,37.74ZM254.16,266.36c-2.24,8.58-10.97,13.55-19.56,16.97-2.99,3.17-9.36,4.61-13.25,3.6-3.59-.94-3.76-3.38-2.73-7.35,3.7-14.15,25.65-21.96,34.7-19.6,2.03.53,1.38,4.34.84,6.38Z"/>
      <path class="cls-18" d="M218.62,279.58c-1.04,3.97-.86,6.41,2.73,7.35,3.89,1.02,10.27-.43,13.25-3.6,8.59-3.42,17.32-8.39,19.56-16.97.53-2.04,1.19-5.85-.84-6.38-9.05-2.37-31,5.45-34.7,19.6Z"/>
      <path class="cls-5" d="M252.65,183.89c.24-.93.52-1.82.81-2.67-3.34,5.28-5.91,11.09-7.57,17.43-.27,1.02-.75,2.02-1.32,3.02,4.14-.11,8.19,0,11.06.74.9.23,1.66.53,2.23.94,1.44.93,1.53,2.45.98,4.57-1.13,4.31-4.76,9.38-5.93,13.87-.22.85-.35,1.68-.36,2.48,4.99-3.03,10.75-6.58,16.27-9.63-.04-.37-.07-.75-.06-1.16.1-18.24-19.68-15.9-16.1-29.59Z"/>
      <path class="cls-15" d="M258.84,207.92c.55-2.12.47-3.64-.98-4.57.95.68,1.37,1.66.97,3.18-.96,3.67-8.5,12.47-15.7,17.04,2.62.79,4.31,1.91,5.29,3.18,1.29-.76,2.68-1.6,4.13-2.48.01-.8.14-1.63.36-2.48,1.17-4.49,4.8-9.56,5.93-13.87Z"/>
      <path class="cls-18" d="M325.16,186.48c-1.02,3.9-2.45,4.21-3.82,6.46-7.63,12.52-12.06,29.12-25.58,35.34-.03.51-.06,1.01-.1,1.51,9.23-3.25,14.65-10.07,18.74-17.43,4.51-8.12,7.4-16.9,11.97-22.25,1.48-1.73,2.43-3.59,2.93-5.51,2.06-7.88-2.2-18.26-19.76-22.85-.02,0-.21-.05-.53-.14,10.19,7.88,18.78,14.8,16.15,24.87Z"/>
      <path class="cls-30" d="M306.03,160.86c-4.23-1.04-11.52-2.73-17.42-3.66-5.05,4.72-7.62,9.81-8.17,11.91-4.53,17.34,26.43,27.97,22.51,42.96-1.04,3.98-3.82,7.96-7.1,11.51.03,1.6,0,3.18-.09,4.69,13.51-6.22,17.95-22.82,25.58-35.34,1.37-2.25,2.8-2.57,3.82-6.46,2.63-10.07-5.96-16.99-16.15-24.87-.59-.15-1.62-.41-2.98-.74ZM315.38,180.64c-1.31,5.02-7.41,8.03-8.97,13.98-.02.07-.03.14-.05.2-.89.13-1.79.1-2.65-.13-1.3-.34-2.5-1.12-3.45-2.45-8.99-12.58-14.48-12.79-12.14-21.75,1.28-4.91,3.34-8.24,8.6-6.87,11.51,3.01,20.22,11.03,18.66,17.01Z"/>
      <path class="cls-64" d="M288.12,170.49c-2.34,8.96,3.15,9.16,12.14,21.75.95,1.33,2.15,2.11,3.45,2.45.86.22,1.75.25,2.65.13.02-.07.03-.14.05-.2,1.56-5.95,7.66-8.96,8.97-13.98,1.56-5.98-7.14-14-18.66-17.01-5.27-1.38-7.32,1.96-8.6,6.87Z"/>
      <path class="cls-66" d="M280.44,169.12c.55-2.1,3.12-7.19,8.17-11.91-1.47-.23-2.86-.41-4.09-.52-7.75,4.1-14.71,10.95-17.26,20.7-2.58,9.86-2.09,21.31,8.09,23.97,2.67.7,5.45.97,8.12,1.67,4.15,1.09,6.82,3.49,8.24,6.57,3.05,2.94,4.04,8.53,4.15,13.99,3.28-3.55,6.06-7.53,7.1-11.51,3.92-14.99-27.04-25.62-22.51-42.96Z"/>
      <path class="cls-44" d="M283.46,203.02c-2.67-.7-5.44-.97-8.12-1.67-10.18-2.66-10.67-14.11-8.09-23.97,2.55-9.75,9.51-16.6,17.26-20.7-2.32-.21-4.1-.17-4.86.27-10.77,6.15-19.86,14.25-26.19,24.28-.29.85-.57,1.74-.81,2.67-3.58,13.69,16.21,11.35,16.1,29.59,0,.41.02.79.06,1.16,8.14-4.5,15.77-7.9,19.64-6.89,1.28.33,2.35.97,3.24,1.83-1.42-3.08-4.08-5.49-8.24-6.57Z"/>
      <path class="cls-66" d="M234.11,159.67c-8.76-2.29-16.79,11.36-20.97,19.35.25.67.52,1.34.79,2.01,4.62-10.77,10.57-15.85,15.1-16.75,1.06-.21,2.05-.2,2.93.03,1.2.31,2.46,1.27,3.71,2.68,9.72,4.42,6.35,18.16,12.04,19.64.83.22,1.82,0,2.89-.38,2.92-5.73,6.68-10.91,11.13-15.53-3.44,1.06-6.95,1.36-10.53.43-9.13-2.39-11.19-9.93-17.09-11.47Z"/>
      <path class="cls-30" d="M249.55,161.5c-9.28-2.43-16.77-11.84-15.09-25.34-.88,1.43-1.71,2.74-2.51,3.85-.3.43-1.25,1.71-2.56,3.54-5.04,7.02-15.61,22.15-17.25,28.43-.57,2.17.08,4.59,1,7.04,4.18-7.99,12.21-21.64,20.97-19.35,5.9,1.54,7.97,9.09,17.09,11.47,3.58.93,7.09.64,10.53-.43,4.38-4.55,9.43-8.56,14.98-12.02-10.19,1.08-19.99,4.67-27.16,2.8Z"/>
      <path class="cls-64" d="M258.75,151.88c-10.26-2.68-20.46-10.14-17.52-21.39,1.38-5.28,5.09-10.51,9.05-14.41-7.14,5.16-11.97,13.82-15.82,20.08-1.68,13.5,5.81,22.91,15.09,25.34,7.17,1.87,16.97-1.71,27.16-2.8.96-.6,1.94-1.19,2.94-1.75.8-.45,2.68-.48,5.14-.24,6.19.6,16.03,2.88,21.24,4.15.27-.71.49-1.44.69-2.17,1.34-5.11.89-10.42-.5-15.4-.84,1.38-1.79,2.71-2.91,3.96-8.63,9.53-38.24,6.28-44.56,4.63Z"/>
      <path class="cls-31" d="M287.75,123.96c.98.26,2.02.45,3.04.72,4.69,1.23,8.44,4.45,11.21,8.48-3.98-7.2-8.98-12.35-10.89-12.85s-4.66.18-6.9-.41c-2.24-.58-6.32-5.23-14.44-7.35-1.88-.49-3.67-.76-5.37-.84-.18,0-.36-.02-.54-.02-4.53-.11-8.44,1.16-11.85,3.23,5.91-1.23,12.1-1.06,18.04.49,10.68,2.79,13.43,7.43,17.69,8.54Z"/>
      <path class="cls-7" d="M241.23,130.49c-2.94,11.25,7.26,18.71,17.52,21.39,6.32,1.65,35.93,4.9,44.56-4.63,1.13-1.24,2.07-2.58,2.91-3.96-1.01-3.62-2.52-7.06-4.22-10.13-2.77-4.04-6.52-7.26-11.21-8.48-1.02-.27-2.06-.46-3.04-.72-4.26-1.11-7.01-5.75-17.69-8.54-5.94-1.55-12.13-1.72-18.04-.49-.59.36-1.17.74-1.73,1.15-3.97,3.89-7.67,9.13-9.05,14.41ZM284.15,128.26c1.62.42.97,4.3.56,5.84-1.71,6.55-7,10.12-10.34,10.34-4.03,2.95-9.24,3.85-13.97,2.62-9.02-2.36-12.84-11.27-11.16-17.71,1.43-5.47,8.04-9.61,14.67-7.87,3.02.79,5.43,3.1,14.65,5.51,2.76.72,5.58,1.28,5.58,1.28Z"/>
      <path class="cls-31" d="M263.92,121.47c-6.63-1.73-13.24,2.4-14.67,7.87-1.68,6.44,2.14,15.35,11.16,17.71,4.73,1.24,9.94.33,13.97-2.62,3.34-.22,8.63-3.8,10.34-10.34.4-1.54,1.06-5.41-.56-5.84,0,0-2.82-.55-5.58-1.28-9.23-2.41-11.63-4.72-14.65-5.51Z"/>
      <path class="cls-15" d="M223.73,242.25c-9.07-2.37-15.36-21.62-32.22-26.03-1.16-.3-2.34-.51-3.54-.62-.58.14-1.16.28-1.73.42,1.25.37,2.47.87,3.6,1.49.92.1,1.82.27,2.71.5,12.27,3.21,24.61,22.43,28.14,28.56.11.04.23.08.34.11,2.25.59,16.55-5.77,23.94-10.97-6.62,3.89-14.41,8.31-21.23,6.53Z"/>
      <path class="cls-5" d="M195.62,215.89c-1.82-.48-3.7-.72-5.61-.77-.68.16-1.36.32-2.04.49,1.2.11,2.39.31,3.54.62,16.86,4.41,23.15,23.65,32.22,26.03,6.82,1.78,14.61-2.64,21.23-6.53,2.39-1.68,4.05-3.24,4.36-4.41.03-.12.06-.23.08-.35-8.24,2.99-17.42,4.49-25.88,2.28-11.84-3.09-17.41-14.61-27.9-17.35Z"/>
      <path class="cls-44" d="M211.96,213.79c-2.81-.73-5.69-1.06-8.6-1.14-.73.08-1.46.16-2.2.27-3.71.51-7.47,1.33-11.15,2.2,1.91.05,3.79.3,5.61.77,10.49,2.74,16.07,14.26,27.9,17.35,8.46,2.21,17.64.71,25.88-2.28.26-1.33.06-2.7-.8-3.96-2.27-.22-4.56-.14-9.23-1.36-11.17-2.92-20.05-9.93-27.41-11.85Z"/>
      <path class="cls-66" d="M216.61,213.32c-4.16-1.09-8.65-1.15-13.26-.67,2.92.08,5.79.41,8.6,1.14,7.36,1.92,16.24,8.93,27.41,11.85,4.67,1.22,6.96,1.14,9.23,1.36-.06-.08-.12-.17-.18-.25-.98-1.26-2.67-2.38-5.29-3.18-.25-.07-.5-.15-.76-.22-3.32-.87-6.86-1.01-10.16-1.87-5.31-1.39-6.31-3.76-9.84-5.87-1.39-.83-3.17-1.62-5.76-2.3Z"/>
      <path class="cls-5" d="M205.04,210.87c-1.6-.42-3.1-1.24-4.34-2.34.04,1.66.21,3.14.45,4.39,5.37-.74,10.64-.85,15.46.4,2.59.68,4.37,1.47,5.76,2.3-.01-.18-.03-.35-.05-.53-1.76-1.61-3.49-3.24-6.14-3.93-4.26-1.11-7.65.62-11.14-.29Z"/>
      <path class="cls-66" d="M203.65,193.67c1.04-1.07,2.35-1.61,3.92-1.2,5.64,1.47,8.12,16.65,14.52,21.46-.16-.6-.4-1.19-.73-1.77-.45-.79-.87-1.55-1.28-2.28-7.73-13.91-8.46-17.94-9.39-19.43-.44-.69-.92-.83-2.18-1.16-2.15-.56-3.72,1.65-4.86,4.38Z"/>
      <path class="cls-44" d="M207.57,192.47c-1.57-.41-2.88.13-3.92,1.2-.86,2.06-1.48,4.42-1.92,6.09-.84,3.2-1.09,6.19-1.03,8.77,1.24,1.1,2.74,1.93,4.34,2.34,3.49.91,6.88-.82,11.14.29,2.65.69,4.38,2.32,6.14,3.93-.05-.39-.12-.78-.23-1.16-6.41-4.82-8.88-19.99-14.52-21.46Z"/>
      <path class="cls-40" d="M233.5,221.02c-4.82-1.26-10.53-6-12.82-11.43-.19.16-.38.26-.59.3.41.73.83,1.49,1.28,2.28.63,1.11.93,2.27,1.01,3.45,3.54,2.11,4.53,4.49,9.84,5.87,3.29.86,6.84,1,10.16,1.87.26.07.51.14.76.22.5-.32,1.01-.66,1.52-1.02-.47-.17-.94-.33-1.43-.45-4.17-1.09-5.92-.1-9.72-1.09Z"/>
      <path class="cls-14" d="M252.79,203.09c-3.95-1.03-7.32,1.81-11.39,1.86-5.16.06-12.36-2.41-17.4-.88-.75.99-1.32,2.19-1.85,3.25-.02,5.85,5.16,10.1,10.54,11.51,6.75,1.76,14.57-.56,20.65-4.12,1.91-2.12,3.47-4.19,4.46-5.88-.2-2.63-2.26-5.01-5.01-5.73Z"/>
      <path class="cls-5" d="M232.69,218.82c-5.38-1.41-10.56-5.65-10.54-11.51-.49.97-.94,1.82-1.47,2.26,2.3,5.43,8,10.17,12.82,11.43,3.79.99,5.54,0,9.72,1.09.48.13.96.28,1.43.45,3.11-2.21,6.19-5.07,8.69-7.86-6.08,3.56-13.9,5.88-20.65,4.12Z"/>
      <path class="cls-64" d="M244.57,201.68c-.9.02-1.8.06-2.69.1-5.88.27-11.44.82-13.44.41-2.05-.42-3.41.52-4.44,1.88,5.03-1.53,12.24.94,17.4.88,4.07-.05,7.44-2.89,11.39-1.86,2.75.72,4.81,3.1,5.01,5.73.51-.88.87-1.66,1.04-2.29.64-2.43-.81-3.49-3.2-4.12-2.87-.75-6.93-.86-11.06-.74Z"/>
      <path class="cls-42" d="M224.46,201.78c-1.53,1.33-3.27,4.6-5.85,3.93-.41-.11-.78-.32-1.12-.6.76,1.45,1.62,3.04,2.59,4.78,2.32-.45,2.94-8.79,8.35-7.69,2,.41,7.55-.14,13.44-.41.28-.42.54-.85.79-1.28-7.34,1.61-16.06-.59-18.21,1.28Z"/>
      <path class="cls-15" d="M225.98,198.28c-1.95,1.05-4.09,1.91-6.16,1.37-4.98-1.3-7.3-6.13-8.45-11.51-.23.75-.45,1.52-.67,2.32.82,1.3,1.48,4.55,6.8,14.65.34.28.71.49,1.12.6,2.58.67,4.32-2.6,5.85-3.93,2.15-1.87,10.87.34,18.21-1.28.96-1.63,1.74-3.35,2.24-5.24.36-1.39.41-3.2.19-5.23-6.34,10.38-17.89,7.59-19.12,8.26Z"/>
      <path class="cls-64" d="M231.97,164.31c-.87-.23-1.86-.25-2.93-.03-3.27.65-7.29,3.49-11,9.06,3.11-4.37,7.73-9.13,14.19-7.44,4.63,1.21,5.2,9.08,10.22,13.47-2.68-7.28-6.84-14.11-10.48-15.06Z"/>
      <path class="cls-5" d="M222.8,195.99c-5.57-1.46-8.69-6.79-10.18-11.65-.44,1.21-.86,2.47-1.26,3.8,1.15,5.38,3.47,10.21,8.45,11.51,2.07.54,4.21-.32,6.16-1.37,1.24-.67,12.78,2.12,19.12-8.26-.22-2.13-.73-4.51-1.43-6.95-2.35,2.34-5.59,4.77-9.48,9.26-3.03,3.5-7.39,4.69-11.38,3.65Z"/>
      <path class="cls-44" d="M232.23,165.89c-6.46-1.69-11.08,3.07-14.19,7.44-1.43,2.15-2.82,4.7-4.1,7.69-.45,1.05-.89,2.16-1.31,3.32,1.48,4.85,4.61,10.19,10.18,11.65,3.98,1.04,8.34-.15,11.38-3.65,3.9-4.49,7.13-6.93,9.48-9.26-.36-1.23-.77-2.48-1.22-3.71-5.02-4.4-5.59-12.26-10.22-13.47Z"/>
      <path class="cls-8" d="M215.6,162.66c-1.01,3.85-2.42,3.28-3.69,8.14-1.39,5.31-.21,9.07-.71,10.96-1.18,4.53-6.35,3.13-9.3,14.43-.93,3.57-1.46,7.7-2.29,10.86-.68,2.58-1.98,5.1-3.99,6.81,1.84-.37,3.69-.7,5.53-.95-.6-3.19-.8-7.9.58-13.16,1.02-3.89,3-11.46,6.78-10.47,1.26.33,1.74.47,2.18,1.16.96-3.53,2.06-6.67,3.24-9.43-1.28-3.13-2.52-6.28-1.79-9.05,1.46-5.57,9.91-18.06,15.32-25.73-5.84,3.89-10.03,9.35-11.58,15.29-.1.37-.19.74-.28,1.11Z"/>
      <path class="cls-5" d="M206.83,173.12c-1.18,4.52-1.96,9.13-3.12,13.56-4.28,16.37-12.63,17.61-17.7,29.29.08.02.15.04.23.06,3.07-.75,6.23-1.52,9.39-2.16,2.01-1.72,3.31-4.23,3.99-6.81.83-3.16,1.35-7.3,2.29-10.86,2.95-11.3,8.12-9.9,9.3-14.43.5-1.9-.68-5.65.71-10.96,1.27-4.86,2.68-4.29,3.69-8.14.1-.37.19-.74.28-1.11,1.55-5.94,5.74-11.41,11.58-15.29.17-.25.34-.49.51-.72-10.91,1.47-17.98,15.45-21.15,27.59Z"/>
      <path class="cls-36" d="M85.34,185.22c2.42,0,4.91.25,7.43.79-2.57-5.05-4.43-10.01-6.46-15.56-2.41-.62-5.09-1-7.88-1.13,2.05,6.03,4.4,11.28,6.92,15.91Z"/>
      <path class="cls-5" d="M112.48,218.68c1.36,2.71,2.12,5.34,1.45,7.93-.84,3.21-8.5,14.67-11.49,26.11-.82,3.13-1.31,6.29-1.32,9.48.12-1.84.39-3.65.86-5.43,1.52-5.8,4.97-10.03,9.41-12.78,2.03-1.71,4.53-4.36,5.76-9.09,1.68-6.43-.5-11.17-4.67-16.22Z"/>
      <path class="cls-33" d="M90.78,194.04c1.85-.64,3.89-.94,6.03-.98-1.55-2.41-2.87-4.74-4.04-7.05-2.52-.54-5.01-.79-7.43-.79,1.75,3.22,3.58,6.15,5.44,8.82Z"/>
      <path class="cls-53" d="M74.24,153.62c1.16,5.76,2.58,10.97,4.18,15.69,2.8.14,5.47.52,7.88,1.13-2.04-5.58-4.26-11.76-7.55-19.24-1.83-.17-3.61-.24-5.35-.23.36.81.64,1.68.84,2.64Z"/>
      <path class="cls-44" d="M113.93,226.6c.68-2.58-.09-5.22-1.45-7.93-3.28-3.96-7.8-8.12-12.66-13.43.48,13.6,5.13,28.41,3.18,35.86-1.58,6.05-4.99,10.29-6.72,16.94-2.87,10.98-.48,23.31,7.02,31.21.43.45.88.89,1.34,1.32,1.67,1.52,3.55,2.84,5.65,3.9-.46-.93-.91-1.86-1.36-2.8-4.6-9.67-8.41-19.89-7.8-29.49.01-3.19.5-6.35,1.32-9.48,2.99-11.44,10.65-22.9,11.49-26.11Z"/>
      <path class="cls-49" d="M163.95,60.22c.78-2.25,1.62-4.51,2.56-6.73-1-.34-2.02-.64-3.05-.91,0,0,0,0-.01,0-3.13,2.07-5.67,5.05-7.79,8.65,2.57-.77,5.32-1.14,8.3-1Z"/>
      <path class="cls-64" d="M125.56,53.01c-23.91,6.32-46.33,18.23-52.61,42.26-7.74,29.62,9.96,60.42,21.01,92.99,4.53,8.27,11.26,17.05,23.94,29.3-4.13-7.28-8.93-15.94-14.76-26.29-11.13-15.68-22.2-34.23-17.7-51.46,1.98-7.56,6.84-14.54,13.91-18.74,25.55-15.18,33.95-53.13,56.3-59.84,2.13-3.6,4.67-6.57,7.79-8.65-4.84-1.27-9.53-1.92-14.07-2.13-8.87.2-17.7.95-23.82,2.56ZM132.08,66.52c-.88,3.37-9.55,8.86-13.01,12.47-8.31,8.67-13.98,21.44-25.32,25.3-.32-.06-.63-.12-.93-.2-6.58-1.72-10.63-7.65-8.2-16.94,3.46-13.22,27.78-27.86,43.52-23.75,2.7.71,4.39,1.38,3.94,3.11Z"/>
      <path class="cls-5" d="M149.07,147.23c.44,2,.83,3.49.54,4.6-.88,3.38-3.11,3.94-5.74,3.26-7-1.83-10.05-11.17-21.49-14.77,10.62,8.89,27.96,26.36,31.9,29.6.91.75,1.82,1.46,2.74,2.17.07-3.38-1.31-7.08-2.53-9.93-2.12-4.97-3.93-9.94-5.42-14.93Z"/>
      <path class="cls-59" d="M149.07,147.23c1.49,4.99,3.3,9.96,5.42,14.93,1.22,2.85,2.61,6.55,2.53,9.93,1.91,1.45,3.85,2.82,5.84,4.13.04-2.5.3-4.99.84-7.47-9.52-13.15-12.77-28.76-11.35-44.22-1.39,2.43-2.46,5.02-3.17,7.73-1.78,6.82-.86,11.61-.11,14.97Z"/>
      <path class="cls-44" d="M149.61,151.83c.29-1.11-.09-2.6-.54-4.6-1.39-4.64-2.5-9.28-3.35-13.93-6.59,7.79-17.68,3.99-28.39,3.13,1.37.91,3.1,2.26,5.05,3.89,11.45,3.6,14.5,12.94,21.49,14.77,2.63.69,4.85.12,5.74-3.26Z"/>
      <path class="cls-20" d="M149.9,124.51c-1.02,3.9-2.44,6.74-4.17,8.79.84,4.65,1.95,9.29,3.35,13.93-.75-3.36-1.67-8.15.11-14.97.71-2.71,1.78-5.3,3.17-7.73.41-4.45,1.2-8.89,2.34-13.25,1.6-6.12,3.43-11.48,5.45-16.19-.16-1.04-.33-2.08-.49-3.11-2.4,3.26-4.32,7.31-5.61,12.23-1.78,6.8-2.66,14.58-4.15,20.3Z"/>
      <path class="cls-30" d="M115.18,131.43c.68.18,1.36.36,2.04.54,13.84,3.62,21.6-4.25,25.22-18.08.57-2.18,1.05-4.45,1.49-6.75.36-8.12,1.59-16.22,3.7-24.3,2.11-8.07,4.51-15.68,8.02-21.61-22.35,6.71-30.75,44.67-56.3,59.84-7.06,4.2-11.93,11.18-13.91,18.74-4.5,17.23,6.57,35.78,17.7,51.46-3.88-6.89-8.22-14.54-13.12-23.02-2.91-5.05-3.39-10.21-2.15-14.93.81-3.1,2.27-5.83,4.12-8.18,3.46-10.71,11.21-16.84,23.19-13.71Z"/>
      <path class="cls-43" d="M147.63,82.84c-2.11,8.08-3.34,16.19-3.7,24.3.99-5.12,1.81-10.38,3.06-15.17,1.94-7.43,6.96-15.86,14.23-22.99.8-2.82,1.7-5.77,2.73-8.75-2.98-.14-5.73.23-8.3,1-3.51,5.93-5.91,13.55-8.02,21.61Z"/>
      <path class="cls-9" d="M143.93,107.14c-.39,8.71.22,17.44,1.8,26.15,1.73-2.04,3.15-4.88,4.17-8.79,1.5-5.72,2.38-13.51,4.15-20.3,1.28-4.92,3.2-8.97,5.61-12.23-.88-5.67-1.57-11.26-.13-16.75.52-1.98,1.08-4.08,1.7-6.26-7.27,7.13-12.29,15.56-14.23,22.99-1.25,4.79-2.07,10.06-3.06,15.17Z"/>
      <path class="cls-66" d="M145.73,133.29c-1.58-8.71-2.19-17.44-1.8-26.15-.44,2.3-.92,4.57-1.49,6.75-3.62,13.84-11.38,21.7-25.22,18.08-.68-.18-1.36-.36-2.04-.54-11.99-3.13-19.74,3-23.19,13.71,6.27-7.94,17.09-11.5,22.94-9.97.58.15,1.4.59,2.4,1.26,10.72.86,21.81,4.65,28.39-3.13Z"/>
      <path class="cls-30" d="M234.96,335c-6.68-4.26-12.76-8.62-17.48-11.56-11.93.72-20.89,16.89-35.94,17.42-2.94.71-5.97,1.17-9.02,1.4,2.4,1.6,4.94,2.84,7.57,3.53,13.85,3.62,29.59-15.12,54.86-10.79Z"/>
      <path class="cls-3" d="M217.48,323.44c4.72,2.94,10.81,7.31,17.48,11.56,1.32.23,2.67.51,4.05.87,8.34,2.18,10.41,4.74,15.52,6.4-9.75-3.98-18.31-10.36-27.05-16.32-1.9-.87-3.8-1.6-5.67-2.09-1.5-.39-2.94-.52-4.34-.43Z"/>
      <path class="cls-20" d="M217.48,323.44c1.4-.08,2.84.04,4.34.43,1.87.49,3.77,1.22,5.67,2.09-1.1-.75-2.2-1.49-3.31-2.22-3.16-2.08-8.11-2-13.07-7.28-1.59.91-3.15,1.46-4.08,3.28,1.25-.09,2.49-.01,3.7.31,1.68.44,3.98,1.68,6.75,3.4Z"/>
      <path class="cls-44" d="M217.48,323.44c-2.77-1.72-5.07-2.96-6.75-3.4-1.22-.32-2.46-.4-3.7-.31-.11.21-.21.44-.3.69-4,11.24-13.89,17.7-25.19,20.44,15.04-.53,24.01-16.7,35.94-17.42Z"/>
      <path class="cls-64" d="M234.96,335c-25.27-4.33-41.01,14.41-54.86,10.79-2.63-.69-5.17-1.93-7.57-3.53-2.91.22-5.84.22-8.72.03,5.75,9.4,15.46,16.16,26.15,18.95,24.53,6.41,36.67-12.55,54.73-7.83,18.62,4.87,41.56,2.11,56.3-10-11.52-.28-14.89,7.5-21.85,5.68-.52-.14-1.05-.32-1.59-.52-5.31.57-11.15.24-17.61-1.45-8.31-2.17-17.06-7.06-24.98-12.11Z"/>
      <path class="cls-35" d="M261.49,344.61c-2.39-.63-4.71-1.42-6.96-2.34-5.11-1.66-7.18-4.22-15.52-6.4-1.38-.36-2.73-.65-4.05-.87,7.92,5.05,16.67,9.94,24.98,12.11,6.46,1.69,12.3,2.01,17.61,1.45-1.79-.69-3.64-1.66-5.58-2.17-2.05-.54-4.68-.26-10.49-1.78Z"/>
      <path class="cls-64" d="M383.85,152.03c.19,4.03-.19,8.08-1.22,12-.23.87-.52,1.79-.87,2.73-.37,2.16-.86,4.46-1.51,6.91-3.13,11.98-9.85,25.39-10.63,28.38-.35,1.33-2.08,17.91-1.09,23.71,2.89,17.03,21.72,15.29,39.52,27.41,5.09-3.84,9.87-8.03,13.81-12.64-1.99-.21-3.97-.57-5.93-1.08-49.47-12.93-23.54-58.33-32.09-87.43Z"/>
      <path class="cls-50" d="M382.63,164.03c1.03-3.93,1.41-7.97,1.22-12-.55-1.86-1.23-3.66-2.09-5.38-.66-.13-1.33-.26-2-.37,2.7,4.87,3.54,11.41,2,20.48.34-.94.64-1.86.87-2.73Z"/>
      <path class="cls-30" d="M368.53,225.77c-.98-5.8.74-22.38,1.09-23.71.78-2.99,7.5-16.4,10.63-28.38.64-2.46,1.14-4.76,1.51-6.91-2.38,6.53-7.34,14.68-12.32,23.76-2.65,8-6.53,15.9-8.36,22.92-6.89,26.35,5.84,48.21,17.78,51.33,4.28,1.12,8.91.4,13.48-.89.66-.5,1.34-.98,2.06-1.42,4.55-2.85,9.22-5.93,13.66-9.27-17.81-12.12-36.64-10.38-39.52-27.41Z"/>
      <path class="cls-12" d="M369.44,190.52c4.98-9.08,9.94-17.23,12.32-23.76,1.54-9.07.7-15.6-2-20.48-3.35-.58-6.75-.96-10.19-1.13,5.69,8.66,6.47,17.6,4.19,26.33-.43,1.63-.97,3.26-1.6,4.88-.06,3.2-.57,6.54-1.43,9.84-.38,1.44-.82,2.88-1.29,4.32Z"/>
      <path class="cls-16" d="M351.23,212.68c-3.09,11.82,1.82,18.18,3.8,26.77.38-5.48-.36-10.68,2.35-21.03,2.55-9.76,7.31-19.25,12.05-27.9.48-1.44.92-2.88,1.29-4.32.86-3.3,1.37-6.64,1.43-9.84-2.7,6.92-7.14,13.65-12.38,19.92.02.37-.02.77-.14,1.22-.03.13-6.42,7.57-8.41,15.19Z"/>
      <path class="cls-66" d="M361.07,213.44c1.84-7.03,5.72-14.92,8.36-22.92-4.74,8.65-9.5,18.14-12.05,27.9-2.71,10.36-1.97,15.56-2.35,21.03.94,4.08,1.22,8.66-.32,14.57-1.52,5.81-5.79,14.85-5.82,14.94-1.02,3.9,1.46,10.24,12.03,13,5.14,1.34,10.71,1.15,15.64-.86,5.47-5.48,9.4-12.41,15.77-17.22-4.58,1.3-9.21,2.01-13.48.89-11.94-3.12-24.67-24.98-17.78-51.33Z"/>
      <path class="cls-44" d="M348.9,268.96c.02-.09,4.3-9.13,5.82-14.94,1.54-5.91,1.26-10.49.32-14.57-.02.32-.05.64-.08.96.58,3.56.51,7.1-.36,10.43-1.08,4.12-5.88,11.37-14.35,18.48,4.13,4.72,7.36,10.02,8.61,13.39.84,2.27,2,4.16,3.25,5.94,7.57.63,14.9.47,21.73-5.08.96-.78,1.87-1.61,2.73-2.48-4.94,2.02-10.51,2.2-15.64.86-10.56-2.76-13.04-9.1-12.03-13Z"/>
      <path class="cls-52" d="M351.23,212.68c1.99-7.62,8.38-15.07,8.41-15.19.12-.45.15-.85.14-1.22-4.45,5.32-9.48,10.32-14.51,14.83,1.61,1.13,2.79,2.07,2.83,2.16,1.97,5.72.8,11.75,3.14,16.25,1.83,3.52,3.12,7.22,3.72,10.89.03-.32.06-.64.08-.96-1.98-8.6-6.89-14.96-3.8-26.77Z"/>
      <path class="cls-56" d="M383.85,152.03c-.08-1.69-.25-3.37-.53-5.05-.52-.11-1.04-.23-1.57-.33.86,1.72,1.55,3.51,2.09,5.38Z"/>
      <path class="cls-18" d="M415.94,239.46c1.96.51,3.94.87,5.93,1.08,1.71-1.99,3.26-4.07,4.61-6.22-.75-.16-1.49-.33-2.23-.52-38.76-10.13-27.73-47.06-27.1-64.1.35-9.53-5.75-17.15-13.15-22.56-.22-.05-.45-.1-.67-.15.27,1.67.45,3.36.53,5.05,8.55,29.09-17.38,74.5,32.09,87.43Z"/>
      <path class="cls-66" d="M298.87,241.09c-3.08,8.64-12.66,12.27-20.31,17.13-5.58,3.55-8.03,10.81-13.24,14.93,14.67-3.79,36.54-15.49,40.83-31.93,1.74-6.66,1.17-9.18,1.89-14.1-1.75,1.43-3.5,2.85-5.18,4.31-1.71,3.71-3.09,7.09-4,9.65Z"/>
      <path class="cls-16" d="M308.06,227.12c.21-1.45.54-3.1,1.07-5.12.29-1.12.67-2.16,1.11-3.17-.78,1.02-1.6,2.01-2.48,2.95-1.8,3.25-3.46,6.56-4.88,9.65,1.68-1.46,3.44-2.88,5.18-4.31Z"/>
      <path class="cls-4" d="M278.57,258.22c7.64-4.86,17.23-8.49,20.31-17.13.91-2.56,2.29-5.94,4-9.65-2.69,2.34-5.19,4.82-7.16,7.75-.64.95-1.46,1.68-2.34,2.36-3.44,8.01-11.07,14.11-20.28,16.98-2.74.86-4.44,7.75-8.31,14.76-.08.15-.16.3-.25.45.27-.19.53-.38.79-.59,5.21-4.12,7.65-11.38,13.24-14.93Z"/>
      <path class="cls-71" d="M302.87,231.43c1.42-3.09,3.08-6.4,4.88-9.65-3.17,3.4-7.07,6.23-12.09,8-.35,4.5-1.02,7.98-1.11,8.33-.31,1.18-.7,2.32-1.18,3.43.88-.69,1.7-1.41,2.34-2.36,1.97-2.93,4.47-5.41,7.16-7.75Z"/>
      <path class="cls-27" d="M318.47,211.82c-.45,1.71-.65,3.68-.72,5.8,1.82-2.43,3.34-5.18,4.36-8.42-1.07.41-2.15.84-3.22,1.29-.16.43-.3.88-.42,1.33Z"/>
      <path class="cls-64" d="M317.08,244.12c-4.44,17-36.42,30.88-53.79,31.69-.49.76-1.01,1.52-1.56,2.26,12.5-1.66,35.16-4.68,35.16-4.68,11.87-1.39,20.49-11.17,23.33-22.04,3.55-13.59-3.98-18.87.77-37.06.49-1.86,1.16-3.79,1.76-5.35-.22.08-.43.17-.65.25-1.02,3.24-2.54,5.99-4.36,8.42-.27,8.08,1.43,18.5-.66,26.5Z"/>
      <path class="cls-30" d="M317.08,244.12c2.09-8.01.39-18.43.66-26.5-2.75,3.68-6.2,6.64-9.69,9.5-.72,4.91-.15,7.44-1.89,14.1-4.3,16.44-26.16,28.15-40.83,31.93-.26.2-.52.4-.79.59-.39.69-.81,1.39-1.25,2.07,17.36-.81,49.34-14.68,53.79-31.69Z"/>
      <path class="cls-11" d="M308.06,227.12c3.49-2.86,6.93-5.83,9.69-9.5.07-2.12.28-4.09.72-5.8.12-.45.26-.9.42-1.33-1.5.62-2.99,1.26-4.48,1.86-1.24,2.24-2.61,4.42-4.17,6.48-.45,1.01-.82,2.06-1.11,3.17-.53,2.03-.85,3.68-1.07,5.12Z"/>
      <path class="cls-64" d="M131.39,274.05c7.61,8.41-1.43,32.78,26.26,40.02,14.33,3.75,31.14-2.36,44.01-11.5.16-.12.33-.22.5-.34-3.58-.16-7.3-.7-11.16-1.7-2.85-.74-5.24-1.71-7.26-2.86-.58.09-1.15.19-1.7.3-8.61,1.75-17.96,2.31-26.01.2-18.91-4.94-17.1-16.62-29.83-47.12-1.39-3.32-1.52-6.66-.72-9.75.1-.39.22-.78.36-1.18-2.34,0-4.67.25-6.91.78-.44.9-.77,1.79-.99,2.65-2.66,10.18,5.9,22.14,13.46,30.49Z"/>
      <path class="cls-1" d="M183.73,297.67c2.03,1.14,4.42,2.11,7.26,2.86,3.86,1.01,7.58,1.54,11.16,1.7,8.01-5.38,18.28-4.99,27.6-6.25,3.06-1.55,5.84-3.25,8.31-4.95-9.35,2.92-19.88,5.66-31.52,5.27-7.46.97-15.69.28-22.82,1.38Z"/>
      <path class="cls-24" d="M229.75,295.97c2.95-.4,5.81-.97,8.47-1.94.11-.33.22-.68.31-1.06.19-.72.31-1.47.35-2.22-.27.09-.55.17-.83.26-2.47,1.7-5.25,3.41-8.31,4.95Z"/>
      <path class="cls-44" d="M162.88,262.84c7.13,2.39,6.05,10.37,9.73,17.82-1.72-8.26-1.63-16.87-6.86-21.78-3.45-.32-6.87-.87-10.18-1.74-10.1-2.64-16.17-6.63-23.3-16.31-.5-.11-1-.2-1.5-.28,5.38,11.44,20.61,18.44,32.12,22.3Z"/>
      <path class="cls-20" d="M172.61,280.65c2.18,4.41,6.03,8.63,14.24,11.39-7.79-4.14-13.16-12.08-10.91-20.71.04-.14.08-.28.12-.42-4.81-3.12-6.68-7.85-8.62-11.9-.57-.04-1.13-.09-1.7-.14,5.23,4.91,5.15,13.52,6.86,21.78Z"/>
      <path class="cls-48" d="M172.61,280.65c.78,3.76,1.94,7.45,4.15,10.69,3.33.55,6.75.77,10.14.72-.01,0-.03-.01-.04-.02-8.21-2.76-12.06-6.98-14.24-11.39Z"/>
      <path class="cls-66" d="M147.8,269.52c5.2,4.19,4.98,15.77,24.65,20.91,1.41.37,2.85.67,4.3.91-2.2-3.23-3.36-6.92-4.15-10.69-3.68-7.44-2.6-15.42-9.73-17.82-11.5-3.86-26.73-10.86-32.12-22.3-.36-.06-.71-.11-1.07-.16-1.11,11.6,9.42,22.14,18.11,29.14Z"/>
      <path class="cls-12" d="M183.73,297.67c7.12-1.1,15.36-.41,22.82-1.38-4.52-.15-9.21-.77-14.06-2.04-1.95-.51-3.83-1.25-5.6-2.18-3.39.05-6.81-.17-10.14-.72,1.65,2.42,3.88,4.58,6.98,6.33Z"/>
      <path class="cls-30" d="M126.19,251.05c12.73,30.5,10.92,42.17,29.83,47.12,8.05,2.1,17.4,1.55,26.01-.2.56-.11,1.13-.21,1.7-.3-3.1-1.75-5.33-3.91-6.98-6.33-1.45-.24-2.89-.54-4.3-.91-19.67-5.14-19.45-16.72-24.65-20.91-8.68-7-19.21-17.54-18.11-29.14-1.28-.16-2.57-.25-3.86-.26-.14.4-.26.79-.36,1.18-.81,3.09-.67,6.43.72,9.75Z"/>
      <path class="cls-28" d="M202.16,302.23c10.65.48,19.99-2.41,27.6-6.25-9.31,1.26-19.58.88-27.6,6.25Z"/>
      <path class="cls-18" d="M202.16,302.23c-.17.11-.34.22-.5.34-12.87,9.14-29.68,15.25-44.01,11.5-27.69-7.24-18.65-31.61-26.26-40.02-7.56-8.35-16.12-20.31-13.46-30.49.22-.86.55-1.75.99-2.65-1.54.36-3.04.86-4.48,1.48-.7,1.56-1.26,3.18-1.69,4.82-2.82,10.8.05,23.45,7.1,33.17,4.83,6.65-9.88,43.16,28.65,53.24,24.82,6.49,51.23-9.27,67.48-29.71,1.36-1.71,3.33-2.72,5.58-3.26,6.02-3.15,13.62,2.56,16.65-6.61-2.66.97-5.52,1.54-8.47,1.94-7.61,3.85-16.94,6.73-27.6,6.25ZM155.05,325.46c-.79,3-3.37,5.13-7.43,4.06-7.58-1.98-22.82-14.7-20.68-28.9.51.02,1.07.12,1.65.27,1.5.39,2.78,1.21,3.65,2.3,12.17,15.16,24.98,13.95,22.8,22.26Z"/>
      <path class="cls-6" d="M244.67,198.81s.61-1.65.93-2.87c1.3-4.96-1.77-20.46-9.66-28.63,5.52,6.52,10.63,21.55,8.95,27.95-.62,2.39-1.72,4.52-3.03,6.52.89-.04,1.79-.08,2.69-.1.25-.44.48-.88.69-1.32-.55-.28-.78-.79-.58-1.55Z"/>
      <path class="cls-67" d="M245.61,195.93c-.32,1.22-.92,2.84-.93,2.87-.2.76.03,1.27.58,1.55.26-.56.48-1.13.63-1.7,1.15-4.39,2.74-8.53,4.72-12.41-1.07.38-2.05.6-2.89.38-5.69-1.49-2.33-15.22-12.04-19.64.09.1.18.22.28.32,7.89,8.17,10.95,23.67,9.66,28.63Z"/>
      <path class="cls-2" d="M10.65,253.08c-.71-3.35.72-6.73.48-10.31-.9-13.54-6.31-31.68-5.86-45.23h0c-2.12-.55-3.64-1.11-5.05-1.72.06.29.13.59.21.89,4.99,18.26-3.36,70.85,35.78,103.94-12.33-13.47-21.82-29.83-25.56-47.57Z"/>
      <path class="cls-19" d="M5.28,197.55c.09-2.53.37-4.9.94-7.05,1.79-6.84,6.34-11.18,11.66-15-1.24.65-2.5,1.27-3.78,1.86-5.51,2.54-12.11,7.11-13.72,13.3-.42,1.61-.5,3.34-.14,5.16,1.41.61,2.93,1.17,5.05,1.72h0Z"/>
      <path class="cls-58" d="M22.29,225.07c1.48-5.66,3.52-11.27,4.98-16.84,1.32-5.06,1.68-8.41,1.79-11.28-7.72,1.86-15.38,2.8-23.78.6-.46,13.55,4.96,31.69,5.86,45.23.24,3.57-1.19,6.96-.48,10.31,3.74,17.74,13.23,34.1,25.56,47.57,5.42,4.58,11.74,8.78,19.13,12.47,7.31,3.65,15.67,6.79,25.24,9.29,19.8,5.18,29.12,2.07,43.23,2.63-1.2-.99-2.32-1.98-3.35-2.97-11.2,2.93-22.86,2.51-34.11-.43-45.68-11.94-74.45-56.85-64.07-96.58Z"/>
      <path class="cls-38" d="M5.28,197.55c8.4,2.2,16.06,1.26,23.78-.6.18-4.54-.26-7.87,1.56-14.82,4.14-15.84,17.7-25.04,32.94-30.11-17.32,3.57-30.28,15.48-45.68,23.49-5.32,3.82-9.87,8.16-11.66,15-.56,2.15-.85,4.52-.94,7.05Z"/>
      <path class="cls-64" d="M78.79,263.31c-3.72-24.14-19.69-48.76-15.64-64.22.96-3.68,3.21-6.75,6.33-9.06-9.6-.78-17.96.87-25.79,2.94.23,1.46.63,2.99,1.22,4.6,15.6,42.17,3.39,95.29,56.97,109.3,4.1,1.07,8.33,1.71,12.58,1.86.35-2.24.81-4.46-.17-6.37-1.31-2.55-2.67-5.19-4-7.87-2.1-1.07-3.98-2.38-5.65-3.9-12.45-3.96-23.81-14-25.85-27.27Z"/>
      <path class="cls-65" d="M43.97,186.08c-.55,2.09-.67,4.38-.28,6.88,7.83-2.07,16.19-3.72,25.79-2.94,4.11-3.05,9.73-4.78,15.87-4.8-2.52-4.63-4.87-9.88-6.92-15.91-14.08-.69-31.32,4.76-34.46,16.77Z"/>
      <path class="cls-13" d="M92.5,196.42c-.57-.77-1.15-1.56-1.72-2.38-.63.22-1.23.48-1.81.77,1.2.5,2.37,1.04,3.53,1.61Z"/>
      <path class="cls-66" d="M88.97,194.81c-2.99,1.53-5.28,4.17-6.37,8.32-.91,3.47-.79,7.4.19,10.96,8.71,31.7-6.03,62.47,20.5,75.16-7.5-7.91-9.89-20.23-7.02-31.21,1.74-6.64,5.14-10.89,6.72-16.94,1.95-7.45-2.7-22.26-3.18-35.86-2.4-2.62-4.87-5.53-7.32-8.83-1.15-.57-2.33-1.1-3.53-1.61Z"/>
      <path class="cls-21" d="M99.84,200.61c.04-.96.12-1.91.22-2.84-1.19-1.62-2.27-3.18-3.25-4.71-2.14.04-4.18.35-6.03.98.57.82,1.14,1.61,1.72,2.38,2.55,1.25,4.99,2.66,7.34,4.19Z"/>
      <path class="cls-55" d="M92.5,196.42c2.45,3.3,4.93,6.21,7.32,8.83-.06-1.57-.06-3.11.02-4.64-2.35-1.54-4.79-2.94-7.34-4.19Z"/>
      <path class="cls-25" d="M105.86,204.99c-.62-.72-1.22-1.42-1.8-2.11.08.31.17.61.27.92.51.39,1.02.79,1.53,1.19Z"/>
      <path class="cls-59" d="M112.48,218.68c4.18,5.04,6.36,9.78,4.67,16.22-1.24,4.73-3.73,7.38-5.76,9.09,5.97-3.7,13.72-4.7,20.87-3.16-4.11-5.58-8.57-13.06-14.36-23.26-4.8-4.63-8.74-8.77-12.04-12.57-.5-.4-1.01-.8-1.53-1.19,1.68,5.31,5.8,10.21,8.15,14.88Z"/>
      <path class="cls-12" d="M69.47,190.02c3.44.28,7.04.86,10.83,1.85,3.02.79,5.9,1.77,8.67,2.94.58-.3,1.18-.56,1.81-.77-1.86-2.67-3.69-5.59-5.44-8.82-6.14.02-11.75,1.75-15.87,4.8Z"/>
      <path class="cls-30" d="M82.8,214.1c-.98-3.56-1.1-7.49-.19-10.96,1.09-4.15,3.38-6.79,6.37-8.32-2.77-1.16-5.65-2.15-8.67-2.94-3.79-.99-7.39-1.58-10.83-1.85-3.11,2.31-5.37,5.39-6.33,9.06-4.04,15.47,11.92,40.08,15.64,64.22,2.05,13.27,13.4,23.31,25.85,27.27-.46-.42-.91-.86-1.34-1.32-26.53-12.69-11.79-43.47-20.5-75.16Z"/>
      <path class="cls-54" d="M63.55,152.02c-15.24,5.07-28.8,14.27-32.94,30.11-1.82,6.95-1.38,10.28-1.56,14.82,4.79-1.15,9.6-2.66,14.63-3.99-.39-2.5-.26-4.79.28-6.88,3.14-12.01,20.37-17.47,34.46-16.77-1.61-4.73-3.02-9.94-4.18-15.69-.19-.96-.48-1.83-.84-2.64-3.45.03-6.72.4-9.85,1.04Z"/>
      <path class="cls-18" d="M44.91,197.56c-.59-1.61-.99-3.14-1.22-4.6-5.03,1.33-9.84,2.84-14.63,3.99-.11,2.87-.47,6.22-1.79,11.28-1.46,5.57-3.5,11.18-4.98,16.84-10.39,39.73,18.39,84.64,64.07,96.58,11.25,2.94,22.9,3.36,34.11.43-3.53-3.42-5.89-6.83-6.22-9.76-.13-1.17.02-2.39.21-3.6-4.25-.16-8.47-.79-12.58-1.86-53.59-14.01-41.37-67.12-56.97-109.3ZM28.98,232.99c1.7-6.49,2.73-9.22,9.21-7.53,16.89,4.41,13.23,38.04,20.3,57.78.33.93.34,2.05.05,3.15-.22.83-.6,1.66-1.14,2.39-16.05-14.11-34.27-33.4-28.42-55.8Z"/>
      <path class="cls-22" d="M104.34,203.79c-.1-.31-.19-.61-.27-.92-1.47-1.76-2.79-3.46-4-5.1-.11.93-.18,1.88-.22,2.84,1.54,1,3.03,2.07,4.5,3.18Z"/>
      <path class="cls-63" d="M104.34,203.79c-1.46-1.11-2.96-2.17-4.5-3.18-.07,1.52-.07,3.07-.02,4.64,4.86,5.31,9.38,9.46,12.66,13.43-2.34-4.67-6.47-9.57-8.15-14.88Z"/>
      <path class="cls-13" d="M160.2,47.11c-1.17-1.19-2.39-2.31-3.67-3.37-14.34,4.29-23.12-.09-50.85,13.86,10.25-2.25,22.04-6.23,35.31-7.07,4.41-1.41,8.82-2.71,9.76-2.95,2.55-.64,5.94-.29,9.46-.47Z"/>
      <path class="cls-66" d="M178.54,32.29c-9.38,6.49-16.16,9.69-22.01,11.44,1.28,1.06,2.51,2.18,3.67,3.37,3.73-.19,7.61-.97,10.8-4.14.73-.72,1.49-1.43,2.27-2.12,3.62-5.19,8.07-9.44,13.61-11.83-3.02.44-5.9,1.58-8.34,3.27Z"/>
      <path class="cls-47" d="M150.75,47.58c-.94.24-5.35,1.54-9.76,2.95,7.07-.45,14.57-.01,22.47,2.05.55.14,1.09.3,1.63.46-1.47-2.16-3.11-4.13-4.88-5.93-3.52.18-6.91-.17-9.46.47Z"/>
      <path class="cls-44" d="M160.2,47.11c1.77,1.81,3.41,3.77,4.88,5.93.48.14.95.29,1.42.45,1.88-4.47,4.1-8.81,6.77-12.64-.79.68-1.54,1.39-2.27,2.12-3.19,3.17-7.07,3.95-10.8,4.14Z"/>
      <path class="cls-2" d="M109.98,21.69c9.25-1.31,15.21-4.9,20.02-8.56-8.46,5.41-19.72,3.78-25.5,6.43,1.62.78,3.28,1.52,4.95,2.23.18-.04.35-.07.53-.1Z"/>
      <path class="cls-29" d="M109.45,21.79c-1.68-.71-3.33-1.45-4.95-2.23-1.77.81-3.03,2.03-3.54,3.97,0,.01-.32,1.53-.65,2.81-.57,2.19-1.28,4.27-2.08,6.26,3.34-5.19,6.93-9.87,11.22-10.8Z"/>
      <path class="cls-43" d="M140.13,33.87c-17.64-.16-41.45,1.86-49.87,31.08,1.24-.72,2.53-1.41,3.88-2.06,1.4-.67,2.37-3.82,3.91-3.99,2.44-.27,4.98-.73,7.63-1.31,27.73-13.95,36.52-9.57,50.85-13.86-4.85-4.02-10.45-7.15-16.4-9.86Z"/>
      <path class="cls-30" d="M159.11,32.73c-3.13,1.83-10.31,1.22-18.98,1.14,5.95,2.71,11.55,5.85,16.4,9.86,5.85-1.75,12.64-4.95,22.01-11.44,2.44-1.69,5.32-2.84,8.34-3.27,5.33-2.3,11.68-2.88,19.26-.9.63.16,1.24.35,1.85.55-3.05-3.78-7.13-6.64-12.29-7.99-13.26-3.47-25.31,5.43-36.6,12.04Z"/>
      <path class="cls-10" d="M127.3,28.66c-5.99-2.25-12.06-4.4-17.85-6.87-4.29.93-7.88,5.61-11.22,10.8-5.47,13.64-15.36,22.83-17.15,29.66-.82,3.13-.86,6.49-.31,9.78,1.38-1.31,2.86-2.56,4.44-3.75,7.95-26.81,30.36-33.18,42.08-39.62Z"/>
      <path class="cls-58" d="M183.64,5.49c-15.65-1.47-33.65-1.94-35-2.02-6.4-.36-10.52,3.12-15.51,7.17-.99.96-2.04,1.79-3.13,2.49-4.81,3.66-10.76,7.25-20.02,8.56-.18.03-.36.06-.53.1,5.79,2.47,11.86,4.62,17.85,6.87,2.56-1.41,4.61-2.82,5.89-4.45,11.86-15.14,29.62-17.2,46.44-12.8,15.69,4.1,27.81,12.27,34.58,20.24,4.56,2.9,8.31,7.06,11.36,12.06,1.03-.72,2.07-1.43,3.12-2.14-10.24-16.59-23.76-30.55-42.93-35.56-.7-.18-1.41-.35-2.13-.51Z"/>
      <path class="cls-64" d="M133.19,24.22c-1.27,1.63-3.33,3.04-5.89,4.45,4.36,1.64,8.68,3.32,12.83,5.21,8.67.08,15.85.69,18.98-1.14,11.29-6.61,23.33-15.51,36.6-12.04,5.15,1.35,9.24,4.21,12.29,7.99,2.22.75,4.29,1.75,6.22,2.97-6.78-7.97-18.9-16.14-34.58-20.24-16.82-4.4-34.59-2.34-46.44,12.8ZM172.52,17.45c-.06.21-.43.65-.64.7-8.52,2.14-12.02,14.65-27.75,12.1-2.15-1.76-2.68-5.17-1.98-7.84,1.49-5.69,11.32-10.23,26.08-6.37.23.06,4.35,1.18,4.29,1.4Z"/>
      <path class="cls-1" d="M140.13,33.87c-4.15-1.89-8.47-3.58-12.83-5.21-11.72,6.44-34.13,12.81-42.08,39.62,1.57-1.18,3.25-2.29,5.04-3.32,8.42-29.22,32.23-31.25,49.87-31.08Z"/>
      <path class="cls-10" d="M334.18,62.8c3.94,8.45,11.11,7.32,12.14,12.99-.83-19.05-6.41-40.61-27.39-52.62-3.09,2.71-6.36,5.05-9.71,7.25,12.35,7.37,18.68,18.93,24.95,32.38Z"/>
      <path class="cls-58" d="M309.23,30.41c3.35-2.19,6.62-4.53,9.71-7.25-4.51-2.58-9.73-4.72-15.76-6.3-2.87-.75-5.46-1.18-7.89-1.44-11.13.44-22.29,3.37-33.08,7.77,10.19-1.49,21.49-1.54,32.93,1.45,5.46,1.43,10.09,3.38,14.09,5.76Z"/>
      <path class="cls-18" d="M279,53.23c2.55-3.09,5.3-5.74,8.16-8.11-2.06-1.01-4.09-2.09-6.08-3.22-.82-2.15-1.31-4.53-.86-6.25,1.15-4.4,12.16-3.62,16.62-2.45,1.83.48,3.51,1.1,5.06,1.81,2.46-1.51,4.91-3.02,7.32-4.6-4-2.39-8.63-4.33-14.09-5.76-11.45-2.99-22.75-2.94-32.93-1.45-.43.18-.86.36-1.3.54-1.15,1.63-2.11,3.37-2.59,5.19-1.63,6.22,6.79,18.49,20.69,24.31Z"/>
      <path class="cls-23" d="M346.32,75.78c-1.03-5.67-8.21-4.54-12.14-12.99-6.27-13.45-12.6-25.02-24.95-32.38-2.41,1.58-4.87,3.09-7.32,4.6,9.39,4.32,13.74,12.12,13.48,13.13-1.36,5.21-10.31,3.19-15.55,1.82-4.39-1.15-8.6-2.84-12.67-4.84-2.86,2.37-5.61,5.02-8.16,8.11,1.76.74,3.61,1.37,5.54,1.88,11.3,2.95,20.97,1.72,32.27,4.67,10.69,2.79,20.77,8.41,27.87,16.79.6.71,1.18,1.43,1.73,2.18,0-.52-.02-1.05-.04-1.57-.01-.46-.03-.93-.05-1.39Z"/>
      <path class="cls-10" d="M299.83,49.97c5.24,1.37,14.19,3.39,15.55-1.82.27-1.01-4.09-8.81-13.48-13.13-5.02,3.09-10.04,6.23-14.74,10.11,4.07,2,8.29,3.69,12.67,4.84Z"/>
      <path class="cls-58" d="M280.22,35.65c-.45,1.72.04,4.1.86,6.25,1.99,1.13,4.02,2.22,6.08,3.22,4.7-3.89,9.72-7.02,14.74-10.11-1.55-.71-3.23-1.34-5.06-1.81-4.46-1.17-15.47-1.95-16.62,2.45Z"/>
      <path class="cls-64" d="M270.67,66.81c2.4-5.38,5.22-9.81,8.33-13.57-13.9-5.82-22.31-18.09-20.69-24.31.48-1.82,1.44-3.56,2.59-5.19-9.11,3.82-17.94,8.68-26.28,13.95,7.22,15.79,20.53,24.54,36.04,29.12Z"/>
      <path class="cls-1" d="M316.82,59.78c-11.3-2.95-20.97-1.72-32.27-4.67-1.93-.5-3.78-1.14-5.54-1.88-3.11,3.77-5.93,8.19-8.33,13.57.87.26,1.75.51,2.64.74,26.33,6.88,48.66,1.48,58.42,4.04,3.13.82,6,2.15,8.61,3.88,1.99,1.32,3.84,2.87,5.53,4.61.19-.43.37-.86.53-1.3,0,0,0,0,0-.01-.55-.75-1.13-1.47-1.73-2.18-7.1-8.38-17.18-13.99-27.87-16.79Z"/>
      <path class="cls-30" d="M265.81,81.66c.21-.9.42-1.8.65-2.68,1.19-4.54,2.61-8.57,4.21-12.17-15.51-4.58-28.82-13.33-36.04-29.12-2.01,1.27-3.99,2.57-5.93,3.88-.13.09-.26.18-.39.27,21.36,8.71,20.1,30.28,37.5,39.83Z"/>
      <path class="cls-12" d="M265.81,81.66c2.26,1.24,4.84,2.28,7.82,3.06,16.36,4.28,42.57-13.97,66.72-9.27-2.61-1.73-5.49-3.06-8.61-3.88-9.77-2.55-32.09,2.85-58.42-4.04-.89-.23-1.77-.48-2.64-.74-1.61,3.6-3.02,7.63-4.21,12.17-.23.89-.45,1.78-.65,2.68Z"/>
      <path class="cls-2" d="M295.28,15.43c2.43.26,5.02.69,7.89,1.44,6.04,1.58,11.25,3.72,15.76,6.3,1.07-.94,2.12-1.92,3.14-2.96-2.18-1.14-4.52-2.07-7.04-2.73-6.52-1.7-13.13-2.32-19.75-2.05Z"/>
      <path class="cls-19" d="M346.32,75.78c.02.47.04.93.05,1.39.02.53.03,1.05.04,1.57h0c.17-.45.32-.91.46-1.37.05-.17.1-.34.15-.51,2.06-7.87-1.86-44.54-24.95-56.65-1.02,1.04-2.07,2.02-3.14,2.96,20.97,12.01,26.56,33.57,27.39,52.62Z"/>
      <path class="cls-17" d="M263.55,96.35c-.36,4.14-.51,8.34-.5,12.56.38.81.76,1.61,1.16,2.41,3.91-4.17,8.35-7.77,13.16-10.81-3.49-.03-6.67-.2-9.2-.87-2.03-.53-3.45-1.76-4.61-3.29Z"/>
      <path class="cls-5" d="M258.61,88.39c-4.74-6.04-11.06-9.98-17.77-13.09,8.04,8.02,16.42,17.23,17.66,19.81,1.62,3.38,1.58,6.95,3.06,10.46.47,1.11.97,2.22,1.49,3.34-.01-4.22.14-8.42.5-12.56-1.8-2.37-3-5.48-4.94-7.96Z"/>
      <path class="cls-4" d="M263.55,96.35c.16-1.84.36-3.66.6-5.47-17.49-9.06-20.64-28.69-35.77-41.92,2.91,6.16,4.99,13.17,6.38,20.46,1.91,1.79,3.98,3.8,6.07,5.89,6.71,3.1,13.04,7.04,17.77,13.09,1.94,2.48,3.14,5.59,4.94,7.96Z"/>
      <path class="cls-39" d="M272.43,94.02c-3.09-.81-5.82-1.87-8.27-3.14-.24,1.81-.44,3.63-.6,5.47,1.17,1.54,2.58,2.76,4.61,3.29,2.53.66,5.71.84,9.2.87,16.85-10.65,38.25-14.37,57.73-11.08-.83-.26-1.67-.5-2.52-.72-31.27-8.17-38.77,10.9-60.16,5.31Z"/>
      <path class="cls-9" d="M273.63,84.72c-2.98-.78-5.56-1.82-7.82-3.06-.69,3.02-1.24,6.09-1.66,9.22,2.45,1.27,5.19,2.33,8.27,3.14,21.39,5.59,28.9-13.49,60.16-5.31.84.22,1.68.46,2.52.72,1.66.28,3.3.61,4.92.99,1.91-3.49,4.29-6.8,5.86-10.35-1.69-1.74-3.54-3.29-5.53-4.61-24.16-4.7-50.36,13.54-66.72,9.27Z"/>
      <path class="cls-66" d="M265.81,81.66c-17.39-9.55-16.14-31.12-37.5-39.83-.92.62-1.83,1.25-2.74,1.87,1.01,1.66,1.95,3.42,2.81,5.25,15.12,13.23,18.28,32.87,35.77,41.92.42-3.13.97-6.2,1.66-9.22Z"/>
      <path class="cls-58" d="M122.72,379.63c-2.68-.7-3.76,1.16-4.46,3.84-.79,3.01,2.67,11.09,6.99,17.84,2.49-4.77,4.35-10.07,5.81-15.65.06-.23.12-.47.18-.7-2.2-1.37-4.5-2.87-6.89-4.56-.49-.35-1.05-.61-1.62-.76Z"/>
      <path class="cls-10" d="M125.24,401.31c1.95,3.04,4.08,5.82,6.07,7.73,8.58,1.91,18.3,2.2,20.15-4.92,2.01-7.67-7.1-10.98-20.24-19.17-.06.24-.12.47-.18.7-1.46,5.58-3.32,10.88-5.81,15.65Z"/>
      <path class="cls-58" d="M120.69,408.46c-20.97-12.67-8.54-30.17-24.54-36.91-24.13-10.16-38.38-29.43-43.5-44.82-.56,12.53,7.87,16.18,23.94,49.08,9.33,15.44,20.98,31.03,37.91,38.96,2.32-1.87,4.37-3.99,6.19-6.32Z"/>
      <path class="cls-51" d="M139.14,415.73c-8.05-2.1-14-4.57-18.45-7.26-1.81,2.33-3.86,4.45-6.19,6.32,3.02,1.42,6.21,2.59,9.58,3.47,10.36,2.71,29.76,4.71,48.02,2.95,10.96-2.81,24.65-9.06,42.75-22.16-.32-.08-.63-.16-.95-.24-1.92-.5-3.78-1.04-5.59-1.6-19.44,13.16-47.99,24.06-69.19,18.52Z"/>
      <path class="cls-19" d="M114.51,414.78c-2.67,2.15-5.71,3.95-9.17,5.36.28.13.58.23.9.32,4.34,1.13,8.59-1.04,12.49-.02,2.19.57,4.32,1.72,6.35,2.26,1.09.29,2.16.39,3.19.13,12.44-3.14,23.41,3.61,43.84-1.61-18.26,1.76-37.66-.24-48.02-2.95-3.37-.88-6.56-2.05-9.58-3.47Z"/>
      <path class="cls-2" d="M114.51,414.78c-16.92-7.93-28.58-23.52-37.91-38.96,2.71,5.54,5.63,11.92,8.77,19.31,4.06,9.57,13.29,12.68,18.24,23.39.35.75.95,1.27,1.73,1.62,3.46-1.4,6.5-3.21,9.17-5.36Z"/>
      <path class="cls-54" d="M132.66,378.57c-.44,2.21-.91,4.35-1.43,6.39,13.14,8.19,22.24,11.5,20.24,19.17-1.86,7.11-11.57,6.83-20.15,4.92-1.99-1.91-4.12-4.69-6.07-7.73-1.33,2.55-2.83,4.95-4.55,7.16,4.45,2.69,10.4,5.16,18.45,7.26,21.19,5.54,49.74-5.37,69.19-18.52-3.6-1.12-6.99-2.35-10.18-3.68-11.94,4.68-25.39,5.55-37.76,2.32-14.86-3.88-21.54-10.77-27.73-17.27Z"/>
      <path class="cls-18" d="M96.15,371.56c16,6.74,3.57,24.24,24.54,36.91,1.72-2.21,3.22-4.61,4.55-7.16-4.32-6.75-7.78-14.83-6.99-17.84.7-2.68,1.78-4.54,4.46-3.84.57.15,1.13.42,1.62.76,2.39,1.69,4.7,3.19,6.89,4.56.52-2.04.99-4.18,1.43-6.39-5.61-5.89-10.81-11.47-21.33-14.22-6.43-1.68-13.28-2.32-19.89-4.05-23.45-6.13-32.68-28.27-34.35-46.32-.59-.28-1.17-.56-1.75-.85-.25.84-.49,1.68-.71,2.52-1.19,4.57-1.85,8.09-1.98,11.1,5.11,15.39,19.36,34.65,43.5,44.82Z"/>
      <path class="cls-64" d="M91.44,360.3c6.61,1.73,13.46,2.36,19.89,4.05,10.52,2.75,15.72,8.33,21.33,14.22,1.37-6.86,2.39-14.34,3.26-21.3-5.72-6.87-11.93-12.74-20.83-15.06-10.07-2.63-22.14-.44-31.25-2.82-11.38-2.97-19.96-12.76-23.35-23.84-1.16-.51-2.29-1.03-3.4-1.56,1.67,18.05,10.9,40.19,34.35,46.32Z"/>
      <path class="cls-65" d="M135.92,357.26c-.88,6.96-1.9,14.44-3.26,21.3,6.19,6.5,12.87,13.38,27.73,17.27,12.38,3.24,25.82,2.36,37.76-2.32-3.22-1.34-6.24-2.79-9.07-4.31-5.21,1.32-10.87,1.04-16.36-.39-18.46-4.82-26.92-19.69-36.8-31.55Z"/>
      <path class="cls-44" d="M80.58,322.42c-2.13-.56-4.19-1.15-6.2-1.76,4.6,2.86,9.81,4.88,15.3,6.32,16.3,4.26,29.92,2.7,37.05,4.56,4.18,1.09,7.95,3.83,11.58,7.55.26-1.56.52-2.94.79-4.11-5.46-2.82-10.9-6.31-15.3-9.92-14.11-.57-23.43,2.54-43.23-2.63Z"/>
      <path class="cls-57" d="M180.14,383.71c-20.94-14.61-28.49-33.58-30.29-44.1-3.38-1.14-7.07-2.74-10.74-4.65-.28,1.17-.54,2.55-.79,4.11,12.15,12.42,22.78,35.7,41.82,44.63Z"/>
      <path class="cls-30" d="M83.85,339.38c9.11,2.38,21.18.19,31.25,2.82,8.9,2.33,15.1,8.19,20.83,15.06.87-6.95,1.6-13.39,2.39-18.18-3.64-3.71-7.41-6.46-11.58-7.55-7.13-1.86-20.75-.3-37.05-4.56-5.5-1.44-10.71-3.46-15.3-6.32-4.97-1.53-9.59-3.25-13.88-5.12,3.39,11.08,11.97,20.87,23.35,23.84Z"/>
      <path class="cls-12" d="M135.92,357.26c9.89,11.86,18.35,26.73,36.8,31.55,5.49,1.44,11.15,1.71,16.36.39-3.22-1.74-6.2-3.58-8.94-5.5-19.04-8.93-29.67-32.22-41.82-44.63-.79,4.79-1.52,11.23-2.39,18.18Z"/>
      <path class="cls-32" d="M307.44,285.3c-15.97,1.28-34.03-1-48.93-3.54-2.6,2.51-5.8,4.6-9.84,5.86-3.1.96-6.36,2.06-9.78,3.14-.05.75-.16,1.49-.35,2.22-2.88,11.01-11.25,3.98-17.58,8.03,1.44-.23,6.98-1.01,14.7-1.01,22.88-18.77,53.23-7.49,71.77-14.71Z"/>
      <path class="cls-5" d="M234.67,300.85c.33-.29.67-.57,1-.85-7.72,0-13.26.78-14.7,1.01-1.51.97-2.9,2.56-4.08,5.19,6.23-1.24,13.02-1.23,17.78-5.35Z"/>
      <path class="cls-60" d="M235.67,300c7.22,0,16.34.69,25.8,3.16.85.22,1.68.45,2.5.68,20.2,1.76,39.08,4.29,48.58-10.92,2.59-4.14,4.98-7.79,7.21-11.07-2.51,1.08-5.16,2.09-7.94,2.99-1.44.18-2.9.33-4.38.45-18.54,7.21-48.89-4.06-71.77,14.71Z"/>
      <path class="cls-68" d="M263.97,303.85c-.82-.23-1.65-.46-2.5-.68-9.46-2.47-18.58-3.16-25.8-3.16-.34.28-.67.56-1,.85-4.75,4.13-11.54,4.11-17.78,5.35-.54,1.2-1.03,2.61-1.46,4.27-.17.63-.35,1.2-.56,1.7,14.07-10.74,32.06-9.81,49.1-8.32Z"/>
      <path class="cls-64" d="M299.95,334.27c1.94.51,3.9,1.04,5.88,1.56,4.93,1.29,10.89,2.87,17.04,2.73-2.05-1.56-4.12-3.21-6.24-4.92-4.32-.04-8.89-.71-13.62-1.95-12.4-3.24-25.77-10.65-30.89-11.98-7.21-1.89-15.27.14-17.63,9.2-1.14,4.37-.89,9.34.7,13.63,2.04.81,4.14,1.51,6.3,2.07,5.3,1.39,7.95,1.28,9.93,1.66.04-1.43.24-2.85.6-4.22,3.48-13.32,14.61-11.26,27.94-7.78Z"/>
      <path class="cls-65" d="M316.63,333.64c2.12,1.71,4.19,3.36,6.24,4.92,11.81-.27,24.3-6.91,31.44-34.22.84-3.21,1.49-6.49,2-9.82-1.31-2.05-2.81-3.89-4.2-5.86-.05-.07-.1-.14-.14-.21-.45,5.09-1.61,11.44-3.78,19.71-4.75,18.18-16.65,25.62-31.56,25.48Z"/>
      <path class="cls-2" d="M301.32,339.33c-6.61,1.03-11.78,5.16-16.91,9.41,5.32-1.97,10.4-7.76,24-4.21.74.19,1.49.4,2.23.62,3.11.9,6.19,1.93,9.2,2.72,5.81,1.52,11.09.84,15.75-1.18-2.4-1.16-4.71-2.51-7-4.03-10.33-.24-20.55-4.37-27.27-3.32Z"/>
      <path class="cls-29" d="M328.59,342.65c2.29,1.51,4.61,2.87,7,4.03,11.78-5.12,19.66-18.85,22.32-27.63-7.13,19.68-18.29,23.86-29.32,23.6Z"/>
      <path class="cls-18" d="M301.32,339.33c6.72-1.05,16.94,3.08,27.27,3.32-1.92-1.26-3.81-2.64-5.72-4.09-6.15.14-12.11-1.44-17.04-2.73-1.98-.52-3.94-1.05-5.88-1.56-13.32-3.48-24.46-5.54-27.94,7.78-.36,1.36-.55,2.78-.6,4.22.19.04.38.08.56.12,2.52.66,4.87,2.09,7.16,2.69,1.95.51,3.62.27,5.27-.34,5.14-4.24,10.31-8.37,16.91-9.41Z"/>
      <path class="cls-54" d="M322.87,338.56c1.91,1.45,3.81,2.83,5.72,4.09,11.04.26,22.2-3.92,29.32-23.6.13-.41.24-.82.34-1.21,3.21-12.27,1.17-18.43-1.95-23.33-.51,3.33-1.16,6.61-2,9.82-7.14,27.32-19.63,33.95-31.44,34.22Z"/>
      <path class="cls-13" d="M319.76,281.86c-2.23,3.27-4.62,6.93-7.21,11.07-9.5,15.21-28.38,12.68-48.58,10.92,14.54,4.11,25.59,9.98,34.8,16.19,15.79-4.86,25.12-40.35,47.67-42.18-1.59-2.69-3.73-5.71-6.2-8.53-5.36,4.51-12.2,8.96-20.49,12.53Z"/>
      <path class="cls-66" d="M265.11,309.29c9.85,2.57,17.95,8.56,26.78,10.87,2.44.64,4.72.54,6.87-.12-9.2-6.21-20.26-12.08-34.8-16.19-17.04-1.48-35.03-2.42-49.1,8.32-.99,2.43-2.38,3.49-3.77,4.29,4.96,5.28,9.91,5.2,13.07,7.28,2.43,1.6,4.82,3.25,7.22,4.91.16-2.36.45-4.68,1.02-6.87,3.59-13.75,19-16.08,32.7-12.5Z"/>
      <path class="cls-43" d="M298.77,320.04c6.73,4.54,12.48,9.26,17.86,13.61,14.91.14,26.8-7.3,31.56-25.48,2.16-8.27,3.33-14.63,3.78-19.71-1.2-1.72-2.3-3.55-3.11-5.73-.5-1.36-1.33-3.04-2.41-4.86-22.55,1.83-31.88,37.32-47.67,42.18ZM344.84,297.22c-1.92,7.35-11.1,20.61-23.54,23.8.14-4.82-.5-9.73.67-14.2,1.69-6.45,11.43-16.6,18.61-14.72,2.52.66,4.95,2.48,4.26,5.12Z"/>
      <path class="cls-30" d="M272.12,319.71c5.12,1.34,18.49,8.74,30.89,11.98,4.73,1.24,9.3,1.91,13.62,1.95-5.39-4.34-11.13-9.07-17.86-13.61-2.15.66-4.43.76-6.87.12-8.83-2.31-16.94-8.3-26.78-10.87-13.7-3.58-29.11-1.25-32.7,12.5-.57,2.19-.86,4.51-1.02,6.87,7.61,5.26,15.23,10.51,23.79,13.89-1.59-4.3-1.84-9.26-.7-13.63,2.37-9.06,10.42-11.08,17.63-9.2Z"/>
    </g>
  </g>
</svg>