<?xml version="1.0" encoding="UTF-8"?>
<svg id="Layer_2" data-name="Layer 2" xmlns="http://www.w3.org/2000/svg" viewBox="0 0 653.05 461.69">
  <defs>
    <style>
      .cls-1 {
        fill: #d9c58c;
      }

      .cls-2 {
        fill: #c6aa4b;
      }

      .cls-3 {
        fill: #cfb264;
      }

      .cls-4 {
        fill: #e3c991;
      }

      .cls-5 {
        fill: #d6b551;
      }

      .cls-6 {
        fill: #e2d39c;
      }

      .cls-7 {
        fill: #d2b971;
      }

      .cls-8 {
        fill: #c0ac55;
      }

      .cls-9 {
        fill: #e9ddab;
      }

      .cls-10 {
        fill: #caa54a;
      }

      .cls-11 {
        fill: #e1d6a0;
      }

      .cls-12 {
        fill: #efe1b7;
      }

      .cls-13 {
        fill: #d5bd7c;
      }

      .cls-14 {
        fill: #e7daa1;
      }

      .cls-15 {
        fill: #e6d9a0;
      }

      .cls-16 {
        fill: #f0e9c6;
      }

      .cls-17 {
        fill: #f7e6be;
      }

      .cls-18 {
        fill: #e3d8b1;
      }

      .cls-19 {
        fill: #ead6a0;
      }

      .cls-20 {
        fill: #e8dbac;
      }

      .cls-21 {
        fill: #eddcae;
      }

      .cls-22 {
        fill: #e6cb85;
      }

      .cls-23 {
        fill: #dfd098;
      }

      .cls-24 {
        fill: #ecdaab;
      }

      .cls-25 {
        fill: #b8a74c;
      }

      .cls-26 {
        fill: #f5eac9;
      }

      .cls-27 {
        fill: #ceb95c;
      }

      .cls-28 {
        fill: #d8c17b;
      }

      .cls-29 {
        fill: #b39430;
      }

      .cls-30 {
        fill: #f2e9c2;
      }

      .cls-31 {
        fill: #fdf8e5;
      }

      .cls-32 {
        fill: #bc882e;
      }

      .cls-33 {
        fill: #b8a44d;
      }

      .cls-34 {
        fill: #ccaf50;
      }

      .cls-35 {
        fill: #9fa437;
      }

      .cls-36 {
        fill: #ebdeb7;
      }

      .cls-37 {
        fill: #dfd497;
      }

      .cls-38 {
        fill: #d6c88b;
      }

      .cls-39 {
        fill: #fcf6d3;
      }

      .cls-40 {
        fill: #ac9c3c;
      }

      .cls-41 {
        fill: #c8a146;
      }

      .cls-42 {
        fill: #fff8ef;
      }

      .cls-43 {
        fill: #f2ddb5;
      }

      .cls-44 {
        fill: #ebe5c2;
      }

      .cls-45 {
        fill: #e4d295;
      }

      .cls-46 {
        fill: #e5d5a2;
      }

      .cls-47 {
        fill: #e9e2a7;
      }

      .cls-48 {
        fill: #e8daab;
      }

      .cls-49 {
        fill: #f0eabc;
      }

      .cls-50 {
        fill: #efe2bb;
      }

      .cls-51 {
        fill: #efe7c2;
      }

      .cls-52 {
        fill: #fbf7e1;
      }

      .cls-53 {
        fill: #cebb7f;
      }

      .cls-54 {
        fill: #a58a30;
      }

      .cls-55 {
        fill: #f0eabe;
      }

      .cls-56 {
        fill: #ede7bc;
      }

      .cls-57 {
        fill: #e0cd7f;
      }

      .cls-58 {
        fill: #eed299;
      }

      .cls-59 {
        fill: #d4c48d;
      }

      .cls-60 {
        fill: #fdf8dc;
      }

      .cls-61 {
        fill: #d1bc71;
      }

      .cls-62 {
        fill: #cca247;
      }

      .cls-63 {
        fill: #caac5d;
      }

      .cls-64 {
        fill: #d2b564;
      }

      .cls-65 {
        fill: #f4eacd;
      }

      .cls-66 {
        fill: #ae9631;
      }

      .cls-67 {
        fill: #d8ce8f;
      }

      .cls-68 {
        fill: #e1d49f;
      }

      .cls-69 {
        fill: #fff8eb;
      }

      .cls-70 {
        fill: #d2bb71;
      }

      .cls-71 {
        fill: #e5d4a3;
      }

      .cls-72 {
        fill: #e0d28f;
      }

      .cls-73 {
        fill: #f2e7ca;
      }

      .cls-74 {
        fill: #8a9237;
      }

      .cls-75 {
        fill: #d1bd76;
      }

      .cls-76 {
        fill: #e4d5a6;
      }

      .cls-77 {
        fill: #d5ba63;
      }

      .cls-78 {
        fill: #dac793;
      }

      .cls-79 {
        fill: #c09947;
      }

      .cls-80 {
        fill: #cea54a;
      }

      .cls-81 {
        fill: #cd952b;
      }

      .cls-82 {
        fill: #f6f3cd;
      }

      .cls-83 {
        fill: #dfcb86;
      }

      .cls-84 {
        fill: #d8c982;
      }

      .cls-85 {
        fill: #f2e4b5;
      }

      .cls-86 {
        fill: #ceb04d;
      }

      .cls-87 {
        fill: #ddc976;
      }

      .cls-88 {
        fill: #e7e0b1;
      }
    </style>
  </defs>
  <g id="flower">
    <g>
      <path class="cls-80" d="M382.88,369.6c2.64-2.84,5.7-5.48,9.1-7.75-5.19-.03-10.4-.35-15.46-1.08-7.29-1.05-14.25-2.96-20.33-6.04-1.6.4-3.27.52-4.99.3-1.71,2.12-3.62,3.97-5.71,5.59,3.12-1.12,6.25-2.65,9.49-2.19,4.13.6,19.07,7.21,27.9,11.17Z"/>
      <path class="cls-61" d="M288.67,378.76c-1.28-.3-2.55-.6-3.87-.79,0,0-2.63.37-7.6.79-10.91.92-33.14,2.07-63.91.04,1.28.21,2.55.41,3.83.6,24.08,3.48,49.07,2.2,71.54-.64Z"/>
      <path class="cls-84" d="M378.6,374.89c1.26-1.81,2.69-3.59,4.28-5.29-8.83-3.96-23.77-10.57-27.9-11.17-3.25-.47-6.37,1.06-9.49,2.19-14.57,11.31-37.45,11.59-56.02,18.04,36.41-4.66,66.08-13.29,74.4-12.09,6.04.87,11.06,3.93,14.74,8.32Z"/>
      <path class="cls-14" d="M338.72,383.82c-48.87-7.07-84.66,29.82-146.5,20.88-15.54-2.25-30.44-7.49-43.94-16.49,2.37,7.11,5.29,14.08,9.5,19.82.31.42.62.82.94,1.23,9.47,5.16,20.3,7.87,31.27,9.46,70.83,10.24,125.86-25.3,165.04-20.53,3.95-.71,7.8-1.32,11.55-1.81-7.72-7.21-17.36-11.04-27.86-12.56Z"/>
      <path class="cls-45" d="M158.72,409.26c2.35,2.96,5.08,5.54,8.31,7.59.13.14.26.28.39.42,3.01,1.85,6.06,3.69,9.16,5.5,5.21,1.57,10.47,2.89,15.83,3.66,44.27,6.4,111.32-19.04,162.62-28.24-39.18-4.77-94.21,30.77-165.04,20.53-10.97-1.59-21.8-4.29-31.27-9.46Z"/>
      <path class="cls-67" d="M355.69,377.96c7.47,1.08,13.2,4.89,17.01,10.18.76-4.23,2.82-8.83,5.89-13.25-3.68-4.39-8.7-7.45-14.74-8.32-8.31-1.2-37.99,7.43-74.4,12.09-.17.06-.33.11-.5.17-.1-.02-.19-.05-.29-.07-22.48,2.83-47.46,4.12-71.54.64-1.28-.18-2.56-.39-3.83-.6-13.38-.88-28.37-2.37-44.75-4.74-9.66-1.4-18.26-2.97-25.9-4.68.85,2.77,1.68,5.7,2.55,8.7,4.06.66,8.1,1.29,12.14,1.88,79.24,11.46,198.34-2,198.37-2Z"/>
      <path class="cls-37" d="M338.72,383.82c10.5,1.52,20.14,5.34,27.86,12.56,2.06-.27,4.1-.51,6.09-.71-.41-2.24-.42-4.5-.09-6.76.04-.25.08-.51.13-.77-3.81-5.29-9.54-9.1-17.01-10.18-.03,0-119.13,13.46-198.37,2-4.04-.58-8.09-1.21-12.14-1.88.96,3.33,1.97,6.75,3.09,10.13,13.5,9,28.4,14.24,43.94,16.49,61.84,8.94,97.63-27.95,146.5-20.88Z"/>
      <path class="cls-31" d="M348.3,399.47c-50.33,10.06-113.54,33.09-155.9,26.96-5.36-.78-10.62-2.1-15.83-3.66,3.45,2.02,6.95,4.02,10.49,5.98,22.6-1.52,34.69,5.83,135.49-22.45,8.59-2.41,17.17-4.8,25.76-6.82Z"/>
      <path class="cls-76" d="M375.05,428.56c-35.49,18.08-66.18,32.39-124.51,23.96-7.49-1.08-14.96-2.52-22.41-4.26,10.49,4.08,21.16,7.46,31.86,9.83,12.97,1.21,31.37,3.46,47.28,1.05,12.07-1.82,21.35-4.08,29.39-6.76,14.8-6.12,27.67-14.67,38.39-23.82Z"/>
      <path class="cls-82" d="M266.74,443.34c51.11,7.39,69.87-14.61,113.37-36.04,6.75-3.33,13.6-4.96,20.48-6.11,1.06-1.45,2.07-2.86,2.99-4.23-.1-.02-.21-.04-.31-.07-2.07-.47-4.15-.85-6.24-1.15-7.2-1.04-15.41-.95-24.35-.07-7.64.75-15.82,2.09-24.36,3.8-8.59,2.02-17.17,4.41-25.76,6.82-100.79,28.29-112.88,20.94-135.49,22.45,2.11,1.17,4.23,2.32,6.37,3.45,4.82-.75,11.25-1.02,18.86.08,13.8,2,35.97,8.39,54.45,11.07ZM280.59,422.86c4.94-1.47,9.39-3.74,14.36-4.27,15.26-1.62,39.98-11.61,51.39-9.96,2.12.31,6.25,1.35,5.91,3.65-1.28,8.87-44.16,31.3-64.29,28.39-7.17-1.04-16.95-6.31-16.38-10.25.46-3.19,5.48-6.52,9.01-7.56Z"/>
      <path class="cls-11" d="M259.99,458.09c4.17.93,8.35,1.7,12.52,2.3,24.16,3.49,45.66-.37,64.14-8.01-8.04,2.69-17.32,4.94-29.39,6.76-15.91,2.4-34.3.16-47.28-1.05Z"/>
      <path class="cls-30" d="M375.05,428.56c10.7-9.13,19.28-18.86,25.53-27.36-6.88,1.15-13.73,2.78-20.48,6.11-43.49,21.43-62.26,43.43-113.37,36.04-18.47-2.67-40.65-9.07-54.45-11.07-7.61-1.1-14.04-.83-18.86-.08,11.23,5.96,22.86,11.45,34.7,16.05,7.45,1.74,14.92,3.18,22.41,4.26,58.33,8.44,89.02-5.88,124.51-23.96Z"/>
      <path class="cls-39" d="M287.96,440.68c20.14,2.91,63.01-19.52,64.29-28.39.33-2.3-3.79-3.34-5.91-3.65-11.41-1.65-36.13,8.33-51.39,9.96-4.97.53-9.42,2.8-14.36,4.27-3.53,1.05-8.55,4.38-9.01,7.56-.57,3.95,9.21,9.22,16.38,10.25Z"/>
      <path class="cls-10" d="M615.55,237.86c-.09-.01-.19-.03-.28-.04-1.17-.17-2.34-.3-3.51-.41-14.34,2.23-28.3,11.9-39.88,22.06-.32,1.12-.66,2.23-1.01,3.33,1.03,4.55,1.67,9.16.99,13.87-2.8,19.39-12.8,40.71-28.45,59.6,19.5-18.75,29.41-46.53,39.85-72.79,5.72-14.38,18.34-20.84,32.28-25.63Z"/>
      <path class="cls-14" d="M623.38,239.49c-17.74,8.12-32.34,22.37-38.37,41.17-30.54,95.12-117.71,88.29-137.1,139.08,2.22,2.74,4.61,5.3,7.28,7.54,41.14-75,177.87-48.24,193.31-155,.74-5.14.98-10.37.65-15.64-5.16-8.53-14.88-14.2-25.76-17.14ZM583.96,340.83c-1.5-.22-2.97-.5-4.38-.71-4.48-.65-4.99-9.75-4.37-14.08,2.18-15.07,18.31-27.42,20.5-42.56.04-.25.07-.5.1-.75.04-.33.08-.67.13-1,2.59-17.93,19.16-27.05,32.34-25.14,9.91,1.43,12.69,18.63,11.26,28.49-3.49,24.16-37.2,58.4-55.59,55.74Z"/>
      <path class="cls-3" d="M471.86,384.43c-13.77,4.19-28.62,6.4-44.34,6.01-.83-.02-1.66-.04-2.5-.07,3.21,2.79,5.99,5.99,8.58,9.38,11.99-7.06,33-12.15,35.71-13.77.85-.51,1.7-1.02,2.55-1.54Z"/>
      <path class="cls-37" d="M585.01,280.65c6.04-18.8,20.63-33.04,38.37-41.17-2.56-.69-5.19-1.24-7.83-1.63-13.94,4.79-26.56,11.25-32.28,25.63-10.44,26.25-20.35,54.03-39.85,72.79-17.49,21.11-42.04,39.18-71.56,48.16-.85.52-1.7,1.04-2.55,1.54-2.71,1.62-23.72,6.71-35.71,13.77,4.99,6.52,9.24,13.73,14.31,19.98,19.39-50.79,106.56-43.95,137.1-139.08Z"/>
      <path class="cls-76" d="M455.19,427.27c.51.43,1.03.84,1.57,1.25,20.79-2.29,35.47-22.38,55.25-30.51,29.65-12.19,67.27-18.04,97.22-32.41,2-1.31,3.96-2.67,5.86-4.09,17.77-28.66,35.28-69.75,37.61-85.86,1.08-7.45-.37-13.78-3.55-19.03.33,5.28.1,10.51-.65,15.64-15.44,106.76-152.17,80-193.31,155Z"/>
      <path class="cls-78" d="M456.76,428.52c2.26,1.71,4.72,3.2,7.46,4.38,36.15-33.84,101.98-39.1,145.01-67.3-29.95,14.37-67.57,20.22-97.22,32.41-19.78,8.13-34.46,28.22-55.25,30.51Z"/>
      <path class="cls-24" d="M628.28,256.61c-13.18-1.91-29.75,7.21-32.34,25.14-.05.33-.09.66-.13,1-.03.25-.06.5-.1.75-2.19,15.14-18.32,27.48-20.5,42.56-.63,4.32-.12,13.43,4.37,14.08,1.41.2,2.88.49,4.38.71,18.39,2.66,52.09-31.59,55.59-55.74,1.43-9.85-1.35-27.05-11.26-28.49Z"/>
      <path class="cls-31" d="M567.19,385.66c-36.77,13.62-77.34,23.25-102.98,47.25-.51.48-1.02.96-1.52,1.45.42.26.85.51,1.27.76,11.66-16.22,69.31-35.92,103.23-49.46Z"/>
      <path class="cls-30" d="M586.72,396.97c2.46-1.33,4.79-2.82,7-4.44-56.11,24.99-70.65,49.53-102.86,52.24,40.07,5.71,56.17-26.4,95.86-47.79Z"/>
      <path class="cls-82" d="M615.41,365.31c-10.27,8.56-24.8,12.82-37.31,17.94-47.15,19.32-53.6,63.25-93.79,57.44-6.42-.93-8.69-2.48-11.62-2.9-1.26-.18-2.55-.19-3.82-.03,6.97,3.47,14.34,5.89,21.85,6.98.05,0,.1.01.15.02,32.21-2.7,46.75-27.24,102.86-52.24,9.4-6.93,16.53-16.42,21.69-27.21Z"/>
      <path class="cls-39" d="M615.09,361.51c-13.76,10.27-30.4,17.66-47.9,24.14-33.92,13.53-91.57,33.23-103.23,49.46,1.61.94,3.24,1.82,4.9,2.65,1.27-.16,2.56-.15,3.82.03,2.93.42,5.21,1.98,11.62,2.9,40.19,5.81,46.64-38.12,93.79-57.44,12.51-5.13,27.04-9.38,37.31-17.94.95-1.99,1.84-4.03,2.66-6.1-.98.78-1.97,1.55-2.98,2.3ZM489,437.04c-4.3-.62-8.42-2.43-11.98-5.67,6.5-6.7,30.61-20.75,38.05-19.67,4.73.68,6.33,2.17,5.64,6.92-1.21,8.34-17.04,20.54-31.72,18.41Z"/>
      <path class="cls-52" d="M520.71,418.63c.69-4.76-.91-6.24-5.64-6.92-7.45-1.08-31.56,12.97-38.05,19.67,3.56,3.24,7.68,5.04,11.98,5.67,14.68,2.12,30.51-10.07,31.72-18.41Z"/>
      <path class="cls-30" d="M317.28,307.75c-7.7-1.11-15.74-.96-23.66-.89,1.11,2.29,2.23,4.5,3.3,6.61,2.18.43,4.11.84,5.85,1.25,4.46-1.6,9.19-2.28,14.03-1.58,24.14,3.49,16.81,34.7,52.86,39.92,17.44,2.52,33.97-2.24,53.93.07,10.04-1.3,20.34-3.07,30.63-5.4,3.09-2.65,6.24-5.3,9.35-7.99-26.67,1.72-56.78,10.96-75.77,8.22-28.85-4.17-39.34-35.7-70.52-40.21Z"/>
      <path class="cls-31" d="M335.82,245.11c22.71,3.28,85.54,32.99,96.16,34.53,9.39,1.36,19.94.09,30.98-1.95-11.11.32-22.66,1.87-33.06.36-14.44-2.09-38.15-18.51-64.82-28.77-8.72-3.36-17.76-6.05-26.89-7.37-15.39-2.23-36.27-.02-47.55,9.72-3.47,3-6.03,6.72-7.25,11.25,10.57-18,31.94-20.73,52.42-17.77Z"/>
      <path class="cls-82" d="M407.41,342.57c-41.79-6.04-65.86-44.45-110.58-51.75-3.91-.64-7.83-2.06-11.44-4.19,2.11,6.91,5.15,13.88,8.23,20.24,7.92-.07,15.95-.23,23.66.89,31.18,4.51,41.68,36.03,70.52,40.21,19,2.75,49.1-6.49,75.77-8.22,4.66-4.03,9.21-8.16,13.3-12.55-21.38,12.56-45.94,18.78-69.46,15.38Z"/>
      <path class="cls-76" d="M316.8,313.14c-4.84-.7-9.57-.02-14.03,1.58,3.11.74,5.58,1.46,7.6,2.22,1.91-.25,3.9-.25,5.86.03,21.81,3.16,13.43,34.94,34.77,38.03.06,0,.13.01.19.02,1.72.22,3.39.1,4.99-.3,6.08,3.08,13.04,4.98,20.33,6.04,5.05.73,10.26,1.05,15.46,1.08,5.89-3.92,12.8-6.72,20.28-7.44,3.73-.36,7.52-.79,11.34-1.28-19.97-2.3-36.49,2.46-53.93-.07-36.04-5.21-28.71-36.43-52.86-39.92Z"/>
      <path class="cls-60" d="M422.19,328.71c29.89,4.32,55.19-8.78,69.13-24.9.64-2.1,1.13-4.27,1.46-6.53,1.6-11.04,1.07-16.53-15.97-19-4.45-.64-9.11-.73-13.86-.59-11.04,2.03-21.6,3.31-30.98,1.95-10.62-1.54-73.46-31.25-96.16-34.53-20.48-2.96-41.85-.23-52.42,17.77-.22.84-.41,1.7-.54,2.59-.39,2.69-.4,5.53-.13,8.47,10.14-3.56,20.34-4.22,30.39-2.76,52,7.52,67.05,51.45,109.07,57.53ZM403.38,293.64c15.37-6.22,37-13.46,55.2-10.82,9.61,1.39,24.47,8.12,23.34,15.89-1.35,9.31-19.54,30.77-53,25.94-14.73-2.13-32.42-8.94-30.29-23.67.47-3.23,1.72-6.11,4.75-7.33Z"/>
      <path class="cls-39" d="M407.41,342.57c23.52,3.4,48.08-2.81,69.46-15.38,2.04-2.19,3.97-4.44,5.73-6.78,3.82-5.07,6.88-10.54,8.73-16.61-13.94,16.12-39.24,29.22-69.13,24.9-42.02-6.08-57.07-50.01-109.07-57.53-10.06-1.45-20.25-.79-30.39,2.76.39,4.1,1.34,8.38,2.66,12.69,3.61,2.13,7.53,3.55,11.44,4.19,44.72,7.3,68.79,45.71,110.58,51.75Z"/>
      <path class="cls-31" d="M428.92,324.64c33.46,4.84,51.66-16.62,53-25.94,1.12-7.77-13.74-14.5-23.34-15.89-18.2-2.63-39.83,4.61-55.2,10.82-3.03,1.23-4.29,4.11-4.75,7.33-2.13,14.73,15.57,21.54,30.29,23.67Z"/>
      <path class="cls-31" d="M539.49,309.45c13.45-11.41,26.95-27.68,31-45.5-15.93,47.54-65.83,72.36-116.26,83.79-14.2,3.22-28.43,5.38-41.96,6.68-7.48.72-14.39,3.52-20.28,7.44-3.2,2.13-6.1,4.6-8.63,7.25,50.34-28.96,86.42-.48,156.15-59.66Z"/>
      <path class="cls-39" d="M571.58,278.41c.1-.58.19-1.16.28-1.74.68-4.71.04-9.32-.99-13.87-.12.38-.25.76-.38,1.14-4.04,17.82-17.55,34.09-31,45.5-69.73,59.18-105.81,30.7-156.15,59.66-1.9,1.99-3.6,4.09-5.05,6.23,7.09,4.68,14.84,7.36,22.94,8.53,30.27,4.38,153.06-26.85,170.35-105.45ZM390.33,374.62c.93-6.46,33.37-20.74,52.69-17.95,4.54.66,10.56,2.85,9.92,7.28-.12.84-.52,1.72-1.27,2.64.04.25.04.49,0,.72-1.16,8.02-40.63,16.32-50.91,14.83-4.78-.69-11.08-3.08-10.44-7.53Z"/>
      <path class="cls-11" d="M379.77,393.97c-2.52-.37-5-.86-7.42-1.45.02,1.06.12,2.11.31,3.16,8.94-.88,17.15-.97,24.35.07,2.09.3,4.18.69,6.24,1.15,8.25-1.92,13.94-7.89,24.26-6.45,28.29.71,53.77-7.01,75.21-19.55-26.47,13.38-57.09,19.12-77.49,17.72-5.73-.39-19.59,9.09-45.46,5.35Z"/>
      <path class="cls-30" d="M538.11,342.35c-62.21,51.76-153.03,44.93-153.54,44.86-3.77-.54-7.35-1.62-10.64-3.5-.65,1.78-1.1,3.53-1.35,5.21-.17,1.2-.25,2.4-.22,3.6,2.42.6,4.9,1.09,7.42,1.45,25.86,3.74,39.73-5.74,45.46-5.35,20.4,1.4,51.02-4.35,77.49-17.72,13.51-7.9,25.41-17.71,35.38-28.55Z"/>
      <path class="cls-82" d="M538.11,342.35c18.2-19.76,29.99-42.89,33.47-63.94-17.29,78.6-140.08,109.83-170.35,105.45-8.09-1.17-15.84-3.84-22.94-8.53-1.88,2.77-3.36,5.6-4.37,8.37,3.29,1.88,6.88,2.96,10.64,3.5.51.07,91.33,6.91,153.54-44.86Z"/>
      <path class="cls-52" d="M451.67,367.32c.03-.23.04-.47,0-.72.75-.92,1.15-1.81,1.27-2.64.64-4.43-5.37-6.62-9.92-7.28-19.32-2.79-51.76,11.49-52.69,17.95-.64,4.44,5.65,6.83,10.44,7.53,10.28,1.49,49.75-6.81,50.91-14.83Z"/>
      <path class="cls-84" d="M544.3,273.51c3.18-21.99-23.52-46.32-22.01-56.79.51-3.51,2.71-6.79,5.53-9.78-5.58,3.21-10.71,7.04-15.23,11.47-.42.96-.71,1.98-.86,3.02-2.23,15.38,33.04,18.39,28.85,47.33-.09.63-.2,1.24-.33,1.85-3.82,25.02-26.18,39.25-51.71,47.9,29.88-7.31,53.56-29.78,55.76-45Z"/>
      <path class="cls-41" d="M511.73,221.43c.15-1.04.44-2.06.86-3.02-5.05,4.94-9.34,10.62-12.66,17.02.34.04.67.08.99.13,20.13,2.91,42.43,13.67,39.39,34.69-.02.12-.04.24-.06.37.12-.6.24-1.22.33-1.85,4.19-28.94-31.07-31.95-28.85-47.33Z"/>
      <path class="cls-67" d="M545.36,275.85c2.24-15.47-11.43-35.63-7.33-63.96.59-4.05,1.49-7.68,2.7-10.98-1.39.52-2.77,1.07-4.13,1.65-3.02,1.3-5.95,2.77-8.77,4.39-2.82,2.99-5.02,6.27-5.53,9.78-1.51,10.47,25.19,34.81,22.01,56.79-2.2,15.22-25.88,37.69-55.76,45-1.96.67-3.94,1.3-5.94,1.9-3.96,5.25-8.74,10.08-13.82,14.71,25.74-14.56,71.66-25.31,76.57-59.28Z"/>
      <path class="cls-37" d="M545.89,288.55c29.42-36.5-9.08-56.56,46.59-93.45-1.67.33-3.37.49-5.07.45-.55-.01-1.11-.05-1.67-.11-4.28-.45-8.56-.63-12.82-.55-11.16.22-22.12,2.26-32.2,6.01-1.21,3.3-2.11,6.94-2.7,10.98-4.1,28.33,9.57,48.49,7.33,63.96-4.91,33.96-50.83,44.71-76.57,59.28-.82.75-1.65,1.49-2.49,2.23,30.13-5.58,61.68-26.58,79.6-48.81Z"/>
      <path class="cls-12" d="M336.75,343.26c-1.29-2.72-2.35-5.67-3.46-8.58-27.75,40.85-110.3,39.73-161.44,32.33-24.44-3.54-62.94-10.98-78.36-30.26-.48.93-.82,1.89-.98,2.87-1.65,9.61,12.3,21.31,50.14,29.76,7.64,1.71,16.25,3.28,25.9,4.68.36.05.72.1,1.08.15,69.7.58,154.49,13.97,167.14-30.94Z"/>
      <path class="cls-19" d="M336.75,343.26c-12.65,44.92-97.44,31.53-167.14,30.94,53.48,7.64,92.03,5.86,107.58,4.55,4.98-.42,7.6-.79,7.6-.79,1.42.21,2.78.54,4.16.86,21.31-7.56,48.49-6.72,62.23-23.8-.06,0-.13-.01-.19-.02-7.65-1.11-11.48-5.9-14.25-11.74Z"/>
      <path class="cls-82" d="M319.36,317.69c-.97-.31-2-.55-3.12-.71-.14-.02-.28-.03-.41-.05-2.22.76-4.36,1.76-6.4,3.04-59.7,37.52-138.15-.14-203.62,7.39-.63.25-1.24.51-1.82.78,15.95,18.95,39.07,28.62,64.44,32.29,50.76,7.34,121.72-6.04,150.94-42.76ZM159.41,330.83c8.7,1.26,17.49,3.78,25.36,5.32,8.91,1.74,18.67,5.66,23.24,14.73.35.7.44,1.46.33,2.21-1.17,8.09-18.08,8.17-26.2,7-62.94-9.1-62.52-35.01-22.73-29.26Z"/>
      <path class="cls-30" d="M333.29,334.68c-2.81-7.37-5.95-14.48-13.93-17-29.22,36.71-100.18,50.1-150.94,42.76-25.37-3.67-48.49-13.34-64.44-32.29-5.15,2.36-8.78,5.31-10.49,8.6,15.42,19.29,53.92,26.73,78.36,30.26,51.15,7.4,133.69,8.51,161.44-32.33Z"/>
      <path class="cls-60" d="M315.82,316.93c-1.83-.23-3.67-.22-5.45.01-2.33.31-4.54,1-6.43,2.04-.88.48-1.77.95-2.65,1.41-32.68,16.96-65.67,15.83-98.76,11.04-15.6-2.26-34.85-5.94-46.51-7.63-11.76-1.7-22.59-1.82-31.85-.77-7.16.81-13.37,2.32-18.37,4.34,65.47-7.53,143.92,30.13,203.62-7.39,2.04-1.28,4.18-2.28,6.4-3.04Z"/>
      <path class="cls-39" d="M208.34,353.09c.11-.76.02-1.52-.33-2.21-4.57-9.07-14.33-12.98-23.24-14.73-7.87-1.54-16.65-4.06-25.36-5.32-39.79-5.75-40.21,20.16,22.73,29.26,8.12,1.17,25.03,1.09,26.2-7Z"/>
      <path class="cls-37" d="M223.15,309.51c-22.7-3.28-63.5,2.77-82.75,6.05-1.05.4-2.1.82-3.15,1.25-1.66.68-3.3,1.41-4.94,2.16.74.18,1.48.33,2.22.44,5.41.78,4.84-.43,18.34,1.53,16.89,2.44,33.82,5.58,50.79,8.04,20.48,2.96,41.03,4.92,61.64,3.47,1.19-.21,2.38-.43,3.58-.67-8.11-12.39-31.42-20.19-45.73-22.26Z"/>
      <path class="cls-59" d="M152.88,320.93c-13.5-1.95-12.93-.74-18.34-1.53-.74-.11-1.49-.26-2.22-.44-2.75,1.26-5.48,2.61-8.15,4.06,9.26-1.05,20.09-.93,31.85.77,11.67,1.69,30.92,5.37,46.51,7.63,20.98,3.03,41.92,4.59,62.77,1.01-20.61,1.45-41.15-.51-61.64-3.47-16.97-2.45-33.9-5.59-50.79-8.04Z"/>
      <path class="cls-84" d="M152.22,311.57c-4,1.17-7.94,2.5-11.82,3.99,19.26-3.29,60.06-9.34,82.75-6.05,14.3,2.07,37.62,9.87,45.73,22.26,9.92-1.99,19.81-5.19,29.68-10.01-4.33-5.65-36.62-11.26-59.29-14.54-27.92-4.04-57.16-.11-87.05,4.35Z"/>
      <path class="cls-40" d="M296.93,313.47c-7.51-1.47-17.9-3.09-32.68-5.23-.06,0-.12-.02-.19-.03-37.39-5.41-76.78-6.93-111.84,3.35,29.89-4.45,59.13-8.39,87.05-4.35,22.67,3.28,54.96,8.89,59.29,14.54.91-.44,1.82-.9,2.73-1.37.88-.46,1.77-.92,2.65-1.41,1.89-1.04,4.1-1.73,6.43-2.04-3.15-1.19-7.36-2.28-13.44-3.47Z"/>
      <path class="cls-82" d="M107.55,312.17c.46-3.18-2.14-7.32-9.72-8.41-5.49-.79-37.01-2.18-47.65,7.99,3.06,4.93,8.58,6.91,14.55,7.77,24.41,3.53,42.29-3.62,42.83-7.35Z"/>
      <path class="cls-39" d="M86.72,299.98c-17.35-1.17-32.29-1.31-48.62,8.51-.7.42-1.39.86-2.09,1.31-.42.28-.85.55-1.27.84.98.28,1.98.54,3,.79,12.9-11.84,31.69-8.35,48.99-11.46Z"/>
      <path class="cls-30" d="M109.05,301.32c-8-.23-15.36-.87-22.34-1.34-17.31,3.1-36.09-.38-48.99,11.46,1.16.28,2.35.55,3.57.79,1.8,1.97,3.68,3.82,5.65,5.58,7.37,2.54,14.58,5.7,22.21,6.8,23.89,3.45,44.34-5.46,54.55-15.9-4.56-2.56-9.53-4.98-14.66-7.39ZM64.72,319.52c-5.97-.86-11.49-2.84-14.55-7.77,10.64-10.17,42.16-8.78,47.65-7.99,7.59,1.1,10.18,5.23,9.72,8.41-.54,3.73-18.42,10.88-42.83,7.35Z"/>
      <path class="cls-19" d="M130.22,316.54c-20.59,4.42-40.2,16.67-60.83,13.68-2.43-.35-4.87-.9-7.25-1.65,6.83,3.81,14.19,6.76,21.86,8.95,6.58-2.57,12.88-10.98,37.33-15.4,4.52-.82,9.62-3.03,14.45-5.92-.61-.28-1.2-.59-1.76-.94-1.14.54-2.41.97-3.81,1.27Z"/>
      <path class="cls-12" d="M130.22,316.54c1.4-.3,2.67-.73,3.81-1.27-.28-.18-.55-.36-.82-.55-2.88-2.11-6.08-4.1-9.51-6.02-10.22,10.44-30.67,19.36-54.55,15.9-7.63-1.1-14.84-4.26-22.21-6.8,4.65,4.16,9.76,7.73,15.2,10.76,2.38.75,4.81,1.3,7.25,1.65,20.63,2.98,40.24-9.26,60.83-13.68Z"/>
      <path class="cls-4" d="M84.01,337.52c2.8.8,5.63,1.5,8.49,2.1,1.37-7.99,13.51-14.54,31.67-16.6,4.26-2.31,8.63-4.38,13.09-6.22-.5-.18-.99-.38-1.46-.6-4.83,2.89-9.93,5.1-14.45,5.92-24.46,4.42-30.75,12.83-37.33,15.4Z"/>
      <path class="cls-14" d="M34.73,310.65c.43-.29.85-.57,1.27-.84.7-.45,1.4-.89,2.09-1.31.15-.09.3-.17.46-.26,2.88-4.42,5.74-8.78,6.47-13.81,2.55-17.66-20.55-24.57-16.69-51.29.12-.83.27-1.65.44-2.47-3.57.43-6.96,1.32-10.09,2.68-9.06,6.72-16.17,15.87-17.64,26.03-2.25,15.55,8.21,26.47,20.5,35.97,3.13,1.71,6.64,3.22,10.53,4.49.86.28,1.75.55,2.65.81ZM12.51,279.27c.72-5,3.45-9.5,8.66-11.98.45-.21.83-.78,1.53-.84.52-.04,1.01-.02,1.48.05,12.83,1.86,18.06,18.33,16.74,27.42-1.02,7.06-4.41,12.17-11.97,11.07-7.12-1.03-18.27-13.13-16.45-25.73Z"/>
      <path class="cls-17" d="M1.05,269.38c1.47-10.17,8.58-19.31,17.64-26.03-9.55,4.14-16.59,12.53-18.36,24.78-1.87,12.95,4.22,27.95,21.23,37.22-12.29-9.49-22.75-20.42-20.5-35.97Z"/>
      <path class="cls-8" d="M54.74,266.95c3.26,16.42,26.86,22.36,28.09,32.79,8.12.46,16.72,1.31,26.22,1.59-20.5-9.6-43.62-18.84-54.31-34.37Z"/>
      <path class="cls-3" d="M54.74,266.95c-4.33-6.29-6.63-13.62-5.88-22.42.07-.81.15-1.62.27-2.46.01-.07.02-.15.04-.23-.54.05-1.09.11-1.64.16-.04.26-.09.51-.13.77-4.12,28.51,21.58,40.24,20.28,49.2-.42,2.88-2.56,5.56-5.32,8.1,6.63-.84,13.36-.74,20.46-.34-1.23-10.43-24.83-16.37-28.09-32.79Z"/>
      <path class="cls-37" d="M42.39,241.25c-.73-.17-1.47-.3-2.21-.41-3.91-.57-7.75-.61-11.4-.17-.17.82-.32,1.64-.44,2.47-3.86,26.72,19.24,33.63,16.69,51.29-.73,5.03-3.59,9.39-6.47,13.81,3.63-2.15,7.2-3.8,10.74-5.07,6.63-7.05,11.03-13.36,11.5-16.61,1.16-8-21.17-22.48-18.4-45.3Z"/>
      <path class="cls-84" d="M47.41,242.77c.04-.26.09-.51.13-.77-.72.07-1.45.13-2.18.19-.95-.41-1.95-.71-2.97-.94-2.77,22.82,19.55,37.3,18.4,45.3-.47,3.25-4.86,9.56-11.5,16.61,4.37-1.56,8.7-2.53,13.08-3.09,2.77-2.55,4.9-5.22,5.32-8.1,1.3-8.96-24.41-20.7-20.28-49.2Z"/>
      <path class="cls-21" d="M40.93,293.93c1.32-9.09-3.92-25.57-16.74-27.42-.47-.07-.97-.09-1.48-.05-.7.05-1.09.62-1.53.84-5.21,2.48-7.94,6.98-8.66,11.98-1.82,12.6,9.32,24.7,16.45,25.73,7.56,1.09,10.95-4.01,11.97-11.07Z"/>
      <path class="cls-82" d="M521.96,292.18c3.05.44,6.14.42,9.04-.16,2.45-3.15,4.51-6.57,6.1-10.28-5.67,3.7-11.98,5-18.36,4.07-21.19-3.07-21.79-22.92-60.32-28.49-25.08-3.63-47.34,1.39-68.85-1.73-8.32-1.2-16.5-3.56-22.94-7.87-.52.52-1.03,1.04-1.54,1.57,16.08,6.19,31.08,14.61,43.63,20.78,23.64.63,43.97-3.39,58.36-1.3,29.78,4.31,37.73,20.93,54.88,23.41Z"/>
      <path class="cls-69" d="M502.95,238.34c9.66,1.4,24.82,7.73,35.35,18.1-5.91-12.07-22.26-18.69-37.38-20.88-.32-.05-.65-.09-.99-.13-17.1-2.11-55.05,1.82-92.82-2.48-2.48-.28-4.97-.6-7.44-.96-9.02-1.3-16.65,2.03-23.53,7.22,26.6-10.59,37.04,1.2,102.47-1.44,8.14-.33,16.4-.59,24.33.56Z"/>
      <path class="cls-39" d="M458.42,257.32c38.53,5.57,39.13,25.43,60.32,28.49,6.38.92,12.69-.37,18.36-4.07,1.53-3.56,2.62-7.38,3.22-11.49.76-5.22-.06-9.81-2.01-13.81-10.53-10.37-25.7-16.71-35.35-18.1-7.92-1.15-16.19-.89-24.33-.56-65.43,2.64-75.88-9.16-102.47,1.44-3.33,2.51-6.48,5.45-9.52,8.5,6.44,4.31,14.62,6.67,22.94,7.87,21.51,3.11,43.77-1.9,68.85,1.73ZM498.94,242.86c28.58,4.13,33.71,23.06,33.1,27.28-.38,2.62-5.25,7.39-14.22,6.09-7.84-1.13-31.34-13-38.06-17.14-5.38-3.32-10.42-8.38-13.89-13.64,9.24-3.06,21.55-4.26,33.06-2.59Z"/>
      <path class="cls-30" d="M515.27,306.05c6.14-3.99,11.51-8.62,15.72-14.04-2.9.59-5.98.61-9.04.16-17.15-2.48-25.1-19.11-54.88-23.41-14.39-2.08-34.73,1.94-58.36,1.3,6.93,3.41,13.1,6.13,18.3,7.41,16.14-1.5,33.53-4.88,48.93-2.65,29.12,4.21,29.3,23.07,39.34,31.22Z"/>
      <path class="cls-85" d="M475.94,274.83c-15.39-2.23-32.79,1.15-48.93,2.65,1,.25,1.97.44,2.89.58,14.84,2.15,32.04-1.92,46.92.23,11.27,1.63,15.31,4.59,16.3,9.6,6.08,7.23,3.7,19.42,13.04,20.77,1.44.21,2.99.23,4.54.17,1.56-.89,3.09-1.81,4.57-2.77-10.04-8.15-10.21-27.01-39.34-31.22Z"/>
      <path class="cls-60" d="M479.77,259.09c6.71,4.14,30.21,16.01,38.06,17.14,8.96,1.3,13.84-3.47,14.22-6.09.61-4.22-4.52-23.14-33.1-27.28-11.51-1.66-23.82-.47-33.06,2.59,3.47,5.26,8.5,10.32,13.89,13.64Z"/>
      <path class="cls-57" d="M509.46,219.51c-10.27,17.05-24.18,12.4-61.51,15.56,22.11.11,41.2-.97,51.98.36,7.54-14.55,20.15-25.43,35.22-32.24-10.4,2.96-20.19,7.18-25.7,16.32Z"/>
      <path class="cls-69" d="M529.74,175.39c-4.21-5.89-9.78-9.55-15.11-10.33-5.48-.79-13.31,2.34-22.98,6.87-2.7,1.27-5.55,2.64-8.52,4.07-13.94,6.7-30.79,14.59-49.41,18.06-10.45,1.95-22.68,1.77-33.48,3.96,52.43,5.79,97.12-32.02,116.65-29.2,4.66.67,9.09,2.75,12.86,6.56Z"/>
      <path class="cls-60" d="M457.63,214.83c1.75.48,3.49.85,5.21,1.1,31.41,4.54,61.16-32.03,61.54-34.63.59-4.07-2.33-6.35-6.35-6.93-13.03-1.89-58.75,10.95-62.32,35.65-.13.89-.21,1.8-.25,2.74-.05,1.26,1.49,1.89,2.17,2.08Z"/>
      <path class="cls-31" d="M384.45,203.35c1.93.28,3.87.5,5.79.66-1.07-.46-2.17-.88-3.3-1.28-2.77-.97-5.69-1.79-8.71-2.54-12.21-3.03-25.83-4.99-35.62-12.17-19.75-14.48-46.12-33.48-70.89-37.06-8.69-1.26-16.4-.33-22.77,1.84-1.9.65-3.68,1.4-5.33,2.25-2.26,1.16-4.28,2.47-6.02,3.89-1.6,1.3-2.96,2.68-4.08,4.09,10.09-6.25,16.56-14.11,33.24-11.7,53.96,7.8,50.19,42.25,117.68,52.01Z"/>
      <path class="cls-60" d="M400.76,211.08c-2.82-3.08-6.43-5.32-10.51-7.07-1.93-.16-3.86-.38-5.79-.66-67.48-9.76-63.72-44.21-117.68-52.01-16.68-2.41-23.15,5.45-33.24,11.7-1.75,2.22-2.88,4.51-3.32,6.69,23.89,3.66,36.17,47.11,79.02,53.31,31.47,4.55,50.95-15.25,91.52-11.96ZM257.06,163.45c6.86-4.56,15.18-5.61,23.37-4.42,24.32,3.52,67.03,43.19,66.36,47.76-.77,5.35-12.83,12.73-30.39,10.19-28.25-4.09-53.64-24.89-59.34-53.53Z"/>
      <path class="cls-39" d="M406.84,224.85c-.8-5.94-2.96-10.37-6.08-13.77-40.57-3.29-60.05,16.51-91.52,11.96-42.86-6.2-55.13-49.65-79.02-53.31-.04.19-.07.37-.1.56-.29,2.04-.22,4.17.1,6.37,28.11,13.65,25.6,48.34,82.17,56.52,53.09,7.68,51.57-4.63,67.78-5.41,7.74-.37,15.56-.56,23.28-1.03,1.2-.07,2.39-.15,3.59-.24-.05-.56-.11-1.11-.19-1.64Z"/>
      <path class="cls-5" d="M252.41,205.9c5.31,6.37,9.59,15.12,10.6,27.12,10.3,4.83,19.78,11.01,27.64,18.61,7.1-6.13,17.99-9.28,28.93-10.21-10.98.12-23.17,3.28-30.56,2.21-26.58-3.84-22.35-24.96-36.62-37.73Z"/>
      <path class="cls-71" d="M307.57,240c-5.61,1.43-10.76,1.71-15.5,1.03-37.91-5.48-24.92-48.48-59.99-56.61.85,2.74,1.85,5.53,2.82,8.35,5.27,2.43,11.96,6.48,17.51,13.14,14.27,12.77,10.04,33.89,36.62,37.73,7.39,1.07,19.57-2.1,30.56-2.21,6.44-.55,12.9-.34,18.61.49,9.13,1.32,18.17,4.02,26.89,7.37,5.01-5.14,10.28-10.1,16.14-13.43-2.68.66-5.42,1.15-8.25,1.45-21.96,2.3-43.38-2.94-65.41,2.7Z"/>
      <path class="cls-82" d="M407.03,226.49c-1.19.09-2.39.17-3.59.24-7.72.48-15.53.66-23.28,1.03-16.21.79-14.68,13.09-67.78,5.41-56.57-8.18-54.07-42.87-82.17-56.52.36,2.5,1.04,5.1,1.86,7.75,35.07,8.14,22.08,51.13,59.99,56.61,4.73.68,9.89.41,15.5-1.03,22.03-5.63,43.45-.4,65.41-2.7,2.82-.3,5.57-.79,8.25-1.45,3.66-2.08,7.54-3.53,11.74-3.98,2.15-.23,4.39-.21,6.72.12,2.48.36,4.96.68,7.44.96.12-2.32.09-4.47-.09-6.46Z"/>
      <path class="cls-31" d="M346.79,206.79c.66-4.57-42.05-44.25-66.36-47.76-8.19-1.18-16.52-.14-23.37,4.42,5.7,28.64,31.09,49.45,59.34,53.53,17.57,2.54,29.62-4.84,30.39-10.19Z"/>
      <path class="cls-6" d="M235.15,301.72c-48.43-7-94.31,9.8-94.31,9.8-6.54-.95-27.03-14.79-40.3-20.41-13-5.5-25.98-10.03-38.51-15.97,12.05,10.86,30.39,18.4,47.02,26.19,8.98,4.21,17.46,8.49,24.16,13.4,1.19.87,2.56,1.57,4.04,2.08,38.17-15.72,83.08-14.8,125.51-8.77-9.02-2.86-18.26-4.97-27.61-6.32Z"/>
      <path class="cls-82" d="M210.72,295.08c12.5,1.81,24.72,7.08,39.85,9.27,4.08.59,8.13.89,12.07.74-3.68-6.89-8.2-12.83-13.4-17.98-23.33-14.87-48.43-28.23-76.08-32.23-8.06-1.17-10.89-.88-14.68-1.42-8.95-1.29-21.52-10.9-45.27-14.33-33.59-4.86-46.57,4.37-64.49,9.1.06,5.18,1.22,9.82,3.25,14.02,22.56,14.64,62.92,36.23,76,38.12,15.8,2.29,52.21-9.69,82.74-5.28ZM163.13,265.27c8.28-3.29,17.02-3.85,25.77-2.58,20.54,2.97,49.93,20.32,49.35,24.33-.22,1.54-6.17,6.93-17.78,5.25-7.53-1.09-15.56-4.39-22.44-5.39-7.66-1.11-17.18.49-25.33-.69-11.19-1.62-15.71-9.27-15.23-12.57.44-3.07,3.92-5.61,5.67-8.35ZM64.77,256.15c1.15-7.96,21.31-13.54,39.22-10.95,39.13,5.66,51.73,27.52,50.14,38.51-1.78,12.29-18.04,13.57-22.77,12.89-.7-.1-1.35-.29-1.92-.61-64.12-35.88-65.78-32.15-64.67-39.84Z"/>
      <path class="cls-60" d="M158.49,253.45c3.78.55,6.61.26,14.68,1.42,27.65,4,52.75,17.36,76.08,32.23-30.29-30.05-83.44-33.73-124.33-46.52-4.69-1.47-9.37-2.51-14.04-3.19-8.62-1.25-16.71-1.1-24.82-.35-6.23.58-12.49,1.53-19,2.49-3.9.57-7.89,1.15-12.04,1.66-1.91.24-3.86.46-5.84.65-.01.07-.02.15-.04.23-.12.83-.21,1.65-.27,2.46-.11,1.26-.15,2.49-.13,3.69,17.92-4.73,30.9-13.95,64.49-9.1,23.74,3.43,36.32,13.04,45.27,14.33Z"/>
      <path class="cls-30" d="M140.85,311.51s45.88-16.8,94.31-9.8c9.35,1.35,18.58,3.45,27.61,6.32.43.06.86.12,1.29.18.06,0,.12.02.19.03-.51-1.08-1.05-2.12-1.6-3.16-3.94.15-7.99-.15-12.07-.74-15.13-2.19-27.35-7.46-39.85-9.27-30.53-4.42-66.93,7.56-82.74,5.28-13.08-1.89-53.44-23.48-76-38.12,2.33,4.82,5.8,9.06,10.05,12.9,12.52,5.94,25.5,10.47,38.51,15.97,13.27,5.62,33.77,19.46,40.3,20.41Z"/>
      <path class="cls-39" d="M131.36,296.6c4.73.68,20.99-.6,22.77-12.89,1.59-10.99-11.01-32.85-50.14-38.51-17.91-2.59-38.07,3-39.22,10.95-1.11,7.69.55,3.95,64.67,39.84.56.32,1.22.51,1.92.61ZM82.49,264.88c-3.46-2.67-5.61-7.51-5.95-12.49,10.46-2.63,24.03-5,35.81-3.3,21.96,3.18,26.07,20.53,25.39,25.22-1.17,8.07-12.79,8.05-20.82,6.89-12.59-1.82-24.38-8.58-34.43-16.33Z"/>
      <path class="cls-39" d="M172.69,286.18c8.15,1.18,17.67-.42,25.33.69,6.88,1,14.91,4.3,22.44,5.39,11.61,1.68,17.56-3.71,17.78-5.25.58-4.01-28.81-21.36-49.35-24.33-8.74-1.26-17.49-.71-25.77,2.58-1.76,2.74-5.23,5.27-5.67,8.35-.48,3.29,4.04,10.95,15.23,12.57Z"/>
      <path class="cls-60" d="M137.74,274.32c.68-4.7-3.43-22.05-25.39-25.22-11.78-1.7-25.35.67-35.81,3.3.34,4.98,2.49,9.82,5.95,12.49,10.05,7.75,21.85,14.51,34.43,16.33,8.03,1.16,19.65,1.17,20.82-6.89Z"/>
      <path class="cls-39" d="M177.8,223.7c31.18,4.51,31.36,26.23,84.3,33.89,8.34,1.21,16.61,1.22,24.24-1.16.89-1.32,1.93-2.54,3.08-3.68-18.17-19.63-64.83-29.35-65.29-29.42-.13-.02-7.23-.82-11.87-1.49-32.25-4.67-31.26-12.66-51.06-15.52-16.37-2.37-29.7,1.9-42.07,6.33-2.54,1.32-4.99,2.58-7.47,3.63-5.1,2.17-10.28,3.47-16.44,2.58-.71-.1-1.48-.26-1.68-.29-2.1-.3-3.71,0-4.97.76,6.21,4.33,13.54,7.15,21.1,8.24,17.61,2.55,44.15-7.36,68.11-3.89Z"/>
      <path class="cls-69" d="M212.27,221.85c4.64.67,11.74,1.47,11.87,1.49.46.07,47.11,9.79,65.29,29.42.39-.39.8-.76,1.22-1.13-7.86-7.6-17.34-13.78-27.64-18.61-12.66-5.94-26.55-9.83-40.15-11.8-8.73-1.26-19.68-1.68-19.85-1.7-10.67-1.54-19.93-12.24-42.63-15.52-6.92-1-12.83-.87-18.04-.04-2.83.45-5.45,1.1-7.91,1.88-5.78,1.84-10.67,4.42-15.29,6.82,12.37-4.43,25.7-8.7,42.07-6.33,19.8,2.86,18.81,10.86,51.06,15.52Z"/>
      <path class="cls-46" d="M274.3,299.86c-14.12-2.04-34.61-34-63.61-41.81-1.13-.3-60.25-16.81-61.4-16.98-7.14-1.03-13.68-.62-23.65-2.07-14.62-2.11-15.63-4.95-26.45-6.51-4.77-.69-9.56-.86-14.32-1.16.17,1.91.58,3.83,1.18,5.71,8.11-.76,16.2-.9,24.82.35,4.67.68,9.34,1.72,14.04,3.19,23.3,7.29,50.59,11.62,75.36,19.56,49.2,7.44,57.96,42.57,82.29,46.09,2.95.43,6.44.15,10.23-1.1-1.59-3.35-3.14-6.84-4.54-10.39-5.6,3.69-10.63,5.6-13.95,5.12Z"/>
      <path class="cls-83" d="M200.27,260.14c27.27,8.74,51.48,21.85,63.97,48.1,14.79,2.14,25.17,3.76,32.68,5.23-1.35-2.63-2.75-5.43-4.14-8.34-3.79,1.24-7.27,1.52-10.23,1.1-24.33-3.52-33.09-38.65-82.29-46.09Z"/>
      <path class="cls-82" d="M154.13,232.89c57.13,8.26,82.63,40.73,102.71,43.63,8.85,1.28,17.63-.84,25.73-5.12-.07-2.04.02-4.02.29-5.93.49-3.41,1.71-6.41,3.48-9.04-7.63,2.37-15.9,2.36-24.24,1.16-52.94-7.66-53.12-29.38-84.3-33.89-23.97-3.47-50.5,6.44-68.11,3.89-7.56-1.09-14.9-3.91-21.1-8.24-1.74,1.07-2.77,3.05-3.33,5.66,0,0,0,.01,0,.02,4.55,4.04,10.54,6.25,16.81,7.16,13.8,2,23.57-3.42,52.07.7Z"/>
      <path class="cls-30" d="M125.63,239.01c9.97,1.44,16.51,1.03,23.65,2.07,1.16.17,60.27,16.67,61.4,16.98,29.01,7.81,49.49,39.77,63.61,41.81,3.32.48,8.34-1.43,13.95-5.12-3.09-7.85-5.43-15.96-5.68-23.34-8.11,4.28-16.88,6.4-25.73,5.12-20.07-2.9-45.58-35.37-102.71-43.63-28.5-4.12-38.27,1.29-52.07-.7-6.28-.91-12.27-3.12-16.81-7.16-.1.48-.2.98-.27,1.5-.23,1.59-.25,3.2-.1,4.81,4.76.3,9.55.47,14.32,1.16,10.82,1.56,11.83,4.4,26.45,6.51Z"/>
      <path class="cls-60" d="M391.07,124.68c.28.04,21.78.59,33.7,2.31,9.79,1.42,17.68,3.8,25.42,6.45-6.13-2.94-12.79-5.25-19.73-6.98-4.31-1.08-8.73-1.93-13.19-2.58-15.14-2.19-30.07-1.43-30.07-1.43-3.68-.53-4.92-2.92-14.84-4.35-1.54-.22-3.21-.39-4.97-.49-4.33-.25-9.19-.07-13.88.8-5.07.94-9.94,2.7-13.72,5.6,11.18-3.69,22.75-5.35,34.45-3.66,9.77,1.41,12.69,3.73,16.82,4.33Z"/>
      <path class="cls-82" d="M424.32,129.89c-6.98-1.01-16.26,1.5-23.32.47-.2-.03-1.41-.25-2.57-.41-.35-.05-.71-.1-1.07-.15-7.19-1.04-17.96-5.73-28.38-7.23-2.99-.43-5.97-.6-8.93-.39-.02,0-.04-.02-.06-.03-5.04-.28-10.92,1.88-11.75,7.64-.55,3.77.68,17.89,22.25,21.01,22.08,3.19,27.04-6.54,50.61-7.49,4.57-.19,11.69-2.8,12.15-5.99.22-1.52-1.94-6.41-8.93-7.42ZM371.1,146.5c-8.43-1.22-18.01-3.98-16.82-12.16.96-6.64,6.7-10.3,12.23-9.51,1.2.17,2.36.12,3.49.29.52.08,27.26,8.17,26.59,12.74-1.27,8.79-16.74,9.92-25.5,8.65Z"/>
      <path class="cls-85" d="M428.96,150.8c-18.34-2.65-34.31,10.26-52.78,7.59-5.13-.74-10-2.51-14.64-4.93,10.15,7.74,19.72,16.11,24.65,22.86,4.03,5.52,9.65,8.49,15.69,9.36,18.51,2.68,18.8-10.97,77.65-21.23.33-.06.65-.12.98-.19-.59-1.65-1.28-3.25-2.04-4.8-5.15.53-10.51.24-15.89-.54-14.05-2.03-27.8-7.27-33.62-8.11Z"/>
      <path class="cls-15" d="M361.1,162.61c4.4,4.79,8.2,9.89,11.1,15.26,6.24,7.33,12.66,17.51,19.18,18.45.47.07,61.88-3.44,91.59-21.7-.19-1.51-.44-2.99-.75-4.43-18.93,11.38-58.1,23.36-82.94,19.77-21.1-3.05-25.46-20.64-38.16-27.34Z"/>
      <path class="cls-20" d="M480.52,164.25c-.33.06-.65.13-.98.19-58.85,10.26-59.14,23.91-77.65,21.23-6.04-.87-11.65-3.84-15.69-9.36-4.93-6.75-14.51-15.12-24.65-22.86-5.8-4.42-11.78-8.64-17.19-12.24-4.25-2.82-8.14-5.26-11.31-7.11-.18.69-.32,1.41-.43,2.16-.15,1.06-.21,2.14-.19,3.23,10.28,6.41,20.5,14.22,28.67,23.12,12.71,6.7,17.06,24.29,38.16,27.34,24.84,3.59,64.02-8.39,82.94-19.77-.45-2.05-1.01-4.03-1.69-5.94Z"/>
      <path class="cls-85" d="M333.93,131.48c-.35.83-.64,1.7-.88,2.62,3.17,1.85,7.06,4.28,11.31,7.11-3.61-3.16-7.08-6.47-10.43-9.73Z"/>
      <path class="cls-30" d="M450.2,133.45c-7.74-2.65-15.64-5.03-25.42-6.45-11.93-1.73-33.43-2.27-33.7-2.31-4.12-.6-7.05-2.92-16.82-4.33-11.7-1.69-23.27-.03-34.45,3.66-2.53,1.94-4.58,4.4-5.88,7.47,3.35,3.26,6.82,6.58,10.43,9.73,5.41,3.6,11.39,7.81,17.19,12.24,4.64,2.43,9.51,4.19,14.64,4.93,18.46,2.67,34.44-10.24,52.78-7.59,5.83.84,19.58,6.08,33.62,8.11,5.38.78,10.74,1.07,15.89.54-5.68-11.53-15.86-20.06-28.28-26.01ZM421.1,143.3c-23.58.96-28.54,10.69-50.61,7.49-21.57-3.12-22.8-17.24-22.25-21.01.83-5.76,6.71-7.92,11.75-7.64.02,0,.04.02.06.03,2.96-.21,5.94-.04,8.93.39,10.42,1.51,21.19,6.19,28.38,7.23.36.05.71.1,1.07.15,1.15.17,2.37.39,2.57.41,7.07,1.02,16.34-1.48,23.32-.47,6.99,1.01,9.15,5.9,8.93,7.42-.46,3.19-7.58,5.8-12.15,5.99Z"/>
      <path class="cls-39" d="M371.1,146.5c8.76,1.27,24.23.14,25.5-8.65.66-4.57-26.08-12.66-26.59-12.74-1.13-.16-2.29-.11-3.49-.29-5.53-.79-11.27,2.87-12.23,9.51-1.18,8.18,8.39,10.94,16.82,12.16Z"/>
      <path class="cls-20" d="M506.16,308.65c-9.26-1.34-7-13.32-12.88-20.57,1.63,11.64-3.67,25.8,2.15,26.64,1.1.16,2.46,0,3.83-.28,3.98-1.7,7.82-3.56,11.45-5.62-1.55.06-3.1.03-4.54-.17Z"/>
      <path class="cls-15" d="M493.27,288.08c-.05-.07-.1-.13-.16-.2.5,2.56.21,5.66-.33,9.4-1.27,8.77-5.04,16.31-10.18,23.14,5.7-1.72,11.3-3.7,16.65-5.97-1.37.27-2.73.44-3.83.28-5.82-.84-.51-15-2.15-26.64Z"/>
      <path class="cls-16" d="M402.75,207.97c-.19-.03-.38-.06-.56-.09-1.8-.26-3.59-.38-5.35-.24,4.86,3.46,8.4,8.33,9.74,15.63,1.95.33,3.9.68,5.85,1.03-2.59-5.74-5.18-11.69-9.69-16.33Z"/>
      <path class="cls-82" d="M455.18,222.48c-17.61-2.55-37.95-12.24-52.43-14.51,4.51,4.63,7.1,10.59,9.69,16.33,8.65,1.56,17.38,3.3,26.09,4.55,58.76,8.5,67.11-17.47,73.37-20.71,7.46-3.87,17.34-7.03,24.78-11.89-.11-2.13-.37-4.18-.75-6.13-6.95,4.93-20.67,7.78-47.92,26.02-10.4,6.96-21.52,7.97-32.83,6.34Z"/>
      <path class="cls-39" d="M455.18,222.48c11.31,1.64,22.43.62,32.83-6.34,27.25-18.23,40.97-21.09,47.92-26.02-1.13-5.79-3.34-10.77-6.18-14.74-3.76-3.8-8.2-5.88-12.86-6.56-19.53-2.82-64.22,34.99-116.65,29.2-3.38.68-6.62,1.61-9.63,2.89,5.28,1.46,9.14,3.96,12.15,7.05,14.48,2.27,34.82,11.96,52.43,14.51ZM518.03,174.37c4.02.58,6.93,2.85,6.35,6.93-.38,2.6-30.13,39.17-61.54,34.63-1.72-.25-3.46-.61-5.21-1.1-.67-.19-2.22-.82-2.17-2.08.04-.94.13-1.85.25-2.74,3.57-24.7,49.29-37.54,62.32-35.65Z"/>
      <path class="cls-65" d="M402.75,207.97c-3-3.09-6.87-5.59-12.15-7.05-1.26.54-2.48,1.14-3.65,1.81,3.65,1.28,7,2.85,9.89,4.91,1.75-.14,3.55-.02,5.35.24.19.03.38.06.56.09Z"/>
      <path class="cls-36" d="M406.59,223.27c.52,2.84.72,6.04.53,9.68,3.44.39,6.89.71,10.32.98-1.93-2.93-3.46-6.24-4.99-9.63-1.96-.35-3.91-.7-5.85-1.03Z"/>
      <path class="cls-30" d="M536.67,196.25c-7.43,4.86-17.32,8.02-24.78,11.89-6.25,3.24-14.6,29.21-73.37,20.71-8.71-1.26-17.44-2.99-26.09-4.55,1.53,3.39,3.06,6.71,4.99,9.63,10.46.81,20.78,1.09,30.52,1.13,37.33-3.15,51.24,1.5,61.51-15.56,5.51-9.14,15.3-13.36,25.7-16.32.48-.22.96-.43,1.44-.63.17-2.17.19-4.27.08-6.3Z"/>
      <path class="cls-87" d="M387.56,200.33c12.92-4.7,40.38-6.57,47.51-7.69,8.35-1.32,20.83-5.68,32.55-9.47,5.48-2.38,10.67-4.84,15.5-7.16-.05-.47-.11-.93-.17-1.39-29.71,18.27-91.12,21.77-91.59,21.7-6.51-.94-12.94-11.12-19.18-18.45,3.25,6.03,5.37,12.39,5.91,19.02,1.78,3.13,4.55,5.22,9.46,3.44Z"/>
      <path class="cls-40" d="M435.07,192.63c-7.13,1.13-34.59,3-47.51,7.69-4.92,1.79-7.69-.31-9.46-3.44.09,1.09.14,2.2.14,3.3,3.02.75,5.95,1.56,8.71,2.54,12.86-7.47,31.68-5.86,46.77-8.66,12.17-2.27,23.57-6.42,33.91-10.9-11.72,3.78-24.2,8.15-32.55,9.47Z"/>
      <path class="cls-31" d="M233.95,192.33c-4.51-1.98-7.79-2.73-8.07-2.96-.64-.5-1.29-.99-1.93-1.48-4.82-3.67-9.67-7.22-14.58-10.64-12.41-8.67-25.09-16.58-38.07-23.83-10.86-6.07-21.92-11.68-33.19-16.89-6.55-3.03-13.18-5.93-19.87-8.71-.04,1.65-.04,3.31,0,4.99,2.09-.07,4.17.06,6.22.36,33.33,4.82,83.35,53.84,109.5,59.17Z"/>
      <path class="cls-26" d="M154.27,186.51c2.43.35,4.92.52,7.31.87,12.89,1.86,34.1,26.18,61.8,30.18,12.55,1.81,23.81-.98,33.09-5.9-6.04-10.2-14.93-15.84-21.58-18.91-.32-.15-.64-.29-.95-.43-26.14-5.33-76.16-54.35-109.5-59.17-2.05-.3-4.13-.42-6.22-.36.02.9.05,1.8.1,2.7.18,3.59.56,7.23,1.11,10.9,6.66,20,18.77,37.78,34.84,40.1ZM130.15,139.98c1.06-.35,2.14-.6,3.12-.46,1.74.25,79.5,36.52,76.95,54.14-.42,2.91-4.01,6.07-8.83,5.38-9.5-1.37-18.3-13.94-32.55-16-4.9-.71-9.9-.66-14.79-1.37-15.9-2.3-27.91-25.35-26.5-35.13.32-2.24,1.14-4.44,2.59-6.57Z"/>
      <path class="cls-71" d="M212.62,218.98c-14.2-2.05-27.84-7.2-39.96-16.53-4.8-3.7-29.21-7.86-47.03-31.6,1.97,5.55,4.3,11.04,6.96,16.38,10.45,14.83,29.86,9.19,58.92,27.93,4.1,2.11,7.71,3.82,11.5,4.36.17.02,11.12.44,19.85,1.7,13.6,1.97,27.49,5.86,40.15,11.8-.54-6.47-2.04-11.99-4.14-16.71-15.26,3.52-31.07,4.86-46.25,2.66Z"/>
      <path class="cls-75" d="M132.59,187.23c2.88,5.78,6.14,11.39,9.75,16.73,5.21-.82,11.12-.96,18.04.04,14.64,2.12,23.69,7.32,31.14,11.16-29.07-18.73-48.47-13.1-58.92-27.93Z"/>
      <path class="cls-43" d="M212.62,218.98c15.18,2.2,30.99.86,46.25-2.66-.73-1.64-1.53-3.19-2.39-4.65-9.28,4.92-20.54,7.72-33.09,5.9-27.7-4.01-48.91-28.32-61.8-30.18-2.4-.35-4.88-.52-7.31-.87-16.07-2.32-28.17-20.1-34.84-40.1,1.22,8.11,3.32,16.34,6.19,24.44,17.82,23.74,42.23,27.9,47.03,31.6,12.12,9.33,25.77,14.47,39.96,16.53Z"/>
      <path class="cls-39" d="M154.06,181.68c4.89.71,9.89.66,14.79,1.37,14.25,2.06,23.05,14.62,32.55,16,4.82.7,8.41-2.47,8.83-5.38,2.55-17.63-75.21-53.89-76.95-54.14-.99-.14-2.06.11-3.12.46-1.45,2.13-2.27,4.33-2.59,6.57-1.41,9.78,10.59,32.83,26.5,35.13ZM135.42,144.97c11.33,6.92,27.95,6.51,34.84,19.84.57,1.1.71,2.33.54,3.51-.89,6.12-11.26,9.87-17.64,8.95-8.47-1.23-20.08-17.77-18.4-29.39.14-.96.36-1.93.66-2.91Z"/>
      <path class="cls-60" d="M153.16,177.27c6.37.92,16.75-2.82,17.64-8.95.17-1.19.03-2.42-.54-3.51-6.88-13.33-23.5-12.91-34.84-19.84-.3.98-.52,1.95-.66,2.91-1.68,11.62,9.92,28.16,18.4,29.39Z"/>
      <path class="cls-39" d="M78.23,115.34c8.44,1.22,14.12,4.18,20.39,5.61-5.87-2.85-12.14-4.85-18.5-5.79-.06,0-.12-.02-.17-.03-15.26-2.21-19.63.22-21.74,9.03,3.76-7.08,10.2-10.24,20.03-8.82Z"/>
      <path class="cls-3" d="M139.9,204.41c.8-.16,1.61-.32,2.44-.45-13.99-20.69-22.83-45.54-24.01-68.45-.32-.34-.64-.68-.96-1.02-.97,2.84-1.65,5.68-2.06,8.52-3.11,21.51,8.33,41.22,24.59,61.4Z"/>
      <path class="cls-39" d="M57.34,128.8c-.02.15-.05.3-.07.46-.15,1.06-.26,2.12-.32,3.17,10.67,30.14,32.86,49.02,53.39,61.22-20.83-20.42-47.26-38.93-52.99-64.84Z"/>
      <path class="cls-37" d="M115.31,143.02c.41-2.84,1.09-5.68,2.06-8.52-1.3-1.34-2.66-2.63-4.08-3.86-5.22,5.14-7.74,13.6-8.81,21.04-4.04,27.94,15.55,39.53,31.75,53.64,1.18-.33,2.41-.63,3.67-.89-16.26-20.18-27.7-39.89-24.59-61.4Z"/>
      <path class="cls-14" d="M104.48,151.67c1.08-7.44,3.59-15.9,8.81-21.04-2.08-1.81-4.28-3.49-6.59-5.03-2.21-.71-4.55-1.29-6.88-1.62-11.98-1.73-18.34,4.08-19.54,12.35-4.11,28.41,26.38,43.41,45.85,65.72,2.9,1.39,5.68,2.65,8.29,3.79.59-.19,1.19-.37,1.8-.54-16.2-14.11-35.79-25.7-31.75-53.64Z"/>
      <path class="cls-24" d="M80.28,136.33c1.2-8.27,7.55-14.09,19.54-12.35,2.33.34,4.67.92,6.88,1.62-2.58-1.73-5.28-3.28-8.08-4.64-6.27-1.43-11.95-4.39-20.39-5.61-9.82-1.42-16.26,1.74-20.03,8.82-.33,1.39-.61,2.93-.87,4.64,5.73,25.91,32.17,44.43,52.99,64.84,5.47,3.25,10.82,6.02,15.8,8.41-19.47-22.32-49.96-37.31-45.85-65.72Z"/>
      <path class="cls-24" d="M69.33,190.89c2.1-14.52-22.35-23.11-24.73-47.17-4.67,1.35-9.14,3.93-13.39,7.07-7.67,12.37-19.8,17.36-20.42,21.64-2.13,14.74,10.61,25.89,22.96,35.64,3.89,1.93,8.05,3.65,12.34,5.22.74.27,1.49.54,2.24.8,10.88-3.19,19.07-9.82,21-23.2ZM53.84,208.71c-10.9-1.58-32.22-19.02-29.9-35.02.4-2.74,1.47-5.45,3.39-8.06,1.76-2.38,4.52-2.82,7.27-2.42,14.38,2.08,33.11,19.42,30.89,34.75-.36,2.46-6.15,11.55-11.65,10.76Z"/>
      <path class="cls-39" d="M10.79,172.43c.62-4.29,12.76-9.27,20.42-21.64-5.38,3.98-10.39,8.83-14.93,13.14-2.8,2.65-6.65,1.9-7.27,6.19-2.7,18.67,8.78,30.06,24.74,37.97-12.35-9.75-25.09-20.91-22.96-35.64Z"/>
      <path class="cls-14" d="M54.64,142.95s-.09-.02-.13-.02c-3.38-.49-6.69-.15-9.91.78,2.38,24.07,26.83,32.65,24.73,47.17-1.94,13.39-10.12,20.01-21,23.2,10.55,3.69,21.69,6.53,31.41,9.3,1.27-2.61,2.17-5.45,2.62-8.56,4.4-30.44-30.39-39.38-27.71-71.88Z"/>
      <path class="cls-40" d="M94.8,202.13c-1.58-2.12-3.27-4.27-5.02-6.46,4.37,7.81,8.25,14.13,7.74,17.65-.46,3.19-6.17,3.74-8.97,6.05,1.26-.79,2.89-1.09,5-.78.2.03.97.19,1.68.29,6.16.89,11.34-.41,16.44-2.58-6.49-3.53-12.29-8.03-16.87-14.16Z"/>
      <path class="cls-3" d="M97.52,213.33c.51-3.52-3.37-9.84-7.74-17.65-9.1-11.39-19.85-23.69-26.52-36.85,7,15.39,28.34,35.87,25.92,52.61-.67,4.64-3.15,8.84-6.22,12.89.78.23,1.54.46,2.3.69.56-2.59,1.58-4.56,3.3-5.63,2.8-2.31,8.51-2.86,8.97-6.05Z"/>
      <path class="cls-37" d="M63.26,158.83c-2.5-4.93-4.44-9.99-5.49-15.17-1.05-.32-2.09-.55-3.12-.7-2.68,32.5,32.12,41.44,27.71,71.88-.45,3.11-1.35,5.95-2.62,8.56,1.09.31,2.16.62,3.21.93,3.07-4.05,5.55-8.25,6.22-12.89,2.42-16.73-18.92-37.22-25.92-52.61Z"/>
      <path class="cls-12" d="M34.6,163.21c-2.74-.4-5.51.04-7.27,2.42-1.92,2.6-3,5.31-3.39,8.06-2.32,16.01,19.01,33.45,29.9,35.02,5.5.8,11.29-8.29,11.65-10.76,2.22-15.33-16.51-32.67-30.89-34.75Z"/>
      <path class="cls-71" d="M358.31,186.57c-34.46-4.98-49.55-36.33-98.85-43.46-1.92-.28-3.66-.47-3.66-.47-1.48-.21-2.96-1.3-4.14-2.79-.61,1.77-1.12,3.66-1.54,5.68,2.35,1.47,5.18,2.24,8.2,2.68,4.9.71,10.31.57,15,1.25,20.49,2.96,33.77,13.29,47.47,23.21,3.97,2.61,7.83,5.28,11.54,7.91,8.97,5.63,18.91,10.28,31.63,12.12,4.57.66,9.17.85,13.66.43-.38-2.2-.93-4.38-1.63-6.52-5.34.82-11.26.89-17.68-.04Z"/>
      <path class="cls-69" d="M332.43,139.49c-7.84-4.89-15.71-8.96-22.73-12.08-8.86-3.94-16.37-6.36-20.76-7-2.44-.35-4.76-.55-6.99-.61,28.27,5.35,62.53,27.7,84.14,48.75-8.75-11.38-21.16-21.26-33.67-29.06Z"/>
      <path class="cls-75" d="M332.33,180.58c3.58,2.55,7.03,5.06,10.29,7.45,9.79,7.18,23.41,9.14,35.62,12.17,0-2.39-.22-4.75-.62-7.07-4.49.42-9.1.23-13.66-.43-12.72-1.84-22.66-6.49-31.63-12.12Z"/>
      <path class="cls-75" d="M258.32,148.21c-3.03-.44-5.85-1.2-8.2-2.68-.26,1.25-.5,2.54-.69,3.88-.16,1.12-.32,2.27-.46,3.4,6.36-2.17,14.08-3.1,22.77-1.84,16.45,2.38,33.6,11.56,49.06,21.7-13.7-9.91-26.97-20.24-47.47-23.21-4.69-.68-10.1-.54-15-1.25Z"/>
      <path class="cls-39" d="M311.7,155.31c10.56,12.18,26.33,23.43,42.17,25.72,6.4.93,13.12.32,18.91-2.06-1.85-3.6-4.1-7.08-6.68-10.43-21.62-21.05-55.87-43.4-84.14-48.75-6.7-.18-12.43.98-17.15,3.5-.65,1.17-1.12,2.42-1.3,3.72-2.75,19,38.7,17.35,48.19,28.29ZM288.65,123.41c2.64.38,5.26,1.29,7.56,2.56.65.36,1.36.54,2.08.64,1.02.15,2.09.15,3.14.3,3.92.57,35.38,16.87,33.98,26.55-.56,3.84-3.73,6.68-9.74,5.81-4.57-.66-9.73-3.21-13.33-5.66-11.63-7.92-39.78-10.21-38.01-22.44.07-.5.09-1,.16-1.48.36-2.51,5.56-7.53,14.16-6.29Z"/>
      <path class="cls-82" d="M259.46,143.12c49.3,7.13,64.39,38.47,98.85,43.46,6.43.93,12.34.86,17.68.04-.86-2.6-1.94-5.15-3.22-7.64-5.79,2.38-12.51,2.98-18.91,2.06-15.84-2.29-31.61-13.54-42.17-25.72-9.49-10.94-50.94-9.28-48.19-28.29.19-1.3.65-2.55,1.3-3.72-6.08,3.25-10.48,8.75-13.15,16.55,1.18,1.5,2.65,2.58,4.14,2.79,0,0,1.74.19,3.66.47Z"/>
      <path class="cls-60" d="M312.34,153.61c3.6,2.45,8.76,5,13.33,5.66,6.01.87,9.18-1.97,9.74-5.81,1.4-9.68-30.06-25.98-33.98-26.55-1.04-.15-2.11-.15-3.14-.3-.73-.11-1.43-.28-2.08-.64-2.3-1.27-4.92-2.17-7.56-2.56-8.6-1.24-13.8,3.78-14.16,6.29-.07.47-.09.98-.16,1.48-1.77,12.23,26.38,14.52,38.01,22.44ZM296.21,128.48c2.25.33,4.42.94,6.35,1.79,1.78.78,3.56,1.67,5.18,2.74,3.83,2.53,9.76,6.82,9.06,11.66-.64,4.43-4.27,4.82-12.23,3.67-18.62-2.69-23.8-14.6-23.52-16.58.18-1.27,6.91-4.47,15.15-3.28Z"/>
      <path class="cls-31" d="M304.58,148.35c7.96,1.15,11.59.76,12.23-3.67.7-4.84-5.23-9.13-9.06-11.66-1.62-1.07-3.41-1.96-5.18-2.74-1.93-.85-4.1-1.46-6.35-1.79-8.24-1.19-14.96,2.01-15.15,3.28-.29,1.98,4.9,13.89,23.52,16.58Z"/>
      <path class="cls-39" d="M548.69,167.39c15.67,2.27,21.6-4.48,23.54-17.86,3.39-23.47-6.53-32.39-12.23-62.58-1.17-1.5-2.04-2.31-2.44-2.37-.77-.11-1.62.1-2.16.41-.24,2.42-.52,4.83-.87,7.21-2.73,18.9-9.36,36.42-28.5,45.65-10.41,5.02-23.98,15.33-29.35,19.54-.63,1.13-1.23,2.35-1.79,3.69,5.75-1.88,13.13-2.44,20.02-1.44,11.36,1.64,23.02,6.19,33.79,7.74ZM509.61,152.39c0-.06.03-.11.07-.16,9.49-12.87,26.56-17.82,42.17-16.28.22.02.44.05.65.08,9.37,1.36,14.4,11.4,13.41,18.26-1.24,8.61-13.86,10.74-22.74,9.46-3.62-.52-34.07-7.86-33.56-11.37Z"/>
      <path class="cls-82" d="M548.62,178.39c9.32,1.35,22-5.26,30.34-19.12.88-22.53-3.88-41.17-9.17-54.2-3.55-8.76-7.34-14.98-9.8-18.13,5.69,30.2,15.62,39.12,12.23,62.58-1.94,13.38-7.87,20.12-23.54,17.86-10.76-1.56-22.43-6.1-33.79-7.74-6.89-1-14.27-.43-20.02,1.44-.33.77-.64,1.58-.94,2.43,3.8-1.09,8.88-1.76,14.58-.94,16.06,2.32,26.65,13.87,40.1,15.81Z"/>
      <path class="cls-42" d="M526.02,137.86c19.14-9.23,25.77-26.75,28.5-45.65.35-2.39.63-4.8.87-7.21-.28.16-.48.35-.53.53-3.6,14.51-7.78,24.96-12.25,32.68-15.91,27.5-35.49,20.46-45.95,39.2,5.38-4.22,18.94-14.52,29.35-19.54Z"/>
      <path class="cls-30" d="M577.64,173.8c.72-5,1.14-9.84,1.32-14.52-8.34,13.85-21.02,20.46-30.34,19.12-13.45-1.95-24.04-13.49-40.1-15.81-5.7-.82-10.78-.15-14.58.94-.87,2.46-1.64,5.24-2.29,8.41,9.67-4.54,17.5-7.67,22.98-6.87,4.49.65,9.13,3.34,13,7.68,8.39,5.35,14.48,14.35,25.79,15.99,10.52,1.52,18.1-5.2,24.22-14.94Z"/>
      <path class="cls-15" d="M577.64,173.8c-6.12,9.74-13.7,16.46-24.22,14.94-11.32-1.64-17.41-10.64-25.79-15.99,2.23,2.5,4.2,5.54,5.74,9.06,3.64,3.72,7.8,13.05,14.47,14.01,2.12.31,18.91-2.1,27.45-9.58.95-4.02,1.74-8.1,2.34-12.22.01-.07.02-.15.03-.22Z"/>
      <path class="cls-87" d="M547.83,195.81c-6.66-.96-10.83-10.29-14.47-14.01,2.51,5.76,3.85,12.79,3.23,20.75,11.17-4.81,23.63-7.41,36.33-7.66.88-2.84,1.66-5.73,2.36-8.66-8.54,7.47-25.33,9.88-27.45,9.58Z"/>
      <path class="cls-60" d="M565.91,154.3c.99-6.86-4.04-16.91-13.41-18.26-.22-.03-.43-.06-.65-.08-15.62-1.54-32.68,3.41-42.17,16.28-.04.05-.06.1-.07.16-.51,3.51,29.94,10.84,33.56,11.37,8.88,1.28,21.5-.85,22.74-9.46ZM521.74,149.7c.02-.14.05-.28.08-.42.28-1.15.67-2.3,1.63-3.07,6.91-5.53,16.65-9.69,25.92-8.35,4.09.59,8.3,2.89,7.91,5.65-1.44,9.98-14.87,15.95-23.68,14.68-4.56-.66-12.5-4.06-11.86-8.49Z"/>
      <path class="cls-31" d="M557.28,143.51c.4-2.76-3.82-5.06-7.91-5.65-9.28-1.34-19.01,2.82-25.92,8.35-.96.77-1.35,1.92-1.63,3.07-.03.14-.06.28-.08.42-.64,4.43,7.3,7.83,11.86,8.49,8.81,1.27,22.24-4.7,23.68-14.68Z"/>
      <path class="cls-37" d="M604.04,166.87c.23.03.46.05.69.08,10.79-13.79,22.01-25.44,23.34-34.61,1-6.88.37-15.19-3.1-22.26-5.55-6.96-13.6-12.04-23.28-13.44-14.72-2.13-21.78,4.46-27.32,4.95-.52.34-1.02.69-1.53,1.06,13.91,19.29,5.99,60.59,31.2,64.23ZM582.43,106.64c1.85-1.85,3.87-2.85,6.15-4.13,4.48-2.52,10.65-2.39,15.71-1.66,14.01,2.03,21.05,8.85,17.79,31.35-1.35,9.35-9.58,22.42-18.52,21.13-17.62-2.55-18.89-34.25-21.13-46.69Z"/>
      <path class="cls-39" d="M623.84,107.97c-3.83-6.41-10.31-11.47-20.52-12.95-9.93-1.44-20.5.99-28.96,6.56,5.54-.49,12.6-7.08,27.32-4.95,9.68,1.4,17.74,6.49,23.28,13.44-.35-.71-.72-1.42-1.13-2.1Z"/>
      <path class="cls-29" d="M578.51,184.87s.81-3.78,1.4-7.9c2.19-15.13,1.38-30.16-2.54-44.57,1.95,12.11,2.49,26.13.25,41.61-1.03,7.13-2.6,14.13-4.7,20.88,4.26-.08,8.55.09,12.82.55.56.06,1.11.09,1.67.11.42-1.13.88-2.25,1.37-3.36-.92.08-1.84.06-2.75-.07-4.21-.61-8.13-3.01-7.52-7.25Z"/>
      <path class="cls-87" d="M604.04,166.87c-25.21-3.65-17.3-44.94-31.2-64.23-.65.47-1.29.96-1.91,1.47,17.08,39.18,12.05,73.87,21.59,80.63,3.54-6.27,7.84-12.21,12.21-17.79-.23-.02-.46-.04-.69-.08Z"/>
      <path class="cls-3" d="M570.93,104.11c-.38.32-.76.63-1.13.96,3,7.4,5.84,16.61,7.56,27.32,3.93,14.41,4.73,29.44,2.54,44.57-.59,4.11-1.4,7.9-1.4,7.9-.61,4.24,3.32,6.64,7.52,7.25.91.13,1.83.16,2.75.07,1.11-2.53,2.37-5.02,3.75-7.45-9.54-6.75-4.51-41.45-21.59-80.63Z"/>
      <path class="cls-14" d="M622.08,132.19c3.25-22.5-3.79-29.32-17.79-31.35-5.06-.73-11.23-.86-15.71,1.66-2.28,1.28-4.3,2.29-6.15,4.13,2.24,12.44,3.51,44.14,21.13,46.69,8.94,1.29,17.16-11.78,18.52-21.13ZM593.88,110.3c.33-2.26,1.17-4.41,2.69-6.38,3.43-1.14,7.38-1.62,11.08-1.08,8.21,1.19,13.55,4.74,10.61,25.12-1,6.9-5.48,9.38-9.83,8.75-5.02-.73-16.09-15.77-14.55-26.42Z"/>
      <path class="cls-24" d="M618.26,127.97c2.95-20.39-2.4-23.94-10.61-25.12-3.71-.54-7.66-.05-11.08,1.08-1.52,1.96-2.36,4.12-2.69,6.38-1.54,10.64,9.53,25.69,14.55,26.42,4.35.63,8.83-1.86,9.83-8.75Z"/>
      <path class="cls-20" d="M634.73,168.94c.29-1.52.54-3.04.76-4.57.17-1.14.31-2.28.44-3.43-4.98,12.79-15.94,11.58-23.91,16.18-8.32,4.8-14.79,15.18-24.1,17.13-.17.43-.34.87-.5,1.3,5.01.13,9.93-1.53,14.57-3.9,15.13-19.46,26.37-16.73,32.75-22.71Z"/>
      <path class="cls-15" d="M601.98,191.65c1.56-.8,3.09-1.68,4.58-2.6,8.5-10.08,21.41-14.82,24.25-14.41.87.13,1.71.47,2.48.96.54-2.21,1.03-4.43,1.45-6.65-6.38,5.98-17.62,3.25-32.75,22.71Z"/>
      <path class="cls-39" d="M627.89,114.36c-.88-1.58-1.83-3.14-2.85-4.67-.39-.58-.78-1.15-1.19-1.72.11.19.21.39.32.58,4.18,7.38,4.97,16.4,3.91,23.79-1.91,13.19-24.27,31.5-36.4,53.95,6.92-8.03,4.47-8.44,9.55-14.14,12.05-13.52,25.34-23.13,27.96-41.24,1.17-8.09.29-13-1.3-16.54Z"/>
      <path class="cls-67" d="M606.55,189.05c9.25-5.74,16.98-13.09,21.41-12.45,1.97.28,2.99,2.63,3.47,5.69.67-2.21,1.29-4.45,1.84-6.69-.77-.49-1.6-.83-2.48-.96-2.84-.41-15.75,4.33-24.25,14.41Z"/>
      <path class="cls-30" d="M612.01,177.12c7.97-4.6,18.94-3.38,23.91-16.18,1.15-10.25.76-20.49-1.65-30.21,1.7,11.62,1.7,14.07,1.05,18.61-2.76,19.09-12.35,16.78-21.87,20.58-10.86,4.34-11.28,19.12-23.85,20.46-.6,1.28-1.16,2.56-1.68,3.86,9.3-1.95,15.78-12.33,24.1-17.13Z"/>
      <path class="cls-82" d="M613.45,169.93c9.52-3.81,19.11-1.49,21.87-20.58.66-4.54.65-6.99-1.05-18.61-1.41-5.67-3.5-11.16-6.39-16.38,1.58,3.54,2.47,8.45,1.3,16.54-2.62,18.1-15.91,27.72-27.96,41.24-5.08,5.7-2.63,6.11-9.55,14.14-.73,1.35-1.43,2.72-2.07,4.1,12.58-1.34,12.99-16.11,23.85-20.46ZM616.3,158.45c9.57-9.47,10.69-20.71,14.62-20.14,1.4.2,4.58,5.2,3.62,11.85-.69,4.77-5.63,16.33-13.81,15.14-3.05-.44-4.88-3.8-4.47-6.58.01-.09.03-.18.05-.27Z"/>
      <path class="cls-39" d="M620.73,165.3c8.18,1.18,13.12-10.37,13.81-15.14.96-6.65-2.22-11.65-3.62-11.85-3.93-.57-5.05,10.67-14.62,20.14-.02.09-.03.18-.05.27-.4,2.78,1.43,6.14,4.47,6.58Z"/>
      <path class="cls-60" d="M484.85,102.31c1.29.19,2.77-.53,3.78-1.31,10.43-7.99,20.59-6.63,28.64-6.16-1.52-.66-3.08-1.21-4.66-1.62-1.07-.28-2.14-.51-3.23-.67-8.48-1.23-13.59,1.47-17.85,4-3.35,1.99-6.18,3.88-9.7,3.69-.27-.01-.55-.04-.83-.08-.01,0-.87-.15-1.55-.24-5.39-.78-11.01-.73-16.44.13-6.1.96-11.96,2.95-17.02,5.91,11.2-4.59,23.59-5.93,35.76-4.17,1.63.24,3.1.51,3.1.51Z"/>
      <path class="cls-20" d="M534.87,108.27c-2.36-2.62-4.87-5.05-7.52-7.19-1.1-.89-2.22-1.72-3.36-2.5-11.12,12.45-26.07,39.11-58.16,34.47-13.6-1.97-25.28-6.29-31.85-15.57-1.21,2.01-2.18,4.19-2.88,6.52,18.71,5.5,27.67,16.63,43.11,18.86,27.06,3.91,50.15-16.34,60.65-34.6Z"/>
      <path class="cls-85" d="M465.84,133.05c32.09,4.64,47.04-22.03,58.16-34.47-2.17-1.48-4.41-2.74-6.72-3.74-8.06-.46-18.22-1.83-28.64,6.16-1.01.77-2.49,1.49-3.78,1.31,0,0-1.47-.28-3.1-.51-12.17-1.76-24.56-.42-35.76,4.17-.76.44-1.49.91-2.21,1.39-3.07,2.08-5.77,4.56-7.96,7.43-.66.86-1.27,1.77-1.84,2.7,6.57,9.28,18.26,13.6,31.85,15.57ZM446.62,113.69c13.12-11.76,33.31-9.19,49.58-8.42,1.18.96,2.41,1.9,3.21,3.37.58,1.06,1.12,3.69.72,6.45-1.81,12.48-18.46,18.87-35.36,16.42-15.84-2.29-19.89-10.48-19.12-15.77.11-.78.4-1.55.97-2.06Z"/>
      <path class="cls-77" d="M507.28,143.57c-18.08,10.29-17.74,25.29-24.89,24.25-.27-.04-.54-.1-.81-.17.73,2.66,1.26,5.43,1.55,8.36,2.98-1.43,5.82-2.81,8.52-4.07,7.61-37.4,31.93-20.81,50.97-53.73-.23-.34-.46-.67-.69-1.01-9.28,10.87-22.55,19.48-34.65,26.36Z"/>
      <path class="cls-87" d="M507.28,143.57c12.1-6.88,25.37-15.5,34.65-26.36-.36-.51-.72-1.02-1.08-1.52-9.29,14.78-27.99,16.2-49.68,37.23-2.2,2.14-4.93,2.63-7.64,2.24-3.33-.48-7.07-2.63-11.24-5.18,4.25,5.09,7.44,10.97,9.29,17.69.27.07.54.13.81.17,7.15,1.03,6.81-13.96,24.89-24.25Z"/>
      <path class="cls-15" d="M491.16,152.9c21.69-21.03,40.39-22.45,49.68-37.23-1.86-2.56-3.85-5.06-5.97-7.41-10.51,18.26-33.6,38.51-60.65,34.6-15.44-2.23-24.4-13.37-43.11-18.86-.24.8-.46,1.62-.63,2.46,16.82,4.2,32.06,11.79,41.82,23.5,4.17,2.55,7.91,4.7,11.24,5.18,2.7.39,5.43-.1,7.64-2.24Z"/>
      <path class="cls-82" d="M462.19,128.56c12.04,1.74,23.56-6.22,24.24-10.92.6-4.17-4.03-8.94-14.18-10.41-1.13-.16-2.26-.3-3.38-.43-10.19.63-19.22,7.8-19.73,11.31-.41,2.83,4.35,9.19,13.05,10.45Z"/>
      <path class="cls-30" d="M499.42,108.64c-.8-1.47-2.03-2.41-3.21-3.37-16.28-.77-36.46-3.34-49.58,8.42-.56.5-.85,1.28-.97,2.06-.77,5.29,3.28,13.48,19.12,15.77,16.89,2.44,33.55-3.94,35.36-16.42.4-2.77-.14-5.4-.72-6.45ZM462.19,128.56c-8.7-1.26-13.46-7.62-13.05-10.45.51-3.5,9.53-10.68,19.73-11.31,1.12.13,2.25.27,3.38.43,10.16,1.47,14.79,6.24,14.18,10.41-.68,4.7-12.2,12.66-24.24,10.92Z"/>
      <path class="cls-45" d="M622.42,222.48c1.15-2.2,2.23-4.41,3.2-6.65-28.08,27.97-52.09,24.45-71.44,69.7-10.77,25.18-75.82,59.65-97.15,59.81-.94.8-1.87,1.59-2.8,2.39,50.83-11.52,101.14-36.65,116.65-84.93.16-.51.33-1.03.48-1.55-.36.57-.71,1.16-1.06,1.76.35-.61.7-1.19,1.06-1.76.18-.59.36-1.19.53-1.79.57-.5,1.16-1.01,1.74-1.51,14.17-18.71,36.56-17.03,48.8-35.48Z"/>
      <path class="cls-31" d="M573.62,257.96c11.22-9.6,24.51-18.44,38.13-20.56.58-.09,1.17-.17,1.75-.24,3.28-4.81,6.3-9.69,8.91-14.68-12.24,18.45-34.62,16.77-48.8,35.48Z"/>
      <path class="cls-31" d="M628.56,208.04c1.15-3.58,2.03-7.21,2.56-10.91.39-2.68,1.11-9.74.32-14.84-.45-2.87-1.38-5.12-3.14-5.61,3.39,7.01,2.58,18.04,1.74,23.82-.39,2.72-.89,5.22-1.48,7.54Z"/>
      <path class="cls-14" d="M554.18,285.53c19.36-45.25,43.36-41.73,71.44-69.7,1.12-2.57,2.1-5.17,2.94-7.8.59-2.32,1.09-4.82,1.48-7.54.84-5.79,1.65-16.81-1.74-23.82-.11-.03-.22-.06-.33-.07-6.55-.95-20.29,15.54-35.49,18.51-55.67,36.89-17.17,56.95-46.59,93.45-17.92,22.23-49.47,43.23-79.6,48.81-3.05,2.7-6.17,5.34-9.27,7.98,21.33-.16,86.38-34.62,97.15-59.81Z"/>
      <path class="cls-39" d="M120.4,58.27c-1.04-3.23-1.42-6.6-.89-10.22.45-3.1,1.43-5.34,2.93-6.92-2.8,1.11-4.89,3.17-5.39,6.64-.69,4.74.16,9.21,2.02,13.53,6.11,14.16,23.16,26.58,32.98,40.9-9.27-17.89-27.03-29.5-31.66-43.94Z"/>
      <path class="cls-14" d="M120.4,58.27c2.41-2.6,5.93-3.12,9.64-2.58,19.95,2.89,34.74,24.04,32.5,39.53-.76,5.28-3.3,9.6-6.69,13.32.57,1.09,1.11,2.18,1.6,3.25,5.98-3.25,10.42-8.72,11.58-16.75,2.68-18.54-12.92-34.32-24.13-49.67-3.87-3.27-5.36-4.06-11.62-4.96-3.72-.54-7.72-.49-10.84.74-1.5,1.57-2.48,3.81-2.93,6.92-.52,3.61-.14,6.99.89,10.22Z"/>
      <path class="cls-24" d="M155.85,108.54c3.38-3.72,5.92-8.03,6.69-13.32,2.24-15.49-12.55-36.65-32.5-39.53-3.71-.54-7.23-.02-9.64,2.58,4.63,14.44,22.39,26.05,31.66,43.94.69,1,1.34,2.01,1.95,3.03.66,1.11,1.27,2.21,1.84,3.29Z"/>
      <path class="cls-37" d="M178.94,109.87c1.89-13.04-1.38-27.53-3.61-41.49-19.16-12.9-26.21-19.44-30.43-23.01,11.21,15.35,26.81,31.13,24.13,49.67-1.16,8.04-5.61,13.5-11.58,16.75,2.56,5.57,4.11,10.87,5.43,16.04.45.1.91.18,1.36.25,9.86,1.43,13.27-8.27,14.71-18.21Z"/>
      <path class="cls-13" d="M189.21,142.42s-5.63-23.51-5.88-63.15c-.09-1.56-.17-3.12-.22-4.69-2.26-2.16-4.67-4.12-7.18-5.81-.2-.14-.4-.27-.59-.4,2.23,13.96,5.5,28.45,3.61,41.49-1.44,9.94-4.85,19.63-14.71,18.21-.45-.07-.91-.15-1.36-.25.99,3.86,1.84,7.65,2.88,11.4,5.18,3.05,10.18,6.76,15.59,7.54,5.71.83,7.37-.97,7.86-4.34Z"/>
      <path class="cls-3" d="M197.39,143.41c-5.21-15.65-9.72-31.48-12.23-47.5-.87-5.52-1.49-11.07-1.83-16.64.25,39.64,5.88,63.15,5.88,63.15-.49,3.37-2.15,5.17-7.86,4.34-5.41-.78-10.41-4.49-15.59-7.54.89,3.22,1.93,6.42,3.31,9.62,6.77,4.3,13.14,9.49,20.85,10.61,5.03.73,7.12.23,7.84-4.76.26-1.79.22-5.75-.37-11.28Z"/>
      <path class="cls-81" d="M209.36,177.26c-4.03-11.19-8.19-22.47-11.98-33.85.59,5.53.63,9.49.37,11.28-.72,4.99-2.82,5.49-7.84,4.76-7.71-1.12-14.08-6.31-20.85-10.61.66,1.53,1.39,3.05,2.22,4.58,12.98,7.25,25.67,15.16,38.07,23.83Z"/>
      <path class="cls-37" d="M194.16,51.35c19.73,2.85,22.56-31.13,53.46-34.16,10.01-.98,20.89-4.13,28.25-10.46-4.67-3.41-9.71-5.85-15.07-6.63-.1-.01-.21-.02-.32-.04-26.47,3.67-50.41,13.56-72.11,27.86-3.35,3.14-5.52,6.37-5.99,9.56-.22,1.49-.13,3.11.2,4.83,2.64,4.63,6.4,8.27,11.58,9.02ZM232.58,11.11c.17-.03.33-.04.48-.01,1.41.2,1.85,2.59,1.65,3.99-.38,2.61-2.71,4.78-5.14,5.89-18.77,8.56-25.62,27.93-33.57,26.78-4.67-.68-8.37-5.61-7.88-8.99,2.55-17.65,27.61-24.46,44.47-27.66Z"/>
      <path class="cls-43" d="M188.36,27.93C210.07,13.63,234,3.73,260.47.07c-10.64-1.14-55.64,12.39-72.11,27.86Z"/>
      <path class="cls-62" d="M287.08,30.35c1.49-2.45,3.57-4.33,5.92-5.74-.62-.84-1.26-1.67-1.91-2.5-5.43,1.62-11.54,2.18-17.67,2.29,4.2,1.31,9.04,3.29,13.66,5.95Z"/>
      <path class="cls-37" d="M241.88,23.55c12-3.69,30.22-2.45,43.09-8.63-2.86-3.05-5.89-5.85-9.1-8.2-7.36,6.32-18.24,9.48-28.25,10.46-30.9,3.03-33.73,37.02-53.46,34.16-5.18-.75-8.95-4.39-11.58-9.02.39,2.04,1.11,4.23,2.09,6.55,1.91,4.55,4.78,9.61,7.94,15.04,11.92-4.04,23.84-32.54,49.27-40.37Z"/>
      <path class="cls-62" d="M196.49,70.59c3.46,5.99,6.94,12.32,9.7,18.81.18-3.6.5-7.14,1-10.6,2.07-14.31,7.31-25.54,14.02-34.08,8.59-10.93,19.59-17.46,29.45-20.4-31.3,4.07-39.36,43.61-54.17,46.27Z"/>
      <path class="cls-13" d="M241.88,23.55c-25.44,7.82-37.36,36.32-49.27,40.37,1.26,2.17,2.57,4.4,3.88,6.67,14.81-2.66,22.87-42.21,54.17-46.27,5.88-1.75,11.36-2.23,15.68-1.61,1.94.28,4.38.84,7.08,1.69,6.13-.1,12.24-.67,17.67-2.29-1.94-2.47-3.98-4.9-6.12-7.19-12.87,6.18-31.09,4.94-43.09,8.63Z"/>
      <path class="cls-14" d="M195.99,47.76c7.95,1.15,14.8-18.22,33.57-26.78,2.44-1.11,4.76-3.28,5.14-5.89.2-1.4-.24-3.79-1.65-3.99-.15-.02-.31-.02-.48.01-16.86,3.2-41.91,10.01-44.47,27.66-.49,3.38,3.21,8.32,7.88,8.99Z"/>
      <path class="cls-32" d="M241.53,139.63c-.54,3.73-2.87,7.96-6.44,9.4.87,3.2,1.72,6.49,2.52,9.92,1.74-1.42,3.76-2.73,6.02-3.89.25-10.56,1.04-21.22,2.57-31.76,1.87-12.91,7.88-37.5,16.79-55.74-10.69,15.84-17.03,35.37-19.82,54.68-1.22,8.43-1.65,17.4-1.65,17.4Z"/>
      <path class="cls-79" d="M228.07,125.97c2.34,7.1,4.75,14.71,7.02,23.06,3.56-1.43,5.9-5.67,6.44-9.4,0,0,.43-8.97,1.65-17.4,2.79-19.3,9.13-38.83,19.82-54.68,3.57-7.31,7.61-13.6,12.04-17.71-29.44,20.59-28.33,72.45-46.96,76.13Z"/>
      <path class="cls-43" d="M248.89,24.88c-9.4,3.17-19.62,9.56-27.7,19.84-2.34,5.12-4.16,10.78-4.95,16.26-.81,5.62-.96,10.99-.62,16.27,2.53-17.32,6.61-39.94,33.27-52.37Z"/>
      <path class="cls-70" d="M272.05,45.14c6.84-3.39,10.97-9.22,13.09-15.86-7.02-3.72-14.26-5.91-18.8-6.57s-10.9-.04-17.44,2.17c-26.65,12.43-30.73,35.05-33.27,52.37.54,8.29,2.32,16.37,4.76,24.83,1.02.38,2.11.67,3.28.83,19.26,2.79,11.22-39.36,48.38-57.77ZM220.17,69.7c2.79-19.28,12.9-39.98,32.86-41.1.51-.03,1.03,0,1.54.07,4.89.71,8.29,4.81,7.21,12.27-1.76,12.16-15.51,18.85-21.88,29.1-4.12,6.63-5.73,19.93-14.15,18.71-8.02-1.16-6.61-11.96-5.58-19.06Z"/>
      <path class="cls-63" d="M285.11,44.58c-.43-2.85-.55-5.61-.18-8.17.34-2.33,1.09-4.33,2.14-6.05-.64-.37-1.29-.73-1.95-1.07-2.11,6.64-6.25,12.47-13.09,15.86-37.16,18.42-29.12,60.56-48.38,57.77-1.17-.17-2.26-.46-3.28-.83,2.17,7.52,4.87,15.35,7.68,23.89,18.63-3.68,17.53-55.54,46.96-76.13,2.93-2.72,6.03-4.49,9.27-4.96.28-.04.55-.08.83-.1-.01-.07-.02-.14-.03-.2Z"/>
      <path class="cls-38" d="M239.91,70.05c6.37-10.25,20.12-16.95,21.88-29.1,1.08-7.46-2.32-11.57-7.21-12.27-.51-.07-1.02-.1-1.54-.07-19.97,1.12-30.08,21.82-32.86,41.1-1.03,7.1-2.44,17.9,5.58,19.06,8.42,1.22,10.03-12.08,14.15-18.71ZM246.6,32.03c.43-.17.9-.22,1.3-.28,1.28-.17,2.54-.15,3.78.03,6.64.96,9.09,4.92,8.43,9.42-1.09,7.54-20.66,23.33-24.93,22.71-4.85-.7-6.19-5.21-5.49-10.05,1.36-9.42,8.15-18.35,16.91-21.84Z"/>
      <path class="cls-37" d="M235.17,63.92c4.27.62,23.84-15.17,24.93-22.71.65-4.5-1.79-8.46-8.43-9.42-1.23-.18-2.5-.2-3.78-.03-.39.05-.87.1-1.3.28-8.76,3.48-15.55,12.42-16.91,21.84-.7,4.84.64,9.35,5.49,10.05Z"/>
      <path class="cls-14" d="M108,83.36c-.86-.12-1.46-.18-1.91-.18-6.55,6.29-15.28,12.64-16.63,21.96-.6,4.12,2.45,5.31,7.96,6.11,8.28,1.2,15.06-2.4,16.45-12.03.75-5.2-.65-15.1-5.87-15.86Z"/>
      <path class="cls-30" d="M110.82,77.21c-11.71,4.15-26.12,20.31-30.08,35.17.56-.71.99-1.54,1.37-2.27,6.85-13,15.88-26.24,28.7-32.9Z"/>
      <path class="cls-7" d="M121.65,125.61c2.93.42,7.25-.03,7.67-2.94.02-.16-2.45-9.52-3.78-19.52-2.13-7.69-3.77-15.45-4.88-23.19-.02.1-.03.2-.05.3-2.13,14.74,3.34,22.95,2.09,31.63-.5,3.47-2.22,6.16-6.31,7.16-.32.08-10.92.8-18.46,1.58,2.43,1.15,4.79,2.44,7.07,3.87,1.64-.7,4.34-1.19,8.57-.58,3.43.5,5.41,1.3,8.08,1.69Z"/>
      <path class="cls-37" d="M115.63,79.55c.17-1.16.43-2.28.8-3.36-1.75-.04-3.64.32-5.61,1.01-12.83,6.67-21.86,19.9-28.7,32.9-.38.73-.82,1.56-1.37,2.27-.21.8-.39,1.59-.54,2.38,10.86-2.81,33.65,3.8,36.02-12.55.87-6.03-1.65-15.3-.59-22.65ZM97.42,111.25c-5.51-.8-8.56-1.99-7.96-6.11,1.35-9.32,10.08-15.67,16.63-21.96.45,0,1.06.05,1.91.18,5.22.76,6.62,10.66,5.87,15.86-1.39,9.63-8.17,13.22-16.45,12.03Z"/>
      <path class="cls-3" d="M132.4,129.3s-1.62-5.26-2.49-12.4c-1.62-4.54-3.09-9.13-4.37-13.75,1.33,10,3.8,19.36,3.78,19.52-.42,2.91-4.74,3.36-7.67,2.94-2.68-.39-4.66-1.19-8.08-1.69-4.23-.61-6.92-.12-8.57.58,4.93,3.1,9.45,6.81,13.33,11.01-.13-2.59-.17-5.16-.1-7.69,3.75,1.55,7.47,3.15,11.17,4.79,1.58-.61,2.77-1.69,3-3.31Z"/>
      <path class="cls-54" d="M129.92,116.9c.87,7.13,2.49,12.39,2.49,12.4-.23,1.62-1.42,2.7-3,3.31,2.91,1.29,5.81,2.59,8.7,3.93-3.06-6.38-5.8-12.95-8.18-19.63Z"/>
      <path class="cls-13" d="M122.71,111.89c1.26-8.68-4.22-16.89-2.09-31.63.01-.1.03-.2.05-.3-.15-1.02-.29-2.04-.42-3.06-.87-.27-1.73-.48-2.58-.6-.41-.06-.83-.09-1.25-.1-.37,1.08-.63,2.2-.8,3.36-1.06,7.36,1.46,16.62.59,22.65-2.36,16.35-25.16,9.74-36.02,12.55-.03.14-.05.27-.08.41,6.12.9,12.15,2.79,17.81,5.47,7.55-.78,18.15-1.5,18.46-1.58,4.09-1,5.81-3.69,6.31-7.16Z"/>
      <path class="cls-47" d="M256.86,93.14c1.3-8.99,5.56-19.28,7.52-28.31-5.73,10.92-10.35,24.65-13.58,36.85-.06,9.14,2.36,17.26,11.48,18.58,6.74.98,11.43-3.98,21.92-2.46,7.28,1.05,14.23,4.04,21.09,5.03,1.79.26,3.48.3,5.06.17.65-5.15.92-9.87.92-14.19-9.95,6.51-21.5,9.79-33.01,8.12-19.46-2.81-23.09-11.98-21.39-23.79Z"/>
      <path class="cls-72" d="M284.19,117.79c-10.49-1.52-15.18,3.44-21.92,2.46-9.12-1.32-11.54-9.45-11.48-18.58-1.77,6.69-3.12,12.91-4,17.96.61,4.09,1.9,7.59,3.67,7.85,2.22.32,12.39-6.69,23.06-7.12,4.54-.8,9.69-.79,15.43.04,4.39.63,11.9,3.06,20.76,7,.12-.73.23-1.47.34-2.2.11-.75.21-1.48.3-2.21-1.58.13-3.26.09-5.06-.17-6.86-.99-13.81-3.98-21.09-5.03Z"/>
      <path class="cls-64" d="M246.79,119.63c-.23,1.3-.42,2.53-.59,3.66-1.52,10.54-2.32,21.2-2.57,31.76,1.65-.84,3.43-1.6,5.33-2.25.14-1.13.3-2.28.46-3.4,2.47-17.07,10.63-26.67,24.09-29.05-10.66.43-20.84,7.44-23.06,7.12-1.77-.26-3.05-3.75-3.67-7.85Z"/>
      <path class="cls-31" d="M306.83,64.16c1.75-12.08-6.99-17.56-19.02-19.3-.9-.13-1.79-.15-2.67-.08-.89.07-1.77.24-2.64.5,2.53.09,5.16.24,7.67.6,21.69,3.14,11.75,20.04,13.53,29.4,2.92,15.41,5.05,22.58,7.33,26.76-.72-10.65-2.98-18.38-4.41-23.81-.84-3.21-1.39-5.62-1.14-7.34.32-2.2,1.03-4.47,1.35-6.73Z"/>
      <path class="cls-82" d="M290.17,45.88c-2.52-.36-5.14-.51-7.67-.6-.3.09-.6.19-.9.3-7.98,9.94-14.48,22-16.29,34.49-2.92,20.17,4.53,26.15,17.68,28.05,9.5,1.37,18.98-.81,28.17-3.88-.03-.75-.08-1.49-.12-2.21-2.27-4.17-4.4-11.34-7.33-26.76-1.78-9.36,8.16-26.26-13.53-29.4ZM290.99,102.51c-13-1.88-21.93-9.44-19.82-23.99,2.53-17.51,15.11-27.53,15.63-27.45.19.03.45.16.68.19.07.01.14.01.2,0,1.67-.37,3.32-.43,4.87-.2,5.56.8,9.83,5.2,9.14,11.43-1.29,11.62.52,23.85-.44,30.47-.92,6.35-3.88,10.48-10.26,9.56Z"/>
      <path class="cls-49" d="M282.98,108.13c-13.15-1.9-20.6-7.88-17.68-28.05,1.81-12.49,8.31-24.55,16.29-34.49-6.44,2.4-12.24,9.76-17.22,19.24-1.95,9.03-6.22,19.32-7.52,28.31-1.71,11.81,1.93,20.97,21.39,23.79,11.51,1.66,23.06-1.61,33.01-8.12,0-1.57-.04-3.09-.1-4.55-9.19,3.07-18.67,5.25-28.17,3.88Z"/>
      <path class="cls-39" d="M292.55,51.06c-1.55-.22-3.2-.17-4.87.2-.06.01-.13.01-.2,0-.23-.03-.49-.17-.68-.19-.52-.07-13.09,9.94-15.63,27.45-2.1,14.54,6.82,22.11,19.82,23.99,6.38.92,9.34-3.2,10.26-9.56.96-6.62-.85-18.84.44-30.47.69-6.23-3.59-10.62-9.14-11.43Z"/>
      <path class="cls-82" d="M516.84,51.13c-8.47-17.98-22.98-34.3-46.93-37.76-3.95-.57-7.93-.66-11.84-.33,2.23.12,4.44.33,6.63.65,16.59,2.4,35.53,8.76,52.14,37.44Z"/>
      <path class="cls-14" d="M501.84,60.18c8.82,9.48,16.24,22.9,22.88,23.86.66.1,1.22.08,1.72-.07-1.39-9.79-4.32-21.64-9.6-32.84-16.61-28.68-35.55-35.04-52.14-37.44-2.19-.32-4.4-.53-6.63-.65-5.15.43-10.17,1.59-14.79,3.37-.24.82-.42,1.65-.55,2.5-3.67,25.37,34.71,15.06,59.11,41.28ZM465.45,16.04c14.41,2.08,28.12,10.18,35.91,21.87-.05.35-.08.69-.13,1.03-.52,3.6-7.18,5.59-11.66,4.94-5.32-.77-43.2-10.36-41.39-22.86.89-6.13,7.48-6.4,17.27-4.98Z"/>
      <path class="cls-13" d="M527.45,95.6c-9.13-3.56-11.77-15.44-17.37-22.93-28.56-38.22-72.21-21.62-79.66-48.82-.77.64-1.51,1.31-2.21,2,10.26,29.42,56.46,16.21,78.64,47.22,7.23,10.11,5.36,15.23,8.68,21.07,4.17,1.54,8.12,3.95,11.82,6.94.12-1.52.16-3.37.1-5.47Z"/>
      <path class="cls-37" d="M510.08,72.67c5.6,7.49,8.24,19.37,17.37,22.93-.08-3.31-.4-7.26-1.02-11.63-.5.15-1.06.16-1.72.07-6.63-.96-14.05-14.38-22.88-23.86-24.4-26.21-62.78-15.9-59.11-41.28.12-.85.31-1.68.55-2.5-1.95.75-3.82,1.61-5.61,2.56-2.64,1.42-5.07,3.05-7.25,4.88,7.45,27.2,51.1,10.6,79.66,48.82Z"/>
      <path class="cls-3" d="M428.21,25.85c-2.18,2.15-4.03,4.51-5.44,7.06,8.37,1.47,15.65,5.45,21.26,11.26,8.77,3.77,24.77,10.81,26.45,11.05,3.09.45,6.63-.04,9.59.39,1.29.19,2.48.54,3.6,1.04.42.1.85.21,1.26.33,14.31,4.13,23.8,20.81,27.69,36.25.98.26,1.95.57,2.92.92-3.32-5.84-1.44-10.96-8.68-21.07-22.18-31-68.38-17.79-78.64-47.22Z"/>
      <path class="cls-62" d="M470.48,55.21c-1.69-.24-17.68-7.28-26.45-11.05,1.43,1.48,2.76,3.08,3.97,4.79.98.06,1.93.16,2.86.29,7.05,1.02,12.82,4.02,17.38,8.36,4.84-1.58,9.3-1.95,13.38-1.36.69.1,1.37.23,2.04.39-1.11-.49-2.31-.85-3.6-1.04-2.96-.43-6.5.06-9.59-.39Z"/>
      <path class="cls-24" d="M489.57,43.88c4.48.65,11.14-1.34,11.66-4.94.05-.34.08-.69.13-1.03-7.79-11.69-21.5-19.79-35.91-21.87-9.79-1.42-16.39-1.15-17.27,4.98-1.81,12.51,36.07,22.09,41.39,22.86Z"/>
      <path class="cls-14" d="M413.23,8.5c-.32-.05-.63-.07-.97-.12-.15-.02-.3-.02-.45-.01-2.53-.65-5.32-1.42-8.1-1.82-8.46-1.22-12.62,2.5-12.93,4.64-.42,2.88,7.49,12.21,20.52,14.09,7.62,1.1,14.57-3.14,14.86-5.17.79-5.45-10.72-11.28-12.93-11.6Z"/>
      <path class="cls-82" d="M431.13,13.3c-7.52-5.52-16.32-8.93-25.52-10.27-9.34-1.35-17.91-.45-25.22,1.44,6.18-.64,15.78-1.27,23.73-.12,11.25,1.63,18.66,5.49,27.01,8.95Z"/>
      <path class="cls-37" d="M408.92,27.8c9.87,1.43,19.39-3.84,26.21-11.25-1.29-1.16-2.62-2.24-4.01-3.26-8.34-3.46-15.76-7.32-27.01-8.95-7.95-1.15-17.55-.51-23.73.12-3.38.87-6.49,1.96-9.29,3.12,7.17,10.14,34.68,19.75,37.82,20.21ZM403.71,6.54c2.77.4,5.56,1.17,8.1,1.82.15-.01.3,0,.45.01.35.05.66.08.97.12,2.2.32,13.72,6.15,12.93,11.6-.29,2.03-7.24,6.28-14.86,5.17-13.03-1.88-20.93-11.21-20.52-14.09.31-2.13,4.47-5.86,12.93-4.64Z"/>
      <path class="cls-62" d="M406.74,30.73c-5.13-.74-10.13-2.93-14.41-6.38-13.39-10.8-14.43-6.63-28.12-13.39-1.23.7-2.35,1.38-3.33,2.04,1.22.11,2.43.25,3.64.42,15.42,2.23,29.3,10.62,40.19,21.37,5.32-2.23,11.45-2.88,16.87-2.09.4.06.8.14,1.2.21,3.16-5.68,8.44-10.46,14.9-13.93-.15-.15-.31-.3-.46-.45-9.14,5.58-16.58,14.22-30.47,12.21Z"/>
      <path class="cls-13" d="M406.74,30.73c13.89,2.01,21.33-6.63,30.47-12.21-.68-.68-1.37-1.33-2.08-1.96-6.82,7.4-16.35,12.67-26.21,11.25-3.14-.45-30.65-10.07-37.82-20.21-2.59,1.08-4.9,2.24-6.9,3.36,13.69,6.76,14.73,2.59,28.12,13.39,4.29,3.46,9.28,5.64,14.41,6.38Z"/>
      <path class="cls-13" d="M456,73.7c-.1-2.64-.4-5.19-.88-7.66-6.91-22.28-21.6-28.73-29.37-32.49-.98-.25-1.97-.48-2.99-.65-.4-.07-.8-.15-1.2-.21-1.13-.16-2.28-.26-3.46-.3-.02.1-.03.19-.04.27-3.57,24.7,24.58,38.07,37.93,41.04ZM423.54,35.06c.16-.04.32-.04.48-.01,11.69,1.69,28.12,16.49,26.04,30.84-.12.84-1.29,1.81-3.3,1.52-7.99-1.16-27.39-13.66-25.32-27.95.24-1.66.86-3.2,2.1-4.39Z"/>
      <path class="cls-40" d="M428.21,64.35c-4.97-3.8-5.74-12.22-16.9-22.3,2.73,3.33,5.2,6.78,7.36,10.27,2.87,3.5,5.11,7.59,6.56,12.37,11.27,4.9,21.06,13.22,29.03,22.95-8.35-14.68-23.86-21.62-26.04-23.29Z"/>
      <path class="cls-50" d="M455.13,66.04c-1.24-6.4-3.69-12.19-7.13-17.09-5.34-7.6-13.05-13.05-22.24-15.4,7.77,3.76,22.46,10.21,29.37,32.49Z"/>
      <path class="cls-3" d="M418.07,32.67c.01-.08.03-.17.04-.27-1.83-.06-3.7.04-5.56.29,2.44,23.43,30.08,40.57,43.34,46.83.14-1.97.18-3.92.11-5.82-13.35-2.97-41.5-16.34-37.93-41.04Z"/>
      <path class="cls-2" d="M412.55,32.69c-2.69.37-5.36,1.06-7.85,2.1,2.35,2.32,4.55,4.76,6.61,7.26,11.16,10.08,11.93,18.5,16.9,22.3,2.18,1.67,17.69,8.61,26.04,23.29.12.15.25.3.37.45.34-1.46.62-2.93.83-4.41s.34-2.79.44-4.17c-13.26-6.27-40.89-23.4-43.34-46.83Z"/>
      <path class="cls-37" d="M446.77,67.41c2.01.29,3.18-.68,3.3-1.52,2.08-14.35-14.35-29.15-26.04-30.84-.16-.02-.33-.03-.48.01-1.24,1.2-1.86,2.74-2.1,4.39-2.07,14.29,17.33,26.8,25.32,27.95Z"/>
      <path class="cls-82" d="M459.32,60.58c-.32.64-.53,1.35-.64,2.07-.38,2.6,1.02,6.28.15,12.29-.43,2.94-1.02,3.99-1.25,5.53-.44,3.02,1.13,4.03,3.58,4.38,6.15.89,9.33-6.78,9.73-9.56.99-6.82-5.29-12.87-11.58-14.71Z"/>
      <path class="cls-60" d="M449.22,49.06c-.41-.04-.81-.08-1.23-.1,6.38,9.07,9.38,21.17,7.48,34.57.58-1.81,1.02-3.66,1.29-5.55,1.65-11.41-3.28-19.59-7.55-28.92Z"/>
      <path class="cls-30" d="M459.44,51.7c-2.62-1.17-5.47-2-8.58-2.45-.54-.08-1.08-.14-1.64-.19,4.27,9.33,9.2,17.51,7.55,28.92-.27,1.89-.71,3.75-1.29,5.55,0,.05-.01.11-.02.16-.21,1.48-.49,2.95-.83,4.41.7.87,1.39,1.75,2.06,2.64,7.72-1.56,15.54-5.87,16.72-14,1.34-9.23-7.07-14.11-13.96-25.05ZM461.17,84.86c-2.45-.35-4.02-1.36-3.58-4.38.22-1.54.82-2.59,1.25-5.53.87-6-.52-9.69-.15-12.29.1-.73.32-1.43.64-2.07,6.28,1.84,12.56,7.89,11.58,14.71-.4,2.79-3.58,10.45-9.73,9.56Z"/>
      <path class="cls-33" d="M481.06,84.36c-.04.42-.09.85-.15,1.27-2.59,17.92-11.34,9.73-18.05,14.17.05.08.1.16.15.24,5.43-.86,11.05-.91,16.44-.13.68.1,1.53.24,1.55.24.28.04.56.07.83.08.33-5.3.08-10.69-.77-15.88Z"/>
      <path class="cls-87" d="M480.91,85.63c.06-.42.11-.85.15-1.27-1.45-8.87-4.66-17.17-9.83-23.51,3.74,9.9,9.19,16.71,8.33,22.66-1.07,7.41-9.9,13.08-17.57,14.92.29.46.58.91.87,1.37,6.71-4.44,15.46,3.75,18.05-14.17Z"/>
      <path class="cls-20" d="M476.66,79.96c1.12-7.71-4.34-15.75-8.77-22.67-2.47-2.28-5.28-4.18-8.45-5.59,6.9,10.94,15.3,15.82,13.96,25.05-1.17,8.12-8.99,12.43-16.72,14,1.45,1.92,2.84,3.88,4.15,5.88,10.6-4.58,15.06-11.38,15.82-16.66Z"/>
      <path class="cls-15" d="M479.56,83.51c.86-5.95-4.59-12.76-8.33-22.66-.94-1.15-1.93-2.23-2.99-3.24-.12-.11-.23-.21-.35-.32,4.43,6.93,9.89,14.96,8.77,22.67-.76,5.28-5.22,12.08-15.82,16.66.39.6.78,1.21,1.16,1.81,7.67-1.84,16.49-7.51,17.57-14.92Z"/>
      <path class="cls-39" d="M230.03,162.55c1.33.19,2.87-.11,4.55-.74.89-.98,1.9-1.94,3.03-2.86-2.43-10.29-5.18-19.47-7.9-27.92-9.91-24.16-20.23-40.15-16.77-64.1.78-5.41,2.16-10.77,3.96-16.01-4.62,7.57-8.13,16.8-9.73,27.89-.5,3.46-.82,7-1,10.6-.13,2.74-.17,5.51-.14,8.31,2.09,20.9,3.67,61.9,24,64.84Z"/>
      <path class="cls-60" d="M229.72,131.03c-8.63-26.83-16.92-46.25-13.47-70.05.79-5.48,2.61-11.14,4.95-16.26-1.51,1.92-2.94,3.99-4.28,6.19-1.8,5.24-3.18,10.6-3.96,16.01-3.46,23.95,6.86,39.94,16.77,64.1Z"/>
      <path class="cls-43" d="M222.21,172.79c-2.46-.36-4.29-5.87-6.2-12.52,2.58,9.79,5.35,19.13,7.93,27.63.64.49,1.29.98,1.93,1.48.31.24,4.03,1.09,9.02,3.38-2.73-7.94-5.75-15.73-4.77-22.47.23-1.57.83-3.21,1.78-4.85-3.38,3.21-5.96,7.9-9.7,7.36Z"/>
      <path class="cls-82" d="M222.21,172.79c3.73.54,6.31-4.15,9.7-7.36.71-1.22,1.6-2.44,2.68-3.63-1.68.64-3.22.94-4.55.74-20.32-2.94-21.9-43.94-24-64.84.23,20.51,4.68,42.48,9.97,62.56,1.91,6.64,3.73,12.16,6.2,12.52Z"/>
      <path class="cls-56" d="M202.65,81.85c-6.23-12.3-14.09-23.71-17.98-32.97-.08.54-.17,1.07-.25,1.61-.13.91-.25,1.81-.36,2.72,5.66,4.02,8.76,16.21,18.59,28.64Z"/>
      <path class="cls-73" d="M157.46,111.83c-.99-2.15-2.13-4.35-3.46-6.58-9.32-15.63-28.39-28.79-34.93-43.94.03,1.19.08,2.39.14,3.59,6.12,13.51,26.55,25.2,38.25,46.93Z"/>
      <path class="cls-39" d="M152.25,125.37c4.12.6,7.25-.32,9.21-2.72-1.04-3.51-2.3-7.11-4-10.82-11.7-21.73-32.13-33.42-38.25-46.93.16,3.3.44,6.63.81,9.96,5.54,20.95,17.61,48.4,32.23,50.51Z"/>
      <path class="cls-82" d="M156.65,139.91c3.14.45,6.05-.35,8.83-1.73-1.36-5.07-2.44-10.21-4.01-15.53-1.96,2.4-5.09,3.31-9.21,2.72-14.61-2.11-26.68-29.56-32.23-50.51.08.68.14,1.36.23,2.04.88,7.07,2.23,14.17,3.98,21.23,5.12,16.27,13.02,38.98,32.41,41.78Z"/>
      <path class="cls-75" d="M161.8,145.8c-5.8-.84-10.5-5.05-24.92-11.86.4.87.8,1.74,1.22,2.6,11.27,5.21,22.33,10.82,33.19,16.89-1.64-3.01-2.89-6-3.93-9-1.34,1.42-3.4,1.69-5.57,1.37Z"/>
      <path class="cls-9" d="M167.36,144.42c-.71-2.07-1.33-4.15-1.89-6.24-2.78,1.38-5.69,2.18-8.83,1.73-19.39-2.81-27.29-25.51-32.41-41.78,3.04,12.22,7.32,24.3,12.65,35.8,14.41,6.82,19.11,11.02,24.92,11.86,2.16.31,4.22.05,5.57-1.37Z"/>
      <path class="cls-55" d="M131.73,204.65c-2.53-1.14-5.2-2.38-7.96-3.75-4.33.79-8.72,1.03-13.05.4-25.07-3.63-37.84-26.69-49.46-46.75,5.97,13.89,17.01,26.84,26.68,38.83,6.16,6.16,13.07,10.96,22.51,12.32,7.16,1.04,14.81.29,21.29-1.05Z"/>
      <path class="cls-82" d="M110.71,201.31c4.34.63,8.72.38,13.05-.4-3.46-1.71-7.08-3.6-10.76-5.7-28.54-7.13-45.54-39.52-55.75-54.5.14.99.3,1.98.5,2.96.75,3.7,1.96,7.33,3.49,10.9,11.62,20.06,24.39,43.12,49.46,46.75Z"/>
      <path class="cls-51" d="M113.01,195.2c-21.25-12.13-44.93-31.32-56.06-62.78-.18,2.79-.06,5.55.31,8.27,10.21,14.98,27.21,47.37,55.75,54.5Z"/>
      <path class="cls-75" d="M104.93,212.06c2.14,1.56,4.39,2.96,6.73,4.24,6.99-2.98,13.81-7.6,22.76-10.45-.21-.09-.43-.19-.64-.28-10.05,3.09-19.22,7.95-27.32,6.78-.51-.07-1.02-.17-1.52-.28Z"/>
      <path class="cls-9" d="M110.45,205.7c-9.43-1.36-16.35-6.16-22.51-12.32,2.4,2.98,4.72,5.89,6.86,8.75,2.93,3.92,6.35,7.17,10.14,9.93.5.11,1.01.2,1.52.28,8.11,1.17,17.27-3.68,27.32-6.78-.67-.3-1.35-.6-2.05-.91-6.48,1.35-14.13,2.09-21.29,1.05Z"/>
      <path class="cls-9" d="M67.99,233.99c-3.78-.55-7.05-2.49-9.92-5.06,1.06,1.34,2.13,2.67,3.21,3.98,2.7,1.89,5.66,3.31,8.82,3.76,4.49.65,9.48-1.34,14.95-3.9-.17-1.14-.27-2.29-.27-3.44-5.92,3.01-12.26,5.3-16.78,4.65Z"/>
      <path class="cls-75" d="M61.28,232.91c1.87,2.27,3.79,4.49,5.77,6.62,6.51-.96,12.77-1.9,19-2.49-.45-1.41-.79-2.84-1.01-4.27-5.47,2.56-10.45,4.55-14.95,3.9-3.15-.46-6.11-1.87-8.82-3.76Z"/>
      <path class="cls-88" d="M78.29,224.96c2.4.35,4.71.43,6.91.28.02-.08.03-.15.05-.23-11.51-3.51-25.93-6.88-39.16-11.71,1.09,1.4,2.18,2.82,3.27,4.25,1.48-.25,3-.32,4.52-.1,4.28.62,14.59,6.09,24.42,7.51Z"/>
      <path class="cls-55" d="M84.78,229.34c0-.94.06-1.88.2-2.81.06-.45.14-.87.23-1.29-2.21.15-4.51.07-6.91-.28-9.83-1.42-20.14-6.89-24.42-7.51-1.52-.22-3.04-.16-4.52.1,2.87,3.77,5.75,7.61,8.72,11.38,2.87,2.57,6.14,4.51,9.92,5.06,4.52.65,10.86-1.63,16.78-4.65Z"/>
      <path class="cls-55" d="M212.19,152.6c-3.11-14.84-6.51-32.5-6.4-46.08-1.58,1.51-3.57,2.36-5.91,2.03-4.38-.63-12.92-10.03-16.36-26.47.16,2.01.35,4.01.57,6.01,6.82,37.34,19.73,59.03,28.1,64.51Z"/>
      <path class="cls-18" d="M212.19,152.6c.75.49,1.47.86,2.13,1.1-3.85-15.52-7-31.93-7.98-47.75-.18.2-.36.39-.56.58-.11,13.58,3.29,31.24,6.4,46.08Z"/>
      <path class="cls-82" d="M199.88,108.54c2.34.34,4.33-.52,5.91-2.03.02-2.07.12-4.04.31-5.89-.12-3.79-.1-7.54.08-11.22-1.08-2.55-2.27-5.07-3.53-7.56-9.83-12.44-12.94-24.62-18.59-28.64-.88,7.16-1.16,14.29-.95,21.38.08,2.5.22,5,.41,7.49,3.44,16.44,11.98,25.84,16.36,26.47Z"/>
      <path class="cls-44" d="M206.34,105.94c-.11-1.78-.19-3.55-.24-5.31-.19,1.85-.29,3.82-.31,5.89.19-.18.38-.37.56-.58Z"/>
      <path class="cls-45" d="M214.67,164.35c-1.33,1.1-2.9,1.59-4.39,1.37-2.25-.33-9.48-14.97-15.47-30.27,4.43,14.08,9.59,28.01,14.55,41.8,2.48,1.73,4.94,3.49,7.39,5.28.11-.55.21-1.11.29-1.66.37-2.53-.74-8.6-2.38-16.52Z"/>
      <path class="cls-1" d="M216.5,162.15c-.52.9-1.14,1.63-1.84,2.21,1.64,7.93,2.75,13.99,2.38,16.52-.08.56-.18,1.11-.29,1.66,2.41,1.76,4.8,3.54,7.19,5.36-2.42-7.95-5-16.64-7.44-25.75Z"/>
      <path class="cls-68" d="M214.67,164.35c.69-.57,1.32-1.31,1.84-2.21-.74-2.78-1.47-5.61-2.18-8.46-.67-.23-1.38-.6-2.13-1.1.88,4.2,1.73,8.17,2.48,11.76Z"/>
      <path class="cls-9" d="M210.28,165.72c1.49.21,3.06-.27,4.39-1.37-.74-3.59-1.6-7.56-2.48-11.76-8.37-5.48-21.28-27.17-28.1-64.51.53,4.71,1.26,9.4,2.14,14.08,2.11,11.19,5.12,22.29,8.58,33.29,5.99,15.3,13.22,29.94,15.47,30.27Z"/>
      <path class="cls-37" d="M492.52,93.19c.1-.37.2-.73.29-1.1-5-3.47-6.23-11.17-7.98-16.95-2.27-7.48-11.63-10.78-12.27-18.64-1.41.26-2.84.62-4.32,1.1,2.27,2.16,4.25,4.64,5.93,7.38,9.28,3.53,9.41,25.74,18.35,28.2Z"/>
      <path class="cls-23" d="M494.23,81.55c.21-9.32-2.53-18.22-9.31-24.59-1.07-.31-2.18-.55-3.3-.72-.13-.02-.27-.03-.41-.05,8.17,3.46,12.01,14.91,13.02,25.35Z"/>
      <path class="cls-14" d="M484.83,75.14c1.75,5.78,2.98,13.48,7.98,16.95.39-1.61.71-3.22.95-4.84.28-1.91.44-3.81.48-5.7-1.01-10.44-4.85-21.89-13.02-25.35-2.72-.35-5.6-.27-8.65.3.64,7.86,10.01,11.15,12.27,18.64Z"/>
      <path class="cls-40" d="M481.22,85.32c.73,4.89.92,9.94.61,14.92,3.52.19,6.35-1.7,9.7-3.69.05-.14.09-.29.13-.43-1.08.61-2.24,1.02-4.02.76-5.26-.76-5.6-7.47-6.43-11.55Z"/>
      <path class="cls-87" d="M474.17,64.99c1.33,2.16,2.48,4.47,3.46,6.89,7.85,10.12,3.87,21.55,11.52,22.66,1.18.17,2.17.14,3,0,.13-.45.25-.89.37-1.34-8.94-2.46-9.07-24.67-18.35-28.2Z"/>
      <path class="cls-3" d="M477.63,71.88c1.7,4.2,2.89,8.75,3.58,13.44.83,4.08,1.17,10.79,6.43,11.55,1.77.26,2.93-.15,4.02-.76.17-.53.34-1.05.49-1.58-.84.14-1.82.18-3,0-7.65-1.11-3.67-12.54-11.52-22.66Z"/>
      <path class="cls-39" d="M490.16,59.13c-.68-.37-1.38-.71-2.09-1.02,2.23,4.96,8.61,14.02,6.4,29.32,0,0-.93,4.67-1.68,8.38,1.07-.61,2.21-1.2,3.44-1.73,1.74-2.22,3.78-5.64,4.41-9.97,1.71-11.85-7.29-18.12-10.49-24.98Z"/>
      <path class="cls-42" d="M488.07,58.11c-1.02-.45-2.07-.84-3.15-1.15,8.16,7.65,10.47,18.99,8.83,30.29-.45,3.13-1.21,6.25-2.23,9.3.41-.25.84-.49,1.27-.74.74-3.71,1.68-8.38,1.68-8.38,2.21-15.3-4.17-24.36-6.4-29.32Z"/>
      <path class="cls-82" d="M506.99,84.22c1.02-7.06-9.83-17.84-12.36-22.1-1.42-1.13-2.91-2.14-4.47-2.99,3.2,6.86,12.2,13.13,10.49,24.98-.63,4.34-2.68,7.76-4.41,9.97,1.3-.55,2.72-1.03,4.29-1.36.18-.28.37-.56.58-.83,1.94-2.55,5.44-4.62,5.88-7.68Z"/>
      <path class="cls-87" d="M512.61,93.21c-1.16-4.61-2.83-9.33-4.97-13.79,1.18,4.55,2.81,8.29,2.46,10.71-.15,1.01-.63,1.86-1.69,2.31.32.04.63.07.96.11,1.09.16,2.17.39,3.23.67Z"/>
      <path class="cls-15" d="M510.11,90.12c.35-2.41-1.28-6.16-2.46-10.71-1.88-3.93-4.14-7.67-6.75-10.95,3.44,7.75,8.21,10.79,7.08,18.58-.35,2.39-1.97,3.88-3.79,5.23,1.31-.06,2.72-.01,4.24.16,1.05-.45,1.54-1.3,1.69-2.31Z"/>
      <path class="cls-30" d="M507.98,87.05c1.13-7.79-3.64-10.83-7.08-18.58-1.9-2.39-3.99-4.54-6.26-6.35,2.53,4.27,13.38,15.05,12.36,22.1-.44,3.06-3.95,5.13-5.88,7.68-.21.27-.4.55-.58.83,1.13-.24,2.35-.4,3.66-.46,1.82-1.34,3.44-2.84,3.79-5.23Z"/>
      <path class="cls-48" d="M435.59,104.96c6.53-.94,16.57-2.54,17.49-8.94,1.13-7.82-5.43-9.29-9.62-19.57-1.83-1.6-3.73-3.11-5.69-4.53,7.82,14.63,8.84,16.78,7.99,22.66-.79,5.46-5.08,8.88-10.18,10.38Z"/>
      <path class="cls-60" d="M426.85,65.44c-.54-.25-1.08-.51-1.63-.75.25.82.48,1.67.68,2.54,2.44,6.92,3.42,13.47,2.63,18.9-.5,3.47-1.14,5.78-1.84,7.5.86.89,1.67,1.79,2.44,2.72-.45-5.63,2.26-14.16-2-28.82-.2-.69-.28-1.38-.28-2.08Z"/>
      <path class="cls-82" d="M441.82,92.82c1.55-10.71-10.64-16.28-13.02-26.43-.64-.33-1.29-.65-1.94-.95,0,.7.08,1.4.28,2.08,4.26,14.66,1.55,23.19,2,28.82,1.74,2.09,3.23,4.25,4.38,6.46,4.15-2.38,7.68-5.65,8.31-9.98Z"/>
      <path class="cls-30" d="M437.78,71.92c-2.87-2.07-5.86-3.93-8.98-5.52,2.38,10.15,14.57,15.72,13.02,26.43-.63,4.34-4.15,7.61-8.31,9.98.4.76.75,1.53,1.06,2.3.02.04.03.08.05.12.33-.08.65-.17.97-.26,5.1-1.5,9.39-4.93,10.18-10.38.85-5.88-.17-8.03-7.99-22.66Z"/>
      <path class="cls-86" d="M454.62,88.1c-.57-.7-1.15-1.39-1.73-2.08.27.45.55.9.84,1.34.39.59,5.35,8.46,5.06,10.49-.34,2.35-2.2,3.28-4.13,4.22,2.69-.89,5.49-1.57,8.35-2.02-2.5-4.11-5.3-8.14-8.39-11.95Z"/>
      <path class="cls-87" d="M458.79,97.85c.29-2.02-4.68-9.9-5.06-10.49-.29-.44-.57-.89-.84-1.34-1.32-1.55-2.7-3.06-4.11-4.52,6.93,12.82,7.32,11.95,6.93,14.69s-4.45,6.28-7.51,8.56c2.06-1.05,4.23-1.94,6.47-2.68,1.93-.94,3.79-1.87,4.13-4.22Z"/>
      <path class="cls-15" d="M448.78,81.5c-1.71-1.76-3.48-3.45-5.32-5.05,4.19,10.28,10.75,11.75,9.62,19.57-.93,6.4-10.96,8.01-17.49,8.94-.32.09-.64.18-.97.26.03.09.07.17.1.26,2.83.52,5.94,1.15,9.05,1.87,1.4-.95,2.88-1.82,4.42-2.6,3.06-2.28,7.09-5.7,7.51-8.56s0-1.87-6.93-14.69Z"/>
      <path class="cls-82" d="M417.28,103.61c4.04.58,8.08,1.37,12.1,1.95,2.24.32,4.51.39,6.75.19-.47-.09-.95-.18-1.41-.27-4.51-.83-8.3-1.4-10.17-1.67-14.93-2.16-30.21-2.29-42.53,2.98,24.08-4.92,27.41-4.31,35.26-3.18Z"/>
      <path class="cls-58" d="M437.79,106.07c-.56-.11-1.11-.22-1.65-.32-2.24.2-4.52.13-6.75-.19-4.02-.58-8.06-1.37-12.1-1.95-7.84-1.13-11.18-1.74-35.26,3.18-1.94.83-3.8,1.8-5.57,2.91,4,3.01,8.72,4.69,13.72,5.41,18.21,2.63,32.04-6.25,47.61-9.03Z"/>
      <path class="cls-35" d="M425.04,120.96c-8.71,2.73-28.45-1.76-39.74,1.01.6.22,1.21.39,1.92.49,0,0,14.93-.76,30.07,1.43,4.46.64,8.87,1.5,13.19,2.58.92-4.42,2.78-8.32,5.35-11.68,2.19-2.87,4.89-5.35,7.96-7.43-.55-.13-1.1-.25-1.65-.37-7.41,4.93-11.56,12.26-17.08,13.98Z"/>
      <path class="cls-27" d="M442.12,106.98c-1.05-.23-2.1-.46-3.14-.67-6.7,9.61-18.61,15.21-30.49,13.5-.1-.01-1.1-.17-1.87-.28-8.99-1.3-27.28-2.13-27.5-2.17-3.02-.44-5.52-2-7.96-3.7-1.33,1.2-2.59,2.51-3.77,3.95,1.76.1,3.43.27,4.97.49,8.03,1.16,10.37,2.94,12.92,3.86,11.29-2.76,31.03,1.72,39.74-1.01,5.52-1.73,9.67-9.05,17.08-13.98Z"/>
      <path class="cls-22" d="M406.63,119.52c.77.11,1.77.27,1.87.28,11.87,1.72,23.79-3.89,30.49-13.5-.4-.08-.8-.16-1.2-.24-15.57,2.78-29.4,11.67-47.61,9.03-5-.72-9.73-2.4-13.72-5.41-1.86,1.16-3.62,2.47-5.28,3.97,2.44,1.7,4.94,3.26,7.96,3.7.21.03,18.51.87,27.5,2.17Z"/>
      <path class="cls-85" d="M347.51,108.42c-3.1-5.2-5.68-10.93-5.05-18.61-.03-1.38.05-2.86.28-4.43,1.28-8.88,5.82-18.78,7.03-27.1.98-6.75-2.67-10.91-8.04-12.94-4.03-.11-7.63.86-10.9,2.62-3.66,6.46-6.3,13.82-7.36,21.2-3.65,25.2,9,34.65,24.04,39.26Z"/>
      <path class="cls-31" d="M349.77,58.28c-1.2,8.33-5.74,18.22-7.03,27.1-.23,1.57-.31,3.04-.28,4.43.05-.61.11-1.22.2-1.85.22-1.5.54-3.01.92-4.49,2.5-9.64,7.95-18.54,8.49-22.32.77-5.3-2.79-14.87-7.63-15.57-.93-.13-1.83-.21-2.72-.24,5.37,2.03,9.01,6.19,8.04,12.94Z"/>
      <path class="cls-20" d="M336.26,115.62c3.22.47,8.89-.34,14.67-1.73-1.12-1.8-2.3-3.6-3.42-5.47-15.05-4.61-27.69-14.06-24.04-39.26,1.07-7.38,3.71-14.74,7.36-21.2-6.87,3.69-12.27,10.82-17.1,18.47-3.93,31.85,9.98,47.38,22.52,49.19Z"/>
      <path class="cls-87" d="M328.24,121.37c-11.07-1.6-16.93-31.56-19.27-47.08-.79,1.34-1.58,2.66-2.35,3.95.06.24.13.49.2.75,9.33,20.11,3.35,45.49,17.66,47.56,7.55,1.09,16.53-8.24,28.33-9.47-.32-.57-.65-1.14-.98-1.7-11.29,1.26-23.41,6.03-23.59,6Z"/>
      <path class="cls-40" d="M306.82,78.98c2.35,8.85,6.51,23.47,3.22,46.22-.11.74-.22,1.47-.34,2.2,7.02,3.12,14.89,7.2,22.73,12.08-.03-1.09.03-2.17.19-3.23,1.58-10.91,10.85-15.98,20.92-17.85-.23-.45-.47-.9-.72-1.34-11.81,1.23-20.79,10.56-28.33,9.47-14.31-2.07-8.33-27.46-17.66-47.56Z"/>
      <path class="cls-15" d="M328.24,121.37c.18.03,12.29-4.74,23.59-6-.3-.49-.6-.98-.9-1.48-5.78,1.38-11.45,2.19-14.67,1.73-12.54-1.81-26.45-17.34-22.52-49.19-1.64,2.6-3.21,5.26-4.76,7.86,2.34,15.52,8.2,45.48,19.27,47.08Z"/>
      <path class="cls-87" d="M404.7,34.79c-10.89-10.75-24.77-19.14-40.19-21.37-1.21-.17-2.42-.31-3.64-.42-5.29-.48-10.63-.33-15.85.42,4.55-.02,9.45.22,14.37.93,15.81,2.29,37.2,10.23,45.68,27.34,5.32,2.73,9.97,6.21,13.6,10.63-3.77-6.12-8.49-12.12-13.97-17.53Z"/>
      <path class="cls-20" d="M359.38,14.35c-4.92-.71-9.82-.96-14.37-.93-6.44.93-12.71,2.81-18.5,5.65,4.03,2.18,8.48,3.45,13.06,4.11,9.33,1.35,16.86-.26,29.97,1.64,14.64,2.12,23.67,7.54,28.5,13.82.07.02.13.05.2.07,2.37.88,4.65,1.87,6.81,2.99-8.48-17.11-29.88-25.05-45.68-27.34Z"/>
      <path class="cls-30" d="M339.57,23.17c-4.58-.66-9.03-1.93-13.06-4.11-1.69.83-3.33,1.73-4.93,2.72,4.44,5.82,10.72,8.38,17.69,9.39.97.14,1.94.24,2.92.33,2.59.04,5.62.11,8.9.22,8.25-.22,16.25-1.24,23.01-.27,3.93.57,8.3,1.92,12.54,3.9,3.96.87,7.79,1.95,11.41,3.28-4.84-6.29-13.86-11.7-28.5-13.82-13.12-1.9-20.65-.29-29.97-1.64Z"/>
      <path class="cls-31" d="M351.09,31.72c8.52.28,18.62.85,26.47,1.99,3.08.45,6.12.99,9.08,1.65-4.24-1.98-8.62-3.33-12.54-3.9-6.76-.98-14.76.05-23.01.27Z"/>
      <path class="cls-31" d="M321.58,21.79c-1.11.69-2.21,1.4-3.28,2.17,5.79,2.87,10.9,6.82,15.53,7.49,0,0,3.32-.02,8.35.06-.98-.09-1.95-.19-2.92-.33-6.97-1.01-13.25-3.57-17.69-9.39Z"/>
      <path class="cls-38" d="M418.67,52.32c-.79-.96-1.63-1.87-2.51-2.74-9.59-6.55-24.78-12.78-38.64-14.78-16.02-2.32-35.04-.01-35.1-.02-.49-.07-33.03-9.8-38.63-13.66-2.2.25-4.57.77-6.88,1.64-.51,1.33-.91,2.76-1.11,4.18-1.15,7.98,4.31,11.76,12.39,12.93,10.52,1.52,17.71-2.94,26.03-1.74,5.5.8,8.29,3.83,11.14,7.7,2.4.91,4.4,3.94,5.6,7.3,5.16,5.78,13.3,11.59,30.96,14.14,14.4,2.08,29.81-1.94,39.17-10.74-.76-1.4-1.57-2.8-2.43-4.2ZM389.4,64.01c-14.8-2.14-33.06-7.56-30.92-22.37.2-1.37.69-2.61,1.58-3.5,4.8-2.68,10.85-2.41,18.22-1.34,53.94,7.8,30.54,30.01,11.12,27.2Z"/>
      <path class="cls-53" d="M377.51,34.8c13.86,2,29.05,8.24,38.64,14.78-4.82-4.79-10.97-8.3-17.9-10.87-6.38-2.37-13.42-3.94-20.69-5-16.74-2.42-43.72-2.26-43.72-2.26-4.63-.67-9.74-4.62-15.53-7.49-2.68-1.33-5.51-2.43-8.5-2.86-1.6-.23-3.71-.25-6.01.01,5.59,3.87,38.14,13.59,38.63,13.66.06,0,19.08-2.3,35.1.02Z"/>
      <path class="cls-32" d="M311.36,48.26c-9.92-1.43-19.32-6.54-25.92-14.18-.22.74-.39,1.51-.51,2.32-.25,1.72-.28,3.53-.14,5.39.03.39.07.79.11,1.18.47.04.93.09,1.4.16,21.63,3.13,22.71,14.55,23.91,15.93.72.83,1.88,1.39,2.97,1.55,2,.29,4.22-1.19,6.63-2.87,3.06-3.82,6.41-7.11,10.22-9.34-.08-.01-.16-.03-.24-.04-5.88-.85-10.65,1.02-18.43-.1Z"/>
      <path class="cls-37" d="M389.4,64.01c19.41,2.81,42.82-19.4-11.12-27.2-7.37-1.07-13.42-1.33-18.22,1.34-.88.88-1.38,2.13-1.58,3.5-2.14,14.8,16.12,20.23,30.92,22.37Z"/>
      <path class="cls-40" d="M310.21,59.07c-1.19-1.38-2.28-12.8-23.91-15.93-.46-.07-.93-.12-1.4-.16.06.6.14,1.19.23,1.8.88-.07,1.77-.05,2.67.08,12.03,1.74,20.77,7.23,19.02,19.3-.33,2.26-1.04,4.53-1.35,6.73-.25,1.72.3,4.13,1.14,7.34,4.07-6.75,8.24-14.31,13.19-20.49-2.41,1.69-4.63,3.16-6.63,2.87-1.09-.16-2.25-.71-2.97-1.55Z"/>
      <path class="cls-35" d="M388.93,72.66c-19.95-2.89-33.87,3.11-41.11,2.07-.41-.06-.78-.17-1.11-.32-1.17,2.84-2.31,5.91-3.12,9.06,13.02-10.69,32.8-11.98,49.35-9.58,7.9,1.14,23.64,9.25,33.75,19.75.7-1.72,1.34-4.03,1.84-7.5.01-.07.02-.14.03-.22-1.67.3-3.39.35-5.16.1-9.74-1.41-16.32-10.73-34.47-13.36Z"/>
      <path class="cls-32" d="M418.35,79.81c-.22-.03-14.28-6.21-26.48-7.98s-20.5.02-30.05-1.36c-4.41-.64-8.39-1.97-11.33-4.67-1.04,2.41-2.43,5.36-3.77,8.61.33.15.7.26,1.11.32,7.23,1.05,21.16-4.95,41.11-2.07,18.15,2.63,24.73,11.95,34.47,13.36,1.77.26,3.49.2,5.16-.1.39-2.85.29-6-.24-9.35-3.14,2.59-6.17,3.79-9.98,3.24Z"/>
      <path class="cls-79" d="M391.86,71.83c12.2,1.76,26.26,7.95,26.48,7.98,3.81.55,6.84-.66,9.98-3.24-.47-2.98-1.28-6.12-2.42-9.34-.13-.38-.27-.75-.41-1.13-8.39,4.64-19.65,7.35-34.03,5.27-24.74-3.58-34.46-8.45-39.34-13.19.1,1.06.09,2.07-.03,2.96-.16,1.13-.77,2.72-1.6,4.65,2.94,2.71,6.93,4.04,11.33,4.67,9.54,1.38,17.55-.44,30.05,1.36Z"/>
      <path class="cls-79" d="M305.58,43.09c-7.95-1.15-13.4-7.77-16.82-14.99-.61.69-1.18,1.44-1.68,2.26-.68,1.12-1.24,2.36-1.64,3.73,6.6,7.64,16,12.75,25.92,14.18,7.78,1.13,12.55-.75,18.43.1.08.01.16.03.24.04,3.21-1.88,6.75-3.01,10.7-3.07-1.97-.92-4.57-1.66-8.15-2.18-8.84-1.28-19.93.95-27.01-.07Z"/>
      <path class="cls-63" d="M345.36,45.81c-2.86-3.87-5.64-6.9-11.14-7.7-8.32-1.2-15.51,3.26-26.03,1.74-8.08-1.17-13.54-4.95-12.39-12.93.21-1.42.6-2.84,1.11-4.18-1.34.5-2.66,1.11-3.91,1.86-1.57.94-3.01,2.1-4.24,3.49,3.42,7.22,8.87,13.84,16.82,14.99,7.08,1.02,18.16-1.21,27.01.07,3.58.52,6.18,1.26,8.15,2.18,1.2-.02,2.43.06,3.71.24.31.04.61.13.91.24Z"/>
      <path class="cls-63" d="M425.49,66.1c-.19-.52-.39-1.04-.6-1.56-1.06-2.65-2.34-5.34-3.79-8.02-9.36,8.8-24.77,12.82-39.17,10.74-17.66-2.55-25.8-8.36-30.96-14.14.6,1.68,1,3.44,1.16,5.07,4.89,4.73,14.6,9.61,39.34,13.19,14.38,2.08,25.63-.64,34.03-5.27Z"/>
      <path class="cls-82" d="M432.86,101.61c-1.6-2.76-3.72-5.44-6.16-7.98-10.12-10.5-25.85-18.61-33.75-19.75-16.56-2.4-36.33-1.11-49.35,9.58-.11.42-.21.85-.31,1.27,10.34-6.98,24.5-13.02,45.74-9.95,9.01,1.3,26.93,10.93,43.84,26.82Z"/>
      <path class="cls-34" d="M351.47,95.11c-3.43-.5-6.75-2.13-9.06-4.66-.52,8.7,3.1,14.87,6.77,20.68,4.93-11.97,18.56-20.87,42.97-17.34,9.36,1.35,18.59,4.27,26.26,9.25,2.05.21,4.09.47,6.13.76,1.87.27,5.66.84,10.17,1.67-.08-.21-.17-.43-.26-.64-18.61-3.45-25.11-15.17-37.72-17-15.56-2.25-35.32,8.71-45.27,7.27Z"/>
      <path class="cls-25" d="M349.18,111.13c1.54,2.44,3.09,4.81,4.35,7.28,2.85-.53,5.77-.8,8.59-.88-.85-1.7-1.13-3.73-.85-5.66,1.9-13.12,22.63-14.6,32.95-13.1,3.68.53,7.1,1.78,9.99,3.67,4.65-.13,9.42.11,14.2.6-7.67-4.98-16.91-7.9-26.26-9.25-24.42-3.53-38.05,5.37-42.97,17.34Z"/>
      <path class="cls-28" d="M389.02,74.79c-21.24-3.07-35.4,2.97-45.74,9.95-.25,1.07-.46,2.14-.61,3.22-.12.86-.21,1.69-.26,2.5,2.31,2.53,5.63,4.16,9.06,4.66,9.95,1.44,29.71-9.52,45.27-7.27,12.62,1.82,19.12,13.55,37.72,17-.45-1.09-.99-2.16-1.61-3.23-16.9-15.89-34.83-25.51-43.84-26.82Z"/>
      <path class="cls-74" d="M362.72,117.53c1.61-.03,3.18,0,4.69.09,8.9-10.84,22.28-14.78,36.81-15.17-.1-.07-.21-.13-.31-.19-.58-.1-1.16-.19-1.75-.28-25.66-3.71-31.17,10.82-39.43,15.56Z"/>
      <path class="cls-66" d="M361.27,111.87c-.28,1.93,0,3.96.85,5.66.2,0,.4,0,.6-.01,8.26-4.73,13.77-19.27,39.43-15.56.59.09,1.18.18,1.75.28-2.82-1.78-6.13-2.97-9.68-3.48-10.32-1.49-31.05-.02-32.95,13.1Z"/>
    </g>
  </g>
</svg>