<?xml version="1.0" encoding="UTF-8"?>
<svg id="Layer_2" data-name="Layer 2" xmlns="http://www.w3.org/2000/svg" viewBox="0 0 384.86 360.79">
  <defs>
    <style>
      .cls-1 {
        fill: #8c712b;
      }

      .cls-2 {
        fill: #f4eee4;
      }

      .cls-3 {
        fill: #e9cfb4;
      }

      .cls-4 {
        fill: #e4d7bd;
      }

      .cls-5 {
        fill: #ded5ae;
      }

      .cls-6 {
        fill: #c0ab74;
      }

      .cls-7 {
        fill: #d3c8a0;
      }

      .cls-8 {
        fill: #b7a171;
      }

      .cls-9 {
        fill: #ece0c3;
      }

      .cls-10 {
        fill: #eae2cd;
      }

      .cls-11 {
        fill: #ba9b6c;
      }

      .cls-12 {
        fill: #ebe4cd;
      }

      .cls-13 {
        fill: #c1a683;
      }

      .cls-14 {
        fill: #f4edde;
      }

      .cls-15 {
        fill: #f1e1c8;
      }

      .cls-16 {
        fill: #e3d9bb;
      }

      .cls-17 {
        fill: #fbf5e5;
      }

      .cls-18 {
        fill: #f7f4e7;
      }

      .cls-19 {
        fill: #dac49a;
      }

      .cls-20 {
        fill: #ede7d3;
      }

      .cls-21 {
        fill: #efedd9;
      }

      .cls-22 {
        fill: #b59c69;
      }

      .cls-23 {
        fill: #efebde;
      }

      .cls-24 {
        fill: #b09463;
      }

      .cls-25 {
        fill: #fcf8ef;
      }

      .cls-26 {
        fill: #fff;
      }

      .cls-27 {
        fill: #e0d3b5;
      }

      .cls-28 {
        fill: #bcab7a;
      }

      .cls-29 {
        fill: #f1e6d4;
      }

      .cls-30 {
        fill: #fbf8eb;
      }

      .cls-31 {
        fill: #9a8b3a;
      }

      .cls-32 {
        fill: #e3c9a4;
      }

      .cls-33 {
        fill: #f0e0cc;
      }

      .cls-34 {
        fill: #dbc29c;
      }

      .cls-35 {
        fill: #e9dac3;
      }

      .cls-36 {
        fill: #e2d6b5;
      }

      .cls-37 {
        fill: #af9563;
      }

      .cls-38 {
        fill: #cfbf8e;
      }

      .cls-39 {
        fill: #d6c395;
      }

      .cls-40 {
        fill: #b48d60;
      }

      .cls-41 {
        fill: #fef9f0;
      }

      .cls-42 {
        fill: #f5f2dd;
      }

      .cls-43 {
        fill: #c2a481;
      }

      .cls-44 {
        fill: #e5d4b2;
      }

      .cls-45 {
        fill: #e8dcc2;
      }

      .cls-46 {
        fill: #c1ac82;
      }

      .cls-47 {
        fill: #cbb48e;
      }

      .cls-48 {
        fill: #e0cea4;
      }

      .cls-49 {
        fill: #a69f54;
      }
    </style>
  </defs>
  <g id="flower">
    <g>
      <path class="cls-36" d="M286.62,321.18c-33.22,24.76-74.09,37.9-106.58,38.55,34.9,5.22,70.52-9.32,101.32-32.28,14.4-10.74,36.52-31.68,53.64-53.57-5.9,5.59-11.7,11.36-17.09,17.77-9.52,11.33-20.01,21.12-31.29,29.53Z"/>
      <path class="cls-12" d="M277.02,324.34c17.16-12.79,35.43-35.29,48.05-49.29-13.27,12.71-25.87,26.5-39.99,37.02-57.41,42.79-114.6,22.79-134.01,37.26-.3.22-.59.46-.89.69,1.34.69,2.69,1.35,4.04,1.97,2.08.96,4.18,1.83,6.27,2.63.13-.1.25-.2.38-.29,28.56-21.29,70.78,3.82,116.14-29.99Z"/>
      <path class="cls-25" d="M306.91,262.91c-27.71,18.52-58.68,48.02-121.18,59.22,56.04.56,106.74-53.73,144.32-71.54-7.87,2.82-15.38,7.14-23.14,12.32Z"/>
      <path class="cls-23" d="M340.85,247.77c-3.71.6-7.29,1.56-10.8,2.81-37.59,17.82-88.28,72.1-144.32,71.54-3.06.55-6.2,1.05-9.41,1.51-5.45.78-10.9,2.18-16.12,4.25-3.99,1.58-7.84,3.55-11.48,5.94-1.01.66-2,1.34-2.97,2.07-1.5,1.12-4.73,3.85-7.65,6.83,1.75,1.22,3.51,2.36,5.28,3.45,1.62-1.5,3.32-2.92,5.1-4.25,35.71-26.62,89.1,2.96,127.26-25.48,17.48-13.03,32.71-43.49,53.77-59.18,6.39-4.76,14.2-8.59,22.12-10.18-3.73-.11-7.31.14-10.77.7ZM270.64,316.63c-14.89,11.1-32.99,11.1-41.07,5.54-.78-2.51-1.23-5.35,5.38-10.28,9.38-6.99,17.54-4.95,35.52-18.35,5.89-4.39,14.6-11.88,18.49-14.78,3.1-2.31,9.45-5.82,11.71-2.79,2.48,3.33-21.18,34.06-30.03,40.66Z"/>
      <path class="cls-45" d="M325.07,275.05c-12.63,14-30.89,36.5-48.05,49.29-45.36,33.81-87.57,8.7-116.14,29.99-.13.1-.25.2-.38.29,6.46,2.45,12.99,4.12,19.54,5.1,32.48-.64,73.36-13.79,106.58-38.55,11.28-8.41,21.77-18.2,31.29-29.53,5.39-6.42,11.19-12.19,17.09-17.77,3.65-4.67,7.08-9.38,10.15-14.05-1.84.51-3.62,1.19-5.29,2.03-5.09,4.12-9.98,8.58-14.79,13.18Z"/>
      <path class="cls-18" d="M288.96,278.77c-3.89,2.9-12.6,10.39-18.49,14.78-17.98,13.4-26.14,11.36-35.52,18.35-6.61,4.93-6.16,7.77-5.38,10.28,8.08,5.55,26.18,5.56,41.07-5.54,8.86-6.6,32.51-37.33,30.03-40.66-2.26-3.03-8.61.48-11.71,2.79Z"/>
      <path class="cls-21" d="M352.62,247.11c-.34-.02-.67-.02-1-.03-7.91,1.59-15.73,5.42-22.12,10.18-21.06,15.7-36.29,46.15-53.77,59.18-38.16,28.45-91.55-1.14-127.26,25.48-1.78,1.32-3.48,2.74-5.1,4.25,2.26,1.39,4.53,2.68,6.82,3.86.29-.23.59-.47.89-.69,19.41-14.47,76.6,5.53,134.01-37.26,14.12-10.53,26.72-24.31,39.99-37.02,4.81-4.6,9.7-9.07,14.79-13.18,1.67-.84,3.45-1.52,5.29-2.03.84-1.28,1.66-2.55,2.44-3.82,1.86-3,3.57-5.98,5.07-8.9-.01,0-.03,0-.04,0Z"/>
      <path class="cls-7" d="M332.3,118.15c-7.05-9.46-16.42-17.73-23.64-27.32.29,1.37.56,2.74.83,4.11,3.63,5.25,6.66,11.02,10.39,16.02,3.95,5.3,5.49,5.52,10.05,11.63,3.43,4.6,6.02,9.49,7.87,14.55,15.09,34.31-7.63,75.44-21.76,104-4.24,8.56-7.7,16-9.14,21.78,5.08-3.4,10.05-6.41,15.09-8.89,7.5-39.81,41.56-93.94,10.3-135.87Z"/>
      <path class="cls-11" d="M319.88,110.96c-3.73-5-6.76-10.77-10.39-16.02.47,2.42.92,4.85,1.35,7.29,8.38,12.97,14.21,27.61,17.55,42.76,2.31-5.57,3.95-11.03,4.74-16.4,1.85,2.79,3.39,5.65,4.67,8.55-1.85-5.06-4.44-9.95-7.87-14.55-4.56-6.11-6.1-6.33-10.05-11.63Z"/>
      <path class="cls-12" d="M359.44,90.54c-.85-.74-1.71-1.47-2.6-2.18,0-.25-.01-.51-.02-.76-.9-.98-1.81-1.95-2.73-2.9-15.6-13.42-33.17-24.44-52.27-32.27,3.69,11.33,9.67,21.86,17.03,31.72,14.4,19.32,28.63,29.78,33.66,36.53,35.55,47.7-31.41,88.43-10.32,125.21,4.48-6.29,8.82-12.68,12.89-19.13,4.66-9.41,9.48-18.83,14.22-28.61,21.4-44.14,15.14-74.6-4.53-101-1.71-2.29-3.49-4.49-5.33-6.61ZM364.39,120.02c-6.29,4.69-46.06-42.17-46.35-42.55-2.98-4-1.73-7.98,1.12-10.1.01-.01.03-.02.04-.03,13.87,6.37,27.88,15.22,36.89,27.3,6.55,8.78,11.56,22.96,8.31,25.39Z"/>
      <path class="cls-2" d="M359.44,90.54c1.84,2.13,3.62,4.32,5.33,6.61,19.67,26.39,25.93,56.85,4.53,101-4.74,9.78-9.55,19.19-14.22,28.61,1.6-2.54,3.17-5.09,4.68-7.64,13.75-23.19,23.61-46.94,24.6-69.54.74-16.77-3.4-32.91-14.46-47.74-3.06-4.1-6.57-7.89-10.47-11.3Z"/>
      <path class="cls-5" d="M343.22,116.37c-7.42-9.96-18.24-16.41-26.11-26.97-7.83-10.5-12.37-22.88-18.8-34.41,4.47,11.46,7.77,23.51,10.35,35.84,7.22,9.59,16.59,17.86,23.64,27.32,31.26,41.94-2.8,96.06-10.3,135.87,1.37-.67,2.75-1.31,4.13-1.9,1.69-42.86,45.89-97.11,17.09-135.76Z"/>
      <path class="cls-29" d="M364.39,120.02c3.25-2.43-1.76-16.61-8.31-25.39-9-12.08-23.01-20.93-36.89-27.3-.01.01-.03.02-.04.03-2.85,2.12-4.1,6.1-1.12,10.1.29.39,40.06,47.24,46.35,42.55Z"/>
      <path class="cls-4" d="M352.51,120.68c-5.03-6.75-19.26-17.21-33.66-36.53-7.35-9.86-13.34-20.4-17.03-31.72-1.79-.73-3.59-1.45-5.41-2.13.66,1.55,1.29,3.11,1.9,4.68,6.43,11.54,10.97,23.91,18.8,34.41,7.87,10.56,18.69,17.01,26.11,26.97,28.8,38.64-15.39,92.89-17.09,135.76,4.76-2.02,9.61-3.53,14.71-4.35.45-.63.9-1.26,1.34-1.88-21.09-36.77,45.88-77.51,10.32-125.21Z"/>
      <path class="cls-22" d="M273.18,83.08c-.77-1.04-17.75-19.6-34.24-23.46,16.96,8.56,31.73,21.69,43.4,37.35.03.04.05.07.08.11.28-3.22.49-6.67.82-9.81-3.77.3-7.3-.49-10.06-4.19Z"/>
      <path class="cls-20" d="M288.56,40.52c3.14,4.21,6.14,8.5,9.06,12.7-.39-.98-.79-1.95-1.21-2.91-4.09-9.61-9.08-18.76-15.25-27.23C254.21-1.97,226.06-3.55,203.65,3.93c29.56-.15,51.04-8.86,84.91,36.59Z"/>
      <path class="cls-16" d="M250.15,45.74c14.51,8.83,34.92,23.56,49.77,13.54-.73-2.04-1.5-4.06-2.31-6.05-2.92-4.2-5.92-8.49-9.06-12.7C254.69-4.93,233.21,3.78,203.65,3.93c-6.52,2.18-12.56,5.12-17.94,8.48,1.02,2.18,2.25,4.22,3.66,6.12,16.76,22.48,51.1,21.32,60.78,27.21ZM262.38,19.65c6.06,8.14,4.99,14.47,1.18,17.31-8.63,6.44-46.92.23-58.33-15.07-2.54-3.41-4.29-7.49-4.92-12.35,19.89-.17,48.96-7.46,62.07,10.12Z"/>
      <path class="cls-28" d="M224.22,53.13c.51.3,1.02.61,1.53.92,4.53,1.54,8.93,3.41,13.19,5.57,16.49,3.86,33.47,22.42,34.24,23.46,2.76,3.7,6.29,4.49,10.06,4.19.05-.45.09-.88.15-1.32.42-3.54,1.03-6.55,2.11-8.15-1.92.24-3.92.69-6.01,1.37-9.32,3.04-33.2-26.1-55.27-26.05Z"/>
      <path class="cls-28" d="M289.11,77.6c.48.4.97.8,1.44,1.2,5.98,5.15,11.3,10.92,15.96,17.17,1.52,2.03,2.95,4.12,4.33,6.25-1.03-5.88-2.19-11.71-3.52-17.48-5.32-4.22-11.22-7.09-18.21-7.14Z"/>
      <path class="cls-5" d="M250.15,45.74c-9.67-5.89-44.02-4.73-60.78-27.21-1.41-1.9-2.64-3.94-3.66-6.12-1.13.71-2.24,1.44-3.31,2.18.41.59.83,1.17,1.25,1.75,23.68,31.77,61.15,28.23,71.79,34.67,5.92,3.58,28.69,18.34,48.02,19.06-1.09-3.65-2.26-7.25-3.54-10.8-14.85,10.02-35.27-4.7-49.77-13.54Z"/>
      <path class="cls-47" d="M232.41,49.78c-20.58-11.12-47.33-10.96-61.81-25.11-3.16,3.36-5.95,7.02-8.29,10.94,21.77.28,43.18,6.74,60.41,16.64.51.29,1.01.59,1.51.88,22.07-.05,45.95,29.09,55.27,26.05,2.09-.68,4.09-1.13,6.01-1.37.23-.34.48-.62.75-.83.6-.45,1.23-.46,1.87-.2,0,0,0-.01-.01-.02.01.01.03.02.04.04.32.26.64.53.96.8,6.99.06,12.89,2.92,18.21,7.14-.53-2.31-1.1-4.6-1.69-6.88-9.46-4.31-20.29-5.05-30.58-7.38-16.01-3.63-28.6-13.12-42.65-20.7Z"/>
      <path class="cls-7" d="M255.45,51.01c-10.64-6.44-48.11-2.91-71.79-34.67-.43-.57-.84-1.16-1.25-1.75-.85.59-1.68,1.18-2.49,1.79-3.36,2.51-6.48,5.28-9.31,8.29,14.49,14.15,41.23,14,61.81,25.11,14.04,7.58,26.63,17.08,42.65,20.7,10.29,2.33,21.12,3.07,30.58,7.38-.68-2.62-1.4-5.21-2.17-7.79-19.33-.72-42.1-15.48-48.02-19.06Z"/>
      <path class="cls-35" d="M263.56,36.95c3.81-2.84,4.88-9.17-1.18-17.31-13.1-17.58-42.18-10.29-62.07-10.12.63,4.87,2.38,8.94,4.92,12.35,11.4,15.3,49.69,21.5,58.33,15.07Z"/>
      <path class="cls-33" d="M202.82,49.28c.77-.57,1.12-1.14.77-1.62-6.55-8.79-47.56-12.46-64.67.29-2.12,1.58-3.8,2.92-4.95,4.18,14.38,17.93,68.26-2.42,68.85-2.86Z"/>
      <path class="cls-28" d="M236.38,81.62c4.76,6.38,8.79,13.43,12.2,20.84-.97-4.81-2.2-9.57-3.72-14.2-5.12-3.81-9.73-9.34-13.95-13.1,1.84,1.9,3.67,4.05,5.47,6.46Z"/>
      <path class="cls-14" d="M185.85,38.26c-7.68-1.62-15.59-2.55-23.54-2.65-20.93-.27-42.19,5.16-60.39,18.73-.06.04-.12.09-.18.14,15.62-7.93,47.47-22.2,84.11-16.21Z"/>
      <path class="cls-35" d="M224.88,55.18c-.41-.54-.81-1.09-1.21-1.63-.06-.08-.11-.15-.17-.23-.26-.36-.53-.71-.79-1.07-.55-.32-1.11-.63-1.67-.94-10.54-5.83-22.55-10.38-35.2-13.05-36.64-5.99-68.5,8.28-84.11,16.21-5.07,3.8-9.78,8.18-14.05,13.15,11.47,5.63,26.06-1.61,35.48-4.59,11.45-3.62,29.9,5.53,47.31.01,11.34-3.59,22.31-9.57,34.54-6.9,5.48,1.19,17.34,7.32,21.38,4.31.53-.4.94-.95,1.27-1.59-.93-1.23-1.86-2.45-2.77-3.68ZM202.82,49.28c-.59.44-54.47,20.79-68.85,2.86,1.15-1.26,2.83-2.6,4.95-4.18,17.11-12.75,58.12-9.08,64.67-.29.35.47,0,1.04-.77,1.62Z"/>
      <path class="cls-16" d="M128.42,66.87c22-5.7,23.87,7.22,55.74-5.34,24.22-9.54,44.12,10.4,56.3,15.5-.75-1.62-1.55-3.21-2.39-4.77-3.53-4.47-7.02-8.93-10.42-13.4-.33.64-.74,1.19-1.27,1.59-4.04,3.01-15.9-3.12-21.38-4.31-12.23-2.66-23.2,3.31-34.54,6.9-17.41,5.52-35.86-3.63-47.31-.01-9.41,2.97-24.01,10.21-35.48,4.59-2.25,2.62-4.38,5.4-6.38,8.35,15.24,8.81,32.98-5.44,47.11-9.1Z"/>
      <path class="cls-7" d="M184.16,61.52c-31.87,12.56-33.74-.36-55.74,5.34-14.13,3.66-31.88,17.91-47.11,9.1-1.5,2.22-2.93,4.54-4.27,6.95,8.51.74,18.79.71,31.42-2.51,6.47-1.65,13.2-5.13,20.03-6.62,12.49-4.59,24.95-4.78,36.4-2.65,3.25-.21,6.36-.77,8.62-2.13,5.82-3.52,11.7-5.08,17.41-5.14,11.51-3.62,26.26-2.89,40,11.3,4.22,3.75,8.82,9.28,13.95,13.1-1.26-3.85-2.73-7.61-4.41-11.23-12.17-5.1-32.08-25.05-56.3-15.5Z"/>
      <path class="cls-28" d="M164.88,71.14c1.96.36,3.88.79,5.78,1.28,1.21.31,2.41.65,3.59,1.01,1.02-.94,2.1-1.84,3.22-2.68,3.51-2.62,8.13-5.21,13.44-6.88-5.71.06-11.59,1.62-17.41,5.14-2.26,1.37-5.37,1.92-8.62,2.13Z"/>
      <path class="cls-28" d="M77.03,82.92c-.99,1.77-1.93,3.59-2.82,5.46,9.04-3.73,20.28-5.82,37.1-5.26,5.67-4.18,11.42-7.22,17.17-9.33-6.83,1.5-13.56,4.97-20.03,6.62-12.62,3.21-22.91,3.25-31.42,2.51Z"/>
      <path class="cls-35" d="M50.22,260.68c-28.28-37.94-19.89-66.26-4.34-92.48,1.8-3.34,3.87-6.65,6.23-9.93,15.35-23.44,33.5-45.93,32.36-73.12-3.77.85-7.14,1.94-10.26,3.23-.52.21-1.03.43-1.53.66,7.56,64.16-95.54,82.32-24.85,177.15,22.49,30.17,53.99,49.06,70.09,59.52,8.97,2.96,18.04,5.41,27.03,7.34-.58-.97-1.19-1.9-1.86-2.8-17.15-23.01-54.36-17.89-92.87-69.56Z"/>
      <path class="cls-17" d="M34.41,117.33c-44.33,44.35-43.77,100.73-10.12,145.87,1.96,2.63,4.02,5.19,6.18,7.67-49.44-79.37-20.09-121.15,3.94-153.54Z"/>
      <path class="cls-28" d="M160.19,327.88c-9.41-3.85-18.47-8.77-27.18-14.38-1.71.13-3.34-.18-4.93-.82-4.43-.55-8.75-1.51-12.95-2.83,13.51,6.46,27.13,8.5,38.59,21.02,2.11-1.12,4.27-2.11,6.47-2.99Z"/>
      <path class="cls-33" d="M72.68,89.04c-7.57,3.37-13.67,7.9-20.46,12.97-6.59,4.91-12.51,10.03-17.8,15.33-24.03,32.39-53.38,74.17-3.94,153.54,6.96,8.05,14.88,15.36,23.5,21.94,18.87,14.41,41.09,25.34,63.95,32.89-16.11-10.45-47.6-29.34-70.09-59.52-70.69-94.83,32.41-112.99,24.85-177.15ZM47.12,109.61c6.13-4.57,10.39-7.29,14.77-1.42,11.26,15.11-39.04,73.11-40.34,74.07-.68.5-1.41.96-2.22,1.35-.34-.05-.74-.36-1.11-.68-.62-.53-1.15-1.1-1.61-1.72-8.03-10.77,7.73-54.63,30.51-71.61Z"/>
      <path class="cls-28" d="M52.19,259.18c4.63,6.21,10.07,11.9,16.06,16.97-1.42-1.73-2.81-3.5-4.16-5.31-17.96-24.1-27.87-47.64-27.12-70.3-2.9,18.06.82,39.32,15.22,58.64Z"/>
      <path class="cls-16" d="M93.07,83.71c-3.1.35-5.95.84-8.6,1.44,1.14,27.19-17.01,49.68-32.36,73.12,4.51-6.26,10.07-12.42,16.75-18.49,10.56-21.92,25.86-41.16,24.21-56.07Z"/>
      <path class="cls-7" d="M93.07,83.71c1.66,14.91-13.65,34.15-24.21,56.07,3.82-3.47,8.01-6.91,12.58-10.32,3.31-2.47,6.15-4.48,8.69-6.11-7.06-15.06,7.52-30.06,20.84-39.99.11-.08.22-.16.34-.24-6.96-.23-12.96,0-18.25.59Z"/>
      <path class="cls-7" d="M45.88,168.2c-15.55,26.22-23.94,54.53,4.34,92.48,38.52,51.67,75.72,46.55,92.87,69.56.67.89,1.29,1.83,1.86,2.8,1.25.27,2.51.53,3.76.78,1.63-1.07,3.3-2.05,5.01-2.95-11.46-12.51-25.08-14.56-38.59-21.02-18.17-5.68-34.05-18.08-46.88-33.7-5.99-5.07-11.43-10.76-16.06-16.97-14.4-19.32-18.12-40.57-15.22-58.64.36-11,3.23-21.79,8.91-32.34Z"/>
      <path class="cls-42" d="M19.33,183.62c.81-.39,1.54-.85,2.22-1.35,1.29-.96,51.6-58.96,40.34-74.07-4.38-5.88-8.63-3.16-14.77,1.42-22.78,16.98-38.54,60.84-30.51,71.61.46.61.99,1.19,1.61,1.72.37.31.77.63,1.11.68Z"/>
      <path class="cls-30" d="M213.65,297.87c5.41-4.03,5.61-7.78,4.67-9.03-11.71-15.71-51.2.91-71.07,1.46-3.26.09-7.3.9-9.79,2.75-.79.59-1.41,1.28-1.82,2.08.1.14.2.29.31.43,20.3,27.24,64.64,12.04,77.69,2.31Z"/>
      <path class="cls-18" d="M285.56,247.62c-22.8,14.6-45.1,32.52-67.21,31.86-42.73-1.28-74.49,10.87-106.78,7.91-1.16-.05-2.32-.11-3.47-.19-3.83-.28-7.56-.75-11.16-1.46,4.8,4.19,9.71,8.34,14.75,12.35,15.78,8.44,36.28,16.49,55.91,15.51,5.68-.28,34.98-4.32,51.81-15.21,27.71-17.91,48.98-34.3,62.39-41.49,8.27-4.43,18.99-7.01,30.75-8.55,1.08-2.3,2.25-4.71,3.49-7.21-11.02-1-20.98,1.92-30.48,6.48ZM213.65,297.87c-13.06,9.73-57.39,24.93-77.69-2.31-.1-.14-.2-.29-.31-.43.4-.81,1.03-1.5,1.82-2.08,2.49-1.86,6.53-2.66,9.79-2.75,19.87-.55,59.35-17.17,71.07-1.46.94,1.26.74,5-4.67,9.03Z"/>
      <path class="cls-25" d="M285.56,247.62c-15.23,7.31-29.26,18.87-44.51,25.37-8.09,3.45-16.52,5.47-25.65,4.69-26.93-2.32-68.95,11.17-103.83,9.72,32.3,2.96,64.05-9.19,106.78-7.91,22.1.66,44.41-17.26,67.21-31.86Z"/>
      <path class="cls-10" d="M310.3,253.36c-8.32,7.62-12.61,13.77-16.16,16.41-78.27,58.35-131.16,52.37-173.43,35.23,3.86,2.84,7.8,5.58,11.8,8.18,43.65,16.15,78.41.21,113.87-10.89,25.62-12.8,43.67-28.12,60.52-39.38.7-2.81,1.88-6.01,3.39-9.55Z"/>
      <path class="cls-44" d="M132.52,313.18c8.87,5.75,18.09,10.79,27.67,14.71,5.22-2.07,10.67-3.47,16.12-4.25,28.95-4.12,51.5-12.07,70.07-21.35-35.46,11.1-70.22,27.04-113.87,10.89Z"/>
      <path class="cls-23" d="M294.14,269.77c3.54-2.64,7.84-8.79,16.16-16.41.69-1.61,1.44-3.28,2.26-5.02-11.76,1.54-22.48,4.12-30.75,8.55-13.41,7.19-34.68,23.57-62.39,41.49-16.83,10.88-46.13,14.92-51.81,15.21-19.64.98-40.14-7.07-55.91-15.51,2.96,2.36,5.97,4.67,9.02,6.92,42.27,17.14,95.15,23.11,173.43-35.23Z"/>
      <path class="cls-25" d="M141.92,244.45c22.4-16.69,93.29-50.12,115.2-60.29-13.95,5.65-29.03,12.46-43.61,19.44-8.69,4.16-17.2,8.38-25.2,12.43-25.88,13.14-46.32,24.61-49.67,27.1-10.43,7.77-19.15,16.91-24.89,28.21,1.61-1.84,3.33-3.61,5.26-5.21,3.38-2.8,5.06-8.38,22.91-21.69Z"/>
      <path class="cls-41" d="M234.77,228.56c8.2-6.11,27.52-24.2,21.52-32.25-7.48-10.03-94.2,42.09-98.52,45.31-1.75,1.3-2.65,3.23-3.36,5.33,23.09,17.63,55.14.39,80.35-18.4Z"/>
      <path class="cls-30" d="M265.58,180.83c-2.76,1.05-5.59,2.17-8.47,3.33-21.9,10.17-92.8,43.6-115.2,60.29-17.85,13.31-19.53,18.88-22.91,21.69-1.93,1.6-3.65,3.37-5.26,5.21-.7,1.38-1.37,2.79-1.98,4.24-.31.74-.6,1.48-.89,2.24-1.13,2.98-2.06,6.1-2.78,9.37,1.74.13,3.5.21,5.28.26,5.18-5.49,10.55-10.97,16.48-15.39,25.07-18.68,60.75-2.18,103.72-34.21,25.5-19,24.95-35.47,46.5-62.17-4.57,1.48-9.43,3.22-14.5,5.15ZM234.77,228.56c-25.21,18.79-57.26,36.03-80.35,18.4.71-2.11,1.61-4.03,3.36-5.33,4.31-3.22,91.04-55.34,98.52-45.31,5.99,8.04-13.33,26.13-21.52,32.25Z"/>
      <path class="cls-21" d="M124.76,287.3c7.14-.35,14.44-1.13,21.74-2.1,41.36-13.22,73.32-6.35,92.61-20.73,22.07-16.45,31.15-61.81,47.37-90.76-.91.26-1.84.54-2.78.82-13.41,28.05-24.43,61.85-49.77,80.73-41.48,30.92-71.65,15.22-109.18,32.04Z"/>
      <path class="cls-18" d="M233.58,237.85c-42.97,32.03-78.65,15.53-103.72,34.21-5.94,4.43-11.3,9.9-16.48,15.39,3.73.1,7.53.04,11.38-.15,37.53-16.81,67.7-1.12,109.18-32.04,25.34-18.89,36.36-52.68,49.77-80.73-1.18.36-2.39.74-3.62,1.14-21.56,26.7-21.01,43.17-46.5,62.17Z"/>
      <path class="cls-12" d="M293.61,171.85c-2.24.52-4.63,1.14-7.12,1.86-16.22,28.95-25.3,74.31-47.37,90.76-19.29,14.38-51.25,7.51-92.61,20.73,23.32-3.11,46.65-8.23,64.51-7.77,15.45-2.52,18.89.04,26.93-5.96,7.92-5.91,26.08-42.14,48.35-63.58.48-.62.97-1.25,1.45-1.87,1.81-10.75,4.06-21.66,6.09-32.6.1-.56.21-1.13.31-1.69-.18.04-.36.08-.54.12Z"/>
      <path class="cls-28" d="M211.01,277.43c1.5.04,2.97.12,4.39.24,9.13.79,17.56-1.24,25.65-4.69,13.11-23.6,29.71-45.13,45.24-65.09-22.27,21.45-40.43,57.68-48.35,63.58-8.04,5.99-11.47,3.43-26.93,5.96Z"/>
      <path class="cls-23" d="M299.09,233.65c26.12-19.47,39.62-50.21,43.32-78.81-.89-8.57-3.48-16.93-8.38-24.84-11.15,45.87-64.02,91.51-86.1,139.7,4.13-2.17,8.2-4.61,12.26-7.14,3.64-5.06,7.97-9.57,12.92-13.25,8.66-6.45,13.27-6.19,25.98-15.66ZM311.75,183.9c3.44-3.94,6.99-7.72,11.19-10.85,6.54-4.88,8.79-5.56,10.84-2.8,8.51,11.42-19.07,48.53-31.57,57.85-19.01,14.17-23.73-6.1,9.54-44.2Z"/>
      <path class="cls-21" d="M309.74,235.39c7.94-5.92,21.62-35.59,32.03-60.74,1.02-6.65,1.33-13.29.65-19.82-3.71,28.6-17.2,59.34-43.32,78.81-12.7,9.47-17.32,9.21-25.98,15.66-4.95,3.69-9.28,8.19-12.92,13.25,3.93-2.45,7.86-4.98,11.81-7.4,1.5-1.59,3.12-3.02,4.84-4.31,12.16-9.07,24.29-9.05,32.9-15.46Z"/>
      <path class="cls-25" d="M333.13,128.59c-.78,5.36-2.42,10.82-4.74,16.4-7.83,18.84-23.48,38.97-40.65,61.04-15.94,20.48-33.17,42.62-46.69,66.96,2.32-.99,4.61-2.09,6.88-3.28,22.08-48.19,74.95-93.83,86.1-139.7-.29-.47-.59-.94-.9-1.41Z"/>
      <path class="cls-12" d="M309.74,235.39c-8.61,6.42-20.73,6.4-32.9,15.46-1.72,1.28-3.34,2.71-4.84,4.31,11.04-6.77,22.35-12.74,34.93-13.98,2.5-1.02,5.41-2.3,7.71-4.02,6.39-4.77,12.87-27.53,25.02-52.27.86-3.4,1.57-6.82,2.09-10.24-10.41,25.15-24.08,54.82-32.03,60.74Z"/>
      <path class="cls-48" d="M306.93,241.18c2.96-.29,5.99-.32,9.11-.04,7.89-15.95,18.46-35.82,23.62-56.24-12.15,24.73-18.63,47.5-25.02,52.27-2.3,1.72-5.21,3-7.71,4.02Z"/>
      <path class="cls-18" d="M302.22,228.1c12.51-9.32,40.08-46.43,31.57-57.85-2.05-2.75-4.3-2.08-10.84,2.8-4.21,3.13-7.76,6.91-11.19,10.85-33.27,38.1-28.54,58.37-9.54,44.2Z"/>
      <path class="cls-21" d="M304.8,93.73c-3.52-4.49-7.4-8.7-11.64-12.6,5.57,15.14,13.65,60.55-3.25,112.86-.76,4.03-1.49,8.04-2.17,12.04,3.59-4.61,7.11-9.14,10.51-13.59,29.56-55.59,19.05-72.97,6.54-98.7ZM309.8,157.85c-1.5,1.11-4.08,2.73-5.2,1.23-1.32-1.77-5.55-17.43.37-44.38,1.88.1,3.78.18,5.3,1.46.34.29.64.63.9.98,6.15,8.25,6.79,34.61-1.37,40.7Z"/>
      <path class="cls-25" d="M293.16,81.13c-.86-.79-1.72-1.57-2.61-2.33-.79-.68-1.59-1.35-2.4-2-.01,0-.02-.01-.03-.01,1.12,2.18,2.14,4.38,3.07,6.58,5.83,13.85,7.97,28.14,7.99,42.63.03,15.13-2.25,30.47-5.04,45.74-.1.56-.21,1.13-.31,1.69-1.27,6.88-2.64,13.75-3.92,20.57,16.9-52.3,8.82-97.72,3.25-112.86Z"/>
      <path class="cls-12" d="M310.06,103.39c-1.03-1.67-1.69-3.51-2.12-5.45-.47-.66-.95-1.32-1.43-1.97-.56-.75-1.13-1.5-1.71-2.24,12.51,25.73,23.02,43.11-6.54,98.7,4.33-5.67,8.46-11.21,12.27-16.64,6.89-21.6,27.23-27.57-.46-72.4Z"/>
      <path class="cls-48" d="M310.06,103.39c27.69,44.83,7.35,50.81.46,72.4,7.5-10.69,13.76-20.93,17.87-30.81-3.34-15.16-9.17-29.8-17.55-42.76-.94-1.45-1.9-2.87-2.9-4.28.43,1.94,1.09,3.78,2.12,5.45Z"/>
      <path class="cls-23" d="M310.27,116.17c-1.52-1.29-3.42-1.36-5.3-1.46-5.92,26.95-1.69,42.61-.37,44.38,1.12,1.5,3.7-.12,5.2-1.23,8.17-6.09,7.52-32.45,1.37-40.7-.27-.36-.56-.69-.9-.98Z"/>
      <path class="cls-12" d="M186.83,211.77c-.47-1.56-.87-3.14-1.2-4.74-1.42-.38-2.85-.69-4.29-.94-11.07,2.73-22.73,8.11-34.43,16.82-3.03,2.26-6.02,4.58-9.05,6.83-28.56,21.29-38.56,17.56-50.57,1.45-6.41-8.6-10.45-19.31-11.72-30.07.3,15.12,2.77,30.04,8.27,43.26,25.65,29.65,45.29-18.69,102.98-32.6Z"/>
      <path class="cls-41" d="M170.93,205.25c-1.03,0-2.07.01-3.1.05-21.1.81-43.38,9.45-62.67,5.6-7.64-1.52-14.81-5.01-21.26-11.72.34.55.7,1.09,1.09,1.61,15.76,21.14,53.56,10.33,85.95,4.46Z"/>
      <path class="cls-21" d="M137.86,229.74c3.03-2.26,6.02-4.58,9.05-6.83,11.69-8.72,23.35-14.09,34.43-16.82-3.41-.59-6.89-.84-10.4-.84-32.39,5.87-70.19,16.69-85.95-4.46-.38-.52-.75-1.06-1.09-1.61-1.43-1.49-2.82-3.12-4.17-4.94-1.5-2.01-2.8-4.21-3.87-6.6-.27,4.48-.36,8.99-.27,13.47,1.27,10.76,5.3,21.47,11.72,30.07,12.01,16.11,22,19.84,50.57-1.45ZM81.45,208.23c2.51-1.87,5.81-2.83,8-1.12,20.6,16.09,46.91,2.29,50.87,7.6,3.93,5.27-4.99,14.33-10.56,18.48-16.97,12.65-31.64,8.75-40.9-3.69-4.44-5.96-7.12-13.47-8.09-20.74.22-.19.44-.37.68-.54Z"/>
      <path class="cls-28" d="M92.51,260.1c.29.41.58.82.88,1.22,2.49,3.34,5.28,6.47,8.39,9.36,2.77,2.58,5.8,4.97,9.1,7.14.29-.75.58-1.5.89-2.24,1.79-4.25,3.99-8.21,6.54-11.92-2.53,1.18-5.03,2.54-7.53,3.9-6.28,3.42-12.55-2.3-18.26-7.47Z"/>
      <path class="cls-28" d="M141.95,241.01c6.91-4.17,22.66-12.85,41.99-22.75-14.4,2.5-26.65,9.64-30.62,12.6-4.1,3.06-7.3,6.96-11.37,10.16Z"/>
      <path class="cls-45" d="M83.85,244.37c.63,1.52,1.31,3.02,2.02,4.5,11.15,10.55,18.92,20.34,34.95,8.39,11.31-8.43,14.93-17.18,28.58-27.36,11.3-8.42,24.46-13.91,38.19-15.8-.27-.77-.53-1.55-.76-2.33-57.69,13.91-77.33,62.25-102.98,32.6Z"/>
      <path class="cls-36" d="M120.82,257.26c-16.03,11.95-23.8,2.17-34.95-8.39,1.91,3.93,4.11,7.69,6.64,11.23,5.71,5.17,11.99,10.89,18.26,7.47,2.5-1.36,5-2.72,7.53-3.9,5.41-7.88,12.37-14.61,20.33-20.54.59-.44,1.72-1.16,3.31-2.12,4.08-3.2,7.28-7.1,11.37-10.16,3.96-2.95,16.21-10.1,30.62-12.6,1.44-.74,2.89-1.48,4.37-2.23-.25-.64-.49-1.28-.72-1.93-13.72,1.89-26.89,7.38-38.19,15.8-13.65,10.18-17.27,18.93-28.58,27.36Z"/>
      <path class="cls-18" d="M129.76,233.19c5.57-4.15,14.49-13.21,10.56-18.48-3.96-5.31-30.27,8.49-50.87-7.6-2.2-1.72-5.5-.75-8,1.12-.23.17-.46.36-.68.54.96,7.27,3.65,14.79,8.09,20.74,9.27,12.43,23.93,16.34,40.9,3.69Z"/>
      <path class="cls-49" d="M248.86,100.98c-.27-.36-.54-.71-.82-1.06.19.84.37,1.69.54,2.54,1.97,4.28,3.73,8.68,5.31,13.15,7.88,22.38,11,46.41,11.68,64.97,3.14-15.46-6.92-66.47-16.7-79.6Z"/>
      <path class="cls-47" d="M263.3,109c-1.33-1.79-2.69-3.56-4.02-5.35-5.63-7.55-10.08-15.53-10.12-15.58-1.8-2.41-4.04-4.35-6.52-5.95,1.36,3.44,2.56,6.98,3.58,10.58,6.88,6.21,13.29,13.94,17.19,19.16,29.44,39.5,20.45,56.62,12.4,65.23,2.82-.97,5.54-1.86,8.15-2.65,13.69-12.04-9.9-51.01-20.67-65.45Z"/>
      <path class="cls-43" d="M257.91,97.76c-6.43-8.63-13.19-17.08-19.84-25.5,1.71,3.16,3.23,6.47,4.58,9.87,2.48,1.6,4.72,3.54,6.52,5.95.03.05,4.49,8.03,10.12,15.58,1.34,1.79,2.69,3.56,4.02,5.35,10.77,14.44,34.36,53.41,20.67,65.45,3.42-1.04,6.65-1.91,9.64-2.6-4.18-27.53-18.79-51.41-35.7-74.09Z"/>
      <path class="cls-26" d="M242.59,77.04c-2.42-3.25-4.81-6.56-7.25-9.83-3.8-5.1-7.74-10.1-12.17-14.68-.15-.09-.31-.18-.46-.27.26.36.52.71.79,1.07.46.62.91,1.24,1.38,1.86,10.53,14.13,22.25,28.11,33.03,42.58,11.16,14.98,21.33,30.48,28.15,47.21-6.54-19.3-19.68-38.6-31.84-54.92-3.32-4.45-5.4-4.67-11.62-13.01Z"/>
      <path class="cls-21" d="M295.83,160.35c3.84-33.68,4.7-37.89-16.78-66.71-1.93-2.58-3.93-5.21-5.98-7.85-11.95-12.97-26.27-23.43-42.28-29.86,17.09,10.63,37.72,25.16,46.98,37.59,15.31,20.54,15.09,51.32,18.06,66.83Z"/>
      <path class="cls-30" d="M223.74,52.85c-.19-.11-.38-.22-.57-.33,4.43,4.58,8.37,9.59,12.17,14.68,2.44,3.27,4.82,6.58,7.25,9.83,6.22,8.35,8.3,8.56,11.62,13.01,12.16,16.31,25.31,35.62,31.84,54.92,3.51,8.6,6.13,17.53,7.55,26.88.14-.03.28-.06.42-.09.24-25.28-5.21-50.73-20.51-71.26-12.62-16.93-33.73-30.38-49.77-47.65Z"/>
      <path class="cls-18" d="M277.77,93.52c-9.27-12.43-29.9-26.96-46.98-37.59-1.66-.67-3.34-1.3-5.04-1.87-.66-.41-1.33-.81-2.01-1.2,16.04,17.27,37.16,30.72,49.77,47.65,15.3,20.52,20.75,45.98,20.51,71.26.04,0,.08-.02.12-.03.38-2.07.74-4.14,1.1-6.2.2-1.8.4-3.52.58-5.17-2.97-15.51-2.75-46.29-18.06-66.83Z"/>
      <path class="cls-28" d="M273.07,85.79c2.05,2.65,4.06,5.27,5.98,7.85,21.48,28.82,20.62,33.03,16.78,66.71-.19,1.65-.38,3.37-.58,5.17.25-1.47.5-2.95.73-4.42,1.89-11.74,3.23-23.49,3.21-35.11-4.49-10.25-10.16-20.05-16.84-29.02-2.9-3.9-6-7.63-9.28-11.19Z"/>
      <path class="cls-28" d="M247.02,95.67c.36,1.41.7,2.83,1.02,4.25.28.35.55.7.82,1.06,9.79,13.13,19.84,64.14,16.7,79.6,0,.08,0,.17,0,.25,2.05-.78,4.05-1.52,6.02-2.23,3.21-26.15-.6-52.48-16.12-73.29-2.51-3.36-5.32-6.58-8.46-9.63Z"/>
      <path class="cls-46" d="M246.23,92.71c.28.98.54,1.97.8,2.97,3.14,3.05,5.95,6.27,8.46,9.63,15.52,20.82,19.32,47.14,16.12,73.29,1.42-.51,2.83-1.01,4.22-1.49,8.05-8.61,17.04-25.74-12.4-65.23-3.89-5.22-10.3-12.96-17.19-19.16Z"/>
      <path class="cls-18" d="M234.28,127.33c3.02-3,6.49-6.44,9.62-10.18-1.47.85-2.9,1.9-4.41,3.02-2.99,2.23-5.72,4.73-8.19,7.45-9.77,10.75-15.59,25.01-18.04,40.06-1.94,11.93-1.77,24.35.25,35.91.09-.04.18-.08.26-.13-.16-27.02.72-56.52,20.51-76.14Z"/>
      <path class="cls-21" d="M250.17,174.72c15.3-11.4,3.67-32.3,4.46-56.96-.24-.72-.49-1.44-.74-2.15-4.06-.99-7.1-.13-9.99,1.54-3.13,3.75-6.6,7.18-9.62,10.18-19.79,19.63-20.67,49.12-20.51,76.14,2.64-1.26,5.3-2.52,7.96-3.76,1.78-5.42,5.98-9.65,10.96-13.36,5.64-4.2,12.27-7.75,17.48-11.63ZM229.08,141.04c.28-.21.65-.35,1-.18,4.05-4.96,6.44-11.63,11.64-15.51,2.84-2.11,9.38,5.89,9.95,6.66,9.78,13.12,1.43,33.46-8.47,40.84-8.71,6.49-17.8,2.77-20.84-1.3-6.76-9.08,6.33-30.23,6.72-30.52Z"/>
      <path class="cls-34" d="M257.31,179.89c-6.61,4.92-16.73,7.52-24.03,12.96-1.28.95-2.48,2-3.61,3.18,12.36-5.64,24.65-10.92,35.91-15.21-.5-14.15-2.43-31.51-6.8-48.91.32,22.9,4.91,43.22-1.46,47.97Z"/>
      <path class="cls-12" d="M250.17,174.72c-5.21,3.88-11.84,7.43-17.48,11.63-4.98,3.71-9.18,7.94-10.96,13.36,2.64-1.24,5.29-2.46,7.94-3.67,1.13-1.18,2.33-2.23,3.61-3.18,7.3-5.44,17.43-8.04,24.03-12.96,6.37-4.75,1.78-25.07,1.46-47.97-1.19-4.74-2.56-9.48-4.14-14.16-.79,24.66,10.83,45.56-4.46,56.96Z"/>
      <path class="cls-18" d="M243.19,172.87c9.91-7.38,18.25-27.72,8.47-40.84-.58-.77-7.12-8.77-9.95-6.66-5.2,3.87-7.59,10.55-11.64,15.51-.35-.18-.71-.04-1,.18-.39.29-13.49,21.44-6.72,30.52,3.04,4.08,12.13,7.79,20.84,1.3Z"/>
      <path class="cls-12" d="M172.09,75.59c-.25.28-.5.56-.75.84.13.56.28,1.12.44,1.68.31,1.07.67,2.11,1.08,3.14,11.72,15.09,25.55,28.68,43.71,36.81,5.39,2.41,10.18,5.84,14.88,9.4.54-.59,1.09-1.17,1.66-1.74-4.3-19.17-8.07-36.9-13.91-44.73-10.28-13.8-31.45-11.02-47.12-5.4ZM224.87,114.45c-2.33,1.74-24.52-2.14-35.72-17.17-3.68-4.93-6.13-10.87-6.85-17.81,12.82-1.05,20.68-9.51,33.73,7.99,3.5,4.7,13.54,23.48,8.84,26.99Z"/>
      <path class="cls-18" d="M172.86,81.25c1.41,3.62,3.39,7.04,5.78,10.25,1.5,2.01,3.15,3.95,4.92,5.83,8.57,9.1,19.99,16.57,31.74,22.72,5.35,2.8,10.75,5.32,15.99,7.59.05-.06.11-.11.16-.17-4.7-3.57-9.49-6.99-14.88-9.4-18.16-8.13-31.99-21.72-43.71-36.81Z"/>
      <path class="cls-28" d="M219.45,66.33c6.41,4.44,11.87,9.91,16.16,15.67,4.74,6.36,13.85,24.11,15.09,33.2.99.01,2.05.14,3.18.42-4.3-12.21-10-23.92-17.51-33.99-5.48-7.35-11.22-12.23-16.93-15.29Z"/>
      <path class="cls-36" d="M184.18,66.6c-2.52,1.27-4.78,2.7-6.71,4.14-1.13.84-2.2,1.74-3.22,2.68-.75.69-1.47,1.42-2.15,2.16,15.67-5.62,36.83-8.4,47.12,5.4,5.84,7.83,9.61,25.56,13.91,44.73,1.98-1.99,4.1-3.84,6.37-5.54,2.1-1.56,4.05-2.99,6.15-3.91-.27-11.53-4.45-23.49-11.49-32.94-15.4-20.65-32.9-19.51-49.97-16.71Z"/>
      <path class="cls-38" d="M219.45,66.33c-13.04-6.98-25.95-4.42-35.27.28,17.06-2.8,34.57-3.94,49.97,16.71,7.05,9.46,11.23,21.41,11.49,32.94,1.56-.68,3.21-1.09,5.07-1.07-1.24-9.08-10.36-26.84-15.09-33.2-4.29-5.76-9.75-11.23-16.16-15.67Z"/>
      <path class="cls-21" d="M182.31,79.47c.72,6.94,3.17,12.87,6.85,17.81,11.2,15.03,33.38,18.91,35.72,17.17,4.7-3.5-5.33-22.28-8.84-26.99-13.05-17.5-20.91-9.04-33.73-7.99Z"/>
      <path class="cls-38" d="M175.92,98.87c.37.47.75.94,1.13,1.41,1.22-.53,2.43-1.07,3.64-1.62-1-1.53-2.02-3.05-3.07-4.47-14.53-19.49-26.46-5.9-49.97,4.05-2.14,1.44-4.24,2.93-6.32,4.48-2.94,2.19-5.8,4.48-8.58,6.87,25.63-3.09,42.53-37.07,63.16-10.71Z"/>
      <path class="cls-49" d="M170.64,81.03s.48.72.99,1.41c1.2,1.61,2.52,3.05,3.92,4.39-1.6-2.77-2.89-5.67-3.77-8.72-.74.18-1.49.38-2.23.58-7.48,2.02-14.91,4.81-22.16,8.26,9.84-2.82,21.63-8.08,23.24-5.91Z"/>
      <path class="cls-28" d="M177.62,94.18c1.06,1.42,2.08,2.94,3.07,4.47.96-.44,1.92-.88,2.87-1.33-1.77-1.87-3.42-3.81-4.92-5.83-1.13-1.51-2.16-3.07-3.09-4.67-1.4-1.33-2.72-2.78-3.92-4.39-.51-.69-.99-1.41-.99-1.41-1.61-2.16-13.4,3.09-23.24,5.91-.06.03-.12.06-.18.09-6.71,3.2-13.27,6.97-19.56,11.21,23.5-9.94,35.44-23.54,49.97-4.05Z"/>
      <path class="cls-21" d="M110.46,111.58c-.42.38-.85.75-1.27,1.13,10.51,1.24,20.87.76,31.02-.97,4.18-.71,8.32-1.64,12.43-2.75,1.33-.36,2.65-.74,3.98-1.13-17.91,3.77-35.71,6.38-46.16,3.73Z"/>
      <path class="cls-36" d="M175.92,98.87c-20.63-26.36-37.53,7.61-63.16,10.71-.77.66-1.54,1.33-2.3,2.01,10.45,2.65,28.24.04,46.16-3.73,6.93-2.08,13.74-4.65,20.43-7.57-.38-.47-.76-.94-1.13-1.41ZM170.7,101.06c-6.46,4.82-26.1,6.88-32.1-.63.68-.71.73-1.71,1.49-2.31.14-.11.27-.21.41-.32,7.12-5.31,23.79-9.21,29.87-1.06,2.19,2.94,1.17,3.7.34,4.32Z"/>
      <path class="cls-9" d="M140.5,97.8c-.14.1-.28.21-.41.32-.76.6-.81,1.6-1.49,2.31,6,7.51,25.64,5.45,32.1.63.83-.62,1.85-1.38-.34-4.32-6.07-8.15-22.75-4.25-29.87,1.06Z"/>
      <path class="cls-38" d="M137.2,112.28s.02-.05.03-.08c-5.37.78-10.8,1.21-16.28,1.2-6.6,2.22-11.71,2.64-18.49,7.69-14.18,10.57-19.4,28.14-21.58,39.41.49-.23.98-.46,1.47-.7,3.43-13.46,12.01-24.37,23.02-32.57,14.78-11.02,22.34-11.65,31.83-14.95Z"/>
      <path class="cls-28" d="M120.95,113.4c-3.9,0-7.82-.23-11.77-.69-1.62,1.47-3.21,2.97-4.77,4.5-9.83,9.65-18.33,20.45-24.88,31.86,1.14-1.25,2.33-2.48,3.59-3.68-1.45,5.07-2.74,10.39-3.84,15.87.53-.25,1.06-.51,1.59-.76,2.18-11.27,7.4-28.84,21.58-39.41,6.78-5.05,11.89-5.47,18.49-7.69Z"/>
      <path class="cls-12" d="M137.54,112.15c-.1.02-.21.03-.31.05-.01.03-.02.05-.03.08-6.2,13.84-24.04,28.31-34.76,36.3-1,.75-2.01,1.48-3.01,2.21,1.86-1.08,3.7-2.19,5.52-3.34,3.12-1.97,6.16-4.04,9.08-6.22,10.84-8.08,20.12-17.68,26.19-29.5-.89.15-1.78.29-2.67.42Z"/>
      <path class="cls-19" d="M137.2,112.28c-9.49,3.3-17.05,3.93-31.83,14.95-11.01,8.2-19.59,19.11-23.02,32.57,5.76-2.78,11.51-5.76,17.07-9.01,1-.73,2.01-1.47,3.01-2.21,10.72-7.99,28.57-22.46,34.76-36.3ZM96.99,144.84c-5.22-7,13.27-19.15,15.9-21.64,3.66-.33,6.14-4.32,10.23-4.02.65.05,2.03.55,2.83,1.63,2.9,3.89-9.11,14.7-13,17.59-2.67,1.99-13.98,9.09-15.96,6.43Z"/>
      <path class="cls-32" d="M125.95,120.81c-.8-1.08-2.18-1.58-2.83-1.63-4.09-.3-6.57,3.69-10.23,4.02-2.63,2.49-21.11,14.64-15.9,21.64,1.98,2.66,13.29-4.44,15.96-6.43,3.88-2.9,15.9-13.7,13-17.59Z"/>
      <path class="cls-8" d="M97.11,152.12c-3.9,2.2-7.87,4.29-11.86,6.26-8.29,10.39-9.84,24.13-1.43,40.72,5.35,5.59,11.2,8.96,17.41,10.82-4.04-3.4-7.75-7.14-10.59-10.96-17.82-23.9-5.53-36.46,6.48-46.84Z"/>
      <path class="cls-49" d="M85.25,158.38c-1.98.98-3.97,1.94-5.96,2.88-1.7,8.5-2.9,17.4-3.44,26.38,1.07,2.39,2.37,4.59,3.87,6.6,1.33,1.78,2.69,3.39,4.09,4.85-8.41-16.58-6.86-30.32,1.43-40.72Z"/>
      <path class="cls-38" d="M97.19,200.03c2.45,3.29,5.31,6.43,8.22,9.45.33-1.86.65-3.72.96-5.57-.11-11,.79-27.96.92-30.54.47-9-.58-17.52-2.55-25.79-1.27.8-2.55,1.58-3.85,2.35-2.66,15.42-20.96,26.95-3.7,50.1ZM101.89,197.9c-1.61,1.2-4.61-2.03-5.81-3.65-6.71-9-4.34-21.62,2.56-30.06.6.42,1.48.36,1.88.9,8.09,10.85,3.29,31.38,1.37,32.81Z"/>
      <path class="cls-3" d="M106.37,203.9c2.22-13.03,4.03-25.93,2.84-38.37-.17-1.8-.41-3.59-.71-5.37-.74-4.3-1.88-8.54-3.55-12.71-.07.04-.13.08-.2.12,1.97,8.27,3.02,16.79,2.55,25.79-.13,2.58-1.03,19.53-.92,30.54Z"/>
      <path class="cls-28" d="M100.89,149.92c-1.25.74-2.51,1.47-3.78,2.19-12.01,10.39-24.3,22.94-6.48,46.84,2.85,3.82,6.55,7.56,10.59,10.96,1.3.39,2.61.72,3.93.98.08-.48.17-.95.25-1.43-2.91-3.01-5.76-6.15-8.22-9.45-17.26-23.15,1.04-34.68,3.7-50.1Z"/>
      <path class="cls-19" d="M96.08,194.24c1.21,1.62,4.2,4.85,5.81,3.65,1.92-1.43,6.72-21.96-1.37-32.81-.41-.54-1.28-.49-1.88-.9-6.9,8.44-9.27,21.06-2.56,30.06Z"/>
      <path class="cls-18" d="M195.07,158.02c-8.75,13.6-12.89,32.22-9.45,49.01.27,1.33.6,2.64.97,3.94-1.79-18.28,1.57-36.17,8.47-52.95Z"/>
      <path class="cls-36" d="M199.8,156.72c-.15-.67-.23-1.33-.28-1.99-.37-.46-.74-.92-1.1-1.39-1.18,1.48-2.3,3.05-3.35,4.68-6.91,16.78-10.27,34.67-8.47,52.95.49,1.72,1.05,3.41,1.71,5.07,1.49-.75,3-1.52,4.52-2.28,7.93-13.05,15.68-18.31,6.98-57.03ZM197.22,205.06c-2.1,1.56-6.04,1.71-7.79-.64-2.99-4.01-1.34-14.17-.37-20.16.44-2.72,1.93-5.48,4.3-7.25,2.53-1.88,3.45-1.49,4.38-.24,1.62,2.18,6.34,23.17-.53,28.29Z"/>
      <path class="cls-49" d="M204.82,207.81c2.87-1.4,5.77-2.81,8.69-4.21-2.02-11.56-2.19-23.98-.25-35.91-.94-.65-1.86-1.33-2.77-2.04,3.07,14.96.26,32.94-5.67,42.16Z"/>
      <path class="cls-19" d="M199.8,156.72c8.7,38.73.95,43.98-6.98,57.03,2.16-1.08,4.35-2.18,6.56-3.27,11.03-13.16,13.87-32.25,8.61-46.89-3.04-2.65-5.87-5.63-8.47-8.87.04.66.13,1.32.28,1.99Z"/>
      <path class="cls-38" d="M199.39,210.48c1.79-.89,3.6-1.78,5.43-2.67,5.93-9.23,8.75-27.2,5.67-42.16-.85-.66-1.67-1.34-2.49-2.05,5.26,14.64,2.42,33.73-8.61,46.89Z"/>
      <path class="cls-9" d="M193.37,177.01c-2.37,1.77-3.86,4.53-4.3,7.25-.98,5.99-2.62,16.15.37,20.16,1.75,2.35,5.69,2.2,7.79.64,6.87-5.12,2.15-26.11.53-28.29-.93-1.25-1.85-1.65-4.38.24Z"/>
      <path class="cls-38" d="M66.63,169.04c-11.13,26.14-5.24,56.91,11.96,79.99,5.76,7.72,13.86,15.92,23.19,21.65-1.24-1.16-2.43-2.36-3.58-3.59-5.52-3.39-10.85-6.78-17.08-15.14-17.46-23.42-21.61-54.66-14.49-82.92Z"/>
      <path class="cls-18" d="M84.55,246.01c-7.71-17.5-9.91-38.15-8.7-58.37.54-8.98,1.74-17.88,3.44-26.38,1.09-5.48,2.39-10.8,3.84-15.87-.48.46-.95.93-1.41,1.4-9.12,30.77-13.27,69.73,2.83,99.23Z"/>
      <path class="cls-32" d="M81.72,146.78c-.75.75-1.48,1.51-2.18,2.28-4.95,5.41-8.84,11.27-11.76,17.42-.4.85-.78,1.7-1.15,2.56-7.12,28.26-2.97,59.5,14.49,82.92,6.23,8.36,11.56,11.75,17.08,15.14-1.71-1.85-3.32-3.77-4.81-5.78-3.52-4.73-6.45-9.87-8.84-15.31-16.1-29.5-11.95-68.46-2.83-99.23Z"/>
      <path class="cls-45" d="M115.92,165.63c9.62,4.21,18.94,6.08,27.95,11.24-.42-.31-.85-.62-1.28-.93-8.03-5.66-17.07-9.46-26.66-10.31Z"/>
      <path class="cls-8" d="M118.38,198.55c-6.28-8.43-5.82-21.24-8.06-30.34-.23-.94-.5-1.84-.8-2.7-.1,0-.2,0-.31.01.14,1.43.22,2.86.28,4.3,2.47,12.29-.36,29.51,4.44,35.94,4.36,5.85,15.04.88,27.5,3.1,3.1-.55,6.21-1.12,9.32-1.63-13.8-.73-25.46.6-32.37-8.68Z"/>
      <path class="cls-49" d="M113.93,205.77c-4.8-6.44-1.96-23.66-4.44-35.94.57,13.35-1.9,27.17-4.33,41.07,11.34,2.26,23.72.21,36.27-2.03-12.47-2.22-23.14,2.75-27.5-3.1Z"/>
      <path class="cls-38" d="M152.94,160.72c-3.11,2.9-5.79,6.1-7.78,9.53,1.12,1.66,2.29,3.37,3.54,5.05,10.49,14.07,21.21,14.69,28.64,9.16,8.32-6.2,7.52-14.88,19.28-33.53-.56-.8-1.12-1.64-1.69-2.51-14.49-1.02-29.51,4.38-42,12.32Z"/>
      <path class="cls-45" d="M154.58,185.05c-3.52-3.5-7.09-6.1-10.71-8.18,2.47,1.83,4.83,3.83,7.09,5.97,3.44,3.28,6.62,6.89,9.47,10.71,2.79,3.75,5.28,7.7,7.41,11.74.29-.01.59-.01.88-.02-2.4-4.61-5.02-9.09-8.13-13.27-1.98-2.66-3.98-4.95-6-6.96Z"/>
      <path class="cls-32" d="M193.12,145.45c-9.36-.7-20.46.14-35.37,11.25-1.69,1.26-3.3,2.6-4.81,4.01,12.5-7.94,27.52-13.34,42-12.32-.61-.94-1.22-1.92-1.82-2.94Z"/>
      <path class="cls-49" d="M154.58,185.05c2.02,2,4.02,4.3,6,6.96,3.11,4.17,5.73,8.65,8.13,13.27,5.76-.16,11.43.28,16.92,1.75-.46-2.25-.78-4.53-.98-6.82-.35.4-.71.76-1.11,1.06-6.21,4.63-17.14-8.37-28.96-16.21Z"/>
      <path class="cls-8" d="M196.63,150.91c-11.77,18.65-10.96,27.33-19.28,33.53-7.43,5.54-18.16,4.91-28.64-9.16-1.25-1.68-2.42-3.39-3.54-5.05-1.07,1.84-1.95,3.75-2.57,5.7.43.3.86.61,1.28.93,3.62,2.07,7.19,4.68,10.71,8.18,11.81,7.84,22.74,20.84,28.96,16.21.39-.29.76-.65,1.11-1.06-1.45-16.92,4.09-34.75,13.77-46.87-.26-.34-.52-.68-.78-1.02-.34-.45-.68-.92-1.02-1.41Z"/>
      <path class="cls-49" d="M143.54,118.62c3.77-2.81,8.41-4.15,13.29-4.51-.89-.87-1.74-1.81-2.54-2.82-4.33.4-8.42,1.32-11.88,3.9-7.33,5.46-18.49,22.44-30.36,31.5-4.33,3.3-3.5,8.42-1.96,13.4.94-.06,1.89-.13,2.84-.21,6.87-18.44,19.55-33,30.61-41.25Z"/>
      <path class="cls-31" d="M112.05,146.67c11.87-9.05,23.04-26.03,30.36-31.5,3.46-2.58,7.55-3.49,11.88-3.9-.18-.23-.36-.46-.53-.69-.39-.52-.75-1.06-1.12-1.61-4.11,1.11-8.25,2.04-12.43,2.75-6.07,11.83-15.35,21.42-26.19,29.5-2.92,2.18-5.97,4.24-9.08,6.22,1.67,4.17,2.82,8.41,3.55,12.71.53-.02,1.06-.05,1.6-.08-1.54-4.98-2.37-10.1,1.96-13.4Z"/>
      <path class="cls-8" d="M141.53,127.09c-10.17,7.58-17.43,20.75-22.91,32.12.72-.1,1.44-.21,2.16-.33.02-.01.03-.03.05-.04,9.37-6.99,18.61-1.68,37.33-15.63,5.81-4.33,11.14-9.44,16.57-14.41.74-1.11,1.42-2.2,2.03-3.27-9.52-2.3-18.82-10.68-35.24,1.56Z"/>
      <path class="cls-9" d="M120.83,158.85s-.03.03-.05.04c14.49-2.35,29.29-7.75,40.75-16.3,5.83-4.34,10.11-9.18,13.2-13.78-5.43,4.97-10.76,10.08-16.57,14.41-18.72,13.96-27.96,8.65-37.33,15.63Z"/>
      <path class="cls-37" d="M112.93,159.86c1.88-.16,3.78-.38,5.69-.65,5.47-11.38,12.74-24.54,22.91-32.12,16.42-12.24,25.72-3.86,35.24-1.56.35-.61.68-1.21.99-1.81-7.88-1.21-15.29-4.11-20.92-9.62-4.88.36-9.52,1.7-13.29,4.51-11.06,8.24-23.74,22.81-30.61,41.25Z"/>
      <path class="cls-28" d="M221.08,142.75c2.75-5.52,6.14-10.63,10.22-15.12-5.24-2.27-10.65-4.79-15.99-7.59-.47.14-.95.29-1.44.43,1.46,1.07,2.77,2.32,3.87,3.81,3.77,5.06,4.32,11.6,3.34,18.47Z"/>
      <path class="cls-19" d="M213.87,120.47c-7.28,2.13-16.83,3.98-26.45,3.97-1.04,0-2.09-.03-3.13-.08.55.27,1.12.51,1.7.73,9.94,3.78,23.08.37,27.29,6.02,2.31,3.1-.1,16.65,1.17,30.46,1.51-6.59,3.7-12.94,6.63-18.83.98-6.88.43-13.42-3.34-18.47-1.1-1.48-2.41-2.74-3.87-3.81Z"/>
      <path class="cls-36" d="M185.99,125.09c-.58-.22-1.14-.46-1.7-.73-.44-.02-.89-.04-1.33-.06.18.5.38,1.01.57,1.52.07.18.14.35.21.53,5.02,7.18,8.76,15.19,13.83,22.31.09.12.18.25.27.37.21.3.42.59.64.88,6.02,8.08,10.75,13.61,14.83,17.48.32-1.95.71-3.89,1.15-5.81-1.26-13.81,1.14-27.36-1.17-30.46-4.21-5.65-17.35-2.24-27.29-6.02Z"/>
      <path class="cls-21" d="M197.84,149.03c-.09-.12-.18-.25-.27-.37-5.06-7.12-8.81-15.13-13.83-22.31,2.45,6.27,5.88,13.25,9.37,19.11.61,1.02,1.22,2,1.82,2.94.57.88,1.13,1.72,1.69,2.51.34.49.68.96,1.02,1.41.26.34.52.68.78,1.02,4.31,5.6,9.26,10.53,14.83,14.35.02-.1.03-.2.05-.3-4.08-3.87-8.81-9.4-14.83-17.48-.22-.29-.43-.59-.64-.88Z"/>
      <path class="cls-36" d="M189.29,109.54c8.23,3.36,16.38,7.3,24.73,9.81-2.57-1.37-5.12-2.8-7.62-4.3-13.76-5.1-19.53-14.58-28.27-12.43-5.37,1.32-10.75,3.79-16.29,3.54-2.91.98-5.84,1.89-8.79,2.69,10.94,3.32,21.34-5.4,36.24.68Z"/>
      <path class="cls-30" d="M154.07,110.99c5.84,7.57,14.44,11.31,23.69,12.74,1.72.26,3.46.45,5.21.57,11.3.74,22.98-1.45,31.43-3.98-18.03,3.51-37.21,8.26-60.33-9.32Z"/>
      <path class="cls-9" d="M214.02,119.35c-8.35-2.51-16.49-6.45-24.73-9.81-14.9-6.08-25.3,2.65-36.24-.68-.13.04-.27.08-.4.11.36.55.73,1.09,1.12,1.61.1.14.21.27.31.4,23.12,17.59,42.3,12.84,60.33,9.32.31-.09.62-.18.91-.27-.43-.23-.86-.46-1.29-.69Z"/>
      <path class="cls-49" d="M111,160.01c-.84.06-1.68.11-2.51.14,0,.03,0,.05.01.08,9.02,4.25,32.14,9.81,38.25,5.26,3.17-2.36,5.07-4.97,9.02-7.92,1.8-1.34,3.72-2.49,5.7-3.48,11.51-7.6,20.67-9.01,28.53-8.8-20.54-10-47.54,20.03-79.01,14.72Z"/>
      <path class="cls-31" d="M146.75,165.5c-6.11,4.55-29.23-1.01-38.25-5.26.3,1.75.53,3.52.7,5.29,12.08-.7,23.5,3.45,33.38,10.42,2.36-7.37,8.16-14.02,15.17-19.24,1.27-.95,2.51-1.81,3.72-2.61-1.98.99-3.9,2.14-5.7,3.48-3.95,2.95-5.86,5.56-9.02,7.92Z"/>
      <path class="cls-1" d="M177.76,123.73c-3.08,5.96-8.19,12.87-16.22,18.86-7.22,5.38-15.76,9.52-24.72,12.43,11.76-2.17,27.42-12.12,29.6-13.74,2.33-1.73,4.59-3.67,6.89-5.38,4.14-3.08,8.27-4.93,12.5-4.61-1.06-2.39-2.02-4.75-2.84-6.98-1.75-.11-3.49-.3-5.21-.57Z"/>
      <path class="cls-31" d="M166.42,141.27c-2.18,1.63-17.85,11.57-29.6,13.74-8.5,2.76-17.36,4.42-25.82,5,31.47,5.31,58.47-24.72,79.01-14.72,1.06.03,2.09.08,3.11.16-2.6-4.36-5.16-9.34-7.31-14.18-4.23-.32-8.36,1.53-12.5,4.61-2.3,1.71-4.56,3.65-6.89,5.38Z"/>
      <path class="cls-49" d="M190.1,103.52c-2.32-1.98-4.51-4.04-6.54-6.19-6.69,3.16-13.51,6.01-20.45,8.41,4.52,1.03,14.09-10.25,26.99-2.21Z"/>
      <path class="cls-19" d="M163.11,105.73c-.43.15-.85.3-1.28.44,5.54.25,10.92-2.22,16.29-3.54,8.75-2.15,14.52,7.33,28.27,12.43-5.79-3.47-11.34-7.31-16.3-11.54-12.89-8.04-22.47,3.24-26.99,2.21Z"/>
      <path class="cls-38" d="M125.48,188.57c-2.99-4.01-6.68-12.54-13.47-21.65-.36-.49-.73-.97-1.11-1.45-.46,0-.92.02-1.38.05.3.85.56,1.75.8,2.7,2.25,9.1,1.78,21.91,8.06,30.34,6.92,9.28,18.57,7.95,32.37,8.68,5.72-.95,11.44-1.72,17.08-1.94-.01-.03-.03-.05-.04-.08-12.68-1.28-31.99-2.8-42.31-16.65Z"/>
      <path class="cls-39" d="M150.95,182.84c-2.25-2.14-4.62-4.14-7.09-5.97-9.01-5.15-18.32-7.03-27.95-11.24-1.34-.12-2.69-.17-4.06-.17-.26,0-.53,0-.79,0-.06,0-.12,0-.17,0,.37.48.74.96,1.11,1.45,6.79,9.11,10.48,17.64,13.47,21.65,10.32,13.85,29.63,15.37,42.31,16.65-2.12-4.02-4.59-7.95-7.36-11.67-2.85-3.83-6.03-7.43-9.47-10.71Z"/>
      <path class="cls-17" d="M38.87,186.36c-6.47,26.97,3.48,55.32,25.22,84.48,12.11,16.24,27.33,29.66,44.91,36.81-11.18-8.6-25.49-12.65-50.65-46.4-12.75-17.1-23.19-47.69-19.48-74.89Z"/>
      <path class="cls-33" d="M116.89,310.38c3.64,1.04,7.37,1.82,11.19,2.3,1.59.64,3.23.95,4.93.82-10.58-6.81-20.66-14.64-30.26-22.77,2.17,3.76,4.1,7.16,7.94,12.31,1.93,2.59,4,5.07,6.2,7.34Z"/>
      <path class="cls-33" d="M81.44,129.46c-2.1,1.57-4.12,3.15-6.06,4.73-8.4,23.94-40.92,63.96-.1,118.73,5.49,7.37,11.4,14.39,16.9,21.76,3.68,4.94,6.08,8.56,7.95,11.61,2.6.41,5.26.71,7.98.9.15-.69.32-1.38.49-2.05-.29-.43-.59-.86-.91-1.28-6.94-9.31-16.33-13.8-28.42-30.02-46.42-62.28-4.34-97.6,14.5-132.68-1.14.64-2.34,1.36-3.62,2.19-2.54,1.64-5.39,3.65-8.69,6.11Z"/>
      <path class="cls-7" d="M79.26,253.84c12.09,16.22,21.48,20.7,28.42,30.02.32.42.62.85.91,1.28.64-2.53,1.4-4.97,2.29-7.31-3.3-2.17-6.33-4.55-9.1-7.14-9.33-5.73-17.43-13.93-23.19-21.65-17.77-23.84-23.46-55.88-10.81-82.55,2.92-6.15,6.81-12.01,11.76-17.42,6.55-11.41,15.06-22.21,24.88-31.86-3.42.55-6.7,1.74-10.66,3.96-18.83,35.08-60.92,70.4-14.5,132.68Z"/>
      <path class="cls-42" d="M162.1,70.67c-16.01-2.4-33.79-.08-50.79,12.45-.11.08-.22.16-.34.24-10.01,7.46-20.74,17.79-22.45,28.86,6.37-9.33,10.36-19.36,23.33-29.02,14.26-10.63,26.99-12.37,50.25-12.53Z"/>
      <path class="cls-16" d="M167.36,71.63c-1.49,1.32-3.04,2.58-4.64,3.78-17.41,12.98-27.55,11.44-37.12,18.57-5.95,4.44-11.75,10.57-17.99,15.23-5.87,4.38-12.13,7.44-19.29,6.54.03.95.12,1.9.3,2.85,3.48.95,7.4.54,10.12-1.49,6.43-4.8,12.5-9.77,18.83-14.48,29-21.62,36.75-17.32,51.59-28.38.72-.54,1.43-1.1,2.11-1.67-.2-.05-.41-.11-.61-.17-1.09-.28-2.19-.54-3.29-.78Z"/>
      <path class="cls-35" d="M125.6,93.99c9.57-7.13,19.71-5.6,37.12-18.57,1.6-1.2,3.15-2.46,4.64-3.78-1.73-.37-3.48-.7-5.25-.97-23.25.16-35.98,1.9-50.25,12.53-12.97,9.66-16.96,19.7-23.33,29.02-.18,1.17-.25,2.35-.22,3.53,7.16.9,13.42-2.16,19.29-6.54,6.24-4.65,12.04-10.79,17.99-15.23ZM95.93,109.54c-.87-1.17-1.65-10.01,9.68-18.45,4.49-3.35,9.7-6.09,13.83-8.84.68-.45,1.48-.72,2.41-.8,1.6-.12,3.25.6,4.1,1.75,2.34,3.14-5.67,15.7-13.11,21.25-7.79,5.8-16.19,6.06-16.91,5.1Z"/>
      <path class="cls-24" d="M117.56,102.63c-6.32,4.71-12.39,9.69-18.83,14.48-2.72,2.03-6.64,2.44-10.12,1.49.29,1.58.78,3.16,1.52,4.75,5.7-3.67,9.88-5.44,14.28-6.15,1.56-1.53,3.15-3.03,4.77-4.5,3.89-3.52,7.95-6.87,12.15-10,8.17-6.09,16.88-11.39,25.88-15.69,7.31-3.49,14.8-6.31,22.35-8.34.74-.2,1.48-.39,2.23-.58-.16-.55-.31-1.11-.44-1.68.9-1.05,1.87-2.05,2.9-3-.98-.3-1.98-.58-2.98-.84-.68.58-1.39,1.13-2.11,1.67-14.84,11.06-22.59,6.76-51.59,28.38Z"/>
      <path class="cls-15" d="M125.95,83.2c-.85-1.15-2.5-1.87-4.1-1.75-.93.07-1.73.34-2.41.8-4.13,2.75-9.33,5.49-13.83,8.84-11.33,8.45-10.55,17.29-9.68,18.45.72.96,9.12.71,16.91-5.1,7.44-5.55,15.45-18.11,13.11-21.25Z"/>
      <path class="cls-47" d="M297.58,105.69c-.05-.33-.11-.66-.16-.98-5.06-9.87-6.11-20.44-8.84-24.11-1.51-2.02-2.83-1.57-3.97-.85-.23.69-.43,1.48-.61,2.34.63,4.4-.55,10.03,4.36,16.61,1.86,2.5,6.33,7.54,9.23,7Z"/>
      <path class="cls-13" d="M288.57,80.6c2.73,3.67,3.79,14.24,8.84,24.11-1.26-7.2-3.27-14.33-6.22-21.34-.93-2.2-1.95-4.4-3.07-6.58-.64-.26-1.27-.25-1.87.2-.69.51-1.22,1.48-1.65,2.76,1.14-.71,2.46-1.17,3.97.85Z"/>
      <path class="cls-49" d="M283.78,97.52c-.41-.55-.83-1.09-1.26-1.62-.03.39-.06.79-.1,1.18,6.65,8.94,12.29,18.7,16.76,28.91,0-3.36-.13-6.72-.38-10.06-2.42-1.08-4.64-3.31-6.41-5.68-3.02-4.05-5.54-8.61-8.61-12.72Z"/>
      <path class="cls-6" d="M288.35,98.69c-4.91-6.58-3.73-12.21-4.36-16.61-.24,1.18-.44,2.49-.6,3.88-.31,2.6-.52,5.5-.74,8.34,1.49,2.18,2.89,4.44,4.44,6.53,2.02,2.72,8.2,9.03,10.81,7.09,0,0,.01-.01.02-.02-.11-.74-.22-1.47-.34-2.21-2.89.54-7.36-4.5-9.23-7Z"/>
      <path class="cls-40" d="M287.09,100.82c-1.56-2.09-2.95-4.35-4.44-6.53-.04.54-.08,1.08-.13,1.61.43.53.85,1.07,1.26,1.62,3.07,4.12,5.59,8.67,8.61,12.72,1.77,2.37,3.99,4.6,6.41,5.68-.2-2.69-.5-5.37-.88-8.04,0,0-.01.01-.02.02-2.61,1.94-8.78-4.37-10.81-7.09Z"/>
      <path class="cls-42" d="M75.38,134.19c-20.46,16.66-32.17,34.1-36.51,52.17-3.71,27.2,6.73,57.79,19.48,74.89,25.16,33.76,39.47,37.81,50.65,46.4,2.58,1.05,5.21,1.96,7.89,2.73-2.21-2.27-4.27-4.75-6.2-7.34-3.84-5.15-5.77-8.55-7.94-12.31-1.96-1.66-3.89-3.32-5.81-5,1.05.21,2.11.39,3.18.56-1.87-3.05-4.27-6.67-7.95-11.61-5.5-7.37-11.4-14.39-16.9-21.76-40.82-54.76-8.3-94.78.1-118.73ZM58.44,236.73c-.3.22-.67.35-1.09.31-1.7-.15-2.84-1.46-3.75-2.61-.3-.38-.59-.76-.88-1.15-17.71-23.76-12.94-57.4.04-67.08.51-.38,1.47.31,2.3,1.42.95,1.28,1.73,3.12,1.42,4.53-7.99,36.74,1.95,64.58,1.95,64.58Z"/>
      <path class="cls-17" d="M56.49,172.16c.31-1.41-.47-3.25-1.42-4.53-.83-1.11-1.79-1.8-2.3-1.42-12.98,9.68-17.75,43.32-.04,67.08.29.39.58.77.88,1.15.91,1.15,2.05,2.47,3.75,2.61.41.04.79-.09,1.09-.31,0,0-9.95-27.83-1.95-64.58Z"/>
      <path class="cls-30" d="M53.97,292.82c4.26,5.06,8.67,9.99,13.22,14.71,5.01,5.19,10.2,10.13,15.56,14.69,15.27,12.99,31.94,22.97,49.98,27.36,2.45.6,4.93,1.08,7.43,1.46-38.56-13.06-67.39-34.49-83.71-56.36-.83-.61-1.66-1.23-2.48-1.86Z"/>
      <path class="cls-45" d="M144.73,351.6c3.13.3,6.29.45,9.5.39-3.36-1.55-6.69-3.31-10-5.3,0,.02,0,.04.01.06,0-.02,0-.04-.01-.06-2.06-1.24-4.1-2.56-6.14-3.98.4-.4.8-.8,1.2-1.2.88-.86,1.76-1.67,2.59-2.42-.28-.54-.59-1.05-.95-1.53,0,0-8.47-4.19-21.22-11.29-17.4-5.61-34.48-13.16-50.04-22.72,27.37,17.66,44.54,18.95,62.87,36.65,4.01,3.87,8,7.81,12.17,11.38Z"/>
      <path class="cls-42" d="M144.73,351.6c-4.17-3.58-8.16-7.51-12.17-11.38-18.34-17.7-35.51-18.99-62.87-36.65-4.55-2.79-8.97-5.76-13.23-8.9,16.33,21.87,45.15,43.3,83.71,56.36,1.51.23,3.04.42,4.57.57Z"/>
      <path class="cls-27" d="M141.89,339.1c1.59-1.43,3-2.58,3.85-3.22s1.72-1.23,2.6-1.82c.12-.08.25-.17.37-.25-9.63-1.92-19.36-4.43-28.99-7.53,12.75,7.09,21.22,11.29,21.22,11.29.35.47.66.98.95,1.53Z"/>
      <path class="cls-28" d="M363.66,212.33c-1.26,2.27-2.56,4.53-3.9,6.78-5.75,9.69-12.17,19.28-18.91,28.65,1.19-.19,2.39-.34,3.61-.46.72-.07,1.45-.13,2.18-.17.97-.06,1.95-.09,2.94-.09-3.6-7.57,6.85-17.41,14.09-34.71Z"/>
      <path class="cls-18" d="M380.5,195.44c1.82-7.37,3.17-15.19,3.86-23.2-4,21.92-12.23,45.18-19.42,61.29,5.96-9.33,11.77-22.75,15.56-38.09Z"/>
      <path class="cls-10" d="M384.36,149.57c-.36,8.28-1.92,16.72-4.42,25.22-5.41,28.71-27.74,51.66-24.02,69.57,2.88-2.34,5.97-6.05,9.02-10.84,7.18-16.12,15.41-39.38,19.42-61.29.46-5.35.62-10.79.41-16.25-.08-2.14-.21-4.28-.41-6.41Z"/>
      <path class="cls-5" d="M379.94,174.79c-3.63,12.49-9.29,25.12-16.22,37.63-7.21,17.35-17.65,27.2-14.02,34.8,1.01,0,2.03.02,3.06.07.01,0,.03,0,.04,0,.01-.02.02-.04.03-.07.98-.84,1.87-1.64,2.53-2.13.23-.17.46-.36.7-.55-3.78-17.99,18.53-40.96,23.87-69.76Z"/>
    </g>
  </g>
</svg>