<?xml version="1.0" encoding="UTF-8"?>
<svg id="Layer_2" data-name="Layer 2" xmlns="http://www.w3.org/2000/svg" viewBox="0 0 474.38 405.96">
  <defs>
    <style>
      .cls-1 {
        fill: #f1e6eb;
      }

      .cls-2 {
        fill: #ebdde6;
      }

      .cls-3 {
        fill: #fdfdfe;
      }

      .cls-4 {
        fill: #f3e6eb;
      }

      .cls-5 {
        fill: #eddfe5;
      }

      .cls-6 {
        fill: #ebdfe7;
      }

      .cls-7 {
        fill: #fbf8fa;
      }

      .cls-8 {
        fill: #cfabc3;
      }

      .cls-9 {
        fill: #e5d0d9;
      }

      .cls-10 {
        fill: #e9d7df;
      }

      .cls-11 {
        fill: #d5b5cb;
      }

      .cls-12 {
        fill: #dac0ce;
      }

      .cls-13 {
        fill: #f9f7f9;
      }

      .cls-14 {
        fill: #d8bccc;
      }

      .cls-15 {
        fill: #f0e2e9;
      }

      .cls-16 {
        fill: #e4cfd8;
      }

      .cls-17 {
        fill: #f7f5f7;
      }

      .cls-18 {
        fill: #e0c9d6;
      }

      .cls-19 {
        fill: #fff;
      }

      .cls-20 {
        fill: #bf93b3;
      }

      .cls-21 {
        fill: #f8f1f4;
      }

      .cls-22 {
        fill: #c398b7;
      }

      .cls-23 {
        fill: #ecdee8;
      }

      .cls-24 {
        fill: #e9d3db;
      }

      .cls-25 {
        fill: #f8f0f2;
      }

      .cls-26 {
        fill: #f6eff3;
      }

      .cls-27 {
        fill: #eedde2;
      }

      .cls-28 {
        fill: #f2e8f1;
      }

      .cls-29 {
        fill: #faf6f7;
      }

      .cls-30 {
        fill: #f5edf1;
      }

      .cls-31 {
        fill: #e3cbd4;
      }

      .cls-32 {
        fill: #b588a7;
      }

      .cls-33 {
        fill: #f9f6fa;
      }

      .cls-34 {
        fill: #f0e4e9;
      }

      .cls-35 {
        fill: #ead7de;
      }

      .cls-36 {
        fill: #eadde4;
      }

      .cls-37 {
        fill: #d9bdcd;
      }

      .cls-38 {
        fill: #d3b5c6;
      }

      .cls-39 {
        fill: #f9f8fc;
      }

      .cls-40 {
        fill: #dec2ce;
      }

      .cls-41 {
        fill: #eadae2;
      }

      .cls-42 {
        fill: #cca5bf;
      }

      .cls-43 {
        fill: #c69eb9;
      }

      .cls-44 {
        fill: #e6d1d9;
      }

      .cls-45 {
        fill: #f3eaf0;
      }

      .cls-46 {
        fill: #f2e6ea;
      }
    </style>
  </defs>
  <g id="flower">
    <g>
      <path class="cls-35" d="M223.71,105.08c-3.06,20.09-34.51,20.66-37.49,40.28-.84,5.52.1,9.93-1.08,17.67-.82,5.4-3.08,12.96-3.1,13.11-.23,1.53-.08,3.07.37,4.51.15,0,.29,0,.44-.01.59-3.85,2.57-6.07,3.46-11.94,1.1-7.26-.3-15.75.78-22.81,1.41-9.28,25.42-22.18,25.87-22.5,12.83-9.23,13-18.64,17.08-23.29-1.12-1.99-2.3-3.93-3.56-5.81-.85,1.46-1.68,3.56-2.32,7.76-.15,1.02-.29,2.03-.44,3.04Z"/>
      <path class="cls-24" d="M187.09,145.89c-1.07,7.06.33,15.55-.78,22.81-.89,5.87-2.87,8.1-3.46,11.94.42-.01.83-.03,1.25-.05,0-.07,0-.13.02-.2.6-3.91,3.81-13.15,4.89-20.29.81-5.35.26-6.57.88-10.61,1-6.56,4.22-12.71,11.4-16.16,27.85-13.39,20.47-24.75,31.08-28.8-.73-1.51-1.51-2.99-2.33-4.45-4.08,4.65-4.25,14.06-17.08,23.29-.44.32-24.46,13.22-25.87,22.5Z"/>
      <path class="cls-16" d="M201.28,133.34c-7.17,3.45-10.4,9.6-11.4,16.16-.61,4.04-.06,5.26-.88,10.61-1.09,7.14-4.3,16.37-4.89,20.29,0,.07-.01.13-.02.2.75-.04,1.5-.09,2.25-.16-.36-1.37-.32-2.98-.08-4.53.61-3.99,2.25-5.12,3.29-11.94.75-4.96.54-8.52,1.24-13.14.91-6,3.14-11.81,9.21-14.09,29.78-11.17,20.74-27.81,33.57-29.58-.39-.88-.79-1.75-1.21-2.61-10.62,4.04-3.23,15.4-31.08,28.8Z"/>
      <g>
        <path class="cls-35" d="M188.33,179.62c-.06.07-.12.14-.18.22.05-.04.11-.08.16-.13,0-.03.01-.06.02-.09Z"/>
        <polygon points="185.78 182.21 189.06 178.12 188.71 179.7 188.33 179.62 188.7 179.74 188.68 179.88 188.45 180.09 185.78 182.21"/>
      </g>
      <path class="cls-41" d="M182.04,176.14c.02-.15,2.28-7.72,3.1-13.11,1.18-7.74.24-12.15,1.08-17.67,2.98-19.62,34.44-20.19,37.49-40.28.15-1,.29-2.02.44-3.04.64-4.2,1.47-6.31,2.32-7.76-1.88-2.81-3.92-5.51-6.1-8.09,2.04,4.93,2.87,10.61,2.08,15.83-3.21,21.12-33.88,18-36.79,37.09-.56,3.66.6,9.22-1.04,19.95-1.33,8.77-3.95,15.93-7.65,21.49,1.81.12,3.62.16,5.44.11-.45-1.44-.6-2.98-.37-4.51Z"/>
      <path class="cls-42" d="M207.81,147.22c-8.58,6.37-4.81,17.21-11.52,26.87.76-.48,1.49-.94,2.21-1.38,1.56-2.03,3.3-3.99,4.97-5.95,3.2-3.77,2.72-8.72,5.38-12.47,3.2-4.5,8.28-6.9,12.15-11.07,4.13-4.46,7.28-9.94,11.52-14,.48-.83.97-1.66,1.46-2.48.98-1.65,2.21-3.42,3.65-5.29-6.45,1.45-8.54,9.97-29.82,25.77Z"/>
      <path class="cls-8" d="M204.95,143.71c-4.09,1.2-5.79,4.63-6.37,8.41-.65,4.27.29,8.02-.49,13.18-1.2,7.92-4.75,8.2-9.76,14.32,0,.03-.01.06-.02.09,2.82-2.2,5.51-4.04,7.98-5.62,6.7-9.67,2.94-20.5,11.52-26.87,21.29-15.8,23.37-24.32,29.82-25.77.2-.26.4-.52.61-.78-.16-.62-.32-1.24-.49-1.85-.31-.15-.68-.28-1.14-.35-11.29-1.72-6.68,17.93-31.66,25.25Z"/>
      <path class="cls-38" d="M233.41,113.35c-2.14-.32-5.87,2.13-7.01,7.44-4.68,21.77-30.05,18.14-31.76,29.36-.46,3.02.9,4.82-.05,11.08-1.22,8-5.64,15.52-6.26,18.39,5.01-6.12,8.55-6.4,9.76-14.32.78-5.16-.16-8.92.49-13.18.57-3.78,2.27-7.21,6.37-8.41,24.98-7.32,20.37-26.96,31.66-25.25.46.07.83.2,1.14.35-.18-.66-.38-1.32-.57-1.98-1.1-1.53-2.16-3.24-3.77-3.48Z"/>
      <path class="cls-40" d="M204.35,137.56c-8.45,1.8-11.06,8.25-12.2,15.73-.76,4.98-.86,10.41-1.59,15.22-1.02,6.68-3.27,7.85-3.81,11.38-.03.17-.04.35-.05.52.28-.02.55-.05.83-.07.21-.17.42-.33.63-.5.06-.07.12-.14.18-.22.61-2.87,5.04-10.39,6.26-18.39.95-6.26-.41-8.06.05-11.08,1.71-11.21,27.07-7.59,31.76-29.36,1.14-5.31,4.88-7.76,7.01-7.44,1.6.24,2.67,1.95,3.77,3.48-.75-2.48-1.61-4.89-2.57-7.25-10.69,1.52-8.34,23.31-30.26,27.97Z"/>
      <path class="cls-31" d="M200.01,136.73c-6.07,2.28-8.3,8.09-9.21,14.09-.7,4.63-.48,8.18-1.24,13.14-1.04,6.82-2.68,7.96-3.29,11.94-.24,1.55-.27,3.16.08,4.53.12,0,.23-.02.35-.03.01-.17.03-.34.05-.52.54-3.54,2.79-4.7,3.81-11.38.73-4.81.83-10.24,1.59-15.22,1.14-7.48,3.75-13.93,12.2-15.73,21.92-4.66,19.57-26.45,30.26-27.97-.33-.82-.67-1.63-1.03-2.43-12.83,1.78-3.79,18.41-33.57,29.58Z"/>
      <path class="cls-27" d="M176.98,180.55c3.7-5.57,6.32-12.72,7.65-21.49,1.63-10.73.48-16.29,1.04-19.95,2.9-19.09,33.57-15.96,36.79-37.09.79-5.22-.04-10.9-2.08-15.83-4.58-5.43-9.81-10.37-15.52-14.81,7.12,8.48,16.28,21.61,14.9,30.71-2.68,17.6-32.25,14.69-36.45,42.33-.68,4.46-.82,7.86-1.23,10.59-1.89,12.45-7.24,23-19.22,22.82,3.26,1,6.57,1.76,9.89,2.26,1.41.21,2.82.36,4.24.46Z"/>
      <path class="cls-15" d="M113.17,82.21c.66.92,1.31,1.83,1.95,2.72-.57-.98-1.25-1.86-1.95-2.72Z"/>
      <path class="cls-15" d="M182.07,155.01c.42-2.73.56-6.13,1.23-10.59,4.2-27.65,33.77-24.73,36.45-42.33,1.38-9.1-7.78-22.24-14.9-30.71-18.91-14.72-43.22-24.02-67.85-27.76-40.98-6.23-36.62.28-38.45,12.28-9.46,62.24,24.62,109.82,64.29,121.94,11.97.18,17.32-10.37,19.22-22.82ZM104.34,46.5c12.7-1.13,26.42-.94,39.85,1.1,54.83,8.34,71.65,43.6,70.52,51.02-1.81,11.92-16.95,17.92-20,20.46-5.89,4.9-6.96,13.01-22.31,10.67-33.05-5.03-67-62.17-68.06-83.25ZM102.03,77.66c.31-2.01,1.49-3.14,4.22-2.72,1.28.19,2.53.81,3.06,1.91,1.01,2.11,2.49,3.7,3.87,5.37.71.86,1.38,1.74,1.95,2.72,48.66,67,67.32,39.36,63.1,67.12-1.88,12.35-9.98,20.39-25.67,18.01-23.92-3.64-56.64-52.26-50.53-92.4Z"/>
      <path class="cls-4" d="M194.71,119.08c3.05-2.54,18.19-8.54,20-20.46,1.13-7.42-15.69-42.68-70.52-51.02-13.42-2.04-27.15-2.23-39.85-1.1,1.06,21.08,35.01,78.23,68.06,83.25,15.36,2.34,16.42-5.77,22.31-10.67ZM125.28,51.78c6.87-1.1,13.63-1.03,20.22-.03,28.83,4.38,66.59,33.53,64.91,44.59-1.71,11.22-15.63,22.17-35.03,19.22-39.88-6.07-52.71-44.08-50.11-63.78Z"/>
      <path class="cls-34" d="M178.23,152.05c4.22-27.77-14.44-.12-63.1-67.12-.65-.89-1.3-1.79-1.95-2.72-1.37-1.67-2.85-3.26-3.87-5.37-.53-1.1-1.77-1.71-3.06-1.91-2.74-.42-3.92.72-4.22,2.72-6.1,40.14,26.61,88.77,50.53,92.4,15.68,2.39,23.79-5.66,25.67-18.01ZM110.86,114.8c1.79-.62,4.48-1.12,7.16-.71,10.23,1.56,18.07,13.98,25.8,20.71,10.34,9,26.64,9.41,24.25,25.12-1.05,6.88-9.04,6.97-16.02,5.9-22.04-3.35-34.28-30.08-41.2-51.02Z"/>
      <path class="cls-1" d="M168.08,159.91c2.39-15.71-13.91-16.12-24.25-25.12-7.73-6.73-15.57-19.15-25.8-20.71-2.68-.41-5.38.1-7.16.71,6.91,20.94,19.15,47.67,41.2,51.02,6.99,1.06,14.98.98,16.02-5.9Z"/>
      <path class="cls-21" d="M203.11,101.02c2.78-18.31-22.24-28.42-37.11-34.81-1.75,1.92-3.54,4.88-4.14,8.8-.8,5.25,6.22,31.1,24.71,33.91,7,1.06,15.57-1.45,16.55-7.9Z"/>
      <path class="cls-30" d="M210.41,96.34c1.68-11.06-36.09-40.21-64.91-44.59-6.6-1-13.35-1.07-20.22.03-2.6,19.7,10.23,57.71,50.11,63.78,19.39,2.95,33.32-7.99,35.03-19.22ZM161.86,75.01c.6-3.92,2.39-6.88,4.14-8.8,14.87,6.39,39.9,16.5,37.11,34.81-.98,6.45-9.55,8.97-16.55,7.9-18.49-2.81-25.51-28.66-24.71-33.91Z"/>
      <g>
        <path class="cls-35" d="M310.17,132.1c-18.94,6.44-33.49-20.17-51.99-13.87-5.2,1.77-8.64,4.56-15.94,7.04-5.09,1.73-12.71,3.21-12.86,3.26-1.44.49-2.72,1.32-3.78,2.35.07.12.14.24.21.37,3.63-1.23,6.46-.54,12-2.42,6.85-2.33,13.65-7.35,20.3-9.61,8.75-2.98,30.77,11.72,31.24,11.96,13.81,6.8,22.12,2.71,28.01,4.1,1.24-1.85,2.41-3.74,3.49-5.66-1.65-.07-3.87.17-7.83,1.52-.96.33-1.91.67-2.86.99Z"/>
        <path class="cls-24" d="M258.11,119.21c-6.65,2.26-13.46,7.28-20.3,9.61-5.54,1.88-8.37,1.2-12,2.42.2.35.4.7.6,1.04.06-.02.12-.05.18-.07,3.69-1.25,13.2-2.67,19.93-4.96,5.04-1.72,5.86-2.73,9.67-4.03,6.18-2.1,13-2.12,19.23,2.46,24.16,17.76,30.8,6.33,39.08,13.58.99-1.31,1.94-2.64,2.85-3.99-5.89-1.39-14.19,2.7-28.01-4.1-.48-.23-22.49-14.93-31.24-11.96Z"/>
        <path class="cls-16" d="M275.43,125.68c-6.22-4.57-13.04-4.56-19.23-2.46-3.81,1.3-4.63,2.32-9.67,4.03-6.73,2.29-16.24,3.71-19.93,4.96-.06.02-.12.05-.18.07.37.62.75,1.24,1.14,1.85,1.04-.92,2.46-1.61,3.93-2.11,3.76-1.28,5.48-.39,11.92-2.57,4.68-1.59,7.69-3.38,12.05-4.86,5.65-1.92,11.73-2.63,16.44,1.52,23.08,20.4,33.59,5.19,40.88,15.35.59-.73,1.17-1.46,1.74-2.21-8.28-7.25-14.92,4.18-39.08-13.58Z"/>
        <g>
          <path class="cls-35" d="M229.16,135.47c-.09-.02-.18-.04-.27-.05.06.03.12.05.18.08.03,0,.06-.02.09-.03Z"/>
          <polygon points="225.75 134.45 230.8 135.41 229.26 135.82 229.16 135.47 229.22 135.84 229.08 135.88 228.8 135.78 225.75 134.45"/>
        </g>
        <path class="cls-41" d="M229.39,128.53c.14-.05,7.77-1.53,12.86-3.26,7.3-2.48,10.74-5.27,15.94-7.04,18.49-6.29,33.05,20.32,51.99,13.87.95-.32,1.9-.66,2.86-.99,3.96-1.35,6.17-1.59,7.83-1.52,1.62-2.87,3.07-5.83,4.35-8.86-3.4,3.96-8,7.23-12.92,8.91-19.91,6.77-30.89-20.83-48.88-14.71-3.45,1.17-7.8,4.66-17.91,8.1-8.27,2.81-15.7,3.8-22.22,3.15.7,1.6,1.48,3.16,2.33,4.69,1.06-1.03,2.34-1.86,3.78-2.35Z"/>
        <path class="cls-42" d="M266.2,137.51c-9.4-4.46-17.2,3.64-28.65,2.27.76.43,1.49.85,2.2,1.26,2.48.42,4.96,1.02,7.42,1.56,4.73,1.04,8.84-1.61,13.31-1.02,5.37.7,9.74,3.97,15.11,5.39,5.75,1.52,11.95,1.74,17.39,3.53.94.04,1.88.08,2.82.13,1.88.1,3.98.35,6.26.74-4.15-4.85-12.53-2.8-35.87-13.86Z"/>
        <path class="cls-8" d="M268,133.48c-2.88-2.96-6.63-2.86-10.2-1.65-4.02,1.37-6.89,3.87-11.75,5.52-7.47,2.54-9.3-.36-16.89-1.88-.03,0-.06.02-.09.03,3.18,1.41,5.99,2.88,8.48,4.29,11.45,1.37,19.25-6.73,28.65-2.27,23.34,11.06,31.72,9.01,35.87,13.86.32.05.63.11.96.17.47-.41.94-.83,1.4-1.26,0-.34-.06-.71-.21-1.13-3.54-10.41-18.67,2.37-36.23-15.67Z"/>
        <path class="cls-38" d="M307.27,144.11c-.67-1.97-4.49-4.06-9.64-2.64-21.13,5.81-29.3-17.49-39.87-13.9-2.85.97-3.82,2.94-9.71,4.95-7.54,2.56-16.1,2.17-18.88,2.94,7.59,1.52,9.42,4.42,16.89,1.88,4.86-1.65,7.73-4.15,11.75-5.52,3.56-1.21,7.32-1.31,10.2,1.65,17.56,18.04,32.69,5.25,36.23,15.67.14.42.2.8.21,1.13.5-.46.99-.92,1.47-1.38.85-1.62,1.87-3.31,1.36-4.79Z"/>
        <path class="cls-40" d="M273.11,130.2c-5.35-6.4-12.16-5.73-19.21-3.33-4.69,1.6-9.49,3.96-14.02,5.5-6.3,2.14-8.33.74-11.66,1.88-.16.06-.32.12-.48.19.14.22.29.45.43.67.24.1.48.21.72.31.09.02.18.04.27.05,2.78-.77,11.34-.38,18.88-2.94,5.9-2.01,6.87-3.98,9.71-4.95,10.57-3.6,18.74,19.71,39.87,13.9,5.15-1.42,8.97.67,9.64,2.64.5,1.48-.51,3.16-1.36,4.79,1.83-1.76,3.56-3.58,5.19-5.46-6.1-8.44-24.12,3.38-37.99-13.24Z"/>
        <path class="cls-31" d="M271.89,126.12c-4.71-4.16-10.78-3.45-16.44-1.52-4.36,1.48-7.37,3.27-12.05,4.86-6.43,2.19-8.16,1.3-11.92,2.57-1.47.5-2.88,1.19-3.93,2.11.06.1.12.19.18.29.15-.07.31-.13.48-.19,3.33-1.13,5.36.27,11.66-1.88,4.53-1.54,9.33-3.9,14.02-5.5,7.05-2.4,13.86-3.07,19.21,3.33,13.87,16.62,31.89,4.8,37.99,13.24.57-.65,1.12-1.31,1.67-1.98-7.28-10.16-17.8,5.05-40.88-15.35Z"/>
        <path class="cls-27" d="M223.27,126.18c6.52.65,13.95-.33,22.22-3.15,10.12-3.44,14.47-6.93,17.91-8.1,17.99-6.12,28.97,21.48,48.88,14.71,4.92-1.67,9.52-4.95,12.92-8.91,2.7-6.36,4.69-13.05,6.02-19.93-4.24,9.9-11.63,23.65-20.21,26.56-16.6,5.64-27.25-20.93-53.32-12.06-4.21,1.43-7.24,2.84-9.81,3.72-11.74,3.99-23.36,4.18-28.55-6.13.59,3.24,1.4,6.4,2.44,9.46.44,1.3.95,2.57,1.49,3.82Z"/>
        <path class="cls-15" d="M280.79,27.39c-.51.98-1.01,1.94-1.5,2.89.6-.93,1.07-1.9,1.5-2.89Z"/>
        <path class="cls-15" d="M247.89,119.03c2.58-.88,5.61-2.29,9.81-3.72,26.06-8.86,36.72,17.71,53.32,12.06,8.58-2.92,15.98-16.66,20.21-26.56,4.43-22.78,1.7-47.73-6.03-70.46-12.86-37.81-16.6-31.15-27.92-27.31-58.67,19.95-85.07,70.5-77.94,109.85,5.19,10.31,16.81,10.12,28.55,6.13ZM308.07,3.75c6.66,10.34,12.63,22.15,16.84,34.53,17.21,50.59-6.13,80.84-13.12,83.22-11.24,3.82-23.25-6.4-26.83-7.87-6.92-2.82-14.49-.08-19.31-14.25-10.37-30.49,24.45-85.23,42.42-95.64ZM279.79,15.81c1.89-.64,3.41-.15,4.27,2.38.4,1.18.42,2.52-.3,3.47-1.39,1.81-2.12,3.8-2.97,5.72-.44.99-.9,1.97-1.5,2.89-36.87,71.74-4.35,75.23-30.52,84.14-11.64,3.96-22.3.66-27.22-13.81-7.51-22.07,20.41-71.92,58.25-84.79Z"/>
        <path class="cls-34" d="M284.96,113.64c3.59,1.46,15.59,11.69,26.83,7.87,6.99-2.38,30.32-32.63,13.12-83.22-4.21-12.38-10.18-24.19-16.84-34.53-17.96,10.4-52.79,65.14-42.42,95.64,4.82,14.17,12.39,11.43,19.31,14.25ZM312.82,24.01c4.03,5.38,6.99,11.17,9.06,17.26,9.05,26.6.43,71.99-10,75.53-10.58,3.6-26.38-3.37-32.46-21.26-12.52-36.8,15.01-64.88,33.4-71.54Z"/>
        <path class="cls-34" d="M248.76,114.41c26.18-8.9-6.34-12.39,30.52-84.14.49-.95.99-1.92,1.5-2.89.85-1.92,1.58-3.91,2.97-5.72.73-.95.71-2.29.3-3.47-.86-2.53-2.38-3.02-4.27-2.38-37.84,12.87-65.76,62.72-58.25,84.79,4.92,14.47,15.58,17.77,27.22,13.81ZM251.25,40.09c1.34,1.25,2.98,3.32,3.83,5.8,3.21,9.44-4.15,21.73-6.58,31.37-3.25,12.89,3.67,27-11.14,32.03-6.49,2.21-10.13-4.58-12.32-11.03-6.92-20.34,11-42.83,26.22-58.17Z"/>
        <path class="cls-1" d="M237.35,109.29c14.81-5.04,7.89-19.14,11.14-32.03,2.43-9.64,9.8-21.93,6.58-31.37-.84-2.47-2.49-4.55-3.83-5.8-15.23,15.34-33.14,37.83-26.22,58.17,2.19,6.45,5.84,13.23,12.32,11.03Z"/>
        <path class="cls-45" d="M304.52,112.68c17.26-5.87,14.92-31.8,13.87-47.38-2.46-.63-5.85-.83-9.55.43-4.95,1.68-24.43,19.32-18.63,36.38,2.2,6.46,8.22,12.64,14.31,10.57Z"/>
        <path class="cls-1" d="M311.88,116.81c10.43-3.55,19.05-48.94,10-75.53-2.07-6.09-5.03-11.88-9.06-17.26-18.4,6.65-45.92,34.74-33.4,71.54,6.09,17.89,21.88,24.86,32.46,21.26ZM308.84,65.73c3.69-1.26,7.09-1.06,9.55-.43,1.05,15.58,3.4,41.51-13.87,47.38-6.08,2.07-12.11-4.12-14.31-10.57-5.8-17.06,13.68-34.7,18.63-36.38Z"/>
      </g>
      <path class="cls-15" d="M161.15,349.26c8.82-4.32,24.62,2.22,29.7,12.61,3.62,7.41,2.68,16.49-1.74,23.76.33-.15.67-.31,1.02-.48,3.2-1.57,6.02-3.63,8.51-6.05-1.65-5.72-.58-9.27-4.73-17.46-10.35-20.43-28.21-15.47-34.62-12.33-5.7,2.79-7.87,8.81-18.9,14.21-1.31.64-2.6.97-3.82,1.04-.46,1.01-.98,1.75-1.67,2.09-.11.05-.22.1-.33.14,1.95.09,3.96-.3,5.95-1.27,5.96-2.91,12.27-12.16,20.64-16.25Z"/>
      <path class="cls-8" d="M208.88,358.94c.2.4.57,1.23.95,2.17,1.01-2.67,1.85-5.41,2.54-8.16-.01-.23-.02-.46-.03-.68-9.69-4.37-19.05-9.86-27.49-15.77-1.08,1.04-2.43,2-3.8,2.85,9.75,1.77,22.64,8.98,27.82,19.58Z"/>
      <path class="cls-38" d="M201.08,355.62c.93,1.89,1.58,4.49,2.77,6.93.69,1.41,2.17,3.47,3.38,4.54.97-1.94,1.84-3.94,2.61-5.98-.38-.94-.76-1.77-.95-2.17-5.19-10.6-18.07-17.81-27.82-19.58-1.23.76-2.47,1.44-3.56,1.99,7.34-.71,16.34-.53,23.58,14.28Z"/>
      <path class="cls-35" d="M159.29,349.31c6.41-3.14,24.26-8.09,34.62,12.33,4.15,8.19,3.08,11.75,4.73,17.46,2.19-2.13,4.11-4.53,5.8-7.13-2.68-1.32-5.55-4.11-7.98-9.08-.14-.29-.29-.59-.43-.88-7.28-14.89-19.59-18.7-35.74-15.6-6.17,1.18-17.53,8.64-20.17,13.8-.86,1.69-1.83,2.44-2.84,2.5-.23.68-.46,1.3-.71,1.84,1.23-.06,2.51-.39,3.82-1.04,11.03-5.39,13.21-11.42,18.9-14.21Z"/>
      <path class="cls-24" d="M140.12,360.21c2.64-5.16,14-12.61,20.17-13.8,16.15-3.1,28.46.71,35.74,15.6.14.29.29.59.43.88,2.43,4.97,5.3,7.76,7.98,9.08.46-.7.9-1.42,1.32-2.15-8.86.71-9.44-36.37-34.29-25.66-6.74,2.9-15.66-1.52-25.81,6.49-4.56,3.6-6.5,9.05-8.2,11.56-.06.17-.11.34-.17.51,1.02-.06,1.98-.82,2.84-2.5Z"/>
      <path class="cls-40" d="M171.47,344.15c24.85-10.71,25.44,26.37,34.29,25.66.51-.89,1-1.79,1.47-2.72-1.2-1.07-2.69-3.13-3.38-4.54-1.19-2.44-1.85-5.04-2.77-6.93-7.24-14.8-16.24-14.99-23.58-14.28-.2.1-.4.2-.6.3-13.35,6.53-20.17.87-28.83,5.11-7.27,3.56-9.06,10.71-10.62,15.45,1.7-2.51,3.65-7.96,8.2-11.56,10.16-8.02,19.07-3.59,25.81-6.49Z"/>
      <path class="cls-4" d="M125.91,385.2c-.17.08-.38.11-.6.11,1.18,1.94,2.61,3.7,4.24,5.17.18-2.52,1.45-6.48-1.39-12.3-3.18-6.5-5.27-7-7.25-8.94-1.41-1.38-4.06-4.55-1.55-6.37,2.24-1.62,8.84,7.23,15.94,5.4.66-.17,6.69-1.9,8.04-2.56,6.43-3.14,11.8-12.56,16.56-14.89,4.21-2.06,22.37-3.65,30.19,12.34,3.21,6.56.05,19.13-9.32,23.79-.89.44-1.66.84-2.34,1.21,2.89-.33,6.11-.49,10.67-2.53,4.42-7.27,5.37-16.35,1.74-23.76-5.08-10.39-20.88-16.93-29.7-12.61-8.37,4.09-14.68,13.34-20.64,16.25-1.99.98-4,1.36-5.95,1.27-6.8,2.94-10.55-7.26-15.77-4.71-1.99.97-1.77,2.67-.79,4.68,1.83,3.74,5.42,4.88,7.38,8.89,1.12,2.28,2.58,8.55.52,9.56Z"/>
      <path class="cls-30" d="M128.15,378.18c2.85,5.82,1.57,9.78,1.39,12.3,1.11,1,2.31,1.87,3.6,2.55,20.83,10.97,19.67,14.69,24.75,12.2,5.59-2.73,9.36-12.85,15.08-15.65,1.86-.91,3.59-1.2,5.46-1.41.68-.37,1.44-.77,2.34-1.21,9.36-4.66,12.53-17.23,9.32-23.79-7.82-15.99-25.98-14.4-30.19-12.34-4.77,2.33-10.14,11.74-16.56,14.89-1.35.66-7.38,2.39-8.04,2.56-7.1,1.84-13.7-7.01-15.94-5.4-2.52,1.82.14,4.99,1.55,6.37,1.98,1.94,4.07,2.43,7.25,8.94ZM123.32,364.87s6.7,9.05,17.78,3.63c.38-.19,1.7-.8,2.86-1.35.99-.47,3.51-1.11,4.84-1.76,6.17-3.02,4.47-9.05,12.25-12.86,11.63-5.69,25.36,5.08,28.26,11,3.74,7.64-3.35,20.34-9.13,23.17-1.69.83-5.51,1.17-7.62,2.2-4.13,2.02-7.03,7.78-10.73,11.8,0,0-2.6,2.42-3.22,3-.06.03-.12.05-.18.08-.12.06-.24.12-.37.18-1.99.97-4.9,1.5-7.48-1.08-9.45-9.48-16.79-7.99-19.41-12.55-1.81-3.15.88-5.78-1.64-11.2-2.94-6.32-9.68-12.77-9.68-12.77-2.6-2.76,1.65-3.25,3.46-1.5Z"/>
      <path class="cls-26" d="M129.54,379.14c2.52,5.42-.17,8.05,1.64,11.2,2.63,4.57,9.96,3.07,19.41,12.55,2.57,2.58,5.49,2.06,7.48,1.08.12-.06.24-.12.37-.18.06-.03.12-.06.18-.08.62-.58,3.22-3,3.22-3,3.7-4.02,6.6-9.78,10.73-11.8,2.11-1.03,5.93-1.38,7.62-2.2,5.78-2.83,12.87-15.53,9.13-23.17-2.89-5.91-16.63-16.69-28.26-11-7.78,3.8-6.08,9.84-12.25,12.86-1.33.65-3.85,1.29-4.84,1.76-1.16.55-2.48,1.16-2.86,1.35-11.08,5.42-17.78-3.63-17.78-3.63-1.81-1.76-6.06-1.27-3.46,1.5,0,0,6.74,6.46,9.68,12.77ZM139.91,374.56c4.11-2.01,10.68-3.76,16.4-5.48,1.59-3.09,3.67-6.31,9.71-9.26,8.34-4.08,17.96-.43,20.83,5.44,1.64,3.36,1.74,14.48-4.44,17.5-3.5,1.71-7.19,1.28-10.4,2.86-7.66,3.75-6.87,11.22-12.81,14.13-7.44,3.64-5.89-.44-19.3-5.56-1.98-.76-4.48-1.74-7.24-7.37-3.34-6.83,2.88-10.12,7.24-12.26Z"/>
      <path class="cls-21" d="M139.9,394.19c13.4,5.12,11.85,9.2,19.3,5.56,5.94-2.91,5.15-10.38,12.81-14.13,3.21-1.57,6.9-1.14,10.4-2.86,6.17-3.02,6.08-14.14,4.44-17.5-2.87-5.87-12.49-9.53-20.83-5.44-6.04,2.96-8.12,6.17-9.71,9.26-5.72,1.72-12.29,3.47-16.4,5.48-4.37,2.14-10.58,5.43-7.24,12.26,2.76,5.64,5.25,6.62,7.24,7.37Z"/>
      <path class="cls-4" d="M305.32,359.94c6.93-3.39,11.98-.66,17.64,3.73-.1-.31-.22-.62-.37-.92-.91-1.87-2.81-3.63-5.23-5.25-4.69-2.07-10.47-2.19-12.52-1.19-6.96,3.41-10.85,11.86-14.47,13.63-.25.12-.51.22-.77.31-.71.75-1.42,1.43-2.13,2.04.93-.18,1.9-.5,2.89-.99,5.5-2.69,11.88-9.86,14.96-11.37Z"/>
      <path class="cls-15" d="M304.85,356.31c2.05-1,7.83-.88,12.52,1.19-2.88-1.93-6.5-3.65-10.1-5.1-1.21,0-2.44.24-3.08.55-4.41,2.16-9.43,13.9-12.92,15.61-.08.04-.16.07-.24.11-.47.56-.94,1.09-1.42,1.59.26-.08.52-.18.77-.31,3.62-1.77,7.51-10.23,14.47-13.63Z"/>
      <path class="cls-35" d="M304.18,352.95c.64-.31,1.87-.55,3.08-.55-2.06-.83-4.12-1.58-6.03-2.23-2.9,7.79-6.5,14.07-10.21,18.49.08-.04.16-.07.24-.11,3.48-1.7,8.5-13.45,12.92-15.61Z"/>
      <path class="cls-35" d="M236.34,360.3c-7.95-1.66-15.99-4.43-23.81-7.95-.06-.03-.12-.05-.18-.08,0,.23.02.46.03.68.05,1.14.17,2.28.34,3.4,4.35-1.14,17.89,2.59,23.81,4.15-.06-.07-.13-.13-.19-.2Z"/>
      <path class="cls-30" d="M216.61,360.42c-.89.44-1.72.94-2.49,1.47.27.74.58,1.47.92,2.19.7-.57,1.45-1.05,2.23-1.43,11.85-5.8,34.19,10.71,50.8,12.76-.55-.69-1.11-1.44-1.69-2.23-12.04-1.7-42.1-16.52-49.77-12.76Z"/>
      <path class="cls-15" d="M229.48,359.59l31.96,10.43c1.91.92,2.96,1.27,3.65,1.39-.57-.76-1.15-1.51-1.78-2.25-3.36-1.23-5.29-4.32-9.87-5.05-3.65-.58-4.36,1.19-8.06-.34-3.15-.09-6.61-.81-8.84-3.27-5.92-1.56-19.46-5.29-23.81-4.15.19,1.23.45,2.45.79,3.64.5-.36,1.05-.69,1.68-1,2.62-1.28,11.55-.25,14.29.6Z"/>
      <path class="cls-4" d="M216.61,360.42c7.67-3.75,37.73,11.06,49.77,12.76-.42-.58-.85-1.17-1.3-1.76-.69-.12-1.74-.47-3.65-1.39l-31.96-10.43c-2.75-.85-11.68-1.88-14.29-.6-.63.31-1.18.64-1.68,1,.18.64.39,1.28.62,1.9.77-.54,1.59-1.04,2.49-1.47Z"/>
      <path class="cls-30" d="M305.01,363.67c9.21-4.51,15.64-.49,18.3,1.89-.02-.63-.13-1.26-.34-1.89-5.66-4.39-10.71-7.12-17.64-3.73-3.08,1.51-9.46,8.68-14.96,11.37-.99.49-1.95.81-2.89.99-1.31,1.13-2.61,2.01-3.88,2.63-.1.05-.19.09-.29.14,2.19-.44,4.44-1.23,6.76-2.36,4.29-2.1,10.06-6.64,14.94-9.03Z"/>
      <path class="cls-35" d="M253.43,364.11c4.58.73,6.52,3.83,9.87,5.05-2.74-3.26-6.12-6.07-10.89-5.95-.67.02-3.67.66-7.05.56,3.71,1.53,4.42-.24,8.06.34Z"/>
      <path class="cls-21" d="M308.8,379.37c1.55-.3,2.68-.61,3.29-.91,5.58-2.73,11.37-7.74,11.22-12.9-2.65-2.38-9.08-6.39-18.3-1.89-4.88,2.39-10.65,6.93-14.94,9.03-2.31,1.13-4.57,1.93-6.76,2.36-5.37,2.62-7.64,3.43-8.26,2.97-.22.12-.44.24-.67.35-2.37,1.16-4.29-.44-6.31-2.97-16.61-2.05-38.94-18.56-50.8-12.76-.78.38-1.53.86-2.23,1.43.05.1.09.2.14.3,10.14,20.72,76.88,18.25,93.63,14.99ZM217.93,364.56c-.21-.49.75-1.13,1.2-1.35,13.32-6.52,40.35,25.89,65.89,13.39,8.35-4.08,15.22-8.82,18.54-10.45,11.22-5.49,18.23.24,18.44.66.79,1.61-4.65,7.76-7.89,9.35-3.22,1.57-6.14,2.06-8.83,2.44-17.88,1.74-79.01,5.82-87.35-14.04Z"/>
      <path class="cls-39" d="M240.7,375c.14-.29.16-.69-.05-1.11-.49-.99-12.92-9.55-17.21-7.45-.89.44-.8.82-.6,1.23,2.24,4.57,11.96,6.61,17.86,7.33Z"/>
      <path class="cls-39" d="M313.06,374.9c2.22-1.09,4.13-3.01,5.34-4.61,0-.83-.16-1.66-.45-2.26-.53-1.09-3.74-.98-7.32.77-.46.22-.91.46-1.38.68-4.52,2.21-8.66,1.7-11.7,3.19-1.03.5-3.91,2.59-3.26,4.29,0,.01.01.03.02.04.71,1.45,13.56.42,18.75-2.11Z"/>
      <path class="cls-13" d="M305.28,378.6c2.69-.38,5.61-.86,8.83-2.44,3.24-1.59,8.68-7.73,7.89-9.35-.21-.42-7.22-6.14-18.44-.66-3.32,1.63-10.2,6.37-18.54,10.45-25.54,12.5-52.57-19.91-65.89-13.39-.45.22-1.4.86-1.2,1.35,8.34,19.86,69.46,15.78,87.35,14.04ZM294.29,376.97c-.65-1.7,2.23-3.79,3.26-4.29,3.04-1.49,7.17-.98,11.7-3.19.46-.23.92-.46,1.38-.68,3.58-1.75,6.79-1.86,7.32-.77.29.6.46,1.43.45,2.26-1.2,1.6-3.11,3.52-5.34,4.61-5.19,2.54-18.04,3.57-18.75,2.11,0-.01-.01-.03-.02-.04ZM223.44,366.44c4.29-2.1,16.72,6.46,17.21,7.45.21.42.19.82.05,1.11-5.9-.71-15.62-2.76-17.86-7.33-.2-.41-.29-.79.6-1.23Z"/>
      <path class="cls-40" d="M144.26,276.14c-3.45,6.28-4.38,13.27-.37,21.47,2.34,4.77,6.47,7.8,10.66,11.4-2.16-2.78-3.85-5.38-4.98-7.69-11.55-23.61,2.16-38.04,24.76-50.99,3.2-1.83,6.57-3.63,10.08-5.43-3.13-.95-5.8-1.9-7.96-2.78-4.75,7.28-13.96,14.02-21.76,21.42-3.57,4.22-7.29,8.4-10.42,12.6Z"/>
      <path class="cls-27" d="M336.67,238.01c10.58,11.28,20.95,15.39,30.92,26.49-8.39-15.11-20.97-15.69-24.6-23.11-5.75-11.75,20.4-12.35,9.92-33.77-.9-1.84-1.88-3.65-2.75-5.43-1.45-2.96-1.96-5.49-1.61-7.6-.34-.13-.68-.25-1.01-.37-1.77-.62-3.66-1.02-5.59-1.36,1.73,2.46,3.31,5.11,4.7,7.96.05.1.09.2.14.29.68.81,1.38,1.62,2.05,2.43,1.73,2.09,3.37,4.24,4.48,6.51,5.31,10.85-4.95,20.7-16.65,27.96Z"/>
      <path class="cls-21" d="M314.24,285.58c-.45.22-.9.46-1.35.68-4.59,2.24-.54,21.94-5.65,36.92-.05.53-.1,1.05-.16,1.58.42.23.86.46,1.31.7,2.79-11.45,1.63-31.21,9.53-35.08,11.26-5.51,27.5,6.93,40.01,6.81-4.18-.64-8.89-2.06-13.86-4.05-8.89-.72-22.71-11.05-29.82-7.57Z"/>
      <path class="cls-7" d="M317.91,290.38c-7.9,3.87-6.74,23.63-9.53,35.08.88.46,1.81.94,2.77,1.42,1.62-13.35-.06-29.61,8.47-33.79,13.32-6.51,35.2,10.76,49.87,3.58,1.74-.85,3.19-2.04,4.15-3.64-.03-.05-.07-.09-.1-.14-1.2,1.49-2.56,2.56-4.06,3.29-3,1.47-6.97,1.7-11.58,1-12.51.12-28.75-12.32-40.01-6.81Z"/>
      <path class="cls-30" d="M312.89,286.26c.45-.22.9-.46,1.35-.68,7.11-3.48,20.93,6.85,29.82,7.57-5.49-2.2-11.3-5.09-17.08-8.4-3.86-1.95-9.69-5.35-14.05-3.22-5.87,2.87-1.33,22.3-5.34,36.67-.09,1.69-.21,3.36-.37,4.99,5.11-14.99,1.07-34.68,5.65-36.92Z"/>
      <path class="cls-4" d="M312.94,281.52c4.35-2.13,10.18,1.27,14.05,3.22-2.4-1.38-4.79-2.82-7.15-4.32-3.59.09-8.35-4.08-11.8-2.39-4,1.95,1.51,10.68.21,23.73-.13,1.34-.32,2.95-.56,4.69.16,4.04.13,7.96-.07,11.75,4.01-14.37-.54-33.8,5.34-36.67Z"/>
      <path class="cls-24" d="M307.44,299.73c.01-1.53-.03-3.13-.16-4.81-.97-13.06-4.54-19.92-2.22-21.06,2.04-1,4.63,1.05,6.59,1.43.45.22.89.41,1.3.55-4.65-3.23-9.07-6.59-13.02-9.9,4.18,12.21,6.49,23.9,7.39,34.82.02.28.05.57.07.86.03-.61.04-1.24.05-1.88Z"/>
      <path class="cls-27" d="M308.23,301.76c1.3-13.05-4.21-21.77-.21-23.73,3.46-1.69,8.21,2.48,11.8,2.39-2.34-1.48-4.63-3.02-6.88-4.58-.41-.14-.85-.33-1.3-.55-1.95-.38-4.55-2.43-6.59-1.43-2.32,1.14,1.24,7.99,2.22,21.06.13,1.69.17,3.29.16,4.81,0,.64-.02,1.27-.05,1.88.12,1.63.22,3.24.28,4.84.25-1.74.43-3.35.56-4.69Z"/>
      <path class="cls-39" d="M326.47,333.39c-3.87-1.99-7.82-4.58-9.94-7.39-7.11-9.48-2.08-26.18,5.44-29.87,16.52-8.08,25.17,7.04,40.89,4.24,4.9-.88,8.92-3.56,8.93-3.56,2.24-1.1,7.92-.59,12.39,2.74-3.91-4.9-8.03-2.83-10.54-6.52-.96,1.6-2.42,2.79-4.15,3.64-14.67,7.18-36.56-10.1-49.87-3.58-8.53,4.18-6.86,20.43-8.47,33.79,4.4,2.2,9.68,4.56,15.32,6.52Z"/>
      <path class="cls-3" d="M316.54,326c2.11,2.82,6.07,5.4,9.94,7.39,2.72.95,5.52,1.8,8.34,2.49,9.7,2.39,19.69,2.93,27.6-.94,13.63-6.67,16.96-17.55,19.99-19.03.61-.3,1.27-.55,1.91-.86,2.14-1.05,3.13-3.08,3.32-5.38.18-2.25-.4-4.75-1.43-6.85-.66-1.35-1.33-2.41-2.01-3.26-4.47-3.33-10.15-3.84-12.39-2.74-.01,0-4.03,2.69-8.93,3.56-15.71,2.81-24.37-12.32-40.89-4.24-7.53,3.68-12.56,20.38-5.44,29.87ZM315.85,318.58c-3.04-6.21,1.84-17.67,8.5-20.93,16.01-7.83,21.51,11.01,48.19,2.01,1.83-.62,8.91-.35,11.92,5.78,3.75,7.67-8.44,9.99-10.79,16.09-.56,1.45-.58,3.68-2.05,5.27-.02.02-.04.05-.06.07-.38.39-.84.74-1.43,1.03-.13.07-.29.1-.44.05-3.39,2.21-6.49,5.1-10.09,6.87-5.27,2.58-34.72,3.12-40.02-7.71-.35-.72-.85-1.36-1.2-2.08-.47-.95-1.02-3.44-1.81-5.06-.23-.47-.48-.93-.71-1.4Z"/>
      <path class="cls-19" d="M356.91,332.1c11.63-5.69,15.68-16.71,15.65-19.61,0-.1-.01-.21-.02-.31-7.15-4.54-30.2-8.23-38.16-4.34-3.61,1.77-10.05,8.51-7.77,13.17,1.54,3.14,17.18,17.52,30.31,11.09Z"/>
      <path class="cls-19" d="M318.37,325.04c.35.72.85,1.36,1.2,2.08,5.3,10.83,34.75,10.29,40.02,7.71,3.61-1.77,6.7-4.66,10.09-6.87.16.05.31.01.44-.05.59-.29,1.05-.64,1.43-1.03.02-.02.04-.05.06-.07,1.47-1.59,1.49-3.82,2.05-5.27,2.35-6.11,14.54-8.43,10.79-16.09-3-6.14-10.08-6.4-11.92-5.78-26.67,9-32.18-9.84-48.19-2.01-6.66,3.26-11.54,14.72-8.5,20.93.23.47.48.93.71,1.4.79,1.62,1.35,4.11,1.81,5.06ZM334.37,307.84c7.96-3.89,31.01-.21,38.16,4.34.01.1.02.2.02.31.03,2.91-4.02,13.93-15.65,19.61-13.13,6.42-28.77-7.95-30.31-11.09-2.28-4.66,4.16-11.4,7.77-13.17Z"/>
      <path class="cls-26" d="M362.16,214.13c-.82,17.56-11.78,18.35-2.73,27.93,5.25,5.56,10.33,10.16,15.59,20.91,3.3,6.74,2.59,8.94,6.42,16.76,3.36,6.87,6.4,9.96,9.06,11.99,2.29-.32,4.55-.83,6.76-1.51-5.98-2.07-11.1-5.98-13.96-11.83-2.71-5.54-6.01-15.44-9.71-23.01-5.23-10.7-12.35-13.09-12.42-24.81-.06-8.63,4.98-16.69,13.61-18.14,13.13-2.2,27.37,10.74,39.21,14.76-12.01-6.63-25.8-14.05-38.38-20.34-7.22-.35-13.16,1.2-13.45,7.31Z"/>
      <path class="cls-30" d="M359.21,212.2c1.9,11.07-13.32,17.32-8.38,27.42,3.13,6.4,11.67,4.18,18.9,18.97,3.04,6.2,5.52,12.53,8.55,18.71,4.59,9.38,7.19,11.94,8.95,14.72,1.1-.06,2.19-.16,3.27-.31-2.66-2.03-5.7-5.12-9.06-11.99-3.82-7.82-3.12-10.02-6.42-16.76-5.26-10.75-10.33-15.36-15.59-20.91-9.06-9.58,1.91-10.37,2.73-27.93.28-6.1,6.23-7.65,13.45-7.31-4.36-2.18-8.56-4.22-12.5-6.05-.48.19-.97.41-1.49.66-3.33,1.63-3.18,6.29-2.41,10.77Z"/>
      <path class="cls-15" d="M352.91,207.61c10.48,21.42-15.67,22.02-9.92,33.77,3.63,7.43,16.21,8,24.6,23.11,4.25,4.73,8.42,10.72,12.51,19.07,1.52,3.11,2.85,5.93,3.98,8.49.24,0,.49,0,.73.01-1.7-2.92-3.25-5.93-4.74-8.98-1.79-3.67-3.5-7.38-5.29-11.04-13.62-27.84-23.39-20.28-28.33-30.38-3.67-7.5,7.38-15.48,9.83-20.14,3.85-7.32-4.14-16.84-2.96-25.07-1.69-.7-3.28-1.32-4.76-1.86-.35,2.11.16,4.64,1.61,7.6.87,1.77,1.85,3.59,2.75,5.43Z"/>
      <path class="cls-4" d="M356.27,221.52c-2.45,4.66-13.5,12.64-9.83,20.14,4.94,10.1,14.71,2.54,28.33,30.38,1.79,3.66,3.5,7.37,5.29,11.04,1.49,3.05,3.04,6.06,4.74,8.98.81.01,1.62,0,2.42-.04-1.75-2.78-4.36-5.34-8.95-14.72-3.02-6.18-5.51-12.51-8.55-18.71-7.24-14.79-15.77-12.58-18.9-18.97-4.94-10.1,10.27-16.35,8.38-27.42-.77-4.48-.92-9.14,2.41-10.77.51-.25,1-.47,1.49-.66-3.5-1.63-6.8-3.09-9.79-4.32-1.18,8.23,6.81,17.75,2.96,25.07Z"/>
      <path class="cls-21" d="M373.59,255.36c3.7,7.57,7,17.47,9.71,23.01,2.86,5.85,7.99,9.76,13.96,11.83,1.55-.48,3.08-1.04,4.6-1.66-5.07.74-12.15-.26-17.17-10.54-1.58-3.23-4.96-15.17-7.68-19.54-3.67-5.89-7.42-12.48-11.19-20.19-3.99-8.15-.4-17.09,6.81-21.15,10.78-6.06,42.32,13.34,58.38,19.56-4.89-2.77-10.71-6.03-17.02-9.52-11.84-4.02-26.08-16.96-39.21-14.76-8.63,1.45-13.67,9.52-13.61,18.14.08,11.73,7.19,14.12,12.42,24.81Z"/>
      <path class="cls-33" d="M384.69,277.99c5.03,10.28,12.1,11.29,17.17,10.54,1.28-.52,2.54-1.09,3.8-1.71,40.95-20.03,40.62-31.78,35.32-42.61-.46-.93-.93-1.8-1.42-2.62,0-.02-.01-.04-.02-.06,0,0-.02,0-.02-.01-2.32-1.33-5.2-2.98-8.5-4.85-16.06-6.22-47.61-25.61-58.38-19.56-7.21,4.05-10.8,13-6.81,21.15,3.77,7.71,7.52,14.3,11.19,20.19,2.72,4.37,6.1,16.3,7.68,19.54ZM373.93,222.9c14.1-6.9,62.18,13.59,66.02,27.3,3.5,12.49-18.04,25.91-20.76,27.25-.35.17-.72.33-1.08.5-3.38,2.57-7.57,5.2-10.56,6.67-12.28,6.01-20.56-7.87-21.96-10.74-20.99-42.91-17.44-48.13-11.65-50.97Z"/>
      <path class="cls-3" d="M407.6,281.06c7.38-3.61,3.95-7.06,11.44-10.72,1.49-.73,3.03-1.24,4.5-1.96,3.87-1.89,6.9-6.33,7.49-11.04-.15-.52-.33-1-.5-1.35-.21-.42-.38-.86-.59-1.28-5.08-10.38-16.83-2.42-27.37-8.48-5.57-3.21-14.85-13.82-21.01-10.81-.28.14-.63.25-.94.41-3.38,1.65,1.34,24.46,5.02,31.97,8.14,16.64,15.72,16.33,21.96,13.28Z"/>
      <path class="cls-39" d="M407.55,284.61c2.99-1.46,7.18-4.1,10.56-6.67.36-.17.73-.33,1.08-.5,2.72-1.33,24.26-14.75,20.76-27.25-3.84-13.71-51.92-34.2-66.02-27.3-5.79,2.83-9.34,8.06,11.65,50.97,1.41,2.87,9.69,16.75,21.96,10.74ZM380.63,235.81c.32-.15.66-.27.94-.41,6.16-3.01,15.43,7.6,21.01,10.81,10.54,6.06,22.29-1.9,27.37,8.48.21.42.38.86.59,1.28.17.35.35.83.5,1.35-.59,4.71-3.62,9.15-7.49,11.04-1.47.72-3.01,1.23-4.5,1.96-7.49,3.66-4.06,7.11-11.44,10.72-6.24,3.05-13.82,3.36-21.96-13.28-3.67-7.51-8.39-30.32-5.02-31.97Z"/>
      <path class="cls-35" d="M328.47,243.74c-.17.08-1.03.64-1.67.95-12.51,6.12-23.99.85-30.82,4.19-.67.33-1.37,1.07-2.05,2.06,1.3,2.83,2.49,5.65,3.59,8.44-.05-4.02.82-7.55,4.02-9.12,8.31-4.07,13.25,1.47,23.91-3.74.37-.18.73-.36,1.1-.54,13.8-6.75,30.16,13.65,39.4,16.75-3.92-4.06-7.9-7.17-11.92-10.17-4.47-1.02-16.69-13.15-25.55-8.81Z"/>
      <path class="cls-16" d="M295.98,248.89c6.84-3.34,18.32,1.92,30.82-4.19.64-.31,1.5-.87,1.67-.95,8.86-4.34,21.08,7.8,25.55,8.81-5.7-4.25-11.49-8.3-17.36-14.55-3.67,2.28-7.49,4.3-11,6.02-10.73,5.25-25.6,1.8-35.22-.25.56,1.08,1.11,2.17,1.65,3.27.64,1.3,1.24,2.59,1.83,3.89.68-.98,1.38-1.73,2.05-2.06Z"/>
      <path class="cls-27" d="M326.55,245.99c-.37.18-.73.36-1.1.54-10.66,5.22-15.6-.32-23.91,3.74-3.2,1.56-4.07,5.1-4.02,9.12.86,2.2,1.67,4.38,2.41,6.55,3.33,2.8,6.99,5.63,10.85,8.38-3.9-6.07-7.25-8.06-9.29-12.23-1.48-3.03-1.31-8.84,1.42-10.17,0,0,8.64-1.17,24.58-4.45,14.65-3.01,31.57,12.67,42.01,19.23-1.17-1.42-2.35-2.73-3.53-3.96-9.24-3.1-25.6-23.5-39.4-16.75Z"/>
      <path class="cls-21" d="M365.28,292.39c.7-.34,1.39-.69,2.08-1.03,2.95-1.44,5.21-1.97,6.71-2.08.25-.5.34-1.22-.11-2.13-1.55-3.17-29.21-33.77-49.63-23.78-1.9.93-5.89,6.05-3.55,10.83,3.85,7.88,30.07,25.26,44.5,18.2Z"/>
      <path class="cls-26" d="M366.19,296.12c3.5-1.62,4.63-2.97,6.35-3.82,3.55-1.73,7.35,4.6,11.14,4.67.1,0,.43-.2.51-.25-.14-1.22-.47-1.9-.91-2.78-1.13-2.32-1.52-3.11-2.24-4.58-7.98-16.3-41.23-37.98-56.07-30.71-7.03,3.44-8.98,8.12-4.33,17.62,3.32,6.79,34.55,24.94,45.54,19.84ZM324.32,263.36c20.42-9.99,48.08,20.61,49.63,23.78.45.92.35,1.63.11,2.13-1.49.11-3.75.64-6.71,2.08-.69.34-1.38.69-2.08,1.03-14.43,7.06-40.65-10.33-44.5-18.2-2.34-4.78,1.65-9.9,3.55-10.83Z"/>
      <path class="cls-24" d="M340.54,175.14c-3.23,1.58-1.96,4.88-.7,7.45.99,2.03,2.2,3.94,3.18,5.95.7,1.43,1.14,3.14,1.4,4.81.54.12,1.07.25,1.6.4-1.36-5.43-3.5-11.45.7-13.51,11.1-5.43,30.09,10.7,40.65,16.23-3.74-2.87-7.56-5.68-11.53-8.35-10.21-6.2-28.76-16.17-35.3-12.97Z"/>
      <path class="cls-31" d="M324.82,174.82c1.35,2.75,13.87,8.89,17.75,16.8.18.37.41.88.65,1.48.23.05.46.1.69.14-.17-.67-.38-1.28-.63-1.79-2.95-6.03-10.3-11.25-11.46-13.6-.82-1.67-.32-2.43.42-2.79,3.85-1.88,12.63-.41,18.41.08-1.21-.43-2.44-.83-3.69-1.22-8.51.15-15.94-3.45-21.02-.97-.8.39-1.51,1.07-1.11,1.87Z"/>
      <path class="cls-40" d="M341.95,192.86c.42.07.84.15,1.26.24-.24-.6-.47-1.11-.65-1.48-3.87-7.91-16.4-14.05-17.75-16.8-.39-.8.32-1.48,1.11-1.87,5.08-2.48,12.51,1.12,21.02.97-9.85-3.03-21.06-4.73-34.31-4.4,10.45,4.72,21.42,12.08,29.31,23.34Z"/>
      <path class="cls-35" d="M346.72,180.24c-4.21,2.06-2.06,8.08-.7,13.51.52.14,1.02.3,1.52.47.14.05.29.11.44.16-.22-.44-.44-.87-.65-1.3-2.48-5.08-.99-8.33,2.69-10.13,9.09-4.45,33.53,13.82,44.66,19.2-2.42-1.9-4.85-3.8-7.3-5.68-10.56-5.53-29.55-21.66-40.65-16.23Z"/>
      <path class="cls-16" d="M331.82,177.85c1.15,2.35,8.5,7.57,11.46,13.6.25.5.46,1.12.63,1.79.17.04.35.07.52.11-.27-1.67-.71-3.38-1.4-4.81-.98-2.01-2.19-3.92-3.18-5.95-1.26-2.57-2.53-5.87.7-7.45,6.54-3.2,25.09,6.77,35.3,12.97-2.29-1.54-4.64-3.04-7.06-4.46-5.58-3.28-11.56-6.2-18.14-8.52-5.78-.49-14.56-1.96-18.41-.08-.74.36-1.24,1.12-.42,2.79Z"/>
      <path class="cls-27" d="M347.98,194.38c3.03,1.09,6.55,2.53,10.43,4.26-2.31-2.54-4.05-4.5-4.79-6.02-1.13-2.31-1.69-6.3.49-7.36,11.32-5.54,31.86,15.89,47.78,22.49-2.42-1.84-4.82-3.71-7.21-5.59-11.12-5.38-35.57-23.65-44.66-19.2-3.67,1.8-5.17,5.05-2.69,10.13.21.44.43.87.65,1.3Z"/>
      <path class="cls-46" d="M357.17,186.92c-2.33,1.14-1.13,4.77-.06,6.96,2.35,4.8,7.32,6.45,11.48,9.49,24.88,12.01,57.38,30.39,70.92,38.15,0,0,.02,0,.02.01-.56-1.97-1.28-3.91-2.18-5.76-5.48-11.2-17.27-15.05-28.05-22.6-.95-.67-1.89-1.34-2.83-2.03-29.56-12.38-41.54-28.03-49.3-24.23ZM436.5,236.09c.19.48.36,1.31-.06,1.51-.39.19-3.1-.01-4.07-1.21-1.11-.47-2.86-1.74-6.34-4.48l-16.24-7.78-31.04-17.16c-2.98-1.68-17.52-7.53-19.86-12.32-.52-1.06-4.21-7.63.62-6.06,5.24,1.69,72.21,35.48,76.99,47.5Z"/>
      <path class="cls-15" d="M354.11,185.25c-2.18,1.07-1.62,5.05-.49,7.36.75,1.52,2.48,3.48,4.79,6.02,3.18,1.41,6.61,3.01,10.19,4.74-4.16-3.04-9.13-4.69-11.48-9.49-1.07-2.19-2.27-5.82.06-6.96,7.76-3.8,19.73,11.85,49.3,24.23-1.54-1.12-3.07-2.26-4.59-3.41-15.92-6.6-36.46-28.03-47.78-22.49Z"/>
      <path class="cls-28" d="M404.46,215.43c-21.51-13.58-43.53-24.54-44.03-24.3-.54.27-.96,1.42-.23,2.9,2.51,5.13,8.24,5.24,19.66,10.82,1.85.91,17.81,12.19,24.61,10.57Z"/>
      <path class="cls-4" d="M358.89,194.65c2.34,4.79,16.88,10.64,19.86,12.32l31.04,17.16,16.24,7.78c3.48,2.74,5.23,4.01,6.34,4.48.96,1.2,3.68,1.4,4.07,1.21.42-.21.25-1.04.06-1.51-4.78-12.02-71.75-45.81-76.99-47.5-4.83-1.56-1.14,5-.62,6.06ZM360.43,191.13c.5-.24,22.51,10.72,44.03,24.3-6.79,1.62-22.75-9.66-24.61-10.57-11.42-5.58-17.15-5.69-19.66-10.82-.73-1.49-.31-2.64.23-2.9Z"/>
      <path class="cls-35" d="M253.25,256.85c24.76-3.22,37.71,14.91,48.84,15.94-.66-2.26-1.38-4.55-2.16-6.85-.82-2.39-1.71-4.8-2.67-7.23-1.01,2-2.6,3.66-4.48,4.58-2.11,1.03-4.57,1.14-6.97-.19-41.79-23.26-60.25,6.84-103.1-17.31-1.29.67-2.56,1.34-3.8,2.01,12.16,6.25,30.59,14.74,74.36,9.05Z"/>
      <path class="cls-30" d="M205.93,265.06c30.68,18.68,72.08-24.7,100.37,33.12.34.69.66,1.39.98,2.1-.12-1.41-.27-2.84-.44-4.28-40.03-61.84-67.13-15.83-92.4-30.41-14.99-8.64-31.74-12.18-47.88-10.49-2.16,1.44-4.2,2.9-6.1,4.4,13.96-5.3,31.47-2.95,45.47,5.57Z"/>
      <path class="cls-15" d="M303.25,285.51c.65,1.02,1.5,1.81,2.39,2.42-.88-4.93-2.05-9.98-3.55-15.14-11.13-1.03-24.08-19.16-48.84-15.94-43.77,5.69-62.2-2.81-74.36-9.05-1.56.84-3.08,1.68-4.57,2.53-.74.42-1.47.85-2.19,1.28,22.42,1.38,40.96,13.22,55.19,10.4,28.38-5.63,59.35-2.46,75.93,23.51Z"/>
      <path class="cls-4" d="M214.44,265.59c25.28,14.57,52.37-31.43,92.4,30.41-.31-2.65-.71-5.34-1.2-8.06-.89-.6-1.74-1.4-2.39-2.42-16.58-25.97-47.54-29.14-75.93-23.51-14.23,2.82-32.76-9.02-55.19-10.4-1.94,1.15-3.8,2.31-5.58,3.49,16.14-1.69,32.89,1.85,47.88,10.49Z"/>
      <path class="cls-24" d="M254,251.17c-31.72,6.58-42.46,5.46-70.38-5.87-.31.16-.61.32-.92.47,42.86,24.16,61.32-5.95,103.1,17.31,2.4,1.34,4.86,1.22,6.97.19,1.88-.92,3.47-2.58,4.48-4.58-.49-1.22-.99-2.45-1.52-3.68-6.35,9.59-29.06-6.48-41.74-3.86Z"/>
      <path class="cls-44" d="M254,251.17c12.68-2.63,35.39,13.44,41.74,3.86-.63-1.49-1.29-2.98-1.98-4.48-.06.03-.12.07-.18.1-9.33,4.57-16.06-7.27-48.43,1.59-20.31,5.56-41.76,1.53-59.76-7.06-.33-.1-.66-.19-.97-.29-.27.14-.53.27-.79.41,27.92,11.33,38.66,12.45,70.38,5.87Z"/>
      <path class="cls-40" d="M191.91,246.89c-2.35-.55-4.53-1.12-6.53-1.71,18,8.59,39.45,12.61,59.76,7.06,32.37-8.86,39.1,2.98,48.43-1.59.06-.03.12-.07.18-.1-.54-1.16-1.08-2.33-1.65-3.49-.21-.43-.43-.84-.64-1.27-6.3-.11-21.27.94-56.74,6.18-14.92,2.2-28.39,1.24-42.81-5.08Z"/>
      <path class="cls-38" d="M234.72,251.97c35.47-5.24,50.44-6.29,56.74-6.18-.34-.67-.67-1.34-1.01-2-4.11-.87-7.26-1.49-8.72-1.07-39.15,11.32-70.36,8.72-89.81,4.18,14.42,6.32,27.89,7.28,42.81,5.08Z"/>
      <path class="cls-21" d="M165.22,262.28c24.84-12.15,38.11,17.03,62.91,12,24.21-4.92,60.85-12.46,74.71,24.36,4.28,11.36,2.77,28.03,1.99,39.48.97-4.18,1.73-8.65,2.24-13.36.81-7.57.96-15.78.21-24.49-.32-.7-.64-1.41-.98-2.1-28.29-57.82-69.68-14.44-100.37-33.12-14-8.52-31.51-10.87-45.47-5.57-11.47,9.09-17.64,19.54-14.05,33.44-.74-14.11,7.95-25.34,18.81-30.66Z"/>
      <path class="cls-13" d="M159.71,315.03c6.45,6.93,15.15,14.49,25.14,21.48,8.44,5.9,17.8,11.4,27.49,15.77.06.03.12.05.18.08,7.83,3.51,15.86,6.29,23.81,7.95,3.22.67,6.43,1.17,9.6,1.45,11.84,1.04,28.8-11.56,32.62-3.76,4.44,9.08-5.09,18.84-3.5,20.04.62.47,2.96-.38,8.54-3.11,6.02-2.95,12.8-11.75,17.64-24.75,1.38-3.69,2.59-7.72,3.59-12.05.79-11.45,2.29-28.12-1.99-39.48-13.86-36.82-50.5-29.28-74.71-24.36-24.8,5.04-38.07-24.15-62.91-12-10.87,5.32-19.56,16.55-18.81,30.66.69,2.66,1.73,5.45,3.16,8.38,1.92,3.92,5.43,8.65,10.14,13.72ZM239.1,280.31c22.39-10.95,47.45-6.91,59.35,17.42,11.01,22.51,1.44,48.58-11.39,69.09-.97.14-1.71-.11-1.95-.59,0-.01,0-.02-.01-.04-.49-2.84-1.24-5.23-2.22-7.24-13.43-27.45-49.29,17.58-69.87-24.49-10.9-22.28,7.89-45.24,26.1-54.14ZM164.94,269.75c14.1-6.9,38.13,1.54,43.52,12.56,6.61,13.52-17.2,27.21-8.45,45.11.23.47.49.93.76,1.39-.9,2.52-2.12,4.56-3.92,5.44-4.45,2.18-28.86-5.34-41.36-30.9-6.78-13.87-7.99-25.07,9.45-33.6Z"/>
      <path class="cls-33" d="M282.87,358.95c.98,2.01,1.74,4.4,2.22,7.24,0,.01,0,.02.01.04.24.48.97.74,1.95.59,12.83-20.51,22.4-46.58,11.39-69.09-11.9-24.32-36.96-28.37-59.35-17.42-18.21,8.91-37,31.87-26.1,54.14,20.58,42.07,56.44-2.95,69.87,24.49ZM251.57,288.76c18.33-8.97,32.13,4.05,41.07,22.32,6.11,12.49,7.89,26.56-.89,38.42-.33.22-.67.42-1.04.6-3.27,1.6-7.78,1.62-10.29-.13-27.29-19.02-42.44,12.26-54.7-12.8-7.99-16.33,12.78-42.03,25.85-48.42Z"/>
      <path class="cls-33" d="M196.85,334.25c1.8-.88,3.02-2.92,3.92-5.44-.28-.46-.53-.92-.76-1.39-8.76-17.9,15.06-31.6,8.45-45.11-5.39-11.02-29.41-19.46-43.52-12.56-17.44,8.53-16.23,19.74-9.45,33.6,12.5,25.56,36.91,33.07,41.36,30.9Z"/>
      <path class="cls-17" d="M280.42,349.98c2.51,1.75,7.02,1.73,10.29.13.37-.18.71-.38,1.04-.6,8.78-11.87,7-25.94.89-38.42-8.94-18.27-22.73-31.29-41.07-22.32-13.07,6.39-33.84,32.09-25.85,48.42,12.26,25.06,27.41-6.22,54.7,12.8Z"/>
      <path class="cls-15" d="M296.34,173.34c-10.53.35-19.94,5.81-30.87,4.35-16.55-2.21-32.49-13.24-49.01-5.16-11.2,5.48-6.96,10.39-16.78,15.19-.24.12-.48.23-.72.35-5.95,2.91-15.47,11.2-23.57,18.98-2.68,3.81-4.46,7.39-5.53,10.87,9.57-15.67,31.61-28.56,36.05-31.46,3.95-2.59,4.23-7.62,12.61-11.72,20.15-9.86,26.17,9.94,75.24,2.8,21.55-3.14,38.67,12.4,55.01,25.9-.65-.78-1.31-1.56-1.97-2.34-.05-.1-.09-.2-.14-.29-.26-.53-.53-1.04-.8-1.55-27.29-18.89-28.83-26.61-49.51-25.92Z"/>
      <path class="cls-31" d="M250.36,160.88c11.39,10.82,20.27,10.02,28.4,8.95-15.21.23-24.33-2.94-31.73-18.08-1.38-2.83-2.44-5.81-3.16-8.8-4.5-.75-8.56,0-12.26,1.82-2.14,1.05-4.17,2.46-6.08,4.11,12.51-3.28,22.47,9.76,24.84,12Z"/>
      <path class="cls-27" d="M175.39,207.05c8.1-7.77,17.62-16.06,23.57-18.98.24-.12.48-.23.72-.35,9.81-4.8,5.57-9.71,16.78-15.19,16.52-8.08,32.46,2.95,49.01,5.16,10.93,1.46,20.34-4,30.87-4.35,20.69-.69,22.22,7.04,49.51,25.92-1.09-2.07-2.28-4.03-3.55-5.88-9.81-4.79-17.31-12.96-26.61-19.01-16.78-10.92-41.04,5.75-51.37,1.03-14.73-6.73-33.24-15.02-46.75-8.41-8.04,3.93-8.89,9.96-17.13,16.02-.08.07-.17.14-.25.2-12.05,9.2-19.93,16.9-24.81,23.83Z"/>
      <path class="cls-35" d="M264.33,175.4c10.32,4.72,34.58-11.95,51.37-1.03,9.3,6.05,16.8,14.22,26.61,19.01-.12-.17-.23-.35-.35-.52-1.32-1.89-2.74-3.65-4.22-5.33-1.13-.61-2.25-1.25-3.26-2.05-39.25-31.27-46.32-5.51-72.1-15.45-14.16-5.46-25.7-17.45-45.89-10.87-.2.28-.4.56-.6.85-6.55,9.38-11.47,19.71-15.45,23.02,8.24-6.06,9.1-12.09,17.13-16.02,13.51-6.61,32.02,1.68,46.75,8.41Z"/>
      <path class="cls-24" d="M262.38,170.03c25.78,9.94,32.85-15.81,72.1,15.45,1.01.81,2.13,1.44,3.26,2.05-7.34-8.31-16.39-14.08-25.09-18.01-1.32-.6-2.63-1.15-3.93-1.67-9.28.59-17.18,1.36-23.98,1.74-2.09.12-4.08.2-5.98.23-8.12,1.08-17,1.87-28.4-8.95-2.36-2.25-12.33-15.28-24.84-12-.45.39-.9.78-1.33,1.2-2.79,2.64-5.35,5.78-7.7,9.07,20.19-6.57,31.73,5.41,45.89,10.87Z"/>
      <path class="cls-21" d="M277.34,242.62c2.02-.99,3.66-2.41,4.71-4.5.02.13.06.25.11.36.83,1.7,4.92.96,23.56,7.13,5.68,1.88,11.81.57,16.75-1.84,21.65-10.59,31.34-16.79,23.81-32.18-18.16-37.12-54.26-20.28-66.65-21.23-30.84-2.36-43.42-16.13-58.87-8.57-2.62,1.28-56.94,36.99-49.5,52.21,10.33,21.12,93.82,14.63,106.08,8.63ZM274.74,197.23c6.75-3.3,11.41.49,25.21-3.62,20.71-6.18,42.18,13.9,43.98,17.58,3.62,7.39,2.02,17.78-5.87,21.65-36.04,17.63-52.11,6.9-68.03-23.39-.77-4.73-.61-9.6,4.72-12.21ZM206.38,194.58c.71-2.14,6.93-5.21,7.63-5.55,14.66-7.17,41.42,1.88,55.21,30.05.98,1.99,1.85,4.03,2.64,6.1,1.38,8.19-2.16,14.81-6.25,16.81-14.01,6.85-79.97,6.11-89.13-12.62-5.01-10.23,24.33-17.94,29.91-34.79Z"/>
      <path class="cls-39" d="M331.17,233.2c4.2-2.06,7.83-5.19,10.42-9.12.61-3.2.1-6.06-1.17-8.65-7.18-14.68-32.06-23.02-42.86-17.73-8.38,4.1-9.34,11.76-6.11,18.38,1.25,2.56,18.38,27.56,39.72,17.12Z"/>
      <path class="cls-39" d="M238.52,226.01c1.33-.19,2.52-.56,3.57-1.08,8.53-4.17,7.89-17.73,5.73-22.15-.27-.55-.53-1.05-.8-1.52-8.11-7.97-20.6-11.01-30.59-6.12-.43.21-35.42,22.96-30.98,32.03,9.84,20.1,36.88,1.18,53.07-1.17Z"/>
      <g>
        <path class="cls-33" d="M338.06,232.83c7.9-3.86,9.49-14.25,5.87-21.65-1.8-3.68-23.28-23.75-43.98-17.58-13.79,4.11-18.45.32-25.21,3.62-5.33,2.61-5.49,7.48-4.72,12.21,15.93,30.29,32,41.02,68.03,23.39ZM297.56,197.7c10.81-5.29,35.68,3.05,42.86,17.73,1.27,2.59,1.78,5.45,1.17,8.65-2.59,3.93-6.22,7.06-10.42,9.12-21.34,10.44-38.46-14.55-39.72-17.12-3.24-6.62-2.28-14.27,6.11-18.38Z"/>
        <path class="cls-33" d="M265.6,241.99c4.09-2,7.64-8.62,6.25-16.81-.79-2.07-1.66-4.1-2.64-6.1-13.78-28.17-40.55-37.22-55.21-30.05-.69.34-6.92,3.41-7.63,5.55-5.58,16.84-34.92,24.55-29.91,34.79,9.16,18.73,75.12,19.48,89.13,12.62ZM216.43,195.15c10-4.89,22.49-1.85,30.59,6.12.26.47.53.97.8,1.52,2.16,4.42,2.8,17.98-5.73,22.15-1.06.52-2.24.89-3.57,1.08-16.19,2.35-43.23,21.27-53.07,1.17-4.44-9.07,30.55-31.82,30.98-32.03Z"/>
      </g>
      <path class="cls-40" d="M249.28,155.9c2.09-3.32,5.19-6.84,11.25-9.8,21.74-10.64,57.31,5.98,86.2,6.92-6.93-1.78-14.11-3.54-21.25-5.17-2.83,0-8.87-.79-25.18-4.36-12.58-2.75-35.81-5.39-47.47.31-2.84,1.39-5.13,3.24-6.98,5.29.36.9.76,1.78,1.18,2.66.73,1.5,1.49,2.88,2.26,4.15Z"/>
      <path class="cls-16" d="M249.28,155.9c1.19,1.97,2.44,3.68,3.75,5.16,1.61-4.71,4.97-8.49,10.98-11.43,21.59-10.56,60.9,4.29,109.33,10.61-7.92-2.26-17.04-4.76-26.62-7.22-28.89-.94-64.46-17.56-86.2-6.92-6.06,2.97-9.16,6.48-11.25,9.8Z"/>
      <path class="cls-38" d="M300.29,143.49c16.32,3.57,22.35,4.36,25.18,4.36-9.63-2.2-19.19-4.16-28.03-5.62-7.9-1.31-15.22-2.22-21.48-2.54-3.38-.17-6.45-.18-9.14.02-7.85.59-15.74,1.68-23.59,0,.17,1.08.38,2.16.64,3.24.49,2.07,1.16,4.13,1.97,6.14,1.84-2.05,4.14-3.9,6.98-5.29,11.66-5.71,34.9-3.06,47.47-.31Z"/>
      <path class="cls-15" d="M373.13,168.8c1.33.22,2.45,1.13,3.85,1.09,7.9-.27,14.16,3.42,18.69,1.21.84-.41,4.35-.83,3.93-1.7-.4-.82-1.39-1.16-2.08-1.23-1.59-.1-47.42-6.57-65.54-10.31-18.99-3.92-40.13-11.9-57.05-3.62-2.54,1.24-11.44,6.31-9.67,9.94,3.47,7.1,72.82-1.21,107.88,4.64ZM279.63,156.95c7.51-3.67,18.51-1.29,26.81.12,7.64,1.3,14.65,1.74,21.79,3.84l.28.56c-.65,1.37-1.66,2.28-2.88,2.87-1.92.94-48.94,2.98-52.64-.33,1.5-3.45,3.83-5.68,6.64-7.06Z"/>
      <path class="cls-4" d="M325.63,164.34c1.21-.59,2.23-1.5,2.88-2.87l-.28-.56c-7.14-2.1-14.15-2.53-21.79-3.84-8.3-1.42-19.31-3.79-26.81-.12-2.82,1.38-5.14,3.61-6.64,7.06,3.7,3.32,50.72,1.27,52.64.33Z"/>
      <path class="cls-35" d="M359.31,130.87c-27.27,6.28-40.63,1.56-54.04,5.11-.25.25-.5.5-.76.75,9.89-1.07,20.48.94,31.06,1.8,9.4.76,37.34-10.76,56.19,22.05,1.34,2.32,3.27,3.94,5.4,5.36.77.01,1.53.03,2.27.04-14.9-12.56-14.79-40.94-40.12-35.1Z"/>
      <path class="cls-41" d="M359.31,130.87c25.33-5.84,25.22,22.55,40.12,35.1.87.02,1.74.03,2.58.05-9.23-8.42-13.99-21.58-22.25-31.13-11.64-13.47-31.81-2.78-48.37-2.49-7.66.13-14.1-2.05-24.07,1.39-.66.74-1.34,1.47-2.06,2.2,13.41-3.54,26.77,1.18,54.04-5.11Z"/>
      <path class="cls-31" d="M364.62,144.96c-43.92-4.24-55.81-6.65-63.28-5.46-.92.73-1.91,1.44-2.99,2.15,1.58-.02,3.15.07,4.65.23,63.6,6.76,63.43-3.28,86.8,23.19.91.27,1.76.54,2.57.78.19,0,.38,0,.57,0-11.64-10.47-15.08-19.62-28.32-20.9Z"/>
      <path class="cls-16" d="M355.52,140.3c-26.6-.69-39.98-4.7-52.68-2.04-.48.42-.98.83-1.5,1.24,7.47-1.18,19.35,1.22,63.28,5.46,13.24,1.28,16.68,10.43,28.32,20.9.66,0,1.32.02,1.97.03-9.09-7.93-19.81-25.09-39.39-25.6Z"/>
      <path class="cls-40" d="M303,141.88c-1.5-.16-3.08-.25-4.65-.23-.3.19-.6.39-.91.58,4.92.81,10.08,1.79,15.34,2.86,3.44-.23,6.72.17,10.37.61,37.97,4.61,49.74,1.01,62.99,18.26,1.3.39,2.52.76,3.67,1.1-23.37-26.47-23.2-16.43-86.8-23.19Z"/>
      <path class="cls-8" d="M326.7,148.13c21.25,4.89,42.63,10.86,56.91,15.08-11.02-7.74-37.73-13.31-56.91-15.08Z"/>
      <path class="cls-38" d="M323.14,145.71c-3.65-.44-6.93-.84-10.37-.61,4.58.94,9.25,1.96,13.92,3.04,19.18,1.77,45.89,7.35,56.91,15.08.87.26,1.71.51,2.53.75-13.24-17.25-25.02-13.65-62.99-18.26Z"/>
      <path class="cls-24" d="M335.57,138.53c-10.59-.86-21.18-2.87-31.06-1.8-.53.51-1.08,1.02-1.66,1.53,12.69-2.67,26.07,1.35,52.68,2.04,19.58.51,30.3,17.67,39.39,25.6.76.01,1.51.02,2.25.04-2.13-1.41-4.06-3.03-5.4-5.36-18.85-32.81-46.79-21.28-56.19-22.05Z"/>
      <path class="cls-27" d="M331.39,132.4c16.56-.29,36.73-10.98,48.37,2.49,8.26,9.55,13.01,22.71,22.25,31.13.23,0,.45,0,.68.01-8.21-7.38-14.95-21.02-16.26-26.66-7.44-32.02-59.5,4.44-69.5-16,0-.01-.01-.02-.02-.04-3.83,3.36-6.46,6.94-9.59,10.45,9.97-3.43,16.41-1.25,24.07-1.39Z"/>
      <path class="cls-15" d="M386.43,139.37c1.31,5.64,8.05,19.28,16.26,26.66,45.32.94,53.54,3.03,68.3-4.19,21.8-10.66-65.53-83.39-144.88-44.57-3.85,1.88-6.76,3.93-9.2,6.06,0,.01.01.02.02.04,10,20.44,62.05-16.01,69.5,16ZM327.87,117.42c45.09-25.38,129.54,4.46,143.24,32.46,4.25,8.68.72,10.05-4.24,12.27-.45.2-.92.41-1.39.64-.41.16-.86.33-1.34.48-11.28,4.53-25.68.56-37.86,1.53-16.68,1.34-25.33,2.26-31.83-11.03-2.38-4.86-3.92-10.42-6.37-15.44-15.72-32.14-57.11-.19-64.27-14.83-1.39-2.85,1.16-4.46,4.06-6.09Z"/>
      <path class="cls-15" d="M465.72,162.58c-.52.25-1.05.48-1.58.69.48-.15.93-.32,1.34-.48.47-.22.94-.43,1.39-.64l-.48.07c-.22.12-.45.25-.68.36Z"/>
      <path class="cls-1" d="M388.08,138.34c2.46,5.02,4,10.58,6.37,15.44,6.5,13.28,15.15,12.36,31.83,11.03,12.18-.98,26.59,3,37.86-1.53.53-.21,1.06-.44,1.58-.69.23-.11.45-.24.68-.36l.48-.07c4.95-2.23,8.48-3.59,4.24-12.27-13.7-28.01-98.15-57.84-143.24-32.46-2.9,1.63-5.46,3.24-4.06,6.09,7.16,14.64,48.55-17.31,64.27,14.83ZM337.04,118.22c.36-.18.75-.32,1.14-.46.43-.35,1.2-.81,2.6-1.5,35.9-17.56,114.05,14.25,124.09,34.77,2.27,4.63,2.31,8.07-1.86,10.11-7.84,3.84-22.65-1.56-36.6,1.82-9.25,2.24-21.62,1.32-25.87-7.36,0,0-1.27-2.81-2.49-5.3-9.38-19.17-24.89-41.52-47.91-30.26-.9.44-1.99,1.04-2.2,1.14-5.81,2.84-11.97.7-12.42-.21-.37-.76-.04-1.99,1.52-2.76Z"/>
      <path class="cls-30" d="M347.93,121.18c.2-.1,1.29-.7,2.2-1.14,23.02-11.26,38.53,11.09,47.91,30.26,1.22,2.49,2.49,5.3,2.49,5.3,4.25,8.68,16.61,9.6,25.87,7.36,13.96-3.38,28.77,2.02,36.6-1.82,4.18-2.04,4.13-5.48,1.86-10.11-10.04-20.52-88.19-52.33-124.09-34.77-1.4.69-2.17,1.14-2.6,1.5-.39.14-.78.29-1.14.46-1.56.76-1.89,2-1.52,2.76.44.91,6.61,3.05,12.42.21ZM371.04,114.73c.45-1.57,5.6-2.13,10.08-1.7,8.98.85,18.3,3.97,25.13,6.57.6.23,50.85,18.35,56.69,30.29.55,1.12,1.94,4.25,1.77,6.16-.35,1-1.24,1.99-3.1,2.9-2.6,1.27-5.22,2.11-7.94,2.15-40.71.55-45.15,3.21-53.93-14.74-2.47-5.05-5.1-13.16-5.22-13.4-2.01-4.12-10.99-8-12.69-11.48-.21-.43-11.47-4.39-10.79-6.75Z"/>
      <path class="cls-26" d="M381.83,121.48c1.7,3.47,10.67,7.36,12.69,11.48.12.24,2.75,8.35,5.22,13.4,8.78,17.95,13.22,15.29,53.93,14.74,2.72-.04,5.34-.88,7.94-2.15,1.86-.91,2.75-1.9,3.1-2.9.16-1.91-1.22-5.05-1.77-6.16-5.84-11.94-56.09-30.06-56.69-30.29-6.83-2.6-16.15-5.71-25.13-6.57-4.48-.43-9.63.13-10.08,1.7-.68,2.36,10.58,6.32,10.79,6.75ZM387.67,120.81c11.39-5.57,69.75,24.06,73.77,32.27.04.07.07.15.1.22-.34,1.36-1.58,3.03-4.35,4.38-5.67,2.77-40.39,4.46-50.38-6.41l-4.11-5.98c-.28-.56-.55-1.07-.81-1.6-1.87-3.83-.98-6.01-4.55-13.31-4.36-8.91-8.64-5.56-10.09-8.52-.23-.47-.02-.84.41-1.05Z"/>
      <path class="cls-21" d="M397.35,130.38c3.57,7.3,2.68,9.48,4.55,13.31.26.53.54,1.04.81,1.6l4.11,5.98c9.99,10.87,44.71,9.19,50.38,6.41,2.77-1.35,4.01-3.01,4.35-4.38-.04-.07-.07-.15-.1-.22-4.02-8.21-62.37-37.85-73.77-32.27-.43.21-.64.58-.41,1.05,1.45,2.96,5.73-.39,10.09,8.52ZM410.06,135.35c8.91-4.36,39.93,9.95,46.41,16.71-.56.93-1.79,2.23-3.97,3.29-5.99,2.93-18.48,3.01-19.18,2.99-11.2-.36-24.37-10.85-26.49-15.19-1.5-3.08-1.55-5.47,3.23-7.81Z"/>
      <path class="cls-33" d="M433.33,158.35c.7.02,13.19-.06,19.18-2.99,2.18-1.07,3.41-2.37,3.97-3.29-6.47-6.76-37.5-21.07-46.41-16.71-4.77,2.33-4.73,4.73-3.23,7.81,2.12,4.34,15.29,14.83,26.49,15.19Z"/>
      <path class="cls-43" d="M221.36,134.07c-5.66-.02-10.37,3.93-16.42,3.39-3.16-.28-6.35-.63-9.5-.76,2.81,1.19,5.28,2.32,7.47,3.24.09.02.18.03.27.05,6.67,1.32,12.34,5.88,19.29,4.17,10.43-2.57,21.23-6.6,31.25-3.54,3.19-.06,6.38-.33,9.57-.59-7.07-1.37-14.83-.66-22.23-1.63-6.93-.91-12.89-4.28-19.69-4.3Z"/>
      <path class="cls-22" d="M203.18,139.98c-.09-.02-.18-.03-.27-.05,1.96.82,3.69,1.49,5.21,1.9.2.4,1,1.02,1.4,1.83-3,1.04-5.97,2.23-8.92,3.51-.4.47-.82.96-1.26,1.46-.98,1.12-2.04,2.3-3.18,3.55,1.77-.72,3.56-1.39,5.34-1.95,6.07-1.91,12.14-2.63,17.3-.52,1.75-.14,3.55-.03,5.39.37,2.31-2.18,4.77-4.01,7.42-5.31,3.7-1.81,7.76-2.57,12.26-1.82-.26-1.08-.47-2.16-.64-3.24,3.49.75,6.99.95,10.49.88-10.02-3.06-20.82.98-31.25,3.54-6.95,1.71-12.63-2.84-19.29-4.17Z"/>
      <path class="cls-9" d="M143.86,203.03c6.81-6.05,13.64-12.35,20.18-18.54,6.91-9.61,14.29-17.08,12.46-20.84-1.51-3.08-9.47.38-15.79-.8-3.74.31-6.85-.1-9.55-.99,4.54,3.41,11.88,4.9,14.11,9.46,4.19,8.56-11.15,18.97-21.41,31.72Z"/>
      <path class="cls-35" d="M132.22,213.16c3.82-3.25,7.73-6.65,11.64-10.13,10.26-12.75,25.6-23.16,21.41-31.72-2.23-4.55-9.57-6.05-14.11-9.46-1.9-.63-3.6-1.49-5.16-2.5,3.06,5.15,10.11,7.06,12.93,12.83,7.38,15.09-22.36,28.54-26.71,40.97Z"/>
      <path class="cls-30" d="M139.98,168.69c11.6,23.71-18.02,38.39-19.45,42.73-3.38,10.25-10.06,18.19-18.14,24.7,5.3-3.42,11.51-8.02,18.22-13.39.21-1.87.31-3.73.33-5.52.05-5.5,33.14-27.5,21.95-50.38-9.7-19.84-28.43-14.42-35.05-19.89-2.64,2.77-5.34,5.47-8.23,7.93,12.33-.71,32.55-2.19,40.37,13.81Z"/>
      <path class="cls-15" d="M151.51,168.14c9.96,20.36-16.92,33.7-26.93,51.4,2.5-2.04,5.05-4.17,7.64-6.37,4.35-12.44,34.09-25.88,26.71-40.97-2.82-5.77-9.87-7.68-12.93-12.83-9.46-6.11-14.12-17.64-30.65-15.3-.93.13-1.86.29-2.8.48,9.76,4.75,30.74,6.77,38.97,23.6Z"/>
      <path class="cls-26" d="M137.29,171.56c9.67,19.77-10.54,30.79-17.46,37.44-10.57,10.15-5.71,20.28-35.9,35.06-6.97,3.41-14.25,6.3-21.31,9.42,11.19-3.16,22.55-8.26,32.37-13.07,2.19-1.07,4.68-2.52,7.42-4.29,8.08-6.52,14.76-14.45,18.14-24.7,1.43-4.34,31.05-19.02,19.45-42.73-7.83-16-28.04-14.51-40.37-13.81-.87.74-1.76,1.46-2.68,2.16,16.22-3.48,32.31-1.94,40.36,14.52Z"/>
      <path class="cls-4" d="M142.9,166.84c11.19,22.88-21.9,44.87-21.95,50.38-.02,1.78-.12,3.64-.33,5.52,1.04-.83,2.1-1.69,3.17-2.56.26-.21.53-.43.79-.65,10-17.69,36.88-31.04,26.93-51.4-8.23-16.83-29.21-18.85-38.97-23.6-1.01.2-2.02.42-3.04.67-.55.59-1.1,1.17-1.66,1.75,6.63,5.47,25.35.06,35.05,19.89Z"/>
      <path class="cls-14" d="M188.89,154.28c2.11,4.32-15.57,19.66-23.8,28.76-.35.48-.71.96-1.06,1.45,12.69-12.03,24.23-23.65,32.12-32.31,1.14-1.25,2.2-2.43,3.18-3.55.44-.5.86-.99,1.26-1.46-.68.29-1.35.58-2.02.88-3.44,1.53-6.84,3.17-10.22,4.82-2.17,1.06-4.34,2.13-6.49,3.19-1.14.56-2.24,1.07-3.31,1.55.46-.13.76-.22.84-.26,3.37-1.28,9.04-4.02,9.5-3.07Z"/>
      <path class="cls-12" d="M176.49,163.65c1.75,3.57-4.82,10.48-11.4,19.39,8.23-9.1,25.91-24.44,23.8-28.76-.46-.94-6.13,1.8-9.5,3.07-.08.03-.38.13-.84.26-7.27,3.27-13.07,4.84-17.85,5.23,6.32,1.18,14.28-2.28,15.79.8Z"/>
      <path class="cls-21" d="M83.92,244.05c30.2-14.77,25.34-24.9,35.9-35.06,6.92-6.65,27.14-17.67,17.46-37.44-8.05-16.45-24.13-18-40.36-14.52-.91.7-1.85,1.37-2.81,2.01,15.5-4.57,35.86-2.45,42.9,17.33,3.98,11.17-4.15,18.79-23.05,38-3.02,3.07-2.43,15.07-34.47,30.75-7.07,3.46-14.63,7.04-22.21,9.7,1.76-.39,3.52-.84,5.3-1.34,7.07-3.12,14.34-6.01,21.31-9.42Z"/>
      <path class="cls-39" d="M23.45,249.26c6.89,6.45,27.51,8.78,53.99-4.18,31.41-15.37,32.74-31.9,43.06-40.23,20.3-16.4,16.51-24.99,12.83-32.51-1.16-2.36-2.78-4.5-4.83-5.88-7.97-11.99-28.61-7.48-31.35-6.14-.75.37-6.15,3.6-10.09,5.07-2.86,1.07-8.73,1.72-17.07,5.8-8.67,4.24-10.74,6.41-16.19,10.28-17.82,12.65-12.92,19.55-32.09,28.92-1.68.82-3.36,1.51-3.36,1.51-4.23,2.07-6.81,12.12-4.25,21.08,1.56,5.46,4,11.26,9.36,16.28ZM31.46,209.39c6.52-3.19,9.27-2.11,19.23-6.98,17.33-8.48,32.66-26.02,45.64-32.37,14.8-7.24,26.72-.67,31.93,3.78.62,1.09,1.15,2.25,1.51,2.99,1.92,3.92,1.57,8.95-1.21,11.84-17.47,18.16-28.5,43.15-57.45,57.31-24.47,11.97-45.37,3.9-50.36-6.3-5.71-11.67-3.54-23.29,10.71-30.26Z"/>
      <path class="cls-33" d="M57.31,254.82c7.58-2.66,15.14-6.24,22.21-9.7,32.04-15.67,31.45-27.68,34.47-30.75,18.9-19.2,27.03-26.83,23.05-38-7.05-19.78-27.41-21.89-42.9-17.33-1.71,1.14-3.49,2.19-5.38,3.11-3.9,1.91-13.79,5.21-23.07,9.75-28.46,13.92-23.06,24.59-36.22,31.95-.47.26-.97.53-1.49.78-1.82.89-3.72,1.72-5.6,2.63-15.19,7.43-11.83,24.29-7.8,32.52,8.36,17.09,24.98,19.01,42.75,15.02ZM18.35,211.91s1.68-.69,3.36-1.51c19.16-9.38,14.26-16.27,32.09-28.92,5.46-3.87,7.52-6.03,16.19-10.28,8.34-4.08,14.22-4.73,17.07-5.8,3.94-1.47,9.34-4.7,10.09-5.07,2.74-1.34,23.38-5.85,31.35,6.14,2.05,1.38,3.68,3.52,4.83,5.88,3.68,7.52,7.47,16.11-12.83,32.51-10.32,8.34-11.65,24.87-43.06,40.23-26.49,12.96-47.1,10.63-53.99,4.18-5.36-5.02-7.8-10.82-9.36-16.28-2.56-8.96.02-19.01,4.25-21.08Z"/>
      <path class="cls-3" d="M71.11,245.95c28.94-14.16,39.98-39.15,57.45-57.31,2.78-2.89,3.13-7.92,1.21-11.84-.36-.74-.9-1.89-1.51-2.99-5.22-4.44-17.13-11.02-31.93-3.78-12.98,6.35-28.31,23.89-45.64,32.37-9.96,4.87-12.71,3.8-19.23,6.98-14.25,6.97-16.42,18.6-10.71,30.26,4.99,10.19,25.89,18.27,50.36,6.3ZM35.68,209.63c9.9-4.84,20.1-2.34,44.29-14.18,10.51-5.14,21.67-12.73,21.68-12.74,6.19-3.03,13.45-.11,16.15,5.42.99,2.03,1.33,4.18,1.16,6.25-11.49,18.86-27.38,35.96-47.11,45.61-17.7,8.66-39.91,11.17-45.83-.92-.55-1.12-.6-2.42-1.16-3.56-.49-.99-1.41-1.98-1.92-3.01-.73-1.5.12-16.7,12.73-22.86Z"/>
      <path class="cls-19" d="M67.76,240.28c10.75-5.26,19.94-13.76,25.96-24.11-9.24-14.39-29.64,1.4-43.31,3.37-6.28.91-12.68,1.51-18.21,4.21-6.47,3.16-4.54,11.81-3.28,14.39,5.51,11.26,24.72,9.04,38.84,2.13Z"/>
      <path class="cls-19" d="M26.03,239.06c5.92,12.09,28.13,9.58,45.83.92,19.74-9.65,35.62-26.75,47.11-45.61.17-2.07-.17-4.22-1.16-6.25-2.7-5.52-9.96-8.45-16.15-5.42-.01,0-11.17,7.6-21.68,12.74-24.2,11.84-34.39,9.34-44.29,14.18-12.6,6.17-13.46,21.36-12.73,22.86.5,1.03,1.43,2.02,1.92,3.01.56,1.14.61,2.44,1.16,3.56ZM32.2,223.76c5.53-2.71,11.93-3.31,18.21-4.21,13.67-1.98,34.07-17.76,43.31-3.37-6.02,10.35-15.21,18.85-25.96,24.11-14.12,6.91-33.34,9.13-38.84-2.13-1.26-2.58-3.19-11.23,3.28-14.39Z"/>
      <path class="cls-11" d="M203.11,144.45c.25.52.41,1.01.51,1.46,1.96-.8,3.92-1.56,5.9-2.24-.4-.81-1.2-1.42-1.4-1.83-5.77-1.56-14.44-6.71-27.51-10.54,11.75,4.81,20.59,9.3,21.84,11.87.22.44.44.86.65,1.28Z"/>
      <path class="cls-37" d="M197.85,144.31c.73,1.5.65,2.96.2,3.97.17-.08.35-.16.52-.24.67-.3,1.35-.59,2.02-.88,1-.43,2.01-.85,3.02-1.26-.09-.45-.25-.94-.51-1.46-.21-.42-.43-.84-.65-1.28-1.26-2.57-10.09-7.06-21.84-11.87-.18-.05-.36-.11-.54-.16-1.66-.48-3.39-.93-5.19-1.35,11.81,5.67,21.43,11.46,22.41,13.46.16.33.38.7.56,1.07Z"/>
      <g>
        <path class="cls-16" d="M68.33,147.48c.21.14.42.27.63.4,16.74-7.56,36.02-14.86,54.44-18.6-15.66,2.84-33.87,8.44-55.07,18.2Z"/>
        <path class="cls-16" d="M183.56,144.03c1.74,3.55,1.85,7.62,1.58,10.42,1.07-.53,2.14-1.05,3.21-1.58.81-.4,1.62-.79,2.44-1.18-.17-.71-.38-1.33-.57-1.71-7.38-15.09-20.79-21.7-36.93-23.04-6.59-.23-13.84.06-21.8,1.08,23.82-1.52,45.06,1.67,52.07,16Z"/>
      </g>
      <path class="cls-31" d="M190.22,149.98c.18.38.39,1,.57,1.71.92-.45,1.85-.89,2.77-1.33.1-1.4-.45-2.84-1.04-4.05-5.88-12.02-16.6-15.3-27.43-18.35-3.68-.51-7.6-.87-11.8-1.02,16.14,1.33,29.55,7.95,36.93,23.04Z"/>
      <path class="cls-40" d="M192.52,146.31c.59,1.21,1.14,2.65,1.04,4.05,1.49-.71,2.99-1.4,4.49-2.08.45-1.01.53-2.48-.2-3.97-.18-.37-.39-.74-.56-1.07-.98-2-10.6-7.79-22.41-13.46-3.05-.72-6.31-1.34-9.8-1.82,10.83,3.05,21.55,6.33,27.43,18.35Z"/>
      <path class="cls-24" d="M72.09,149.52c2.46-3.81,15.87-8.84,23.56-11.58,30.58-10.92,76.68-10.07,83.88,2.32,5.43,9.35,0,15.39-2.14,17.86,1.43-.62,2.92-1.31,4.47-2.07,1.09-.53,2.19-1.07,3.28-1.61.27-2.8.16-6.87-1.58-10.42-7.01-14.34-28.25-17.53-52.07-16-.85.11-1.71.22-2.58.35-1.8.26-3.64.56-5.51.9-18.42,3.74-37.7,11.04-54.44,18.6,1.02.65,2.07,1.19,3.14,1.64Z"/>
      <path class="cls-10" d="M109.5,145.2c1.98-.48,3.93-.88,5.84-1.15,27.83-3.93,22.03,31.42,62.04,14.07,2.15-2.47,7.57-8.52,2.14-17.86-7.2-12.39-53.3-13.24-83.88-2.32-7.68,2.74-21.09,7.77-23.56,11.58,11.29,4.75,24.88-1.3,37.41-4.32ZM85.14,142.91c14.07-6.86,32.84-9.9,32.84-9.9,8.44-2.16,52.46-4.66,59.5,10.59,1.74,3.77,1.43,7.2.72,9.41-1.09,1.36-2.97,3.05-6.32,4.92-31.99,17.84-28.72-34.59-83.87-7.74-3.16,1.54-11.77-.09-12.35-1.29-.35-.72,6.39-4.49,9.49-6Z"/>
      <path class="cls-27" d="M88,150.2c55.15-26.85,51.87,25.58,83.87,7.74,3.35-1.87,5.23-3.56,6.32-4.92.7-2.21,1.02-5.64-.72-9.41-7.03-15.26-51.06-12.76-59.49-10.59,0,0-18.77,3.04-32.84,9.9-3.1,1.51-9.84,5.28-9.49,6,.59,1.2,9.2,2.83,12.35,1.29ZM120.37,134.69c1.93-.11,44.43-6.56,52.33,9.59,1.38,2.83,1.87,5.16,1.93,7.02-2.66,3.28-9.05,6.84-9.9,7.25-11.6,5.67-14.2-10.13-46.03-17.61-1.85-.44-16.56.66-16.79.19-.98-2,10.93-6.03,18.46-6.45Z"/>
      <path class="cls-4" d="M164.72,156.15c2.39-1.17,4.14-3.14,5.08-4.72.04-2.21-.78-4.79-1.51-6.3-5.16-10.54-21.21-9.56-26.97-6.74-2.27,1.11-6.07,3.06-5,5.24.74,1.51,21.2,16.05,28.41,12.52Z"/>
      <path class="cls-15" d="M118.7,140.95c31.83,7.47,34.44,23.28,46.03,17.61.85-.41,7.24-3.97,9.9-7.25-.06-1.86-.55-4.19-1.93-7.02-7.9-16.15-50.39-9.7-52.33-9.59-7.53.42-19.44,4.45-18.46,6.45.23.46,14.93-.63,16.79-.19ZM141.32,138.39c5.76-2.82,21.82-3.79,26.97,6.74.74,1.51,1.56,4.08,1.51,6.3-.95,1.58-2.69,3.55-5.08,4.72-7.21,3.53-27.67-11.01-28.41-12.52-1.07-2.18,2.73-4.13,5-5.24Z"/>
      <path class="cls-8" d="M90.65,152.7c-1.32-2.7-9.87.91-15.28-2.09-1.64-.39-3.24-.97-4.79-1.78.05.14.1.27.17.42,2.24,4.57,8.49,1.01,10.54,5.19,3.07,6.28-9.63,8.54-11.64,15.61.61-.28,1.23-.55,1.84-.81,4.05-9.77,21.24-12.28,19.16-16.54Z"/>
      <path class="cls-22" d="M80.38,165.6c3.61-1.42,6.6-2.57,8.37-3.43,8.25-4.04,14.58-10.4,20.75-16.96-2.31.56-4.65,1.21-7.01,1.89,1.96,4.71-12.45,12.44-22.11,18.51Z"/>
      <path class="cls-38" d="M81.29,154.45c-2.05-4.19-8.3-.62-10.54-5.19-.07-.14-.12-.28-.17-.42-.51-.27-1.02-.57-1.52-.88.08.42.21.82.39,1.2,1.51,3.08,6.76,3.58,8.24,6.62,1.87,3.83-7.36,8.55-11.04,15.68,1-.48,2-.94,3-1.39,2.01-7.07,14.71-9.33,11.64-15.61Z"/>
      <path class="cls-42" d="M90.65,152.7c2.08,4.26-15.1,6.77-19.16,16.54.05-.02.09-.04.14-.06.62-2.3,3.77-4.04,6.92-5.58,2.1-1.03,4.27-1.91,6.37-2.94,3.21-1.57,13.04-7.64,11.86-10.07-.39-.81-2.26-.81-4.7-.69-5.76,1.32-11.43,1.98-16.7.71,5.41,3,13.96-.61,15.28,2.09Z"/>
      <path class="cls-43" d="M96.78,150.59c1.19,2.43-8.65,8.5-11.86,10.07-2.1,1.03-4.27,1.91-6.37,2.94-3.14,1.54-6.29,3.28-6.92,5.58,3.09-1.34,6.08-2.53,8.74-3.58,9.66-6.07,24.07-13.79,22.11-18.51-3.46.99-6.96,2.02-10.42,2.81,2.44-.12,4.31-.12,4.7.69Z"/>
      <path class="cls-31" d="M66.9,129.93c4.59,9.39-6.98,16.92-4.48,22.02,1.2,2.46,4.09,4.69,5.37,7.29,4.12,8.42-21.85,16.38-27.04,32.64,1.82-2.65,3.97-5.52,7.34-8.6,6.61-8.48,26.79-17.65,22.56-26.29-1.07-2.2-4.99-5.2-5.52-6.27-2.11-4.31,6.94-13.12,2.56-22.08-.21-.43-.5-.92-.55-1.02-.11-.23-.21-.48-.32-.7-1.52-3.11-11.12-3.99-23.56-1.23-3.04,1.64-5.78,3.58-8.28,5.77,1.76-1.12,3.55-2.15,5.39-3.05,8.29-4.05,22.41-6.88,26.52,1.53Z"/>
      <path class="cls-40" d="M66.83,126.92c.11.22.2.46.32.7.05.11.34.59.55,1.02,4.38,8.95-4.67,17.77-2.56,22.08.53,1.07,4.45,4.08,5.52,6.27,4.23,8.65-15.95,17.81-22.56,26.29,3.01-2.75,7-5.68,12.59-8.78,4.87-6.93,15.99-10.44,12.36-17.85-1.23-2.51-4.1-4.61-4.97-6.38-3.96-8.1,7.83-14.49,3.52-23.29-2.6-5.31-9.06-5.31-14.18-5.87-3.96.47-8.07,1.55-12.6,3.76-.52.26-1.04.52-1.54.8,12.44-2.76,22.04-1.87,23.56,1.23Z"/>
      <path class="cls-37" d="M71.59,127c4.31,8.8-7.48,15.19-3.52,23.29.87,1.77,3.74,3.87,4.97,6.38,3.63,7.42-7.49,10.93-12.36,17.85,1.54-.85,3.2-1.72,4.99-2.6.33-.16.65-.32.98-.47,3.68-7.13,12.91-11.85,11.04-15.68-1.48-3.03-6.73-3.53-8.24-6.62-.19-.38-.31-.78-.39-1.2-.24-.15-.49-.31-.73-.47.22-.1.43-.2.65-.29-.33-6.06,7.82-15.37,4.91-21.32-.99-2.02-4.02-3.68-6.84-4.96-3.19-.14-6.36-.16-9.63.23,5.12.56,11.58.55,14.18,5.87Z"/>
      <path class="cls-22" d="M97.3,129.15c2,4.08-7.35,9.14-8.45,9.67-.47.23-.94.44-1.42.65,2.56-.96,5.08-1.87,7.54-2.7,2.53-1.08,5.04-2.17,7.51-3.37,2.69-1.32,9.52-5.24,8.2-7.93-1.88-3.85-12.7-1.46-19.85-5.03-1.26.09-2.52.22-3.81.4-2.66.37-5.17.52-7.59.55,5.22,5.7,14.91,1.74,17.85,7.76Z"/>
      <path class="cls-20" d="M110.69,125.47c1.31,2.69-5.51,6.61-8.2,7.93-2.47,1.21-4.98,2.29-7.51,3.37,7.46-2.53,14.46-4.5,21.05-5.98.23-.09.46-.19.68-.3,1.19-.58,3.56-1.89,2.97-3.08-2.33-4.77-13.03-3.49-19.77-6.93-2.95-.23-5.97-.26-9.07-.03,7.15,3.57,17.96,1.18,19.85,5.03Z"/>
      <path class="cls-32" d="M119.68,127.4c.58,1.19-1.79,2.5-2.97,3.08-.22.11-.45.21-.68.3,4.48-1.01,8.78-1.81,12.88-2.41-8.91-3.66-18.51-7.08-29-7.91,6.74,3.45,17.44,2.16,19.77,6.93Z"/>
      <path class="cls-43" d="M86.75,129.02c3.64,7.44-9.74,8.61-9.65,14.58,3.53-1.49,6.97-2.87,10.33-4.13.48-.21.95-.42,1.42-.65,1.09-.53,10.44-5.59,8.45-9.67-2.94-6.02-12.63-2.06-17.85-7.76-2.12.02-4.16-.05-6.16-.15,4.4,2.96,10.68,2.1,13.47,7.78Z"/>
      <path class="cls-42" d="M75.19,144.42c.51-.22,1.03-.45,1.54-.66.13-.05.25-.1.38-.16-.1-5.97,13.29-7.14,9.65-14.58-2.78-5.69-9.07-4.82-13.47-7.78-.74-.04-1.48-.08-2.21-.12,3.32,2.07,6.46,4.79,7.71,7.36,2,4.09-6.83,8.16-3.6,15.94Z"/>
      <path class="cls-8" d="M76.45,127.48c3.23,6.6-8.29,13.78-6.53,19.28.19-.09.39-.18.58-.27.43-.19.86-.38,1.29-.57,1.15-.51,2.28-1.01,3.41-1.49-3.22-7.78,5.6-11.85,3.6-15.94-1.26-2.57-4.39-5.29-7.71-7.36-1.16-.07-2.3-.13-3.44-.19,3.16.96,6.77,2.38,8.81,6.54Z"/>
      <path class="cls-38" d="M68.98,147.18c.31-.14.63-.29.94-.43-1.76-5.49,9.76-12.68,6.53-19.28-2.04-4.17-5.65-5.59-8.81-6.54-.2,0-.39-.02-.59-.03,2.82,1.28,5.85,2.94,6.84,4.96,2.91,5.95-5.24,15.26-4.91,21.32Z"/>
      <path class="cls-16" d="M65.15,132.99c3.25,7.19-9.16,11.29-5.19,19.41,1.31,2.67,4.47,3.48,6.2,7.26,1.25,2.71-.39,4.48-4.75,7.96-29.49,23.5-17.7,26.71-30.78,33.11-2.42,1.18-5.15,1.72-7.5,1.95,2.14.28,4.26.7,6.31,1.19,5.94-3.32,8.1-7.32,11.3-11.98,5.19-16.26,31.16-24.22,27.04-32.64-1.27-2.6-4.17-4.83-5.37-7.29-2.5-5.1,9.07-12.63,4.48-22.02-4.11-8.4-18.23-5.58-26.52-1.53-1.84.9-3.63,1.93-5.39,3.05-1.34,1.18-2.61,2.43-3.81,3.74,14.63-9.13,29.78-11.49,33.97-2.21Z"/>
      <path class="cls-24" d="M1.79,206.81s1.54-1.02,3.28-1.87c5.65-2.76,11.95-3.07,18.07-2.26,2.35-.23,5.07-.77,7.5-1.95,13.09-6.4,1.29-9.61,30.78-33.11,4.37-3.48,6-5.24,4.75-7.96-1.73-3.77-4.9-4.59-6.2-7.26-3.97-8.12,8.44-12.22,5.19-19.41-4.19-9.28-19.35-6.92-33.97,2.21-15.96,17.46-20.48,46.38-31.18,69.26,0,0,.16.87.5,1.57.29.59.72,1.07,1.3.78ZM37.91,133.38c9.26-4.53,21.16-8.98,25.41-.3.56,1.14,1.31,3.63.54,4.59-1.25,3.08-8.92,8.7-5.04,16.63,2,4.08,6.21,6.07,6.21,6.07,1.83,3.73-4.64,6.38-5.16,6.74-14.47,9.83-21.2,28.79-30.01,33.1-8.67,4.24-11.17-3.09-22.59,2.5-.8.39-1.58.79-2.38,1.18-2.95,1.44-3.33,1.54-3.54,1.12-.21-.42,20.49-63.76,36.56-71.63Z"/>
      <path class="cls-35" d="M4.88,203.89c.8-.39,1.59-.8,2.38-1.18,11.42-5.59,13.92,1.75,22.59-2.5,8.81-4.31,15.54-23.27,30.01-33.1.53-.36,6.99-3.01,5.16-6.74,0,0-4.21-1.99-6.21-6.07-3.88-7.93,3.79-13.55,5.04-16.63.77-.95.01-3.45-.54-4.59-4.25-8.69-16.15-4.23-25.41.3C21.84,141.25,1.14,204.59,1.35,205.01c.21.42.58.32,3.54-1.12ZM42.92,133.33c4.98-2.44,10.23-3.95,12.78,1.26,3.26,6.66-3.27,18.1-.8,23.14.65,1.33,1.52,1.9,2.81,2.83.77.56,1.73.86,2.62,1.08-1,.21-1.51.29-2.18.61-9.48,4.64-19.6,27.62-27.86,31.66-.44.21-.87.39-1.29.6-2.9,1.42-4.87.34-7.22.78-5.35,1.01-10.08,5.32-11.98,1.44-3.54-7.23,14.12-54.11,33.11-63.4Z"/>
      <path class="cls-41" d="M21.79,195.3c2.35-.44,4.32.64,7.22-.78.42-.21.86-.39,1.29-.6,8.26-4.04,18.38-27.03,27.86-31.66.66-.32,1.17-.4,2.18-.61-.89-.22-1.85-.52-2.62-1.08-1.29-.93-2.16-1.5-2.81-2.83-2.47-5.05,4.05-16.49.8-23.14-2.55-5.2-7.79-3.69-12.78-1.26-18.99,9.29-36.65,56.17-33.11,63.4,1.9,3.88,6.62-.43,11.98-1.44ZM44.4,134.67c3.66-1.79,6.71-2.19,8.48,1.41,2.96,6.05-5.67,15.72-3.31,20.55.24.49.51.97.75,1.47,3.72,7.6-10.62,16.91-16.64,19.85-.13.06-.26.13-.39.19-6.23,3.05-8.91,11.21-16.56,14.95-.17.08-.34.16-.51.24-1.16-.2-2.14-.78-2.71-1.96-5.56-11.37,21.88-52.3,30.89-56.71Z"/>
      <path class="cls-6" d="M26.07,177.45s10.97-11.09,17.82-17.4c-2.15-4.82,5.18-10.59,2.89-15.27-1.53-3.13-4.38-2.88-7.5-1.35-5.63,2.76-21.38,24.96-18.01,31.85,1.06,2.17,2.56,3.26,4.79,2.17Z"/>
      <path class="cls-23" d="M16.22,193.33c.17-.08.34-.16.51-.24,7.65-3.74,10.33-11.9,16.56-14.95.13-.06.26-.13.39-.19,6.02-2.95,20.35-12.25,16.64-19.85-.24-.49-.51-.97-.75-1.47-2.36-4.83,6.27-14.5,3.31-20.55-1.77-3.61-4.82-3.21-8.48-1.41-9.01,4.41-36.45,45.34-30.89,56.71.57,1.17,1.55,1.75,2.71,1.96ZM39.28,143.43c3.12-1.53,5.97-1.77,7.5,1.35,2.29,4.67-5.04,10.45-2.89,15.27-6.85,6.31-17.82,17.4-17.82,17.4-2.24,1.09-3.73,0-4.79-2.17-3.37-6.89,12.37-29.1,18.01-31.85Z"/>
      <path class="cls-4" d="M175.13,192.31c-4.15,3.72-1.91,5.94-19.09,54.67-9.41,26.68-45.96,37.05-33.48,62.56,5.06,10.34,17.79,10.74,30.78,13.56,1.06-1.05,2.07-2.15,3.01-3.3-8.4-3.46-26.38,3.15-33.66-11.74-11.46-23.43,34.98-22.37,48.58-105.14,1.68-10.23,4.7-4.58,33.15-34.85,5.82-6.2,11.29-13.58,17.5-18.32-.76-.07-1.52-.09-2.27-.07-6.56,4.23-12.4,11.29-16.52,17.93-6.76,10.87-18.51,16.2-27.99,24.7Z"/>
      <path class="cls-24" d="M144.26,276.14c-6.36,8.54-10.3,17.21-5.65,26.7,4.49,9.19,16.68,8.11,20.76,12.73.11-.18.23-.36.34-.54-1.93-2.08-3.66-4.1-5.16-6.03-4.19-3.6-8.33-6.62-10.66-11.4-4.01-8.2-3.08-15.19.37-21.47Z"/>
      <path class="cls-35" d="M154.2,259.89c-10.1,14.57-29.09,31.78-20.47,49.38,5.13,10.49,15.1,2.92,24.29,8.34.47-.67.92-1.35,1.36-2.05-4.08-4.62-16.27-3.54-20.76-12.73-4.65-9.5-.71-18.17,5.65-26.7,2.47-4.51,6.25-8.65,10.42-12.6,6.39-7.56,12.3-15.28,13.51-23.64.29-1.99.63-4.03,1.09-6.04-.59-3.05-.86-6.04-.68-9.04-3.18,11.24-6.08,23.09-14.4,35.08Z"/>
      <path class="cls-15" d="M221.91,149.74c-6.21,4.75-11.68,12.13-17.5,18.32-28.46,30.26-31.47,24.62-33.15,34.85-13.59,82.77-60.04,81.71-48.58,105.14,7.28,14.89,25.26,8.28,33.66,11.74.58-.71,1.14-1.43,1.67-2.17-9.19-5.42-19.16,2.15-24.29-8.34-8.61-17.61,10.38-34.82,20.47-49.38,8.32-11.99,11.22-23.84,14.4-35.08.3-5.04,1.89-10.13,5.38-15.66,4.24-9.42,10.87-18.17,23.93-25.92,2.19-1.3,8.85-14.12,19.53-25.39,2.08-2.81,4.32-5.48,6.74-7.76-.76-.17-1.52-.27-2.27-.34Z"/>
      <path class="cls-24" d="M173.98,209.15c4.72-7.48,12.93-15.79,26.21-25.94,4.02-3.07,9-13.64,15.69-23.22.51-.73,1.03-1.44,1.55-2.16-10.68,11.27-17.34,24.1-19.53,25.39-13.07,7.75-19.7,16.5-23.93,25.92Z"/>
      <g>
        <path class="cls-44" d="M144.26,276.14c3.13-4.2,6.85-8.38,10.42-12.6-4.17,3.95-7.94,8.09-10.42,12.6Z"/>
        <path class="cls-44" d="M154.68,263.53c7.81-7.4,17.01-14.14,21.76-21.42-2.78-1.13-4.74-2.12-5.83-2.81-.54-1.85-.99-3.67-1.33-5.45-.46,2.01-.8,4.05-1.09,6.04-1.22,8.36-7.13,16.09-13.51,23.64Z"/>
      </g>
      <path class="cls-30" d="M172.18,194.55c-11.82,28.3-14.25,50.39-24.56,65.72-6.26,9.31-41.39,25.28-29.41,49.76,7.38,15.08,21.38,12.34,23.54,16.76.87,1.78.69,3.32-.1,4.66,4.32-2.2,8.29-5.01,11.68-8.36-12.98-2.82-25.72-3.22-30.78-13.56-12.48-25.51,24.07-35.87,33.48-62.56,17.18-48.73,14.94-50.95,19.09-54.67,9.48-8.5,21.24-13.83,27.99-24.7,4.13-6.64,9.96-13.7,16.52-17.93-.28,0-.56.01-.84.04-2.57.2-5.05.93-7.38,2.07-1.58.77-2.97,1.6-4.22,2.47-.91.63-1.72,1.29-2.48,1.96,4.99,15.55-28.6,28.89-32.54,38.34Z"/>
      <path class="cls-26" d="M111.04,336.02c8.66,2.28,18.86,1.2,29.91-4.2.24-.12.47-.24.71-.36.78-1.34.97-2.88.1-4.66-2.16-4.41-16.16-1.68-23.54-16.76-11.98-24.49,23.14-40.45,29.41-49.76,10.31-15.33,12.75-37.42,24.56-65.72,3.95-9.45,37.54-22.8,32.54-38.34-9.29,8.24-8.32,19.16-19.16,24.46-2.52,1.23-5.2,2.2-7.62,3.39-15.3,7.48-1.31,22.79-29.45,51.81-36.48,37.63-60.13,58.61-59.77,81.18,4.87,9.65,12.63,16.41,22.32,18.97ZM146.85,239.25c22.14-29.46,9.79,3.23.79,18.04-8.34,13.72-41.69,30.09-32.1,51.88,5.55,12.62,21.79,16,25.37,20.06.04,2.51-3.95,3.45-5.9,4.41-4.57,2.24-33.17,5.69-42.25-12.87-12.2-24.94,36.51-58.11,54.1-81.52Z"/>
      <path class="cls-21" d="M135,333.63c1.95-.96,5.95-1.9,5.9-4.41-3.57-4.06-19.82-7.44-25.37-20.06-9.59-21.8,23.76-38.16,32.1-51.88,9-14.8,21.35-47.5-.79-18.04-17.59,23.41-66.3,56.57-54.1,81.52,9.08,18.55,37.67,15.1,42.25,12.87ZM129.62,264.01c2.46-1.4,3.53-4.56,6.16-5.98.01,0,.03-.02.04-.02.67-.33,1.49.04,1.79.66,3.63,7.41-37.97,27.91-24.66,55.13,5.72,11.7,14.83,9.77,17.97,16.2.16.32.22.62.22.9-15.78,5-33.54-5.73-36.43-11.65-4.31-8.8,4.85-38.11,34.91-55.22Z"/>
      <path class="cls-33" d="M120.23,329.62c.89-.6,1.66-1.46,1.1-2.6-1.23-2.52-7.64-3.99-10.24-9.3-2.29-4.69-2.78-12.89-4.74-16.9-.84-1.72-1.59-3.87-3.32-3.03-5.84,2.86-9.8,13.53-6.45,20.38,3.28,6.7,16.52,13.7,23.64,11.45Z"/>
      <path class="cls-13" d="M131.14,330.88c0-.27-.06-.57-.22-.9-3.15-6.43-12.25-4.5-17.97-16.2-13.32-27.22,28.28-47.71,24.66-55.13-.3-.62-1.12-.98-1.79-.66-.01,0-.03.01-.04.02-2.62,1.42-3.7,4.58-6.16,5.98-30.06,17.11-39.22,46.41-34.91,55.22,2.9,5.92,20.65,16.65,36.43,11.65ZM103.04,297.8c1.72-.84,2.47,1.31,3.32,3.03,1.96,4.01,2.45,12.21,4.74,16.9,2.6,5.3,9,6.78,10.24,9.3.56,1.14-.21,2-1.1,2.6-7.12,2.25-20.36-4.75-23.64-11.45-3.35-6.85.61-17.52,6.45-20.38Z"/>
      <path class="cls-31" d="M161.21,187.57c6.07-4.37,17.37-12.33,34.86-32.15,4.09-4.63,12.41-6.46,18.18-4.79,1.48-.48,3-.8,4.56-.92-5.16-2.12-11.23-1.39-17.3.52-1.79.56-3.58,1.23-5.34,1.95-16.04,17.59-47.13,47.45-72.36,68-4.61,5.62-9.11,11.45-13.33,17.37,7.44-7.63,6.79-10.73,19.03-19.16,19.18-13.21,24.57-25.67,31.72-30.83Z"/>
      <path class="cls-24" d="M167.14,183.98c17.89-9.08,21.75-24.19,32.27-29.34,3.24-1.58,6.79-2.41,10.6-2.13.45-.25.92-.5,1.41-.74.92-.45,1.86-.83,2.82-1.15-5.77-1.67-14.09.16-18.18,4.79-17.48,19.82-28.79,27.77-34.86,32.15-7.15,5.16-12.54,17.62-31.72,30.83-12.24,8.43-11.59,11.52-19.03,19.16-.63.89-1.26,1.78-1.88,2.68,16.9-18.97,36.36-27.27,45.67-41,4.46-6.57,5.84-11.68,12.89-15.26Z"/>
      <path class="cls-10" d="M145.54,211.45c13.47-8.75,10.22-21.72,26.73-29.56,5.99-2.84,7.16-4.37,8.21-5.44,4.46-4.61,8.95-15.65,19.86-20.99,1.62-.79,4.43-1.15,7.08-1.35.8-.55,1.67-1.08,2.6-1.59-3.81-.28-7.36.54-10.6,2.13-10.52,5.15-14.38,20.26-32.27,29.34-7.05,3.58-8.43,8.69-12.89,15.26-9.31,13.72-28.77,22.03-45.67,41-6.57,9.47-12.37,19.15-16.67,28.61,9.35-11.24,6.68-26.88,53.63-57.4Z"/>
      <path class="cls-15" d="M93.44,294.63c.34-.4,34.41-43.37,58.79-64.58.57-.49,4.19-5.4,4.93-6.27,11.47-13.61,6.37-35.74,21.78-41.05,15.15-5.22,14.9-13.93,23.29-26.2-.21-.42-3.33,1.32-3.63,1.42-.31.12-.62.25-.92.4-8.51,4.16-14.35,18.69-20.47,21.45-19.28,8.72-19.45,23.69-28.43,30.41-26.26,19.63-65.7,48.97-61.72,99.59.49,6.2,1.3-9.12,6.38-15.17ZM107.58,249.29s22.27-23.66,22.85-23.94c.02-.01,6.46-4.92,7.91-5.86,23.84-15.4,17.19-24,28.32-31.14,4.42-2.84-.41,8.65-5.03,18.59-2.14,7.6-4.23,14.73-7.66,17.57-41.57,34.33-90.85,122.35-46.38,24.79Z"/>
      <path class="cls-30" d="M100.74,279.39s32.64-39.15,47.29-53.21c.21-1.19.18-2.4-.3-3.57,0,0,0-.01,0-.02-.43-.87-1.63-.56-2.43-.17,0,0-13.97,13.69-27.19,21.69-8.27,5-20.39,33.03-19.27,35.32.37.76.97.42,1.9-.04Z"/>
      <path class="cls-4" d="M153.96,224.51c3.43-2.84,5.52-9.97,7.66-17.57,4.62-9.95,9.45-21.43,5.03-18.59-11.13,7.14-4.48,15.74-28.32,31.14-1.46.94-7.89,5.85-7.91,5.86-.57.28-22.85,23.94-22.85,23.94-44.47,97.57,4.81,9.54,46.38-24.79ZM118.1,244.11c13.23-8,27.19-21.69,27.19-21.69.79-.39,2-.7,2.43.17,0,0,0,.01,0,.02.48,1.17.51,2.38.3,3.57-14.66,14.06-47.29,53.21-47.29,53.21-.93.46-1.53.8-1.9.04-1.12-2.29,11-30.32,19.27-35.32Z"/>
      <path class="cls-15" d="M277.08,363.11c1.64,3.36-2.74,11.75-6.23,13.47-.14.07-.76.28-1.33.46,1.38,1.36,2.78,2.07,4.36,1.53-.04-.06-.07-.12-.11-.19-1.86-3.81,8.09-9.99,4.54-17.23-3.84-7.84-13.79-2.09-21.45-1.06-2.2.66-4.4,1.2-6.53,1.49,9.19-.27,22.74-6.67,26.74,1.52Z"/>
      <path class="cls-2" d="M278.32,361.16c3.54,7.24-6.41,13.41-4.54,17.23.03.07.07.12.11.19.17-.06.33-.11.5-.2.23-.11.45-.23.67-.35-1.59-1.2,7.95-10.96,3.5-20.04-2.73-5.58-12.19-.72-21.7,2.12,7.66-1.04,17.62-6.79,21.45,1.06Z"/>
      <path class="cls-4" d="M276.22,363.45c1.64,3.35-.31,8.73-5.17,11.11-1.84.9-2.44.97-2.93.91.47.58.93,1.11,1.4,1.57.56-.18,1.19-.39,1.33-.46,3.5-1.71,7.88-10.11,6.23-13.47-4-8.18-17.55-1.78-26.74-1.52-1.52.2-3,.27-4.4.15-2.4-.21-4.81-.55-7.24-.99,12.27,6.31,33.24-6.05,37.52,2.69Z"/>
      <path class="cls-30" d="M252.42,363.21c7.9-.2,11.98,7.64,15.7,12.27.49.06,1.09-.01,2.93-.91,4.87-2.38,6.81-7.77,5.17-11.11-4.27-8.74-25.25,3.61-37.52-2.69-.79-.14-1.57-.3-2.36-.46,4.54,5.37,14.78,2.94,16.08,2.91ZM257.69,362.48c5.93-.19,14.43-4.59,17.27,1.22,2.36,4.82-1.42,8.63-4.25,10.02-1.2.59-2,.86-2.63.65-.02,0-5.67-9.16-12.9-11.64.84.11,1.66-.21,2.5-.24Z"/>
      <path class="cls-25" d="M268.08,374.35c.63.22,1.43-.06,2.63-.65,2.84-1.39,6.61-5.2,4.25-10.02-2.84-5.8-11.34-1.41-17.27-1.22-.84.03-1.66.35-2.5.24,7.23,2.48,12.88,11.63,12.9,11.64ZM264.03,363.12c5.54-2.71,8.87-.81,9.94,1.39,1.56,3.18-.12,6.98-2.78,8.28-3.62,1.77-8.24-5.98-9.35-8,.14-.7,1.2-1.19,2.19-1.67Z"/>
      <path class="cls-7" d="M271.46,371.12c.95-.99,2.56-3.63,1.49-5.83-.92-1.88-1.92-1.96-2.73-1.57-.42.21-4.35,3.3-2.79,6.48.77,1.57,2.57,1.63,4.03.92Z"/>
      <path class="cls-29" d="M271.2,372.79c2.66-1.3,4.34-5.1,2.78-8.28-1.07-2.19-4.4-4.1-9.94-1.39-.99.48-2.05.97-2.19,1.67,1.11,2.02,5.73,9.77,9.35,8ZM270.22,363.72c.81-.4,1.81-.31,2.73,1.57,1.08,2.2-.54,4.84-1.49,5.83-1.46.7-3.26.65-4.03-.92-1.55-3.17,2.37-6.27,2.79-6.48Z"/>
      <path class="cls-5" d="M136.7,339.72c-8.67,4.24-17.07,4.91-17.07,4.91-6.11,2.99-8.41,9.38-10.1,15.94.48,3.37,1.24,6.46,2.2,9.11-1.01-9.86.95-19.34,9.5-23.52,6.78-3.32,8.15-.73,14.58-3.87,2.8-1.37,10.76-6.73,16.62-9.6,11.71-5.73,15.97-1.13,26.92-.17-1.2-.91-2.37-1.82-3.52-2.73-5.77.86-11.62-5.45-22.9.07-3.53,1.73-8.34,6.01-16.24,9.88Z"/>
      <path class="cls-40" d="M144.23,330.74c3.8-1.99,5.33-3.2,7.15-4.42,1.43-.96,2.46-1.64,6.46-4.53,1.95-1.41,3.21-2.29,6.12-2.42-1.5-1.46-2.92-2.91-4.24-4.33-4.36,7.25-11.01,12.99-18.77,16.78-11.04,5.4-21.24,6.49-29.91,4.2-.34,1.22-.64,2.45-.9,3.69,3.58.2,8.23,1,21.37-2.48,3.7-.98,9.47-4.79,12.72-6.48Z"/>
      <path class="cls-18" d="M134.52,337.53c.6-.29,12.9-8.13,15.15-9.23,9.87-4.83,13.08-.52,20.1-3.58-2.06-1.8-4-3.59-5.82-5.36-2.91.13-4.17,1.01-6.12,2.42-4,2.9-5.03,3.57-6.46,4.53-1.82,1.22-3.35,2.44-7.15,4.42-3.25,1.7-9.01,5.51-12.72,6.48-13.14,3.47-17.78,2.68-21.37,2.48-.33,1.59-.58,3.18-.77,4.78.69-.53,1.4-.98,2.11-1.33,8.7-4.26,15.27-1.82,23.04-5.63Z"/>
      <path class="cls-24" d="M133.55,340.05c10.28-5.03,7.23-6.12,15.72-10.27,12.3-6.02,18.52-1.73,23.06-2.86-.87-.73-1.72-1.46-2.56-2.19-7.02,3.06-10.24-1.25-20.1,3.58-2.25,1.1-14.55,8.94-15.15,9.23-7.78,3.8-14.34,1.37-23.04,5.63-.71.35-1.42.8-2.11,1.33-.49,4.09-.56,8.17-.27,12.01,2.73-5.16,3.85-10.19,7.33-11.89,3.49-1.71,14.98-3.51,17.12-4.56Z"/>
      <path class="cls-35" d="M119.63,344.62s8.4-.67,17.07-4.91c7.9-3.86,12.7-8.15,16.24-9.88,11.28-5.52,17.13.8,22.9-.07-1.2-.95-2.36-1.91-3.5-2.86-4.54,1.13-10.76-3.15-23.06,2.86-8.49,4.15-5.43,5.24-15.72,10.27-2.14,1.05-13.63,2.85-17.12,4.56-3.48,1.7-4.6,6.73-7.33,11.89.1,1.39.25,2.75.44,4.07,1.69-6.56,3.98-12.95,10.1-15.94Z"/>
      <path class="cls-15" d="M125.31,385.31c.23,0,.43-.02.6-.11,2.06-1.01.6-7.28-.52-9.56-1.96-4.01-5.55-5.15-7.38-8.89-.98-2-1.2-3.7.79-4.68,5.3-2.59,9.09,8,16.1,4.57,3.64-1.78,2.54-14.69,13.17-19.89,8.66-4.24,15.48,1.43,28.83-5.11,2.38-1.16,5.73-3,7.96-5.14-1.55-1.08-3.05-2.18-4.54-3.29-.32-.24-.65-.47-.96-.71-3.35-.29-6.07-.93-8.57-1.5,3.22,1.02,6.48,2.75,10.33,4.91.03,2.67-2.67,4.18-5.79,5.71-10.57,5.17-16-1.25-25.68,3.49-.52.25-7.29,4.61-9.68,6.91-2.12,2.04-1.95,12.23-6.07,14.28-5.35,2.66-10.45-7.51-14.53-5.52-2.5,1.22-3.05,3.14-1.85,5.59,1.32,2.7,5.07,6.03,7.17,9.46,1.05,1.7,2.64,8.27.91,9.12-1.18.57-8.56-5.35-11.6-11.57-5.73-11.71.5-22.99,6.13-25.75,10.85-5.31,8.92-.78,16.03-4.26,4.38-2.14,7.51-4.64,8.64-5.53,1.24-.98,3.7-2.71,7.08-4.37,5.52-2.7,9.8-3.68,13.76-3.44-3.74-.46-7.63-.08-13.23,2.66-5.86,2.87-13.82,8.23-16.62,9.6-6.43,3.15-7.8.56-14.58,3.87-8.55,4.18-10.51,13.66-9.5,23.52.38,1.04.78,2.02,1.22,2.91,3.04,6.21,9.6,12.64,12.35,12.73Z"/>
      <path class="cls-4" d="M125.61,384.95c1.73-.85.14-7.42-.91-9.12-2.11-3.42-5.85-6.75-7.17-9.46-1.19-2.44-.64-4.36,1.85-5.59,4.08-2,9.18,8.18,14.53,5.52,4.12-2.05,3.95-12.23,6.07-14.28,2.39-2.3,9.16-6.66,9.68-6.91,9.68-4.73,15.11,1.68,25.68-3.49,3.12-1.53,5.82-3.04,5.79-5.71-3.85-2.16-7.12-3.89-10.33-4.91-1.77-.41-3.43-.78-5.12-.99-3.96-.24-8.25.74-13.76,3.44-3.38,1.65-5.84,3.38-7.08,4.37-1.13.9-4.26,3.39-8.64,5.53-7.12,3.48-5.18-1.05-16.03,4.26-5.63,2.75-11.86,14.04-6.13,25.75,3.04,6.22,10.42,12.15,11.6,11.57ZM150.93,335.1c16.39-8.02,27.06.44,27.53,1.4.06.12.03.27.09.39.21.42.09.91-.15,1.3-1.08,1.73-1.49,1.99-2.97,2.72-9.65,4.72-14.47-2.75-27.78,3.77-.67.33-1.31.69-1.96,1.01-1.13.55-2.27.81-2.84-.35-1.95-3.98,3.99-8.23,8.08-10.23ZM123.66,349.43c3.87-1.89,11.3-2.74,13.28,1.32.83,1.7.27,3.93-.33,7.29.02,2.84-.1,5.95-1.68,6.72-5.89,2.88-7.61-8.91-15.4-5.1-.16.08-.36.19-.4.21-.15.07-.31.13-.46.21-1.49.73-3.46,3.99-.91,9.2,1.38,2.82,3.33,3.3,6.04,8.85.71,1.46,2.07,4.25,1.15,4.7-.14.07-.3.1-.43.16-2.44,1.19-6.44-6.65-7.66-9.15-4.79-9.79-3.48-19.39,6.8-24.41Z"/>
      <path class="cls-26" d="M118.62,359.13c.47-.23.92-.53,1.4-.77,1.89-.93,5.76.68,6.28.96,3.09,1.66,5.37,4.82,7.29,3.88,2.22-1.09,1.4-3.68,2-7.36-.1-.78-.29-1.53-.59-2.15-2.5-5.11-12.12-1.39-12.78-1.07-4.83,2.36-6.1,5.38-5.6,6.41.38.78,1.29.44,2,.1Z"/>
      <path class="cls-30" d="M124.52,382.99c.14-.07.3-.1.43-.16.92-.45-.44-3.24-1.15-4.7-2.72-5.55-4.66-6.03-6.04-8.85-2.55-5.21-.58-8.47.91-9.2.15-.07.31-.13.46-.21.05-.02.24-.13.4-.21,7.79-3.81,9.51,7.97,15.4,5.1,1.58-.77,1.7-3.89,1.68-6.72.6-3.36,1.16-5.59.33-7.29-1.99-4.06-9.42-3.21-13.28-1.32-10.28,5.03-11.59,14.63-6.8,24.41,1.22,2.49,5.22,10.34,7.66,9.15ZM122.22,352.63c.66-.32,10.28-4.03,12.78,1.07.3.61.49,1.36.59,2.15-.6,3.68.22,6.27-2,7.36-1.92.94-4.19-2.22-7.29-3.88-.53-.28-4.39-1.89-6.28-.96-.48.24-.93.54-1.4.77-.71.35-1.62.68-2-.1-.5-1.03.77-4.04,5.6-6.41Z"/>
      <path class="cls-26" d="M155.83,340.95c6.97-2.47,11,3.07,18.2-.45.28-.14,1.46-.91,2.26-1.56,0-.66-.19-1.47-.45-2-2.43-4.97-14.42-3.98-20.44-1.03-1.82.89-5.26,2.84-4.33,4.74.66,1.35,2.22,1.2,4.76.3Z"/>
      <path class="cls-30" d="M145.69,345.67c.65-.32,1.29-.68,1.96-1.01,13.32-6.52,18.13.95,27.78-3.77,1.48-.72,1.89-.98,2.97-2.72.24-.39.36-.87.15-1.3-.06-.12-.03-.27-.09-.39-.47-.96-11.14-9.42-27.53-1.4-4.09,2-10.03,6.25-8.08,10.23.57,1.16,1.71.9,2.84.35ZM155.4,335.91c6.02-2.94,18.01-3.94,20.44,1.03.26.54.46,1.34.45,2-.81.65-1.98,1.42-2.26,1.56-7.2,3.52-11.23-2.02-18.2.45-2.53.9-4.1,1.05-4.76-.3-.93-1.9,2.51-3.85,4.33-4.74Z"/>
      <path class="cls-4" d="M312.27,338.54c-2.47,1.21-3.99,2.34-6.05,3.35-.9.44-.92.39-1.89.86-.26.13-.52.26-.78.39-.06.22-.13.44-.19.65.89-.54,1.79-1.05,2.7-1.49,12.31-6.02,23.2,1.15,28.21,11.39.47.96.74,1.96.86,2.97.21-.73.4-1.47.56-2.21-.23-.51-.5-1.06-.79-1.66-4.61-9.42-13.09-18.91-22.63-14.25Z"/>
      <path class="cls-16" d="M335.99,340.66c-.14-.8-.31-1.59-.5-2.38-5.84-1.21-24.73-12.15-28.64-10.23,0,0-.07.08-.2.21-.23,1.66-.49,3.28-.78,4.86.48-.53,1.05-1.01,1.74-1.35,8.34-4.08,22.78,7.5,28.39,8.88Z"/>
      <path class="cls-40" d="M335.49,338.28c-.2-.8-.42-1.6-.67-2.39-10.63-2.61-20.91-7.44-27.74-11.13-.13,1.18-.27,2.35-.43,3.5.13-.13.2-.21.2-.21,3.91-1.91,22.8,9.02,28.64,10.23Z"/>
      <path class="cls-15" d="M304.32,342.75c.97-.48.99-.42,1.89-.86,2.06-1.01,3.58-2.13,6.05-3.35,9.54-4.67,18.02,4.83,22.63,14.25.29.6.56,1.15.79,1.66.48-2.15.76-4.36.83-6.59-6.94-3.94-13.85-16.86-27.91-9.98-2.67,1.31-3.42,2.18-4.46,3.07-.19.74-.39,1.48-.6,2.2.26-.13.52-.26.78-.39Z"/>
      <path class="cls-27" d="M336.51,347.86c.05-1.76-.03-3.53-.24-5.29-8.43,1.57-17.3-13.47-27.41-8.52-2.52,1.23-2.05,3.84-4.47,5.91-.08.33-.17.66-.25.99,1.04-.89,1.79-1.76,4.46-3.07,14.06-6.88,20.98,6.04,27.91,9.98Z"/>
      <path class="cls-35" d="M336.27,342.56c-.08-.64-.17-1.27-.28-1.9-5.61-1.38-20.05-12.97-28.39-8.88-.69.34-1.26.82-1.74,1.35-.43,2.35-.92,4.63-1.47,6.83,2.42-2.07,1.95-4.68,4.47-5.91,10.11-4.95,18.98,10.09,27.41,8.52Z"/>
      <path class="cls-30" d="M312.09,378.46c-.61.3-1.74.61-3.29.91,3.35-.13,6.61-1.03,9.63-2.51,8.43-4.13,14.19-11.62,16.69-20.2-.13-1.02-.39-2.01-.86-2.97-5-10.23-15.9-17.41-28.21-11.39-.91.45-1.81.95-2.7,1.49-.65,2.22-1.36,4.35-2.11,6.38,8.03,2.72,18.74,7.22,21.36,12.58,2.97,6.08-3.92,12.49-10.51,15.71ZM323.37,361.02c-1.06-2.17-2.61-3.56-4.77-4.7-.96-.51-1.9-.7-3.05-1.12-4.16-2.02-10.91-4.5-11.52-5.73-.75-1.54.35-4.59,3.5-6.13,5.53-2.71,18.83-2.49,24.78,9.67,4.17,8.53-8.88,19.57-9.3,19.78-.18.09-.69.29-.78.11-.12-.24-.18-.82-.04-1.4.88-3.6,3.83-5.07,1.18-10.49Z"/>
      <path class="cls-26" d="M315.56,355.21c1.15.42,2.09.61,3.05,1.12,2.15,1.13,3.71,2.53,4.77,4.7,2.65,5.42-.3,6.89-1.18,10.49-.14.58-.08,1.16.04,1.4.09.19.6-.02.78-.11.42-.21,13.47-11.26,9.3-19.78-5.95-12.16-19.25-12.37-24.78-9.67-3.14,1.54-4.25,4.59-3.5,6.13.6,1.23,7.36,3.7,11.52,5.73ZM307.63,345.05c5.81-2.84,16.4.72,20.65,9.4.76,1.55.61,9.32-1.44,10.32-.19.09-.37.22-.54.32.11-1.22-.04-2.79-.79-4.32-4.54-9.28-17.55-6.32-20.27-11.89-.49-1.01-.23-2.55,2.39-3.83Z"/>
      <path class="cls-21" d="M325.51,360.78c.75,1.53.9,3.11.79,4.32.18-.1.35-.23.54-.32,2.05-1,2.2-8.77,1.44-10.32-4.25-8.68-14.84-12.24-20.65-9.4-2.61,1.28-2.88,2.83-2.39,3.83,2.72,5.57,15.73,2.61,20.27,11.89ZM308.8,346.71c2.9-1.42,10.97,2.43,14.38,7.12-.13.19-.35.37-.68.54-.42.2-.89.24-1.21.04-7.98-5.21-12.42-2.37-13.84-5.28-.51-1.05.31-1.9,1.36-2.42Z"/>
      <path class="cls-13" d="M321.29,354.4c.32.21.8.17,1.21-.04.34-.17.55-.35.68-.54-3.42-4.69-11.49-8.54-14.38-7.12-1.05.51-1.87,1.36-1.36,2.42,1.42,2.9,5.87.07,13.84,5.28Z"/>
      <path class="cls-16" d="M356.17,177.28c4.46,1.89,8.64,4.04,12.62,6.38.63.01,1.28.02,1.93.03-10.21-5.87-25.03-10.28-25.62-14.91-.06-.45.29-.92.88-1.39-8.37-.36-16.01-.37-22.99-.18.14.23.31.44.5.61,2.81,2.47,21.54,2.31,32.68,9.47Z"/>
      <path class="cls-4" d="M362.66,175.91c2.77,5.67,13.77,6.05,17.46,7.64,1.43-.05,2.85-.11,4.27-.19-8.19-2.84-17.05-1.88-19.48-6.85-1.22-2.5.83-5.26,3.45-7.41-.81-.09-1.61-.17-2.41-.25-2.12,2.27-4.21,5.18-3.29,7.06Z"/>
      <path class="cls-15" d="M359.57,175.11c2.13,4.35,10.48,6.55,16.75,8.55,1.26-.02,2.53-.06,3.8-.11-3.69-1.6-14.69-1.98-17.46-7.64-.92-1.87,1.17-4.79,3.29-7.06-.42-.04-.85-.09-1.27-.13-1.34.97-2.72,1.89-4.19,2.72-1.55.88-1.92,1.64-.92,3.68Z"/>
      <path class="cls-36" d="M351.58,172.71c1.52,3.11,15.6,8.03,21.15,10.98,1.19,0,2.38,0,3.59-.03-6.27-2-14.62-4.19-16.75-8.55-1-2.04-.64-2.8.92-3.68,1.47-.83,2.85-1.75,4.19-2.72-4.37-.43-8.57-.76-12.6-1.01-1.23,1.04-1.6,2.74-.49,5.01Z"/>
      <path class="cls-35" d="M350.18,173.65c5.36,3.04,13.91,6.23,20.53,10.04.66,0,1.34,0,2.01,0-5.55-2.95-19.63-7.87-21.15-10.98-1.11-2.26-.74-3.97.49-5.01-2.08-.13-4.11-.24-6.1-.32-.59.47-.93.94-.88,1.39.21,1.63,2.18,3.23,5.09,4.88Z"/>
      <path class="cls-31" d="M312.64,169.52c17.56-.44,31.55,2.69,43.52,7.75-11.14-7.15-29.87-7-32.68-9.47-.19-.17-.36-.38-.5-.61-5.09.14-9.84.38-14.27.66,1.3.51,2.61,1.07,3.93,1.67Z"/>
      <path class="cls-30" d="M384.39,183.37c2.69-.14,5.33-.33,7.84-.54-9.41-1.41-21.95-1.12-25.56-7.41-.86-1.5.11-3.72,1.79-4.15,3.51-.89,11.59-.23,11.59-.23h0c-3.45-.66-6.94-1.4-10.44-1.79-.42-.05-.83-.09-1.25-.14-2.62,2.15-4.68,4.91-3.45,7.41,2.43,4.97,11.29,4.01,19.48,6.85Z"/>
      <path class="cls-26" d="M392.23,182.83c8.31-.71,15.13-1.75,17.23-2.78,3.5-1.71,5.47-3.19,3.64-6.93-1.81-3.7-9.46-7.26-16.95-6.09,2.9.91,4.53,1.47,4.56,1.52.28.58.32,1.39-.45,1.77-6.26,3.06-13.13,2.07-20.2.72h0s-8.08-.67-11.59.23c-1.68.43-2.66,2.65-1.79,4.15,3.61,6.29,16.14,6.01,25.56,7.41ZM369.21,172.77c3.24-1.58,9.04-1.51,10.97-1.06h0s.14-.04.14-.04c-.04.01-.08.03-.13.04,4.5.94,12.5,2.16,18.92-.31.79-.3,2.6-1.05,3.36-1.43,2.34-1.18,6.37-2.79,10.31,3.83,2.22,3.74-3.66,6.12-5.65,6.69-12.46,3.57-36.29.45-38.93-4.94-.71-1.45-.2-2.19,1.01-2.78Z"/>
      <polygon class="cls-26" points="380.2 171.7 380.19 171.7 380.19 171.7 380.19 171.71 380.2 171.7"/>
      <path class="cls-26" d="M380.32,171.66l-.14.04s0,0,0,0c.04-.01.08-.03.13-.04Z"/>
      <path class="cls-21" d="M407.13,180.49c1.99-.57,7.87-2.95,5.65-6.69-3.94-6.62-7.97-5.01-10.31-3.83-.76.38-2.58,1.13-3.36,1.43-6.41,2.47-14.42,1.24-18.92.31h0s0,0,0,0c-1.94-.45-7.74-.52-10.97,1.06-1.21.59-1.72,1.33-1.01,2.78,2.64,5.4,26.48,8.52,38.93,4.94ZM374.16,173.33c2.94-1.44,10.04,1.33,12.79,1.85,11.62,2.22,19.56-9.12,23.37-1.34.44.9.41,1.99.15,2.96-.55.51-1.22.93-1.93,1.27-9.91,4.85-34,0-35.41-2.89-.43-.89.29-1.5,1.03-1.86Z"/>
      <path class="cls-39" d="M405.94,177.82c1.48-.72,2.73-1.31,3.26-2.65-1.15-2.35-5.58-2.01-7.9-.88-.07.04-.14.07-.22.11-2.99,1.46-5.82.28-7.85,1.28-1.05.51-1.47,1.61-1.22,2.13.49,1,6.24,3.77,13.93.01Z"/>
      <path class="cls-13" d="M408.54,178.08c.71-.35,1.37-.76,1.93-1.27.26-.98.29-2.07-.15-2.96-3.81-7.78-11.75,3.55-23.37,1.34-2.75-.52-9.85-3.29-12.79-1.85-.74.36-1.46.97-1.03,1.86,1.41,2.89,25.5,7.74,35.41,2.89ZM393.24,175.68c2.03-.99,4.86.18,7.85-1.28.07-.04.14-.07.22-.11,2.33-1.14,6.75-1.48,7.9.88-.53,1.34-1.78,1.93-3.26,2.65-7.69,3.76-13.44.99-13.93-.01-.25-.52.17-1.61,1.22-2.13Z"/>
      <path class="cls-35" d="M259.36,164.7c.14-5.01,2.76-9.31,8.57-12.15,28.46-13.92,95.58,11.74,126.92,14.07-.76-.24-1.58-.49-2.47-.76-4.77-1.46-11.33-3.42-19.02-5.61-48.43-6.32-87.74-21.17-109.33-10.61-6.01,2.94-9.37,6.72-10.98,11.43.11.13.23.25.34.37,1.91,1.29,3.91,2.37,5.99,3.27Z"/>
      <path class="cls-21" d="M253.37,161.43c1.86,2.02,3.84,3.6,6.01,4.8-.04-.52-.04-1.03-.02-1.53-2.07-.9-4.08-1.98-5.99-3.27Z"/>
      <path class="cls-27" d="M259.36,164.7c18.27,7.92,42.18,1.84,58.39,2.68,14.16-.59,31.19-.48,51.86,1.86,10.69,1.21,21.33,5.63,30.64,1.07.77-.38.74-1.19.45-1.77-.03-.05-1.66-.61-4.56-1.52-.41-.13-.85-.27-1.3-.41-31.34-2.33-98.46-27.99-126.92-14.07-5.8,2.84-8.42,7.14-8.57,12.15ZM331.97,157.85c18.13,3.75,63.96,10.22,65.54,10.31.69.07,1.68.41,2.08,1.23.42.86-3.09,1.29-3.93,1.7-4.52,2.21-10.79-1.48-18.69-1.21-1.4.05-2.52-.86-3.85-1.09-35.06-5.85-104.4,2.46-107.88-4.64-1.77-3.63,7.13-8.69,9.67-9.94,16.92-8.28,38.06-.3,57.05,3.62Z"/>
      <path class="cls-21" d="M259.36,164.7c-.01.5-.01,1.01.02,1.53,6.48,3.61,14.54,3.98,25.35,3.37,6.81-.39,14.7-1.16,23.98-1.74,2.87-.18,5.88-.35,9.03-.48-16.21-.83-40.12,5.25-58.39-2.68Z"/>
      <path class="cls-4" d="M183.3,204.7c7.35-6.12,15.38-11.72,19.07-13.52,4.99-2.44,8.32-9.57,17.05-13.84,22.15-10.84,34.91,15.25,73.57,5.27,21.85-5.64,46.5,9.64,60.4,32.63.23-1.73.21-3.49-.12-5.27-1.11-2.24-2.72-4.35-4.43-6.41-.03-.03-.06-.06-.08-.1-16.34-13.5-33.46-29.04-55.01-25.9-49.07,7.14-55.1-12.66-75.24-2.8-8.38,4.1-8.65,9.14-12.61,11.72-4.44,2.9-26.48,15.79-36.05,31.46-1.35,4.39-1.56,8.62-1.04,12.94,1.17-9.8,5.45-18.63,14.49-26.16Z"/>
      <path class="cls-39" d="M354.67,217.42c.27-2.39-.12-4.85-1.35-7.37-.02-.03-.03-.06-.05-.09.33,1.78.35,3.54.12,5.27.44.72.87,1.46,1.28,2.19Z"/>
      <path class="cls-39" d="M329.82,241.27c-7.25,3.88-14.02,5.23-19.27,5.52,5.31.13,10.59-.53,15.12-2.75,3.52-1.72,7.33-3.75,11-6.02,8.98-5.58,17.11-12.68,18-20.59-.42-.74-.84-1.47-1.28-2.19-1.47,10.84-13.1,20.44-23.57,26.05Z"/>
      <path class="cls-30" d="M184.4,244.9c18.33,5.54,52.67,10.73,97.32-2.18,1.46-.42,4.61.2,8.72,1.07,5.55,1.18,12.86,2.83,20.1,3,5.25-.28,12.02-1.64,19.27-5.52,10.47-5.6,22.1-15.2,23.57-26.05-13.9-22.99-38.55-38.27-60.4-32.63-38.66,9.98-51.42-16.1-73.57-5.27-8.73,4.27-12.06,11.4-17.05,13.84-3.69,1.8-11.73,7.4-19.07,13.52-9.04,7.53-13.32,16.36-14.49,26.16.33,2.76.96,5.55,1.8,8.44,1.94,1.22,6.65,3.43,13.79,5.59ZM220.76,181.79c15.45-7.56,28.03,6.21,58.87,8.57,12.39.95,48.49-15.89,66.65,21.23,7.53,15.39-2.16,21.59-23.81,32.18-4.94,2.42-11.07,3.72-16.75,1.84-18.64-6.17-22.73-5.43-23.56-7.13-.05-.11-.09-.23-.11-.36-1.05,2.1-2.69,3.52-4.71,4.5-12.27,6-95.75,12.49-106.08-8.63-7.44-15.21,46.88-50.93,49.5-52.21Z"/>
      <path class="cls-33" d="M97.73,289.32c-6.08,8.56-10.25,17.56-10.29,26.19.05.1.09.2.14.3.38.77.77,1.53,1.17,2.28-.02-.35-.03-.7-.03-1.05-.25-15.62,11-30.47,30.02-50.6-3.51,3.16-7.08,6.58-10.49,10.19-4.3,5.08-7.93,9.49-10.53,12.67Z"/>
      <path class="cls-27" d="M97.73,289.32c-2.65,3.26-4.22,5.23-4.3,5.32-5.07,6.05-5.89,21.37-6.38,15.17-3.98-50.62,35.46-79.95,61.72-99.59,8.98-6.72,9.16-21.69,28.43-30.41,6.12-2.77,11.96-17.29,20.47-21.45.3-.15.6-.28.92-.4.29-.11,3.42-1.85,3.63-1.42-8.39,12.26-8.15,20.97-23.29,26.2-15.41,5.32-10.31,27.44-21.78,41.05-.74.88-4.36,5.78-4.93,6.27-14.23,12.38-31.77,32.18-43.96,46.59,3.41-3.61,6.98-7.03,10.49-10.19,8.48-8.97,18.51-18.99,29.75-30.59,28.13-29.02,14.15-44.33,29.45-51.81,2.42-1.18,5.1-2.16,7.62-3.39,11.73-5.74,9.62-18.04,21.64-26.42.07-.05.14-.09.21-.14-2.64.19-5.46.55-7.08,1.35-10.91,5.34-15.4,16.38-19.86,20.99-1.04,1.08-2.22,2.6-8.21,5.44-16.51,7.84-13.27,20.81-26.73,29.56-46.96,30.52-44.28,46.16-53.63,57.4-7.8,17.15-10.7,33.57-4.46,46.66.03-8.63,4.21-17.63,10.29-26.19Z"/>
      <path class="cls-46" d="M312.98,253.58c-7.9,3.87-7.55,7.45-5.85,10.93.17.34.34.68.51,1.02.26.53.45.97.56,1.2,1.56,3.19,5.89,7.92,9.81,12.54,1.67,1.08,3.35,2.14,5.05,3.17-3.24-2.5-6.55-6.12-9.75-12.67-4.42-9.04-.2-11.27,4.64-13.64,22.19-10.86,37.2-1.26,59.81,22.94-.58-1.06-1.17-2.08-1.75-3.06-6.77-4.55-31.48-37.86-63.03-22.43Z"/>
      <path class="cls-15" d="M310.77,274.32c2.35,1.68,4.77,3.34,7.24,4.94-3.92-4.62-8.25-9.35-9.81-12.54-.11-.22-.3-.67-.56-1.2-.17-.34-.34-.68-.51-1.02-1.7-3.48-2.06-7.06,5.85-10.93,31.55-15.43,56.26,17.87,63.03,22.43-2.15-3.59-4.33-6.65-6.53-9.31-10.44-6.56-27.36-22.24-42.01-19.23-15.93,3.28-24.58,4.45-24.58,4.45-2.73,1.33-2.9,7.14-1.42,10.17,2.04,4.17,5.39,6.16,9.29,12.23Z"/>
      <path class="cls-4" d="M317.96,256.12c-4.84,2.37-9.06,4.6-4.64,13.64,3.2,6.54,6.51,10.17,9.75,12.67,1.13.68,2.26,1.35,3.39,2.01-3.91-4.24-7.93-7.95-10.17-12.53-3.06-6.26-.8-13.58,5.83-16.83,14.86-7.27,48.66,10.39,59.85,32.34-.58-1.24-1.2-2.52-1.86-3.86-.78-1.58-1.55-3.08-2.34-4.5-22.61-24.19-37.62-33.79-59.81-22.94Z"/>
      <path class="cls-19" d="M373.1,292.57s-2.08,1.87-4.15,3.06c-4.89,2.83-14.83,1.23-25.52-2.74,10.69,4.36,20.23,6.15,26.06,3.3,1.5-.73,2.86-1.8,4.06-3.29,1.57,2.43,3.79,2.48,6.21,3.4-3.1-2.24-6.41-3.84-6.66-3.72Z"/>
      <path class="cls-30" d="M322.11,255.08c-6.63,3.24-8.89,10.56-5.83,16.83,2.24,4.58,6.27,8.29,10.17,12.53,5.73,3.31,11.51,6.22,16.99,8.46,10.69,3.97,20.62,5.57,25.52,2.74,2.07-1.19,4.15-3.06,4.15-3.06.25-.12,3.56,1.47,6.66,3.72,2.1.8,4.35,2.25,6.44,6.52,1.03,2.1,1.61,4.61,1.43,6.85,1.6-3.59.16-9.17-3.55-17.61-.64-1.46-1.35-3-2.12-4.63-11.19-21.95-44.99-39.61-59.85-32.34ZM383.29,293.95c.43.88.77,1.56.91,2.78-.09.04-.41.25-.51.25-3.79-.07-7.6-6.4-11.14-4.67-1.73.85-2.86,2.2-6.35,3.82-10.99,5.1-42.22-13.05-45.54-19.84-4.65-9.51-2.69-14.19,4.33-17.62,14.84-7.26,48.1,14.41,56.07,30.71.72,1.47,1.11,2.26,2.24,4.58Z"/>
    </g>
  </g>
</svg>