<?xml version="1.0" encoding="UTF-8"?>
<svg id="Layer_2" data-name="Layer 2" xmlns="http://www.w3.org/2000/svg" viewBox="0 0 456.34 545.03">
  <defs>
    <style>
      .cls-1 {
        fill: #c6b5a0;
      }

      .cls-2 {
        fill: #e6d7cc;
      }

      .cls-3 {
        fill: #b6a69a;
      }

      .cls-4 {
        fill: #9e8675;
      }

      .cls-5 {
        fill: #f3f2f1;
      }

      .cls-6 {
        fill: #fdfdfe;
      }

      .cls-7 {
        fill: #a08b6b;
      }

      .cls-8 {
        fill: #d1ccb6;
      }

      .cls-9 {
        fill: #f2f3f0;
      }

      .cls-10 {
        fill: #c9c4ae;
      }

      .cls-11 {
        fill: #bfb6a2;
      }

      .cls-12 {
        fill: #e4e2d9;
      }

      .cls-13 {
        fill: #ede7e3;
      }

      .cls-14 {
        fill: #ebeae9;
      }

      .cls-15 {
        fill: #baaf9e;
      }

      .cls-16 {
        fill: #e2dbcb;
      }

      .cls-17 {
        fill: #f6f7f4;
      }

      .cls-18 {
        fill: #c5bfaa;
      }

      .cls-19 {
        fill: #e5dccc;
      }

      .cls-20 {
        fill: #b49a80;
      }

      .cls-21 {
        fill: #f2f2f1;
      }

      .cls-22 {
        fill: #a49d67;
      }

      .cls-23 {
        fill: #cab9ae;
      }

      .cls-24 {
        fill: #d0c6b6;
      }

      .cls-25 {
        fill: #bfab97;
      }

      .cls-26 {
        fill: #dbd6c2;
      }

      .cls-27 {
        fill: #ece6df;
      }

      .cls-28 {
        fill: #c4b394;
      }

      .cls-29 {
        fill: #b9a785;
      }

      .cls-30 {
        fill: #b9b493;
      }

      .cls-31 {
        fill: #e4e0d6;
      }

      .cls-32 {
        fill: #eef0e2;
      }

      .cls-33 {
        fill: #e8e5de;
      }

      .cls-34 {
        fill: #e3e2d7;
      }

      .cls-35 {
        fill: #c9c1a2;
      }

      .cls-36 {
        fill: #bdaf96;
      }

      .cls-37 {
        fill: #cfc6b1;
      }

      .cls-38 {
        fill: #aea686;
      }

      .cls-39 {
        fill: #c2b99e;
      }

      .cls-40 {
        fill: #fff;
      }

      .cls-41 {
        fill: #e1ddd1;
      }

      .cls-42 {
        fill: #c6c3a9;
      }

      .cls-43 {
        fill: #eeebe5;
      }

      .cls-44 {
        fill: #b89b79;
      }

      .cls-45 {
        fill: #e6ded9;
      }

      .cls-46 {
        fill: #e2ddd6;
      }

      .cls-47 {
        fill: #d2c1ad;
      }

      .cls-48 {
        fill: #d1c2b6;
      }

      .cls-49 {
        fill: #f1f0e8;
      }

      .cls-50 {
        fill: #fcfaf0;
      }

      .cls-51 {
        fill: #cabea7;
      }

      .cls-52 {
        fill: #d4d0ba;
      }

      .cls-53 {
        fill: #f6f6f3;
      }

      .cls-54 {
        fill: #f8f9f6;
      }

      .cls-55 {
        fill: #e0d4c4;
      }

      .cls-56 {
        fill: #ebdfd5;
      }

      .cls-57 {
        fill: #f5f2ec;
      }

      .cls-58 {
        fill: #eae4dd;
      }

      .cls-59 {
        fill: #a0866b;
      }

      .cls-60 {
        fill: #907258;
      }

      .cls-61 {
        fill: #bea58b;
      }

      .cls-62 {
        fill: #fefdf5;
      }

      .cls-63 {
        fill: #dcd1c5;
      }

      .cls-64 {
        fill: #f0ebe4;
      }

      .cls-65 {
        fill: #fcfdfb;
      }

      .cls-66 {
        fill: #aaa078;
      }

      .cls-67 {
        fill: #c9bdaf;
      }

      .cls-68 {
        fill: #b19e7e;
      }

      .cls-69 {
        fill: #b0a985;
      }

      .cls-70 {
        fill: #eae2e2;
      }

      .cls-71 {
        fill: #dad3c9;
      }

      .cls-72 {
        fill: #e0d6c6;
      }
    </style>
  </defs>
  <g id="flower">
    <g>
      <path class="cls-3" d="M76.29,386.31c.27-4.09.52-8.05.73-11.84,24.79,41.96,71.64,83.15,149.44,119.55.55,3.66.43,7.24-.23,10.7-43.68-17.81-121.74-44.12-149.94-118.41Z"/>
      <path class="cls-71" d="M152.24,495.96c-42.05-14.97-58.34-56.75-76.44-102.42.17-2.45.33-4.86.49-7.23,28.2,74.29,106.26,100.6,149.94,118.41-.34,1.77-.81,3.5-1.42,5.2s-1.26,3.28-1.96,4.82c-3.12-1.32-6.28-2.55-9.48-3.69-28.79-10.25-45.27-9.44-61.14-15.09Z"/>
      <path class="cls-9" d="M121.89,536.42c24.99,8.9,52.68,8.3,79.06,1.2.16.02.32.05.48.07-25.87,13.66-65.28,6.23-98.86-5.73-10.06-3.58-16.86-11.91-21.36-23.22-8.36-21.01-8.78-52.33-7.38-82.8,4.2,46.47-12.46,88.93,48.05,110.48Z"/>
      <path class="cls-41" d="M152.24,495.96c15.86,5.65,32.35,4.84,61.14,15.09,3.2,1.14,6.36,2.37,9.48,3.69-.52,1.14-1.07,2.26-1.65,3.33-27.87-7.63-61.21.83-87.08-8.39-31.02-11.04-41.32-46.34-58.92-107.36.2-2.97.4-5.9.59-8.78,18.1,45.67,34.39,87.45,76.44,102.42Z"/>
      <path class="cls-12" d="M75.21,402.32c-.51,7.68-1.01,15.62-1.38,23.61,4.2,46.47-12.46,88.93,48.05,110.48,24.99,8.9,52.68,8.3,79.06,1.2.16.02.32.05.48.07,8.13-4.29,14.93-10.66,19.78-19.63-27.87-7.63-61.21.83-87.08-8.39-31.02-11.04-41.32-46.34-58.92-107.36ZM85.92,458.23c1.38.49,2.52,1.6,2.85,2.66,7.5,24.13,24.03,41.3,41.79,56.96.68.6.33,1.63.67,2.36-6.91,5.97-17,6.98-25.26,4.04-24.57-8.75-28.54-53.82-25.42-62.58.98-2.76,2.67-4.41,5.38-3.44Z"/>
      <path class="cls-58" d="M130.55,517.85c.68.6.33,1.63.67,2.36-6.91,5.97-17,6.98-25.26,4.04-24.57-8.75-28.54-53.82-25.42-62.58.98-2.76,2.67-4.41,5.38-3.44,1.38.49,2.52,1.6,2.85,2.66,7.5,24.13,24.03,41.3,41.79,56.96Z"/>
      <path class="cls-22" d="M45.83,336.36c8.97-25.2-3.05-31.56,9.44-66.65.4-1.11.81-2.22,1.24-3.32-3.28,19.49-3.19,39.62,1.28,59.94-8.1,11.47-16.51,26.3-20.85,36.14.68-3.66,1.74-7.2,2.98-10.68,1.84-5.17,4.05-10.24,5.9-15.42Z"/>
      <path class="cls-12" d="M55.72,228.18c-.21.21-.43.42-.64.63-22.38,31.16-39.96,59.04-45.59,74.84-11.51,32.33-10.79,68.52,19.91,88.16.32-2.82.75-5.63,1.28-8.43-11.21-13.61-9.64-36.95-3.4-54.46,3.83-10.75,12.79-25.47,14.05-28.99,2.57-7.21,1.56-39.3,9.76-62.33,1.07-3,2.64-6.15,4.63-9.42ZM36.01,266.25c2.53.9,10.67,11.83,4.46,29.28-.59,1.65-1.26,3.22-2.01,4.68-.26.51-18.63,30.93-24.9,28.7-6.55-2.33-2.76-16.68-.44-23.21.86-2.41,16.47-41.73,22.89-39.44Z"/>
      <path class="cls-48" d="M52.65,255.48c3.48-9.78,8.54-18.8,14.64-27.24-.87,2.22-1.74,4.55-2.62,7.03-3.61,10.14-6.38,20.54-8.16,31.12-.43,1.1-.84,2.21-1.24,3.32-12.49,35.09-.47,41.46-9.44,66.65-1.85,5.19-4.06,10.25-5.9,15.42-1.24,3.49-2.3,7.02-2.98,10.68-.75,1.7-1.38,3.26-1.87,4.62-1.21,3.41-2.25,6.87-3.11,10.38-3.42-28.48,12.63-52.59,15.64-97.74.57-8.59,2.33-16.64,5.04-24.23Z"/>
      <path class="cls-54" d="M29.41,391.81c-.12,1.07-.23,2.13-.32,3.2-16.62-7.09-29.88-24.56-28.74-55.08.47-12.56,3.37-27.32,9.48-44.48,9.65-27.1,27.32-49.04,45.25-66.64-22.38,31.16-39.96,59.04-45.59,74.84-11.51,32.33-10.79,68.52,19.91,88.16Z"/>
      <path class="cls-41" d="M27.28,328.93c3.83-10.75,12.79-25.47,14.05-28.99,2.57-7.21,1.56-39.3,9.76-62.33,1.07-3,2.64-6.15,4.63-9.42,6.67-6.51,13.37-12.43,19.69-17.8-2.64,4.91-5.35,10.75-8.12,17.85-6.11,8.44-11.16,17.46-14.64,27.24-2.7,7.59-4.46,15.64-5.04,24.23-3.02,45.15-19.06,69.26-15.64,97.74-.48,1.96-.9,3.94-1.28,5.93-11.21-13.61-9.64-36.95-3.4-54.46Z"/>
      <path class="cls-58" d="M40.46,295.52c-.59,1.65-1.26,3.22-2.01,4.68-.26.51-18.63,30.93-24.9,28.7-6.55-2.33-2.76-16.68-.44-23.21.86-2.41,16.47-41.73,22.89-39.44,2.53.9,10.67,11.83,4.46,29.28Z"/>
      <path class="cls-71" d="M284.47,57.92c.14.05.28.1.42.16-.07.23-.15.46-.23.69-.47,1.32-.99,2.62-1.54,3.91-8.3-2.49-24.68.08-44.69,7.43-97.81-9.38-93.27,41.1-135.18,80.08-.31-1.92-.58-3.84-.79-5.74,15.79-16.05,24.86-40.57,40.62-56.51,36.03-36.48,93.65-47,141.39-30Z"/>
      <path class="cls-41" d="M121.24,112.73c60.89-90.44,120-67.96,161.74-76.6.92,1.99,1.67,4.02,2.21,6.06,1.12,4.24,1.36,8.58.49,12.89-.2,1-.46,1.99-.79,2.99-.14-.05-.28-.11-.42-.16-47.74-17-105.36-6.48-141.39,30-15.76,15.94-24.83,40.46-40.62,56.51-.9-8-.96-15.86-.27-23.57,7.04,0,14.86-1.92,19.04-8.13Z"/>
      <path class="cls-1" d="M238.43,70.09c-40.1,14.71-94.81,48.56-128.5,99.2-.32.48-.64.95-.97,1.41-.22-.15-.45-.3-.7-.45-2.29-6.79-3.94-13.49-5.01-20.08,41.9-38.98,37.37-89.45,135.18-80.08Z"/>
      <path class="cls-54" d="M116.83,72.55c6.65-12.31,16.11-26.25,27.37-40.84C177.22,9.47,212.1-2.63,235.43.48c-6.4,1.67-12.86,3.58-19.6,5.34-2.53.66-46.76-9.1-99,66.73Z"/>
      <path class="cls-45" d="M282.98,36.13c-41.74,8.64-100.86-13.84-161.74,76.6-4.18,6.21-12,8.13-19.04,8.13.41-4.62,1.1-9.19,2.03-13.71,2-2.07,3.67-4.82,4.6-7.05,30.65-73.06,98.05-49.53,168.34-73.44,2.33,3.02,4.3,6.2,5.81,9.47Z"/>
      <path class="cls-57" d="M277.17,26.66c-8.49-11.04-21.6-20.04-33.24-24.18-2.62-.93-5.46-1.59-8.5-2-6.4,1.67-12.86,3.58-19.6,5.34-2.53.66-46.76-9.1-99,66.73-3.16,5.85-5.7,11.34-7.48,16.34-2.13,6-3.86,12.08-5.13,18.25,2-2.07,3.67-4.82,4.6-7.05,30.65-73.06,98.05-49.53,168.34-73.44ZM192.64,30.97c-4.71-1.68-10.14-3.61-8.04-9.5,2.25-6.32,43.3-17.89,61.79-11.31,7.07,2.52,13.02,7.11,15.07,14.17-30.93,6.7-44.36,15.34-68.82,6.63Z"/>
      <path class="cls-5" d="M184.59,21.47c2.25-6.32,43.3-17.89,61.79-11.31,7.07,2.52,13.02,7.11,15.07,14.17-30.93,6.7-44.36,15.34-68.82,6.63-4.71-1.68-10.14-3.61-8.04-9.5Z"/>
      <path class="cls-42" d="M392.59,124.63c5.64,2.01,11.46,3.45,17.4,4.32-.1,5.42-.63,10.73-1.6,15.8-5.48-3.37-12.06-6.1-19.44-8.72-.41-.15-.82-.29-1.23-.44-18.26-21.59-57-62.87-85.72-73.09-6.36-2.26-12.07-3.32-17.4-3.53.02-.07.05-.13.07-.2.43-1.22.77-2.45,1.02-3.67,4.63.34,9.24.51,13.79.56,1.1.32,2.18.66,3.26,1.05,39.05,13.9,45.71,52.22,89.86,67.93Z"/>
      <path class="cls-71" d="M408.87,111.56c.85,5.78,1.22,11.64,1.11,17.39-5.93-.87-11.76-2.31-17.4-4.32-44.15-15.72-50.81-54.03-89.86-67.93-1.07-.38-2.16-.73-3.26-1.05,4.93.06,9.8-.01,14.55-.16,26.78,12.38,40.57,46.03,67.6,55.66,7.51,2.67,16.9,3.21,27.24.42Z"/>
      <path class="cls-41" d="M372.86,58.05c-15.05-5.36-30.91-1.16-48.45-2.98-3.38.17-6.85.31-10.38.42,26.78,12.38,40.57,46.03,67.6,55.66,7.51,2.67,16.9,3.21,27.24.42-1.36-9.33-3.96-18.47-7.74-26.62-2.79-4.03-5.68-7.96-9.25-11.28-6.95-6.46-9.68-12.28-19.02-15.61ZM370.35,58.29c10.71,3.81,34.58,27.74,29.73,41.38-.32.9-.93,1.71-1.61,2.48-6.61,1.79-12.91,1.2-18.85-.92-14.86-5.29-40.37-30.03-38.09-36.43,1.19-3.33,13.44-12,28.83-6.51Z"/>
      <path class="cls-65" d="M375.94,57.31c11.01,5.15,19.46,15.26,25.19,27.63-2.79-4.03-5.68-7.96-9.25-11.28-6.95-6.46-9.68-12.28-19.02-15.61-15.05-5.36-30.91-1.16-48.45-2.98,20.74-1.02,38.35-2.65,48.09.82,1.18.42,2.32.9,3.45,1.42Z"/>
      <path class="cls-12" d="M400.08,99.67c-.32.9-.93,1.71-1.61,2.48-6.61,1.79-12.91,1.2-18.85-.92-14.86-5.29-40.37-30.03-38.09-36.43,1.19-3.33,13.44-12,28.83-6.51,10.71,3.81,34.58,27.74,29.73,41.38Z"/>
      <polygon points="74.43 372.32 78.92 376.51 76.25 371.9 74.43 372.32"/>
      <path class="cls-70" d="M76.13,388.69c-2.66,39.49-6.8,90.19,5.08,120.05-5.81-3.93-11.21-8.46-16.16-13.47.62-1.16,1.15-2.39,1.61-3.66,5.79-16.26-2.8-60.85,9.48-102.93Z"/>
      <path class="cls-13" d="M57.73,357.51c4.91,1.75,11.1,8.69,17.97,15.16-12.77,3.04-23.89,11.8-32.65,36.4-11.31,31.76-.24,56.7,18.48,82.49-19.66-21.7-31.51-51.23-32.77-80.94,1.26-7.56,2.95-15.07,5.48-22.18,7.07-19.86,20.79-31.9,23.49-30.94Z"/>
      <path class="cls-42" d="M62.92,347.83c-12.28-4.37-22.53,8.01-27.84,22.91-1.91,5.35-3.44,11.05-5.07,16.54,1.06-6.86,2.72-13.63,5.06-20.19,3.28-9.22,13.22-27.3,22.72-40.75,1.62,7.35,3.82,14.73,6.64,22.11-.5-.23-1-.43-1.51-.61Z"/>
      <path class="cls-33" d="M62.92,347.83c.5.18,1.01.39,1.51.61,3.08,8.06,6.89,16.13,11.51,24.16-.08.02-.16.04-.25.06-6.87-6.47-13.06-13.41-17.97-15.16-2.7-.96-16.42,11.07-23.49,30.94-2.53,7.11-4.22,14.61-5.48,22.18-.22-5.21-.12-10.42.32-15.6.22-2.59.54-5.17.93-7.74,1.62-5.49,3.16-11.18,5.07-16.54,5.31-14.9,15.56-27.28,27.84-22.91Z"/>
      <path class="cls-9" d="M61.52,491.56c1.15,1.27,2.33,2.5,3.53,3.72.62-1.16,1.15-2.39,1.61-3.66,5.79-16.26-2.8-60.85,9.48-102.93.33-4.93.64-9.69.89-14.22-.24-.41-.47-.82-.71-1.23-.21-.19-.41-.39-.62-.58-12.77,3.04-23.89,11.8-32.65,36.4-11.31,31.76-.24,56.7,18.48,82.49ZM62.53,469.1c-14.39-9.97-21.82-35.83-16.36-51.14.74-2.07,6.71-16.33,13.64-13.86,11.3,4.02,6.68,60.38,6.48,60.93-.62,1.76-1.78,3.29-3.76,4.08Z"/>
      <path class="cls-21" d="M46.17,417.96c.74-2.07,6.71-16.33,13.64-13.86,11.3,4.02,6.68,60.38,6.48,60.93-.62,1.76-1.78,3.29-3.76,4.08-14.39-9.97-21.82-35.83-16.36-51.14Z"/>
      <path class="cls-5" d="M71.02,214.15c-22.59,19.61-48.66,46.09-61.2,81.3-6.11,17.16-9.01,31.92-9.48,44.48-.12-.29-.23-.6-.34-.89.83-10.03.74-23.72,2.84-41.1,10.42-15.3,18.46-43.99,51.52-72.34,4.98-4.27,10.62-8.17,16.66-11.45Z"/>
      <path class="cls-21" d="M101.19,178.19c.37.13.74.27,1.11.41-3.87,3.91-7.87,7.17-12.04,11.38-33.07-6.72-57.27,27.72-68.53,59.33-2.72,7.63-4.4,14.66-4.4,14.66-.15.43-7.87,15.8-13.14,24.42,2.16-13.57,5.75-29.08,11.98-46.58,2.08-5.85,4.23-11.38,6.46-16.64,29.54-34.55,53.41-55.95,78.58-46.99Z"/>
      <path class="cls-54" d="M21.72,249.32c11.26-31.61,35.46-66.05,68.53-59.33-4.73,4.77-9.66,10.78-14.84,20.4-1.45,1.23-2.91,2.48-4.39,3.77-6.04,3.28-11.68,7.18-16.66,11.45-33.06,28.35-41.1,57.04-51.52,72.34.37-3.07.81-6.25,1.33-9.55,5.27-8.62,12.99-23.99,13.14-24.42,0,0,1.69-7.04,4.4-14.66Z"/>
      <path class="cls-34" d="M108.96,170.71c-.96,1.35-1.92,2.6-2.9,3.77-1.88-.9-3.78-1.71-5.73-2.4-10.22-3.64-23.5-3.66-35.73-.17,6.24-3.2,12.89-5.41,19.85-6.37,6.83-.19,13.73.8,20.6,3.24,1.63.58,2.92,1.22,3.91,1.93Z"/>
      <path class="cls-9" d="M106.07,174.47c-1.24,1.49-2.5,2.85-3.77,4.13-.37-.14-.73-.28-1.11-.41-25.17-8.96-49.04,12.44-78.58,46.99,5.13-12.13,10.66-22.79,16.7-32.39,7.16-8.73,15.73-15.99,25.29-20.9,12.23-3.49,25.52-3.47,35.73.17,1.95.69,3.86,1.5,5.73,2.4Z"/>
      <path class="cls-21" d="M366.19,50.62c1.35.48,2.71.94,4.07,1.37,1.02.81,2.01,1.68,2.98,2.6-23.52-3.23-71.95-.66-87.38-.57.18-1.12.29-2.25.32-3.37,18.96-4.65,38.03-15.28,65.08-5.65,5,1.78,9.93,3.86,14.92,5.64Z"/>
      <path class="cls-14" d="M375.94,57.31c-1.12-.53-2.27-1-3.45-1.42-15.44-5.5-50.66,1.82-86.81-.8.07-.36.13-.72.18-1.08,15.43-.08,63.87-2.65,87.38.57.92.87,1.82,1.77,2.69,2.73Z"/>
      <path class="cls-13" d="M342.12,40.58c4.6.67,9.03,1.7,13.25,3.2,5.34,1.9,10.34,4.56,14.89,8.21-1.36-.43-2.72-.88-4.07-1.37-4.99-1.78-9.92-3.86-14.92-5.64-27.05-9.63-46.12,1-65.08,5.65.02-.59.02-1.17,0-1.75,14.12-7.53,36.33-9.72,55.94-8.3Z"/>
      <path class="cls-34" d="M286.19,48.88c-.04-1.23-.16-2.45-.36-3.66.41-.37.87-.66,1.47-.78,9.65-1.94,18.78-2.32,28.48-4.66,9.11-.46,17.99-.42,26.34.81-19.61-1.42-41.82.78-55.94,8.3Z"/>
      <path class="cls-72" d="M285.83,45.21c-.16-1.01-.37-2.02-.64-3.02,10.2-.8,20.54-1.92,30.59-2.42-9.7,2.34-18.84,2.72-28.48,4.66-.6.12-1.06.41-1.47.78Z"/>
      <path class="cls-34" d="M68.63,226.35c-16.44,46.19-17.08,96.99-6.51,133.95-18.05-37.65-14-83,1.25-125.82,7.13-20.03,23.13-52.33,41.92-79.3-4.27,8.61-8.77,17.18-14.15,25.51-9.51,14.71-16.93,29.98-22.51,45.67Z"/>
      <path class="cls-13" d="M68.4,238.3c8.49-23.86,27.59-52.35,39.03-71.5-9.76,19.43-20.97,38.47-27.96,58.11-28.42,79.82,14.1,137.54,4.49,164.53-.15.42-.31.83-.47,1.24-1.25-1.28-2.46-2.57-3.64-3.88-1.81-2.02-3.53-4.08-5.16-6.18.07-.18.13-.35.2-.53,14.14-39.72-28.95-78.73-6.5-141.79Z"/>
      <path class="cls-6" d="M127.48,183.12c-11.3,37.78-33.89,83.08-24.8,157.67-20.14-63.19,23.62-139.42,30.69-188.12-.45,9.88-2.72,19.88-5.88,30.46Z"/>
      <path class="cls-21" d="M129.82,127.04c.95,9.5-.65,19.67-3.82,28.56-10.42,29.28-39.57,57.1-48.22,81.4-18.89,53.06,33.15,103.15,15.47,152.8-.88,2.47-1.89,4.89-3.03,7.25,1.84,1.62,3.75,3.21,5.74,4.77,2.35-4.34,4.32-8.95,5.06-11.03.48-1.35.91-2.71,1.3-4.08,1.43-4.94,2.32-9.99,2.72-15.05.52-6.63.21-13.27-.81-19.71-.6-3.8-1.12-7.52-1.57-11.17-20.14-63.19,23.62-139.42,30.69-188.12.2-4.4.04-8.79-.58-13.19-.57-4.11-1.54-8.24-2.96-12.42ZM114.87,194.72c4.22,1.5,2.46,9.91.92,14.22-1.92,5.41-7.36,17.87-10.28,26.05-8.9,25-3.75,33.52-8.4,46.56-3.27,9.2-6.64,9.67-9.75,9.66-9.1-7.21-15.39-27.67-8.02-48.38,4.38-12.31,30.9-49.76,35.53-48.12Z"/>
      <path class="cls-33" d="M107.43,166.8c-11.44,19.15-30.53,47.64-39.03,71.5-22.45,63.06,20.64,102.07,6.5,141.79-.06.18-.13.36-.2.53-5.02-6.46-9.18-13.26-12.57-20.32-10.58-36.96-9.94-87.77,6.51-133.95,5.58-15.68,13-30.95,22.51-45.67,5.38-8.33,9.89-16.9,14.15-25.51,4.01-5.76,8.15-11.27,12.36-16.37.06,2.26-.09,4.51-.46,6.69-2.89,7.19-6.23,14.28-9.76,21.31Z"/>
      <path class="cls-54" d="M115.79,208.94c-1.92,5.41-7.36,17.87-10.28,26.05-8.9,25-3.75,33.52-8.4,46.56-3.27,9.2-6.64,9.67-9.75,9.66-9.1-7.21-15.39-27.67-8.02-48.38,4.38-12.31,30.9-49.76,35.53-48.12,4.22,1.5,2.46,9.91.92,14.22Z"/>
      <path class="cls-9" d="M129.44,125.92c.13.37.26.75.39,1.12.95,9.5-.65,19.67-3.82,28.56-10.42,29.28-39.57,57.1-48.22,81.4-18.89,53.06,33.15,103.15,15.47,152.8-.88,2.47-1.89,4.89-3.03,7.25-2.36-2.07-4.61-4.19-6.73-6.37.16-.41.32-.83.47-1.24,9.61-26.99-32.91-84.71-4.49-164.53,6.99-19.64,18.2-38.68,27.96-58.11,3.54-7.04,6.88-14.13,9.76-21.31.37-2.18.52-4.44.46-6.69,1.15-1.4,2.31-2.76,3.47-4.09,2.75-3.15,5.52-6.11,8.3-8.83,0,.02.01.03.02.05Z"/>
      <path class="cls-71" d="M282.37,104.02c13.16,4.68,25.77,12.4,39.13,17.23-1.64.15-3.29.31-4.94.49-7.2-2.27-14.78-3.69-21.73-6.17-7.37-2.62-8.15-4.29-16.65-7.32-6.4-2.28-12.83-3.51-19.19-3.84-44.05-5.13-82.67,34.89-110.05,60.8-8.21,7.77-15.42,14.28-21.45,17.91,2.07-6.93,3.76-13.6,4.8-20.16,42.41-22.34,91.78-79.7,150.09-58.94Z"/>
      <path class="cls-1" d="M294.82,115.57c6.95,2.48,14.53,3.9,21.73,6.17-2.9.31-5.81.64-8.71,1.01-17.58-4.97-36.17-6.47-54.47-4.97,5.5-4.56,11.1-8.31,16.89-11.06-3.8-1.12-7.57-1.87-11.3-2.31,6.36.33,12.79,1.56,19.19,3.84,8.5,3.03,9.29,4.7,16.65,7.32Z"/>
      <path class="cls-13" d="M294.81,60c-36.7-13.07-73.32-9.54-115.8,30.02-9.41,8.76-18.38,17.48-27.41,26.04-5.88,6.85-11.59,13.97-17.15,21.23,48.93,11.05,71.7-78.86,138.01-55.25,9.39,3.34,26.17,15.8,53.03,25.36,13.72,4.88,27.71,7.99,41.81,8.22-15.5-18.87-34.08-34.92-54.69-47.88-1.4-.71-2.81-1.4-4.23-2.08-1.4-.67-2.81-1.31-4.24-1.94-3.04-1.34-6.15-2.59-9.33-3.72ZM300.68,68.94c16.79,5.98,31.68,18.74,43.71,32.22,0,.02-.01.04-.02.06-1.41,3.96-5.47,6.76-11.04,4.78-.54-.19-67.37-28.87-64.26-37.61,1.61-4.52,19.39-3.79,31.6.56Z"/>
      <path class="cls-17" d="M304.14,63.72c-3.04-1.34-6.15-2.59-9.33-3.72-36.7-13.07-73.32-9.54-115.8,30.02-9.41,8.76-18.38,17.48-27.41,26.04,2.31-2.7,4.65-5.35,7.01-7.95,21.44-23.63,44.87-43.04,70.09-52.03,18.71-6.67,38.41-7.6,59.02-.26,5.7,2.03,11.2,4.68,16.42,7.91Z"/>
      <path class="cls-41" d="M280.58,91.05c13.85,4.93,24.91,14.92,39.59,20.15,14.61,5.2,30.18,6.03,45.46,9.28-14.52-1.07-29.3-.61-44.14.77-13.36-4.83-25.97-12.54-39.13-17.23-58.31-20.76-107.67,36.6-150.09,58.94.29-1.79.52-3.56.71-5.34,47.89-16.83,93.86-85.7,147.59-66.57Z"/>
      <path class="cls-57" d="M269.07,68.38c1.61-4.52,19.39-3.79,31.6.56,16.79,5.98,31.68,18.74,43.71,32.22,0,.02-.01.04-.02.06-1.41,3.96-5.47,6.76-11.04,4.78-.54-.19-67.37-28.87-64.26-37.61Z"/>
      <path class="cls-45" d="M272.46,82.04c9.39,3.34,26.17,15.8,53.03,25.36,13.72,4.88,27.71,7.99,41.81,8.22,1.45,1.77,2.89,3.56,4.29,5.38-1.98-.21-3.96-.37-5.95-.52-15.28-3.25-30.86-4.08-45.46-9.28-14.68-5.23-25.75-15.22-39.59-20.15-53.73-19.13-99.7,49.74-147.59,66.57.63-6.09.64-12.1-.2-18.15.55-.73,1.11-1.45,1.66-2.18,48.93,11.05,71.7-78.86,138.01-55.25Z"/>
      <path class="cls-39" d="M342.6,158.68c1.44.51,28.35,13.26,38.45,30.56-15.59-16.2-35.57-28.33-57.35-36.09-.05-.02-.1-.04-.15-.05,3.55-1.43,7.38-2.88,10.81-4.34.98,4.37,3.1,8.09,8.24,9.92Z"/>
      <path class="cls-49" d="M385.39,126.47c-5.85-2.08-11.74-3.98-17.51-5.82,1.24.11,2.48.22,3.71.35,12.3,1.28,24.37,3.74,36.1,7.77,37.71,21.77,49.29,53.05,48.63,81.01-10.11-33.48-7.74-60.8-70.93-83.3Z"/>
      <path class="cls-12" d="M444.77,231c2.64.94,5.37,1.62,8.19,2.01,1.93-7.25,3.16-15.1,3.35-23.24-10.11-33.48-7.74-60.8-70.93-83.3-5.85-2.08-11.74-3.98-17.51-5.82-2.54-.22-5.09-.38-7.65-.5-6.17,20.29,17.59,38.25,32.63,51.58,10.03,8.89,20.67,48.14,51.92,59.27ZM451.14,215.49c-5.73.98-10.94.42-15.69-1.27-21.27-7.57-41.61-48.72-37.34-60.72,1.88-5.29,8.67-8.71,19.98-4.69,24.44,8.7,26.31,44.12,33.04,66.68Z"/>
      <path class="cls-42" d="M393.51,203.63c-.52-.47-1.05-.94-1.57-1.4-3.32-4.58-6.97-8.91-10.89-12.98-10.1-17.3-37.01-30.05-38.45-30.56-5.14-1.83-7.27-5.55-8.24-9.92.49-.21.97-.41,1.44-.62,3.86-1.71,7.05-3.45,8.48-5.22.39,2.26.59,4.67.54,7.27-.2,11.6,41.07,28.47,48.69,53.44Z"/>
      <path class="cls-42" d="M343.25,138.76c-.62-.41-1.24-.82-1.86-1.21-7.9-4.97-16.28-8.98-24.97-12.07-2.83-1.01-5.69-1.91-8.58-2.72,7-.88,14.01-1.6,20.99-2.1,6.63,4.55,11.92,10.23,14.42,18.11Z"/>
      <path class="cls-41" d="M392.85,171.73c10.03,8.89,20.67,48.14,51.92,59.27,2.64.94,5.37,1.62,8.19,2.01-.41,1.53-.85,3.03-1.31,4.5-.81-.26-1.62-.53-2.41-.81-44.17-15.72-53.21-59.33-64.2-69.13-6.11-5.45-30.73-26.06-38.27-47.68,4.5-.04,8.99.03,13.45.25-6.17,20.29,17.59,38.25,32.63,51.58Z"/>
      <path class="cls-48" d="M394.46,193.2c19.73,19.41,28.86,49.71,49.91,61.17-2.7,4.74-5.86,9.17-9.49,13.19-7.9-24.53-22.65-46.49-39.85-62.53-.51-.47-1.01-.94-1.52-1.4-7.62-24.98-48.89-41.84-48.69-53.44.04-2.6-.15-5.01-.54-7.27.31-.38.54-.76.67-1.14.3-.83.09-1.55-.42-2.19,0,0,.02,0,.03,0-.02-.01-.04-.02-.05-.04-.41-.28-.83-.54-1.24-.8-2.5-7.89-7.79-13.56-14.42-18.11,2.79-.2,5.58-.36,8.37-.49,8.17,9.2,12.77,21.19,18.99,32.02,9.68,16.85,24.79,27.78,38.26,41.03Z"/>
      <path class="cls-71" d="M385.04,167.58c10.99,9.8,20.03,53.4,64.2,69.13.8.28,1.6.55,2.41.81-.37,1.17-.75,2.31-1.15,3.44-1.66,4.68-3.71,9.17-6.13,13.42-21.05-11.46-30.18-41.76-49.91-61.17-13.46-13.24-28.58-24.18-38.26-41.03-6.22-10.83-10.82-22.82-18.99-32.02,3.2-.14,6.39-.23,9.57-.26,7.54,21.61,32.16,42.23,38.27,47.68Z"/>
      <path class="cls-58" d="M398.12,153.5c1.88-5.29,8.67-8.71,19.98-4.69,24.44,8.7,26.31,44.12,33.04,66.68-5.73.98-10.94.42-15.69-1.27-21.27-7.57-41.61-48.72-37.34-60.72Z"/>
      <path class="cls-43" d="M405.31,226.5c.38-1.07.9-1.66,1.56-1.43,12.22,4.35,30.64,49.45,22.17,73.24-1.05,2.95-1.98,5.31-3,7.05-25.28-10.02-21.02-78.04-20.73-78.86Z"/>
      <path class="cls-42" d="M357.06,199.79c-8.87-3.16-18.24-5.27-27.81-6.55,5.78-.58,11.59-.84,17.35-.73,6.1,4.47,13.95,7.75,19.67,11.22-2.8-1.42-5.85-2.74-9.21-3.94Z"/>
      <path class="cls-53" d="M423.68,241.86c4.5,8.12,8.31,16.74,11.19,25.7,7.59,23.57,8.85,49.51-.16,74.82-.03.08-.06.16-.09.25,3.54-20.42,8.58-61.42-10.94-100.77Z"/>
      <path class="cls-58" d="M385.84,201.75c-.61.6-1.09,1.25-1.36,1.99-2,5.61,9.06,16.9,12.31,22.68,7.27,12.91,4.33,27.39,4.21,41.46-.18,21.61,16.58,39.29,16.48,53.5-.09,11.68-3.2,30.71,7.16,41.72,4.13-6.56,7.45-13.42,9.99-20.47,3.54-20.42,8.58-61.42-10.94-100.77-7.42-13.38-16.74-25.38-27.01-35.27-.55-.53-1.09-1.05-1.64-1.56-.49-.17-.99-.34-1.48-.52-.11-.04-.21-.07-.32-.11-.76-.26-1.51-.53-2.27-.8-1.71-.61-3.42-1.23-5.13-1.86ZM406.87,225.07c12.22,4.35,30.64,49.45,22.17,73.24-1.05,2.95-1.98,5.31-3,7.05-25.28-10.02-21.02-78.04-20.73-78.86.38-1.07.9-1.66,1.56-1.43Z"/>
      <path class="cls-12" d="M411.32,316.77c-1.21-26.87-16.47-24.48-13.36-64.9,2.36-30.71-27.12-46.28-37.13-58.28,2.09.29,4.17.63,6.22,1.04,6.28,2.44,12.54,4.83,18.78,7.12-.61.6-1.09,1.25-1.36,1.99-2,5.61,9.06,16.9,12.31,22.68,7.27,12.91,4.33,27.39,4.21,41.46-.18,21.61,16.58,39.29,16.48,53.5-.09,11.68-3.2,30.71,7.16,41.72-2.18,3.46-4.58,6.84-7.22,10.12-15.26-14.17-5.33-39.2-6.1-56.45Z"/>
      <path class="cls-71" d="M397.96,251.86c-3.11,40.42,12.15,38.03,13.36,64.9.77,17.26-9.16,42.28,6.1,56.45-1.99,2.47-4.12,4.89-6.38,7.24-3.8-9.37-7.34-21.01-8.1-36.4-.39-7.89,1.2-16.71.52-24.96.84-15.73-3.28-29.88-9.67-42.09-.89-3.75-1.34-7.46-.59-10.5,1.95-7.81,1.67-15.01-.25-21.48.09-14.28-5.87-30.71-26.7-41.31-5.71-3.47-13.57-6.75-19.67-11.22,4.8.09,9.56.43,14.24,1.08,10.01,11.99,39.49,27.56,37.13,58.28Z"/>
      <path class="cls-42" d="M393.8,277.02c-1.09-2.09-2.25-4.12-3.46-6.09-.78-1.26-1.58-2.5-2.39-3.71.71-1.48,1.35-3.01,1.91-4.58,1.74-4.89,3.06-11.01,3.1-17.6,1.92,6.48,2.2,13.67.25,21.48-.76,3.03-.31,6.74.59,10.5Z"/>
      <path class="cls-42" d="M411.04,380.46c-1.66,1.73-3.39,3.43-5.2,5.1,1.07-11.53-.47-24.96-6.96-43.8,2.75-7.86,4.19-15.43,4.58-22.66.69,8.25-.91,17.06-.52,24.96.76,15.4,4.3,27.04,8.1,36.4Z"/>
      <path class="cls-58" d="M219.33,472.65c52.76,18.78,81.86-.56,106.1-27.27,3.15-3.19,6.17-6.69,9.07-10.51,21.16-25.52,40.29-53.87,71.44-62.04.35,4.56.29,8.76-.08,12.73-.06.66-.13,1.32-.21,1.97-75.19,13.77-59.85,136.7-191.71,89.75-41.95-14.94-74.28-43.98-91.71-58.56-6.47-9.11-12.39-18.52-17.7-28.02,1.29.32,2.57.69,3.81,1.13,31.99,11.39,39.15,55.25,111,80.83Z"/>
      <path class="cls-62" d="M386.95,440.65c-34.74,65.57-98.69,84.56-161.45,62.21-3.66-1.3-7.27-2.75-10.83-4.31,106.97,28.29,144.01-19.44,172.28-57.89Z"/>
      <path class="cls-42" d="M105.05,371.66c7.62,9.31,16.35,17.83,25.73,25.74.45,1.98,1.37,3.72,2.64,5.29,2.17,4.82,4.76,9.37,7.71,13.66-12.01-13.03-19.06-27.72-37.2-36.33.53-2.77.91-5.57,1.13-8.36Z"/>
      <path class="cls-43" d="M213.93,477.28c-41.95-14.94-74.28-43.98-91.71-58.56,16.5,23.23,36.59,44.56,59.45,60.89,10.45,7.46,21.47,13.87,32.99,18.94,106.97,28.29,144.01-19.44,172.28-57.89,4.15-7.82,7.88-16.31,11.14-25.47,3.36-9.44,6.37-17.92,7.54-27.66-75.19,13.77-59.85,136.7-191.71,89.75ZM320.89,483c-.85-.3-1.69-.71-2.5-1.22-.48-.3-.98-.65-1.15-1.02.16-1.05.42-2.04.76-2.98.64-1.8,48.73-78.88,69.74-71.4,8.17,2.91,6.57,8.67,3.54,17.19-11.28,31.67-55.4,64.76-70.38,59.43Z"/>
      <path class="cls-15" d="M220.34,469.91c-8.64-3.08-16.96-7.25-24.79-12.25,2.45,1.01,4.94,1.96,7.45,2.86,33.51,11.93,63.58,14.94,88.95,6.21-19.42,9.57-44.75,12.76-71.61,3.19Z"/>
      <path class="cls-12" d="M404.56,362.61c.68,3.62,1.12,7.02,1.37,10.23-31.15,8.17-50.27,36.52-71.44,62.04,5.51-7.28,10.55-15.71,15.08-25.38,21.12-19.57,37.55-43.57,54.99-46.89Z"/>
      <path class="cls-71" d="M404.56,362.61c-17.44,3.32-33.87,27.32-54.99,46.89,2.6-5.53,5.03-11.47,7.29-17.82,1.64-4.6,2.92-8.52,3.89-11.96,19.49,2.74,31.38-18.97,37.97-37.49.06-.16.1-.31.16-.46,2.68,7.79,4.52,14.66,5.68,20.84Z"/>
      <path class="cls-71" d="M325.43,445.38c-24.24,26.71-53.35,46.06-106.1,27.27-71.85-25.58-79-69.44-111-80.83-1.24-.44-2.52-.82-3.81-1.13-.74-1.32-1.47-2.65-2.19-3.98.64-2.21,1.17-4.44,1.59-6.69,18.14,8.61,25.19,23.3,37.2,36.33,12.75,18.57,32.3,32.22,54.43,41.3,7.82,5,16.15,9.18,24.79,12.25,26.86,9.56,52.19,6.37,71.61-3.19,12.31-4.24,23.52-11.24,33.47-21.33Z"/>
      <path class="cls-50" d="M317.24,480.77c.16-1.05.42-2.04.76-2.98.64-1.8,48.73-78.88,69.74-71.4,8.17,2.91,6.57,8.67,3.54,17.19-11.28,31.67-55.4,64.76-70.38,59.43-.85-.3-1.69-.71-2.5-1.22-.48-.3-.98-.65-1.15-1.02Z"/>
      <path class="cls-65" d="M120.4,300.76c2.68-7.52,6.84-9.05,8.59-8.43,21.85,7.78,16.79,58.22,23.08,80.88,1.03,3.72,1.53,8.57.29,12.03-.39,1.09-.95,2.04-1.72,2.78-.2-.07-.4-.13-.6-.2-37.87-13.48-36.11-68.91-29.65-87.07Z"/>
      <path class="cls-54" d="M148.93,165.21c-2.4,2.27-4.72,4.44-6.94,6.45,2.35,13.83,3.17,26.85,1.03,37.75-3.46,17.66-14.59,47.42-25.21,85-6.45,22.83-.82,57.37.83,63.89,5.72,22.55,21.96,42.94,37,57.84,6.29,4.31,12.7,8.42,19.1,12.39-2.06-3.83-3.89-7.88-5.54-12.11-.49-1.27-.97-2.55-1.43-3.85-14.59-35.5-11.89-75.64-28.21-123.53-8.44-24.77,4.06-56.23,12.64-87.1,1.85-12.33,1.68-24.62-3.28-36.73ZM128.99,292.34c21.85,7.78,16.79,58.22,23.08,80.88,1.03,3.72,1.53,8.57.29,12.03-.39,1.09-.95,2.04-1.72,2.78-.2-.07-.4-.13-.6-.2-37.87-13.48-36.11-68.91-29.65-87.07,2.68-7.52,6.84-9.05,8.59-8.43Z"/>
      <path class="cls-6" d="M152.2,201.94c-2.97,19.77-11.15,39.66-13.2,59.17-1.08,10.35-.44,20.59,3.63,30.64,12,29.65,11.37,81.87,25.14,120.82-14.59-35.5-11.89-75.64-28.21-123.53-8.44-24.77,4.06-56.23,12.64-87.1Z"/>
      <path class="cls-13" d="M137.09,175.96c-5.72,12.06-11.18,19.06-12.93,23.98-38.75,108.83-13.59,166.56,20.51,208.4-4.56-3.38-9.03-6.87-13.35-10.5-33.46-43.75-27.53-88.61-27.31-132.57,5.56-33.43,16.61-59.18,23.48-82.15,2.93-1.77,6.15-4.22,9.62-7.16Z"/>
      <path class="cls-31" d="M131.31,397.85c-9.58-8.03-18.49-16.7-26.26-26.18.52-6.63.21-13.27-.81-19.71-5.42-34.17-4.27-62.44-.24-86.68-.22,43.96-6.15,88.82,27.31,132.57Z"/>
      <path class="cls-21" d="M124.16,199.94c1.75-4.93,7.21-11.92,12.93-23.98,1.58-1.34,3.21-2.78,4.89-4.3,2.35,13.83,3.17,26.85,1.03,37.75-3.46,17.66-14.59,47.42-25.21,85-6.45,22.83-.82,57.37.83,63.89,5.72,22.55,21.96,42.94,37,57.84-3.7-2.53-7.36-5.13-10.96-7.8-34.1-41.84-59.26-99.57-20.51-208.4Z"/>
      <path class="cls-6" d="M205.77,363.3c11.09-31.14,24.22-122.96,28.1-151.27-1.53,17.75-3.99,37.16-6.81,56.08-1.68,11.28-3.49,22.37-5.29,32.82-5.85,33.85-11.71,60.96-13.37,65.61-5.16,14.5-12.46,27.55-23.25,37.97,1.52-2.47,2.92-5.02,4.06-7.76,2-4.79,7.72-8.64,16.56-33.46Z"/>
      <path class="cls-40" d="M191.43,252.75c4.06-11.4,17.8-39.54,28.98-35.56,13.95,4.97-14.82,121.19-16.96,127.19-.87,2.43-2.73,4.13-4.86,5.66-27.98-19.98-19.64-62.23-7.16-97.28Z"/>
      <path class="cls-65" d="M235.47,183.1c-22.7,33.67-41.51,38.78-54.13,74.23-21.27,59.74,9.81,94.36-2.6,129.21-2.94,8.26-7.26,16.23-11.67,24,.67,1.99,1.38,3.96,2.13,5.88,3.45-1.95,6.65-4.09,9.63-6.4.75-.58,1.49-1.18,2.22-1.78,1.43-1.19,2.79-2.44,4.11-3.71,1.52-2.47,2.92-5.02,4.06-7.76,2-4.79,7.72-8.64,16.56-33.46,11.09-31.14,24.22-122.96,28.1-151.27.31-3.65.59-7.24.82-10.73.42-6.41.69-12.51.78-18.2ZM220.4,217.19c13.95,4.97-14.82,121.19-16.96,127.19-.87,2.43-2.73,4.13-4.86,5.66-27.98-19.98-19.64-62.23-7.16-97.28,4.06-11.4,17.8-39.54,28.98-35.56Z"/>
      <path class="cls-9" d="M163.28,397.62c-2.09-8.19-3.75-16.72-5.19-25.32.56-51.38-18.34-85.14-8.79-111.96,10.92-30.68,59.06-56.74,86.16-85.16.02,1.12.03,2.27.04,3.44-27.06,24.93-61.44,49.16-73.99,84.38-20.53,57.68,7.72,86.33,1.76,134.63Z"/>
      <path class="cls-54" d="M181.34,257.33c-21.27,59.74,9.81,94.36-2.6,129.21-2.94,8.26-7.26,16.23-11.67,24-1.41-4.18-2.66-8.5-3.79-12.92,5.96-48.3-22.3-76.95-1.76-134.63,12.54-35.23,46.93-59.45,73.99-84.38,0,1.47,0,2.96-.03,4.49-22.7,33.67-41.51,38.78-54.13,74.23Z"/>
      <path class="cls-13" d="M235.09,166.47c.2,2.72.32,5.63.38,8.7-27.1,28.42-75.24,54.48-86.16,85.16-9.55,26.82,9.35,60.58,8.79,111.96-4.59-27.46-6.92-55.63-13.66-75.67-2.52-18.35-6.61-21.35-2.63-32.53,3.92-11.02,38.58-44.16,55.08-76.81.54-.76,1.07-1.53,1.61-2.29,11.53-5.79,23.08-12.13,34.75-18.23.6-.31,1.2-.63,1.81-.94.02.22.03.43.05.65Z"/>
      <path class="cls-44" d="M144.43,296.63c-.57-1.68-1.16-3.32-1.8-4.88-4.07-10.05-4.71-20.29-3.63-30.64,22.13-23.04,40.71-49.31,57.87-73.82-16.51,32.65-51.16,65.79-55.08,76.81-3.98,11.18.11,14.17,2.63,32.53Z"/>
      <path class="cls-21" d="M154.62,216.61c-2.45,6.88-6.03,13.34-10.49,19.22-1.45,5.47-2.79,10.92-3.81,16.35,46.82-41.75,80.04-117.42,128.04-145.99-10.65-2.8-21.01-2.81-31.01-.84-31.06,14.14-61.13,40.11-74.06,76.43-6.29,17.66-4.39,22.79-8.67,34.83ZM168.48,176.31c6.19-17.39,38.57-61.49,54.44-55.84,3.83,1.36,3.84,4.14.6,13.24-2.08,5.85-5.12,11.18-8.38,16.44-31.51,50.88-56.08,52.59-46.67,26.17Z"/>
      <path class="cls-9" d="M157.62,170.34c3.93-11.04,32.72-36.83,57.55-57.36,7.16-3.46,14.57-6.13,22.19-7.63-31.06,14.14-61.13,40.11-74.06,76.43-6.29,17.66-4.39,22.79-8.67,34.83-2.45,6.88-6.03,13.34-10.49,19.22,1.4-5.3,2.9-10.62,4.26-15.94,1.28-2.25,2.34-4.58,3.19-6.97,6.02-16.91,1.78-30.62,6.04-42.59Z"/>
      <path class="cls-6" d="M270.27,106.72c-5.79,2.75-11.4,6.5-16.89,11.06-18.59,15.41-35.91,40.11-54.89,67.22-17.61,25.15-36.66,52.35-59.48,76.11.31-2.97.76-5.94,1.32-8.92,46.82-41.75,80.04-117.42,128.04-145.99.64.17,1.27.34,1.91.53Z"/>
      <path class="cls-13" d="M157.62,170.34c-4.26,11.97-.02,25.68-6.04,42.59-.85,2.39-1.91,4.72-3.19,6.97,3.81-14.85,6.63-29.71,3.66-44.37.28-3.18.72-6.92,1.86-10.12,3.17-8.89,26.66-24.14,50.4-46.49,3.55-2.16,7.17-4.15,10.86-5.93-24.83,20.53-53.62,46.32-57.55,57.36Z"/>
      <path class="cls-16" d="M152.05,175.53c-.7-3.45-1.72-6.89-3.12-10.32,15.29-14.47,34.09-33.34,55.38-46.29-23.75,22.35-47.24,37.6-50.4,46.49-1.14,3.2-1.58,6.94-1.86,10.12Z"/>
      <path class="cls-54" d="M168.48,176.31c6.19-17.39,38.57-61.49,54.44-55.84,3.83,1.36,3.84,4.14.6,13.24-2.08,5.85-5.12,11.18-8.38,16.44-31.51,50.88-56.08,52.59-46.67,26.17Z"/>
      <path class="cls-9" d="M210.2,168.38c-3.85,5.39-7.75,10.95-11.72,16.62,4.28-2.15,8.57-4.38,12.86-6.64,53.27-37.32,107.45-43.98,126.51-42.95-5.88-3.43-12-6.35-18.3-8.78-33.46-5.2-56.77-11.03-109.35,41.75ZM290.85,127.57c.49.18.97.39,1.42.68,1.98,1.27,2.73,3.39,3.5,5.48-28.42,16.07-47.61,16.74-50.06,15.86-2.08-.74-1.16-4.23-.42-6.31,4.04-11.36,34.08-19.8,45.55-15.72Z"/>
      <path class="cls-6" d="M337.85,135.4c1.19.69,2.37,1.4,3.54,2.14,1.04.66,2.08,1.33,3.1,2.02,0,.01.02.02.03.03-2.86-.51-5.69-.9-8.51-1.19-17.69-1.78-34.6.78-50.99,5.8-17.12,5.24-33.68,13.15-49.97,21.62-.6.31-1.21.63-1.81.94-7.34,3.84-14.63,7.77-21.89,11.59,53.27-37.32,107.45-43.98,126.51-42.95Z"/>
      <path class="cls-13" d="M306.79,124.04c2.25.59,4.55.69,6.9.5.91.3,1.82.61,2.73.93,1.05.37,2.09.76,3.13,1.16-33.46-5.2-56.77-11.03-109.35,41.75,4.9-6.87,9.73-13.47,14.55-19.66,22.03-15.31,21.71-40.4,82.05-24.68Z"/>
      <path class="cls-16" d="M306.79,124.04c-60.34-15.72-60.02,9.37-82.05,24.68,9.48-12.21,18.88-22.85,28.63-30.93,18.3-1.5,36.89,0,54.47,4.97,1.96.55,3.91,1.15,5.85,1.79-2.34.18-4.65.08-6.9-.5Z"/>
      <path class="cls-21" d="M292.27,128.25c1.98,1.27,2.73,3.39,3.5,5.48-28.42,16.07-47.61,16.74-50.06,15.86-2.08-.74-1.16-4.23-.42-6.31,4.04-11.36,34.08-19.8,45.55-15.72.49.18.97.39,1.42.68Z"/>
      <path class="cls-13" d="M227.1,301.13c1.93-.01,3.86-.11,5.78-.29.92,1.47,1.77,2.99,2.56,4.53.76,13.47-1.26,28.53-7.04,44.79-1.5,4.21-3.08,8.4-4.58,12.61-14.14,39.71-6.44,49.72,15.96,57.69,11.96,4.26,25.48,5.1,38.09,2.78-17.21,4.92-34.93,7.32-51.81,5.7-42.46-18.69,5.38-57.72,1.03-127.81Z"/>
      <path class="cls-40" d="M240.02,316.84c.36,1.17.71,2.34,1.02,3.53,6.43,24.15,4.4,52.35,15.47,72.83,4.38,8.11,10.82,15.01,20.65,19.96-.74-.19-1.48-.41-2.19-.67-29.4-10.47-30.32-56.98-34.95-95.66Z"/>
      <path class="cls-9" d="M239.79,420.46c11.96,4.26,25.48,5.1,38.09,2.78,5.1-1.46,10.16-3.13,15.14-5-3.07-.38-6.02-1.09-8.82-2.08-2.53-.9-4.86-1.9-7.04-3-.74-.19-1.48-.41-2.19-.67-29.4-10.47-30.32-56.98-34.95-95.66-1.22-3.97-2.71-7.81-4.57-11.47.76,13.47-1.26,28.53-7.04,44.79-1.5,4.21-3.08,8.4-4.58,12.61-14.14,39.71-6.44,49.72,15.96,57.69ZM267.41,420.04c-8.56,1.44-17.99,1.02-26.27-1.93-17.29-6.16-26.8-21.38-18.4-44.98,2.76-7.75,9.9-20.99,17.23-18.37s.93,37.18,26.3,54.89c2.71,1.89,2.76,5.96,1.52,9.44-.12.32-.24.64-.38.96Z"/>
      <path class="cls-42" d="M205.26,424.62c-.56-.19-1.13-.37-1.69-.57-4.64-1.65-9.16-3.72-13.51-6.23-3.88-2.24-7.64-4.83-11.24-7.81.75-.58,1.49-1.18,2.22-1.78,4.19-3.51,7.9-7.37,11.2-11.54-.45,3.27-1.12,6.57-1.79,9.87-1.68,8.29,6.97,13.39,14.8,18.06Z"/>
      <path class="cls-42" d="M209.65,362.07c2.31-9.27,6.65-30.1,11.12-55.41,2.19,17.16-1.63,33.5-3.59,39.01s-5.33,10.68-7.53,16.4Z"/>
      <path class="cls-33" d="M226.07,428.95c-1.94-.19-3.88-.43-5.79-.72-15.82-8.93-29.59-14.32-21.65-36.61,5.6-15.73,14.24-22.87,20.99-41.85,5.59-15.71,7.22-32.51,4.58-48.69.97.04,1.93.06,2.9.05,4.35,70.09-43.49,109.13-1.03,127.81Z"/>
      <path class="cls-34" d="M198.63,391.62c-7.94,22.29,5.84,27.68,21.65,36.61-5.11-.79-10.13-1.98-15.01-3.6-7.84-4.66-16.49-9.77-14.8-18.06.67-3.3,1.33-6.6,1.79-9.87,7.03-8.86,12.21-19.08,16.15-30.15.29-.82.72-2.35,1.25-4.48,2.2-5.72,5.5-10.7,7.53-16.4s5.78-21.85,3.59-39.01c.33-1.88.67-3.79,1-5.71.81.07,1.62.11,2.43.14,2.64,16.18,1.01,32.98-4.58,48.69-6.76,18.98-15.4,26.12-20.99,41.85Z"/>
      <path class="cls-54" d="M222.73,373.12c2.76-7.75,9.9-20.99,17.23-18.37s.93,37.18,26.3,54.89c2.71,1.89,2.76,5.96,1.52,9.44-.12.32-.24.64-.38.96-8.56,1.44-17.99,1.02-26.27-1.93-17.29-6.16-26.8-21.38-18.4-44.98Z"/>
      <path class="cls-4" d="M330.82,192.41c.5.18.99.36,1.48.56-1.02.08-2.04.17-3.06.27-5.53-.74-11.12-1.2-16.72-1.43-28.06-1.12-56.32,3.72-77.54,9.4,16.39-8.93,77.58-15.31,95.84-8.81Z"/>
      <path class="cls-48" d="M316.72,178.88c2.49.89,4.96,1.8,7.45,2.68,10.5,3.74,21.07,6,21.14,6.02,3.35,1.19,6.32,3.06,9,5.3-4.36-.35-8.78-.46-13.22-.37-9.41-5.63-20.39-10.18-27.65-12.77-54.92-19.55-71.16-3.42-78.1,8.67.12-3.52.17-6.92.16-10.14,8.85-19.67,61.13-6.55,81.21.6Z"/>
      <path class="cls-23" d="M331.31,181.06c12,4.27,23.91,8.98,35.74,13.56-4.17-.83-8.44-1.4-12.75-1.75-2.67-2.24-5.64-4.11-9-5.3-.06-.02-10.64-2.28-21.14-6.02-2.49-.89-4.97-1.8-7.45-2.68-20.08-7.15-72.37-20.27-81.21-.6-.02-4.23-.15-8.18-.41-11.81,32.6-4.85,64.69,3.36,96.22,14.59Z"/>
      <path class="cls-40" d="M360.08,191.18c4.52,1.61,9.09,3.15,13.64,4.77,7.09,2.52,14.12,5.24,20.84,8.65.16.14.31.28.47.43-.49-.17-.99-.34-1.48-.52-.86-.3-1.72-.6-2.58-.91-19.65-6.99-39.53-15.38-59.65-22.54-20.82-7.41-41.89-13.51-63.19-15.4,24.1.68,50.51,8.83,73.19,16.9,6.19,2.2,7.16,4.48,18.76,8.62Z"/>
      <path class="cls-9" d="M247.32,159.96c36.76-16.06,41.21-18.51,81.29-4.24,3.59,1.28,7.26,2.63,10.96,4.03,18.83,9,35.64,21.56,48.48,37.43-17.97-15.62-41.58-33.9-58.87-40.06-28.56-10.17-63.3.79-81.87,2.83Z"/>
      <path class="cls-65" d="M393.99,204.08c.19.17.38.35.57.52-6.72-3.42-13.75-6.13-20.84-8.65-4.55-1.62-9.12-3.16-13.64-4.77-11.6-4.13-12.57-6.41-18.76-8.62-22.68-8.08-49.09-16.22-73.19-16.9-10.95-.97-21.96-.84-33.03.81-.01-.17-.03-.34-.04-.51,28.51-9.07,59.19-11.76,87.73-1.6,23.53,8.38,46.1,27.58,71.21,39.71Z"/>
      <path class="cls-54" d="M329.19,157.13c17.29,6.16,40.9,24.43,58.87,40.06,1.33,1.65,2.63,3.32,3.87,5.04.69.61,1.38,1.23,2.06,1.85-25.11-12.13-47.68-31.33-71.21-39.71-28.54-10.16-59.22-7.47-87.73,1.6,0-.05,0-.1-.01-.14,2.21-1.15,4.42-2.28,6.63-3.4,1.97-.85,3.84-1.67,5.65-2.46,18.57-2.04,53.31-13,81.87-2.83Z"/>
      <path class="cls-42" d="M339.58,159.75c-3.71-1.4-7.37-2.75-10.96-4.03-40.07-14.27-44.53-11.82-81.29,4.24-1.8.79-3.68,1.61-5.65,2.46,1.58-.8,3.16-1.59,4.74-2.37,12.62-6.22,25.44-11.83,38.6-15.85,13.15,1.51,26.21,4.51,38.68,8.95,5.42,1.93,10.72,4.13,15.88,6.6Z"/>
      <path class="cls-3" d="M337.46,192.65c-1.72.08-3.44.19-5.16.33-.49-.19-.98-.38-1.48-.56-18.26-6.5-79.45-.12-95.84,8.81-.09.03-.19.05-.29.08.17-2.59.31-5.11.43-7.59,28.46-12.73,59.56-17.58,88.5-7.28,4.68,1.66,9.29,3.73,13.84,6.22Z"/>
      <path class="cls-67" d="M341.09,192.52c-1.21.03-2.42.07-3.63.13-4.54-2.49-9.16-4.55-13.84-6.22-28.94-10.3-60.04-5.45-88.5,7.28.09-1.79.16-3.56.22-5.29,6.94-12.1,23.18-28.23,78.1-8.67,7.26,2.59,18.24,7.14,27.65,12.77Z"/>
      <path class="cls-54" d="M306.09,218.08c2.34-4.46,5.02-9.58,8.17-14.42-.45,1.95-1.14,3.94-1.88,6.04-1.48,4.16-3.36,8.11-5.58,11.86-8.76,14.79-22.86,26.34-39.03,34.35-12.82,6.35-26.93,10.47-40.7,12.21.02-.11.03-.23.05-.34,30.62-9.22,63.67-20.48,78.98-49.69Z"/>
      <path class="cls-9" d="M239.89,240.41c-2.46,6.92-5.78,13.15-11.29,17.05-.48,3.44-.98,6.88-1.49,10.31,30.62-9.22,63.67-20.48,78.98-49.69,2.34-4.46,5.02-9.58,8.17-14.42.88-3.86.8-7.59-1.73-11.84-.9-.04-1.79-.07-2.69-.09-27.62,9.48-55.29,3.6-62.87,24.87-2.58,7.24-4.28,15.98-7.07,23.82ZM260.22,246.96c-5.67-2.02-13.04-11.01-8.73-23.11,4.9-13.77,25-30.29,43.25-23.8,1.08.38,12.4,5,11,8.94-2.57,7.22-9.29,12.25-13.49,18.56.32.33.29.8.15,1.19-.19.54-19.56,22.72-32.18,18.22Z"/>
      <path class="cls-72" d="M238.63,210.32c-3.27,9.19-2.68,21.54-6.3,31.69-.63,1.77-1.4,3.51-2.34,5.19,2.08-15.94,3.77-31.67,4.71-45.91,16.17-4.35,36.48-8.22,57.68-9.32-26.01,7.61-50.59,9.49-53.74,18.35Z"/>
      <path class="cls-13" d="M246.97,216.6c-2.58,7.24-4.28,15.98-7.07,23.82-2.46,6.92-5.78,13.15-11.29,17.05.48-3.42.94-6.84,1.39-10.26.94-1.68,1.71-3.42,2.34-5.19,3.61-10.15,3.03-22.51,6.3-31.69,3.16-8.86,27.73-10.74,53.74-18.35,5.78-.3,11.62-.4,17.46-.24-27.62,9.48-55.29,3.6-62.87,24.87Z"/>
      <path class="cls-54" d="M251.49,223.84c4.9-13.77,25-30.29,43.25-23.8,1.08.38,12.4,5,11,8.94-2.57,7.22-9.29,12.25-13.49,18.56.32.33.29.8.15,1.19-.19.54-19.56,22.72-32.18,18.22-5.67-2.02-13.04-11.01-8.73-23.11Z"/>
      <path class="cls-13" d="M363.75,218.99c-10.89-3.88-32.25-1.97-55.43-.16-.45.84-.91,1.67-1.39,2.48,5.67,4.08,11.21,8.3,15.81,13.56,15.51,17.71,35.69,28.63,56.84,36.63,1.31.1,2.62.15,3.93.12.68-.01,1.37-.04,2.05-.09.24-.37.46-.75.69-1.14.91-19.68-3.32-44.58-22.5-51.41ZM357.53,224.83c24.34,8.67,17.5,20.5,20.78,35.37-8.1,1.61-15.66.89-22.52-1.55-20.89-7.44-33.01-31.18-31.85-34.42,2.33-6.53,27.06-1.72,33.6.6Z"/>
      <path class="cls-54" d="M379.59,271.5c-4.59-.34-9.14-1.38-13.6-2.97-2.8-1-5.57-2.19-8.3-3.53-13.27-6.53-25.7-16.85-36.74-28-5.02-5.07-9.75-10.31-14.15-15.45.05-.08.09-.16.14-.24,5.67,4.08,11.21,8.3,15.81,13.56,15.51,17.71,35.69,28.63,56.84,36.63Z"/>
      <path class="cls-42" d="M380.24,213.62c-7.25-5.71-15.34-9.98-23.34-12.83-8.84-3.15-32.09-7.28-42.8-5.52-.36-1.12-.87-2.27-1.58-3.45,15.3.61,30.54,2.99,44.53,7.97,10.21,3.64,17.74,8.43,23.19,13.83Z"/>
      <path class="cls-34" d="M392.21,253.6c-.56,3.3-1.39,6.35-2.34,9.03-.56,1.57-1.2,3.09-1.91,4.58-.52,1.09-1.09,2.15-1.7,3.19.91-19.68-3.32-44.58-22.5-51.41-10.89-3.88-32.25-1.97-55.43-.16,1.56-2.93,2.92-5.97,4.05-9.13,1.04-2.92,1.97-5.62,2.28-8.32,13.13-3.71,28.11-3.15,41.26,1.54,28.72,10.22,33.52,30.42,36.29,50.69Z"/>
      <path class="cls-52" d="M380.24,213.62c12.44,12.32,14.03,27.81,11.96,39.99-2.77-20.27-7.57-40.47-36.29-50.69-13.15-4.68-28.13-5.24-41.26-1.54.23-2,.12-4.01-.55-6.1,10.71-1.76,33.96,2.37,42.8,5.52,8,2.85,16.09,7.12,23.34,12.83Z"/>
      <path class="cls-9" d="M378.3,260.2c-8.1,1.61-15.66.89-22.52-1.55-20.89-7.44-33.01-31.18-31.85-34.42,2.33-6.53,27.06-1.72,33.6.6,24.34,8.67,17.5,20.5,20.78,35.37Z"/>
      <path class="cls-52" d="M358.6,274.18c-.67-.25-1.33-.52-1.99-.79.18-1.56.37-3.12.57-4.68,2.08.6,4.15,1.22,6.12,1.92,27.1,9.65,15.88,27.88,12.81,57.92-.88,2.92-1.84,5.82-2.86,8.7-1.45,4.08-3.05,8.12-4.78,12.09-5.42-30.06,27.13-61-9.87-75.16Z"/>
      <path class="cls-22" d="M380.61,273.94s-.98-.29-1.94-.64c-2.24-.8-4.33-1.78-6.32-2.9,3.69.85,7.42,1.29,11.17,1.23.05.9.09,1.81.12,2.72.32,9.16-.25,18.54-1.63,27.94-.23-12.12,1.61-27.27-1.4-28.34Z"/>
      <path class="cls-42" d="M363.3,270.63c-1.97-.7-4.04-1.32-6.12-1.92.16-1.24.32-2.47.5-3.71,2.73,1.35,5.5,2.54,8.3,3.53,2.1.75,4.23,1.38,6.36,1.87,2,1.12,4.09,2.11,6.32,2.9.96.34,1.94.64,1.94.64,3.01,1.07,1.17,16.23,1.4,28.34-.01.08-.02.16-.03.24-1.29,8.71-3.27,17.43-5.87,26.02,3.07-30.04,14.29-48.27-12.81-57.92Z"/>
      <path class="cls-9" d="M367,352.63c-.28.61-.55,1.22-.83,1.83-5.06-11.46-8.12-23.34-9.7-35.43-.65-4.97-1.04-9.98-1.21-15.02-.06-1.63-.09-3.26-.1-4.89,1.97,21.57,5.21,42.6,11.84,53.5Z"/>
      <path class="cls-34" d="M356.61,273.39c-.97,8.58-1.51,17.19-1.45,25.74,1.97,21.57,5.21,42.6,11.84,53.5.5-1.09.99-2.19,1.47-3.29-5.42-30.06,27.13-61-9.87-75.16-.67-.25-1.33-.52-1.99-.79ZM362.93,279.72c11.33,4.03,12.72,24.25,9.19,34.15-.07.19-.14.38-.21.58-.41,1.06-1.53,1.47-2.1,2.48-10.58-4.17-15.08-27.1-11.89-36.09.41-1.15.92-2.57,5-1.12Z"/>
      <path class="cls-27" d="M372.13,313.87c-.07.19-.14.38-.21.58-.41,1.06-1.53,1.47-2.1,2.48-10.58-4.17-15.08-27.1-11.89-36.09.41-1.15.92-2.57,5-1.12,11.33,4.03,12.72,24.25,9.19,34.15Z"/>
      <path class="cls-52" d="M356.9,322.64s.05-.04.07-.07c.98,6.35,2.39,12.64,4.31,18.83-.22,8.24,1.09,14.16-2.26,23.59-7.02,19.71-25.07,31.74-37.06,38.13.09-.64.18-1.27.28-1.91,14.03-8.56,23.38-22.06,28.83-37.37,7.32-20.55,5.4-29.32,5.83-41.2Z"/>
      <path class="cls-42" d="M361.29,341.4c1.36,4.41,2.98,8.77,4.88,13.07-1.1,2.34-2.24,4.66-3.43,6.96-7.49,14.47-16.75,27.85-27.37,39.23,1.02-1.73,1.99-3.5,2.91-5.34-5.23,3.4-10.79,6.72-16.62,9.86.1-.69.2-1.37.3-2.06,11.99-6.39,30.04-18.41,37.06-38.13,3.36-9.43,2.04-15.35,2.26-23.59Z"/>
      <path class="cls-13" d="M356.92,322.2c.02.12.04.25.06.37-.02.02-.05.04-.07.07-13.5,11.82-23.65,37.04-28.96,51.95-.49,1.39-.97,2.78-1.45,4.17.58-2.48,1.19-4.95,1.86-7.4,1.15-4.21,2.42-8.37,3.87-12.44,5.36-15.07,12.99-28.91,24.25-39.89.14,1.06.29,2.11.45,3.16Z"/>
      <path class="cls-55" d="M327.94,374.59c-.49,1.39-.97,2.78-1.45,4.17-1.73,7.42-3.1,14.96-4.24,22.45,14.03-8.56,23.38-22.06,28.83-37.37,7.32-20.55,5.4-29.32,5.83-41.2-13.5,11.82-23.65,37.04-28.96,51.95ZM335.79,359.15c1.92-5.4,9.97-22.75,15.38-20.82,1.49.53,2.55,1.92,2.83,2.63,1.77,4.52-1.89,8.71-.98,12.97-1.9,3.84-9.21,28.97-18.94,25.51-3.7-1.32.4-16.58,1.72-20.29Z"/>
      <path class="cls-2" d="M351.17,338.33c1.49.53,2.55,1.92,2.83,2.63,1.77,4.52-1.89,8.71-.98,12.97-1.9,3.84-9.21,28.97-18.94,25.51-3.7-1.32.4-16.58,1.72-20.29,1.92-5.4,9.97-22.75,15.38-20.82Z"/>
      <path class="cls-11" d="M325.8,381.84c-1.13,5.17-2.11,10.39-2.95,15.6-8.87,13-23.87,19.53-45.55,15.79-8.19-4.1-14.03-9.55-18.3-15.92,5.25,3.39,10.77,6.28,16.08,8.17,33.24,11.83,43.16-6.44,50.72-23.63Z"/>
      <path class="cls-68" d="M322.84,397.44c-.42,2.58-.81,5.17-1.18,7.74-9.03,4.88-18.67,9.34-28.64,13.07-3.07-.38-6.02-1.09-8.82-2.08-2.48-.88-4.77-1.87-6.91-2.94,21.68,3.74,36.68-2.79,45.55-15.79Z"/>
      <path class="cls-24" d="M326.96,376.8c.42-1.73.86-3.45,1.32-5.17-10.04.65-20.04,2.43-30.06,6.09-2.87,1.05-21.73,7.96-34.22,11.67-1.99,1-3.97,2.01-5.96,3.03,4.42,2.24,8.97,4.37,13.54,6,32.19,11.46,38.86-13.24,55.38-21.63ZM309.94,382.49c.76.27.99,1.28,1.68,1.81-7.15,10.74-20.59,17.82-33.11,13.36-2.25-.8-6.95-3.06-6.16-5.3.95-2.66,22.5-15.24,37.58-9.87Z"/>
      <path class="cls-56" d="M264,389.39c13.96-7.05,27.92-13.58,42.41-16.56,2.1-.43,4.2-.79,6.32-1.06,5.12-.66,10.32-.84,15.61-.4-.02.09-.05.18-.07.27-10.04.65-20.04,2.43-30.06,6.09-2.87,1.05-21.73,7.96-34.22,11.67Z"/>
      <path class="cls-18" d="M326.96,376.8c-.41,1.67-.79,3.35-1.16,5.04-7.57,17.2-17.49,35.47-50.72,23.63-5.31-1.89-10.83-4.78-16.08-8.17-.89-1.33-1.72-2.7-2.48-4.1.51-.26,1.02-.52,1.53-.78,4.42,2.24,8.97,4.37,13.54,6,32.19,11.46,38.86-13.24,55.38-21.63Z"/>
      <path class="cls-63" d="M278.51,397.67c-2.25-.8-6.95-3.06-6.16-5.3.95-2.66,22.5-15.24,37.58-9.87.76.27.99,1.28,1.68,1.81-7.15,10.74-20.59,17.82-33.11,13.36Z"/>
      <path class="cls-54" d="M285.03,273.1c-12.33,14.63-31.96,25.8-52.14,27.74-1.6.15-3.19.24-4.79.27,21.3-4.33,40.36-14.36,56.93-28.01Z"/>
      <path class="cls-34" d="M222.77,295.04c-.34,1.99-.67,3.96-1.01,5.9,2.1.17,4.22.22,6.33.17,21.3-4.33,40.36-14.36,56.93-28.01,1.48-1.76,2.87-3.57,4.13-5.42-.66-.25-1.3-.51-1.95-.77-.76.18-1.54.32-2.35.38-46.83,3.63-50.08,14.23-62.08,27.74ZM262.88,276.6c1.73.62,2.51,1.52,1.25,5.04-1.18,3.3-3.78,5.94-6.7,7.39-6.43,3.19-17.35,8.59-22.93,6.6-3.26-1.16-4.47-5.67-3.43-8.59,3.4-9.55,28.78-11.51,31.81-10.44Z"/>
      <path class="cls-61" d="M225.33,279.41c.59-3.73,1.17-7.5,1.73-11.29,13.77-1.74,27.89-5.86,40.7-12.21,1.06.84,2.16,1.64,3.27,2.42-17.99,1.73-37.34,11.17-45.71,21.09Z"/>
      <path class="cls-55" d="M284.85,267.3c-46.83,3.63-50.08,14.23-62.08,27.74.48-2.82.95-5.67,1.42-8.56,11.05-17.06,31.65-26.91,50.03-26.06,4.06,2.52,8.41,4.68,12.98,6.5-.76.18-1.54.32-2.35.38Z"/>
      <path class="cls-47" d="M224.19,286.48c.38-2.34.76-4.7,1.13-7.07,8.37-9.92,27.72-19.36,45.71-21.09,1.04.73,2.1,1.43,3.19,2.1-18.39-.85-38.99,9-50.03,26.06Z"/>
      <path class="cls-27" d="M264.14,281.64c-1.18,3.3-3.78,5.94-6.7,7.39-6.43,3.19-17.35,8.59-22.93,6.6-3.26-1.16-4.47-5.67-3.43-8.59,3.4-9.55,28.78-11.51,31.81-10.44,1.73.62,2.51,1.52,1.25,5.04Z"/>
      <path class="cls-52" d="M317.26,422.2c-25.69,21.68-62.54,25.74-94.64,14.31-10.74-3.82-22.83-10.13-32.56-18.69,1.74,1,3.51,1.93,5.3,2.8,5.75,5.06,11.45,9.91,23.06,14.05,32.57,11.59,69.34,5.42,98.83-12.47Z"/>
      <path class="cls-54" d="M223.97,428.72c22.48,2.62,46.59-2.07,69.05-10.47,9.97-3.73,19.62-8.2,28.64-13.07,5.82-3.14,11.38-6.46,16.62-9.86-.35.7-.72,1.39-1.09,2.08-31.62,21.02-74.25,39.27-113.22,31.33Z"/>
      <path class="cls-2" d="M337.19,397.39c-.59,1.11-1.2,2.2-1.82,3.26-4.4,7.48-9.68,13.92-15.62,19.36-.82.75-1.65,1.48-2.49,2.19-29.49,17.88-66.26,24.06-98.83,12.47-11.62-4.14-17.31-8.99-23.06-14.05,2.68,1.29,5.42,2.44,8.21,3.43,6.57,2.34,13.41,3.86,20.4,4.67,38.97,7.94,81.59-10.31,113.22-31.33Z"/>
      <path class="cls-33" d="M303.96,365.27c-8.11-9.42-13.47-19.3-22.44-27.7.5.37,1,.75,1.5,1.13,9.2,7.11,16.64,16.01,20.94,26.57Z"/>
      <path class="cls-37" d="M265.87,373.95c11.72,4.17,26.05-.81,37.12-1.44,1.15-.06,2.26-.08,3.33-.04.03.12.07.23.1.35-1.66.34-3.31.74-4.96,1.17-14.76,1.48-33.24,10.68-42.19,7.49-8.14-2.9-6.23-16.7-13.08-30.03-.45-3.7-.9-7.41-1.4-11.11,5.63,15.35,8.18,29,21.09,33.59Z"/>
      <path class="cls-36" d="M259.26,381.49c8.95,3.19,27.44-6.01,42.19-7.49-15.3,4-30.06,11.6-44.95,19.2-6.51-12.04-8.49-26.75-10.33-41.73,6.85,13.33,4.94,27.13,13.08,30.03Z"/>
      <path class="cls-8" d="M296.64,321.69c-2.19,4.52-4.89,8.67-8.07,12.11-2.26-.69-4.61-1.42-6.94-2.25-19.56-6.96-24-18.88-20.32-29.21,4.12-11.57,14.22-13.68,31.22-33.48,1.09.35,2.24.7,3.43,1.03,6.2,16.03,5.31,34.9.68,51.79Z"/>
      <path class="cls-33" d="M268.55,328.3c5.18,2.76,9.37,5.9,12.98,9.27-2.92-2.16-6.01-4.14-9.22-5.94-4.9-2.75-10.09-5.09-15.41-6.98-5.21-1.85-10.54-3.29-15.86-4.29-.09-.34-.19-.67-.28-1.01,6.05,1.11,12.03,2.51,17.83,4.58,3.7,1.32,6.99,2.78,9.96,4.37Z"/>
      <path class="cls-32" d="M299.92,270.94c4.05,10.34,6.96,23.19-.42,43.92-.83,2.34-1.79,4.63-2.86,6.84,4.63-16.9,5.51-35.76-.68-51.79,1.28.36,2.6.71,3.96,1.04Z"/>
      <path class="cls-38" d="M268.55,328.3c-2.97-1.58-6.26-3.05-9.96-4.37-5.8-2.07-11.78-3.47-17.83-4.58-1.82-6.57-4.29-12.83-7.87-18.52,2.7-.26,5.39-.69,8.06-1.27-.34.53-.62,1.07-.81,1.62-3.08,8.64,15.44,16.47,28.41,27.11Z"/>
      <path class="cls-11" d="M292.52,268.87c-17,19.8-27.1,21.91-31.22,33.48-3.68,10.33.76,22.25,20.32,29.21,2.33.83,4.68,1.56,6.94,2.25-1.71,1.85-3.56,3.5-5.55,4.89-.49-.38-.99-.76-1.5-1.13-3.6-3.37-7.79-6.51-12.98-9.27-12.98-10.63-31.49-18.47-28.41-27.11.2-.55.47-1.09.81-1.62,19.65-4.25,37.87-16.72,48.21-31.89.47.18.95.35,1.42.52.63.22,1.28.44,1.95.66Z"/>
      <path class="cls-30" d="M347.52,317.67c1.87-5.24,1.77-10.96.48-16.61,1.3.71,2.66,1.34,4.08,1.89,1.05,5.04,1.44,9.98-.27,14.79-3.63,10.19-18.95,28.73-25.06,45.3-2.23,6.04-8.31,6.89-14.47,6.88-.26-1.09-.51-2.18-.75-3.29,18.47-14.18,30.52-33.59,36-48.97Z"/>
      <path class="cls-66" d="M326.75,363.05c6.11-16.57,21.43-35.11,25.06-45.3,1.71-4.81,1.32-9.76.27-14.79.32.12.64.25.97.36.72.26,1.46.49,2.21.7.17,5.03.57,10.04,1.21,15.02-11.26,10.98-18.89,24.82-24.25,39.89-1.45,4.07-2.72,8.22-3.87,12.44-5.29-.44-10.49-.26-15.61.4-.16-.61-.31-1.22-.46-1.83,6.16,0,12.25-.84,14.47-6.88Z"/>
      <path class="cls-10" d="M338.64,322.9c-5.03,14.14-17.4,26.94-28.36,37.09-.14-.85-.26-1.7-.38-2.56,0-.02.02-.05.03-.07,4.64-13.03-4.58-21.63,4.69-47.66,2.88-8.08,6.79-15.89,10.53-23.76.99-1.23,2-2.37,3-3.44,5.92,9.97,18.63,17.56,10.5,40.4Z"/>
      <path class="cls-27" d="M309.93,357.36s-.02.05-.03.07c-2.38-17.2-1.42-35.82,4.25-51.76,2.89-8.1,6.86-14.63,10.99-19.73-3.73,7.87-7.65,15.68-10.53,23.76-9.27,26.04-.05,34.63-4.69,47.66Z"/>
      <path class="cls-35" d="M311.53,366.64c-.47-2.19-.89-4.41-1.25-6.66,10.96-10.15,23.33-22.95,28.36-37.09,8.13-22.84-4.58-30.43-10.5-40.4.57-.61,1.14-1.19,1.7-1.75,4.12,8.49,9.97,15.86,18.17,20.31,1.29,5.65,1.39,11.36-.48,16.61-5.48,15.38-17.53,34.79-36,48.97Z"/>
      <path class="cls-42" d="M293.25,238.37c5.29-5.03,9.89-10.64,13.55-16.82,4.39,5.14,9.12,10.38,14.15,15.45,0,.58,0,1.17.01,1.77-1.72-1.28-3.59-2.32-5.65-3.05-7.03-2.5-14.62-.85-22.05,2.65Z"/>
      <path class="cls-55" d="M320.95,238.77c.13,8.97,1.35,20.42,4.72,31.29.36,1.18.76,2.35,1.18,3.51-.5-.53-.97-1.09-1.42-1.66-7.73-9.93-8.45-25.97-16.31-28.77-4.32-1.54-18.8,5.9-34.86,9.28,6.93-4,13.35-8.69,18.99-14.05,7.44-3.5,15.02-5.15,22.05-2.65,2.06.73,3.93,1.78,5.65,3.05Z"/>
      <path class="cls-34" d="M325.43,271.91c.45.58.92,1.13,1.42,1.66.18.49.35.99.53,1.48-.63-.03-1.27-.07-1.92-.12-.22-.02-.45-.03-.67-.05-9.87-3.18-20.23-4.63-30.05-7.87-.17-.06-.34-.12-.51-.17-.41-.14-.82-.27-1.22-.42-11.23-4-19.13-7.42-24.93-10.69,2.1-1.05,4.16-2.15,6.18-3.32,16.06-3.38,30.54-10.81,34.86-9.28,7.86,2.8,8.58,18.85,16.31,28.77Z"/>
      <path class="cls-9" d="M294.23,266.84c.17.06.34.12.51.17,9.82,3.25,20.18,4.69,30.05,7.87-7.94-.59-17.03-2.04-24.88-3.95-1.36-.33-2.69-.68-3.96-1.04-1.19-.33-2.34-.68-3.43-1.03-.67-.22-1.32-.44-1.95-.66-.48-.17-.95-.35-1.42-.52-7.83-2.93-15.14-6.81-21.39-11.78.11-.05.21-.11.32-.16,5.8,3.27,13.7,6.69,24.93,10.69.41.14.81.28,1.22.42Z"/>
      <path class="cls-34" d="M341.87,262.77c-6.67-8.14-13.96-15.98-19.7-24.55,2.44,2.43,4.94,4.81,7.51,7.12,10.56,13.79,23.29,17.01,23.89,27.65.37,6.53-.55,13.48,1.67,19.66-.1,3.63-.1,7.26.01,10.88-7.57-11.22-1.32-26.02-13.38-40.76Z"/>
      <path class="cls-65" d="M352.49,303.11c-10.59-3.97-17.82-12.39-22.65-22.36-.9-1.85-1.72-3.76-2.45-5.7-4.77-12.53-6.35-26.49-6.44-36.93,2.3,21.61,3.6,44.95,31.54,64.98Z"/>
      <path class="cls-27" d="M322.16,238.22c5.75,8.57,13.04,16.41,19.7,24.55,12.06,14.74,5.81,29.54,13.38,40.76,0,.16,0,.33.01.49-.75-.22-1.49-.45-2.21-.7-.19-.07-.37-.14-.56-.21-27.94-20.03-29.24-43.37-31.54-64.98,0-.38,0-.76,0-1.13.4.41.82.81,1.22,1.22Z"/>
      <path class="cls-20" d="M312.03,368.88c.23.97.46,1.93.71,2.88-.03,0-.06,0-.09.01-7.95-8.72-22.28-32.94-19.26-41.42,1.57-4.41,3.86-7.47,5.82-12.96.89-2.5,1.53-5.07,1.96-7.66,4.59-15.67,3-26.51.02-35.34,18.46,19.75-6.11,60.74,10.85,94.48Z"/>
      <path class="cls-7" d="M293.39,330.36c-3.02,8.49,11.31,32.7,19.26,41.42-2.09.27-4.16.62-6.23,1.05-3.41-13.91-12.08-25.38-23.4-34.13,7.51-5.23,13.01-14.11,16.48-23.85.63-1.76,1.18-3.47,1.66-5.12-.43,2.59-1.07,5.16-1.96,7.66-1.96,5.5-4.25,8.56-5.82,12.96Z"/>
      <path class="cls-60" d="M329.84,280.75c-5.67,5.56-11.71,13.74-15.68,24.91-3.57,10.04-5.28,21.14-5.45,32.28-1.63-14.06,4.16-35.23,5.24-38.26,1.15-3.23,2.55-6.47,3.69-9.66,2.05-5.75,2.7-11.07.87-15.74,3.07.37,6.07.64,8.88.78.74,1.94,1.56,3.84,2.45,5.7Z"/>
      <path class="cls-59" d="M313.94,299.68c-1.08,3.03-6.87,24.21-5.24,38.26-.17,10.57,1.04,21.17,3.33,30.94-16.96-33.74,7.61-74.74-10.85-94.48-.4-1.19-.83-2.34-1.26-3.46,5.83,1.42,12.36,2.59,18.58,3.33,1.83,4.67,1.18,9.99-.87,15.74-1.14,3.19-2.54,6.43-3.69,9.66Z"/>
      <path class="cls-69" d="M348.4,259.76c3.04,1.93,6.14,3.69,9.28,5.24-1.25,8.66-2.09,17.37-2.39,26.05-2.73-4.75,6.69-19.51-6.89-31.29Z"/>
      <path class="cls-55" d="M355.29,291.05c-.02.53-.04,1.07-.06,1.6-2.22-6.18-1.29-13.12-1.67-19.66-.61-10.64-13.34-13.87-23.89-27.65,5.94,5.34,12.21,10.28,18.73,14.42,13.58,11.78,4.16,26.54,6.89,31.29Z"/>
      <path class="cls-26" d="M274.69,362.45c5.58,1.99,16.51,3.19,29.18,7.7.68.24,1.35.49,2.02.75.15.52.3,1.05.43,1.58-1.07-.04-2.18-.03-3.33.04-11.07.63-25.4,5.61-37.12,1.44-12.9-4.59-15.46-18.24-21.09-33.59-.92-6.8-2.03-13.54-3.75-19.99.03,0,.07.01.1.02,5.86,13.89,14.3,35.21,33.55,42.06Z"/>
      <path class="cls-19" d="M272.31,331.64c3.21,1.8,6.29,3.78,9.22,5.94,8.96,8.39,14.33,18.28,22.44,27.7.6,1.48,1.13,2.99,1.61,4.53.09.3.18.6.27.9.02.07.04.13.05.2-.67-.26-1.34-.51-2.02-.75-12.67-4.51-23.6-5.72-29.18-7.7-19.25-6.85-27.69-28.17-33.55-42.06,5.28,1,10.58,2.43,15.76,4.27,5.32,1.89,10.51,4.23,15.41,6.98Z"/>
      <path class="cls-62" d="M307.33,459.63c-28.25,16.7-63.78,15.32-104.33.88-22.58-8.04-43.06-20.59-57.26-37.98,13.62,9.65,23.18,24.43,70.11,41.14,23.78,8.47,62,9.63,91.48-4.03Z"/>
      <path class="cls-43" d="M139.91,414.55c-2.45-3.76-4.63-7.7-6.49-11.85-1.27-1.58-2.2-3.32-2.64-5.29,11.39,9.59,23.75,18.27,36.28,26.3-5.01-1.15-9.53-2.14-16.69-4.69-3.6-1.28-7.12-2.76-10.46-4.46Z"/>
      <path class="cls-43" d="M356.87,391.68c-1.04,2.93-2.12,5.75-3.24,8.5-24.16,17.83-58.1,68.54-134.24,41.43-10.24-3.65-20.24-7.89-30.49-11.53-6.87-2.44-11.8-3.89-15.9-4.95-1.37-2.8-2.63-5.71-3.8-8.71.73-.41,1.44-.84,2.15-1.27.59.18,1.18.37,1.77.58,12.95,4.61,21.29,13.67,43.84,21.7,86.59,30.83,111.9-29.06,145.01-62.57-.33,1.52-.73,3.12-1.21,4.86-.96,3.44-2.25,7.36-3.89,11.96Z"/>
      <path class="cls-71" d="M216.95,437.43c-22.55-8.03-30.89-17.09-43.84-21.7-.59-.21-1.18-.4-1.77-.58,2.64-1.6,5.13-3.31,7.48-5.13,3.6,2.98,7.35,5.57,11.24,7.81,9.73,8.56,21.82,14.86,32.56,18.69,33.15,11.8,71.37,7.09,97.13-16.5,5.94-5.44,11.22-11.89,15.62-19.36,10.62-11.38,19.88-24.76,27.37-39.23.57,4.06.36,8.19-.77,13.44-33.12,33.51-58.43,93.4-145.01,62.57Z"/>
      <path class="cls-50" d="M395.29,279.99c8.29,17.27,11.85,38.19,3.59,61.78-.05.16-.1.31-.16.46-4.96,13.92-12.91,29.65-24.83,35.43,8.33-10.45,18.29-18.46,24.71-36.48,7.06-19.83,4.6-34.83-3.31-61.19Z"/>
      <path class="cls-12" d="M392.37,274.38c-.98,2.14-1.86,4.33-2.66,6.57-8.62,24.21-3.35,35.14-8.09,48.44-2.95,8.28-7.87,16.97-10.96,25.65-2.91,8.16-4.19,16.31-.68,24.1-1.08.3-2.19.52-3.33.65-2.29-3.61-3.19-8.18-1.84-11.96,3.18-8.94,6.7-17.54,9.83-26.33,14.36-40.32,6.79-47.59,14.14-68.23.36-1.01.74-2,1.16-2.97.13.21.27.42.4.64.7,1.13,1.37,2.28,2.03,3.45Z"/>
      <path class="cls-58" d="M370.67,355.04c-2.91,8.16-4.19,16.31-.68,24.1,1.35-.38,2.66-.86,3.92-1.48,8.33-10.45,18.29-18.46,24.71-36.48,7.06-19.83,4.6-34.83-3.31-61.19-.92-1.91-1.9-3.78-2.92-5.61-.98,2.14-1.86,4.33-2.66,6.57-8.62,24.21-3.35,35.14-8.09,48.44-2.95,8.28-7.87,16.97-10.96,25.65ZM374.24,347.46c3.68-10.34,15.1-23.78,19.47-22.23,1.59.57,2.99,2.17,3.41,4.03.24,1.08.22,2.08-.06,3.01-1.68,5.63-2.96,12.47-5.19,18.71-5.61,15.76-15.88,17.95-17.5,17.37-1.34-.48-3.98-10.07-.12-20.9Z"/>
      <path class="cls-25" d="M374.64,341.49c-3.13,8.79-6.64,17.39-9.83,26.33-1.35,3.78-.45,8.36,1.84,11.96-1.89.22-3.85.22-5.9-.07,2.16-7.73,2.71-13.06,1.98-18.29,1.19-2.29,2.33-4.61,3.43-6.96,2.63-5.62,5-11.38,7.08-17.22,4.05-11.36,7.01-23.06,8.73-34.72,1.4-9.48,1.98-18.94,1.66-28.18-.03-.91-.07-1.82-.12-2.72.68-.01,1.37-.04,2.05-.09.87-1.39,1.67-2.83,2.39-4.32.68,1.01,1.34,2.04,1.99,3.08-.41.97-.8,1.97-1.16,2.97-7.35,20.64.21,27.9-14.14,68.23Z"/>
      <path class="cls-64" d="M393.71,325.24c1.59.57,2.99,2.17,3.41,4.03.24,1.08.22,2.08-.06,3.01-1.68,5.63-2.96,12.47-5.19,18.71-5.61,15.76-15.88,17.95-17.5,17.37-1.34-.48-3.98-10.07-.12-20.9,3.68-10.34,15.1-23.78,19.47-22.23Z"/>
      <path class="cls-48" d="M308.54,138.96c.39-.05.78-.11,1.17-.16,12.92,2.29,25.24-.2,30.34,1.61,2.81,1,2.76,2.65,2.35,4.19-.7.5-1.52,1-2.43,1.5-5.19.82-11.15,4.11-20.3.85-3.47-1.24-10.74-4.54-11.13-8Z"/>
      <path class="cls-67" d="M340.05,140.41c-5.1-1.81-17.42.67-30.34-1.61,8.59-1.08,17.34-1.29,26.3-.39,2.82.28,5.65.68,8.51,1.19.51.63.72,1.35.42,2.19-.34.95-1.24,1.9-2.54,2.83.41-1.54.46-3.19-2.35-4.19Z"/>
      <path class="cls-22" d="M322.57,151.72c.76.27,1.52.56,2.27.86-.44.17-.87.35-1.3.52-12.43-4.41-25.43-7.39-38.53-8.9,3.81-1.16,7.64-2.19,11.51-3.07,2.07,2.36,5.36,4.1,8.66,5.27,5.64,2.01,11.67,3.27,17.39,5.31Z"/>
      <path class="cls-51" d="M319.67,146.96c9.15,3.26,15.11-.03,20.3-.85-1.25.68-2.66,1.36-4.18,2.03-2.84,1.26-6.03,2.5-9.17,3.74-2.98-.93-6.03-1.72-8.93-2.76-3.78-1.34-13.07-6.13-11.78-9.76,0,0,.01-.02.01-.03.87-.14,1.74-.26,2.61-.38.39,3.46,7.65,6.76,11.13,8Z"/>
      <path class="cls-28" d="M317.69,149.12c2.9,1.03,5.95,1.83,8.93,2.76-.6.23-1.19.47-1.78.7-.75-.3-1.51-.59-2.27-.86-5.72-2.04-11.75-3.3-17.39-5.31-3.3-1.17-6.59-2.91-8.66-5.27,3.11-.71,6.24-1.31,9.4-1.8,0,0-.01.02-.01.03-1.29,3.62,8,8.41,11.78,9.76Z"/>
      <path class="cls-50" d="M219.39,441.61c-10.24-3.65-20.24-7.89-30.49-11.53-6.87-2.44-11.8-3.89-15.9-4.95.56,1.15,1.14,2.29,1.74,3.4-2.56-1.58-5.12-3.2-7.67-4.83-5.01-1.15-9.53-2.14-16.69-4.69-3.6-1.28-7.12-2.76-10.46-4.46,1.8,2.76,3.75,5.42,5.83,7.98,13.62,9.65,23.18,24.43,70.11,41.14,23.78,8.47,62,9.63,91.48-4.03,18.93-11.19,34.58-30.51,46.3-59.45-24.16,17.83-58.1,68.54-134.24,41.43ZM317.27,434.76c1.49-.84,3.84-.6,5.62.03,1.55.55,2.66,1.4,2.41,2.11-6.43,18.05-42.82,35.15-75.85,23.39-.54-.19-1.07-.39-1.6-.6-1.62-.63-3.51-1.46-4.26-3.33-.18-.46-.17-.92-.02-1.34,0,0,34.94,1.56,73.72-20.26Z"/>
      <path class="cls-62" d="M317.27,434.76c1.49-.84,3.84-.6,5.62.03,1.55.55,2.66,1.4,2.41,2.11-6.43,18.05-42.82,35.15-75.85,23.39-.54-.19-1.07-.39-1.6-.6-1.62-.63-3.51-1.46-4.26-3.33-.18-.46-.17-.92-.02-1.34,0,0,34.94,1.56,73.72-20.26Z"/>
      <path class="cls-65" d="M181.68,479.6c-7.21-3.06-14.32-6.33-21.24-9.83-7.62-3.86-15-8.01-22.03-12.49-20.01-12.75-37.1-28.13-48.33-47.01-1.53-2.57-2.94-5.2-4.24-7.9,28.18,39.07,62.46,64.21,92.88,75.07.98.73,1.97,1.45,2.97,2.16Z"/>
      <path class="cls-33" d="M83.6,397.4c-1.43-3.43-2.69-6.96-3.75-10.6,2.92,3.26,6.07,6.42,9.48,9.47-.02,0-.04,0-.07,0,.02,0,.04,0,.07,0,2.11,1.89,4.32,3.75,6.63,5.56.32-.59.63-1.18.93-1.78.66-1.29,1.28-2.58,1.83-3.78.71.13,1.4.31,2.06.54,0,0,7.69,8.12,20.15,20.07,12.4,17.73,26.89,34.42,43.1,48.68-29.5-24.8-36.93-43.78-63.33-58.36-5.77-3.19-11.61-6.34-17.11-9.81Z"/>
      <path class="cls-50" d="M83.6,397.4c5.5,3.47,11.34,6.62,17.11,9.81,26.39,14.58,33.83,33.55,63.33,58.36,4.74,4.17,9.64,8.14,14.67,11.87-30.41-10.86-64.69-36-92.88-75.07-.79-1.63-1.53-3.29-2.23-4.97Z"/>
      <path class="cls-46" d="M98.73,396.27c1.06-2.3,1.88-4.3,2.3-5.48.42-1.18.8-2.38,1.15-3.57.05-.17.1-.34.15-.51,5.52,10.22,11.74,20.35,18.61,30.17-12.46-11.95-20.15-20.07-20.15-20.07-.66-.23-1.35-.41-2.06-.54Z"/>
      <path class="cls-29" d="M164.93,101.34c-2.12,2.21-4.23,4.47-6.32,6.77-8.96,9.87-17.57,20.47-25.83,31.36-.2-1.41-.44-2.82-.73-4.24-.17-.84-.36-1.68-.56-2.52-.27-1.12-.58-2.23-.92-3.35,9.82,1.44,17.31-13.8,34.36-28.02Z"/>
      <path class="cls-54" d="M178.17,76.4c7.7-4.63,16.07-8.87,24.9-12.44-23.4,12.15-46.84,29.56-62.57,43.29,8.48-9.99,21.64-21.23,37.67-30.85Z"/>
      <path class="cls-13" d="M228.7,56.08c-9.24,3.29-18.24,7.99-26.99,13.78-30.59,16.11-48.78,49.35-70.33,51.37,1.65-4.07,4.77-8.86,9.12-13.97,15.73-13.73,39.17-31.14,62.57-43.29,5.89-2.38,11.99-4.45,18.24-6.12,2.44-.65,4.91-1.25,7.4-1.77Z"/>
      <path class="cls-41" d="M201.72,69.85c-12.86,8.45-25.18,19.25-36.92,31.44-17.11,14.19-24.61,29.43-34.48,27.97-.35-1.14-.73-2.29-1.14-3.44,0-.02-.01-.03-.02-.05.02-.02.04-.04.06-.06.6-1.4,1.2-2.68,1.53-3.6.11-.32.24-.65.38-.98,21.66-1.99,39.87-35.21,70.59-51.28Z"/>
    </g>
  </g>
</svg>