<?xml version="1.0" encoding="UTF-8"?>
<svg id="Layer_2" data-name="Layer 2" xmlns="http://www.w3.org/2000/svg" viewBox="0 0 510.55 454.17">
  <defs>
    <style>
      .cls-1 {
        fill: #dae094;
      }

      .cls-2 {
        fill: #f8e1c6;
      }

      .cls-3 {
        fill: #e3e7a5;
      }

      .cls-4 {
        fill: #f6f6c8;
      }

      .cls-5 {
        fill: #c66446;
      }

      .cls-6 {
        fill: #f0d1b2;
      }

      .cls-7 {
        fill: #f9e6d2;
      }

      .cls-8 {
        fill: #f1d4b7;
      }

      .cls-9 {
        fill: #f8e3d3;
      }

      .cls-10 {
        fill: #f6efe9;
      }

      .cls-11 {
        fill: #e5af82;
      }

      .cls-12 {
        fill: #f1c399;
      }

      .cls-13 {
        fill: #f6e9db;
      }

      .cls-14 {
        fill: #e8eeb3;
      }

      .cls-15 {
        fill: #eab98e;
      }

      .cls-16 {
        fill: #e8eaa4;
      }

      .cls-17 {
        fill: #d28d5b;
      }

      .cls-18 {
        fill: #f6dec4;
      }

      .cls-19 {
        fill: #d6d889;
      }

      .cls-20 {
        fill: #faf7f5;
      }
    </style>
  </defs>
  <g id="flower">
    <g>
      <path class="cls-9" d="M307.48,322.81c-10-7.82-25.2-7.05-33.13,2.5-.7.84-1.31,1.72-1.85,2.64-.04.04-.07.08-.11.13-6.3,7.59-5.19,22.53-20.66,41.14-1.11,1.34-2.27,2.63-3.48,3.87,16.56-41.63.21-56.97-20.78-31.71-5.85,7.03-10.74,15.59-16.23,22.89,7.75-14.23,4.13-36.45-.79-43.11-4.65-6.3-18.13,17.75-23.36,23.72-23.41,26.71-20.91,35.88-3.01,59.66,6.23,8.27,11.8,38.76,17.39,43.4,14.7,12.22,26.94-29.74,52.29-32.47,30.5-3.28,68.22-10.7,87.44-33.84,8.49-10.21,10.43-33.8,6.39-37.41-2.17-1.94-5.21-3.49-8.86-5.07-.93-.37-1.85-.76-2.77-1.17-8.02-3.32-18.3-7.18-28.5-15.16Z"/>
      <path class="cls-6" d="M325.53,110.23c2.06-14.09,4.99-24.34,18.27-42.99-5.04,4.41-9.85,9.31-14.36,14.75-3.04,3.65-5.95,7.4-8.83,11.17,2.56,24.23-3.62,47.62-17.17,63.92-.59.71-1.18,1.4-1.77,2.07,4.74-2.35,9.34-4.95,13.81-7.75-1.94-6.38,7.06-20.66,10.05-41.17Z"/>
      <path class="cls-12" d="M296.05,294.46c-6.12-14.65-12.82-30.63-12.01-51.28,17.35,30.1,18.36,48.22,32.48,61.54-17.06-25.94-18.51-58.21-16.86-70.71,10.53,16.53,22.08,32.8,36.78,45.02,5.63,4.67,11.72,8.75,18.38,12.02-19.79-16.6-37.26-37.32-47.3-61.12,22.75,15.41,50.67,27.27,77.09,35.46-18.57-8.98-37.7-19.38-53.86-32.81-2.15-1.78-4.24-3.63-6.27-5.52,20.37,7.05,36.3,9.86,62.63,9.56-8.73-1.19-17.54-3.45-25.82-6.87-15.59-2.23-31.6-7.15-47.31-13.69-11.64-4.85-23.12-10.58-34.16-16.75.31,7.22,9.73,18.37,14.74,23.94-4.59-2.73-9.01-5.77-13.11-9.17-3.06-2.54-5.93-5.28-8.57-8.25.41,4.06,2.13,10.97,7.82,19.08-1.09-.81-2.15-1.65-3.2-2.52-3.47-2.89-6.71-6.07-9.67-9.49,6.31,20.5,20.77,32.52,11.11,24.5-2.04-1.69-4.02-3.44-5.96-5.24,8.15,21.09,14.17,43.38,23.09,62.29Z"/>
      <path class="cls-12" d="M216.35,339.89c1.99-2.01,3.88-4.11,5.69-6.29,16.88-20.31,26-47.38,26.62-73.77,10.41,28.94,13.15,61.04,6.97,90.77,11.75-29.7,15.26-62.52,10.64-94.1,5.61,15.68,11.93,31.04,19.74,45.62-2.71-11.27-1.11-23.59-.91-35.43-4-11.51-7.83-23.4-12.3-34.92-7.09-6.84-12.11-15.59-16.03-24.76,1.97,13.91.92,28.86-4.33,41.58,2.48-13.37-7.46-27.06-17.6-37.74,1.83,8.79.93,18.27-2.67,26.32-1.16-9.17-3.33-18.61-6.98-27.28,1.08,8.29,1.44,16.58,1.13,24.82,4.89,25.46,2.41,52.51-8.49,75.9,9.11-11.99,16.51-25.58,20.67-40.12-1.12,24.75-8.11,49.45-22.17,69.4Z"/>
      <path class="cls-12" d="M207.44,243.35c-13.94,16.41-31.73,32.3-52.47,37.57,23.16-1.59,45.98-16.32,60.94-34.32,1.28-1.54,2.5-3.11,3.66-4.69-1.56,13.98-7.28,27-15.1,38.67,12.18-15.04,19.41-36.59,21.81-44.55.37-8.01.12-16.06-.82-24.12-1.33,8.08-4.19,15.84-9.45,22.16-.51.62-1.06,1.22-1.62,1.81,2.66-7.23,4.75-15.32,3.35-22.93-1.27,3.66-3.28,7.02-5.77,10.02-.97,1.16-2.01,2.26-3.1,3.31,2.02-4.5,2.63-9.6,1.77-14.41-.34.53-.7,1.04-1.1,1.53-1.63,1.96-3.72,3.5-6.11,4.51.76-1.15,1.28-2.4,1.61-3.71-4.76,1.44-9.53,2.46-14.29,3.13-10.12,5.79-21.51,9.68-32.76,9.07,12.75,3.09,26.3,3.11,39.31.91-17.39,8.72-36.76,15.31-55.74,14.87,20.92,7.77,46.41,11.09,65.89,1.17Z"/>
      <path class="cls-12" d="M278.58,198.63c25.38,14.31,53.18,26.35,79.89,30.7-13.22-5.77-25.25-13.45-36.56-22.19,14.24,5.23,29.12,8.22,44.34,7.82-13.17-3.71-25.45-9.9-37.35-16.95,19.2,3.57,46.5,4.48,78.88-6.6-18.87,0-38.14-1.39-56.32-6.09,18.41-2.99,36.09-11.41,53.05-20.68-8.53,3.09-17.3,5.71-26.17,7.57-9.75,1.41-19.63,2.36-29.53,2.97-7.39-.15-14.75-1.03-22-2.82,26.2-5.5,44.27-25.42,61.79-45.38-19.77,17.36-44.26,30.27-70.69,31.15,10.75-5.67,19.69-13.67,27.39-22.94,7.68-9.24,14.12-19.74,19.91-30.41-2.22,3-4.52,5.94-6.91,8.81-15.63,18.81-34.7,34.66-56.62,45.53-3.95,4.48-7.93,8.11-11.91,11.08,10.59,3.29,21.79,4.14,32.66,1.01-8.01,4.25-18.21,6.68-26.46,2.59,11.7,6.65,24.5,10.42,37.81,11.26-12.85,2.28-26.08,1.12-38.81-1.88.42.38.85.75,1.28,1.11,7.02,5.83,15.35,9.87,23.42,14.24-10.67-1.9-21.21-4.36-31.13-8.72,2.08,2.77,4.51,5.28,7.19,7.51,2.23,1.86,4.64,3.52,7.17,4.99-7.95-2.48-16.15-3.91-24.3-3.68Z"/>
      <path class="cls-13" d="M452.37,132.43c8.42,7,7.65,20.39,3.04,34.56,2.51-4.3,5.4-8.38,8.59-12.22,8.6-10.34,12.36-11.56,19.03-19.59,15.67-18.86,25.02-49.82.67-70.06-25.94-21.56-54.44-16.04-83.36-2.38,9.91-2.62,20.39-3.23,30.53-1.72.37.26.73.52,1.07.8,10.27,8.53,4.43,26.8-3.68,36.56-1.09,1.31-2.15,2.78-3.31,4.17-2.57,3.1-8.61,7.96-13.55,9.7,9.35-1.46,20.43-4.74,29.83-2.56,3.31,3.31,2.29,7.9-.58,11.35-3.66,4.4-12.84,6.98-19.55,15.05-.04.05-.09.11-.13.16,10.29-7.52,21.5-12.05,31.41-3.82Z"/>
      <path class="cls-2" d="M357.85,71.9c38.82-46.71,100.63-36.65,127.81-14.06,9.49,7.89,15.51,17.57,18.56,27.13-.79-8.39-3.31-15.17-5.46-20.5-.55-.7-1.12-1.38-1.72-2.03-.82-.88-1.69-1.72-2.62-2.49-.27-.22-.54-.43-.81-.65-1.82-1.47-3.69-2.88-5.63-4.22-1.25-.86-2.53-1.7-3.83-2.5-.2-.13-.41-.25-.61-.38-2.72-1.66-5.53-3.2-8.44-4.61-2.07-1-4.18-1.93-6.33-2.8-12.05-4.87-25.33-7.66-39.05-8.15-6.3-.22-12.7.03-19.1.8-2.43.29-4.86.66-7.29,1.1-12.55,2.27-25.04,6.53-36.87,12.94-2.75,1.49-5.47,3.09-8.14,4.82-5.01,3.23-9.86,6.88-14.52,10.95-13.28,18.64-16.22,28.9-18.27,42.99-2.99,20.51-11.99,34.79-10.05,41.17,1.32-.82,2.62-1.67,3.91-2.53,11.32-7.54,21.7-16.45,31.04-26.39,2.5-2.66,4.93-5.39,7.28-8.2.19-.23.39-.45.57-.68,2-2.41,3.94-4.87,5.82-7.37-6.06-.43-11.45-1.17-14.99-4.11-9.68-8.04.41-20.23,8.73-30.24Z"/>
      <path class="cls-20" d="M506.55,96.82c.42-4.65.33-9.28-.32-13.7-1.04-7.05-3.49-13.55-7.46-18.66,2.15,5.33,4.67,12.11,5.46,20.5,1.28,4.02,2.05,8.02,2.32,11.86Z"/>
      <path class="cls-20" d="M489.65,133.01c-1.35,2.04-2.8,4.12-4.38,6.25-2.18,2.94-3.81,5.75-3.83,5.77-1.07,1.83-2.17,3.75-3.27,5.69.74-1.1,1.49-2.2,2.26-3.31,1.26-1.84,2.55-3.68,3.87-5.54,3.28-4.61,6.73-9.26,10.36-13.86,1.56-1.97,2.97-4.09,4.24-6.33-1.04,1.17-2.41,2.74-3.65,4.24-1.9,2.29-3.76,4.66-5.61,7.09Z"/>
      <path class="cls-18" d="M366.25,214.97c-4.95.13-9.86-.11-14.73-.66-10.1-1.14-20-3.64-29.61-7.17,11.31,8.74,23.34,16.41,36.56,22.19,15.25,2.49,30.15,2.46,44.04-1.07.92-.23,1.83-.48,2.74-.75,14.83-4.32,28.45-12.8,40.01-26.72,1.81-2.18,3.77-4.89,5.89-8.02,2.65-3.91,5.55-8.49,8.72-13.55,1.27-2.02,2.57-4.11,3.92-6.27,3.05-4.86,6.32-10.05,9.83-15.41,1.47-2.25,2.99-4.53,4.54-6.83,1.1-1.94,2.19-3.85,3.27-5.69.02-.03,1.65-2.83,3.83-5.77,1.58-2.13,3.03-4.21,4.38-6.25-14.07,18.56-26.77,40.84-41.91,59.06-.84,1.02-1.7,2.02-2.56,3.01-.01.01-.03.03-.04.04-.87,1-1.74,1.98-2.62,2.94h0c-2.47,2.7-5,5.27-7.63,7.69,0,0-.02.01-.02.02-.73.67-1.46,1.33-2.21,1.98,0,0-.02.01-.02.02-.74.64-1.48,1.27-2.23,1.89-.04.03-.08.07-.13.1-.73.6-1.46,1.18-2.2,1.76-.02.02-.04.03-.06.05-.75.58-1.5,1.14-2.27,1.69-.08.06-.15.11-.23.16-.73.52-1.46,1.04-2.21,1.53-.03.02-.07.05-.1.07-.76.51-1.53,1-2.31,1.49-.11.07-.22.14-.33.2-.73.45-1.47.89-2.22,1.32-.05.03-.09.05-.14.08-.78.44-1.57.86-2.36,1.28-.14.07-.29.15-.43.22-.75.38-1.5.75-2.26,1.11-.05.03-.11.05-.16.08-.8.37-1.61.72-2.43,1.06-.17.07-.35.14-.52.21-.77.32-1.55.62-2.34.91-.05.02-.1.04-.16.06-.83.3-1.66.58-2.51.85-.2.06-.39.12-.59.18-.82.25-1.64.49-2.48.71-.04,0-.07.02-.11.03-.86.23-1.73.43-2.61.63-.21.05-.43.09-.64.14-.89.19-1.78.36-2.68.51-.84-.57-1.73-1.25-2.72-2.07-4.54-3.77-2.2-9.8,2.35-17.1.79-1.27,1.65-2.58,2.56-3.93,8.05-8.9,27.38-9.89,46.32-32.68,3.28-3.94,6.09-8.18,8.32-12.66-2.76,4.39-5.75,8.75-9.08,12.75-12.66,15.23-26.49,19.64-36.22,18.61,8.15-13.28,13.39-27.81-1.22-39.95-.95-.79-1.98-1.54-3-2.22.48-3.41,2.84-7.75,4.63-9.9,5.63-6.78,22.44-15.12,30.3-18.65-2.18.54-4.84,1.4-7.59,2.1-9.61,4.86-21.97,12.07-31.67,10.03,1.25-5.17,1.14-11.12-5.61-16.73-8.15-6.77-19.33-6.77-28.9-7.44-5.58,10.17-11.78,20.13-19.1,28.94-7.7,9.27-16.64,17.27-27.39,22.94,10.36-.34,20.41-2.54,30.01-6.13,4.52-1.69,8.94-3.69,13.24-5.94,9.85-5.18,19.07-11.73,27.44-19.08-1.47,1.67-2.94,3.34-4.42,5-4.2,4.72-8.47,9.37-12.9,13.75-10.62,10.51-22.22,19.49-36.18,24.32-2.68.92-5.43,1.71-8.29,2.31,1.61.4,3.23.75,4.86,1.06,2.5.48,5.01.85,7.53,1.14,3.17.36,6.35.57,9.54.63.98-.06,1.95-.13,2.93-.19,5.58-.38,11.16-.88,16.7-1.51,3.34-.38,6.67-.8,9.98-1.28,8.87-1.86,17.64-4.48,26.17-7.57-2.73,1.49-5.49,2.96-8.26,4.39-1.59.82-3.19,1.63-4.8,2.42-12.93,6.37-26.26,11.63-39.99,13.87,13.62,3.52,27.86,5.17,42.07,5.79,4.15.18,8.3.26,12.43.28.61,0,1.22.02,1.82.02-.78.27-1.56.52-2.34.77-8.18,2.67-16.02,4.59-23.48,5.89-19.69,3.44-36.7,2.65-50.13.44-1-.16-1.98-.33-2.93-.51,1.67.99,3.36,1.96,5.05,2.92,10.32,5.82,20.98,10.84,32.3,14.03Z"/>
      <path class="cls-20" d="M504.23,84.97c1.16,12.35-1.45,28.18-14.58,48.04,1.84-2.43,3.71-4.81,5.61-7.09,1.24-1.49,2.61-3.06,3.65-4.24,4.24-7.46,6.85-16.18,7.65-24.85-.27-3.84-1.04-7.84-2.32-11.86Z"/>
      <path class="cls-7" d="M398.91,130.44c9.7,2.04,22.05-5.17,31.67-10.03,2.75-.69,5.41-1.56,7.59-2.1-7.86,3.53-24.66,11.87-30.3,18.65-1.79,2.16-4.15,6.49-4.63,9.9,1.02.68,2.05,1.43,3,2.22,14.61,12.14,9.36,26.67,1.22,39.95,9.73,1.03,23.57-3.38,36.22-18.61,3.33-4,6.32-8.36,9.08-12.75-2.23,4.48-5.04,8.72-8.32,12.66-18.93,22.78-38.27,23.77-46.32,32.68-.9,1.35-1.76,2.65-2.56,3.93-4.55,7.3-6.89,13.33-2.35,17.1.98.82,1.88,1.5,2.72,2.07.91-.15,1.8-.33,2.68-.51.22-.05.43-.09.64-.14.88-.19,1.75-.4,2.61-.63.04,0,.07-.02.11-.03.83-.22,1.66-.46,2.48-.71.2-.06.39-.12.59-.18.84-.27,1.68-.55,2.51-.85.05-.02.1-.04.16-.06.79-.29,1.57-.59,2.34-.91.17-.07.35-.14.52-.21.82-.34,1.63-.69,2.43-1.06.05-.02.11-.05.16-.08.76-.36,1.52-.73,2.26-1.11.14-.07.29-.15.43-.22.79-.41,1.58-.84,2.36-1.28.05-.03.09-.05.14-.08.75-.43,1.49-.86,2.22-1.32.11-.07.22-.14.33-.2.78-.48,1.55-.98,2.31-1.49.03-.02.07-.05.1-.07.74-.5,1.48-1.01,2.21-1.53.08-.05.15-.11.23-.16.76-.55,1.52-1.11,2.27-1.69.02-.02.04-.03.06-.05.74-.57,1.48-1.16,2.2-1.76.04-.03.08-.07.13-.1.75-.62,1.49-1.25,2.23-1.89,0,0,.02-.01.02-.02.74-.65,1.48-1.31,2.21-1.98,0,0,.02-.01.02-.02.74-.68,1.47-1.37,2.19-2.08,1.85-1.8,3.66-3.68,5.44-5.62h0c.88-.97,1.76-1.95,2.62-2.94.01-.01.03-.03.04-.04.86-.99,1.71-1.99,2.56-3.01,15.14-18.22,27.84-40.5,41.91-59.06,13.13-19.86,15.74-35.7,14.58-48.04-3.06-9.57-9.07-19.25-18.56-27.13-27.18-22.59-88.99-32.65-127.81,14.06-8.32,10.01-18.41,22.2-8.73,30.24,3.54,2.94,8.93,3.67,14.99,4.11.36-.48.73-.96,1.09-1.45-.27.49-.53.98-.8,1.47,9.58.67,20.75.67,28.9,7.44,6.75,5.61,6.86,11.57,5.61,16.73ZM424.94,102.55c1.15-1.39,2.22-2.86,3.31-4.17,8.11-9.76,13.95-28.03,3.68-36.56-.34-.28-.7-.55-1.07-.8-10.14-1.52-20.62-.9-30.53,1.72,28.93-13.67,57.42-19.18,83.36,2.38,24.35,20.24,15.01,51.2-.67,70.06-6.68,8.03-10.44,9.25-19.03,19.59-3.19,3.84-6.08,7.91-8.59,12.22,4.62-14.17,5.38-27.56-3.04-34.56-9.9-8.23-21.11-3.7-31.41,3.82.04-.05.09-.11.13-.16,6.71-8.07,15.89-10.64,19.55-15.05,2.87-3.45,3.89-8.04.58-11.35-9.4-2.18-20.48,1.1-29.83,2.56,4.93-1.74,10.97-6.6,13.55-9.7Z"/>
      <path class="cls-9" d="M442.52,198.06h0s0,0,0,0Z"/>
      <path class="cls-9" d="M434.89,205.75s-.02.01-.02.02c0,0,.02-.02.02-.02Z"/>
      <path class="cls-9" d="M405.05,223.89c-.2.06-.39.12-.59.18.2-.06.39-.12.59-.18Z"/>
      <path class="cls-9" d="M432.66,207.76s-.02.01-.02.02c0,0,.02-.01.02-.02Z"/>
      <path class="cls-9" d="M407.72,222.99c-.05.02-.1.04-.16.06.05-.02.1-.04.16-.06Z"/>
      <path class="cls-9" d="M410.58,221.87c-.17.07-.35.14-.52.21.17-.07.35-.14.52-.21Z"/>
      <path class="cls-9" d="M401.99,224.79s-.07.02-.11.03c.04,0,.07-.02.11-.03Z"/>
      <path class="cls-9" d="M445.18,195.08s-.03.03-.04.04c.01-.01.03-.03.04-.04Z"/>
      <path class="cls-9" d="M399.27,225.45c-.21.05-.43.09-.64.14.22-.05.43-.09.64-.14Z"/>
      <path class="cls-9" d="M415.86,219.4c-.14.07-.29.15-.43.22.14-.07.29-.15.43-.22Z"/>
      <path class="cls-9" d="M423.32,214.97s-.07.05-.1.07c.03-.02.07-.05.1-.07Z"/>
      <path class="cls-9" d="M430.41,209.67s-.08.07-.13.1c.04-.03.08-.07.13-.1Z"/>
      <path class="cls-9" d="M425.76,213.27c-.08.06-.15.11-.23.16.08-.05.15-.11.23-.16Z"/>
      <path class="cls-9" d="M418.36,218.04s-.09.05-.14.08c.05-.03.09-.05.14-.08Z"/>
      <path class="cls-9" d="M420.91,216.52c-.11.07-.22.14-.33.2.11-.07.22-.14.33-.2Z"/>
      <path class="cls-9" d="M413.16,220.73c-.05.03-.11.05-.16.08.05-.02.11-.05.16-.08Z"/>
      <path class="cls-9" d="M428.08,211.53s-.04.03-.06.05c.02-.02.04-.03.06-.05Z"/>
      <path class="cls-8" d="M442.01,206.01c1.4-1.68,2.79-3.39,4.21-5.1,7.7-9.26,13.89-18.27,24.29-19.3-2.25-3.06-4.5-5.96-6.71-8.65-7.45,11.89-13.56,21.85-18.53,27.83-16.75,20.16-37.78,28.92-60.61,30.13-7.62.41-15.44-.03-23.37-1.16,2.01.83,4.06,1.59,6.13,2.29.45.15.91.3,1.36.44,25.05,2.97,53.7-2.99,73.23-26.49Z"/>
      <path class="cls-7" d="M253.77,415.46c30.5-3.28,68.22-10.7,87.44-33.84,8.49-10.21,10.43-33.8,6.39-37.41-7.13-6.38-23.72-8.57-40.13-21.4-10-7.82-25.2-7.05-33.13,2.5-.7.84-1.31,1.72-1.85,2.64-.04.04-.07.08-.11.13-6.3,7.59-5.19,22.53-20.66,41.14-1.11,1.34-2.27,2.63-3.48,3.87,16.56-41.63.21-56.97-20.78-31.71-5.85,7.03-10.74,15.59-16.23,22.89,7.75-14.23,4.13-36.45-.79-43.11-4.65-6.3-18.13,17.75-23.36,23.72-23.41,26.71-20.91,35.88-3.01,59.66,6.23,8.27,11.8,38.76,17.39,43.4,14.7,12.22,26.94-29.74,52.29-32.47ZM254.85,376.4c6.29-7.57,11.21-16.9,14.8-22.86,1.96-5.18,4.6-10.17,7.69-13.89,12.9-15.52,26.69-10.83,42.61,2.4,1.68,1.4,3.32,2.81,4.94,4.15,9.42,7.83,14.32,21.66,4.16,33.88-21.58,25.97-53.63,16.16-77.08,25.23,4.08-2.51,8.22-5.33,10.98-8.66,5.68-6.84,2.51-14.26.64-15.82-2.75-2.28-9.87,1.31-17.79,4.24,3.37-2.46,6.35-5.42,9.06-8.68Z"/>
      <path class="cls-13" d="M263.59,380.83c1.88,1.56,5.05,8.98-.64,15.82-2.77,3.33-6.9,6.15-10.98,8.66,23.45-9.07,55.5.74,77.08-25.23,10.16-12.22,5.26-26.05-4.16-33.88-1.62-1.35-3.26-2.76-4.94-4.15-15.92-13.23-29.71-17.92-42.61-2.4-3.09,3.72-5.73,8.72-7.69,13.89-3.59,5.95-8.51,15.29-14.8,22.86-2.71,3.26-5.69,6.22-9.06,8.68,7.92-2.94,15.05-6.53,17.79-4.24Z"/>
      <path class="cls-20" d="M351.17,342.53c26.99,9.04,57.89,13.22,70.14,23.4,3.45,2.87,5.98,7.04,8.7,9.3,1.72,1.43,3.76,1.8,5.86,1.46-8.07-1.01-11.11-11.32-19.08-14.99-48.27-22.2-66.98-12.63-95.51-36.34-24.52-20.38-27.99-41.86-35.14-59.53,2.34,10.5,6.23,19.8,9.91,28.61.08.17.16.33.24.5,5.86,12.33,12.98,23.21,22.77,31.34,8.51,7.08,19.91,12.15,32.1,16.24Z"/>
      <path class="cls-8" d="M315.67,325.4c6.19,5.14,12.99,9.33,20.31,12.57.96.4,1.88.78,2.77,1.17,4.03,1.62,8.2,2.97,12.5,4.03-.03-.21-.05-.42-.08-.64-12.19-4.09-23.59-9.16-32.1-16.24-16.8-13.96-25.74-35.98-33.96-59.61-.13,7.7-.85,15.6-.59,23.29,1.65.58,3.13,1.47,4.48,2.59,8.43,7,8.49,17.72,26.68,32.83Z"/>
      <path class="cls-7" d="M56.28,363.61c40.81,33.91,85.72,28.49,122.54-15.83,6.86-8.25,15.28-22.84,16.67-34.69.36-3.05.25-5.93-.47-8.46-.68-5.13-2.33-10.02-6.28-13.3-11.2-9.31-36.26,4.67-64.29,10.47,4.69-3.12,9.22-7.24,13.58-12.48,11.04-13.29,5.81-24.22,1.12-28.12-9.48-7.88-33.53,2.37-48.73-1.28,13.37-.86,29.6-6.89,37.14-15.96,8.91-10.72,1.76-22.45-6.68-29.47-26.69-22.18-83.36-3-97.97,14.58-16.52,19.88-5.77,37.4-7.44,52.2-.08.74-7.79,28.8,5.67,39.99,2.92,2.43,6.58,4.39,9.58,6.89,7.58,6.3,12.95,24.98,25.57,35.46ZM36.64,288.4c15.07-18.13,54.92-26.3,81.69-4.53.02.02.05.04.07.06,4.34,3.6,1.82,11.5-1.5,15.5-6.25,7.52-19.02,9.39-29.07,7.24,32.12,14.93,64.79-12.93,85.42,4.22,2.11,1.75,4.05,4.43,4.6,7.24,6.47,8.1-4.16,25.19-11.24,33.71-26.42,31.79-78.86,27.35-110.43,1.11-20.06-16.67-34.04-47.11-19.55-64.55Z"/>
      <path class="cls-8" d="M171.08,360.9c-6.05,7.28-14.63,15.44-19.74,20.12,4.79-1.97,9.51-4.25,14.14-6.82.69-4.46,2.62-8.91,5.69-12.61,0-.01,1.81-2.11,3.39-4.01,28.55-34.36,49.64-77.23,51.7-121.54-1.58,5.26-5.27,16.43-11.1,27.74,4.29,20.95-24.94,74.07-44.1,97.12Z"/>
      <path class="cls-18" d="M56.96,368.99c29.01,24.11,63.11,24.87,94.38,12.03,5.1-4.68,13.68-12.84,19.74-20.12,19.15-23.04,48.38-76.17,44.1-97.12-3,5.83-6.57,11.7-10.71,16.81,4.02-5.99,7.47-12.34,10.1-18.99,2.49-6.31,4.24-12.88,5.01-19.69-1.16,1.58-2.38,3.15-3.66,4.69-2.42,2.91-5.04,5.73-7.83,8.42-14.51,13.99-33.69,24.56-53.1,25.9,20.74-5.27,38.52-21.17,52.47-37.57-19.48,9.92-44.97,6.59-65.89-1.17,18.98.44,38.35-6.14,55.74-14.87-13.01,2.2-26.56,2.17-39.31-.91,11.25.61,22.63-3.28,32.76-9.07-27.55,3.87-54.83-4.03-80.36-10.46-34.45-8.68-65.69-14.68-90.03,14.6-13.98,16.82-19.85,41.43-15.31,66.47,1,5.49-14.35,21.43,4.08,36.75,7,5.82,16.62,9.66,23.69,15.53,0,0,7.7,15.12,24.15,28.79ZM21.14,321.26c-13.46-11.18-5.75-39.25-5.67-39.99,1.67-14.8-9.08-32.32,7.44-52.2,14.61-17.58,71.28-36.76,97.97-14.58,8.44,7.02,15.59,18.74,6.68,29.47-7.54,9.07-23.77,15.11-37.14,15.96,15.21,3.65,39.25-6.6,48.73,1.28,4.69,3.9,9.93,14.83-1.12,28.12-4.35,5.24-8.89,9.35-13.58,12.48,28.03-5.8,53.09-19.78,64.29-10.47,3.95,3.28,5.6,8.18,6.28,13.3.72,2.54.83,5.41.47,8.46-1.4,11.85-9.82,26.44-16.67,34.69-36.83,44.31-81.73,49.74-122.54,15.83-12.61-10.48-17.99-29.17-25.57-35.46-3-2.49-6.65-4.45-9.58-6.89Z"/>
      <path class="cls-10" d="M159.04,352.8c5.72-6.89,9.85-15.07,11.78-23.65-.94-1.2-2.45-2.65-4.7-4.52-22.83-18.98-55.29,6.13-62.92,15.32-6.26,7.53-11.77,19.96-3.44,26.88,8.91,7.41,38.79,10.61,59.27-14.04Z"/>
      <path class="cls-13" d="M166.62,351.84c7.08-8.52,17.71-25.61,11.24-33.71-.55-2.81-2.49-5.49-4.6-7.24-20.64-17.15-53.31,10.71-85.42-4.22,10.05,2.15,22.82.28,29.07-7.24,3.32-4,5.84-11.89,1.5-15.5-.02-.02-.05-.04-.07-.06-26.78-21.77-66.63-13.6-81.69,4.53-14.49,17.44-.51,47.88,19.55,64.55,31.57,26.24,84.02,30.67,110.43-1.11ZM103.2,339.96c7.63-9.18,40.09-34.29,62.92-15.32,2.25,1.87,3.76,3.32,4.7,4.52-1.93,8.57-6.06,16.76-11.78,23.65-20.48,24.65-50.36,21.45-59.27,14.04-8.33-6.92-2.82-19.35,3.44-26.88Z"/>
      <path class="cls-7" d="M353.07,338.29c72.63,16.64,73.18,32.47,79.59,34.82,17.33,6.37,14.82-38.62,42.46-71.89,10.63-12.79,30.53-12.7,33.91-28.78,2.94-14.01-16.32-55.97-34.84-70.8-26.43-21.15-38.81,34.57-84.7,35.57-2.92.06-3.79.84-3.91,1.79,1.69,8.18,5.78,15.64,13.09,21.71,7.34,6.1,16.72,9.09,26.36,11.14-21.93,1.66-47.69,8.68-77.27-10.08,6.28,15.44,16.73,29.3,29.69,40.06,3.31,2.75,6.78,5.29,10.39,7.61-25.5-11.8-48.6-28.02-61.2-12.86-5.24,6.31-7.62,21.82,4.37,31.79,5.95,4.95,14.2,8.11,22.06,9.91ZM405.89,295.93c11.81-14.21,30.48-14.75,38.52-24.42,1.39-1.67,3.12-3.86,4.14-6.24-12.96,5.94-27.24,3.34-37.11-4.87-3.41-2.84-12.74-11.94-7.61-18.11,1.75-2.11,4.35-4.12,6.84-5.15,27.79-11.52,49.22-36.55,75.61-14.61,11.5,9.55,18.17,25.73,16.54,41.06.06.87.05,1.76-.08,2.61-.22,1.35-.41,2.5-.59,3.49-1.04,2.21-2.39,4.3-3.98,6.21-6.25,7.52-21.75,14.84-35.62,31.54-6.93,8.34-11.1,16.93-17.69,24.85-12.75,15.34-21.37,14.64-31.72,6.03-11.94-9.92-18.32-29.06-7.25-42.39Z"/>
      <path class="cls-13" d="M444.86,332.29c6.59-7.93,10.75-16.51,17.69-24.85,13.88-16.7,29.37-24.02,35.62-31.54,1.59-1.91,2.94-3.99,3.98-6.21.18-.99.37-2.13.59-3.49.14-.85.15-1.74.08-2.61,1.64-15.33-5.04-31.51-16.54-41.06-26.4-21.94-47.82,3.09-75.61,14.61-2.49,1.03-5.09,3.05-6.84,5.15-5.13,6.17,4.2,15.27,7.61,18.11,9.87,8.2,24.15,10.81,37.11,4.87-1.03,2.39-2.75,4.57-4.14,6.24-8.04,9.68-26.72,10.22-38.52,24.42-11.07,13.32-4.69,32.47,7.25,42.39,10.36,8.61,18.97,9.32,31.72-6.03ZM411.81,305.89c6.94-8.35,26.05-17.4,36.4-29.47,6.26-7.29,18.93-9.9,27.19-3.04.66.55,1.29,1.16,1.89,1.83,1.14,1.28,0,3.24.7,4.36-6.37,3.12-11.94,7.23-16.4,12.6-6.24,7.5-11.91,21.38-20.22,31.37-8.59,10.33-15.6,14.62-24.68,7.07-11.75-9.77-7.24-21.89-4.89-24.72Z"/>
      <path class="cls-18" d="M416.79,361.71c7.97,3.66,11.01,13.97,19.08,14.99,2.9-.46,5.9-2.25,8.31-4.51.06-.06.12-.11.18-.16.6-.57,1.16-1.17,1.66-1.78.57-.69,1.11-1.42,1.63-2.19.95-1.41,1.82-2.96,2.64-4.61.34-.69.67-1.39.99-2.12,6.93-15.77,9.68-39.89,23.24-56.2,2.24-2.7,4.43-4.86,6.57-6.64,10.54-8.8,19.63-8.23,25.91-15.78.86-1.04,1.55-2.24,2.09-3.58,1.82-4.53,1.87-10.7.57-17.9-3.98-22.05-20.56-53.7-37.24-77-.64-.89-1.27-1.76-1.9-2.62-10.41,1.03-16.6,10.04-24.29,19.3-1.42,1.7-2.82,3.42-4.21,5.1-19.53,23.5-48.18,29.46-73.23,26.49,5.36,1.72,10.85,2.99,16.33,3.84.67.1,1.33.21,2,.3-.66,0-1.3,0-1.95.01-17.02.1-29.7-1.17-42.25-4.13-6.01-1.42-11.99-3.22-18.42-5.44,1.1,1.03,2.23,2.04,3.36,3.03.96.84,1.93,1.67,2.91,2.49,3.65,3.03,7.45,5.91,11.36,8.65,8.16,5.72,16.81,10.85,25.56,15.56,5.63,3.03,11.31,5.88,16.94,8.6-13.49-4.18-27.36-9.32-40.74-15.4-12.83-5.83-25.21-12.52-36.35-20.07,1.04,2.46,2.16,4.88,3.35,7.27.77,1.54,1.57,3.07,2.4,4.58,6.96,12.74,15.98,24.46,26.17,34.97,4.89,5.05,10.05,9.82,15.38,14.29-6.67-3.27-12.76-7.35-18.38-12.02-8.38-6.97-15.74-15.25-22.46-24.15-5.07-6.71-9.79-13.76-14.31-20.87-.16,1.25-.3,2.7-.39,4.32-.32,5.76-.09,13.7,1.25,22.63,2.05,13.66,6.71,29.64,15.99,43.75-14.12-13.32-15.13-31.45-32.48-61.54-.32,8.23.55,15.71,2.1,22.67,7.16,17.67,10.62,39.15,35.14,59.53,28.53,23.71,47.23,14.14,95.51,36.34ZM326.63,296.59c12.6-15.16,35.7,1.06,61.2,12.86-3.61-2.32-7.08-4.86-10.39-7.61-12.95-10.77-23.4-24.62-29.69-40.06,29.58,18.75,55.34,11.74,77.27,10.08-9.64-2.05-19.02-5.04-26.36-11.14-7.31-6.07-11.4-13.53-13.09-21.71.12-.95.99-1.72,3.91-1.79,45.89-1,58.28-56.73,84.7-35.57,18.53,14.83,37.79,56.8,34.84,70.8-3.38,16.09-23.28,16-33.91,28.78-27.65,33.27-25.14,78.26-42.46,71.89-6.41-2.36-6.96-18.18-79.59-34.82-7.87-1.8-16.11-4.96-22.06-9.91-12-9.97-9.62-25.48-4.37-31.79Z"/>
      <path class="cls-10" d="M441.38,323.55c8.3-9.99,13.98-23.87,20.22-31.37,4.46-5.36,10.02-9.48,16.4-12.6-.69-1.12.44-3.08-.7-4.36-.6-.67-1.23-1.28-1.89-1.83-8.26-6.86-20.93-4.25-27.19,3.04-10.36,12.07-29.47,21.12-36.4,29.47-2.35,2.83-6.86,14.95,4.89,24.72,9.09,7.55,16.1,3.27,24.68-7.07Z"/>
      <path class="cls-18" d="M218.03,445.23c1.89-2.28,3.55-4.93,5.41-7.18,7.67-9.23,16.36-17.92,26.75-19.49,68.88-10.47,72.88-20.79,84.5-27.48,1.87-1.73,3.64-3.57,5.27-5.54,10.4-12.52,13.18-27.59,11.29-42.36-4.3-1.07-8.48-2.41-12.5-4.03,3.65,1.58,6.69,3.13,8.86,5.07,4.04,3.62,2.1,27.2-6.39,37.41-19.23,23.13-56.94,30.55-87.44,33.84-25.35,2.73-37.59,44.69-52.29,32.47-5.58-4.64-11.16-35.13-17.39-43.4-17.9-23.78-20.4-32.95,3.01-59.66,5.23-5.97,18.7-30.02,23.36-23.72,4.92,6.66,8.54,28.88.79,43.11,5.48-7.3,10.38-15.85,16.23-22.89,20.99-25.26,37.34-9.92,20.78,31.71,1.21-1.24,2.37-2.53,3.48-3.87,15.47-18.61,14.35-33.55,20.66-41.14.04-.04.07-.08.11-.13.54-.91,1.15-1.8,1.85-2.64,7.93-9.54,23.13-10.31,33.13-2.5,10.2,7.98,20.47,11.84,28.5,15.16-7.32-3.24-14.12-7.43-20.31-12.57-18.18-15.11-18.25-25.83-26.68-32.83-1.35-1.12-2.83-2.01-4.48-2.59.14,4.13.55,8.2,1.5,12.14-7.81-14.58-14.14-29.94-19.74-45.62,4.62,31.58,1.11,64.4-10.64,94.1,6.18-29.73,3.44-61.83-6.97-90.77-.62,26.39-9.75,53.46-26.62,73.77-1.81,2.18-3.71,4.27-5.69,6.29,14.06-19.96,21.05-44.66,22.17-69.4-4.17,14.54-11.56,28.13-20.67,40.12,10.9-23.39,13.38-50.43,8.49-75.9-1.7,44.79-22.93,88.17-51.76,122.87-1.58,1.9-3.38,4-3.39,4.01-3.07,3.7-5,8.15-5.69,12.61-1.04,6.74.76,13.49,5.77,17.66.2.16.86.67,1.45,1.17,18.05,15,16.84,42.82,28.09,56.78,6.32,1.41,12.88.65,17.22-4.57Z"/>
      <path class="cls-20" d="M257.21,417.91c27.67-3.01,58.43-9.19,77.48-26.83-11.62,6.7-15.62,17.02-84.5,27.48-10.39,1.58-19.08,10.27-26.75,19.49-1.87,2.25-3.52,4.9-5.41,7.18-4.34,5.22-10.9,5.98-17.22,4.57.98,1.22,2.05,2.33,3.24,3.32,9.67,8.03,29.44-32.63,53.16-35.21Z"/>
      <path class="cls-11" d="M262.88,189.32c.29.18.59.36.88.54.79.49,1.59.98,2.39,1.47.27.16.54.33.81.49.83.5,1.66,1.01,2.5,1.5.24.15.49.29.74.44.87.51,1.73,1.03,2.6,1.54.23.14.47.27.7.41.89.52,1.77,1.03,2.67,1.54.23.13.46.26.69.4.58.33,1.16.66,1.75.99,8.15-.23,16.34,1.2,24.29,3.68-2.52-1.47-4.93-3.13-7.17-4.99-2.68-2.23-5.11-4.73-7.19-7.51,9.92,4.36,20.46,6.81,31.13,8.72-8.06-4.36-16.4-8.41-23.42-14.24-.43-.36-.86-.73-1.28-1.11,12.73,3,25.96,4.16,38.81,1.88-13.31-.84-26.11-4.61-37.81-11.26,8.25,4.08,18.44,1.66,26.46-2.59-10.87,3.14-22.07,2.28-32.66-1.01-1.39,1.04-2.78,1.98-4.17,2.86.27.36.57.69.91.97,1.99,1.66,5.12,2.07,7.07,2.18-4.71,1.08-11.97,3.17-14.69,6.45-1.72,2.08-3.6,5.34-3.79,8.05-.11-.1-.22-.19-.33-.28-.54-.45-6.33-3.48-13.97-2.43.69.43,1.38.87,2.08,1.3Z"/>
      <path class="cls-17" d="M257.38,185.85c.76.49,1.52.97,2.28,1.46.31.2.62.39.93.59.07.04.14.09.21.13,7.63-1.05,13.43,1.99,13.97,2.43.11.09.22.19.33.28.19-2.71,2.06-5.98,3.79-8.05,2.72-3.28,9.98-5.37,14.69-6.45-1.94-.11-5.08-.52-7.07-2.18-.34-.28-.64-.61-.91-.97-11.25,7.13-22.32,9.3-32.2,10.2,1.03.67,2.06,1.34,3.1,2.01.29.19.59.37.88.56Z"/>
      <path class="cls-17" d="M247.76,187.32c.5.57,1,1.13,1.49,1.71.33.39.64.8.96,1.19.34.42.69.84,1.03,1.27,3.33-2.05,6.58-3.07,9.55-3.48-.07-.04-.14-.09-.2-.13-.31-.2-.62-.39-.93-.59-.77-.48-1.52-.97-2.28-1.46-.29-.19-.59-.37-.88-.56-1.04-.67-2.08-1.34-3.1-2.01-3.06.28-6,.44-8.8.59.81.83,1.6,1.68,2.38,2.54.27.3.53.61.79.91Z"/>
      <path class="cls-11" d="M267.82,212.91c2.96,3.42,6.2,6.6,9.67,9.49,1.05.87,2.11,1.71,3.2,2.52-5.68-8.1-7.41-15.02-7.82-19.08,2.63,2.96,5.51,5.71,8.57,8.25,4.1,3.41,8.52,6.45,13.11,9.17-5-5.58-14.42-16.72-14.74-23.94-.41-.23-.81-.46-1.22-.69,0,0,0,0-.01,0-.58-.33-1.16-.66-1.73-.99-.23-.13-.46-.26-.69-.4-.89-.51-1.78-1.03-2.67-1.54-.23-.14-.47-.27-.7-.41-.87-.51-1.74-1.02-2.6-1.54-.25-.15-.49-.29-.74-.44-.84-.5-1.67-1-2.5-1.5-.27-.16-.54-.33-.81-.49-.8-.49-1.59-.98-2.39-1.47-.29-.18-.59-.36-.88-.54-.7-.43-1.39-.87-2.08-1.3-2.97.41-6.22,1.44-9.55,3.48.06.08.13.15.19.23.36.46.7.93,1.06,1.4.34.46.69.91,1.03,1.37.37.51.72,1.02,1.08,1.53.3.43.62.86.92,1.3.37.55.73,1.1,1.09,1.66.27.41.55.82.82,1.24.38.59.74,1.19,1.1,1.78.24.39.49.78.73,1.18.38.63.75,1.28,1.12,1.92.21.37.43.73.64,1.1.39.68.76,1.38,1.14,2.07.18.33.37.66.55,1,.39.73.77,1.47,1.15,2.21.16.3.32.6.47.91.39.77.77,1.55,1.15,2.33.13.28.27.55.41.83.39.82.77,1.64,1.15,2.46.11.24.23.49.34.73.39.86.78,1.72,1.16,2.59.09.21.19.42.28.64.4.91.78,1.82,1.17,2.74.07.17.15.34.22.51.4.96.79,1.91,1.18,2.88.05.14.11.27.17.41.4,1,.8,2.01,1.19,3.02.03.08.07.16.1.25h0c.05.13.11.27.16.4,1.94,1.8,3.93,3.55,5.96,5.24,9.66,8.02-4.8-4-11.11-24.5Z"/>
      <path class="cls-15" d="M266.95,191.82c.83.5,1.66,1.01,2.5,1.5-.84-.5-1.67-1-2.5-1.5Z"/>
      <path class="cls-15" d="M263.75,189.86c.79.49,1.59.98,2.39,1.47-.8-.49-1.59-.98-2.39-1.47Z"/>
      <path class="cls-15" d="M259.66,187.3c-.77-.48-1.52-.97-2.28-1.46.76.49,1.52.97,2.28,1.46Z"/>
      <path class="cls-15" d="M273.49,195.71c.89.52,1.77,1.03,2.67,1.54-.89-.51-1.78-1.03-2.67-1.54Z"/>
      <path class="cls-15" d="M278.58,198.63s0,0,.01,0c-.58-.33-1.17-.66-1.75-.99.58.33,1.15.66,1.73.99Z"/>
      <path class="cls-15" d="M260.59,187.89c.07.04.14.09.2.13h0c-.07-.04-.14-.09-.21-.13Z"/>
      <path class="cls-15" d="M270.19,193.76c.87.51,1.73,1.03,2.6,1.54-.87-.51-1.74-1.02-2.6-1.54Z"/>
      <path class="cls-15" d="M253.4,183.28c1.03.67,2.06,1.34,3.1,2.01-1.04-.67-2.08-1.34-3.1-2.01Z"/>
      <path class="cls-15" d="M260.8,188.02h0c.69.43,1.38.87,2.08,1.3-.7-.43-1.39-.87-2.08-1.3Z"/>
      <path class="cls-17" d="M225.83,200.15c6.62-7.96,13.31-7.97,17.1-4.81.48.4,1.11,1.03,1.58,1.78,2.24-2.4,4.5-4.24,6.73-5.61-.34-.43-.68-.85-1.03-1.27-.32-.4-.64-.8-.96-1.19-.49-.58-.99-1.15-1.49-1.71-.26-.3-.52-.61-.79-.91-.78-.86-1.57-1.71-2.38-2.54-2.58.14-5.03.27-7.34.49-5.01,2.9-9.9,6.16-14.42,9.79.58,2.69,1.05,5.39,1.42,8.1.5-.74,1.03-1.45,1.57-2.1Z"/>
      <path class="cls-11" d="M234.86,210.85c10.13,10.68,20.08,24.37,17.6,37.74,5.25-12.71,6.3-27.66,4.33-41.58,3.92,9.17,8.94,17.92,16.03,24.75-.03-.08-.06-.16-.1-.25-.39-1.01-.79-2.02-1.19-3.02-.05-.14-.11-.27-.17-.41-.39-.96-.78-1.92-1.18-2.88-.07-.17-.15-.34-.22-.51-.39-.92-.77-1.83-1.17-2.74-.09-.21-.19-.42-.28-.64-.38-.87-.76-1.73-1.16-2.59-.11-.24-.23-.49-.34-.73-.38-.82-.76-1.65-1.15-2.46-.13-.28-.27-.55-.41-.83-.38-.78-.76-1.56-1.15-2.33-.15-.3-.31-.6-.47-.91-.38-.74-.76-1.48-1.15-2.21-.18-.33-.36-.66-.55-1-.38-.69-.75-1.38-1.14-2.07-.21-.37-.43-.73-.64-1.1-.37-.64-.74-1.28-1.12-1.92-.24-.4-.48-.78-.73-1.18-.37-.6-.73-1.19-1.1-1.78-.27-.42-.55-.83-.82-1.24-.36-.55-.72-1.11-1.09-1.66-.3-.44-.61-.87-.92-1.3-.36-.51-.71-1.03-1.08-1.53-.34-.46-.69-.91-1.03-1.37-.35-.47-.7-.94-1.06-1.4-.06-.08-.13-.15-.19-.23-2.23,1.37-4.49,3.21-6.73,5.61-.47-.76-1.1-1.39-1.58-1.78-3.8-3.15-10.48-3.15-17.1,4.81-.55.66-1.07,1.37-1.57,2.1.2,1.49.38,2.97.51,4.47.14.91.27,1.83.39,2.74.02.14.04.28.06.43,3.65,8.67,5.82,18.12,6.98,27.28,3.6-8.05,4.5-17.54,2.67-26.32Z"/>
      <path class="cls-15" d="M244.59,183.87c.81.83,1.6,1.68,2.38,2.54-.78-.86-1.57-1.71-2.38-2.54Z"/>
      <path class="cls-15" d="M268.5,221.33c.09.21.19.42.28.64-.09-.21-.19-.42-.28-.64Z"/>
      <path class="cls-15" d="M249.25,189.04c-.49-.58-.99-1.15-1.49-1.71.5.57,1,1.13,1.49,1.71Z"/>
      <path class="cls-15" d="M265.45,214.72c.13.28.27.55.41.83-.13-.28-.27-.55-.41-.83Z"/>
      <path class="cls-15" d="M250.21,190.23c.34.42.69.84,1.03,1.27h0c-.34-.43-.68-.85-1.03-1.27Z"/>
      <path class="cls-15" d="M262.14,208.28c.18.33.37.66.55,1-.18-.33-.36-.66-.55-1Z"/>
      <path class="cls-15" d="M267.01,218.01c.11.24.23.49.34.73-.11-.24-.23-.49-.34-.73Z"/>
      <path class="cls-15" d="M260.37,205.12c.21.37.43.73.64,1.1-.21-.37-.43-.73-.64-1.1Z"/>
      <path class="cls-15" d="M271.35,228.09c.05.14.11.27.17.41-.05-.14-.11-.27-.17-.41Z"/>
      <path class="cls-15" d="M269.96,224.7c.07.17.15.34.22.51-.07-.17-.15-.34-.22-.51Z"/>
      <path class="cls-15" d="M263.83,211.49c.16.3.32.6.47.91-.15-.3-.31-.6-.47-.91Z"/>
      <path class="cls-15" d="M256.6,199c.27.41.55.82.82,1.24-.27-.42-.55-.83-.82-1.24Z"/>
      <path class="cls-15" d="M254.6,196.04c.3.43.62.86.92,1.3-.3-.44-.61-.87-.92-1.3Z"/>
      <path class="cls-15" d="M272.71,231.52c.03.08.06.16.1.25h0c-.03-.08-.07-.16-.1-.25Z"/>
      <path class="cls-15" d="M252.49,193.14c.34.46.69.91,1.03,1.37-.34-.46-.69-.91-1.03-1.37Z"/>
      <path class="cls-15" d="M251.24,191.5h0c.06.08.13.15.19.23-.06-.08-.13-.15-.19-.23Z"/>
      <path class="cls-15" d="M258.53,202.03c.24.39.49.78.73,1.18-.24-.4-.48-.78-.73-1.18Z"/>
      <path class="cls-17" d="M220.51,209.09c1.03-2.36,2.29-4.73,3.74-6.84-.37-2.71-.84-5.41-1.42-8.1-4.09,3.29-7.88,6.9-11.16,10.85-.75.91-1.47,1.84-2.16,2.78-.72.97-1.41,1.96-2.07,2.98,4.49-2.72,9.26-4.24,13.07-1.66Z"/>
      <path class="cls-11" d="M208.86,226.28c1.09-1.05,2.13-2.15,3.1-3.31,2.49-2.99,4.5-6.36,5.77-10.02,1.4,7.61-.69,15.69-3.35,22.93.56-.59,1.11-1.19,1.62-1.81,5.26-6.33,8.11-14.08,9.45-22.16-.1-.82-.2-1.63-.3-2.45-.12-.91-.25-1.83-.39-2.74-.13-1.49-.3-2.98-.51-4.47-1.45,2.11-2.71,4.48-3.74,6.84-3.81-2.58-8.58-1.06-13.07,1.66-.71,1.09-1.38,2.19-2,3.33-.14.04-.27.07-.41.12-.33,1.31-.85,2.56-1.61,3.71,2.39-1.01,4.48-2.56,6.11-4.51.4-.48.76-1,1.1-1.53.86,4.82.25,9.91-1.77,14.41Z"/>
      <path class="cls-15" d="M225.15,209.46c-.12-.91-.25-1.83-.39-2.74.14.91.27,1.83.39,2.74Z"/>
      <path class="cls-16" d="M258.33,375.34c.47.12.94.23,1.43.32,22.18-44.07,21-144.01-7.8-199.84-.71.05-1.41.12-2.11.19,2.77,17.82,20.16,53.47,22.63,87.72,2.1,29.05.95,79.54-14.15,111.61Z"/>
      <path class="cls-1" d="M258.33,375.34c15.09-32.08,16.25-82.57,14.15-111.61-2.48-34.25-19.87-69.9-22.63-87.72-1.56.17-3.11.41-4.65.7-1.73,14.64,17.35,54.95,23.07,85.27,3.49,18.49,3.68,37.51.48,55.71-.76,19.67-4.19,39.07-10.88,57.52.15.05.31.08.47.12Z"/>
      <path class="cls-19" d="M268.26,261.98c-5.72-30.32-24.8-70.63-23.07-85.27-3.35.65-6.63,1.6-9.77,2.91,21.26,41.06,35.16,90.35,33.32,138.08,3.19-18.2,3.01-37.22-.48-55.71Z"/>
      <g>
        <path class="cls-3" d="M261.63,385.42c.85.8,2.85,1.17,3.68.27.59-.63.69-1.89-.21-2.74-.24-.23-.78-.49-1.36-.68-.61.41-1.17.92-1.6,1.38-.38.41-.69.81-.92,1.22.1.17.21.34.34.47.02.02.05.05.07.07Z"/>
        <path class="cls-14" d="M261.88,388.09s.06.05.09.07c1.54.72,2.78.54,3.19.1.22-.24.47-.45.69-.68,1.24-1.33,1.66-3.68,1.52-5.4-.01-.01-.02-.03-.03-.04-1.1-1.02-2.45-.63-3.6.14.58.19,1.12.45,1.36.68.91.85.8,2.11.21,2.74-.84.9-2.83.52-3.68-.27-.02-.02-.05-.05-.07-.07-.13-.13-.24-.29-.34-.47-.57,1.04-.55,2.09.66,3.21Z"/>
        <path class="cls-4" d="M265.85,387.58c-.22.24-.47.45-.69.68-.41.45-1.65.62-3.19-.1,2.31,2.05,4.97.57,5.96-.49.22-.24.4-.53.46-.81.37-1.57.14-3.57-1.02-4.69.14,1.72-.29,4.07-1.52,5.4Z"/>
      </g>
      <g>
        <path class="cls-3" d="M255.23,389.56c-.47.51-.69,1.2-.74,1.91.05.06.09.12.14.17.57.53,1.77.81,2.37.17.41-.44.92-1.61,1.03-2.52-.81-.62-2.1-.48-2.8.27Z"/>
        <path class="cls-4" d="M254.62,392.8s-.05-.06-.08-.08c.14.88.47,1.64.78,1.93.82.76,2.95.33,3.98-.78h0c.51-.55.09-2.14-.43-3.3-.01.96-.25,2.03-.73,2.55-1.05,1.12-2.78.37-3.53-.33Z"/>
        <path class="cls-14" d="M254.63,391.65c-.05-.05-.09-.12-.14-.17-.03.42,0,.84.06,1.25.03.02.05.06.08.08.75.69,2.48,1.45,3.53.33.48-.52.72-1.59.73-2.55-.25-.55-.52-1-.73-1.19-.04-.04-.09-.06-.13-.1-.11.92-.62,2.09-1.03,2.52-.6.65-1.8.36-2.37-.17Z"/>
      </g>
      <g>
        <path class="cls-14" d="M249.65,384.11c.79.74,2.98.47,4.48-.7.11-.47.15-1.03.11-1.6-.28.35-.62.7-.72.83-.01.01-.02.03-.03.04-.35.38-1.43.43-2.22-.3-1.05-.97-.5-2.44.43-3.44.14-.15.31-.29.48-.43-.6-.19-1.34-.02-2.28.99,0,0,0,0,0,.01-.63,2.21-.61,4.25-.24,4.6Z"/>
        <path class="cls-4" d="M250.51,385.68c1.02-.16,1.98-.42,2.8-.91.12-.07.23-.16.33-.26.21-.22.38-.62.49-1.1-1.51,1.18-3.69,1.44-4.48.7-.37-.35-.39-2.39.24-4.6-1.48,1.6-2.14,4.4-.65,5.79.34.32.76.47,1.28.39Z"/>
        <path class="cls-3" d="M251.27,382.37c.78.73,1.86.68,2.22.3.01-.01.02-.02.03-.04.11-.13.44-.48.72-.83-.07-.99-.4-2.02-1.13-2.7-.27-.26-.58-.49-.94-.6-.17.13-.34.27-.48.43-.93,1-1.48,2.46-.43,3.44Z"/>
      </g>
      <g>
        <path class="cls-14" d="M255.2,373.13c.7.65,2.74,1,4.76.86,0-.65-.16-1.59-.49-2.57-.17.32-.36.64-.63.93-.03.03-.06.06-.09.1-.59.63-1.97.3-2.67-.36-.63-.59-1.49-2.33-.14-3.78.14-.15.37-.32.66-.5-.43-.12-.87-.1-1.3.07-.92,1.81-1.33,4.1-.09,5.25Z"/>
        <path class="cls-4" d="M259.55,374.92c.1-.05.18-.11.24-.17.11-.12.16-.39.16-.75-2.02.13-4.06-.21-4.76-.86-1.24-1.15-.83-3.44.09-5.25-.32.13-.64.33-.93.64-.92.99-2.01,4.03-.39,5.54,1.08,1,1.98,1.16,3.07,1.26.91.08,1.76-.04,2.52-.39Z"/>
        <path class="cls-3" d="M256.07,372.09c.71.66,2.09.99,2.67.36.03-.03.06-.07.09-.1.27-.29.47-.61.63-.93-.37-1.1-.95-2.23-1.74-2.97-.34-.32-.73-.54-1.13-.64-.29.18-.52.36-.66.5-1.36,1.45-.49,3.19.14,3.78Z"/>
      </g>
      <g>
        <path class="cls-3" d="M268.55,367.05c-.53,1.5.07,4.19,1.64,4.75,1.1.39,2.74-.15,3.31-1.74.15-.42.19-1.24.11-2.07-.84-.54-1.78-.97-2.59-1.26-.71-.26-1.39-.42-2.02-.48-.16.22-.31.45-.4.68-.02.04-.03.08-.05.12Z"/>
        <path class="cls-14" d="M265.34,368.8c-.02.05-.03.1-.04.15-.07,2.32.82,3.77,1.6,4.04.41.15.81.34,1.22.49,2.33.83,5.5.1,7.57-1.01,0-.02.02-.04.03-.06.69-1.93-.53-3.4-2.11-4.43.08.83.04,1.65-.11,2.07-.57,1.59-2.21,2.14-3.31,1.74-1.57-.56-2.18-3.25-1.64-4.75.01-.04.03-.08.05-.12.1-.23.24-.46.4-.68-1.6-.16-2.91.44-3.66,2.55Z"/>
        <path class="cls-4" d="M268.12,373.49c-.41-.15-.81-.34-1.22-.49-.78-.28-1.67-1.73-1.6-4.04-1.32,3.99,1.97,6.53,3.83,7.19.41.15.87.21,1.26.14,2.16-.38,4.54-1.75,5.31-3.8-2.07,1.1-5.25,1.84-7.57,1.01Z"/>
      </g>
      <g>
        <path class="cls-3" d="M260.75,357.08c-.89-.32-1.87-.21-2.79.11-.04.09-.11.18-.14.27-.36,1-.07,2.65,1.07,3.05.77.27,2.5.29,3.71-.08.34-1.35-.53-2.89-1.84-3.36Z"/>
        <path class="cls-4" d="M256.38,358.07s.04-.09.06-.14c-1.02.65-1.79,1.47-1.99,2.02-.51,1.43,1.18,3.87,3.12,4.56h0c.97.35,2.73-1.04,3.89-2.32-1.2.5-2.67.78-3.58.46-1.97-.7-1.96-3.28-1.49-4.59Z"/>
        <path class="cls-14" d="M257.82,357.45c.03-.09.1-.18.14-.27-.54.19-1.06.45-1.53.75-.02.05-.04.09-.06.14-.47,1.31-.48,3.88,1.49,4.59.91.32,2.38.04,3.58-.46.55-.61.97-1.19,1.1-1.55.02-.07.03-.14.05-.21-1.21.36-2.94.35-3.71.08-1.13-.4-1.42-2.05-1.07-3.05Z"/>
      </g>
      <g>
        <path class="cls-14" d="M260.31,349.58c-.5,1.39,1.01,3.98,3.3,5.23.65-.12,1.37-.37,2.06-.73-.59-.16-1.21-.39-1.43-.45-.02,0-.04-.01-.07-.02-.67-.24-1.31-1.56-.82-2.93.65-1.83,2.79-1.94,4.53-1.31.27.1.53.22.79.37-.09-.85-.7-1.69-2.46-2.32,0,0-.01,0-.02,0-3.11.41-5.65,1.52-5.88,2.18Z"/>
        <path class="cls-4" d="M258.81,351.51c.76,1.19,1.6,2.24,2.65,3.02.16.12.33.2.51.27.39.14.98.14,1.64.02-2.29-1.25-3.79-3.84-3.3-5.23.23-.66,2.78-1.77,5.88-2.18-2.8-.99-6.65-.31-7.59,2.3-.22.6-.18,1.2.2,1.81Z"/>
        <path class="cls-3" d="M263.35,350.67c-.49,1.37.15,2.7.82,2.93.02,0,.04.01.07.02.22.06.84.29,1.43.45,1.2-.62,2.31-1.59,2.77-2.86.17-.48.29-.99.24-1.49-.26-.14-.52-.27-.79-.37-1.75-.62-3.88-.52-4.53,1.31Z"/>
      </g>
      <g>
        <path class="cls-14" d="M274.33,355.65c-.44,1.23.23,3.96,1.49,6.41.81-.34,1.91-1.06,2.95-1.99-.49-.03-1-.11-1.51-.29-.06-.02-.11-.04-.17-.06-1.1-.39-1.43-2.3-.99-3.54.39-1.1,2.1-3.12,4.65-2.21.26.09.6.29.99.55-.09-.6-.35-1.15-.79-1.59-2.76-.17-5.84.55-6.62,2.72Z"/>
        <path class="cls-4" d="M274.44,362.06c.12.1.23.17.35.21.2.07.57-.01,1.03-.21-1.25-2.45-1.92-5.19-1.49-6.41.77-2.17,3.86-2.89,6.62-2.72-.33-.34-.76-.62-1.3-.81-1.73-.62-6.12-.34-7.13,2.49-.67,1.89-.39,3.1.08,4.51.39,1.19,1,2.19,1.85,2.94Z"/>
        <path class="cls-3" d="M276.09,356.18c-.44,1.24-.11,3.14.99,3.54.06.02.12.04.17.06.51.18,1.01.26,1.51.29,1.18-1.06,2.28-2.39,2.78-3.78.21-.6.28-1.2.19-1.76-.38-.26-.73-.46-.99-.55-2.55-.91-4.26,1.11-4.65,2.21Z"/>
      </g>
      <g>
        <path class="cls-3" d="M265.3,338.47c-1.5.69-4.33.31-5.06-1.27-.51-1.1-.09-2.84,1.5-3.57.42-.19,1.27-.31,2.13-.3.64.82,1.16,1.75,1.53,2.56.33.71.56,1.4.68,2.05-.22.19-.44.36-.67.48-.04.02-.08.04-.12.06Z"/>
        <path class="cls-14" d="M263.78,341.95c-.05.02-.1.04-.15.06-2.39.28-3.97-.51-4.32-1.29-.19-.41-.43-.81-.62-1.22-1.07-2.33-.6-5.67.35-7.91.02-.01.04-.03.06-.04,1.93-.88,3.56.24,4.77,1.78-.86,0-1.7.11-2.13.3-1.59.73-2.01,2.47-1.5,3.57.72,1.57,3.56,1.96,5.06,1.27.04-.02.08-.04.12-.06.23-.12.45-.29.67-.48.31,1.64-.19,3.04-2.31,4.01Z"/>
        <path class="cls-4" d="M258.69,339.5c.19.41.43.81.62,1.22.36.78,1.94,1.57,4.32,1.29-4,1.72-6.92-1.44-7.77-3.3-.19-.41-.3-.88-.26-1.29.2-2.27,1.39-4.85,3.45-5.83-.95,2.24-1.42,5.59-.35,7.91Z"/>
      </g>
      <g>
        <path class="cls-14" d="M280.25,345.16c-1.39.64-4.2-.68-5.7-2.93.07-.68.26-1.45.56-2.2.22.6.51,1.22.6,1.44,0,.02.02.04.03.07.31.67,1.73,1.21,3.11.58,1.83-.84,1.75-3.05.95-4.8-.12-.27-.28-.53-.45-.78.89.02,1.81.57,2.62,2.34,0,0,0,.01,0,.02-.14,3.25-1.06,5.97-1.72,6.28Z"/>
        <path class="cls-4" d="M278.4,346.89c-1.29-.67-2.46-1.44-3.36-2.46-.13-.15-.24-.32-.32-.5-.18-.39-.23-1-.16-1.69,1.5,2.25,4.31,3.57,5.7,2.93.66-.3,1.58-3.03,1.72-6.28,1.28,2.81.92,6.85-1.69,8.05-.6.28-1.23.29-1.88-.05Z"/>
        <path class="cls-3" d="M278.85,342.12c-1.37.63-2.8.09-3.11-.58,0-.02-.02-.04-.03-.07-.09-.22-.38-.84-.6-1.44.54-1.3,1.43-2.53,2.71-3.12.48-.22,1-.39,1.52-.38.17.25.33.51.45.78.8,1.75.89,3.96-.95,4.8Z"/>
      </g>
      <g>
        <path class="cls-14" d="M281.53,328.06c-1.23.56-4.12.12-6.76-.95.28-.87.92-2.07,1.79-3.23.08.51.2,1.02.44,1.53.03.06.05.11.08.17.51,1.1,2.5,1.27,3.74.7,1.1-.51,3.03-2.46,1.86-5.01-.12-.26-.35-.6-.66-.97.63.03,1.22.25,1.72.67.43,2.84-.04,6.09-2.21,7.08Z"/>
        <path class="cls-4" d="M274.9,328.52c-.12-.11-.2-.22-.25-.34-.09-.2-.04-.59.12-1.08,2.64,1.07,5.53,1.52,6.76.95,2.17-1,2.64-4.25,2.21-7.08.38.31.71.73.96,1.27.8,1.73.91,6.29-1.93,7.59-1.89.87-3.17.68-4.67.33-1.26-.3-2.35-.83-3.2-1.64Z"/>
        <path class="cls-3" d="M280.82,326.28c-1.24.57-3.24.4-3.74-.7-.03-.06-.05-.12-.08-.17-.23-.51-.36-1.02-.44-1.53.99-1.31,2.26-2.57,3.65-3.21.6-.28,1.22-.39,1.81-.36.3.37.54.71.66.97,1.17,2.55-.76,4.5-1.86,5.01Z"/>
      </g>
      <g>
        <path class="cls-3" d="M265.2,315.73c.05,2.24-1.95,5.58-4.31,5.64-1.65.04-3.6-1.42-3.66-3.8-.01-.64.3-1.75.77-2.82,1.37-.36,2.81-.51,4.03-.54,1.07-.03,2.05.05,2.93.25.12.37.21.74.24,1.09,0,.06,0,.13,0,.19Z"/>
        <path class="cls-14" d="M268.73,319.5c0,.08,0,.15,0,.22-.93,3.13-2.77,4.68-3.94,4.71-.62.01-1.24.1-1.86.11-3.49.08-7.42-2.31-9.7-4.7,0-.03-.01-.07-.01-.1-.07-2.89,2.22-4.32,4.79-5-.47,1.08-.78,2.19-.77,2.82.06,2.39,2.01,3.84,3.66,3.8,2.36-.06,4.36-3.39,4.31-5.64,0-.06,0-.13,0-.19-.03-.35-.12-.72-.24-1.09,2.22.5,3.7,1.87,3.78,5.05Z"/>
        <path class="cls-4" d="M262.93,324.55c.62-.01,1.24-.1,1.86-.11,1.17-.03,3.01-1.58,3.94-4.71,0,5.93-5.53,7.87-8.32,7.94-.62.01-1.26-.1-1.75-.37-2.73-1.47-5.31-4.35-5.44-7.45,2.29,2.4,6.22,4.79,9.7,4.7Z"/>
      </g>
      <g>
        <path class="cls-3" d="M281.2,304.07c1.34-.03,2.6.55,3.69,1.38.02.14.06.28.07.43.04,1.5-1.09,3.58-2.78,3.62-1.15.03-3.48-.73-4.94-1.75.14-1.96,1.99-3.63,3.96-3.68Z"/>
        <path class="cls-4" d="M286.63,307.34c0-.07-.02-.14-.02-.21,1.08,1.33,1.75,2.76,1.77,3.59.05,2.15-3.29,4.66-6.2,4.73h0c-1.45.03-3.19-2.6-4.18-4.83,1.39,1.2,3.24,2.23,4.6,2.2,2.95-.07,4.07-3.53,4.03-5.49Z"/>
        <path class="cls-14" d="M284.96,305.88c0-.14-.05-.28-.07-.43.64.49,1.22,1.07,1.72,1.68,0,.07.02.15.02.21.05,1.96-1.08,5.42-4.03,5.49-1.36.03-3.21-1-4.6-2.2-.47-1.06-.77-2.03-.79-2.57,0-.1.02-.2.03-.31,1.46,1.02,3.79,1.77,4.94,1.75,1.7-.04,2.82-2.12,2.78-3.62Z"/>
      </g>
      <g>
        <path class="cls-14" d="M286.47,295.46c.06,2.4-3.6,5.63-7.77,6.4-.94-.52-1.93-1.27-2.82-2.18,1,.05,2.07.02,2.45.03.04,0,.07,0,.11,0,1.15-.03,2.82-1.75,2.77-4.12-.07-3.17-3.32-4.42-6.33-4.35-.47.01-.94.07-1.41.16.58-1.27,1.94-2.25,5-2.32.01,0,.02,0,.03,0,4.6,2.22,7.96,5.25,7.98,6.38Z"/>
        <path class="cls-4" d="M287.8,299.2c-1.77,1.45-3.61,2.65-5.64,3.31-.3.1-.61.15-.92.16-.68.02-1.59-.29-2.54-.81,4.17-.76,7.83-3.99,7.77-6.4-.03-1.14-3.39-4.16-7.98-6.38,4.84-.1,10.45,2.93,10.56,7.44.02,1.04-.34,1.95-1.24,2.69Z"/>
        <path class="cls-3" d="M281.2,295.58c.06,2.37-1.61,4.09-2.77,4.12-.04,0-.07,0-.11,0-.37-.01-1.45.02-2.45-.03-1.54-1.58-2.76-3.64-2.81-5.84-.02-.83.05-1.68.39-2.43.47-.09.95-.15,1.41-.16,3.02-.07,6.26,1.18,6.33,4.35Z"/>
      </g>
      <g>
        <path class="cls-14" d="M259.32,295.46c.04,1.84-2.07,5.21-4.83,7.94-.93-.82-2.09-2.26-3.07-3.98.68.17,1.38.29,2.15.28.08,0,.17,0,.26,0,1.65-.04,2.94-2.44,2.89-4.3-.04-1.65-1.44-5.11-5.26-5.02-.38,0-.94.12-1.56.3.38-.76.97-1.38,1.76-1.79,3.78.99,7.59,3.33,7.67,6.58Z"/>
        <path class="cls-4" d="M256.33,304c-.2.09-.38.13-.56.13-.3,0-.76-.27-1.29-.73,2.76-2.73,4.88-6.1,4.83-7.94-.08-3.25-3.89-5.59-7.67-6.58.59-.3,1.29-.49,2.11-.51,2.6-.06,8.36,2.25,8.46,6.5.07,2.83-.86,4.33-2.1,6.01-1.05,1.42-2.31,2.49-3.78,3.12Z"/>
        <path class="cls-3" d="M256.72,295.39c.04,1.86-1.24,4.26-2.89,4.3-.09,0-.17,0-.26,0-.77.02-1.47-.1-2.15-.28-1.11-1.94-2-4.22-2.04-6.3-.02-.9.16-1.73.52-2.45.63-.18,1.18-.29,1.56-.3,3.82-.09,5.22,3.37,5.26,5.02Z"/>
      </g>
      <g>
        <path class="cls-3" d="M284.45,273.94c-.62,1.73.08,4.83,1.9,5.48,1.27.45,3.16-.18,3.82-2.01.17-.49.22-1.43.13-2.39-.97-.63-2.05-1.11-2.99-1.45-.82-.29-1.6-.49-2.33-.56-.19.26-.35.52-.46.78-.02.05-.04.1-.06.14Z"/>
        <path class="cls-14" d="M280.75,275.96c-.02.06-.03.12-.05.17-.08,2.67.95,4.35,1.85,4.67.48.17.94.4,1.41.57,2.68.96,6.35.11,8.74-1.16,0-.03.03-.05.04-.07.79-2.22-.61-3.92-2.44-5.11.09.96.05,1.9-.13,2.39-.66,1.84-2.54,2.47-3.82,2.01-1.82-.65-2.51-3.75-1.9-5.48.02-.05.04-.1.06-.14.11-.26.28-.53.46-.78-1.85-.18-3.35.5-4.23,2.95Z"/>
        <path class="cls-4" d="M283.96,281.37c-.48-.17-.94-.4-1.41-.57-.9-.32-1.93-1.99-1.85-4.67-1.52,4.6,2.27,7.53,4.42,8.3.48.17,1.01.24,1.45.16,2.5-.44,5.24-2.02,6.13-4.39-2.39,1.27-6.05,2.12-8.74,1.16Z"/>
      </g>
      <g>
        <path class="cls-3" d="M266.74,301.71c-1.03-.37-2.16-.24-3.22.12-.05.11-.12.2-.16.31-.41,1.15-.08,3.06,1.23,3.52.89.32,2.89.33,4.28-.09.39-1.56-.61-3.33-2.13-3.87Z"/>
        <path class="cls-4" d="M261.69,302.85c.02-.05.05-.11.07-.16-1.18.75-2.07,1.69-2.3,2.33-.59,1.65,1.36,4.46,3.6,5.26h0c1.12.4,3.15-1.2,4.49-2.67-1.39.58-3.08.9-4.13.53-2.27-.81-2.26-3.78-1.72-5.29Z"/>
        <path class="cls-14" d="M263.35,302.14c.04-.11.11-.21.16-.31-.62.22-1.22.52-1.76.86-.02.05-.05.11-.07.16-.54,1.51-.55,4.48,1.72,5.29,1.05.37,2.75.05,4.13-.53.64-.7,1.12-1.37,1.27-1.79.03-.08.04-.16.06-.25-1.39.42-3.39.41-4.28.09-1.31-.47-1.64-2.37-1.23-3.52Z"/>
      </g>
      <g>
        <path class="cls-14" d="M249.7,272.83c-.08,1.7,2.46,4.04,5.41,4.64.68-.35,1.39-.87,2.03-1.5-.71.02-1.47-.02-1.73-.01-.03,0-.05,0-.08,0-.82-.04-1.97-1.28-1.9-2.96.1-2.24,2.41-3.08,4.55-2.99.33.01.66.07,1,.14-.39-.91-1.34-1.62-3.5-1.72,0,0-.02,0-.02,0-3.29,1.5-5.71,3.6-5.75,4.4Z"/>
        <path class="cls-4" d="M248.7,275.46c1.24,1.05,2.52,1.93,3.95,2.43.21.07.43.11.65.12.48.02,1.13-.18,1.81-.54-2.94-.6-5.49-2.94-5.41-4.64.04-.8,2.46-2.9,5.75-4.4-3.43-.14-7.44,1.92-7.59,5.11-.03.74.21,1.39.84,1.92Z"/>
        <path class="cls-3" d="M253.42,272.99c-.07,1.68,1.08,2.92,1.9,2.96.03,0,.05,0,.08,0,.26,0,1.02.04,1.73.01,1.11-1.1,2.01-2.54,2.08-4.1.03-.59-.01-1.19-.24-1.73-.33-.07-.67-.12-1-.14-2.14-.1-4.45.74-4.55,2.99Z"/>
      </g>
      <g>
        <path class="cls-14" d="M263.31,280.43c-.51,1.42.27,4.57,1.71,7.4.93-.4,2.2-1.22,3.4-2.3-.57-.04-1.15-.13-1.74-.34-.07-.02-.13-.05-.2-.07-1.27-.45-1.65-2.65-1.14-4.08.45-1.27,2.43-3.6,5.37-2.55.3.11.7.33,1.14.64-.1-.69-.4-1.32-.91-1.84-3.19-.2-6.74.63-7.64,3.14Z"/>
        <path class="cls-4" d="M263.44,287.83c.13.12.27.2.4.24.23.08.66-.01,1.19-.24-1.44-2.83-2.22-5.98-1.71-7.4.89-2.5,4.45-3.34,7.64-3.14-.38-.39-.87-.71-1.5-.94-2-.71-7.06-.4-8.23,2.88-.78,2.18-.45,3.58.09,5.21.45,1.37,1.15,2.52,2.13,3.39Z"/>
        <path class="cls-3" d="M265.35,281.05c-.51,1.43-.13,3.63,1.14,4.08.07.02.13.05.2.07.59.21,1.17.3,1.74.34,1.36-1.22,2.63-2.76,3.2-4.36.25-.69.32-1.39.22-2.04-.44-.3-.84-.53-1.14-.64-2.94-1.05-4.91,1.28-5.37,2.55Z"/>
      </g>
      <g>
        <path class="cls-3" d="M258.02,263.83c-1.73.79-5,.35-5.83-1.46-.58-1.27-.11-3.28,1.73-4.12.49-.22,1.46-.35,2.46-.35.74.94,1.34,2.02,1.77,2.95.38.82.65,1.61.79,2.36-.25.22-.51.41-.77.55-.05.02-.1.05-.14.07Z"/>
        <path class="cls-14" d="M256.27,267.84c-.06.03-.12.04-.18.07-2.75.33-4.57-.59-4.99-1.49-.22-.48-.49-.93-.71-1.41-1.23-2.69-.69-6.55.41-9.13.03-.01.05-.03.07-.04,2.22-1.02,4.11.28,5.5,2.05-.99,0-1.97.12-2.46.35-1.84.84-2.32,2.85-1.73,4.12.83,1.82,4.1,2.26,5.83,1.46.05-.02.1-.05.14-.07.26-.14.52-.33.77-.55.36,1.89-.22,3.51-2.66,4.63Z"/>
        <path class="cls-4" d="M250.4,265.02c.22.48.49.93.71,1.41.41.9,2.24,1.81,4.99,1.49-4.62,1.99-7.98-1.66-8.97-3.81-.22-.48-.34-1.02-.3-1.48.23-2.62,1.61-5.59,3.98-6.73-1.1,2.58-1.64,6.45-.41,9.13Z"/>
      </g>
      <g>
        <path class="cls-14" d="M287.97,271.17c-1.6.74-4.85-.79-6.57-3.38.08-.79.29-1.67.65-2.54.26.69.59,1.4.69,1.66,0,.03.02.05.03.08.35.77,2,1.4,3.58.67,2.12-.97,2.02-3.52,1.09-5.54-.14-.31-.32-.61-.52-.9,1.03.02,2.08.65,3.02,2.69,0,0,0,.01,0,.02-.16,3.75-1.23,6.89-1.98,7.24Z"/>
        <path class="cls-4" d="M285.84,273.16c-1.49-.78-2.84-1.67-3.87-2.84-.15-.17-.28-.37-.37-.58-.21-.45-.27-1.15-.19-1.95,1.73,2.59,4.97,4.12,6.57,3.38.76-.35,1.82-3.5,1.98-7.24,1.48,3.24,1.06,7.9-1.95,9.28-.7.32-1.42.34-2.17-.05Z"/>
        <path class="cls-3" d="M286.36,267.66c-1.58.73-3.23.1-3.58-.67-.01-.02-.02-.05-.03-.08-.1-.26-.43-.97-.69-1.66.62-1.5,1.65-2.92,3.12-3.6.56-.26,1.15-.45,1.76-.44.2.29.38.59.52.9.93,2.01,1.02,4.57-1.09,5.54Z"/>
      </g>
      <g>
        <path class="cls-14" d="M269.75,262.41c-1.42.65-4.75.14-7.8-1.1.33-1,1.06-2.38,2.07-3.72.09.58.23,1.18.51,1.77.03.07.06.13.09.2.59,1.27,2.89,1.47,4.32.81,1.27-.58,3.5-2.83,2.14-5.78-.14-.3-.41-.69-.76-1.12.72.04,1.4.29,1.98.77.5,3.27-.04,7.02-2.55,8.17Z"/>
        <path class="cls-4" d="M262.1,262.95c-.13-.13-.23-.26-.29-.39-.11-.23-.05-.68.14-1.25,3.05,1.24,6.38,1.75,7.8,1.1,2.5-1.15,3.04-4.9,2.55-8.17.44.36.82.84,1.11,1.47.92,2,1.05,7.26-2.22,8.76-2.18,1-3.66.79-5.39.38-1.45-.34-2.71-.96-3.7-1.9Z"/>
        <path class="cls-3" d="M268.93,260.36c-1.43.66-3.73.47-4.32-.81-.03-.07-.06-.13-.09-.2-.27-.59-.41-1.18-.51-1.77,1.14-1.52,2.61-2.97,4.22-3.7.69-.32,1.4-.45,2.08-.42.35.43.62.82.76,1.12,1.35,2.94-.87,5.19-2.14,5.78Z"/>
      </g>
      <g>
        <path class="cls-3" d="M265.5,238.98c.06,2.59-2.25,6.44-4.97,6.5-1.9.04-4.16-1.64-4.22-4.39-.02-.73.35-2.02.89-3.26,1.58-.41,3.24-.59,4.65-.62,1.24-.03,2.37.06,3.38.28.14.43.24.85.28,1.26,0,.07,0,.14.01.22Z"/>
        <path class="cls-14" d="M269.57,243.33c0,.09,0,.17,0,.26-1.08,3.62-3.2,5.4-4.55,5.44-.71.02-1.43.12-2.15.13-4.02.09-8.56-2.66-11.2-5.43,0-.04-.01-.08-.01-.12-.08-3.33,2.56-4.99,5.53-5.77-.54,1.24-.9,2.52-.89,3.26.06,2.75,2.32,4.43,4.22,4.39,2.72-.06,5.03-3.92,4.97-6.5,0-.07,0-.15-.01-.22-.03-.4-.14-.83-.28-1.26,2.56.58,4.27,2.16,4.36,5.82Z"/>
        <path class="cls-4" d="M262.87,249.15c.71-.02,1.43-.12,2.15-.13,1.35-.03,3.47-1.82,4.55-5.44,0,6.84-6.38,9.09-9.6,9.16-.71.02-1.46-.12-2.02-.42-3.15-1.7-6.13-5.02-6.27-8.6,2.64,2.76,7.18,5.52,11.2,5.43Z"/>
      </g>
      <g>
        <path class="cls-3" d="M277.51,245.56c1.54-.04,3,.63,4.26,1.59.02.16.07.33.08.49.04,1.73-1.25,4.13-3.21,4.18-1.33.03-4.02-.84-5.7-2.02.16-2.26,2.29-4.19,4.57-4.25Z"/>
        <path class="cls-4" d="M283.77,249.33c0-.08-.02-.17-.02-.25,1.25,1.53,2.02,3.19,2.05,4.15.06,2.48-3.8,5.38-7.15,5.46h0c-1.67.04-3.68-3-4.83-5.57,1.61,1.39,3.73,2.58,5.31,2.54,3.4-.08,4.7-4.07,4.65-6.33Z"/>
        <path class="cls-14" d="M281.85,247.64c0-.16-.06-.33-.08-.49.74.57,1.41,1.23,1.98,1.93,0,.08.02.17.02.25.05,2.26-1.25,6.25-4.65,6.33-1.57.04-3.7-1.15-5.31-2.54-.54-1.22-.89-2.34-.91-2.96,0-.12.02-.24.03-.36,1.68,1.18,4.37,2.05,5.7,2.02,1.96-.05,3.25-2.45,3.21-4.18Z"/>
      </g>
      <path class="cls-5" d="M205.44,214.08c1.77-3.21,3.87-6.24,6.23-9.08,3.28-3.95,7.07-7.55,11.16-10.85,4.52-3.63,9.41-6.89,14.42-9.79,2.31-.21,4.76-.35,7.34-.49,2.8-.15,5.74-.31,8.8-.59,10.95-1,23.36-3.54,35.87-12.7,2.76-3.66,4.95-7.77,6.95-11.71,0,0-.02,0-.02-.01,0,0-16.44,16.44-28.89,16.95.5-.45.97-.94,1.41-1.46,2.94-3.54,4.32-8.54,4.99-13.04-.98,1.93-2.13,3.66-3.43,5.22-5.68,6.83-14.13,10.43-22.94,12.92-1.45-.45-3.11-1.2-4.57-2.41-1.96-1.63-3.6-3.78-4.97-5.96.62,3.12-.42,6.13-2.23,8.83-8.15,5.73-17.56,13.62-27.67,11.82,6.09,5.97,1.37,15.23-4.37,22.92.64-.18,1.28-.35,1.91-.55Z"/>
      <path class="cls-12" d="M195.09,205.9c-9.05,3.59-18.49,6.5-28.08,8.35,8.04,1.62,16.28,2.38,24.57,2.95,3.98-.59,7.96-1.45,11.94-2.57,5.74-7.69,10.46-16.95,4.37-22.92,10.1,1.81,19.52-6.09,27.67-11.82,1.81-2.69,2.85-5.7,2.23-8.83,1.37,2.18,3.01,4.34,4.97,5.96,1.46,1.21,3.12,1.96,4.57,2.41,8.8-2.5,17.26-6.09,22.94-12.92,1.3-1.56,2.45-3.3,3.43-5.22-.68,4.5-2.05,9.5-4.99,13.04-.43.52-.9,1.01-1.41,1.46,12.45-.51,28.89-16.95,28.89-16.95,0,0,.02,0,.02.01-2,3.94-4.18,8.05-6.95,11.71,3.42-2.5,6.84-5.5,10.25-9.09,8.41-15.39,10.28-34.52,8.83-52.23-2.55,14.78-7.56,29.83-17.03,41.23-3.24,3.9-7.01,7.37-11.37,10.27,5.27-21.18,11.12-44.58-2.48-63.38,4.91,20.05-1.92,42.95-15.66,59.49-2.31,2.78-8.84,9.99-13.83,12.48,6.52-20.3-6.08-41.99-18.21-58.32,6.48,22.28,5.64,47.16-7.18,67.17-4.11-2.17-7.96-4.74-11.5-7.68-13.56-11.27-22.66-27.72-25.58-45.43,1.82,19.67,5.01,44.4,20.99,57.68,1.8,1.5,3.77,2.84,5.91,4.02-12.51-1.73-24.06-6.77-34.26-14,4.78,6.57,10.03,12.69,16.18,17.8,3.81,3.17,7.98,5.95,12.58,8.2-5.65.65-17.44-.17-31.99-5.13,6.38,4.61,13.15,8.7,20.18,12.26Z"/>
      <path class="cls-8" d="M151.53,216.25c13.18,2.14,26.59,2.96,40.05.95-8.26-.57-16.48-1.32-24.5-2.93-23.73,1.63-45.75-8.08-64.38-23.56-1.32-1.1-2.62-2.23-3.9-3.38,3.85,6.94,7.85,13.48,11.59,19.54,13.31,3.35,27.09,7.1,41.14,9.38Z"/>
      <path class="cls-7" d="M161.3,193.04c25.83-31.08-4.19-77.16-13.86-102.49,13.59,17.19,48.44,51.42,62.62,20.2,3.48-7.66,5.41-14.02,6.64-20.55.31-4.75.35-9.52.41-14.06,2.43,8.98,7.85,16.4,14.87,22.23,5.01,4.16,10.84,7.52,16.96,10.08,3.58-1.13,6.84-3.17,9.35-6.2,6.66-8.01,4.18-19.54,1.22-30.11,5.04,6.36,10.52,11.7,15.54,16.65,7.05,6.94,30.07,21.32,39.61,9.84,12.36-14.88-19.65-63.51-33.97-76.89-42.84-40.06-43.22-.16-80.09,2.08-14.08.86-21.38-6.43-46.64,9.83-6.55,4.22-16.94,18.66-23.71,22.31-12.08,6.51-22.53,13.26-31.27,23.79-22.68,27.29-25.03,77.88,7.33,106.83,30.89,27.64,43.12,20.76,55,6.46ZM107.66,77.97c.44-.53,68.96-63.16,98.38-38.72,8.68,7.21,8.03,13.87,5.63,21.55,1.83,11.79-1.14,24.25-8.63,33.26-12.69,15.28-44.41-5.92-58.24-17.41-2.06-1.71-3.78-3.14-5.12-4.46,5.08,32.77,26.1,73.53,3.18,101.1-9,10.84-25.79,3.33-34.03-3.52-20.84-17.32-27.27-60.41-1.18-91.81Z"/>
      <path class="cls-13" d="M142.86,173.3c22.91-27.57,1.9-68.33-3.18-101.1,1.34,1.32,3.06,2.75,5.12,4.46,13.83,11.49,45.55,32.69,58.24,17.41,7.49-9.01,10.45-21.47,8.63-33.26,2.4-7.68,3.05-14.34-5.63-21.55-29.42-24.44-97.94,38.18-98.38,38.72-26.09,31.4-19.65,74.49,1.18,91.81,8.24,6.84,25.02,14.35,34.03,3.52ZM106.31,91.22c3.49-4.19,11.33-8.98,18.08-3.37,4.87,4.04,5.19,11.04,4.85,18.22,4.1,14.22,17.06,40.62,5.15,54.95-7.99,9.61-21.46,5.64-27.25.83-11.7-9.73-20.6-46.85-.83-70.64Z"/>
      <path class="cls-10" d="M134.39,161.03c11.91-14.34-1.05-40.74-5.15-54.95.34-7.18.02-14.18-4.85-18.22-6.75-5.61-14.59-.83-18.08,3.37-19.77,23.79-10.87,60.92.83,70.64,5.78,4.81,19.26,8.78,27.25-.83Z"/>
      <path class="cls-2" d="M280.69,21.73c9.26,8.66,25.93,32.08,33.2,51.56-6.59-21.31-18.35-40.48-33.62-53.17-3.05-2.54-6.28-4.86-9.68-6.97,3.09,2.33,6.44,5.16,10.1,8.58Z"/>
      <path class="cls-18" d="M167.08,214.27s-.04,0-.07-.01c9.59-1.85,19.03-4.77,28.08-8.35-7.04-3.57-13.8-7.66-20.18-12.26,14.54,4.96,26.34,5.78,31.99,5.13-4.6-2.25-8.76-5.03-12.58-8.2-6.15-5.11-11.4-11.23-16.18-17.8,10.21,7.22,21.75,12.27,34.26,14-2.14-1.18-4.11-2.53-5.91-4.02-15.98-13.28-19.18-38.01-20.99-57.68,2.92,17.72,12.02,34.16,25.58,45.43,3.54,2.94,7.39,5.52,11.5,7.68,12.82-20.01,13.66-44.89,7.18-67.17,12.13,16.33,24.73,38.02,18.21,58.32,4.98-2.49,11.51-9.69,13.83-12.48,13.74-16.54,20.57-39.44,15.66-59.49,13.61,18.81,7.75,42.21,2.48,63.38,4.37-2.89,8.13-6.37,11.37-10.27,9.48-11.41,14.48-26.45,17.03-41.23,1.45,17.71-.43,36.84-8.83,52.23,1.31-1.39,2.62-2.85,3.93-4.42,7.89-9.5,13.28-21.4,15.9-34.48,1.08-11.87.31-24.05-2.04-35.86.47,4.89-.25,9.02-2.64,11.9-9.54,11.48-32.56-2.89-39.61-9.84-5.02-4.94-10.5-10.29-15.54-16.65,2.97,10.56,5.44,22.09-1.22,30.11-2.52,3.03-5.78,5.07-9.35,6.2-6.12-2.56-11.95-5.91-16.96-10.08-7.02-5.83-12.44-13.25-14.87-22.23-.06,4.54-.1,9.31-.41,14.06-1.24,6.53-3.17,12.89-6.64,20.55-14.18,31.23-49.03-3-62.62-20.2,9.67,25.33,39.69,71.4,13.86,102.49-11.88,14.3-24.11,21.19-55-6.46-32.36-28.95-30-79.54-7.33-106.83,8.74-10.52,19.19-17.27,31.27-23.79,6.77-3.65,17.16-18.1,23.71-22.31,25.26-16.26,32.57-8.98,46.64-9.83,25.12-1.53,33.31-20.53,49.52-19.82-4.84-1.43-9.93-2.44-15.25-3.04-3.4,1.1-6.55,3.19-9.33,6.54-1.38,1.66-2.75,3.52-4.11,5.16-9.32,11.22-40.29-11.57-83.29,31.99-11.42,11.57-26.97,12.85-37.98,26.1-34.47,41.48-19.69,83.51-1.36,116.58,1.28,1.15,2.58,2.28,3.9,3.38,18.63,15.48,40.65,25.19,64.38,23.56Z"/>
      <path class="cls-20" d="M270.59,13.15c3.4,2.1,6.62,4.43,9.68,6.97,15.27,12.69,27.03,31.86,33.62,53.17,1.8,4.81,3.01,9.38,3.41,13.43,2.35,11.82,3.12,23.99,2.04,35.86,1.88-9.37,2.34-19.33,1.27-29.44-2.73-25.84-15.38-52.63-39.63-72.78-13.85-11.51-32.08-23.95-46.11-19.41,5.32.59,10.41,1.61,15.25,3.04,5.55.24,12.04,2.8,20.47,9.15Z"/>
    </g>
  </g>
</svg>