<?xml version="1.0" encoding="UTF-8"?>
<svg id="Layer_2" data-name="Layer 2" xmlns="http://www.w3.org/2000/svg" viewBox="0 0 316.37 349.92">
  <defs>
    <style>
      .cls-1 {
        fill: #e2c4de;
      }

      .cls-2 {
        fill: #cea3cb;
      }

      .cls-3 {
        fill: #c4b3d7;
      }

      .cls-4 {
        fill: #e4daec;
      }

      .cls-5 {
        fill: #f5f5fa;
      }

      .cls-6 {
        fill: #695ea9;
      }

      .cls-7 {
        fill: #dbd2e8;
      }

      .cls-8 {
        fill: #4c52a3;
      }

      .cls-9 {
        fill: #d0a4cc;
      }

      .cls-10 {
        fill: #dcd0e7;
      }

      .cls-11 {
        fill: #cfc1df;
      }

      .cls-12 {
        fill: #a595c8;
      }

      .cls-13 {
        fill: #bc88bc;
      }

      .cls-14 {
        fill: #bfaed5;
      }

      .cls-15 {
        fill: #8b7dba;
      }

      .cls-16 {
        fill: #9889c1;
      }

      .cls-17 {
        fill: #e9e7f4;
      }

      .cls-18 {
        fill: #d2c3e0;
      }

      .cls-19 {
        fill: #c795c3;
      }

      .cls-20 {
        fill: #dab1d3;
      }
    </style>
  </defs>
  <g id="flower">
    <g>
      <path class="cls-7" d="M215.95,134.89c-4.4,7.66-2.37,18.05,4.99,22.57.65.4,1.31.73,2,1.01.03.02.06.04.1.06,5.85,3.59,16.03,1.35,30.37,10.17,1.03.63,2.03,1.31,3.01,2.02-30.3-7.3-39.25,5.48-19.78,17.44,5.42,3.33,11.8,5.86,17.36,8.92-10.56-3.93-25.51.75-29.61,4.8-3.88,3.83,14.02,10.73,18.64,13.74,20.71,13.49,26.77,10.86,41.38-3.82,5.08-5.1,25.53-11.96,28.17-16.26,6.96-11.33-23.14-15.62-27.52-32.81-5.27-20.68-14.1-45.92-31.93-56.88-7.87-4.84-24.31-3.85-26.4-.71-1.12,1.68-1.89,3.94-2.62,6.6-.17.68-.34,1.35-.53,2.02-1.49,5.85-3.14,13.31-7.63,21.12Z"/>
      <path class="cls-14" d="M67.77,143.44c-9.91-.02-17.26-1.04-31.41-8.34,3.53,3.04,7.39,5.86,11.57,8.44,2.82,1.73,5.69,3.37,8.56,4.98,16.43-4.15,33.15-2.21,45.72,5.51.55.34,1.08.68,1.6,1.02-2.09-3.03-4.33-5.95-6.7-8.75-4.2,1.96-14.92-2.82-29.34-2.86Z"/>
      <path class="cls-12" d="M197.55,145.56c-9.49,5.66-19.83,11.85-34.13,13.33,19.01-14.92,31.4-17.4,39.18-28.44-16.18,14.31-38.26,18.49-47.03,18.59,10.34-8.89,20.41-18.44,27.37-29.77,2.66-4.34,4.87-8.93,6.47-13.85-9.48,15.27-22.02,29.34-37.42,38.6,8.37-17.19,13.78-37.58,16.81-56.59-4.35,13.68-9.62,27.88-17.28,40.33-1.02,1.65-2.08,3.28-3.18,4.86,2.84-14.72,3.21-25.97.4-44.07.04,6.13-.64,12.42-2.18,18.46,0,10.96-1.81,22.46-4.76,33.93-2.19,8.5-5,16.97-8.16,25.18,4.94-.93,11.69-8.52,15.03-12.51-1.42,3.43-3.08,6.77-5.02,9.93-1.45,2.36-3.05,4.61-4.83,6.71,2.75-.68,7.35-2.55,12.37-7.27-.45.83-.93,1.65-1.42,2.45-1.65,2.68-3.52,5.22-5.58,7.6,13.5-6.37,20.35-17.51,15.78-10.07-.96,1.57-1.97,3.11-3.02,4.62,13.72-7.7,28.47-14.04,40.62-22.05Z"/>
      <path class="cls-12" d="M236.7,195.97c-1.58-1.17-3.21-2.27-4.89-3.3-15.65-9.62-35.19-13.23-53.43-11.06,18.9-10.02,40.74-15.08,61.82-13.76-21.62-5.16-44.56-4.34-65.86,1.96,10.24-5.41,20.2-11.28,29.47-18.1-7.49,2.98-16.14,3.09-24.31,4.12-7.53,3.89-15.34,7.7-22.84,11.92-4.01,5.56-9.54,9.88-15.47,13.48,9.39-2.73,19.79-3.48,29.06-1.12-9.45-.39-17.9,7.81-24.25,15.84,5.87-2.12,12.49-2.45,18.39-.76-6.2,1.7-12.49,4.13-18.1,7.5,5.6-1.57,11.28-2.63,16.98-3.22,17.05-5.88,35.92-6.84,53.11-1.64-9.15-5.09-19.24-8.84-29.67-10.28,17.15-1.67,34.85.71,49.98,8.42Z"/>
      <path class="cls-12" d="M171.1,211.63c12.68,7.98,25.38,18.66,31.05,32.42-3.38-15.79-15.78-30.05-29.65-38.58-1.19-.73-2.39-1.42-3.59-2.06,9.78-.3,19.31,2.35,28.12,6.59-11.56-6.9-27.12-9.76-32.84-10.62-5.55.53-11.07,1.51-16.53,2.95,5.7.12,11.32,1.32,16.19,4.32.48.29.94.61,1.4.94-5.24-1.12-11.02-1.76-16.12-.04,2.64.51,5.16,1.57,7.47,2.99.9.55,1.76,1.16,2.59,1.81-3.3-.94-6.87-.86-10.1.21.4.18.79.38,1.16.61,1.51.93,2.78,2.22,3.71,3.76-.87-.41-1.78-.65-2.72-.74,1.46,3.14,2.64,6.32,3.57,9.53,4.99,6.4,8.79,13.86,9.48,21.67.87-9.08-.45-18.42-3.25-27.16,7.72,11.11,14.17,23.8,15.74,36.92,3.28-15.17,3.06-33.06-5.7-45.49Z"/>
      <path class="cls-12" d="M133.28,167.05c7.35-18.89,12.9-39.22,13.26-58.05-2.67,9.68-6.77,18.72-11.67,27.37,2.19-10.33,2.78-20.86,1.01-31.31-1.26,9.44-4.31,18.51-7.99,27.4.57-13.58-1.51-32.47-12.33-53.67,1.86,12.99,2.8,26.4,1.37,39.39-3.88-12.38-11.42-23.73-19.48-34.5,2.97,5.57,5.64,11.35,7.79,17.28,1.93,6.57,3.56,13.29,4.96,20.05.63,5.1.75,10.26.23,15.43-6.37-17.5-21.87-27.98-37.35-38.07,13.9,11.9,25.22,27.5,28.43,45.61-4.96-6.84-11.36-12.21-18.5-16.6-7.12-4.38-14.99-7.78-22.91-10.71,2.29,1.23,4.54,2.53,6.75,3.89,14.5,8.91,27.29,20.48,36.94,34.5,3.47,2.28,6.37,4.66,8.8,7.11,1.22-7.62.7-15.41-2.53-22.59,3.72,5.1,6.4,11.88,4.4,17.96,3.42-8.71,4.76-17.9,4.02-27.15,2.84,8.62,3.34,17.85,2.53,26.91.22-.33.43-.66.64-.99,3.32-5.41,5.28-11.55,7.49-17.53-.26,7.54-.91,15.04-2.93,22.3,1.71-1.71,3.19-3.63,4.46-5.69,1.06-1.72,1.96-3.55,2.73-5.43-.92,5.72-1.1,11.51-.14,17.1Z"/>
      <path class="cls-4" d="M70.54,53.9c3.99-6.49,13.28-7.28,23.5-5.5-3.21-1.31-6.3-2.89-9.26-4.71-7.97-4.9-9.18-7.37-15.37-11.17-14.54-8.93-36.78-12.31-48.32,6.46-12.29,19.99-5.68,39.07,6.59,57.65-2.78-6.57-4.24-13.72-4.2-20.86.14-.28.29-.56.45-.81,4.86-7.91,18.02-5.69,25.54-1.07,1.01.62,2.12,1.21,3.19,1.87,2.39,1.47,6.33,5.15,8.02,8.37-1.93-6.29-5.28-13.6-4.71-20.29,1.95-2.6,5.22-2.35,7.87-.72,3.39,2.08,6.07,8.16,12.29,11.98.04.03.08.05.12.07-6.19-6.35-10.42-13.62-5.73-21.25Z"/>
      <path class="cls-18" d="M38.18,124.96C2.18,102.84,3.01,59.28,15.88,38.33c4.5-7.31,10.57-12.41,16.85-15.46-5.7,1.37-10.12,3.78-13.58,5.78-.43.45-.84.91-1.23,1.39-.53.65-1.02,1.33-1.46,2.05-.13.21-.25.42-.37.62-.84,1.4-1.62,2.83-2.35,4.3-.47.95-.92,1.91-1.35,2.89-.07.15-.13.3-.2.46-.87,2.04-1.66,4.13-2.34,6.26-.48,1.52-.92,3.07-1.31,4.63-2.16,8.78-2.78,18.2-1.76,27.7.47,4.36,1.28,8.74,2.44,13.08.44,1.64.93,3.28,1.47,4.91,2.8,8.42,6.97,16.6,12.55,24.11,1.3,1.75,2.67,3.46,4.12,5.13,2.72,3.13,5.71,6.11,8.98,8.92,14.15,7.3,21.5,8.32,31.41,8.34,14.42.04,25.14,4.82,29.34,2.86-.7-.83-1.41-1.64-2.13-2.45-6.31-7.05-13.47-13.32-21.24-18.77-2.08-1.46-4.2-2.86-6.36-4.21-.17-.11-.35-.22-.52-.33-1.85-1.14-3.74-2.23-5.65-3.28.3,4.21.33,8-1.35,10.73-4.58,7.46-13.97,1.71-21.69-3.03Z"/>
      <path class="cls-5" d="M40.67,20.1c-3.24.17-6.42.69-9.4,1.57-4.76,1.41-8.98,3.74-12.12,6.98,3.46-2,7.88-4.41,13.58-5.78,2.64-1.28,5.32-2.2,7.94-2.77Z"/>
      <path class="cls-5" d="M67.26,28.17c1.54.73,3.11,1.52,4.73,2.4,2.24,1.21,4.33,2.06,4.35,2.07,1.37.56,2.79,1.13,4.24,1.69-.83-.4-1.67-.81-2.51-1.23-1.39-.69-2.79-1.4-4.2-2.12-3.5-1.81-7.04-3.72-10.57-5.77-1.51-.88-3.11-1.64-4.78-2.3.91.6,2.13,1.39,3.28,2.09,1.76,1.08,3.58,2.13,5.44,3.16Z"/>
      <path class="cls-11" d="M135.88,105.06c.58,3.4.9,6.8,1,10.21.21,7.07-.53,14.13-2.01,21.1,4.9-8.65,9-17.7,11.67-27.37.21-10.75-1.28-21.01-5.08-30.22-.25-.61-.51-1.21-.79-1.81-4.44-9.79-11.62-18.33-22.35-24.92-1.68-1.03-3.74-2.11-6.1-3.27-2.96-1.44-6.4-2.98-10.19-4.67-1.51-.67-3.08-1.37-4.7-2.08-3.65-1.62-7.54-3.36-11.59-5.25-1.69-.79-3.41-1.61-5.15-2.45-1.44-.56-2.87-1.13-4.24-1.69-.02,0-2.11-.85-4.35-2.07-1.62-.88-3.2-1.67-4.73-2.4,14.17,7.86,30.77,14.4,44.81,23.03.78.48,1.56.97,2.32,1.46.01,0,.02.01.03.02.77.5,1.53,1,2.28,1.52,0,0,0,0,0,0,2.1,1.43,4.12,2.93,6.05,4.49,0,0,.01,0,.02.01.54.44,1.06.88,1.58,1.32,0,0,.01,0,.02.01.52.44,1.02.89,1.52,1.35.03.03.06.05.08.08.48.44.96.89,1.43,1.34.01.01.03.02.04.04.47.46.93.92,1.39,1.39.05.05.09.09.14.14.43.45.86.91,1.27,1.37.02.02.04.04.06.06.43.47.84.96,1.25,1.44.06.07.12.14.17.21.38.46.76.93,1.13,1.4.02.03.05.06.07.09.38.49.75.99,1.11,1.5.07.09.13.18.19.27.34.48.67.96.99,1.45.02.03.05.07.07.1.33.51.66,1.04.97,1.57.07.11.13.22.2.34.29.5.58,1.01.86,1.52.02.03.04.07.06.1.29.54.56,1.09.83,1.64.06.13.12.26.18.39.25.54.5,1.08.74,1.63.01.02.02.05.03.07.24.57.47,1.15.69,1.74.05.14.11.29.16.43.22.59.43,1.19.62,1.8-.31.63-.69,1.32-1.16,2.07-2.15,3.5-6.53,2.48-12.01.07-.96-.42-1.94-.88-2.96-1.37-6.93-4.66-9.52-17.88-27.08-28.67-3.04-1.87-6.23-3.39-9.54-4.48,3.3,1.47,6.59,3.1,9.68,5,11.74,7.21,16.14,16.31,16.39,23.11-9.95-4.3-20.47-6.48-27.39,4.78-.45.73-.86,1.52-1.23,2.28-2.4,0-5.61-1.19-7.28-2.21-5.23-3.21-12.63-13.96-15.83-19.02.59,1.45,1.44,3.2,2.19,5.02,4.29,6.14,10.48,13.94,10.03,20.82-3.68-.35-7.77.31-10.97,5.52-3.86,6.28-2.76,13.98-2.27,20.64,7.55,2.84,15.02,6.12,21.82,10.3,7.14,4.39,13.54,9.75,18.5,16.6-1.26-7.1-3.77-13.81-7.18-20.06-1.61-2.95-3.42-5.79-5.4-8.53-4.54-6.27-9.96-11.98-15.85-17.02,1.3.84,2.59,1.69,3.88,2.55,3.66,2.43,7.29,4.91,10.74,7.53,8.28,6.28,15.62,13.38,20.32,22.52.9,1.75,1.71,3.57,2.41,5.48.12-1.15.2-2.3.25-3.45.08-1.77.09-3.54.04-5.3-.07-2.22-.24-4.43-.51-6.63-.14-.67-.28-1.33-.42-2-.81-3.81-1.71-7.6-2.69-11.36-.59-2.26-1.21-4.51-1.87-6.74-2.16-5.93-4.83-11.71-7.79-17.28,1.3,1.74,2.58,3.49,3.84,5.26.72,1.02,1.44,2.04,2.14,3.07,5.67,8.28,10.6,16.93,13.5,26.17,1.08-9.73.81-19.69-.17-29.55-.29-2.88-.64-5.74-1.03-8.59-.06-.42-.11-.84-.17-1.26.26.51.51,1.02.76,1.53,2.65,5.37,4.74,10.58,6.38,15.59,4.31,13.22,5.44,25.01,5.25,34.48-.01.7-.03,1.4-.06,2.07.52-1.25,1.02-2.51,1.51-3.76,2.99-7.68,5.4-15.52,6.48-23.63Z"/>
      <path class="cls-5" d="M32.73,22.87c8.39-2.02,19.55-1.78,34.52,5.3-1.86-1.03-3.68-2.08-5.44-3.16-1.15-.71-2.37-1.49-3.28-2.09-5.56-2.19-11.82-3.12-17.87-2.81-2.62.57-5.3,1.49-7.94,2.77Z"/>
      <path class="cls-10" d="M74.44,90.91c.45-6.88-5.74-14.68-10.03-20.82-.75-1.82-1.6-3.57-2.19-5.02,3.21,5.06,10.61,15.81,15.83,19.02,1.66,1.02,4.88,2.22,7.28,2.21.37-.77.78-1.55,1.23-2.28,6.92-11.26,17.44-9.08,27.39-4.78-.25-6.8-4.65-15.9-16.39-23.11-3.09-1.9-6.38-3.53-9.68-5,3.31,1.09,6.5,2.61,9.54,4.48,17.56,10.79,20.15,24.01,27.08,28.67,1.02.49,2,.95,2.96,1.37,5.47,2.41,9.86,3.43,12.01-.07.46-.76.85-1.44,1.16-2.07-.19-.61-.4-1.21-.62-1.8-.05-.14-.11-.29-.16-.43-.22-.59-.45-1.17-.69-1.74-.01-.02-.02-.05-.03-.07-.23-.55-.48-1.1-.74-1.63-.06-.13-.12-.26-.18-.39-.27-.55-.54-1.1-.83-1.64-.02-.03-.04-.07-.06-.1-.28-.51-.56-1.02-.86-1.52-.07-.11-.13-.22-.2-.34-.32-.53-.64-1.05-.97-1.57-.02-.03-.05-.07-.07-.1-.32-.49-.65-.97-.99-1.45-.06-.09-.13-.18-.19-.27-.36-.51-.73-1.01-1.11-1.5-.02-.03-.05-.06-.07-.09-.37-.47-.74-.94-1.13-1.4-.06-.07-.12-.14-.17-.21-.41-.49-.83-.97-1.25-1.44-.02-.02-.04-.04-.06-.06-.42-.46-.84-.92-1.27-1.37-.05-.05-.09-.09-.14-.14-.46-.47-.92-.94-1.39-1.39-.01-.01-.03-.02-.04-.04-.47-.45-.94-.9-1.43-1.34-.03-.03-.06-.05-.08-.08-.5-.46-1.01-.9-1.52-1.35,0,0-.01,0-.02-.01-.52-.45-1.05-.89-1.58-1.32,0,0-.01,0-.02-.01-.54-.44-1.09-.87-1.65-1.3-1.42-1.1-2.89-2.16-4.4-3.19,0,0,0,0,0,0-.75-.51-1.51-1.02-2.28-1.52-.01,0-.02-.01-.03-.02-.77-.49-1.54-.98-2.32-1.46-14.04-8.63-30.64-15.18-44.81-23.03-14.97-7.08-26.14-7.32-34.52-5.3-6.29,3.05-12.36,8.15-16.85,15.46C3.01,59.28,2.18,102.84,38.18,124.96c7.72,4.74,17.1,10.49,21.69,3.03,1.68-2.73,1.65-6.51,1.35-10.73-.37-.2-.74-.41-1.1-.61.36.13.73.27,1.09.41-.48-6.66-1.59-14.36,2.27-20.64,3.2-5.2,7.29-5.87,10.97-5.52ZM52.67,75.74c-1.07-.66-2.19-1.25-3.19-1.87-7.52-4.62-20.68-6.84-25.54,1.07-.16.26-.31.53-.45.81-.04,7.13,1.41,14.29,4.2,20.86-12.27-18.57-18.88-37.65-6.59-57.65,11.53-18.77,33.78-15.39,48.32-6.46,6.19,3.8,7.4,6.27,15.37,11.17,2.96,1.82,6.05,3.4,9.26,4.71-10.22-1.78-19.51-.99-23.5,5.5-4.69,7.63-.47,14.91,5.73,21.25-.04-.02-.08-.05-.12-.07-6.22-3.82-8.9-9.89-12.29-11.98-2.66-1.63-5.92-1.88-7.87.72-.57,6.69,2.78,14,4.71,20.29-1.69-3.23-5.63-6.9-8.02-8.37Z"/>
      <path class="cls-7" d="M116.71,54.2s0,0,0,0c0,0,0,0,0,0Z"/>
      <path class="cls-7" d="M122.76,58.7s.01,0,.02.01c0,0-.01,0-.02-.01Z"/>
      <path class="cls-7" d="M138.2,77.46c.06.13.12.26.18.39-.06-.13-.12-.26-.18-.39Z"/>
      <path class="cls-7" d="M124.36,60.03s.01,0,.02.01c0,0-.01,0-.02-.01Z"/>
      <path class="cls-7" d="M137.31,75.71s.04.07.06.1c-.02-.03-.04-.07-.06-.1Z"/>
      <path class="cls-7" d="M136.26,73.85c.07.11.13.22.2.34-.07-.11-.13-.22-.2-.34Z"/>
      <path class="cls-7" d="M139.12,79.48s.02.05.03.07c-.01-.02-.02-.05-.03-.07Z"/>
      <path class="cls-7" d="M114.39,52.66s.02.01.03.02c-.01,0-.02-.01-.03-.02Z"/>
      <path class="cls-7" d="M139.84,81.29c.05.14.11.29.16.43-.05-.14-.11-.29-.16-.43Z"/>
      <path class="cls-7" d="M134.03,70.46c.07.09.13.18.19.27-.06-.09-.13-.18-.19-.27Z"/>
      <path class="cls-7" d="M130.25,65.76s.04.04.06.06c-.02-.02-.04-.04-.06-.06Z"/>
      <path class="cls-7" d="M125.9,61.4s.06.05.08.08c-.03-.03-.06-.05-.08-.08Z"/>
      <path class="cls-7" d="M128.84,64.25s.09.09.14.14c-.05-.05-.09-.09-.14-.14Z"/>
      <path class="cls-7" d="M132.86,68.87s.05.06.07.09c-.02-.03-.05-.06-.07-.09Z"/>
      <path class="cls-7" d="M131.56,67.26c.06.07.12.14.17.21-.06-.07-.12-.14-.17-.21Z"/>
      <path class="cls-7" d="M135.22,72.18s.05.07.07.1c-.02-.03-.05-.07-.07-.1Z"/>
      <path class="cls-7" d="M127.41,62.82s.03.02.04.04c-.01-.01-.03-.02-.04-.04Z"/>
      <path class="cls-3" d="M122.23,53.77c-1.29-.8-2.61-1.59-3.93-2.4-7.14-4.39-13.95-7.76-15.69-14.83-1.89,1.85-3.66,3.69-5.29,5.47,8.92,3.96,16.39,7.18,21,10.02,15.53,9.55,23.64,23.17,26.73,38.77,1.03,5.21,1.5,10.64,1.51,16.21.37-1.47.69-2.95.97-4.44.06-.33.11-.66.17-.98-.43-17.55-7.36-36.69-25.47-47.82Z"/>
      <path class="cls-10" d="M285.05,162.73c-5.27-20.68-14.1-45.92-31.93-56.88-7.87-4.84-24.31-3.85-26.4-.71-3.69,5.54-3.56,17.18-10.78,29.75-4.4,7.66-2.37,18.05,4.99,22.57.65.4,1.31.73,2,1.01.03.02.06.04.1.06,5.85,3.59,16.03,1.35,30.37,10.17,1.03.63,2.03,1.31,3.01,2.02-30.3-7.3-39.25,5.48-19.78,17.44,5.42,3.33,11.8,5.86,17.36,8.92-10.56-3.93-25.51.75-29.61,4.8-3.88,3.83,14.02,10.73,18.64,13.74,20.71,13.49,26.77,10.86,41.38-3.82,5.08-5.1,25.53-11.96,28.17-16.26,6.96-11.33-23.14-15.62-27.52-32.81ZM258.05,165.84c-5.83-3.59-12.75-6.05-17.2-7.94-3.76-.84-7.46-2.16-10.33-3.93-11.96-7.35-10.09-17.31-2.55-29.58.8-1.29,1.61-2.56,2.37-3.81,4.46-7.26,13.5-12,22.92-6.21,20.01,12.3,16.42,35.34,24.98,50.6-2.13-2.56-4.48-5.13-7.05-6.71-5.27-3.24-10.07-.32-10.96,1.12-1.3,2.12,1.87,6.67,4.68,11.83-2.03-2.08-4.36-3.84-6.87-5.38Z"/>
      <path class="cls-4" d="M260.24,159.39c.89-1.45,5.69-4.36,10.96-1.12,2.57,1.58,4.92,4.15,7.05,6.71-8.56-15.26-4.97-38.3-24.98-50.6-9.42-5.79-18.46-1.05-22.92,6.21-.77,1.25-1.58,2.52-2.37,3.81-7.54,12.27-9.41,22.23,2.55,29.58,2.87,1.76,6.57,3.09,10.33,3.93,4.45,1.88,11.37,4.35,17.2,7.94,2.51,1.54,4.84,3.31,6.87,5.38-2.8-5.16-5.98-9.72-4.68-11.83Z"/>
      <path class="cls-5" d="M225.22,102.86c3.56-19.48,3.39-41.17,9.19-50.61,1.64-2.66,4.26-4.82,5.55-6.91.81-1.32.87-2.77.43-4.18.1,5.66-6.7,8.77-8.44,14.62-10.52,35.43-2.09,47.37-15.6,69.36-11.61,18.9-26.07,23.41-37.53,30.08,7-2.65,13.02-6.24,18.73-9.65.11-.07.21-.14.32-.22,7.91-5.26,14.7-11.23,19.33-18.77,4.03-6.56,6.41-14.91,8.02-23.71Z"/>
      <path class="cls-3" d="M216.92,128.99c2.93-4.77,5.14-9.87,6.65-15.22.18-.7.35-1.37.53-2.02.72-2.93,1.23-5.94,1.54-9.01-.14.04-.29.08-.43.12-1.61,8.8-3.98,17.15-8.02,23.71-7.95,12.94-22.24,21.28-37.7,29.27,5.32-.67,10.83-.96,16.1-1.89.23-1.19.7-2.3,1.34-3.34,3.99-6.49,11.37-7.6,19.98-21.61Z"/>
      <path class="cls-10" d="M268.84,303.86c19.33-31.45,11.16-61.84-22.99-82.83-6.36-3.91-17.23-8.27-25.53-8.06-2.14.05-4.11.41-5.78,1.16-3.46.98-6.67,2.59-8.54,5.64-5.3,8.63,6.79,24.51,13.56,43.24-2.61-2.92-5.9-5.64-9.93-8.12-10.24-6.29-17.25-1.61-19.47,2.01-4.49,7.3,4.94,22.85,3.93,33.69-1.91-9.12-7.67-19.7-14.66-24-8.26-5.08-15.64,1-19.63,7.51-12.64,20.57,6.16,57.7,19.71,66.03,15.32,9.42,26.32.28,36.68-.03.52-.02,20.6,2.52,26.98-7.85,1.39-2.25,2.38-4.96,3.8-7.27,3.59-5.84,15.93-11.39,21.9-21.11ZM218.98,324.81c-13.97-8.59-23.53-35.22-11.18-55.81.01-.02.02-.04.03-.06,2.05-3.34,7.74-2.39,10.82-.5,5.8,3.56,8.34,12.17,7.85,19.3,7.11-23.59-15.3-43.34-5.53-59.25,1-1.63,2.65-3.23,4.53-3.88,4.94-5.26,17.76.38,24.33,4.41,24.5,15.06,26.62,51.61,11.67,75.94-9.5,15.46-29.08,28.09-42.52,19.83Z"/>
      <path class="cls-3" d="M255.64,225.06c5.61,3.45,12.08,8.55,15.81,11.61-1.83-3.1-3.87-6.13-6.09-9.07-3.14-.03-6.39-.92-9.25-2.67,0,0-1.63-1.04-3.1-1.94-26.48-16.27-58.08-26.57-88.81-23.61,3.77.57,11.83,2.01,20.2,4.9,14-5.02,53.48,9.87,71.24,20.78Z"/>
      <path class="cls-11" d="M272.48,302.86c13.74-22.36,10.9-45.92-1.03-66.19-3.73-3.05-10.19-8.16-15.81-11.61-17.76-10.91-57.23-25.8-71.24-20.78,4.31,1.49,8.7,3.37,12.63,5.72-4.52-2.18-9.24-3.93-14.07-5.08-4.59-1.09-9.29-1.65-14.05-1.5,1.21.64,2.4,1.33,3.59,2.06,2.24,1.38,4.44,2.91,6.57,4.56,11.07,8.61,20.24,20.77,23.07,34.01-5.67-13.76-18.38-24.44-31.05-32.42,8.75,12.43,8.98,30.32,5.7,45.49-1.57-13.11-8.01-25.8-15.74-36.92,2.8,8.74,4.12,18.08,3.25,27.16-.69-7.81-4.49-15.26-9.48-21.67,5.39,18.59,2.64,38.16.73,56.37-2.58,24.58-3.63,46.69,18.94,60.56,12.96,7.97,30.49,9.58,47.28,3.98,3.69-1.23,16.17,7.77,24.9-6.44,3.31-5.39,5.01-12.4,8.36-17.85,0,0,9.65-6.79,17.44-19.47ZM243.14,332.24c-6.37,10.37-26.46,7.83-26.98,7.85-10.36.31-21.36,9.44-36.68.03-13.55-8.33-32.35-45.46-19.71-66.03,4-6.51,11.37-12.59,19.63-7.51,6.99,4.3,12.75,14.88,14.66,24,1.02-10.83-8.42-26.38-3.93-33.69,2.22-3.61,9.23-8.3,19.47-2.01,4.04,2.48,7.32,5.2,9.93,8.12-6.76-18.73-18.86-34.61-13.56-43.24,1.87-3.04,5.08-4.66,8.54-5.64,1.68-.75,3.64-1.1,5.78-1.16,8.3-.21,19.18,4.15,25.53,8.06,34.15,20.99,42.32,51.38,22.99,82.83-5.97,9.72-18.31,15.27-21.9,21.11-1.42,2.31-2.41,5.02-3.8,7.27Z"/>
      <path class="cls-17" d="M251.25,234.16c-5.31-3.26-11.35-5.3-17.45-5.78-.73.77-1.58,1.95-2.65,3.68-10.81,17.6,9.68,37.47,16.76,41.82,5.81,3.57,14.91,6.13,18.85-.29,4.22-6.87,3.48-27.76-15.52-39.44Z"/>
      <path class="cls-4" d="M249.84,229.03c-6.57-4.03-19.39-9.67-24.33-4.41-1.88.66-3.53,2.26-4.53,3.88-9.77,15.9,12.64,35.66,5.53,59.25.49-7.14-2.06-15.74-7.85-19.3-3.08-1.89-8.77-2.85-10.82.5-.01.02-.02.04-.03.06-12.35,20.59-2.79,47.23,11.18,55.81,13.44,8.26,33.02-4.37,42.52-19.83,14.95-24.33,12.83-60.89-11.67-75.94ZM247.92,273.88c-7.08-4.35-27.57-24.22-16.76-41.82,1.06-1.73,1.91-2.91,2.65-3.68,6.09.48,12.14,2.52,17.45,5.78,19,11.67,19.74,32.57,15.52,39.44-3.95,6.42-13.05,3.85-18.85.29Z"/>
      <path class="cls-10" d="M222.11,101.97c4.29-51.66,15.14-53.6,16.13-58.25,2.68-12.56-28.06-6.39-53.7-22.15-9.85-6.06-11.76-19.77-23.17-20.51-9.94-.64-36.94,16.76-45.32,30.98-11.96,20.29,27.64,23.32,32.86,54.82.33,2.01.95,2.53,1.62,2.52,5.47-1.97,10.2-5.52,13.66-11.16,3.48-5.66,4.61-12.41,5.07-19.25,3.31,14.94,10.68,31.99.69,54.21,10.01-5.85,18.53-14.41,24.66-24.4,1.57-2.55,2.98-5.19,4.22-7.91-5.61,18.73-14.5,36.24-2.82,43.42,4.86,2.99,15.78,3.1,21.46-6.15,2.82-4.59,4.18-10.58,4.65-16.17ZM187.73,69.77c-10.95-6.73-13.17-19.54-20.62-24.12-1.29-.79-2.96-1.77-4.71-2.24,5.37,8.34,4.99,18.43.31,26.04-1.62,2.63-6.96,9.95-11.72,7.03-1.62-1-3.27-2.59-4.23-4.2-10.68-18-30.03-30.29-17.52-50.63,5.45-8.86,15.93-15.06,26.65-15.44.6-.13,1.21-.21,1.81-.2.95.02,1.76.04,2.46.06,1.63.5,3.19,1.23,4.67,2.13,5.8,3.56,12.37,13.51,25.24,21.42,6.43,3.95,12.75,5.97,18.86,9.73,11.83,7.27,12.19,13.27,7.28,21.25-5.65,9.2-18.21,15.49-28.47,9.18Z"/>
      <path class="cls-4" d="M208.92,39.34c-6.11-3.75-12.43-5.78-18.86-9.73-12.87-7.91-19.44-17.86-25.24-21.42-1.47-.91-3.04-1.63-4.67-2.13-.7-.02-1.51-.04-2.46-.06-.6-.01-1.21.07-1.81.2-10.72.39-21.2,6.58-26.65,15.44-12.5,20.35,6.85,32.63,17.52,50.63.96,1.62,2.6,3.21,4.23,4.2,4.76,2.92,10.1-4.4,11.72-7.03,4.67-7.61,5.06-17.7-.31-26.04,1.75.47,3.42,1.44,4.71,2.24,7.46,4.58,9.67,17.39,20.62,24.12,10.27,6.31,22.82.02,28.47-9.18,4.9-7.98,4.54-13.98-7.28-21.25ZM194,64.71c-6.43-3.95-14.55-16.22-23.88-22.16-5.64-3.59-8.69-12.06-4.78-18.42.31-.51.67-1.01,1.08-1.48.77-.91,2.23-.32,2.93-.91,2.77,4.08,6.16,7.51,10.29,10.05,5.78,3.55,15.9,6.09,23.6,10.83,7.96,4.89,11.61,9.3,7.3,16.3-5.57,9.06-14.36,7.15-16.54,5.81Z"/>
      <path class="cls-11" d="M231.95,55.77c1.74-5.85,8.54-8.96,8.44-14.62-.6-1.95-2.13-3.84-3.93-5.28-.04-.04-.09-.07-.13-.11-.45-.35-.92-.68-1.39-.97-.53-.32-1.09-.62-1.67-.91-1.07-.52-2.22-.96-3.44-1.36-.51-.16-1.02-.32-1.56-.47-11.54-3.22-28.42-2.73-41-10.46-2.08-1.28-3.78-2.57-5.22-3.87-7.1-6.39-7.6-12.71-13.42-16.28-.8-.49-1.7-.85-2.67-1.09-3.3-.81-7.55-.23-12.38,1.38-14.8,4.92-34.95,19.46-49.35,33.24-.55.52-1.09,1.05-1.62,1.57,1.73,7.07,8.55,10.44,15.69,14.83,1.31.81,2.63,1.6,3.93,2.4,18.11,11.13,25.04,30.27,25.47,47.82.65-3.86.99-7.77,1.03-11.63,0-.47,0-.94,0-1.41.07.46.14.9.2,1.34,1.75,11.71,2.12,20.57,1.33,29.51-.38,4.28-1.03,8.58-1.93,13.22.6-.86,1.18-1.73,1.76-2.62.48-.74.96-1.49,1.43-2.25,1.73-2.81,3.33-5.71,4.83-8.68,3.14-6.19,5.82-12.64,8.19-19.14,1.53-4.18,2.93-8.37,4.25-12.52-1.55,9.7-3.72,19.77-6.58,29.58-2.75,9.41-6.13,18.6-10.23,27.01,1.59-.96,3.15-1.97,4.68-3.02.99-.68,1.96-1.39,2.92-2.11,8.09-6.05,15.27-13.42,21.5-21.47,2.99-3.87,5.77-7.89,8.33-12-1.6,4.92-3.8,9.51-6.47,13.85-3.97,6.46-8.95,12.34-14.42,17.85-4.12,4.15-8.51,8.1-12.96,11.92.88,0,1.89-.06,3.01-.16,4-.35,9.44-1.29,15.46-3.1,9.2-2.76,19.75-7.54,28.55-15.33-7.78,11.04-20.16,13.52-39.18,28.44,5.7-.59,10.77-1.93,15.4-3.68,11.46-6.67,25.91-11.18,37.53-30.08,13.51-21.99,5.08-33.93,15.6-69.36ZM196,124.29c-11.68-7.18-2.79-24.69,2.82-43.42-1.24,2.71-2.65,5.36-4.22,7.91-6.14,9.98-14.65,18.55-24.66,24.4,10-22.22,2.62-39.27-.69-54.21-.46,6.84-1.59,13.6-5.07,19.25-3.46,5.63-8.19,9.18-13.66,11.16-.67.01-1.28-.51-1.62-2.52-5.22-31.5-44.82-34.54-32.86-54.82C124.43,17.82,151.43.41,161.37,1.06c11.41.74,13.32,14.46,23.17,20.51,25.64,15.76,56.38,9.59,53.7,22.15-.99,4.65-11.83,6.59-16.13,58.25-.46,5.59-1.83,11.58-4.65,16.17-5.68,9.25-16.6,9.14-21.46,6.15Z"/>
      <path class="cls-17" d="M203.24,42.6c-7.7-4.73-17.82-7.27-23.6-10.83-4.13-2.54-7.52-5.97-10.29-10.05-.7.59-2.16,0-2.93.91-.4.48-.76.97-1.08,1.48-3.91,6.36-.86,14.83,4.78,18.42,9.33,5.94,17.45,18.21,23.88,22.16,2.18,1.34,10.97,3.25,16.54-5.81,4.3-7,.66-11.41-7.3-16.3Z"/>
      <path class="cls-11" d="M309.08,184.41c-1.76-1.08-3.75-1.95-5.48-3.02-7.11-4.37-13.95-9.5-16.07-16.5-14.01-46.41-21.51-48.14-27.27-55.48-1.38-1.12-2.82-2.15-4.33-3.08-9.65-5.93-20.3-6.35-30.29-3.59-.31,3.07-.82,6.07-1.54,9.01.73-2.67,1.5-4.92,2.62-6.6,2.09-3.14,18.53-4.13,26.4.71,17.83,10.96,26.66,36.2,31.93,56.88,4.38,17.19,34.49,21.48,27.52,32.81-2.64,4.3-23.09,11.15-28.17,16.26-14.61,14.67-20.68,17.3-41.38,3.82-4.62-3.01-22.52-9.92-18.64-13.74,4.1-4.05,19.05-8.73,29.61-4.8-5.57-3.06-11.94-5.58-17.36-8.92-19.47-11.96-10.52-24.74,19.78-17.44-.97-.71-1.98-1.38-3.01-2.02-14.34-8.82-24.52-6.57-30.37-10.17-.03-.02-.06-.04-.1-.06-.68-.28-1.35-.61-2-1.01-7.36-4.52-9.39-14.91-4.99-22.57,4.49-7.81,6.14-15.27,7.63-21.12-1.51,5.36-3.72,10.46-6.65,15.22-8.61,14.01-15.99,15.12-19.98,21.61-.64,1.04-1.11,2.15-1.34,3.34,2.83-.5,5.59-1.19,8.21-2.23-9.27,6.82-19.22,12.69-29.47,18.1,21.29-6.3,44.24-7.12,65.86-1.96-21.09-1.32-42.92,3.73-61.82,13.76,18.24-2.17,37.78,1.44,53.43,11.06,1.68,1.03,3.31,2.13,4.89,3.3-15.13-7.71-32.83-10.09-49.98-8.42,10.42,1.43,20.51,5.18,29.67,10.28-17.18-5.2-36.05-4.24-53.11,1.64,31.01-3.25,62.99,7.09,89.73,23.52,1.47.9,3.09,1.94,3.1,1.94,2.85,1.75,6.11,2.64,9.25,2.67,4.75.05,9.22-1.86,11.59-5.72.09-.15.38-.66.66-1.12,8.55-13.91,27.82-15.82,36.33-24.95.35-4.49-.82-8.93-4.85-11.41Z"/>
      <path class="cls-5" d="M286.4,160.13c-4.8-18.76-12.09-39.33-26.13-50.71,5.76,7.34,13.26,9.08,27.27,55.48,2.11,7,8.95,12.13,16.07,16.5,1.73,1.06,3.72,1.94,5.48,3.02,4.03,2.47,5.2,6.91,4.85,11.41.74-.79,1.4-1.64,1.96-2.56,4.58-7.45-25.38-17.05-29.5-33.13Z"/>
      <path class="cls-15" d="M128.42,178.78c.1-.22.19-.44.29-.66.26-.59.52-1.19.77-1.79.09-.2.17-.41.26-.61.26-.62.53-1.24.79-1.87.08-.18.15-.37.23-.55.27-.65.54-1.29.8-1.95.07-.17.14-.35.21-.52.27-.66.53-1.32.8-1.99.07-.17.14-.35.2-.52.17-.43.34-.87.51-1.3-.96-5.59-.78-11.37.14-17.09-.77,1.88-1.67,3.71-2.73,5.43-1.27,2.07-2.75,3.99-4.46,5.69,2.02-7.26,2.67-14.77,2.93-22.3-2.21,5.98-4.17,12.12-7.49,17.53-.21.33-.42.67-.64.99.81-9.06.3-18.29-2.53-26.91.74,9.25-.6,18.44-4.02,27.15,2-6.08-.68-12.87-4.4-17.96,3.23,7.17,3.75,14.97,2.53,22.59.85.86,1.64,1.72,2.38,2.59.22-.22.42-.46.58-.72.94-1.54.92-3.73.8-5.08,1.21,3.14,3.37,7.93,5.89,9.48,1.6.98,4.03,1.95,5.92,1.81-.05.08-.11.17-.16.26-.25.41-1.77,4.7-.3,9.86.23-.52.46-1.04.69-1.56Z"/>
      <path class="cls-6" d="M126.57,182.91c.26-.57.52-1.14.78-1.72.1-.23.21-.47.31-.7.02-.05.05-.1.07-.15-1.48-5.15.04-9.44.3-9.86.05-.08.11-.17.16-.26-1.89.14-4.32-.83-5.92-1.81-2.53-1.55-4.68-6.34-5.89-9.48.11,1.35.14,3.55-.8,5.08-.16.26-.36.5-.58.72,6.02,7.05,8.61,14.46,10.2,21.17.36-.77.72-1.55,1.08-2.34.1-.22.2-.44.3-.66Z"/>
      <path class="cls-6" d="M128.54,189.39c.34-.4.68-.8,1.03-1.19.24-.26.48-.52.73-.78.26-.28.51-.56.78-.83-1.74-2.09-2.77-4.23-3.34-6.24-.02.05-.05.1-.07.15-.1.23-.21.47-.31.7-.26.57-.52,1.15-.78,1.72-.1.22-.2.44-.3.66-.36.78-.72,1.56-1.08,2.34.49,2.08.9,4.09,1.28,6,.49-.64,1-1.27,1.52-1.89.18-.21.37-.42.55-.63Z"/>
      <path class="cls-15" d="M144.18,173.05c2.06-2.38,3.93-4.92,5.58-7.6.49-.81.97-1.62,1.42-2.45-5.02,4.71-9.61,6.59-12.37,7.27,1.78-2.11,3.39-4.36,4.83-6.71,1.94-3.16,3.6-6.51,5.02-9.93-3.35,3.99-10.09,11.58-15.03,12.51-.12.3-.24.61-.36.91,0,0,0,0,0,0-.17.43-.34.86-.51,1.29-.07.17-.14.35-.2.52-.26.66-.53,1.33-.8,1.99-.07.17-.14.35-.21.52-.27.65-.53,1.3-.8,1.95-.08.18-.15.37-.23.55-.26.63-.53,1.25-.79,1.87-.09.2-.17.41-.26.61-.26.6-.52,1.19-.77,1.79-.1.22-.19.44-.29.66-.23.52-.46,1.04-.69,1.56.58,2.01,1.6,4.14,3.34,6.24.05-.05.09-.1.14-.15.28-.29.57-.58.86-.87.28-.28.56-.57.84-.84.31-.3.63-.6.95-.9.27-.25.53-.51.81-.76.34-.31.69-.61,1.03-.92.26-.23.51-.46.77-.69.37-.32.74-.63,1.12-.94.25-.2.49-.41.74-.62.4-.32.81-.64,1.21-.96.23-.18.46-.37.69-.55.43-.33.87-.66,1.31-.99.21-.16.42-.32.63-.47.46-.34.93-.67,1.41-1.01.19-.14.38-.28.58-.41.49-.34.99-.68,1.49-1.02.18-.12.35-.24.53-.36.52-.35,1.05-.69,1.58-1.04.16-.1.31-.21.47-.31.55-.35,1.11-.7,1.67-1.05.14-.09.27-.17.41-.26.59-.36,1.18-.72,1.77-1.08.11-.07.22-.13.33-.2.62-.37,1.24-.73,1.86-1.1.09-.05.17-.1.26-.15.65-.38,1.31-.75,1.96-1.12.05-.03.11-.06.16-.09h0c.09-.05.17-.1.26-.15,1.05-1.51,2.06-3.05,3.02-4.62,4.57-7.44-2.28,3.7-15.78,10.07Z"/>
      <path class="cls-16" d="M129.74,175.73c.26-.62.53-1.24.79-1.87-.26.63-.53,1.25-.79,1.87Z"/>
      <path class="cls-16" d="M128.7,178.13c.26-.59.52-1.19.77-1.79-.26.6-.52,1.19-.77,1.79Z"/>
      <path class="cls-16" d="M127.35,181.2c-.26.58-.52,1.15-.78,1.72.26-.57.52-1.14.78-1.72Z"/>
      <path class="cls-16" d="M131.77,170.84c.27-.66.53-1.32.8-1.99-.26.66-.53,1.33-.8,1.99Z"/>
      <path class="cls-16" d="M133.28,167.05s0,0,0,0c-.17.43-.34.87-.51,1.3.17-.43.34-.86.51-1.29Z"/>
      <path class="cls-16" d="M127.66,180.5c.02-.05.05-.1.07-.15h0c-.02.05-.05.1-.07.15Z"/>
      <path class="cls-16" d="M130.76,173.31c.27-.65.54-1.29.8-1.95-.27.65-.53,1.3-.8,1.95Z"/>
      <path class="cls-16" d="M125.19,185.91c.36-.77.72-1.55,1.08-2.34-.36.78-.72,1.56-1.08,2.34Z"/>
      <path class="cls-16" d="M127.73,180.34h0c.23-.52.46-1.04.69-1.56-.23.52-.46,1.04-.69,1.56Z"/>
      <path class="cls-6" d="M139.53,203.23c-6.14-3.77-6.8-8.38-5-11.3.23-.37.6-.86,1.07-1.26-1.88-1.3-3.36-2.68-4.53-4.08-.26.27-.52.55-.78.83-.24.26-.49.52-.73.78-.35.39-.69.79-1.03,1.19-.18.21-.37.42-.55.63-.52.62-1.02,1.25-1.52,1.89.35,1.76.69,3.44,1.06,5,2.49,3.16,5.22,6.21,8.17,8.96,1.79-.66,3.61-1.26,5.44-1.78-.56-.27-1.1-.56-1.6-.88Z"/>
      <path class="cls-15" d="M146.01,195.95c6.35-8.03,14.8-16.23,24.25-15.84-9.27-2.36-19.67-1.61-29.06,1.12,5.93-3.61,11.46-7.92,15.47-13.48-.05.03-.11.06-.16.09-.66.37-1.31.74-1.96,1.12-.09.05-.18.1-.26.15-.62.36-1.25.73-1.86,1.1-.11.07-.22.13-.33.2-.59.36-1.18.71-1.77,1.08-.14.09-.27.17-.41.26-.56.35-1.12.7-1.67,1.05-.16.1-.31.2-.47.31-.53.34-1.06.69-1.58,1.04-.18.12-.35.24-.53.36-.5.34-1,.68-1.49,1.02-.19.14-.38.28-.58.41-.47.33-.94.67-1.41,1.01-.21.16-.42.32-.63.47-.44.33-.88.65-1.31.99-.23.18-.46.36-.69.55-.4.32-.81.63-1.21.96-.25.2-.49.41-.74.62-.37.31-.75.62-1.12.94-.26.23-.52.46-.77.69-.35.3-.69.61-1.03.92-.27.25-.54.51-.81.76-.32.3-.64.59-.95.9-.28.28-.56.56-.84.84-.29.29-.58.57-.86.87-.05.05-.09.1-.14.15,1.17,1.4,2.65,2.78,4.53,4.08-.47.4-.85.89-1.07,1.26-1.8,2.93-1.14,7.53,5,11.3.51.31,1.05.6,1.6.88,1-.29,2.01-.56,3.03-.79.62-.19,1.23-.36,1.85-.54.1-.03.19-.06.29-.08,5.61-3.37,11.9-5.79,18.1-7.5-5.9-1.69-12.52-1.37-18.39.76Z"/>
      <path class="cls-16" d="M126.47,191.91c.49-.64,1-1.27,1.52-1.89-.52.62-1.02,1.25-1.52,1.89Z"/>
      <path class="cls-16" d="M149.91,171.75c.14-.09.27-.17.41-.26-.14.09-.27.17-.41.26Z"/>
      <path class="cls-16" d="M129.57,188.19c-.35.39-.69.79-1.03,1.19.34-.4.68-.8,1.03-1.19Z"/>
      <path class="cls-16" d="M145.66,174.5c.18-.12.35-.24.53-.36-.18.12-.35.24-.53.36Z"/>
      <path class="cls-16" d="M130.3,187.41c.26-.28.51-.56.78-.83h0c-.26.27-.52.55-.78.83Z"/>
      <path class="cls-16" d="M141.55,177.42c.21-.16.42-.32.63-.47-.21.16-.42.32-.63.47Z"/>
      <path class="cls-16" d="M147.77,173.11c.16-.1.31-.21.47-.31-.16.1-.31.2-.47.31Z"/>
      <path class="cls-16" d="M139.55,178.95c.23-.18.46-.37.69-.55-.23.18-.46.36-.69.55Z"/>
      <path class="cls-16" d="M154.28,169.12c.09-.05.17-.1.26-.15-.09.05-.18.1-.26.15Z"/>
      <path class="cls-16" d="M152.09,170.41c.11-.07.22-.13.33-.2-.11.07-.22.13-.33.2Z"/>
      <path class="cls-16" d="M143.59,175.94c.19-.14.38-.28.58-.41-.19.14-.38.28-.58.41Z"/>
      <path class="cls-16" d="M135.71,182.15c.26-.23.51-.46.77-.69-.26.23-.52.46-.77.69Z"/>
      <path class="cls-16" d="M133.86,183.82c.27-.25.53-.51.81-.76-.27.25-.54.51-.81.76Z"/>
      <path class="cls-16" d="M156.51,167.84c.05-.03.11-.06.16-.09h0c-.05.03-.11.06-.16.09Z"/>
      <path class="cls-16" d="M132.07,185.56c.28-.28.56-.57.84-.84-.28.28-.56.56-.84.84Z"/>
      <path class="cls-16" d="M131.07,186.58h0s.09-.1.14-.15c-.05.05-.09.1-.14.15Z"/>
      <path class="cls-16" d="M137.6,180.52c.25-.2.49-.41.74-.62-.25.2-.49.41-.74.62Z"/>
      <path class="cls-6" d="M146.21,206c-1.73-.48-3.48-1.11-5.08-1.9-1.83.52-3.64,1.12-5.44,1.78,2.67,2.49,5.53,4.75,8.57,6.62.7.43,1.41.83,2.13,1.22.74.4,1.49.78,2.25,1.13-2.32-2.82-3.83-5.96-2.43-8.84Z"/>
      <path class="cls-15" d="M159.2,212.33c-.83-.65-1.69-1.26-2.59-1.81-2.31-1.42-4.83-2.47-7.47-2.99,5.1-1.71,10.88-1.07,16.12.04-.46-.33-.93-.64-1.4-.94-4.88-3-10.49-4.2-16.19-4.32-.55.15-1.11.3-1.66.45-.62.17-1.23.35-1.85.54-1.02.23-2.02.5-3.03.79,1.6.79,3.35,1.43,5.08,1.9-1.4,2.88.12,6.02,2.43,8.84.82.38,1.65.73,2.49,1.05.04.09.08.18.12.27.93.1,1.85.34,2.72.74-.93-1.54-2.2-2.83-3.71-3.76-.37-.23-.76-.43-1.16-.61,3.23-1.07,6.8-1.15,10.1-.21Z"/>
      <path class="cls-16" d="M146.01,202.78c-.62.17-1.23.35-1.85.54.62-.19,1.23-.36,1.85-.54Z"/>
      <path class="cls-2" d="M256.98,163.56c.04-.34.07-.67.08-1.01-32.54-10.92-101.25-.25-136.86,25.1.1.48.22.96.34,1.44,12-3.66,34.83-19.16,58.17-24.24,19.8-4.31,54.68-8.5,78.26-1.27Z"/>
      <path class="cls-19" d="M256.98,163.56c-23.58-7.23-58.47-3.04-78.26,1.27-23.34,5.09-46.18,20.58-58.17,24.24.27,1.06.59,2.1.94,3.13,10.25-.25,36.13-17.37,56.45-24.3,12.39-4.23,25.47-6.23,38.32-5.83,13.62-1.42,27.32-.97,40.69,1.82.02-.11.03-.22.04-.33Z"/>
      <path class="cls-13" d="M177.93,167.9c-20.31,6.93-46.19,24.05-56.45,24.3.78,2.24,1.76,4.41,2.97,6.44,26.18-18.69,58.75-33.13,91.8-36.57-12.85-.4-25.93,1.6-38.32,5.83Z"/>
      <g>
        <path class="cls-9" d="M263.59,160.29c.46-.67.52-2.07-.18-2.56-.49-.34-1.37-.29-1.86.42-.13.19-.26.59-.33,1.01.34.38.75.71,1.11.97.32.22.63.39.93.51.11-.09.21-.18.29-.28.01-.02.03-.04.04-.06Z"/>
        <path class="cls-20" d="M265.41,159.85s.03-.05.04-.07c.34-1.13.1-1.97-.25-2.21-.18-.13-.35-.28-.54-.41-1.04-.72-2.7-.78-3.87-.52,0,0-.02.02-.02.03-.6.86-.19,1.75.45,2.47.07-.42.2-.82.33-1.01.49-.71,1.37-.76,1.86-.42.7.49.64,1.9.18,2.56-.01.02-.03.04-.04.06-.08.1-.18.19-.29.28.77.29,1.49.17,2.15-.77Z"/>
        <path class="cls-1" d="M264.66,157.17c.18.13.35.28.54.41.35.24.59,1.08.25,2.21,1.18-1.79-.1-3.48-.93-4.06-.18-.13-.4-.22-.6-.24-1.12-.1-2.47.26-3.13,1.17,1.17-.27,2.83-.2,3.87.52Z"/>
      </g>
      <g>
        <path class="cls-9" d="M267.08,164.29c.4.28.89.35,1.39.32.03-.04.08-.07.11-.12.31-.44.39-1.3-.12-1.65-.34-.24-1.2-.48-1.84-.46-.35.62-.12,1.49.46,1.9Z"/>
        <path class="cls-1" d="M269.37,164.38s-.03.04-.05.06c.59-.18,1.08-.48,1.25-.73.44-.64-.06-2.07-.93-2.67h0c-.43-.3-1.48.15-2.23.62.66-.09,1.42-.03,1.83.25.88.61.53,1.88.12,2.46Z"/>
        <path class="cls-20" d="M268.57,164.49s-.07.08-.11.12c.29-.02.58-.08.85-.16.01-.02.03-.04.05-.06.4-.58.76-1.85-.12-2.46-.41-.28-1.17-.34-1.83-.25-.35.23-.64.46-.75.62-.02.03-.03.07-.05.1.64-.02,1.5.22,1.84.46.5.35.43,1.2.12,1.65Z"/>
      </g>
      <g>
        <path class="cls-20" d="M263.87,168.67c.43-.62.03-2.1-.93-3.02-.34-.03-.73,0-1.12.08.27.16.55.35.65.42.01,0,.02.01.03.02.3.21.44.95.01,1.56-.57.82-1.63.58-2.41.04-.12-.08-.23-.18-.34-.29-.07.43.12.93.91,1.47,0,0,0,0,0,0,1.59.21,2.99,0,3.19-.29Z"/>
        <path class="cls-1" d="M264.87,167.92c-.21-.69-.49-1.32-.9-1.84-.06-.08-.13-.14-.21-.2-.18-.12-.46-.2-.81-.23.96.92,1.36,2.4.93,3.02-.2.29-1.61.5-3.19.29,1.25.86,3.24,1.04,4.05-.12.19-.27.25-.57.14-.92Z"/>
        <path class="cls-9" d="M262.51,167.72c.42-.61.29-1.35-.01-1.56,0,0-.02-.01-.03-.02-.1-.06-.38-.26-.65-.42-.68.15-1.35.48-1.75,1.04-.15.21-.28.45-.32.7.11.11.22.2.34.29.78.54,1.84.77,2.41-.04Z"/>
      </g>
      <g>
        <path class="cls-20" d="M255.76,165.93c.38-.55.41-1.99.12-3.36-.45.06-1.08.27-1.72.59.24.08.48.19.7.35.03.02.05.04.08.05.49.34.4,1.32.02,1.88-.34.49-1.45,1.26-2.59.47-.11-.08-.26-.22-.41-.4-.04.31.02.61.18.89,1.34.45,2.96.51,3.63-.46Z"/>
        <path class="cls-1" d="M256.57,162.75c-.04-.07-.09-.11-.14-.15-.09-.06-.28-.07-.54-.04.29,1.38.26,2.82-.12,3.36-.67.97-2.29.91-3.63.46.12.21.29.41.53.58.77.54,2.97.99,3.85-.28.58-.84.61-1.48.56-2.24-.03-.64-.2-1.21-.52-1.7Z"/>
        <path class="cls-9" d="M254.96,165.43c.38-.55.48-1.53-.02-1.88-.03-.02-.05-.04-.08-.05-.23-.16-.47-.26-.7-.35-.72.36-1.44.87-1.87,1.49-.19.27-.3.56-.33.84.15.18.3.32.41.4,1.14.79,2.25.02,2.59-.47Z"/>
      </g>
      <g>
        <path class="cls-9" d="M250.26,157.34c1.08.22,2.88-.46,3.11-1.6.16-.8-.38-1.87-1.53-2.11-.31-.06-.87,0-1.44.13-.29.63-.49,1.32-.61,1.91-.11.52-.15,1-.13,1.44.17.09.34.17.51.21.03,0,.06.01.09.02Z"/>
        <path class="cls-20" d="M251.78,159.38s.07,0,.11.02c1.6-.18,2.51-.94,2.63-1.5.06-.3.16-.59.22-.89.34-1.68-.48-3.8-1.44-5.12-.02,0-.03-.01-.05-.01-1.39-.28-2.29.7-2.84,1.89.56-.13,1.13-.19,1.44-.13,1.15.23,1.69,1.31,1.53,2.11-.23,1.14-2.02,1.82-3.11,1.6-.03,0-.06-.01-.09-.02-.17-.04-.34-.12-.51-.21.05,1.12.59,1.96,2.12,2.27Z"/>
        <path class="cls-1" d="M254.73,157c-.06.3-.16.59-.22.89-.11.56-1.03,1.32-2.63,1.5,2.88.51,4.3-2,4.57-3.35.06-.3.06-.62-.03-.88-.48-1.45-1.65-2.95-3.14-3.28.96,1.32,1.78,3.43,1.44,5.12Z"/>
      </g>
      <g>
        <path class="cls-9" d="M244.16,163.69c-.13.65.04,1.31.35,1.91.07.02.13.06.2.07.72.15,1.83-.22,2-1.04.11-.56-.05-1.75-.42-2.55-.96-.1-1.94.65-2.13,1.6Z"/>
        <path class="cls-1" d="M245.27,166.6s-.07-.02-.1-.03c.55.64,1.19,1.09,1.59,1.17,1.04.21,2.55-1.19,2.83-2.6h0c.14-.7-.99-1.78-1.98-2.45.46.78.8,1.76.67,2.42-.29,1.42-2.06,1.67-3.01,1.48Z"/>
        <path class="cls-20" d="M244.71,165.67c-.07-.01-.13-.05-.2-.07.18.35.41.69.66.98.03,0,.07.02.1.03.95.19,2.72-.05,3.01-1.48.13-.66-.21-1.64-.67-2.42-.47-.32-.92-.55-1.18-.6-.05-.01-.1,0-.15-.01.37.8.53,1.99.42,2.55-.17.82-1.27,1.18-2,1.04Z"/>
      </g>
      <g>
        <path class="cls-20" d="M239.04,164.73c1.01.2,2.64-1.09,3.27-2.79-.15-.44-.39-.91-.7-1.35-.05.42-.15.87-.17,1.03,0,.02,0,.03,0,.05-.1.48-.95,1.06-1.94.85-1.33-.27-1.61-1.73-1.35-2.99.04-.19.1-.39.18-.58-.58.15-1.09.65-1.35,1.93,0,0,0,0,0,.01.59,2.1,1.61,3.74,2.08,3.84Z"/>
        <path class="cls-1" d="M240.51,165.58c.74-.64,1.39-1.32,1.82-2.12.06-.12.11-.25.13-.38.06-.28,0-.69-.15-1.13-.64,1.7-2.27,2.99-3.27,2.79-.48-.1-1.49-1.74-2.08-3.84-.41,2.03.44,4.61,2.33,5,.44.09.85,0,1.22-.32Z"/>
        <path class="cls-9" d="M239.49,162.53c.99.2,1.84-.37,1.94-.85,0-.02,0-.03,0-.05.02-.16.12-.61.17-1.03-.55-.77-1.32-1.43-2.24-1.62-.35-.07-.71-.1-1.05-.02-.07.19-.14.39-.18.58-.26,1.26.03,2.72,1.35,2.99Z"/>
      </g>
      <g>
        <path class="cls-20" d="M241.84,154.48c.89.18,2.71-.55,4.27-1.66-.32-.52-.92-1.21-1.66-1.83.03.34.02.7-.05,1.07,0,.04-.02.08-.03.12-.16.8-1.44,1.21-2.34,1.03-.8-.16-2.36-1.14-1.98-2.99.04-.19.14-.45.28-.73-.4.12-.76.35-1.02.7.15,1.92.96,3.97,2.53,4.29Z"/>
        <path class="cls-1" d="M246.24,153.77c.06-.09.09-.18.11-.26.03-.15-.06-.39-.24-.69-1.56,1.1-3.38,1.84-4.27,1.66-1.57-.32-2.37-2.37-2.53-4.29-.2.26-.35.58-.43.98-.25,1.25.37,4.25,2.42,4.67,1.37.28,2.18-.04,3.1-.5.78-.39,1.41-.9,1.84-1.56Z"/>
        <path class="cls-9" d="M242.03,153.21c.9.18,2.18-.23,2.34-1.03,0-.04.02-.08.03-.12.08-.37.08-.72.05-1.07-.85-.71-1.87-1.33-2.88-1.54-.43-.09-.85-.07-1.23.04-.14.29-.24.55-.28.73-.38,1.85,1.18,2.82,1.98,2.99Z"/>
      </g>
      <g>
        <path class="cls-9" d="M230.9,162.4c.62.96.64,2.95-.37,3.61-.71.46-1.95.34-2.61-.68-.18-.27-.34-.84-.42-1.44.5-.52,1.09-.97,1.61-1.31.46-.3.91-.53,1.34-.67.15.13.29.27.39.41.02.03.04.05.05.08Z"/>
        <path class="cls-20" d="M233.44,163.1s.04.07.06.1c.43,1.62.04,2.78-.46,3.1-.27.17-.51.37-.78.55-1.5.97-3.85.97-5.49.54,0-.01-.02-.03-.03-.04-.8-1.24-.19-2.48.76-3.46.08.59.24,1.16.42,1.44.66,1.02,1.9,1.14,2.61.68,1.01-.65,1-2.64.37-3.61-.02-.03-.04-.05-.05-.08-.1-.15-.24-.28-.39-.41,1.1-.37,2.11-.17,2.99,1.19Z"/>
        <path class="cls-1" d="M232.25,166.85c.27-.17.51-.37.78-.55.5-.32.89-1.49.46-3.1,1.58,2.59-.31,4.91-1.51,5.68-.27.17-.58.29-.86.31-1.58.09-3.48-.48-4.36-1.8,1.64.43,3.99.43,5.49-.54Z"/>
      </g>
      <g>
        <path class="cls-20" d="M234.03,151.44c.58.89-.06,2.96-1.46,4.21-.48.02-1.02-.03-1.57-.17.39-.21.79-.47.93-.55.01,0,.03-.02.04-.03.43-.28.66-1.31.09-2.2-.76-1.18-2.28-.9-3.4-.18-.17.11-.34.24-.49.39-.08-.62.21-1.3,1.35-2.03,0,0,0,0,.01,0,2.25-.22,4.22.14,4.49.56Z"/>
        <path class="cls-1" d="M235.4,152.54c-.34.96-.75,1.84-1.37,2.55-.09.11-.2.2-.31.27-.25.16-.66.26-1.15.28,1.4-1.25,2.03-3.32,1.46-4.21-.27-.42-2.24-.79-4.49-.56,1.81-1.16,4.62-1.31,5.71.37.25.39.32.82.15,1.3Z"/>
        <path class="cls-9" d="M232.07,152.7c.57.88.34,1.92-.09,2.2-.01,0-.03.02-.04.03-.14.08-.54.34-.93.55-.95-.24-1.89-.74-2.41-1.56-.2-.31-.37-.65-.41-1.01.16-.14.32-.28.49-.39,1.12-.72,2.64-1,3.4.18Z"/>
      </g>
      <g>
        <path class="cls-20" d="M222.12,152.24c.51.79.49,2.82.01,4.75-.62-.11-1.51-.43-2.4-.92.34-.1.68-.24,1.01-.45.04-.02.07-.05.11-.07.71-.46.63-1.85.11-2.65-.46-.71-1.99-1.84-3.63-.79-.17.11-.38.3-.6.55-.04-.43.05-.86.29-1.25,1.91-.58,4.2-.57,5.1.82Z"/>
        <path class="cls-1" d="M223.1,156.76c-.06.09-.13.16-.21.21-.13.08-.4.09-.76.02.48-1.93.5-3.96-.01-4.75-.9-1.4-3.18-1.4-5.1-.82.18-.29.43-.56.78-.79,1.12-.72,4.24-1.25,5.42.58.78,1.21.78,2.12.69,3.18-.08.9-.34,1.7-.82,2.37Z"/>
        <path class="cls-9" d="M220.97,152.91c.51.8.6,2.19-.11,2.65-.04.02-.07.05-.11.07-.33.21-.67.35-1.01.45-1-.55-1.99-1.31-2.57-2.2-.25-.39-.39-.8-.43-1.21.22-.25.44-.44.6-.55,1.64-1.06,3.17.08,3.63.79Z"/>
      </g>
      <g>
        <path class="cls-9" d="M215.25,164.7c1.54-.26,4.04.79,4.31,2.41.19,1.13-.62,2.62-2.26,2.9-.44.07-1.23-.03-2.02-.25-.38-.9-.63-1.88-.77-2.72-.12-.73-.17-1.42-.12-2.04.24-.12.49-.22.73-.27.04,0,.09-.02.13-.02Z"/>
        <path class="cls-20" d="M217.49,161.9c.05,0,.1,0,.15-.02,2.25.33,3.5,1.45,3.63,2.25.07.42.19.84.26,1.27.4,2.39-.86,5.34-2.28,7.15-.02,0-.04.01-.07.02-1.98.33-3.2-1.1-3.92-2.81.79.22,1.58.32,2.02.25,1.64-.27,2.45-1.76,2.26-2.9-.27-1.62-2.77-2.67-4.31-2.41-.04,0-.09.02-.13.02-.24.05-.48.15-.73.27.12-1.58.92-2.73,3.1-3.1Z"/>
        <path class="cls-1" d="M221.54,165.4c-.07-.42-.19-.84-.26-1.27-.13-.8-1.38-1.92-3.63-2.25,4.08-.58,5.97,3.03,6.29,4.94.07.42.05.88-.08,1.24-.75,2.03-2.48,4.09-4.6,4.48,1.42-1.81,2.68-4.76,2.28-7.15Z"/>
      </g>
      <g>
        <path class="cls-9" d="M205.64,154.84c-.15-.92.12-1.85.59-2.68.1-.03.19-.07.29-.09,1.03-.17,2.57.39,2.77,1.56.13.79-.16,2.47-.72,3.57-1.36.1-2.7-1.01-2.93-2.36Z"/>
        <path class="cls-1" d="M207.35,150.78s-.1.02-.14.03c.81-.87,1.73-1.48,2.3-1.58,1.47-.25,3.54,1.81,3.87,3.8h0c.17,1-1.48,2.46-2.91,3.36.69-1.08,1.22-2.45,1.06-3.39-.34-2.02-2.83-2.46-4.18-2.23Z"/>
        <path class="cls-20" d="M206.51,152.07c-.1.02-.19.06-.29.09.28-.49.62-.95.98-1.35.05,0,.1-.03.14-.03,1.34-.23,3.84.21,4.18,2.23.16.94-.37,2.31-1.06,3.39-.68.43-1.32.73-1.69.8-.07.01-.14,0-.21.01.56-1.1.85-2.78.72-3.57-.19-1.16-1.74-1.73-2.77-1.56Z"/>
      </g>
      <g>
        <path class="cls-20" d="M199.18,152.06c1.65-.28,4.23,1.92,5.17,4.72-.27.7-.68,1.46-1.22,2.16-.06-.69-.19-1.43-.22-1.69,0-.03,0-.05-.01-.08-.13-.79-1.48-1.77-3.11-1.5-2.18.36-2.72,2.72-2.37,4.79.05.32.14.64.25.96-.93-.27-1.74-1.11-2.09-3.21,0,0,0-.01,0-.02,1.08-3.38,2.83-6,3.61-6.13Z"/>
        <path class="cls-1" d="M201.63,150.77c1.17,1.08,2.18,2.23,2.84,3.56.1.2.16.4.2.62.08.47-.04,1.12-.31,1.83-.94-2.8-3.52-5-5.17-4.72-.78.13-2.53,2.74-3.61,6.13-.55-3.33.98-7.48,4.08-8,.72-.12,1.38.04,1.97.59Z"/>
        <path class="cls-9" d="M199.79,155.67c1.63-.27,2.98.71,3.11,1.5,0,.03,0,.05.01.08.03.26.16.99.22,1.69-.94,1.22-2.24,2.26-3.75,2.51-.57.1-1.16.13-1.71-.03-.11-.32-.2-.64-.25-.96-.35-2.07.2-4.43,2.37-4.79Z"/>
      </g>
      <g>
        <path class="cls-20" d="M201.87,170.75c1.26-.21,3.79.91,5.94,2.55-.47.72-1.35,1.66-2.44,2.51.05-.48.07-.98-.02-1.51,0-.06-.02-.12-.03-.18-.19-1.14-1.97-1.78-3.25-1.57-1.13.19-3.38,1.49-2.94,4.12.04.26.18.63.36,1.05-.56-.19-1.05-.53-1.4-1.04.31-2.7,1.54-5.55,3.77-5.93Z"/>
        <path class="cls-1" d="M208.04,171.97c.08.13.12.25.14.37.03.21-.11.55-.38.96-2.15-1.63-4.68-2.76-5.94-2.55-2.23.37-3.46,3.23-3.77,5.93-.27-.38-.47-.84-.56-1.4-.3-1.78.73-5.98,3.64-6.46,1.94-.32,3.07.16,4.35.86,1.08.58,1.94,1.34,2.52,2.3Z"/>
        <path class="cls-9" d="M202.08,172.56c1.27-.21,3.06.43,3.25,1.57,0,.06.02.12.03.18.09.53.07,1.02.02,1.51-1.23.96-2.71,1.79-4.14,2.03-.62.1-1.21.06-1.74-.12-.19-.41-.32-.78-.36-1.05-.44-2.62,1.81-3.93,2.94-4.12Z"/>
      </g>
      <g>
        <path class="cls-9" d="M184.57,155.57c1.25.25,3.32-.53,3.59-1.85.19-.92-.43-2.16-1.76-2.43-.35-.07-1.01,0-1.66.15-.34.73-.57,1.52-.7,2.2-.12.6-.18,1.15-.15,1.66.2.1.39.19.59.24.03,0,.07.02.1.02Z"/>
        <path class="cls-20" d="M186.32,157.92s.08.01.12.02c1.85-.21,2.9-1.08,3.03-1.73.07-.35.18-.68.25-1.03.39-1.94-.55-4.38-1.66-5.9-.02,0-.04-.01-.05-.02-1.61-.33-2.64.81-3.28,2.18.65-.15,1.3-.22,1.66-.15,1.33.27,1.95,1.51,1.76,2.43-.27,1.31-2.34,2.1-3.59,1.85-.04,0-.07-.02-.1-.02-.19-.05-.39-.14-.59-.24.06,1.29.68,2.26,2.45,2.62Z"/>
        <path class="cls-1" d="M189.73,155.18c-.07.35-.18.68-.25,1.03-.13.65-1.18,1.53-3.03,1.73,3.32.59,4.96-2.31,5.28-3.86.07-.34.07-.72-.03-1.02-.55-1.68-1.91-3.41-3.63-3.79,1.11,1.52,2.06,3.96,1.66,5.9Z"/>
      </g>
      <g>
        <path class="cls-9" d="M205.44,165.03c-.15.74.04,1.51.4,2.21.08.03.15.06.23.08.83.17,2.11-.25,2.31-1.19.13-.64-.06-2.02-.48-2.94-1.11-.12-2.23.75-2.46,1.85Z"/>
        <path class="cls-1" d="M206.72,168.4s-.08-.02-.12-.03c.63.74,1.37,1.26,1.83,1.35,1.2.24,2.94-1.38,3.27-3h0c.16-.81-1.14-2.05-2.28-2.83.53.9.93,2.04.77,2.8-.33,1.64-2.38,1.93-3.47,1.71Z"/>
        <path class="cls-20" d="M206.07,167.32c-.08-.02-.15-.06-.23-.08.21.41.48.79.77,1.13.04,0,.08.02.12.03,1.09.22,3.14-.06,3.47-1.71.15-.76-.24-1.9-.77-2.8-.55-.37-1.06-.64-1.36-.7-.06-.01-.12,0-.18-.01.42.92.61,2.3.48,2.94-.19.94-1.47,1.36-2.31,1.19Z"/>
      </g>
      <g>
        <path class="cls-20" d="M187.23,179.62c1.18-.12,2.54-2.1,2.66-4.18-.31-.43-.74-.87-1.23-1.25.08.49.13,1.01.16,1.19,0,.02,0,.04,0,.05.06.57-.69,1.49-1.85,1.6-1.56.15-2.36-1.36-2.51-2.84-.02-.23-.02-.46,0-.7-.59.36-.99,1.08-.84,2.58,0,0,0,.01,0,.02,1.36,2.12,3.04,3.58,3.6,3.52Z"/>
        <path class="cls-1" d="M189.14,180.05c.6-.95,1.08-1.93,1.28-2.96.03-.15.04-.31.02-.46-.03-.33-.23-.76-.55-1.2-.12,2.09-1.49,4.07-2.66,4.18-.56.05-2.24-1.41-3.6-3.52.24,2.37,2.06,4.94,4.27,4.72.51-.05.94-.28,1.24-.77Z"/>
        <path class="cls-9" d="M186.98,177.03c1.16-.11,1.91-1.03,1.85-1.6,0-.02,0-.04,0-.05-.03-.18-.08-.71-.16-1.19-.87-.66-1.95-1.13-3.03-1.03-.41.04-.82.13-1.17.34-.02.24-.02.47,0,.7.15,1.48.95,2.99,2.51,2.84Z"/>
      </g>
      <g>
        <path class="cls-20" d="M191.12,169.49c1.03.21,3.12-.64,4.93-1.91-.37-.6-1.06-1.4-1.92-2.12.03.4.03.8-.06,1.23,0,.05-.02.1-.03.14-.19.92-1.66,1.4-2.7,1.19-.92-.19-2.72-1.32-2.28-3.45.04-.21.16-.51.33-.85-.47.14-.87.41-1.18.81.18,2.21,1.1,4.58,2.91,4.95Z"/>
        <path class="cls-1" d="M196.2,168.67c.07-.1.11-.2.13-.3.03-.17-.07-.45-.28-.79-1.8,1.27-3.9,2.12-4.93,1.91-1.81-.37-2.74-2.73-2.91-4.95-.23.3-.41.67-.5,1.13-.29,1.45.42,4.9,2.79,5.38,1.58.32,2.51-.05,3.58-.58.9-.45,1.62-1.04,2.12-1.8Z"/>
        <path class="cls-9" d="M191.35,168.02c1.04.21,2.51-.27,2.7-1.19,0-.05.02-.1.03-.14.09-.43.09-.83.06-1.23-.98-.82-2.16-1.54-3.32-1.78-.5-.1-.99-.08-1.42.05-.16.33-.28.63-.33.85-.43,2.13,1.36,3.26,2.28,3.45Z"/>
      </g>
      <g>
        <path class="cls-9" d="M180.21,174.77c.72,1.11.74,3.41-.43,4.16-.82.53-2.25.4-3.01-.79-.2-.31-.39-.97-.48-1.66.58-.6,1.26-1.12,1.86-1.51.53-.34,1.05-.61,1.55-.78.17.15.33.31.46.47.02.03.04.06.06.09Z"/>
        <path class="cls-20" d="M183.15,175.58s.04.08.06.11c.5,1.86.05,3.21-.53,3.58-.31.2-.59.43-.9.63-1.73,1.11-4.44,1.12-6.33.62-.01-.02-.03-.03-.04-.05-.92-1.43-.21-2.86.87-3.99.1.69.28,1.34.48,1.66.76,1.18,2.19,1.31,3.01.79,1.17-.75,1.15-3.05.43-4.16-.02-.03-.04-.06-.06-.09-.12-.17-.28-.32-.46-.47,1.27-.43,2.44-.2,3.45,1.38Z"/>
        <path class="cls-1" d="M181.78,179.91c.31-.2.59-.43.9-.63.58-.37,1.03-1.72.53-3.58,1.83,2.98-.36,5.66-1.74,6.55-.31.2-.67.34-.99.35-1.83.1-4.01-.56-5.03-2.07,1.89.5,4.6.49,6.33-.62Z"/>
      </g>
      <g>
        <path class="cls-20" d="M182.31,153.42c.67,1.03-.07,3.41-1.68,4.86-.55.02-1.18-.04-1.81-.2.45-.24.91-.55,1.07-.64.02,0,.03-.02.05-.03.5-.32.76-1.52.11-2.53-.88-1.36-2.63-1.04-3.92-.21-.2.13-.39.28-.57.45-.09-.71.25-1.5,1.56-2.35,0,0,0,0,.01,0,2.6-.26,4.87.16,5.18.65Z"/>
        <path class="cls-1" d="M183.89,154.7c-.39,1.1-.87,2.12-1.58,2.95-.11.12-.23.23-.36.31-.29.19-.77.3-1.33.32,1.62-1.45,2.35-3.83,1.68-4.86-.31-.49-2.59-.91-5.18-.65,2.08-1.34,5.33-1.51,6.59.43.29.45.37.94.18,1.5Z"/>
        <path class="cls-9" d="M180.05,154.88c.66,1.02.39,2.21-.11,2.53-.02.01-.03.02-.05.03-.17.09-.62.39-1.07.64-1.09-.28-2.18-.85-2.78-1.8-.23-.36-.43-.75-.48-1.17.18-.17.37-.32.57-.45,1.3-.84,3.04-1.16,3.92.21Z"/>
      </g>
      <g>
        <path class="cls-20" d="M178.08,166.84c.59.91.56,3.26.01,5.48-.72-.13-1.75-.5-2.77-1.06.39-.12.79-.28,1.17-.52.04-.03.08-.05.13-.08.82-.53.72-2.13.13-3.05-.53-.82-2.3-2.13-4.19-.91-.19.12-.44.35-.69.63-.04-.5.06-.99.34-1.44,2.21-.67,4.84-.66,5.88.95Z"/>
        <path class="cls-1" d="M179.2,172.05c-.07.1-.15.18-.24.24-.15.1-.47.1-.87.03.55-2.22.58-4.57-.01-5.48-1.04-1.61-3.67-1.61-5.88-.95.21-.34.5-.65.9-.91,1.29-.83,4.9-1.44,6.25.67.9,1.4.9,2.44.79,3.67-.09,1.04-.39,1.96-.94,2.73Z"/>
        <path class="cls-9" d="M176.74,167.6c.59.92.69,2.52-.13,3.05-.04.03-.09.06-.13.08-.38.24-.77.4-1.17.52-1.16-.63-2.3-1.51-2.97-2.54-.29-.44-.45-.92-.49-1.39.26-.28.5-.51.69-.63,1.89-1.22,3.66.09,4.19.91Z"/>
      </g>
      <g>
        <path class="cls-9" d="M162.36,172.07c1.78-.3,4.66.91,4.97,2.78.22,1.31-.72,3.03-2.61,3.34-.5.08-1.42-.04-2.33-.29-.44-1.04-.72-2.17-.88-3.14-.14-.85-.19-1.63-.14-2.35.28-.14.56-.25.84-.31.05-.01.1-.02.15-.03Z"/>
        <path class="cls-20" d="M164.95,168.84c.06-.01.12-.01.18-.02,2.6.38,4.04,1.67,4.19,2.59.08.49.22.97.3,1.46.46,2.76-.99,6.16-2.63,8.25-.03,0-.05.02-.08.02-2.29.38-3.69-1.27-4.52-3.24.91.25,1.83.37,2.33.29,1.89-.32,2.82-2.03,2.61-3.34-.31-1.87-3.19-3.08-4.97-2.78-.05,0-.1.02-.15.03-.27.06-.56.18-.84.31.14-1.82,1.07-3.15,3.58-3.58Z"/>
        <path class="cls-1" d="M169.63,172.88c-.08-.49-.22-.97-.3-1.46-.15-.93-1.6-2.21-4.19-2.59,4.71-.67,6.89,3.5,7.26,5.71.08.49.06,1.02-.09,1.43-.86,2.34-2.86,4.72-5.3,5.17,1.64-2.09,3.1-5.49,2.63-8.25Z"/>
      </g>
      <g>
        <path class="cls-9" d="M165.7,163.16c-.18-1.06.14-2.13.68-3.09.11-.03.22-.08.33-.1,1.19-.2,2.97.46,3.19,1.8.15.91-.18,2.85-.83,4.12-1.57.11-3.11-1.17-3.38-2.73Z"/>
        <path class="cls-1" d="M167.68,158.47c-.05,0-.11.03-.17.04.93-1.01,1.99-1.71,2.65-1.82,1.7-.28,4.08,2.09,4.47,4.39h0c.19,1.15-1.71,2.84-3.36,3.88.8-1.24,1.41-2.83,1.23-3.91-.39-2.33-3.27-2.84-4.82-2.58Z"/>
        <path class="cls-20" d="M166.71,159.96c-.11.02-.22.07-.33.1.32-.57.71-1.09,1.14-1.55.05-.01.11-.03.17-.04,1.55-.26,4.43.24,4.82,2.58.18,1.08-.43,2.66-1.23,3.91-.79.5-1.52.85-1.95.92-.08.01-.17,0-.25.01.64-1.27.98-3.21.83-4.12-.22-1.34-2.01-2-3.19-1.8Z"/>
      </g>
      <path class="cls-8" d="M151.14,215.9c-2.39-.9-4.68-2.05-6.87-3.4-3.04-1.87-5.9-4.12-8.57-6.62-2.95-2.75-5.67-5.8-8.17-8.96-.37-1.57-.71-3.24-1.06-5-.38-1.91-.78-3.92-1.28-6-1.77-7.44-4.75-15.74-12.29-23.45-2.79-1.54-5.84-2.64-8.75-3.63,0,0,0,.01,0,.02,0,0,12.94,9.7,14.52,18.23-.36-.3-.75-.58-1.15-.82-2.73-1.68-6.31-2.13-9.48-2.15,1.42.48,2.73,1.11,3.93,1.84,5.27,3.24,8.57,8.7,11.16,14.52-.16,1.04-.52,2.26-1.21,3.38-.93,1.51-2.25,2.85-3.62,4.01,2.09-.73,4.27-.31,6.3.67,4.75,5.05,11.12,10.75,10.87,17.89,3.51-4.78,10.35-2.45,16.21.75-.19-.42-.37-.84-.57-1.26Z"/>
      <path class="cls-12" d="M146.53,223.83c3.36,5.88,6.3,12.09,8.52,18.52.32-5.7.03-11.45-.4-17.21-.8-2.68-1.78-5.34-2.95-7.97-5.86-3.2-12.7-5.53-16.21-.75.25-7.14-6.12-12.84-10.87-17.89-2.03-.98-4.21-1.4-6.3-.67,1.37-1.16,2.69-2.5,3.62-4.01.69-1.12,1.04-2.34,1.21-3.38-2.59-5.82-5.9-11.28-11.16-14.52-1.2-.74-2.51-1.36-3.93-1.84,3.17.02,6.75.47,9.48,2.15.4.25.79.52,1.15.82-1.58-8.52-14.52-18.23-14.52-18.23,0,0,0-.01,0-.02,2.91.99,5.96,2.09,8.75,3.63-2.06-2.11-4.46-4.17-7.27-6.16-11.43-4.27-24.79-3.68-36.84-.93,10.43.3,21.29,2.26,30.08,7.66,3.01,1.85,5.77,4.1,8.19,6.82-15.1-1.54-31.8-3.26-43.41,7.97,13.32-5.36,29.77-2.92,42.51,4.91,2.15,1.32,7.75,5.1,9.96,8.29-14.62-2.49-28.31,8.33-38.37,18.3,14.7-6.66,31.92-8.53,46.97-1.68-1.09,3.05-2.48,5.95-4.16,8.68-6.42,10.45-16.85,18.34-28.76,22.1,13.37-3.19,30.08-7.83,37.65-20.15.85-1.39,1.58-2.87,2.19-4.46.04,8.79-2.29,17.24-6.26,24.98,4.05-3.94,7.75-8.16,10.66-12.9,1.81-2.94,3.31-6.08,4.4-9.47,1,3.83,1.61,12.03-.38,22.53,2.54-4.85,4.69-9.91,6.45-15.11Z"/>
      <path class="cls-3" d="M157.95,252.81c.17-9.29-.58-18.6-3.3-27.68.42,5.75.72,11.48.4,17.16,3.47,16.18-1.05,32.3-9.87,46.66-.62,1.02-1.27,2.02-1.94,3.02,4.4-3.33,8.51-6.74,12.31-9.91,1-9.49,2.22-19.36,2.4-29.26Z"/>
      <path class="cls-10" d="M141,248.37c-23.96-14.72-52.72,10.5-69.21,19.66,10.5-11.05,30.63-38.43,7.73-45.12-5.62-1.64-10.19-2.34-14.8-2.55-3.3.26-6.59.7-9.72,1.11,5.94-2.56,10.52-7.02,13.84-12.43,2.37-3.86,4.11-8.2,5.27-12.67-1.13-2.35-2.86-4.39-5.2-5.83-6.17-3.79-13.87-.95-20.85,2.13,3.88-4.1,7.02-8.4,9.93-12.35,4.08-5.54,11.71-22.81,2.86-28.25-11.47-7.05-41.8,19.8-49.6,30.98-23.36,33.46,4.16,29.78,9.34,54.95,1.98,9.61-2.32,15.36,11.38,31.15,3.55,4.09,14.52,9.82,17.71,14.12,5.68,7.68,11.36,14.21,19.47,19.19,21.03,12.92,56.1,9.55,72.85-15.59,15.99-24,10.04-31.74-.98-38.51ZM67.05,296.67c-.41-.25-50.3-41.26-36.37-63.93,4.11-6.69,8.76-6.9,14.29-6.01,7.94-2.42,16.81-1.61,23.76,2.66,11.77,7.23.31,31.17-6.24,41.83-.97,1.59-1.79,2.91-2.57,3.97,22.07-6.74,48.06-25.23,69.31-12.17,8.35,5.13,4.84,17.43.94,23.78-9.87,16.06-38.91,24.74-63.11,9.87Z"/>
      <path class="cls-4" d="M129.23,263.01c-21.25-13.06-47.24,5.43-69.31,12.17.78-1.05,1.59-2.38,2.57-3.97,6.55-10.66,18.02-34.59,6.24-41.83-6.95-4.27-15.82-5.08-23.76-2.66-5.53-.9-10.18-.68-14.29,6.01-13.93,22.67,35.96,63.68,36.37,63.93,24.2,14.87,53.24,6.18,63.11-9.87,3.9-6.35,7.42-18.65-.94-23.78ZM76.31,296.29c-3.23-1.99-7.3-6.91-4.1-12.12,2.31-3.75,7.09-4.66,12.07-5.14,9.39-4.23,26.29-15.76,37.34-8.97,7.41,4.55,6,14.22,3.26,18.68-5.54,9.02-30.23,18.81-48.57,7.55Z"/>
      <path class="cls-17" d="M121.62,270.06c-11.05-6.79-27.95,4.74-37.34,8.97-4.98.48-9.77,1.39-12.07,5.14-3.2,5.2.87,10.13,4.1,12.12,18.33,11.27,43.02,1.47,48.57-7.55,2.74-4.46,4.15-14.13-3.26-18.68Z"/>
      <path class="cls-18" d="M11.25,183.05c5.05-7.23,19.53-21.03,32.23-27.95-14.03,6.64-26.07,16.63-33.3,28.4-1.45,2.35-2.73,4.81-3.84,7.35,1.3-2.36,2.92-4.94,4.91-7.8Z"/>
      <path class="cls-11" d="M155.05,242.3s0,.03,0,.05c-2.22-6.42-5.16-12.64-8.52-18.52-1.76,5.2-3.91,10.26-6.45,15.11,1.98-10.5,1.38-18.71.38-22.53-1.1,3.39-2.6,6.53-4.4,9.47-2.91,4.74-6.61,8.96-10.66,12.9,3.97-7.74,6.3-16.19,6.26-24.98-.6,1.59-1.33,3.08-2.19,4.46-7.57,12.32-24.28,16.96-37.65,20.15,11.91-3.76,22.34-11.65,28.76-22.1,1.68-2.73,3.07-5.63,4.16-8.68-15.05-6.85-32.26-4.97-46.97,1.68,10.05-9.96,23.74-20.78,38.37-18.3-2.21-3.19-7.81-6.97-9.96-8.29-12.74-7.83-29.19-10.27-42.51-4.91,11.61-11.23,28.3-9.5,43.41-7.97-2.42-2.72-5.19-4.97-8.19-6.82-8.79-5.4-19.64-7.36-30.08-7.66,12.06-2.75,25.42-3.34,36.84.93-1.08-.77-2.22-1.52-3.43-2.27-7.32-4.5-16.05-7.03-25.31-7.54-8.28.43-16.59,2.16-24.5,4.95,3.32-.81,6.24-.72,8.45.64,8.85,5.44,1.22,22.71-2.86,28.25-2.91,3.95-6.05,8.25-9.93,12.35,6.98-3.09,14.68-5.93,20.85-2.13,2.34,1.43,4.06,3.48,5.2,5.83-1.16,4.47-2.89,8.81-5.27,12.67-3.33,5.41-7.9,9.87-13.84,12.43,3.13-.41,6.42-.85,9.72-1.11,4.62.21,9.19.91,14.8,2.55,22.9,6.68,2.77,34.06-7.73,45.12,16.49-9.16,45.26-34.38,69.21-19.66,11.02,6.77,16.97,14.51.98,38.51-16.75,25.14-51.82,28.51-72.85,15.59-8.11-4.98-13.79-11.51-19.47-19.19-3.18-4.3-14.16-10.03-17.71-14.12-13.69-15.79-9.4-21.54-11.38-31.15-3.53-17.15-17.43-20.91-18.54-32.15-.5,3.47-.7,7.08-.59,10.8,1.09,2.23,2.84,4.2,5.42,5.78,1.28.79,2.69,1.55,3.96,2.32,8.65,5.31-3.99,28.89,30.25,54.2,9.09,6.72,11.51,17.31,21.72,23.58,31.97,19.65,59.46,5.32,80.42-10.57.67-1,1.32-2.01,1.94-3.02,8.82-14.36,13.34-30.48,9.87-46.66Z"/>
      <path class="cls-5" d="M6.34,190.86c1.11-2.55,2.4-5,3.84-7.35,7.23-11.77,19.27-21.76,33.3-28.4,3.14-1.71,6.17-3,8.92-3.67,7.91-2.79,16.22-4.52,24.5-4.95-6.64-.37-13.54.3-20.4,2.03-17.53,4.43-34.73,15.79-46.21,34.48-6.56,10.67-13.33,24.46-8.81,33.67-.12-3.73.08-7.33.59-10.8-.38-3.84.74-8.57,4.28-15Z"/>
    </g>
  </g>
</svg>