<?xml version="1.0" encoding="UTF-8"?>
<svg id="Layer_2" data-name="Layer 2" xmlns="http://www.w3.org/2000/svg" viewBox="0 0 17.03 17.03">
  <defs>
    <style>
      .cls-1 {
        fill: #d3ad62;
      }
    </style>
  </defs>
  <g id="main">
    <path class="cls-1" d="M8.51,0C3.81,0,0,3.81,0,8.51s3.81,8.51,8.51,8.51,8.51-3.81,8.51-8.51S13.21,0,8.51,0ZM14.08,5.71c-2.05,2.29-4.35,4.39-6.5,6.6-.46.38-.87.48-1.38.09-.89-1.05-2.24-2.02-3.09-3.08-.32-.4-.38-.91,0-1.31.46-.49,1.03-.3,1.48.08.8.68,1.45,1.58,2.27,2.23l5.73-5.71c.78-.64,1.87.18,1.49,1.11Z"/>
  </g>
</svg>