<svg xmlns="http://www.w3.org/2000/svg" viewBox="0 0 54.82 67.44">
    <defs>
        <style>.cls-1{fill:#ffe8b8;}</style>
    </defs>
    <g id="Layer_2" data-name="Layer 2">
        <g id="main">
            <path class="cls-1"
                d="M38,2.41,52.41,17c1.82,1.86,2.41,3.7,2.41,6.57V46.07c0,5.4-2.7,8.14-8.06,8.14h-5v-3.7h4.83c3,0,4.55-1.59,4.55-4.5V22.45H37.81c-2.91,0-4.35-1.36-4.35-4.35V3.7H21.34c-3,0-4.56,1.66-4.56,4.52v5h-3.7V8.14c0-5.4,2.74-8.14,8.07-8.14H31.82A8,8,0,0,1,38,2.41ZM36.82,17.6c0,1.06.44,1.48,1.49,1.48H50.07L36.82,5.67Z" />
            <path class="cls-1"
                d="M0,59.3c0,5.42,2.7,8.14,8.06,8.14H33.69c5.35,0,8.05-2.75,8.05-8.14V37.7c0-3.11-.38-4.47-2.32-6.44L23.92,15.55c-1.85-1.89-3.35-2.33-6.14-2.33H8.06C2.74,13.22,0,16,0,21.36Zm3.7-.07V21.45c0-2.87,1.55-4.52,4.56-4.52h9.48V33c0,3.21,1.61,4.73,4.73,4.73H38V59.23c0,2.91-1.55,4.5-4.56,4.5H8.24C5.25,63.73,3.7,62.14,3.7,59.23Zm19.19-25c-1.19,0-1.65-.46-1.65-1.65V17.93L37.31,34.21Z" />
        </g>
    </g>
</svg>