<svg xmlns="http://www.w3.org/2000/svg" viewBox="0 0 44.4 213.98"><defs><style>.cls-1{fill:none;stroke:#d3ad62;stroke-miterlimit:10;stroke-width:3px;}</style></defs><g id="Layer_2" data-name="Layer 2"><g id="Layer_2-2" data-name="Layer 2"><path class="cls-1" d="M42.9,20h0C42.9,9.6,34.8,1.5,22.2,1.5S1.5,9.6,1.5,20h0v173.9h0c0,10.44,8.1,18.54,20.7,18.54s20.7-8.1,20.7-18.54h0Z"/><path class="cls-1" d="M42.9,193.94c0-10.44-8.1-18.54-20.7-18.54S1.5,183.5,1.5,193.94s8.1,18.54,20.7,18.54S42.9,204.38,42.9,193.94Z"/><path class="cls-1" d="M42.9,150.46c0-10.44-8.1-18.54-20.7-18.54S1.5,140,1.5,150.46,9.6,169,22.2,169s20.7-8.1,20.7-18.54Z"/><path class="cls-1" d="M42.9,107c0-10.44-8.1-18.54-20.7-18.54S1.5,96.55,1.5,107s8.1,18.54,20.7,18.54S42.9,117.43,42.9,107Z"/><path class="cls-1" d="M42.9,63.51C42.9,53.07,34.8,45,22.2,45S1.5,53.07,1.5,63.51,9.6,82.05,22.2,82.05,42.9,74,42.9,63.51Z"/><path class="cls-1" d="M42.9,20C42.9,9.6,34.8,1.5,22.2,1.5S1.5,9.6,1.5,20,9.6,38.58,22.2,38.58,42.9,30.48,42.9,20Z"/></g></g></svg>