<svg xmlns="http://www.w3.org/2000/svg" viewBox="0 0 44.4 40.08"><defs><style>.cls-1{fill:none;stroke:#d3ad62;stroke-miterlimit:10;stroke-width:3px;}.cls-2{fill:#d3ad62;}</style></defs><g id="Layer_2" data-name="Layer 2"><g id="main"><path class="cls-1" d="M1.5,20C1.5,9.6,9.6,1.5,22.2,1.5S42.9,9.6,42.9,20,34.8,38.58,22.2,38.58,1.5,30.48,1.5,20Z"/><path class="cls-2" d="M21.42,29.06v-.92c0-3-1.06-5.18-4.26-6v-.49a23.18,23.18,0,0,0,5.33.63H34.86v-4.4H22.49a22.5,22.5,0,0,0-5.33.66V18c3.2-.89,4.26-3.11,4.26-6.05V11H17.25v.55c0,4.32-2.59,7-7.26,7H9.53v3H10c4.67,0,7.26,2.71,7.26,7v.54Z"/></g></g></svg>