<svg xmlns="http://www.w3.org/2000/svg" viewBox="0 0 44.4 40.08"><defs><style>.cls-1{fill:none;stroke:#d3ad62;stroke-miterlimit:10;stroke-width:3px;}.cls-2{fill:#d3ad62;}</style></defs><g id="Layer_2" data-name="Layer 2"><g id="main"><path class="cls-1" d="M42.9,20C42.9,9.6,34.8,1.5,22.2,1.5S1.5,9.6,1.5,20,9.6,38.58,22.2,38.58,42.9,30.48,42.9,20Z"/><path class="cls-2" d="M37.09,6.7,29.2,13.77a9.38,9.38,0,0,1-14,12.51l4.06-3.63L18.9,23l10.3-9.22a9.38,9.38,0,1,0-14,12.51L7.31,33.37C10.9,36.61,16,38.58,22.2,38.58c12.6,0,20.7-8.1,20.7-18.54A17.63,17.63,0,0,0,37.09,6.7Z"/></g></g></svg>