<svg xmlns="http://www.w3.org/2000/svg" viewBox="0 0 44.4 40.08">
    <defs>
        <style>
            .cls-1{fill:none;stroke:#facd74;stroke-miterlimit:10;stroke-width:3px;}.cls-2{fill:#facd74;}</style>
    </defs>
    <g id="Layer_2" data-name="Layer 2">
        <g id="Layer_2-2" data-name="Layer 2">
            <path class="cls-1"
                d="M42.9,20C42.9,9.6,34.8,1.5,22.2,1.5S1.5,9.6,1.5,20,9.6,38.58,22.2,38.58,42.9,30.48,42.9,20Z" />
            <path class="cls-2"
                d="M37.09,6.7,29.2,13.77a9.37,9.37,0,0,1-14,12.51l4.06-3.63-.38.34,10.3-9.22a9.38,9.38,0,1,0-14,12.51l-7.92,7.1c3.59,3.23,8.69,5.2,14.89,5.2,12.6,0,20.7-8.1,20.7-18.54A17.65,17.65,0,0,0,37.11,6.7Z" />
        </g>
    </g>
</svg>