<svg xmlns="http://www.w3.org/2000/svg" viewBox="0 0 44.4 40.08">
    <defs>
        <style>
            .cls-1{fill:none;stroke:#facd74;stroke-miterlimit:10;stroke-width:3px;}.cls-2{fill:#facd74;}</style>
    </defs>
    <g id="Layer_2" data-name="Layer 2">
        <g id="Layer_2-2" data-name="Layer 2">
            <path class="cls-1"
                d="M42.9,20C42.9,9.6,34.8,1.5,22.2,1.5S1.5,9.6,1.5,20,9.6,38.58,22.2,38.58,42.9,30.48,42.9,20Z" />
            <path class="cls-2"
                d="M29.2,13.77,37.09,6.7C33.5,3.47,28.4,1.5,22.2,1.5,9.6,1.5,1.5,9.6,1.5,20A17.65,17.65,0,0,0,7.31,33.38l7.92-7.1a9.38,9.38,0,1,1,14-12.51l-14,12.51a9.37,9.37,0,0,0,14-12.51Z" />
        </g>
    </g>
</svg>