<svg xmlns="http://www.w3.org/2000/svg" viewBox="0 0 44.4 40.08">
    <defs>
        <style>
            .cls-1,.cls-2,.cls-4{fill:none;stroke:#facd74;stroke-miterlimit:10;}.cls-1{stroke-width:3px;}.cls-2{stroke-width:1.79px;}.cls-3{fill:#facd74;}</style>
    </defs>
    <g id="Layer_2" data-name="Layer 2">
        <g id="Layer_2-2" data-name="Layer 2">
            <path class="cls-1"
                d="M42.9,20C42.9,9.6,34.8,1.5,22.2,1.5S1.5,9.6,1.5,20,9.6,38.58,22.2,38.58,42.9,30.48,42.9,20Z" />
            <line class="cls-2" x1="22.2" y1="1.5" x2="22.2" y2="13.05" />
            <rect class="cls-2" x="16.97" y="13.05" width="10.46" height="2.82" />
            <polyline class="cls-2" points="17.02 15.87 9.67 22.62 34.72 22.62 27.46 15.95" />
            <path class="cls-3" d="M17.09,22.62a5.11,5.11,0,0,0,10.22,0H17.09Z" />
            <line class="cls-4" x1="12.42" y1="28.4" x2="15.83" y2="26.43" />
            <line class="cls-4" x1="31.6" y1="28.4" x2="28.18" y2="26.43" />
            <line class="cls-4" x1="27.65" y1="32.02" x2="25.39" y2="28.79" />
            <line class="cls-4" x1="16.51" y1="32.02" x2="18.77" y2="28.79" />
            <line class="cls-4" x1="22.15" y1="33.95" x2="22.15" y2="30.01" />
        </g>
    </g>
</svg>