<svg xmlns="http://www.w3.org/2000/svg" viewBox="0 0 44.4 40.08">
    <defs>
        <style>
            .cls-1,.cls-2{fill:none;stroke:#facd74;stroke-miterlimit:10;}.cls-1{stroke-width:3px;}.cls-2{stroke-width:2.3px;}.cls-3{fill:#facd74;}</style>
    </defs>
    <g id="Layer_2" data-name="Layer 2">
        <g id="Layer_2-2" data-name="Layer 2">
            <path class="cls-1"
                d="M1.5,20C1.5,9.6,9.6,1.5,22.2,1.5S42.9,9.6,42.9,20,34.8,38.58,22.2,38.58,1.5,30.48,1.5,20Z" />
            <path class="cls-2"
                d="M19.85,8.73v8a.75.75,0,0,1-.1.36L13.07,27.73a.67.67,0,0,0,.57,1H30.76a.67.67,0,0,0,.57-1L24.48,16.87a.65.65,0,0,1-.1-.36V8.73H19.85Z" />
            <path class="cls-3"
                d="M31.33,27.73,26.6,20.22a9.62,9.62,0,0,1-6.18.18,16.72,16.72,0,0,1-2.2-.91l-5.15,8.24a.67.67,0,0,0,.57,1H30.76A.67.67,0,0,0,31.33,27.73Zm-8.45-5.5a.23.23,0,1,1-.23.23A.23.23,0,0,1,22.88,22.23Zm-1.77,2.41a.46.46,0,0,1,.46.46.46.46,0,1,1-.46-.46Zm-.64-.51a1.44,1.44,0,1,1,1.44-1.44A1.44,1.44,0,0,1,20.47,24.13Zm2.18,2.67a.69.69,0,1,1,.69-.69A.69.69,0,0,1,22.65,26.8Zm1.77-2.1a1,1,0,1,1,0-1.38A1,1,0,0,1,24.42,24.7Z" />
        </g>
    </g>
</svg>