<svg xmlns="http://www.w3.org/2000/svg" viewBox="0 0 44.4 40.08">
    <defs>
        <style>
            .cls-1{fill:#facd74;}.cls-2{fill:none;stroke:#facd74;stroke-miterlimit:10;stroke-width:3px;}</style>
    </defs>
    <g id="Layer_2" data-name="Layer 2">
        <g id="Layer_2-2" data-name="Layer 2">
            <path class="cls-1"
                d="M31.68,10.56c-.07.18-.11.29-.16.4q-2.7,6.3-5.41,12.6a.84.84,0,0,1-.39.4Q19.38,26.71,13,29.42l-.32.11a2.79,2.79,0,0,1,.12-.35q2.72-6.33,5.44-12.67a.72.72,0,0,1,.33-.36l12.87-5.53ZM22.19,22A1.91,1.91,0,1,0,20.28,20,1.93,1.93,0,0,0,22.19,22Z" />
            <path class="cls-2"
                d="M42.9,20C42.9,9.6,34.8,1.5,22.2,1.5S1.5,9.6,1.5,20,9.6,38.58,22.2,38.58,42.9,30.48,42.9,20Z" />
        </g>
    </g>
</svg>